G04 #@! TF.GenerationSoftware,KiCad,Pcbnew,5.1.4-e60b266~84~ubuntu18.04.1*
G04 #@! TF.CreationDate,2019-11-16T17:22:57+03:00*
G04 #@! TF.ProjectId,Dreamstalker-PRO-v1,44726561-6d73-4746-916c-6b65722d5052,v1.0*
G04 #@! TF.SameCoordinates,Original*
G04 #@! TF.FileFunction,Soldermask,Bot*
G04 #@! TF.FilePolarity,Negative*
%FSLAX46Y46*%
G04 Gerber Fmt 4.6, Leading zero omitted, Abs format (unit mm)*
G04 Created by KiCad (PCBNEW 5.1.4-e60b266~84~ubuntu18.04.1) date 2019-11-16 17:22:57*
%MOMM*%
%LPD*%
G04 APERTURE LIST*
%ADD10C,0.100000*%
G04 APERTURE END LIST*
D10*
G36*
X102579591Y-123178085D02*
G01*
X102613569Y-123188393D01*
X102644890Y-123205134D01*
X102672339Y-123227661D01*
X102694866Y-123255110D01*
X102711607Y-123286431D01*
X102721915Y-123320409D01*
X102726000Y-123361890D01*
X102726000Y-124038110D01*
X102721915Y-124079591D01*
X102711607Y-124113569D01*
X102694866Y-124144890D01*
X102672339Y-124172339D01*
X102644890Y-124194866D01*
X102613569Y-124211607D01*
X102579591Y-124221915D01*
X102538110Y-124226000D01*
X101936890Y-124226000D01*
X101895409Y-124221915D01*
X101861431Y-124211607D01*
X101830110Y-124194866D01*
X101802661Y-124172339D01*
X101780134Y-124144890D01*
X101763393Y-124113569D01*
X101753085Y-124079591D01*
X101749000Y-124038110D01*
X101749000Y-123361890D01*
X101753085Y-123320409D01*
X101763393Y-123286431D01*
X101780134Y-123255110D01*
X101802661Y-123227661D01*
X101830110Y-123205134D01*
X101861431Y-123188393D01*
X101895409Y-123178085D01*
X101936890Y-123174000D01*
X102538110Y-123174000D01*
X102579591Y-123178085D01*
X102579591Y-123178085D01*
G37*
G36*
X101004591Y-123178085D02*
G01*
X101038569Y-123188393D01*
X101069890Y-123205134D01*
X101097339Y-123227661D01*
X101119866Y-123255110D01*
X101136607Y-123286431D01*
X101146915Y-123320409D01*
X101151000Y-123361890D01*
X101151000Y-124038110D01*
X101146915Y-124079591D01*
X101136607Y-124113569D01*
X101119866Y-124144890D01*
X101097339Y-124172339D01*
X101069890Y-124194866D01*
X101038569Y-124211607D01*
X101004591Y-124221915D01*
X100963110Y-124226000D01*
X100361890Y-124226000D01*
X100320409Y-124221915D01*
X100286431Y-124211607D01*
X100255110Y-124194866D01*
X100227661Y-124172339D01*
X100205134Y-124144890D01*
X100188393Y-124113569D01*
X100178085Y-124079591D01*
X100174000Y-124038110D01*
X100174000Y-123361890D01*
X100178085Y-123320409D01*
X100188393Y-123286431D01*
X100205134Y-123255110D01*
X100227661Y-123227661D01*
X100255110Y-123205134D01*
X100286431Y-123188393D01*
X100320409Y-123178085D01*
X100361890Y-123174000D01*
X100963110Y-123174000D01*
X101004591Y-123178085D01*
X101004591Y-123178085D01*
G37*
G36*
X96404591Y-123178085D02*
G01*
X96438569Y-123188393D01*
X96469890Y-123205134D01*
X96497339Y-123227661D01*
X96519866Y-123255110D01*
X96536607Y-123286431D01*
X96546915Y-123320409D01*
X96551000Y-123361890D01*
X96551000Y-124038110D01*
X96546915Y-124079591D01*
X96536607Y-124113569D01*
X96519866Y-124144890D01*
X96497339Y-124172339D01*
X96469890Y-124194866D01*
X96438569Y-124211607D01*
X96404591Y-124221915D01*
X96363110Y-124226000D01*
X95761890Y-124226000D01*
X95720409Y-124221915D01*
X95686431Y-124211607D01*
X95655110Y-124194866D01*
X95627661Y-124172339D01*
X95605134Y-124144890D01*
X95588393Y-124113569D01*
X95578085Y-124079591D01*
X95574000Y-124038110D01*
X95574000Y-123361890D01*
X95578085Y-123320409D01*
X95588393Y-123286431D01*
X95605134Y-123255110D01*
X95627661Y-123227661D01*
X95655110Y-123205134D01*
X95686431Y-123188393D01*
X95720409Y-123178085D01*
X95761890Y-123174000D01*
X96363110Y-123174000D01*
X96404591Y-123178085D01*
X96404591Y-123178085D01*
G37*
G36*
X97979591Y-123178085D02*
G01*
X98013569Y-123188393D01*
X98044890Y-123205134D01*
X98072339Y-123227661D01*
X98094866Y-123255110D01*
X98111607Y-123286431D01*
X98121915Y-123320409D01*
X98126000Y-123361890D01*
X98126000Y-124038110D01*
X98121915Y-124079591D01*
X98111607Y-124113569D01*
X98094866Y-124144890D01*
X98072339Y-124172339D01*
X98044890Y-124194866D01*
X98013569Y-124211607D01*
X97979591Y-124221915D01*
X97938110Y-124226000D01*
X97336890Y-124226000D01*
X97295409Y-124221915D01*
X97261431Y-124211607D01*
X97230110Y-124194866D01*
X97202661Y-124172339D01*
X97180134Y-124144890D01*
X97163393Y-124113569D01*
X97153085Y-124079591D01*
X97149000Y-124038110D01*
X97149000Y-123361890D01*
X97153085Y-123320409D01*
X97163393Y-123286431D01*
X97180134Y-123255110D01*
X97202661Y-123227661D01*
X97230110Y-123205134D01*
X97261431Y-123188393D01*
X97295409Y-123178085D01*
X97336890Y-123174000D01*
X97938110Y-123174000D01*
X97979591Y-123178085D01*
X97979591Y-123178085D01*
G37*
G36*
X100379591Y-119903085D02*
G01*
X100413569Y-119913393D01*
X100444890Y-119930134D01*
X100472339Y-119952661D01*
X100494866Y-119980110D01*
X100511607Y-120011431D01*
X100521915Y-120045409D01*
X100526000Y-120086890D01*
X100526000Y-120688110D01*
X100521915Y-120729591D01*
X100511607Y-120763569D01*
X100494866Y-120794890D01*
X100472339Y-120822339D01*
X100444890Y-120844866D01*
X100413569Y-120861607D01*
X100379591Y-120871915D01*
X100338110Y-120876000D01*
X99661890Y-120876000D01*
X99620409Y-120871915D01*
X99586431Y-120861607D01*
X99555110Y-120844866D01*
X99527661Y-120822339D01*
X99505134Y-120794890D01*
X99488393Y-120763569D01*
X99478085Y-120729591D01*
X99474000Y-120688110D01*
X99474000Y-120086890D01*
X99478085Y-120045409D01*
X99488393Y-120011431D01*
X99505134Y-119980110D01*
X99527661Y-119952661D01*
X99555110Y-119930134D01*
X99586431Y-119913393D01*
X99620409Y-119903085D01*
X99661890Y-119899000D01*
X100338110Y-119899000D01*
X100379591Y-119903085D01*
X100379591Y-119903085D01*
G37*
G36*
X102629591Y-119903085D02*
G01*
X102663569Y-119913393D01*
X102694890Y-119930134D01*
X102722339Y-119952661D01*
X102744866Y-119980110D01*
X102761607Y-120011431D01*
X102771915Y-120045409D01*
X102776000Y-120086890D01*
X102776000Y-120688110D01*
X102771915Y-120729591D01*
X102761607Y-120763569D01*
X102744866Y-120794890D01*
X102722339Y-120822339D01*
X102694890Y-120844866D01*
X102663569Y-120861607D01*
X102629591Y-120871915D01*
X102588110Y-120876000D01*
X101911890Y-120876000D01*
X101870409Y-120871915D01*
X101836431Y-120861607D01*
X101805110Y-120844866D01*
X101777661Y-120822339D01*
X101755134Y-120794890D01*
X101738393Y-120763569D01*
X101728085Y-120729591D01*
X101724000Y-120688110D01*
X101724000Y-120086890D01*
X101728085Y-120045409D01*
X101738393Y-120011431D01*
X101755134Y-119980110D01*
X101777661Y-119952661D01*
X101805110Y-119930134D01*
X101836431Y-119913393D01*
X101870409Y-119903085D01*
X101911890Y-119899000D01*
X102588110Y-119899000D01*
X102629591Y-119903085D01*
X102629591Y-119903085D01*
G37*
G36*
X102629591Y-118328085D02*
G01*
X102663569Y-118338393D01*
X102694890Y-118355134D01*
X102722339Y-118377661D01*
X102744866Y-118405110D01*
X102761607Y-118436431D01*
X102771915Y-118470409D01*
X102776000Y-118511890D01*
X102776000Y-119113110D01*
X102771915Y-119154591D01*
X102761607Y-119188569D01*
X102744866Y-119219890D01*
X102722339Y-119247339D01*
X102694890Y-119269866D01*
X102663569Y-119286607D01*
X102629591Y-119296915D01*
X102588110Y-119301000D01*
X101911890Y-119301000D01*
X101870409Y-119296915D01*
X101836431Y-119286607D01*
X101805110Y-119269866D01*
X101777661Y-119247339D01*
X101755134Y-119219890D01*
X101738393Y-119188569D01*
X101728085Y-119154591D01*
X101724000Y-119113110D01*
X101724000Y-118511890D01*
X101728085Y-118470409D01*
X101738393Y-118436431D01*
X101755134Y-118405110D01*
X101777661Y-118377661D01*
X101805110Y-118355134D01*
X101836431Y-118338393D01*
X101870409Y-118328085D01*
X101911890Y-118324000D01*
X102588110Y-118324000D01*
X102629591Y-118328085D01*
X102629591Y-118328085D01*
G37*
G36*
X100379591Y-118328085D02*
G01*
X100413569Y-118338393D01*
X100444890Y-118355134D01*
X100472339Y-118377661D01*
X100494866Y-118405110D01*
X100511607Y-118436431D01*
X100521915Y-118470409D01*
X100526000Y-118511890D01*
X100526000Y-119113110D01*
X100521915Y-119154591D01*
X100511607Y-119188569D01*
X100494866Y-119219890D01*
X100472339Y-119247339D01*
X100444890Y-119269866D01*
X100413569Y-119286607D01*
X100379591Y-119296915D01*
X100338110Y-119301000D01*
X99661890Y-119301000D01*
X99620409Y-119296915D01*
X99586431Y-119286607D01*
X99555110Y-119269866D01*
X99527661Y-119247339D01*
X99505134Y-119219890D01*
X99488393Y-119188569D01*
X99478085Y-119154591D01*
X99474000Y-119113110D01*
X99474000Y-118511890D01*
X99478085Y-118470409D01*
X99488393Y-118436431D01*
X99505134Y-118405110D01*
X99527661Y-118377661D01*
X99555110Y-118355134D01*
X99586431Y-118338393D01*
X99620409Y-118328085D01*
X99661890Y-118324000D01*
X100338110Y-118324000D01*
X100379591Y-118328085D01*
X100379591Y-118328085D01*
G37*
G36*
X95575256Y-115441298D02*
G01*
X95681579Y-115462447D01*
X95754355Y-115492592D01*
X95980903Y-115586431D01*
X95982042Y-115586903D01*
X96252451Y-115767585D01*
X96482415Y-115997549D01*
X96663097Y-116267958D01*
X96787553Y-116568421D01*
X96851000Y-116887391D01*
X96851000Y-117212609D01*
X96787553Y-117531579D01*
X96663097Y-117832042D01*
X96482415Y-118102451D01*
X96252451Y-118332415D01*
X95982042Y-118513097D01*
X95681579Y-118637553D01*
X95575256Y-118658702D01*
X95362611Y-118701000D01*
X95037389Y-118701000D01*
X94824744Y-118658702D01*
X94718421Y-118637553D01*
X94417958Y-118513097D01*
X94147549Y-118332415D01*
X93917585Y-118102451D01*
X93736903Y-117832042D01*
X93612447Y-117531579D01*
X93549000Y-117212609D01*
X93549000Y-116887391D01*
X93612447Y-116568421D01*
X93736903Y-116267958D01*
X93917585Y-115997549D01*
X94147549Y-115767585D01*
X94417958Y-115586903D01*
X94419098Y-115586431D01*
X94645645Y-115492592D01*
X94718421Y-115462447D01*
X94824744Y-115441298D01*
X95037389Y-115399000D01*
X95362611Y-115399000D01*
X95575256Y-115441298D01*
X95575256Y-115441298D01*
G37*
G36*
X162204591Y-115478085D02*
G01*
X162238569Y-115488393D01*
X162269890Y-115505134D01*
X162297339Y-115527661D01*
X162319866Y-115555110D01*
X162336607Y-115586431D01*
X162346915Y-115620409D01*
X162351000Y-115661890D01*
X162351000Y-116338110D01*
X162346915Y-116379591D01*
X162336607Y-116413569D01*
X162319866Y-116444890D01*
X162297339Y-116472339D01*
X162269890Y-116494866D01*
X162238569Y-116511607D01*
X162204591Y-116521915D01*
X162163110Y-116526000D01*
X161561890Y-116526000D01*
X161520409Y-116521915D01*
X161486431Y-116511607D01*
X161455110Y-116494866D01*
X161427661Y-116472339D01*
X161405134Y-116444890D01*
X161388393Y-116413569D01*
X161378085Y-116379591D01*
X161374000Y-116338110D01*
X161374000Y-115661890D01*
X161378085Y-115620409D01*
X161388393Y-115586431D01*
X161405134Y-115555110D01*
X161427661Y-115527661D01*
X161455110Y-115505134D01*
X161486431Y-115488393D01*
X161520409Y-115478085D01*
X161561890Y-115474000D01*
X162163110Y-115474000D01*
X162204591Y-115478085D01*
X162204591Y-115478085D01*
G37*
G36*
X163779591Y-115478085D02*
G01*
X163813569Y-115488393D01*
X163844890Y-115505134D01*
X163872339Y-115527661D01*
X163894866Y-115555110D01*
X163911607Y-115586431D01*
X163921915Y-115620409D01*
X163926000Y-115661890D01*
X163926000Y-116338110D01*
X163921915Y-116379591D01*
X163911607Y-116413569D01*
X163894866Y-116444890D01*
X163872339Y-116472339D01*
X163844890Y-116494866D01*
X163813569Y-116511607D01*
X163779591Y-116521915D01*
X163738110Y-116526000D01*
X163136890Y-116526000D01*
X163095409Y-116521915D01*
X163061431Y-116511607D01*
X163030110Y-116494866D01*
X163002661Y-116472339D01*
X162980134Y-116444890D01*
X162963393Y-116413569D01*
X162953085Y-116379591D01*
X162949000Y-116338110D01*
X162949000Y-115661890D01*
X162953085Y-115620409D01*
X162963393Y-115586431D01*
X162980134Y-115555110D01*
X163002661Y-115527661D01*
X163030110Y-115505134D01*
X163061431Y-115488393D01*
X163095409Y-115478085D01*
X163136890Y-115474000D01*
X163738110Y-115474000D01*
X163779591Y-115478085D01*
X163779591Y-115478085D01*
G37*
G36*
X112030443Y-111605519D02*
G01*
X112096627Y-111612037D01*
X112266466Y-111663557D01*
X112422991Y-111747222D01*
X112458729Y-111776552D01*
X112560186Y-111859814D01*
X112643448Y-111961271D01*
X112672778Y-111997009D01*
X112756443Y-112153534D01*
X112807963Y-112323373D01*
X112825359Y-112500000D01*
X112807963Y-112676627D01*
X112756443Y-112846466D01*
X112672778Y-113002991D01*
X112643448Y-113038729D01*
X112560186Y-113140186D01*
X112458729Y-113223448D01*
X112422991Y-113252778D01*
X112266466Y-113336443D01*
X112096627Y-113387963D01*
X112030442Y-113394482D01*
X111964260Y-113401000D01*
X111875740Y-113401000D01*
X111809558Y-113394482D01*
X111743373Y-113387963D01*
X111573534Y-113336443D01*
X111417009Y-113252778D01*
X111381271Y-113223448D01*
X111279814Y-113140186D01*
X111196552Y-113038729D01*
X111167222Y-113002991D01*
X111083557Y-112846466D01*
X111032037Y-112676627D01*
X111014641Y-112500000D01*
X111032037Y-112323373D01*
X111083557Y-112153534D01*
X111167222Y-111997009D01*
X111196552Y-111961271D01*
X111279814Y-111859814D01*
X111381271Y-111776552D01*
X111417009Y-111747222D01*
X111573534Y-111663557D01*
X111743373Y-111612037D01*
X111809557Y-111605519D01*
X111875740Y-111599000D01*
X111964260Y-111599000D01*
X112030443Y-111605519D01*
X112030443Y-111605519D01*
G37*
G36*
X114570443Y-111605519D02*
G01*
X114636627Y-111612037D01*
X114806466Y-111663557D01*
X114962991Y-111747222D01*
X114998729Y-111776552D01*
X115100186Y-111859814D01*
X115183448Y-111961271D01*
X115212778Y-111997009D01*
X115296443Y-112153534D01*
X115347963Y-112323373D01*
X115365359Y-112500000D01*
X115347963Y-112676627D01*
X115296443Y-112846466D01*
X115212778Y-113002991D01*
X115183448Y-113038729D01*
X115100186Y-113140186D01*
X114998729Y-113223448D01*
X114962991Y-113252778D01*
X114806466Y-113336443D01*
X114636627Y-113387963D01*
X114570442Y-113394482D01*
X114504260Y-113401000D01*
X114415740Y-113401000D01*
X114349558Y-113394482D01*
X114283373Y-113387963D01*
X114113534Y-113336443D01*
X113957009Y-113252778D01*
X113921271Y-113223448D01*
X113819814Y-113140186D01*
X113736552Y-113038729D01*
X113707222Y-113002991D01*
X113623557Y-112846466D01*
X113572037Y-112676627D01*
X113554641Y-112500000D01*
X113572037Y-112323373D01*
X113623557Y-112153534D01*
X113707222Y-111997009D01*
X113736552Y-111961271D01*
X113819814Y-111859814D01*
X113921271Y-111776552D01*
X113957009Y-111747222D01*
X114113534Y-111663557D01*
X114283373Y-111612037D01*
X114349557Y-111605519D01*
X114415740Y-111599000D01*
X114504260Y-111599000D01*
X114570443Y-111605519D01*
X114570443Y-111605519D01*
G37*
G36*
X109490443Y-111605519D02*
G01*
X109556627Y-111612037D01*
X109726466Y-111663557D01*
X109882991Y-111747222D01*
X109918729Y-111776552D01*
X110020186Y-111859814D01*
X110103448Y-111961271D01*
X110132778Y-111997009D01*
X110216443Y-112153534D01*
X110267963Y-112323373D01*
X110285359Y-112500000D01*
X110267963Y-112676627D01*
X110216443Y-112846466D01*
X110132778Y-113002991D01*
X110103448Y-113038729D01*
X110020186Y-113140186D01*
X109918729Y-113223448D01*
X109882991Y-113252778D01*
X109726466Y-113336443D01*
X109556627Y-113387963D01*
X109490442Y-113394482D01*
X109424260Y-113401000D01*
X109335740Y-113401000D01*
X109269558Y-113394482D01*
X109203373Y-113387963D01*
X109033534Y-113336443D01*
X108877009Y-113252778D01*
X108841271Y-113223448D01*
X108739814Y-113140186D01*
X108656552Y-113038729D01*
X108627222Y-113002991D01*
X108543557Y-112846466D01*
X108492037Y-112676627D01*
X108474641Y-112500000D01*
X108492037Y-112323373D01*
X108543557Y-112153534D01*
X108627222Y-111997009D01*
X108656552Y-111961271D01*
X108739814Y-111859814D01*
X108841271Y-111776552D01*
X108877009Y-111747222D01*
X109033534Y-111663557D01*
X109203373Y-111612037D01*
X109269557Y-111605519D01*
X109335740Y-111599000D01*
X109424260Y-111599000D01*
X109490443Y-111605519D01*
X109490443Y-111605519D01*
G37*
G36*
X106950443Y-111605519D02*
G01*
X107016627Y-111612037D01*
X107186466Y-111663557D01*
X107342991Y-111747222D01*
X107378729Y-111776552D01*
X107480186Y-111859814D01*
X107563448Y-111961271D01*
X107592778Y-111997009D01*
X107676443Y-112153534D01*
X107727963Y-112323373D01*
X107745359Y-112500000D01*
X107727963Y-112676627D01*
X107676443Y-112846466D01*
X107592778Y-113002991D01*
X107563448Y-113038729D01*
X107480186Y-113140186D01*
X107378729Y-113223448D01*
X107342991Y-113252778D01*
X107186466Y-113336443D01*
X107016627Y-113387963D01*
X106950442Y-113394482D01*
X106884260Y-113401000D01*
X106795740Y-113401000D01*
X106729558Y-113394482D01*
X106663373Y-113387963D01*
X106493534Y-113336443D01*
X106337009Y-113252778D01*
X106301271Y-113223448D01*
X106199814Y-113140186D01*
X106116552Y-113038729D01*
X106087222Y-113002991D01*
X106003557Y-112846466D01*
X105952037Y-112676627D01*
X105934641Y-112500000D01*
X105952037Y-112323373D01*
X106003557Y-112153534D01*
X106087222Y-111997009D01*
X106116552Y-111961271D01*
X106199814Y-111859814D01*
X106301271Y-111776552D01*
X106337009Y-111747222D01*
X106493534Y-111663557D01*
X106663373Y-111612037D01*
X106729557Y-111605519D01*
X106795740Y-111599000D01*
X106884260Y-111599000D01*
X106950443Y-111605519D01*
X106950443Y-111605519D01*
G37*
G36*
X105201000Y-113401000D02*
G01*
X103399000Y-113401000D01*
X103399000Y-111599000D01*
X105201000Y-111599000D01*
X105201000Y-113401000D01*
X105201000Y-113401000D01*
G37*
G36*
X163125256Y-108741298D02*
G01*
X163231579Y-108762447D01*
X163532042Y-108886903D01*
X163802451Y-109067585D01*
X164032415Y-109297549D01*
X164138963Y-109457009D01*
X164213098Y-109567960D01*
X164337553Y-109868422D01*
X164390903Y-110136627D01*
X164401000Y-110187391D01*
X164401000Y-110512609D01*
X164337553Y-110831579D01*
X164213097Y-111132042D01*
X164032415Y-111402451D01*
X163802451Y-111632415D01*
X163532042Y-111813097D01*
X163231579Y-111937553D01*
X163125256Y-111958702D01*
X162912611Y-112001000D01*
X162587389Y-112001000D01*
X162374744Y-111958702D01*
X162268421Y-111937553D01*
X161967958Y-111813097D01*
X161697549Y-111632415D01*
X161467585Y-111402451D01*
X161286903Y-111132042D01*
X161162447Y-110831579D01*
X161099000Y-110512609D01*
X161099000Y-110187391D01*
X161109098Y-110136627D01*
X161162447Y-109868422D01*
X161286902Y-109567960D01*
X161361037Y-109457009D01*
X161467585Y-109297549D01*
X161697549Y-109067585D01*
X161967958Y-108886903D01*
X162268421Y-108762447D01*
X162374744Y-108741298D01*
X162587389Y-108699000D01*
X162912611Y-108699000D01*
X163125256Y-108741298D01*
X163125256Y-108741298D01*
G37*
G36*
X95575256Y-108741298D02*
G01*
X95681579Y-108762447D01*
X95982042Y-108886903D01*
X96252451Y-109067585D01*
X96482415Y-109297549D01*
X96588963Y-109457009D01*
X96663098Y-109567960D01*
X96787553Y-109868422D01*
X96840903Y-110136627D01*
X96851000Y-110187391D01*
X96851000Y-110512609D01*
X96787553Y-110831579D01*
X96663097Y-111132042D01*
X96482415Y-111402451D01*
X96252451Y-111632415D01*
X95982042Y-111813097D01*
X95681579Y-111937553D01*
X95575256Y-111958702D01*
X95362611Y-112001000D01*
X95037389Y-112001000D01*
X94824744Y-111958702D01*
X94718421Y-111937553D01*
X94417958Y-111813097D01*
X94147549Y-111632415D01*
X93917585Y-111402451D01*
X93736903Y-111132042D01*
X93612447Y-110831579D01*
X93549000Y-110512609D01*
X93549000Y-110187391D01*
X93559098Y-110136627D01*
X93612447Y-109868422D01*
X93736902Y-109567960D01*
X93811037Y-109457009D01*
X93917585Y-109297549D01*
X94147549Y-109067585D01*
X94417958Y-108886903D01*
X94718421Y-108762447D01*
X94824744Y-108741298D01*
X95037389Y-108699000D01*
X95362611Y-108699000D01*
X95575256Y-108741298D01*
X95575256Y-108741298D01*
G37*
G36*
X104410443Y-109065519D02*
G01*
X104476627Y-109072037D01*
X104646466Y-109123557D01*
X104802991Y-109207222D01*
X104838729Y-109236552D01*
X104940186Y-109319814D01*
X105023448Y-109421271D01*
X105052778Y-109457009D01*
X105136443Y-109613534D01*
X105187963Y-109783373D01*
X105205359Y-109960000D01*
X105187963Y-110136627D01*
X105136443Y-110306466D01*
X105052778Y-110462991D01*
X105023448Y-110498729D01*
X104940186Y-110600186D01*
X104838729Y-110683448D01*
X104802991Y-110712778D01*
X104646466Y-110796443D01*
X104476627Y-110847963D01*
X104410443Y-110854481D01*
X104344260Y-110861000D01*
X104255740Y-110861000D01*
X104189557Y-110854481D01*
X104123373Y-110847963D01*
X103953534Y-110796443D01*
X103797009Y-110712778D01*
X103761271Y-110683448D01*
X103659814Y-110600186D01*
X103576552Y-110498729D01*
X103547222Y-110462991D01*
X103463557Y-110306466D01*
X103412037Y-110136627D01*
X103394641Y-109960000D01*
X103412037Y-109783373D01*
X103463557Y-109613534D01*
X103547222Y-109457009D01*
X103576552Y-109421271D01*
X103659814Y-109319814D01*
X103761271Y-109236552D01*
X103797009Y-109207222D01*
X103953534Y-109123557D01*
X104123373Y-109072037D01*
X104189557Y-109065519D01*
X104255740Y-109059000D01*
X104344260Y-109059000D01*
X104410443Y-109065519D01*
X104410443Y-109065519D01*
G37*
G36*
X114570443Y-109065519D02*
G01*
X114636627Y-109072037D01*
X114806466Y-109123557D01*
X114962991Y-109207222D01*
X114998729Y-109236552D01*
X115100186Y-109319814D01*
X115183448Y-109421271D01*
X115212778Y-109457009D01*
X115296443Y-109613534D01*
X115347963Y-109783373D01*
X115365359Y-109960000D01*
X115347963Y-110136627D01*
X115296443Y-110306466D01*
X115212778Y-110462991D01*
X115183448Y-110498729D01*
X115100186Y-110600186D01*
X114998729Y-110683448D01*
X114962991Y-110712778D01*
X114806466Y-110796443D01*
X114636627Y-110847963D01*
X114570443Y-110854481D01*
X114504260Y-110861000D01*
X114415740Y-110861000D01*
X114349557Y-110854481D01*
X114283373Y-110847963D01*
X114113534Y-110796443D01*
X113957009Y-110712778D01*
X113921271Y-110683448D01*
X113819814Y-110600186D01*
X113736552Y-110498729D01*
X113707222Y-110462991D01*
X113623557Y-110306466D01*
X113572037Y-110136627D01*
X113554641Y-109960000D01*
X113572037Y-109783373D01*
X113623557Y-109613534D01*
X113707222Y-109457009D01*
X113736552Y-109421271D01*
X113819814Y-109319814D01*
X113921271Y-109236552D01*
X113957009Y-109207222D01*
X114113534Y-109123557D01*
X114283373Y-109072037D01*
X114349557Y-109065519D01*
X114415740Y-109059000D01*
X114504260Y-109059000D01*
X114570443Y-109065519D01*
X114570443Y-109065519D01*
G37*
G36*
X112030443Y-109065519D02*
G01*
X112096627Y-109072037D01*
X112266466Y-109123557D01*
X112422991Y-109207222D01*
X112458729Y-109236552D01*
X112560186Y-109319814D01*
X112643448Y-109421271D01*
X112672778Y-109457009D01*
X112756443Y-109613534D01*
X112807963Y-109783373D01*
X112825359Y-109960000D01*
X112807963Y-110136627D01*
X112756443Y-110306466D01*
X112672778Y-110462991D01*
X112643448Y-110498729D01*
X112560186Y-110600186D01*
X112458729Y-110683448D01*
X112422991Y-110712778D01*
X112266466Y-110796443D01*
X112096627Y-110847963D01*
X112030443Y-110854481D01*
X111964260Y-110861000D01*
X111875740Y-110861000D01*
X111809557Y-110854481D01*
X111743373Y-110847963D01*
X111573534Y-110796443D01*
X111417009Y-110712778D01*
X111381271Y-110683448D01*
X111279814Y-110600186D01*
X111196552Y-110498729D01*
X111167222Y-110462991D01*
X111083557Y-110306466D01*
X111032037Y-110136627D01*
X111014641Y-109960000D01*
X111032037Y-109783373D01*
X111083557Y-109613534D01*
X111167222Y-109457009D01*
X111196552Y-109421271D01*
X111279814Y-109319814D01*
X111381271Y-109236552D01*
X111417009Y-109207222D01*
X111573534Y-109123557D01*
X111743373Y-109072037D01*
X111809557Y-109065519D01*
X111875740Y-109059000D01*
X111964260Y-109059000D01*
X112030443Y-109065519D01*
X112030443Y-109065519D01*
G37*
G36*
X106950443Y-109065519D02*
G01*
X107016627Y-109072037D01*
X107186466Y-109123557D01*
X107342991Y-109207222D01*
X107378729Y-109236552D01*
X107480186Y-109319814D01*
X107563448Y-109421271D01*
X107592778Y-109457009D01*
X107676443Y-109613534D01*
X107727963Y-109783373D01*
X107745359Y-109960000D01*
X107727963Y-110136627D01*
X107676443Y-110306466D01*
X107592778Y-110462991D01*
X107563448Y-110498729D01*
X107480186Y-110600186D01*
X107378729Y-110683448D01*
X107342991Y-110712778D01*
X107186466Y-110796443D01*
X107016627Y-110847963D01*
X106950443Y-110854481D01*
X106884260Y-110861000D01*
X106795740Y-110861000D01*
X106729557Y-110854481D01*
X106663373Y-110847963D01*
X106493534Y-110796443D01*
X106337009Y-110712778D01*
X106301271Y-110683448D01*
X106199814Y-110600186D01*
X106116552Y-110498729D01*
X106087222Y-110462991D01*
X106003557Y-110306466D01*
X105952037Y-110136627D01*
X105934641Y-109960000D01*
X105952037Y-109783373D01*
X106003557Y-109613534D01*
X106087222Y-109457009D01*
X106116552Y-109421271D01*
X106199814Y-109319814D01*
X106301271Y-109236552D01*
X106337009Y-109207222D01*
X106493534Y-109123557D01*
X106663373Y-109072037D01*
X106729557Y-109065519D01*
X106795740Y-109059000D01*
X106884260Y-109059000D01*
X106950443Y-109065519D01*
X106950443Y-109065519D01*
G37*
G36*
X109490443Y-109065519D02*
G01*
X109556627Y-109072037D01*
X109726466Y-109123557D01*
X109882991Y-109207222D01*
X109918729Y-109236552D01*
X110020186Y-109319814D01*
X110103448Y-109421271D01*
X110132778Y-109457009D01*
X110216443Y-109613534D01*
X110267963Y-109783373D01*
X110285359Y-109960000D01*
X110267963Y-110136627D01*
X110216443Y-110306466D01*
X110132778Y-110462991D01*
X110103448Y-110498729D01*
X110020186Y-110600186D01*
X109918729Y-110683448D01*
X109882991Y-110712778D01*
X109726466Y-110796443D01*
X109556627Y-110847963D01*
X109490443Y-110854481D01*
X109424260Y-110861000D01*
X109335740Y-110861000D01*
X109269557Y-110854481D01*
X109203373Y-110847963D01*
X109033534Y-110796443D01*
X108877009Y-110712778D01*
X108841271Y-110683448D01*
X108739814Y-110600186D01*
X108656552Y-110498729D01*
X108627222Y-110462991D01*
X108543557Y-110306466D01*
X108492037Y-110136627D01*
X108474641Y-109960000D01*
X108492037Y-109783373D01*
X108543557Y-109613534D01*
X108627222Y-109457009D01*
X108656552Y-109421271D01*
X108739814Y-109319814D01*
X108841271Y-109236552D01*
X108877009Y-109207222D01*
X109033534Y-109123557D01*
X109203373Y-109072037D01*
X109269557Y-109065519D01*
X109335740Y-109059000D01*
X109424260Y-109059000D01*
X109490443Y-109065519D01*
X109490443Y-109065519D01*
G37*
G36*
X164850442Y-103635518D02*
G01*
X164916627Y-103642037D01*
X165086466Y-103693557D01*
X165242991Y-103777222D01*
X165278729Y-103806552D01*
X165380186Y-103889814D01*
X165463448Y-103991271D01*
X165492778Y-104027009D01*
X165576443Y-104183534D01*
X165627963Y-104353373D01*
X165645359Y-104530000D01*
X165627963Y-104706627D01*
X165576443Y-104876466D01*
X165492778Y-105032991D01*
X165463448Y-105068729D01*
X165380186Y-105170186D01*
X165278729Y-105253448D01*
X165242991Y-105282778D01*
X165086466Y-105366443D01*
X164916627Y-105417963D01*
X164850443Y-105424481D01*
X164784260Y-105431000D01*
X164695740Y-105431000D01*
X164629557Y-105424481D01*
X164563373Y-105417963D01*
X164393534Y-105366443D01*
X164237009Y-105282778D01*
X164201271Y-105253448D01*
X164099814Y-105170186D01*
X164016552Y-105068729D01*
X163987222Y-105032991D01*
X163903557Y-104876466D01*
X163852037Y-104706627D01*
X163834641Y-104530000D01*
X163852037Y-104353373D01*
X163903557Y-104183534D01*
X163987222Y-104027009D01*
X164016552Y-103991271D01*
X164099814Y-103889814D01*
X164201271Y-103806552D01*
X164237009Y-103777222D01*
X164393534Y-103693557D01*
X164563373Y-103642037D01*
X164629557Y-103635519D01*
X164695740Y-103629000D01*
X164784260Y-103629000D01*
X164850442Y-103635518D01*
X164850442Y-103635518D01*
G37*
G36*
X162310442Y-103635518D02*
G01*
X162376627Y-103642037D01*
X162546466Y-103693557D01*
X162702991Y-103777222D01*
X162738729Y-103806552D01*
X162840186Y-103889814D01*
X162923448Y-103991271D01*
X162952778Y-104027009D01*
X163036443Y-104183534D01*
X163087963Y-104353373D01*
X163105359Y-104530000D01*
X163087963Y-104706627D01*
X163036443Y-104876466D01*
X162952778Y-105032991D01*
X162923448Y-105068729D01*
X162840186Y-105170186D01*
X162738729Y-105253448D01*
X162702991Y-105282778D01*
X162546466Y-105366443D01*
X162376627Y-105417963D01*
X162310443Y-105424481D01*
X162244260Y-105431000D01*
X162155740Y-105431000D01*
X162089557Y-105424481D01*
X162023373Y-105417963D01*
X161853534Y-105366443D01*
X161697009Y-105282778D01*
X161661271Y-105253448D01*
X161559814Y-105170186D01*
X161476552Y-105068729D01*
X161447222Y-105032991D01*
X161363557Y-104876466D01*
X161312037Y-104706627D01*
X161294641Y-104530000D01*
X161312037Y-104353373D01*
X161363557Y-104183534D01*
X161447222Y-104027009D01*
X161476552Y-103991271D01*
X161559814Y-103889814D01*
X161661271Y-103806552D01*
X161697009Y-103777222D01*
X161853534Y-103693557D01*
X162023373Y-103642037D01*
X162089557Y-103635519D01*
X162155740Y-103629000D01*
X162244260Y-103629000D01*
X162310442Y-103635518D01*
X162310442Y-103635518D01*
G37*
G36*
X95575256Y-102041298D02*
G01*
X95681579Y-102062447D01*
X95844731Y-102130027D01*
X95933092Y-102166627D01*
X95982042Y-102186903D01*
X96252451Y-102367585D01*
X96482415Y-102597549D01*
X96635357Y-102826443D01*
X96663098Y-102867960D01*
X96787553Y-103168422D01*
X96847536Y-103469973D01*
X96851000Y-103487391D01*
X96851000Y-103812609D01*
X96787553Y-104131579D01*
X96663097Y-104432042D01*
X96482415Y-104702451D01*
X96252451Y-104932415D01*
X95982042Y-105113097D01*
X95681579Y-105237553D01*
X95575256Y-105258702D01*
X95362611Y-105301000D01*
X95037389Y-105301000D01*
X94824744Y-105258702D01*
X94718421Y-105237553D01*
X94417958Y-105113097D01*
X94147549Y-104932415D01*
X93917585Y-104702451D01*
X93736903Y-104432042D01*
X93612447Y-104131579D01*
X93549000Y-103812609D01*
X93549000Y-103487391D01*
X93552465Y-103469973D01*
X93612447Y-103168422D01*
X93736902Y-102867960D01*
X93764643Y-102826443D01*
X93917585Y-102597549D01*
X94147549Y-102367585D01*
X94417958Y-102186903D01*
X94466909Y-102166627D01*
X94555269Y-102130027D01*
X94718421Y-102062447D01*
X94824744Y-102041298D01*
X95037389Y-101999000D01*
X95362611Y-101999000D01*
X95575256Y-102041298D01*
X95575256Y-102041298D01*
G37*
G36*
X142801000Y-104651000D02*
G01*
X141499000Y-104651000D01*
X141499000Y-102349000D01*
X142801000Y-102349000D01*
X142801000Y-104651000D01*
X142801000Y-104651000D01*
G37*
G36*
X158301000Y-104651000D02*
G01*
X156999000Y-104651000D01*
X156999000Y-102349000D01*
X158301000Y-102349000D01*
X158301000Y-104651000D01*
X158301000Y-104651000D01*
G37*
G36*
X155039890Y-103274017D02*
G01*
X155097387Y-103297833D01*
X155158364Y-103323091D01*
X155264988Y-103394335D01*
X155355665Y-103485012D01*
X155426910Y-103591638D01*
X155475983Y-103710110D01*
X155495974Y-103810611D01*
X155501000Y-103835882D01*
X155501000Y-103964118D01*
X155475983Y-104089890D01*
X155426909Y-104208364D01*
X155355665Y-104314988D01*
X155264988Y-104405665D01*
X155158364Y-104476909D01*
X155158363Y-104476910D01*
X155158362Y-104476910D01*
X155039890Y-104525983D01*
X154914119Y-104551000D01*
X154785881Y-104551000D01*
X154660110Y-104525983D01*
X154541638Y-104476910D01*
X154541637Y-104476910D01*
X154541636Y-104476909D01*
X154435012Y-104405665D01*
X154344335Y-104314988D01*
X154273091Y-104208364D01*
X154224017Y-104089890D01*
X154199000Y-103964118D01*
X154199000Y-103835882D01*
X154204027Y-103810611D01*
X154224017Y-103710110D01*
X154273090Y-103591638D01*
X154344335Y-103485012D01*
X154435012Y-103394335D01*
X154541636Y-103323091D01*
X154602614Y-103297833D01*
X154660110Y-103274017D01*
X154785881Y-103249000D01*
X154914119Y-103249000D01*
X155039890Y-103274017D01*
X155039890Y-103274017D01*
G37*
G36*
X147039890Y-103274017D02*
G01*
X147097387Y-103297833D01*
X147158364Y-103323091D01*
X147264988Y-103394335D01*
X147355665Y-103485012D01*
X147426910Y-103591638D01*
X147475983Y-103710110D01*
X147495974Y-103810611D01*
X147501000Y-103835882D01*
X147501000Y-103964118D01*
X147475983Y-104089890D01*
X147426909Y-104208364D01*
X147355665Y-104314988D01*
X147264988Y-104405665D01*
X147158364Y-104476909D01*
X147158363Y-104476910D01*
X147158362Y-104476910D01*
X147039890Y-104525983D01*
X146914119Y-104551000D01*
X146785881Y-104551000D01*
X146660110Y-104525983D01*
X146541638Y-104476910D01*
X146541637Y-104476910D01*
X146541636Y-104476909D01*
X146435012Y-104405665D01*
X146344335Y-104314988D01*
X146273091Y-104208364D01*
X146224017Y-104089890D01*
X146199000Y-103964118D01*
X146199000Y-103835882D01*
X146204027Y-103810611D01*
X146224017Y-103710110D01*
X146273090Y-103591638D01*
X146344335Y-103485012D01*
X146435012Y-103394335D01*
X146541636Y-103323091D01*
X146602614Y-103297833D01*
X146660110Y-103274017D01*
X146785881Y-103249000D01*
X146914119Y-103249000D01*
X147039890Y-103274017D01*
X147039890Y-103274017D01*
G37*
G36*
X126056564Y-101789389D02*
G01*
X126247833Y-101868615D01*
X126247835Y-101868616D01*
X126419973Y-101983635D01*
X126566365Y-102130027D01*
X126681385Y-102302167D01*
X126760611Y-102493436D01*
X126801000Y-102696484D01*
X126801000Y-102903516D01*
X126760611Y-103106564D01*
X126701612Y-103249000D01*
X126681384Y-103297835D01*
X126566365Y-103469973D01*
X126419973Y-103616365D01*
X126247835Y-103731384D01*
X126247834Y-103731385D01*
X126247833Y-103731385D01*
X126056564Y-103810611D01*
X125853516Y-103851000D01*
X125646484Y-103851000D01*
X125443436Y-103810611D01*
X125252167Y-103731385D01*
X125252166Y-103731385D01*
X125252165Y-103731384D01*
X125080027Y-103616365D01*
X124933635Y-103469973D01*
X124818616Y-103297835D01*
X124798388Y-103249000D01*
X124739389Y-103106564D01*
X124699000Y-102903516D01*
X124699000Y-102696484D01*
X124739389Y-102493436D01*
X124818615Y-102302167D01*
X124933635Y-102130027D01*
X125080027Y-101983635D01*
X125252165Y-101868616D01*
X125252167Y-101868615D01*
X125443436Y-101789389D01*
X125646484Y-101749000D01*
X125853516Y-101749000D01*
X126056564Y-101789389D01*
X126056564Y-101789389D01*
G37*
G36*
X101406564Y-101789389D02*
G01*
X101597833Y-101868615D01*
X101597835Y-101868616D01*
X101769973Y-101983635D01*
X101916365Y-102130027D01*
X102031385Y-102302167D01*
X102110611Y-102493436D01*
X102151000Y-102696484D01*
X102151000Y-102903516D01*
X102110611Y-103106564D01*
X102051612Y-103249000D01*
X102031384Y-103297835D01*
X101916365Y-103469973D01*
X101769973Y-103616365D01*
X101597835Y-103731384D01*
X101597834Y-103731385D01*
X101597833Y-103731385D01*
X101406564Y-103810611D01*
X101203516Y-103851000D01*
X100996484Y-103851000D01*
X100793436Y-103810611D01*
X100602167Y-103731385D01*
X100602166Y-103731385D01*
X100602165Y-103731384D01*
X100430027Y-103616365D01*
X100283635Y-103469973D01*
X100168616Y-103297835D01*
X100148388Y-103249000D01*
X100089389Y-103106564D01*
X100049000Y-102903516D01*
X100049000Y-102696484D01*
X100089389Y-102493436D01*
X100168615Y-102302167D01*
X100283635Y-102130027D01*
X100430027Y-101983635D01*
X100602165Y-101868616D01*
X100602167Y-101868615D01*
X100793436Y-101789389D01*
X100996484Y-101749000D01*
X101203516Y-101749000D01*
X101406564Y-101789389D01*
X101406564Y-101789389D01*
G37*
G36*
X107906564Y-101789389D02*
G01*
X108097833Y-101868615D01*
X108097835Y-101868616D01*
X108269973Y-101983635D01*
X108416365Y-102130027D01*
X108531385Y-102302167D01*
X108610611Y-102493436D01*
X108651000Y-102696484D01*
X108651000Y-102903516D01*
X108610611Y-103106564D01*
X108551612Y-103249000D01*
X108531384Y-103297835D01*
X108416365Y-103469973D01*
X108269973Y-103616365D01*
X108097835Y-103731384D01*
X108097834Y-103731385D01*
X108097833Y-103731385D01*
X107906564Y-103810611D01*
X107703516Y-103851000D01*
X107496484Y-103851000D01*
X107293436Y-103810611D01*
X107102167Y-103731385D01*
X107102166Y-103731385D01*
X107102165Y-103731384D01*
X106930027Y-103616365D01*
X106783635Y-103469973D01*
X106668616Y-103297835D01*
X106648388Y-103249000D01*
X106589389Y-103106564D01*
X106549000Y-102903516D01*
X106549000Y-102696484D01*
X106589389Y-102493436D01*
X106668615Y-102302167D01*
X106783635Y-102130027D01*
X106930027Y-101983635D01*
X107102165Y-101868616D01*
X107102167Y-101868615D01*
X107293436Y-101789389D01*
X107496484Y-101749000D01*
X107703516Y-101749000D01*
X107906564Y-101789389D01*
X107906564Y-101789389D01*
G37*
G36*
X132556564Y-101789389D02*
G01*
X132747833Y-101868615D01*
X132747835Y-101868616D01*
X132919973Y-101983635D01*
X133066365Y-102130027D01*
X133181385Y-102302167D01*
X133260611Y-102493436D01*
X133301000Y-102696484D01*
X133301000Y-102903516D01*
X133260611Y-103106564D01*
X133201612Y-103249000D01*
X133181384Y-103297835D01*
X133066365Y-103469973D01*
X132919973Y-103616365D01*
X132747835Y-103731384D01*
X132747834Y-103731385D01*
X132747833Y-103731385D01*
X132556564Y-103810611D01*
X132353516Y-103851000D01*
X132146484Y-103851000D01*
X131943436Y-103810611D01*
X131752167Y-103731385D01*
X131752166Y-103731385D01*
X131752165Y-103731384D01*
X131580027Y-103616365D01*
X131433635Y-103469973D01*
X131318616Y-103297835D01*
X131298388Y-103249000D01*
X131239389Y-103106564D01*
X131199000Y-102903516D01*
X131199000Y-102696484D01*
X131239389Y-102493436D01*
X131318615Y-102302167D01*
X131433635Y-102130027D01*
X131580027Y-101983635D01*
X131752165Y-101868616D01*
X131752167Y-101868615D01*
X131943436Y-101789389D01*
X132146484Y-101749000D01*
X132353516Y-101749000D01*
X132556564Y-101789389D01*
X132556564Y-101789389D01*
G37*
G36*
X162310443Y-101095519D02*
G01*
X162376627Y-101102037D01*
X162546466Y-101153557D01*
X162702991Y-101237222D01*
X162738729Y-101266552D01*
X162840186Y-101349814D01*
X162923448Y-101451271D01*
X162952778Y-101487009D01*
X163036443Y-101643534D01*
X163087963Y-101813373D01*
X163105359Y-101990000D01*
X163087963Y-102166627D01*
X163036443Y-102336466D01*
X162952778Y-102492991D01*
X162923448Y-102528729D01*
X162840186Y-102630186D01*
X162759400Y-102696484D01*
X162702991Y-102742778D01*
X162546466Y-102826443D01*
X162376627Y-102877963D01*
X162310442Y-102884482D01*
X162244260Y-102891000D01*
X162155740Y-102891000D01*
X162089558Y-102884482D01*
X162023373Y-102877963D01*
X161853534Y-102826443D01*
X161697009Y-102742778D01*
X161640600Y-102696484D01*
X161559814Y-102630186D01*
X161476552Y-102528729D01*
X161447222Y-102492991D01*
X161363557Y-102336466D01*
X161312037Y-102166627D01*
X161294641Y-101990000D01*
X161312037Y-101813373D01*
X161363557Y-101643534D01*
X161447222Y-101487009D01*
X161476552Y-101451271D01*
X161559814Y-101349814D01*
X161661271Y-101266552D01*
X161697009Y-101237222D01*
X161853534Y-101153557D01*
X162023373Y-101102037D01*
X162089557Y-101095519D01*
X162155740Y-101089000D01*
X162244260Y-101089000D01*
X162310443Y-101095519D01*
X162310443Y-101095519D01*
G37*
G36*
X164850443Y-101095519D02*
G01*
X164916627Y-101102037D01*
X165086466Y-101153557D01*
X165242991Y-101237222D01*
X165278729Y-101266552D01*
X165380186Y-101349814D01*
X165463448Y-101451271D01*
X165492778Y-101487009D01*
X165576443Y-101643534D01*
X165627963Y-101813373D01*
X165645359Y-101990000D01*
X165627963Y-102166627D01*
X165576443Y-102336466D01*
X165492778Y-102492991D01*
X165463448Y-102528729D01*
X165380186Y-102630186D01*
X165299400Y-102696484D01*
X165242991Y-102742778D01*
X165086466Y-102826443D01*
X164916627Y-102877963D01*
X164850442Y-102884482D01*
X164784260Y-102891000D01*
X164695740Y-102891000D01*
X164629558Y-102884482D01*
X164563373Y-102877963D01*
X164393534Y-102826443D01*
X164237009Y-102742778D01*
X164180600Y-102696484D01*
X164099814Y-102630186D01*
X164016552Y-102528729D01*
X163987222Y-102492991D01*
X163903557Y-102336466D01*
X163852037Y-102166627D01*
X163834641Y-101990000D01*
X163852037Y-101813373D01*
X163903557Y-101643534D01*
X163987222Y-101487009D01*
X164016552Y-101451271D01*
X164099814Y-101349814D01*
X164201271Y-101266552D01*
X164237009Y-101237222D01*
X164393534Y-101153557D01*
X164563373Y-101102037D01*
X164629557Y-101095519D01*
X164695740Y-101089000D01*
X164784260Y-101089000D01*
X164850443Y-101095519D01*
X164850443Y-101095519D01*
G37*
G36*
X137984468Y-100803565D02*
G01*
X138023138Y-100815296D01*
X138058777Y-100834346D01*
X138090017Y-100859983D01*
X138115654Y-100891223D01*
X138134704Y-100926862D01*
X138146435Y-100965532D01*
X138151000Y-101011888D01*
X138151000Y-101663112D01*
X138146435Y-101709468D01*
X138134704Y-101748138D01*
X138115654Y-101783777D01*
X138090017Y-101815017D01*
X138058777Y-101840654D01*
X138023138Y-101859704D01*
X137984468Y-101871435D01*
X137938112Y-101876000D01*
X136861888Y-101876000D01*
X136815532Y-101871435D01*
X136776862Y-101859704D01*
X136741223Y-101840654D01*
X136709983Y-101815017D01*
X136684346Y-101783777D01*
X136665296Y-101748138D01*
X136653565Y-101709468D01*
X136649000Y-101663112D01*
X136649000Y-101011888D01*
X136653565Y-100965532D01*
X136665296Y-100926862D01*
X136684346Y-100891223D01*
X136709983Y-100859983D01*
X136741223Y-100834346D01*
X136776862Y-100815296D01*
X136815532Y-100803565D01*
X136861888Y-100799000D01*
X137938112Y-100799000D01*
X137984468Y-100803565D01*
X137984468Y-100803565D01*
G37*
G36*
X164850443Y-98555519D02*
G01*
X164916627Y-98562037D01*
X165086466Y-98613557D01*
X165242991Y-98697222D01*
X165278729Y-98726552D01*
X165380186Y-98809814D01*
X165463448Y-98911271D01*
X165492778Y-98947009D01*
X165576443Y-99103534D01*
X165627963Y-99273373D01*
X165645359Y-99450000D01*
X165627963Y-99626627D01*
X165576443Y-99796466D01*
X165492778Y-99952991D01*
X165470198Y-99980505D01*
X165380186Y-100090186D01*
X165278729Y-100173448D01*
X165242991Y-100202778D01*
X165086466Y-100286443D01*
X164916627Y-100337963D01*
X164850443Y-100344481D01*
X164784260Y-100351000D01*
X164695740Y-100351000D01*
X164629557Y-100344481D01*
X164563373Y-100337963D01*
X164393534Y-100286443D01*
X164237009Y-100202778D01*
X164201271Y-100173448D01*
X164099814Y-100090186D01*
X164009802Y-99980505D01*
X163987222Y-99952991D01*
X163903557Y-99796466D01*
X163852037Y-99626627D01*
X163834641Y-99450000D01*
X163852037Y-99273373D01*
X163903557Y-99103534D01*
X163987222Y-98947009D01*
X164016552Y-98911271D01*
X164099814Y-98809814D01*
X164201271Y-98726552D01*
X164237009Y-98697222D01*
X164393534Y-98613557D01*
X164563373Y-98562037D01*
X164629557Y-98555519D01*
X164695740Y-98549000D01*
X164784260Y-98549000D01*
X164850443Y-98555519D01*
X164850443Y-98555519D01*
G37*
G36*
X163101000Y-100351000D02*
G01*
X161299000Y-100351000D01*
X161299000Y-98549000D01*
X163101000Y-98549000D01*
X163101000Y-100351000D01*
X163101000Y-100351000D01*
G37*
G36*
X137984468Y-98928565D02*
G01*
X138023138Y-98940296D01*
X138058777Y-98959346D01*
X138090017Y-98984983D01*
X138115654Y-99016223D01*
X138134704Y-99051862D01*
X138146435Y-99090532D01*
X138151000Y-99136888D01*
X138151000Y-99788112D01*
X138146435Y-99834468D01*
X138134704Y-99873138D01*
X138115654Y-99908777D01*
X138090017Y-99940017D01*
X138058777Y-99965654D01*
X138023138Y-99984704D01*
X137984468Y-99996435D01*
X137938112Y-100001000D01*
X136861888Y-100001000D01*
X136815532Y-99996435D01*
X136776862Y-99984704D01*
X136741223Y-99965654D01*
X136709983Y-99940017D01*
X136684346Y-99908777D01*
X136665296Y-99873138D01*
X136653565Y-99834468D01*
X136649000Y-99788112D01*
X136649000Y-99136888D01*
X136653565Y-99090532D01*
X136665296Y-99051862D01*
X136684346Y-99016223D01*
X136709983Y-98984983D01*
X136741223Y-98959346D01*
X136776862Y-98940296D01*
X136815532Y-98928565D01*
X136861888Y-98924000D01*
X137938112Y-98924000D01*
X137984468Y-98928565D01*
X137984468Y-98928565D01*
G37*
G36*
X126056564Y-97289389D02*
G01*
X126247833Y-97368615D01*
X126247835Y-97368616D01*
X126419973Y-97483635D01*
X126566365Y-97630027D01*
X126681385Y-97802167D01*
X126760611Y-97993436D01*
X126801000Y-98196484D01*
X126801000Y-98403516D01*
X126760611Y-98606564D01*
X126723059Y-98697222D01*
X126681384Y-98797835D01*
X126566365Y-98969973D01*
X126419973Y-99116365D01*
X126247835Y-99231384D01*
X126247834Y-99231385D01*
X126247833Y-99231385D01*
X126056564Y-99310611D01*
X125853516Y-99351000D01*
X125646484Y-99351000D01*
X125443436Y-99310611D01*
X125252167Y-99231385D01*
X125252166Y-99231385D01*
X125252165Y-99231384D01*
X125080027Y-99116365D01*
X124933635Y-98969973D01*
X124818616Y-98797835D01*
X124776941Y-98697222D01*
X124739389Y-98606564D01*
X124699000Y-98403516D01*
X124699000Y-98196484D01*
X124739389Y-97993436D01*
X124818615Y-97802167D01*
X124933635Y-97630027D01*
X125080027Y-97483635D01*
X125252165Y-97368616D01*
X125252167Y-97368615D01*
X125443436Y-97289389D01*
X125646484Y-97249000D01*
X125853516Y-97249000D01*
X126056564Y-97289389D01*
X126056564Y-97289389D01*
G37*
G36*
X107906564Y-97289389D02*
G01*
X108097833Y-97368615D01*
X108097835Y-97368616D01*
X108269973Y-97483635D01*
X108416365Y-97630027D01*
X108531385Y-97802167D01*
X108610611Y-97993436D01*
X108651000Y-98196484D01*
X108651000Y-98403516D01*
X108610611Y-98606564D01*
X108573059Y-98697222D01*
X108531384Y-98797835D01*
X108416365Y-98969973D01*
X108269973Y-99116365D01*
X108097835Y-99231384D01*
X108097834Y-99231385D01*
X108097833Y-99231385D01*
X107906564Y-99310611D01*
X107703516Y-99351000D01*
X107496484Y-99351000D01*
X107293436Y-99310611D01*
X107102167Y-99231385D01*
X107102166Y-99231385D01*
X107102165Y-99231384D01*
X106930027Y-99116365D01*
X106783635Y-98969973D01*
X106668616Y-98797835D01*
X106626941Y-98697222D01*
X106589389Y-98606564D01*
X106549000Y-98403516D01*
X106549000Y-98196484D01*
X106589389Y-97993436D01*
X106668615Y-97802167D01*
X106783635Y-97630027D01*
X106930027Y-97483635D01*
X107102165Y-97368616D01*
X107102167Y-97368615D01*
X107293436Y-97289389D01*
X107496484Y-97249000D01*
X107703516Y-97249000D01*
X107906564Y-97289389D01*
X107906564Y-97289389D01*
G37*
G36*
X101406564Y-97289389D02*
G01*
X101597833Y-97368615D01*
X101597835Y-97368616D01*
X101769973Y-97483635D01*
X101916365Y-97630027D01*
X102031385Y-97802167D01*
X102110611Y-97993436D01*
X102151000Y-98196484D01*
X102151000Y-98403516D01*
X102110611Y-98606564D01*
X102073059Y-98697222D01*
X102031384Y-98797835D01*
X101916365Y-98969973D01*
X101769973Y-99116365D01*
X101597835Y-99231384D01*
X101597834Y-99231385D01*
X101597833Y-99231385D01*
X101406564Y-99310611D01*
X101203516Y-99351000D01*
X100996484Y-99351000D01*
X100793436Y-99310611D01*
X100602167Y-99231385D01*
X100602166Y-99231385D01*
X100602165Y-99231384D01*
X100430027Y-99116365D01*
X100283635Y-98969973D01*
X100168616Y-98797835D01*
X100126941Y-98697222D01*
X100089389Y-98606564D01*
X100049000Y-98403516D01*
X100049000Y-98196484D01*
X100089389Y-97993436D01*
X100168615Y-97802167D01*
X100283635Y-97630027D01*
X100430027Y-97483635D01*
X100602165Y-97368616D01*
X100602167Y-97368615D01*
X100793436Y-97289389D01*
X100996484Y-97249000D01*
X101203516Y-97249000D01*
X101406564Y-97289389D01*
X101406564Y-97289389D01*
G37*
G36*
X132556564Y-97289389D02*
G01*
X132747833Y-97368615D01*
X132747835Y-97368616D01*
X132919973Y-97483635D01*
X133066365Y-97630027D01*
X133181385Y-97802167D01*
X133260611Y-97993436D01*
X133301000Y-98196484D01*
X133301000Y-98403516D01*
X133260611Y-98606564D01*
X133223059Y-98697222D01*
X133181384Y-98797835D01*
X133066365Y-98969973D01*
X132919973Y-99116365D01*
X132747835Y-99231384D01*
X132747834Y-99231385D01*
X132747833Y-99231385D01*
X132556564Y-99310611D01*
X132353516Y-99351000D01*
X132146484Y-99351000D01*
X131943436Y-99310611D01*
X131752167Y-99231385D01*
X131752166Y-99231385D01*
X131752165Y-99231384D01*
X131580027Y-99116365D01*
X131433635Y-98969973D01*
X131318616Y-98797835D01*
X131276941Y-98697222D01*
X131239389Y-98606564D01*
X131199000Y-98403516D01*
X131199000Y-98196484D01*
X131239389Y-97993436D01*
X131318615Y-97802167D01*
X131433635Y-97630027D01*
X131580027Y-97483635D01*
X131752165Y-97368616D01*
X131752167Y-97368615D01*
X131943436Y-97289389D01*
X132146484Y-97249000D01*
X132353516Y-97249000D01*
X132556564Y-97289389D01*
X132556564Y-97289389D01*
G37*
G36*
X143901000Y-94651000D02*
G01*
X142199000Y-94651000D01*
X142199000Y-93149000D01*
X143901000Y-93149000D01*
X143901000Y-94651000D01*
X143901000Y-94651000D01*
G37*
G36*
X156851000Y-93024001D02*
G01*
X156853402Y-93048387D01*
X156860515Y-93071836D01*
X156872066Y-93093447D01*
X156887611Y-93112389D01*
X156906553Y-93127934D01*
X156928164Y-93139485D01*
X156951613Y-93146598D01*
X156975999Y-93149000D01*
X158301000Y-93149000D01*
X158301000Y-94651000D01*
X156999000Y-94651000D01*
X156999000Y-94375999D01*
X156996598Y-94351613D01*
X156989485Y-94328164D01*
X156977934Y-94306553D01*
X156962389Y-94287611D01*
X156943447Y-94272066D01*
X156921836Y-94260515D01*
X156898387Y-94253402D01*
X156874001Y-94251000D01*
X156049000Y-94251000D01*
X156049000Y-92549000D01*
X156851000Y-92549000D01*
X156851000Y-93024001D01*
X156851000Y-93024001D01*
G37*
G36*
X149151000Y-94251000D02*
G01*
X148349000Y-94251000D01*
X148349000Y-92549000D01*
X149151000Y-92549000D01*
X149151000Y-94251000D01*
X149151000Y-94251000D01*
G37*
G36*
X155751000Y-94251000D02*
G01*
X154949000Y-94251000D01*
X154949000Y-92549000D01*
X155751000Y-92549000D01*
X155751000Y-94251000D01*
X155751000Y-94251000D01*
G37*
G36*
X154651000Y-94251000D02*
G01*
X153849000Y-94251000D01*
X153849000Y-92549000D01*
X154651000Y-92549000D01*
X154651000Y-94251000D01*
X154651000Y-94251000D01*
G37*
G36*
X153551000Y-94251000D02*
G01*
X152749000Y-94251000D01*
X152749000Y-92549000D01*
X153551000Y-92549000D01*
X153551000Y-94251000D01*
X153551000Y-94251000D01*
G37*
G36*
X151351000Y-94251000D02*
G01*
X150549000Y-94251000D01*
X150549000Y-92549000D01*
X151351000Y-92549000D01*
X151351000Y-94251000D01*
X151351000Y-94251000D01*
G37*
G36*
X152451000Y-94251000D02*
G01*
X151649000Y-94251000D01*
X151649000Y-92549000D01*
X152451000Y-92549000D01*
X152451000Y-94251000D01*
X152451000Y-94251000D01*
G37*
G36*
X148051000Y-94251000D02*
G01*
X147249000Y-94251000D01*
X147249000Y-92549000D01*
X148051000Y-92549000D01*
X148051000Y-94251000D01*
X148051000Y-94251000D01*
G37*
G36*
X150251000Y-94251000D02*
G01*
X149449000Y-94251000D01*
X149449000Y-92549000D01*
X150251000Y-92549000D01*
X150251000Y-94251000D01*
X150251000Y-94251000D01*
G37*
G36*
X117071000Y-92571000D02*
G01*
X104369000Y-92571000D01*
X104369000Y-90969000D01*
X117071000Y-90969000D01*
X117071000Y-92571000D01*
X117071000Y-92571000D01*
G37*
G36*
X157251000Y-91451000D02*
G01*
X155149000Y-91451000D01*
X155149000Y-89349000D01*
X157251000Y-89349000D01*
X157251000Y-91451000D01*
X157251000Y-91451000D01*
G37*
G36*
X100651000Y-91001000D02*
G01*
X98749000Y-91001000D01*
X98749000Y-89899000D01*
X100651000Y-89899000D01*
X100651000Y-91001000D01*
X100651000Y-91001000D01*
G37*
G36*
X143184591Y-89908085D02*
G01*
X143218569Y-89918393D01*
X143249890Y-89935134D01*
X143277339Y-89957661D01*
X143299866Y-89985110D01*
X143316607Y-90016431D01*
X143326915Y-90050409D01*
X143331000Y-90091890D01*
X143331000Y-90768110D01*
X143326915Y-90809591D01*
X143316607Y-90843569D01*
X143299866Y-90874890D01*
X143277339Y-90902339D01*
X143249890Y-90924866D01*
X143218569Y-90941607D01*
X143184591Y-90951915D01*
X143143110Y-90956000D01*
X142541890Y-90956000D01*
X142500409Y-90951915D01*
X142466431Y-90941607D01*
X142435110Y-90924866D01*
X142407661Y-90902339D01*
X142385134Y-90874890D01*
X142368393Y-90843569D01*
X142358085Y-90809591D01*
X142354000Y-90768110D01*
X142354000Y-90091890D01*
X142358085Y-90050409D01*
X142368393Y-90016431D01*
X142385134Y-89985110D01*
X142407661Y-89957661D01*
X142435110Y-89935134D01*
X142466431Y-89918393D01*
X142500409Y-89908085D01*
X142541890Y-89904000D01*
X143143110Y-89904000D01*
X143184591Y-89908085D01*
X143184591Y-89908085D01*
G37*
G36*
X144759591Y-89908085D02*
G01*
X144793569Y-89918393D01*
X144824890Y-89935134D01*
X144852339Y-89957661D01*
X144874866Y-89985110D01*
X144891607Y-90016431D01*
X144901915Y-90050409D01*
X144906000Y-90091890D01*
X144906000Y-90768110D01*
X144901915Y-90809591D01*
X144891607Y-90843569D01*
X144874866Y-90874890D01*
X144852339Y-90902339D01*
X144824890Y-90924866D01*
X144793569Y-90941607D01*
X144759591Y-90951915D01*
X144718110Y-90956000D01*
X144116890Y-90956000D01*
X144075409Y-90951915D01*
X144041431Y-90941607D01*
X144010110Y-90924866D01*
X143982661Y-90902339D01*
X143960134Y-90874890D01*
X143943393Y-90843569D01*
X143933085Y-90809591D01*
X143929000Y-90768110D01*
X143929000Y-90091890D01*
X143933085Y-90050409D01*
X143943393Y-90016431D01*
X143960134Y-89985110D01*
X143982661Y-89957661D01*
X144010110Y-89935134D01*
X144041431Y-89918393D01*
X144075409Y-89908085D01*
X144116890Y-89904000D01*
X144718110Y-89904000D01*
X144759591Y-89908085D01*
X144759591Y-89908085D01*
G37*
G36*
X119271000Y-90371000D02*
G01*
X117669000Y-90371000D01*
X117669000Y-77669000D01*
X119271000Y-77669000D01*
X119271000Y-90371000D01*
X119271000Y-90371000D01*
G37*
G36*
X103771000Y-90371000D02*
G01*
X102169000Y-90371000D01*
X102169000Y-77669000D01*
X103771000Y-77669000D01*
X103771000Y-90371000D01*
X103771000Y-90371000D01*
G37*
G36*
X144749591Y-88288085D02*
G01*
X144783569Y-88298393D01*
X144814890Y-88315134D01*
X144842339Y-88337661D01*
X144864866Y-88365110D01*
X144881607Y-88396431D01*
X144891915Y-88430409D01*
X144896000Y-88471890D01*
X144896000Y-89148110D01*
X144891915Y-89189591D01*
X144881607Y-89223569D01*
X144864866Y-89254890D01*
X144842339Y-89282339D01*
X144814890Y-89304866D01*
X144783569Y-89321607D01*
X144749591Y-89331915D01*
X144708110Y-89336000D01*
X144106890Y-89336000D01*
X144065409Y-89331915D01*
X144031431Y-89321607D01*
X144000110Y-89304866D01*
X143972661Y-89282339D01*
X143950134Y-89254890D01*
X143933393Y-89223569D01*
X143923085Y-89189591D01*
X143919000Y-89148110D01*
X143919000Y-88471890D01*
X143923085Y-88430409D01*
X143933393Y-88396431D01*
X143950134Y-88365110D01*
X143972661Y-88337661D01*
X144000110Y-88315134D01*
X144031431Y-88298393D01*
X144065409Y-88288085D01*
X144106890Y-88284000D01*
X144708110Y-88284000D01*
X144749591Y-88288085D01*
X144749591Y-88288085D01*
G37*
G36*
X143174591Y-88288085D02*
G01*
X143208569Y-88298393D01*
X143239890Y-88315134D01*
X143267339Y-88337661D01*
X143289866Y-88365110D01*
X143306607Y-88396431D01*
X143316915Y-88430409D01*
X143321000Y-88471890D01*
X143321000Y-89148110D01*
X143316915Y-89189591D01*
X143306607Y-89223569D01*
X143289866Y-89254890D01*
X143267339Y-89282339D01*
X143239890Y-89304866D01*
X143208569Y-89321607D01*
X143174591Y-89331915D01*
X143133110Y-89336000D01*
X142531890Y-89336000D01*
X142490409Y-89331915D01*
X142456431Y-89321607D01*
X142425110Y-89304866D01*
X142397661Y-89282339D01*
X142375134Y-89254890D01*
X142358393Y-89223569D01*
X142348085Y-89189591D01*
X142344000Y-89148110D01*
X142344000Y-88471890D01*
X142348085Y-88430409D01*
X142358393Y-88396431D01*
X142375134Y-88365110D01*
X142397661Y-88337661D01*
X142425110Y-88315134D01*
X142456431Y-88298393D01*
X142490409Y-88288085D01*
X142531890Y-88284000D01*
X143133110Y-88284000D01*
X143174591Y-88288085D01*
X143174591Y-88288085D01*
G37*
G36*
X100651000Y-88501000D02*
G01*
X98749000Y-88501000D01*
X98749000Y-87399000D01*
X100651000Y-87399000D01*
X100651000Y-88501000D01*
X100651000Y-88501000D01*
G37*
G36*
X149801000Y-87426500D02*
G01*
X143899000Y-87426500D01*
X143899000Y-85849500D01*
X149801000Y-85849500D01*
X149801000Y-87426500D01*
X149801000Y-87426500D01*
G37*
G36*
X158434468Y-86003565D02*
G01*
X158473138Y-86015296D01*
X158508777Y-86034346D01*
X158540017Y-86059983D01*
X158565654Y-86091223D01*
X158584704Y-86126862D01*
X158596435Y-86165532D01*
X158601000Y-86211888D01*
X158601000Y-86863112D01*
X158596435Y-86909468D01*
X158584704Y-86948138D01*
X158565654Y-86983777D01*
X158540017Y-87015017D01*
X158508777Y-87040654D01*
X158473138Y-87059704D01*
X158434468Y-87071435D01*
X158388112Y-87076000D01*
X157311888Y-87076000D01*
X157265532Y-87071435D01*
X157226862Y-87059704D01*
X157191223Y-87040654D01*
X157159983Y-87015017D01*
X157134346Y-86983777D01*
X157115296Y-86948138D01*
X157103565Y-86909468D01*
X157099000Y-86863112D01*
X157099000Y-86211888D01*
X157103565Y-86165532D01*
X157115296Y-86126862D01*
X157134346Y-86091223D01*
X157159983Y-86059983D01*
X157191223Y-86034346D01*
X157226862Y-86015296D01*
X157265532Y-86003565D01*
X157311888Y-85999000D01*
X158388112Y-85999000D01*
X158434468Y-86003565D01*
X158434468Y-86003565D01*
G37*
G36*
X127870567Y-81084788D02*
G01*
X128260775Y-81162405D01*
X128797823Y-81384857D01*
X129281153Y-81707808D01*
X129692192Y-82118847D01*
X130015143Y-82602177D01*
X130237595Y-83139225D01*
X130351000Y-83709352D01*
X130351000Y-84290648D01*
X130237595Y-84860775D01*
X130015143Y-85397823D01*
X129692192Y-85881153D01*
X129281153Y-86292192D01*
X128797823Y-86615143D01*
X128260775Y-86837595D01*
X127975712Y-86894297D01*
X127690649Y-86951000D01*
X127109351Y-86951000D01*
X126824288Y-86894297D01*
X126539225Y-86837595D01*
X126002177Y-86615143D01*
X125518847Y-86292192D01*
X125107808Y-85881153D01*
X124784857Y-85397823D01*
X124562405Y-84860775D01*
X124449000Y-84290648D01*
X124449000Y-83709352D01*
X124562405Y-83139225D01*
X124784857Y-82602177D01*
X125107808Y-82118847D01*
X125518847Y-81707808D01*
X126002177Y-81384857D01*
X126539225Y-81162405D01*
X126929433Y-81084788D01*
X127109351Y-81049000D01*
X127690649Y-81049000D01*
X127870567Y-81084788D01*
X127870567Y-81084788D01*
G37*
G36*
X162851000Y-86551000D02*
G01*
X160349000Y-86551000D01*
X160349000Y-84449000D01*
X162851000Y-84449000D01*
X162851000Y-86551000D01*
X162851000Y-86551000D01*
G37*
G36*
X135874468Y-84463565D02*
G01*
X135913138Y-84475296D01*
X135948777Y-84494346D01*
X135980017Y-84519983D01*
X136005654Y-84551223D01*
X136024704Y-84586862D01*
X136036435Y-84625532D01*
X136041000Y-84671888D01*
X136041000Y-85748112D01*
X136036435Y-85794468D01*
X136024704Y-85833138D01*
X136005654Y-85868777D01*
X135980017Y-85900017D01*
X135948777Y-85925654D01*
X135913138Y-85944704D01*
X135874468Y-85956435D01*
X135828112Y-85961000D01*
X135176888Y-85961000D01*
X135130532Y-85956435D01*
X135091862Y-85944704D01*
X135056223Y-85925654D01*
X135024983Y-85900017D01*
X134999346Y-85868777D01*
X134980296Y-85833138D01*
X134968565Y-85794468D01*
X134964000Y-85748112D01*
X134964000Y-84671888D01*
X134968565Y-84625532D01*
X134980296Y-84586862D01*
X134999346Y-84551223D01*
X135024983Y-84519983D01*
X135056223Y-84494346D01*
X135091862Y-84475296D01*
X135130532Y-84463565D01*
X135176888Y-84459000D01*
X135828112Y-84459000D01*
X135874468Y-84463565D01*
X135874468Y-84463565D01*
G37*
G36*
X137749468Y-84463565D02*
G01*
X137788138Y-84475296D01*
X137823777Y-84494346D01*
X137855017Y-84519983D01*
X137880654Y-84551223D01*
X137899704Y-84586862D01*
X137911435Y-84625532D01*
X137916000Y-84671888D01*
X137916000Y-85748112D01*
X137911435Y-85794468D01*
X137899704Y-85833138D01*
X137880654Y-85868777D01*
X137855017Y-85900017D01*
X137823777Y-85925654D01*
X137788138Y-85944704D01*
X137749468Y-85956435D01*
X137703112Y-85961000D01*
X137051888Y-85961000D01*
X137005532Y-85956435D01*
X136966862Y-85944704D01*
X136931223Y-85925654D01*
X136899983Y-85900017D01*
X136874346Y-85868777D01*
X136855296Y-85833138D01*
X136843565Y-85794468D01*
X136839000Y-85748112D01*
X136839000Y-84671888D01*
X136843565Y-84625532D01*
X136855296Y-84586862D01*
X136874346Y-84551223D01*
X136899983Y-84519983D01*
X136931223Y-84494346D01*
X136966862Y-84475296D01*
X137005532Y-84463565D01*
X137051888Y-84459000D01*
X137703112Y-84459000D01*
X137749468Y-84463565D01*
X137749468Y-84463565D01*
G37*
G36*
X143400500Y-85351000D02*
G01*
X141823500Y-85351000D01*
X141823500Y-79449000D01*
X143400500Y-79449000D01*
X143400500Y-85351000D01*
X143400500Y-85351000D01*
G37*
G36*
X151876500Y-85351000D02*
G01*
X150299500Y-85351000D01*
X150299500Y-79449000D01*
X151876500Y-79449000D01*
X151876500Y-85351000D01*
X151876500Y-85351000D01*
G37*
G36*
X158434468Y-84128565D02*
G01*
X158473138Y-84140296D01*
X158508777Y-84159346D01*
X158540017Y-84184983D01*
X158565654Y-84216223D01*
X158584704Y-84251862D01*
X158596435Y-84290532D01*
X158601000Y-84336888D01*
X158601000Y-84988112D01*
X158596435Y-85034468D01*
X158584704Y-85073138D01*
X158565654Y-85108777D01*
X158540017Y-85140017D01*
X158508777Y-85165654D01*
X158473138Y-85184704D01*
X158434468Y-85196435D01*
X158388112Y-85201000D01*
X157311888Y-85201000D01*
X157265532Y-85196435D01*
X157226862Y-85184704D01*
X157191223Y-85165654D01*
X157159983Y-85140017D01*
X157134346Y-85108777D01*
X157115296Y-85073138D01*
X157103565Y-85034468D01*
X157099000Y-84988112D01*
X157099000Y-84336888D01*
X157103565Y-84290532D01*
X157115296Y-84251862D01*
X157134346Y-84216223D01*
X157159983Y-84184983D01*
X157191223Y-84159346D01*
X157226862Y-84140296D01*
X157265532Y-84128565D01*
X157311888Y-84124000D01*
X158388112Y-84124000D01*
X158434468Y-84128565D01*
X158434468Y-84128565D01*
G37*
G36*
X156079591Y-83953085D02*
G01*
X156113569Y-83963393D01*
X156144890Y-83980134D01*
X156172339Y-84002661D01*
X156194866Y-84030110D01*
X156211607Y-84061431D01*
X156221915Y-84095409D01*
X156226000Y-84136890D01*
X156226000Y-84738110D01*
X156221915Y-84779591D01*
X156211607Y-84813569D01*
X156194866Y-84844890D01*
X156172339Y-84872339D01*
X156144890Y-84894866D01*
X156113569Y-84911607D01*
X156079591Y-84921915D01*
X156038110Y-84926000D01*
X155361890Y-84926000D01*
X155320409Y-84921915D01*
X155286431Y-84911607D01*
X155255110Y-84894866D01*
X155227661Y-84872339D01*
X155205134Y-84844890D01*
X155188393Y-84813569D01*
X155178085Y-84779591D01*
X155174000Y-84738110D01*
X155174000Y-84136890D01*
X155178085Y-84095409D01*
X155188393Y-84061431D01*
X155205134Y-84030110D01*
X155227661Y-84002661D01*
X155255110Y-83980134D01*
X155286431Y-83963393D01*
X155320409Y-83953085D01*
X155361890Y-83949000D01*
X156038110Y-83949000D01*
X156079591Y-83953085D01*
X156079591Y-83953085D01*
G37*
G36*
X156079591Y-82378085D02*
G01*
X156113569Y-82388393D01*
X156144890Y-82405134D01*
X156172339Y-82427661D01*
X156194866Y-82455110D01*
X156211607Y-82486431D01*
X156221915Y-82520409D01*
X156226000Y-82561890D01*
X156226000Y-83163110D01*
X156221915Y-83204591D01*
X156211607Y-83238569D01*
X156194866Y-83269890D01*
X156172339Y-83297339D01*
X156144890Y-83319866D01*
X156113569Y-83336607D01*
X156079591Y-83346915D01*
X156038110Y-83351000D01*
X155361890Y-83351000D01*
X155320409Y-83346915D01*
X155286431Y-83336607D01*
X155255110Y-83319866D01*
X155227661Y-83297339D01*
X155205134Y-83269890D01*
X155188393Y-83238569D01*
X155178085Y-83204591D01*
X155174000Y-83163110D01*
X155174000Y-82561890D01*
X155178085Y-82520409D01*
X155188393Y-82486431D01*
X155205134Y-82455110D01*
X155227661Y-82427661D01*
X155255110Y-82405134D01*
X155286431Y-82388393D01*
X155320409Y-82378085D01*
X155361890Y-82374000D01*
X156038110Y-82374000D01*
X156079591Y-82378085D01*
X156079591Y-82378085D01*
G37*
G36*
X158434468Y-82053565D02*
G01*
X158473138Y-82065296D01*
X158508777Y-82084346D01*
X158540017Y-82109983D01*
X158565654Y-82141223D01*
X158584704Y-82176862D01*
X158596435Y-82215532D01*
X158601000Y-82261888D01*
X158601000Y-82913112D01*
X158596435Y-82959468D01*
X158584704Y-82998138D01*
X158565654Y-83033777D01*
X158540017Y-83065017D01*
X158508777Y-83090654D01*
X158473138Y-83109704D01*
X158434468Y-83121435D01*
X158388112Y-83126000D01*
X157311888Y-83126000D01*
X157265532Y-83121435D01*
X157226862Y-83109704D01*
X157191223Y-83090654D01*
X157159983Y-83065017D01*
X157134346Y-83033777D01*
X157115296Y-82998138D01*
X157103565Y-82959468D01*
X157099000Y-82913112D01*
X157099000Y-82261888D01*
X157103565Y-82215532D01*
X157115296Y-82176862D01*
X157134346Y-82141223D01*
X157159983Y-82109983D01*
X157191223Y-82084346D01*
X157226862Y-82065296D01*
X157265532Y-82053565D01*
X157311888Y-82049000D01*
X158388112Y-82049000D01*
X158434468Y-82053565D01*
X158434468Y-82053565D01*
G37*
G36*
X162851000Y-82851000D02*
G01*
X160349000Y-82851000D01*
X160349000Y-80749000D01*
X162851000Y-80749000D01*
X162851000Y-82851000D01*
X162851000Y-82851000D01*
G37*
G36*
X158434468Y-80178565D02*
G01*
X158473138Y-80190296D01*
X158508777Y-80209346D01*
X158540017Y-80234983D01*
X158565654Y-80266223D01*
X158584704Y-80301862D01*
X158596435Y-80340532D01*
X158601000Y-80386888D01*
X158601000Y-81038112D01*
X158596435Y-81084468D01*
X158584704Y-81123138D01*
X158565654Y-81158777D01*
X158540017Y-81190017D01*
X158508777Y-81215654D01*
X158473138Y-81234704D01*
X158434468Y-81246435D01*
X158388112Y-81251000D01*
X157311888Y-81251000D01*
X157265532Y-81246435D01*
X157226862Y-81234704D01*
X157191223Y-81215654D01*
X157159983Y-81190017D01*
X157134346Y-81158777D01*
X157115296Y-81123138D01*
X157103565Y-81084468D01*
X157099000Y-81038112D01*
X157099000Y-80386888D01*
X157103565Y-80340532D01*
X157115296Y-80301862D01*
X157134346Y-80266223D01*
X157159983Y-80234983D01*
X157191223Y-80209346D01*
X157226862Y-80190296D01*
X157265532Y-80178565D01*
X157311888Y-80174000D01*
X158388112Y-80174000D01*
X158434468Y-80178565D01*
X158434468Y-80178565D01*
G37*
G36*
X149801000Y-78950500D02*
G01*
X143899000Y-78950500D01*
X143899000Y-77373500D01*
X149801000Y-77373500D01*
X149801000Y-78950500D01*
X149801000Y-78950500D01*
G37*
G36*
X156506564Y-76639389D02*
G01*
X156697833Y-76718615D01*
X156697835Y-76718616D01*
X156755448Y-76757112D01*
X156869973Y-76833635D01*
X157016365Y-76980027D01*
X157131385Y-77152167D01*
X157210611Y-77343436D01*
X157251000Y-77546484D01*
X157251000Y-77753516D01*
X157210611Y-77956564D01*
X157131385Y-78147833D01*
X157131384Y-78147835D01*
X157016365Y-78319973D01*
X156869973Y-78466365D01*
X156697835Y-78581384D01*
X156697834Y-78581385D01*
X156697833Y-78581385D01*
X156506564Y-78660611D01*
X156303516Y-78701000D01*
X156096484Y-78701000D01*
X155893436Y-78660611D01*
X155702167Y-78581385D01*
X155702166Y-78581385D01*
X155702165Y-78581384D01*
X155530027Y-78466365D01*
X155383635Y-78319973D01*
X155268616Y-78147835D01*
X155268615Y-78147833D01*
X155189389Y-77956564D01*
X155149000Y-77753516D01*
X155149000Y-77546484D01*
X155189389Y-77343436D01*
X155268615Y-77152167D01*
X155383635Y-76980027D01*
X155530027Y-76833635D01*
X155644552Y-76757112D01*
X155702165Y-76718616D01*
X155702167Y-76718615D01*
X155893436Y-76639389D01*
X156096484Y-76599000D01*
X156303516Y-76599000D01*
X156506564Y-76639389D01*
X156506564Y-76639389D01*
G37*
G36*
X117071000Y-77071000D02*
G01*
X104369000Y-77071000D01*
X104369000Y-75469000D01*
X117071000Y-75469000D01*
X117071000Y-77071000D01*
X117071000Y-77071000D01*
G37*
G36*
X131097798Y-75578247D02*
G01*
X131133367Y-75589037D01*
X131166139Y-75606554D01*
X131194869Y-75630131D01*
X131218446Y-75658861D01*
X131235963Y-75691633D01*
X131246753Y-75727202D01*
X131251000Y-75770325D01*
X131251000Y-76829675D01*
X131246753Y-76872798D01*
X131235963Y-76908367D01*
X131218446Y-76941139D01*
X131194869Y-76969869D01*
X131166139Y-76993446D01*
X131133367Y-77010963D01*
X131097798Y-77021753D01*
X131054675Y-77026000D01*
X129945325Y-77026000D01*
X129902202Y-77021753D01*
X129866633Y-77010963D01*
X129833861Y-76993446D01*
X129805131Y-76969869D01*
X129781554Y-76941139D01*
X129764037Y-76908367D01*
X129753247Y-76872798D01*
X129749000Y-76829675D01*
X129749000Y-75770325D01*
X129753247Y-75727202D01*
X129764037Y-75691633D01*
X129781554Y-75658861D01*
X129805131Y-75630131D01*
X129833861Y-75606554D01*
X129866633Y-75589037D01*
X129902202Y-75578247D01*
X129945325Y-75574000D01*
X131054675Y-75574000D01*
X131097798Y-75578247D01*
X131097798Y-75578247D01*
G37*
G36*
X128397798Y-75578247D02*
G01*
X128433367Y-75589037D01*
X128466139Y-75606554D01*
X128494869Y-75630131D01*
X128518446Y-75658861D01*
X128535963Y-75691633D01*
X128546753Y-75727202D01*
X128551000Y-75770325D01*
X128551000Y-76829675D01*
X128546753Y-76872798D01*
X128535963Y-76908367D01*
X128518446Y-76941139D01*
X128494869Y-76969869D01*
X128466139Y-76993446D01*
X128433367Y-77010963D01*
X128397798Y-77021753D01*
X128354675Y-77026000D01*
X127245325Y-77026000D01*
X127202202Y-77021753D01*
X127166633Y-77010963D01*
X127133861Y-76993446D01*
X127105131Y-76969869D01*
X127081554Y-76941139D01*
X127064037Y-76908367D01*
X127053247Y-76872798D01*
X127049000Y-76829675D01*
X127049000Y-75770325D01*
X127053247Y-75727202D01*
X127064037Y-75691633D01*
X127081554Y-75658861D01*
X127105131Y-75630131D01*
X127133861Y-75606554D01*
X127166633Y-75589037D01*
X127202202Y-75578247D01*
X127245325Y-75574000D01*
X128354675Y-75574000D01*
X128397798Y-75578247D01*
X128397798Y-75578247D01*
G37*
G36*
X147909591Y-75693085D02*
G01*
X147943569Y-75703393D01*
X147974890Y-75720134D01*
X148002339Y-75742661D01*
X148024866Y-75770110D01*
X148041607Y-75801431D01*
X148051915Y-75835409D01*
X148056000Y-75876890D01*
X148056000Y-76478110D01*
X148051915Y-76519591D01*
X148041607Y-76553569D01*
X148024866Y-76584890D01*
X148002339Y-76612339D01*
X147974890Y-76634866D01*
X147943569Y-76651607D01*
X147909591Y-76661915D01*
X147868110Y-76666000D01*
X147191890Y-76666000D01*
X147150409Y-76661915D01*
X147116431Y-76651607D01*
X147085110Y-76634866D01*
X147057661Y-76612339D01*
X147035134Y-76584890D01*
X147018393Y-76553569D01*
X147008085Y-76519591D01*
X147004000Y-76478110D01*
X147004000Y-75876890D01*
X147008085Y-75835409D01*
X147018393Y-75801431D01*
X147035134Y-75770110D01*
X147057661Y-75742661D01*
X147085110Y-75720134D01*
X147116431Y-75703393D01*
X147150409Y-75693085D01*
X147191890Y-75689000D01*
X147868110Y-75689000D01*
X147909591Y-75693085D01*
X147909591Y-75693085D01*
G37*
G36*
X149569591Y-75693085D02*
G01*
X149603569Y-75703393D01*
X149634890Y-75720134D01*
X149662339Y-75742661D01*
X149684866Y-75770110D01*
X149701607Y-75801431D01*
X149711915Y-75835409D01*
X149716000Y-75876890D01*
X149716000Y-76478110D01*
X149711915Y-76519591D01*
X149701607Y-76553569D01*
X149684866Y-76584890D01*
X149662339Y-76612339D01*
X149634890Y-76634866D01*
X149603569Y-76651607D01*
X149569591Y-76661915D01*
X149528110Y-76666000D01*
X148851890Y-76666000D01*
X148810409Y-76661915D01*
X148776431Y-76651607D01*
X148745110Y-76634866D01*
X148717661Y-76612339D01*
X148695134Y-76584890D01*
X148678393Y-76553569D01*
X148668085Y-76519591D01*
X148664000Y-76478110D01*
X148664000Y-75876890D01*
X148668085Y-75835409D01*
X148678393Y-75801431D01*
X148695134Y-75770110D01*
X148717661Y-75742661D01*
X148745110Y-75720134D01*
X148776431Y-75703393D01*
X148810409Y-75693085D01*
X148851890Y-75689000D01*
X149528110Y-75689000D01*
X149569591Y-75693085D01*
X149569591Y-75693085D01*
G37*
G36*
X149569591Y-74118085D02*
G01*
X149603569Y-74128393D01*
X149634890Y-74145134D01*
X149662339Y-74167661D01*
X149684866Y-74195110D01*
X149701607Y-74226431D01*
X149711915Y-74260409D01*
X149716000Y-74301890D01*
X149716000Y-74903110D01*
X149711915Y-74944591D01*
X149701607Y-74978569D01*
X149684866Y-75009890D01*
X149662339Y-75037339D01*
X149634890Y-75059866D01*
X149603569Y-75076607D01*
X149569591Y-75086915D01*
X149528110Y-75091000D01*
X148851890Y-75091000D01*
X148810409Y-75086915D01*
X148776431Y-75076607D01*
X148745110Y-75059866D01*
X148717661Y-75037339D01*
X148695134Y-75009890D01*
X148678393Y-74978569D01*
X148668085Y-74944591D01*
X148664000Y-74903110D01*
X148664000Y-74301890D01*
X148668085Y-74260409D01*
X148678393Y-74226431D01*
X148695134Y-74195110D01*
X148717661Y-74167661D01*
X148745110Y-74145134D01*
X148776431Y-74128393D01*
X148810409Y-74118085D01*
X148851890Y-74114000D01*
X149528110Y-74114000D01*
X149569591Y-74118085D01*
X149569591Y-74118085D01*
G37*
G36*
X147909591Y-74118085D02*
G01*
X147943569Y-74128393D01*
X147974890Y-74145134D01*
X148002339Y-74167661D01*
X148024866Y-74195110D01*
X148041607Y-74226431D01*
X148051915Y-74260409D01*
X148056000Y-74301890D01*
X148056000Y-74903110D01*
X148051915Y-74944591D01*
X148041607Y-74978569D01*
X148024866Y-75009890D01*
X148002339Y-75037339D01*
X147974890Y-75059866D01*
X147943569Y-75076607D01*
X147909591Y-75086915D01*
X147868110Y-75091000D01*
X147191890Y-75091000D01*
X147150409Y-75086915D01*
X147116431Y-75076607D01*
X147085110Y-75059866D01*
X147057661Y-75037339D01*
X147035134Y-75009890D01*
X147018393Y-74978569D01*
X147008085Y-74944591D01*
X147004000Y-74903110D01*
X147004000Y-74301890D01*
X147008085Y-74260409D01*
X147018393Y-74226431D01*
X147035134Y-74195110D01*
X147057661Y-74167661D01*
X147085110Y-74145134D01*
X147116431Y-74128393D01*
X147150409Y-74118085D01*
X147191890Y-74114000D01*
X147868110Y-74114000D01*
X147909591Y-74118085D01*
X147909591Y-74118085D01*
G37*
G36*
X132384468Y-71603565D02*
G01*
X132423138Y-71615296D01*
X132458777Y-71634346D01*
X132490017Y-71659983D01*
X132515654Y-71691223D01*
X132534704Y-71726862D01*
X132546435Y-71765532D01*
X132551000Y-71811888D01*
X132551000Y-72463112D01*
X132546435Y-72509468D01*
X132534704Y-72548138D01*
X132515654Y-72583777D01*
X132490017Y-72615017D01*
X132458777Y-72640654D01*
X132423138Y-72659704D01*
X132384468Y-72671435D01*
X132338112Y-72676000D01*
X131261888Y-72676000D01*
X131215532Y-72671435D01*
X131176862Y-72659704D01*
X131141223Y-72640654D01*
X131109983Y-72615017D01*
X131084346Y-72583777D01*
X131065296Y-72548138D01*
X131053565Y-72509468D01*
X131049000Y-72463112D01*
X131049000Y-71811888D01*
X131053565Y-71765532D01*
X131065296Y-71726862D01*
X131084346Y-71691223D01*
X131109983Y-71659983D01*
X131141223Y-71634346D01*
X131176862Y-71615296D01*
X131215532Y-71603565D01*
X131261888Y-71599000D01*
X132338112Y-71599000D01*
X132384468Y-71603565D01*
X132384468Y-71603565D01*
G37*
G36*
X147584468Y-71453565D02*
G01*
X147623138Y-71465296D01*
X147658777Y-71484346D01*
X147690017Y-71509983D01*
X147715654Y-71541223D01*
X147734704Y-71576862D01*
X147746435Y-71615532D01*
X147751000Y-71661888D01*
X147751000Y-72313112D01*
X147746435Y-72359468D01*
X147734704Y-72398138D01*
X147715654Y-72433777D01*
X147690017Y-72465017D01*
X147658777Y-72490654D01*
X147623138Y-72509704D01*
X147584468Y-72521435D01*
X147538112Y-72526000D01*
X146461888Y-72526000D01*
X146415532Y-72521435D01*
X146376862Y-72509704D01*
X146341223Y-72490654D01*
X146309983Y-72465017D01*
X146284346Y-72433777D01*
X146265296Y-72398138D01*
X146253565Y-72359468D01*
X146249000Y-72313112D01*
X146249000Y-71661888D01*
X146253565Y-71615532D01*
X146265296Y-71576862D01*
X146284346Y-71541223D01*
X146309983Y-71509983D01*
X146341223Y-71484346D01*
X146376862Y-71465296D01*
X146415532Y-71453565D01*
X146461888Y-71449000D01*
X147538112Y-71449000D01*
X147584468Y-71453565D01*
X147584468Y-71453565D01*
G37*
G36*
X150279591Y-71503085D02*
G01*
X150313569Y-71513393D01*
X150344890Y-71530134D01*
X150372339Y-71552661D01*
X150394866Y-71580110D01*
X150411607Y-71611431D01*
X150421915Y-71645409D01*
X150426000Y-71686890D01*
X150426000Y-72288110D01*
X150421915Y-72329591D01*
X150411607Y-72363569D01*
X150394866Y-72394890D01*
X150372339Y-72422339D01*
X150344890Y-72444866D01*
X150313569Y-72461607D01*
X150279591Y-72471915D01*
X150238110Y-72476000D01*
X149561890Y-72476000D01*
X149520409Y-72471915D01*
X149486431Y-72461607D01*
X149455110Y-72444866D01*
X149427661Y-72422339D01*
X149405134Y-72394890D01*
X149388393Y-72363569D01*
X149378085Y-72329591D01*
X149374000Y-72288110D01*
X149374000Y-71686890D01*
X149378085Y-71645409D01*
X149388393Y-71611431D01*
X149405134Y-71580110D01*
X149427661Y-71552661D01*
X149455110Y-71530134D01*
X149486431Y-71513393D01*
X149520409Y-71503085D01*
X149561890Y-71499000D01*
X150238110Y-71499000D01*
X150279591Y-71503085D01*
X150279591Y-71503085D01*
G37*
G36*
X139844079Y-62309304D02*
G01*
X139938780Y-62338031D01*
X140026048Y-62384677D01*
X140102544Y-62447456D01*
X140165323Y-62523952D01*
X140211969Y-62611220D01*
X140240696Y-62705921D01*
X140251000Y-62810540D01*
X140251000Y-71889460D01*
X140240696Y-71994079D01*
X140211969Y-72088780D01*
X140165323Y-72176048D01*
X140102544Y-72252544D01*
X140026048Y-72315323D01*
X139938780Y-72361969D01*
X139844079Y-72390696D01*
X139739460Y-72401000D01*
X137860540Y-72401000D01*
X137755921Y-72390696D01*
X137661220Y-72361969D01*
X137573952Y-72315323D01*
X137497456Y-72252544D01*
X137434677Y-72176048D01*
X137388031Y-72088780D01*
X137359304Y-71994079D01*
X137349000Y-71889460D01*
X137349000Y-62810540D01*
X137359304Y-62705921D01*
X137388031Y-62611220D01*
X137434677Y-62523952D01*
X137497456Y-62447456D01*
X137573952Y-62384677D01*
X137661220Y-62338031D01*
X137755921Y-62309304D01*
X137860540Y-62299000D01*
X139739460Y-62299000D01*
X139844079Y-62309304D01*
X139844079Y-62309304D01*
G37*
G36*
X159429591Y-70478085D02*
G01*
X159463569Y-70488393D01*
X159494890Y-70505134D01*
X159522339Y-70527661D01*
X159544866Y-70555110D01*
X159561607Y-70586431D01*
X159571915Y-70620409D01*
X159576000Y-70661890D01*
X159576000Y-71338110D01*
X159571915Y-71379591D01*
X159561607Y-71413569D01*
X159544866Y-71444890D01*
X159522339Y-71472339D01*
X159494890Y-71494866D01*
X159463569Y-71511607D01*
X159429591Y-71521915D01*
X159388110Y-71526000D01*
X158786890Y-71526000D01*
X158745409Y-71521915D01*
X158711431Y-71511607D01*
X158680110Y-71494866D01*
X158652661Y-71472339D01*
X158630134Y-71444890D01*
X158613393Y-71413569D01*
X158603085Y-71379591D01*
X158599000Y-71338110D01*
X158599000Y-70661890D01*
X158603085Y-70620409D01*
X158613393Y-70586431D01*
X158630134Y-70555110D01*
X158652661Y-70527661D01*
X158680110Y-70505134D01*
X158711431Y-70488393D01*
X158745409Y-70478085D01*
X158786890Y-70474000D01*
X159388110Y-70474000D01*
X159429591Y-70478085D01*
X159429591Y-70478085D01*
G37*
G36*
X157854591Y-70478085D02*
G01*
X157888569Y-70488393D01*
X157919890Y-70505134D01*
X157947339Y-70527661D01*
X157969866Y-70555110D01*
X157986607Y-70586431D01*
X157996915Y-70620409D01*
X158001000Y-70661890D01*
X158001000Y-71338110D01*
X157996915Y-71379591D01*
X157986607Y-71413569D01*
X157969866Y-71444890D01*
X157947339Y-71472339D01*
X157919890Y-71494866D01*
X157888569Y-71511607D01*
X157854591Y-71521915D01*
X157813110Y-71526000D01*
X157211890Y-71526000D01*
X157170409Y-71521915D01*
X157136431Y-71511607D01*
X157105110Y-71494866D01*
X157077661Y-71472339D01*
X157055134Y-71444890D01*
X157038393Y-71413569D01*
X157028085Y-71379591D01*
X157024000Y-71338110D01*
X157024000Y-70661890D01*
X157028085Y-70620409D01*
X157038393Y-70586431D01*
X157055134Y-70555110D01*
X157077661Y-70527661D01*
X157105110Y-70505134D01*
X157136431Y-70488393D01*
X157170409Y-70478085D01*
X157211890Y-70474000D01*
X157813110Y-70474000D01*
X157854591Y-70478085D01*
X157854591Y-70478085D01*
G37*
G36*
X150279591Y-69928085D02*
G01*
X150313569Y-69938393D01*
X150344890Y-69955134D01*
X150372339Y-69977661D01*
X150394866Y-70005110D01*
X150411607Y-70036431D01*
X150421915Y-70070409D01*
X150426000Y-70111890D01*
X150426000Y-70713110D01*
X150421915Y-70754591D01*
X150411607Y-70788569D01*
X150394866Y-70819890D01*
X150372339Y-70847339D01*
X150344890Y-70869866D01*
X150313569Y-70886607D01*
X150279591Y-70896915D01*
X150238110Y-70901000D01*
X149561890Y-70901000D01*
X149520409Y-70896915D01*
X149486431Y-70886607D01*
X149455110Y-70869866D01*
X149427661Y-70847339D01*
X149405134Y-70819890D01*
X149388393Y-70788569D01*
X149378085Y-70754591D01*
X149374000Y-70713110D01*
X149374000Y-70111890D01*
X149378085Y-70070409D01*
X149388393Y-70036431D01*
X149405134Y-70005110D01*
X149427661Y-69977661D01*
X149455110Y-69955134D01*
X149486431Y-69938393D01*
X149520409Y-69928085D01*
X149561890Y-69924000D01*
X150238110Y-69924000D01*
X150279591Y-69928085D01*
X150279591Y-69928085D01*
G37*
G36*
X132384468Y-69728565D02*
G01*
X132423138Y-69740296D01*
X132458777Y-69759346D01*
X132490017Y-69784983D01*
X132515654Y-69816223D01*
X132534704Y-69851862D01*
X132546435Y-69890532D01*
X132551000Y-69936888D01*
X132551000Y-70588112D01*
X132546435Y-70634468D01*
X132534704Y-70673138D01*
X132515654Y-70708777D01*
X132490017Y-70740017D01*
X132458777Y-70765654D01*
X132423138Y-70784704D01*
X132384468Y-70796435D01*
X132338112Y-70801000D01*
X131261888Y-70801000D01*
X131215532Y-70796435D01*
X131176862Y-70784704D01*
X131141223Y-70765654D01*
X131109983Y-70740017D01*
X131084346Y-70708777D01*
X131065296Y-70673138D01*
X131053565Y-70634468D01*
X131049000Y-70588112D01*
X131049000Y-69936888D01*
X131053565Y-69890532D01*
X131065296Y-69851862D01*
X131084346Y-69816223D01*
X131109983Y-69784983D01*
X131141223Y-69759346D01*
X131176862Y-69740296D01*
X131215532Y-69728565D01*
X131261888Y-69724000D01*
X132338112Y-69724000D01*
X132384468Y-69728565D01*
X132384468Y-69728565D01*
G37*
G36*
X147584468Y-69578565D02*
G01*
X147623138Y-69590296D01*
X147658777Y-69609346D01*
X147690017Y-69634983D01*
X147715654Y-69666223D01*
X147734704Y-69701862D01*
X147746435Y-69740532D01*
X147751000Y-69786888D01*
X147751000Y-70438112D01*
X147746435Y-70484468D01*
X147734704Y-70523138D01*
X147715654Y-70558777D01*
X147690017Y-70590017D01*
X147658777Y-70615654D01*
X147623138Y-70634704D01*
X147584468Y-70646435D01*
X147538112Y-70651000D01*
X146461888Y-70651000D01*
X146415532Y-70646435D01*
X146376862Y-70634704D01*
X146341223Y-70615654D01*
X146309983Y-70590017D01*
X146284346Y-70558777D01*
X146265296Y-70523138D01*
X146253565Y-70484468D01*
X146249000Y-70438112D01*
X146249000Y-69786888D01*
X146253565Y-69740532D01*
X146265296Y-69701862D01*
X146284346Y-69666223D01*
X146309983Y-69634983D01*
X146341223Y-69609346D01*
X146376862Y-69590296D01*
X146415532Y-69578565D01*
X146461888Y-69574000D01*
X147538112Y-69574000D01*
X147584468Y-69578565D01*
X147584468Y-69578565D01*
G37*
G36*
X103603642Y-67879781D02*
G01*
X103749414Y-67940162D01*
X103749416Y-67940163D01*
X103880608Y-68027822D01*
X103992178Y-68139392D01*
X104079837Y-68270584D01*
X104079838Y-68270586D01*
X104140219Y-68416358D01*
X104171000Y-68571107D01*
X104171000Y-68728893D01*
X104140219Y-68883642D01*
X104079838Y-69029414D01*
X104079837Y-69029416D01*
X103992178Y-69160608D01*
X103880608Y-69272178D01*
X103749416Y-69359837D01*
X103749415Y-69359838D01*
X103749414Y-69359838D01*
X103603642Y-69420219D01*
X103448893Y-69451000D01*
X103291107Y-69451000D01*
X103136358Y-69420219D01*
X102990586Y-69359838D01*
X102990585Y-69359838D01*
X102990584Y-69359837D01*
X102859392Y-69272178D01*
X102747822Y-69160608D01*
X102660163Y-69029416D01*
X102660162Y-69029414D01*
X102599781Y-68883642D01*
X102569000Y-68728893D01*
X102569000Y-68571107D01*
X102599781Y-68416358D01*
X102660162Y-68270586D01*
X102660163Y-68270584D01*
X102747822Y-68139392D01*
X102859392Y-68027822D01*
X102990584Y-67940163D01*
X102990586Y-67940162D01*
X103136358Y-67879781D01*
X103291107Y-67849000D01*
X103448893Y-67849000D01*
X103603642Y-67879781D01*
X103603642Y-67879781D01*
G37*
G36*
X98523642Y-67879781D02*
G01*
X98669414Y-67940162D01*
X98669416Y-67940163D01*
X98800608Y-68027822D01*
X98912178Y-68139392D01*
X98999837Y-68270584D01*
X98999838Y-68270586D01*
X99060219Y-68416358D01*
X99091000Y-68571107D01*
X99091000Y-68728893D01*
X99060219Y-68883642D01*
X98999838Y-69029414D01*
X98999837Y-69029416D01*
X98912178Y-69160608D01*
X98800608Y-69272178D01*
X98669416Y-69359837D01*
X98669415Y-69359838D01*
X98669414Y-69359838D01*
X98523642Y-69420219D01*
X98368893Y-69451000D01*
X98211107Y-69451000D01*
X98056358Y-69420219D01*
X97910586Y-69359838D01*
X97910585Y-69359838D01*
X97910584Y-69359837D01*
X97779392Y-69272178D01*
X97667822Y-69160608D01*
X97580163Y-69029416D01*
X97580162Y-69029414D01*
X97519781Y-68883642D01*
X97489000Y-68728893D01*
X97489000Y-68571107D01*
X97519781Y-68416358D01*
X97580162Y-68270586D01*
X97580163Y-68270584D01*
X97667822Y-68139392D01*
X97779392Y-68027822D01*
X97910584Y-67940163D01*
X97910586Y-67940162D01*
X98056358Y-67879781D01*
X98211107Y-67849000D01*
X98368893Y-67849000D01*
X98523642Y-67879781D01*
X98523642Y-67879781D01*
G37*
G36*
X126463642Y-67879781D02*
G01*
X126609414Y-67940162D01*
X126609416Y-67940163D01*
X126740608Y-68027822D01*
X126852178Y-68139392D01*
X126939837Y-68270584D01*
X126939838Y-68270586D01*
X127000219Y-68416358D01*
X127031000Y-68571107D01*
X127031000Y-68728893D01*
X127000219Y-68883642D01*
X126939838Y-69029414D01*
X126939837Y-69029416D01*
X126852178Y-69160608D01*
X126740608Y-69272178D01*
X126609416Y-69359837D01*
X126609415Y-69359838D01*
X126609414Y-69359838D01*
X126463642Y-69420219D01*
X126308893Y-69451000D01*
X126151107Y-69451000D01*
X125996358Y-69420219D01*
X125850586Y-69359838D01*
X125850585Y-69359838D01*
X125850584Y-69359837D01*
X125719392Y-69272178D01*
X125607822Y-69160608D01*
X125520163Y-69029416D01*
X125520162Y-69029414D01*
X125459781Y-68883642D01*
X125429000Y-68728893D01*
X125429000Y-68571107D01*
X125459781Y-68416358D01*
X125520162Y-68270586D01*
X125520163Y-68270584D01*
X125607822Y-68139392D01*
X125719392Y-68027822D01*
X125850584Y-67940163D01*
X125850586Y-67940162D01*
X125996358Y-67879781D01*
X126151107Y-67849000D01*
X126308893Y-67849000D01*
X126463642Y-67879781D01*
X126463642Y-67879781D01*
G37*
G36*
X123923642Y-67879781D02*
G01*
X124069414Y-67940162D01*
X124069416Y-67940163D01*
X124200608Y-68027822D01*
X124312178Y-68139392D01*
X124399837Y-68270584D01*
X124399838Y-68270586D01*
X124460219Y-68416358D01*
X124491000Y-68571107D01*
X124491000Y-68728893D01*
X124460219Y-68883642D01*
X124399838Y-69029414D01*
X124399837Y-69029416D01*
X124312178Y-69160608D01*
X124200608Y-69272178D01*
X124069416Y-69359837D01*
X124069415Y-69359838D01*
X124069414Y-69359838D01*
X123923642Y-69420219D01*
X123768893Y-69451000D01*
X123611107Y-69451000D01*
X123456358Y-69420219D01*
X123310586Y-69359838D01*
X123310585Y-69359838D01*
X123310584Y-69359837D01*
X123179392Y-69272178D01*
X123067822Y-69160608D01*
X122980163Y-69029416D01*
X122980162Y-69029414D01*
X122919781Y-68883642D01*
X122889000Y-68728893D01*
X122889000Y-68571107D01*
X122919781Y-68416358D01*
X122980162Y-68270586D01*
X122980163Y-68270584D01*
X123067822Y-68139392D01*
X123179392Y-68027822D01*
X123310584Y-67940163D01*
X123310586Y-67940162D01*
X123456358Y-67879781D01*
X123611107Y-67849000D01*
X123768893Y-67849000D01*
X123923642Y-67879781D01*
X123923642Y-67879781D01*
G37*
G36*
X121383642Y-67879781D02*
G01*
X121529414Y-67940162D01*
X121529416Y-67940163D01*
X121660608Y-68027822D01*
X121772178Y-68139392D01*
X121859837Y-68270584D01*
X121859838Y-68270586D01*
X121920219Y-68416358D01*
X121951000Y-68571107D01*
X121951000Y-68728893D01*
X121920219Y-68883642D01*
X121859838Y-69029414D01*
X121859837Y-69029416D01*
X121772178Y-69160608D01*
X121660608Y-69272178D01*
X121529416Y-69359837D01*
X121529415Y-69359838D01*
X121529414Y-69359838D01*
X121383642Y-69420219D01*
X121228893Y-69451000D01*
X121071107Y-69451000D01*
X120916358Y-69420219D01*
X120770586Y-69359838D01*
X120770585Y-69359838D01*
X120770584Y-69359837D01*
X120639392Y-69272178D01*
X120527822Y-69160608D01*
X120440163Y-69029416D01*
X120440162Y-69029414D01*
X120379781Y-68883642D01*
X120349000Y-68728893D01*
X120349000Y-68571107D01*
X120379781Y-68416358D01*
X120440162Y-68270586D01*
X120440163Y-68270584D01*
X120527822Y-68139392D01*
X120639392Y-68027822D01*
X120770584Y-67940163D01*
X120770586Y-67940162D01*
X120916358Y-67879781D01*
X121071107Y-67849000D01*
X121228893Y-67849000D01*
X121383642Y-67879781D01*
X121383642Y-67879781D01*
G37*
G36*
X118843642Y-67879781D02*
G01*
X118989414Y-67940162D01*
X118989416Y-67940163D01*
X119120608Y-68027822D01*
X119232178Y-68139392D01*
X119319837Y-68270584D01*
X119319838Y-68270586D01*
X119380219Y-68416358D01*
X119411000Y-68571107D01*
X119411000Y-68728893D01*
X119380219Y-68883642D01*
X119319838Y-69029414D01*
X119319837Y-69029416D01*
X119232178Y-69160608D01*
X119120608Y-69272178D01*
X118989416Y-69359837D01*
X118989415Y-69359838D01*
X118989414Y-69359838D01*
X118843642Y-69420219D01*
X118688893Y-69451000D01*
X118531107Y-69451000D01*
X118376358Y-69420219D01*
X118230586Y-69359838D01*
X118230585Y-69359838D01*
X118230584Y-69359837D01*
X118099392Y-69272178D01*
X117987822Y-69160608D01*
X117900163Y-69029416D01*
X117900162Y-69029414D01*
X117839781Y-68883642D01*
X117809000Y-68728893D01*
X117809000Y-68571107D01*
X117839781Y-68416358D01*
X117900162Y-68270586D01*
X117900163Y-68270584D01*
X117987822Y-68139392D01*
X118099392Y-68027822D01*
X118230584Y-67940163D01*
X118230586Y-67940162D01*
X118376358Y-67879781D01*
X118531107Y-67849000D01*
X118688893Y-67849000D01*
X118843642Y-67879781D01*
X118843642Y-67879781D01*
G37*
G36*
X96551000Y-69451000D02*
G01*
X94949000Y-69451000D01*
X94949000Y-67849000D01*
X96551000Y-67849000D01*
X96551000Y-69451000D01*
X96551000Y-69451000D01*
G37*
G36*
X106143642Y-67879781D02*
G01*
X106289414Y-67940162D01*
X106289416Y-67940163D01*
X106420608Y-68027822D01*
X106532178Y-68139392D01*
X106619837Y-68270584D01*
X106619838Y-68270586D01*
X106680219Y-68416358D01*
X106711000Y-68571107D01*
X106711000Y-68728893D01*
X106680219Y-68883642D01*
X106619838Y-69029414D01*
X106619837Y-69029416D01*
X106532178Y-69160608D01*
X106420608Y-69272178D01*
X106289416Y-69359837D01*
X106289415Y-69359838D01*
X106289414Y-69359838D01*
X106143642Y-69420219D01*
X105988893Y-69451000D01*
X105831107Y-69451000D01*
X105676358Y-69420219D01*
X105530586Y-69359838D01*
X105530585Y-69359838D01*
X105530584Y-69359837D01*
X105399392Y-69272178D01*
X105287822Y-69160608D01*
X105200163Y-69029416D01*
X105200162Y-69029414D01*
X105139781Y-68883642D01*
X105109000Y-68728893D01*
X105109000Y-68571107D01*
X105139781Y-68416358D01*
X105200162Y-68270586D01*
X105200163Y-68270584D01*
X105287822Y-68139392D01*
X105399392Y-68027822D01*
X105530584Y-67940163D01*
X105530586Y-67940162D01*
X105676358Y-67879781D01*
X105831107Y-67849000D01*
X105988893Y-67849000D01*
X106143642Y-67879781D01*
X106143642Y-67879781D01*
G37*
G36*
X116303642Y-67879781D02*
G01*
X116449414Y-67940162D01*
X116449416Y-67940163D01*
X116580608Y-68027822D01*
X116692178Y-68139392D01*
X116779837Y-68270584D01*
X116779838Y-68270586D01*
X116840219Y-68416358D01*
X116871000Y-68571107D01*
X116871000Y-68728893D01*
X116840219Y-68883642D01*
X116779838Y-69029414D01*
X116779837Y-69029416D01*
X116692178Y-69160608D01*
X116580608Y-69272178D01*
X116449416Y-69359837D01*
X116449415Y-69359838D01*
X116449414Y-69359838D01*
X116303642Y-69420219D01*
X116148893Y-69451000D01*
X115991107Y-69451000D01*
X115836358Y-69420219D01*
X115690586Y-69359838D01*
X115690585Y-69359838D01*
X115690584Y-69359837D01*
X115559392Y-69272178D01*
X115447822Y-69160608D01*
X115360163Y-69029416D01*
X115360162Y-69029414D01*
X115299781Y-68883642D01*
X115269000Y-68728893D01*
X115269000Y-68571107D01*
X115299781Y-68416358D01*
X115360162Y-68270586D01*
X115360163Y-68270584D01*
X115447822Y-68139392D01*
X115559392Y-68027822D01*
X115690584Y-67940163D01*
X115690586Y-67940162D01*
X115836358Y-67879781D01*
X115991107Y-67849000D01*
X116148893Y-67849000D01*
X116303642Y-67879781D01*
X116303642Y-67879781D01*
G37*
G36*
X101063642Y-67879781D02*
G01*
X101209414Y-67940162D01*
X101209416Y-67940163D01*
X101340608Y-68027822D01*
X101452178Y-68139392D01*
X101539837Y-68270584D01*
X101539838Y-68270586D01*
X101600219Y-68416358D01*
X101631000Y-68571107D01*
X101631000Y-68728893D01*
X101600219Y-68883642D01*
X101539838Y-69029414D01*
X101539837Y-69029416D01*
X101452178Y-69160608D01*
X101340608Y-69272178D01*
X101209416Y-69359837D01*
X101209415Y-69359838D01*
X101209414Y-69359838D01*
X101063642Y-69420219D01*
X100908893Y-69451000D01*
X100751107Y-69451000D01*
X100596358Y-69420219D01*
X100450586Y-69359838D01*
X100450585Y-69359838D01*
X100450584Y-69359837D01*
X100319392Y-69272178D01*
X100207822Y-69160608D01*
X100120163Y-69029416D01*
X100120162Y-69029414D01*
X100059781Y-68883642D01*
X100029000Y-68728893D01*
X100029000Y-68571107D01*
X100059781Y-68416358D01*
X100120162Y-68270586D01*
X100120163Y-68270584D01*
X100207822Y-68139392D01*
X100319392Y-68027822D01*
X100450584Y-67940163D01*
X100450586Y-67940162D01*
X100596358Y-67879781D01*
X100751107Y-67849000D01*
X100908893Y-67849000D01*
X101063642Y-67879781D01*
X101063642Y-67879781D01*
G37*
G36*
X157054591Y-67678085D02*
G01*
X157088569Y-67688393D01*
X157119890Y-67705134D01*
X157147339Y-67727661D01*
X157169866Y-67755110D01*
X157186607Y-67786431D01*
X157196915Y-67820409D01*
X157201000Y-67861890D01*
X157201000Y-68538110D01*
X157196915Y-68579591D01*
X157186607Y-68613569D01*
X157169866Y-68644890D01*
X157147339Y-68672339D01*
X157119890Y-68694866D01*
X157088569Y-68711607D01*
X157054591Y-68721915D01*
X157013110Y-68726000D01*
X156411890Y-68726000D01*
X156370409Y-68721915D01*
X156336431Y-68711607D01*
X156305110Y-68694866D01*
X156277661Y-68672339D01*
X156255134Y-68644890D01*
X156238393Y-68613569D01*
X156228085Y-68579591D01*
X156224000Y-68538110D01*
X156224000Y-67861890D01*
X156228085Y-67820409D01*
X156238393Y-67786431D01*
X156255134Y-67755110D01*
X156277661Y-67727661D01*
X156305110Y-67705134D01*
X156336431Y-67688393D01*
X156370409Y-67678085D01*
X156411890Y-67674000D01*
X157013110Y-67674000D01*
X157054591Y-67678085D01*
X157054591Y-67678085D01*
G37*
G36*
X158629591Y-67678085D02*
G01*
X158663569Y-67688393D01*
X158694890Y-67705134D01*
X158722339Y-67727661D01*
X158744866Y-67755110D01*
X158761607Y-67786431D01*
X158771915Y-67820409D01*
X158776000Y-67861890D01*
X158776000Y-68538110D01*
X158771915Y-68579591D01*
X158761607Y-68613569D01*
X158744866Y-68644890D01*
X158722339Y-68672339D01*
X158694890Y-68694866D01*
X158663569Y-68711607D01*
X158629591Y-68721915D01*
X158588110Y-68726000D01*
X157986890Y-68726000D01*
X157945409Y-68721915D01*
X157911431Y-68711607D01*
X157880110Y-68694866D01*
X157852661Y-68672339D01*
X157830134Y-68644890D01*
X157813393Y-68613569D01*
X157803085Y-68579591D01*
X157799000Y-68538110D01*
X157799000Y-67861890D01*
X157803085Y-67820409D01*
X157813393Y-67786431D01*
X157830134Y-67755110D01*
X157852661Y-67727661D01*
X157880110Y-67705134D01*
X157911431Y-67688393D01*
X157945409Y-67678085D01*
X157986890Y-67674000D01*
X158588110Y-67674000D01*
X158629591Y-67678085D01*
X158629591Y-67678085D01*
G37*
G36*
X109651000Y-68426000D02*
G01*
X108949000Y-68426000D01*
X108949000Y-67274000D01*
X109651000Y-67274000D01*
X109651000Y-68426000D01*
X109651000Y-68426000D01*
G37*
G36*
X135444079Y-64809304D02*
G01*
X135538780Y-64838031D01*
X135626048Y-64884677D01*
X135702544Y-64947456D01*
X135765323Y-65023952D01*
X135811969Y-65111220D01*
X135840696Y-65205921D01*
X135851000Y-65310540D01*
X135851000Y-67189460D01*
X135840696Y-67294079D01*
X135811969Y-67388780D01*
X135765323Y-67476048D01*
X135702544Y-67552544D01*
X135626048Y-67615323D01*
X135538780Y-67661969D01*
X135444079Y-67690696D01*
X135339460Y-67701000D01*
X131260540Y-67701000D01*
X131155921Y-67690696D01*
X131061220Y-67661969D01*
X130973952Y-67615323D01*
X130897456Y-67552544D01*
X130834677Y-67476048D01*
X130788031Y-67388780D01*
X130759304Y-67294079D01*
X130749000Y-67189460D01*
X130749000Y-65310540D01*
X130759304Y-65205921D01*
X130788031Y-65111220D01*
X130834677Y-65023952D01*
X130897456Y-64947456D01*
X130973952Y-64884677D01*
X131061220Y-64838031D01*
X131155921Y-64809304D01*
X131260540Y-64799000D01*
X135339460Y-64799000D01*
X135444079Y-64809304D01*
X135444079Y-64809304D01*
G37*
G36*
X156229591Y-65703085D02*
G01*
X156263569Y-65713393D01*
X156294890Y-65730134D01*
X156322339Y-65752661D01*
X156344866Y-65780110D01*
X156361607Y-65811431D01*
X156371915Y-65845409D01*
X156376000Y-65886890D01*
X156376000Y-66488110D01*
X156371915Y-66529591D01*
X156361607Y-66563569D01*
X156344866Y-66594890D01*
X156322339Y-66622339D01*
X156294890Y-66644866D01*
X156263569Y-66661607D01*
X156229591Y-66671915D01*
X156188110Y-66676000D01*
X155511890Y-66676000D01*
X155470409Y-66671915D01*
X155436431Y-66661607D01*
X155405110Y-66644866D01*
X155377661Y-66622339D01*
X155355134Y-66594890D01*
X155338393Y-66563569D01*
X155328085Y-66529591D01*
X155324000Y-66488110D01*
X155324000Y-65886890D01*
X155328085Y-65845409D01*
X155338393Y-65811431D01*
X155355134Y-65780110D01*
X155377661Y-65752661D01*
X155405110Y-65730134D01*
X155436431Y-65713393D01*
X155470409Y-65703085D01*
X155511890Y-65699000D01*
X156188110Y-65699000D01*
X156229591Y-65703085D01*
X156229591Y-65703085D01*
G37*
G36*
X153879591Y-65703085D02*
G01*
X153913569Y-65713393D01*
X153944890Y-65730134D01*
X153972339Y-65752661D01*
X153994866Y-65780110D01*
X154011607Y-65811431D01*
X154021915Y-65845409D01*
X154026000Y-65886890D01*
X154026000Y-66488110D01*
X154021915Y-66529591D01*
X154011607Y-66563569D01*
X153994866Y-66594890D01*
X153972339Y-66622339D01*
X153944890Y-66644866D01*
X153913569Y-66661607D01*
X153879591Y-66671915D01*
X153838110Y-66676000D01*
X153161890Y-66676000D01*
X153120409Y-66671915D01*
X153086431Y-66661607D01*
X153055110Y-66644866D01*
X153027661Y-66622339D01*
X153005134Y-66594890D01*
X152988393Y-66563569D01*
X152978085Y-66529591D01*
X152974000Y-66488110D01*
X152974000Y-65886890D01*
X152978085Y-65845409D01*
X152988393Y-65811431D01*
X153005134Y-65780110D01*
X153027661Y-65752661D01*
X153055110Y-65730134D01*
X153086431Y-65713393D01*
X153120409Y-65703085D01*
X153161890Y-65699000D01*
X153838110Y-65699000D01*
X153879591Y-65703085D01*
X153879591Y-65703085D01*
G37*
G36*
X158679591Y-65703085D02*
G01*
X158713569Y-65713393D01*
X158744890Y-65730134D01*
X158772339Y-65752661D01*
X158794866Y-65780110D01*
X158811607Y-65811431D01*
X158821915Y-65845409D01*
X158826000Y-65886890D01*
X158826000Y-66488110D01*
X158821915Y-66529591D01*
X158811607Y-66563569D01*
X158794866Y-66594890D01*
X158772339Y-66622339D01*
X158744890Y-66644866D01*
X158713569Y-66661607D01*
X158679591Y-66671915D01*
X158638110Y-66676000D01*
X157961890Y-66676000D01*
X157920409Y-66671915D01*
X157886431Y-66661607D01*
X157855110Y-66644866D01*
X157827661Y-66622339D01*
X157805134Y-66594890D01*
X157788393Y-66563569D01*
X157778085Y-66529591D01*
X157774000Y-66488110D01*
X157774000Y-65886890D01*
X157778085Y-65845409D01*
X157788393Y-65811431D01*
X157805134Y-65780110D01*
X157827661Y-65752661D01*
X157855110Y-65730134D01*
X157886431Y-65713393D01*
X157920409Y-65703085D01*
X157961890Y-65699000D01*
X158638110Y-65699000D01*
X158679591Y-65703085D01*
X158679591Y-65703085D01*
G37*
G36*
X110601000Y-66226000D02*
G01*
X109899000Y-66226000D01*
X109899000Y-65074000D01*
X110601000Y-65074000D01*
X110601000Y-66226000D01*
X110601000Y-66226000D01*
G37*
G36*
X108701000Y-66226000D02*
G01*
X107999000Y-66226000D01*
X107999000Y-65074000D01*
X108701000Y-65074000D01*
X108701000Y-66226000D01*
X108701000Y-66226000D01*
G37*
G36*
X119801000Y-65801000D02*
G01*
X118449000Y-65801000D01*
X118449000Y-64899000D01*
X119801000Y-64899000D01*
X119801000Y-65801000D01*
X119801000Y-65801000D01*
G37*
G36*
X121451000Y-65801000D02*
G01*
X120099000Y-65801000D01*
X120099000Y-64899000D01*
X121451000Y-64899000D01*
X121451000Y-65801000D01*
X121451000Y-65801000D01*
G37*
G36*
X153879591Y-64128085D02*
G01*
X153913569Y-64138393D01*
X153944890Y-64155134D01*
X153972339Y-64177661D01*
X153994866Y-64205110D01*
X154011607Y-64236431D01*
X154021915Y-64270409D01*
X154026000Y-64311890D01*
X154026000Y-64913110D01*
X154021915Y-64954591D01*
X154011607Y-64988569D01*
X153994866Y-65019890D01*
X153972339Y-65047339D01*
X153944890Y-65069866D01*
X153913569Y-65086607D01*
X153879591Y-65096915D01*
X153838110Y-65101000D01*
X153161890Y-65101000D01*
X153120409Y-65096915D01*
X153086431Y-65086607D01*
X153055110Y-65069866D01*
X153027661Y-65047339D01*
X153005134Y-65019890D01*
X152988393Y-64988569D01*
X152978085Y-64954591D01*
X152974000Y-64913110D01*
X152974000Y-64311890D01*
X152978085Y-64270409D01*
X152988393Y-64236431D01*
X153005134Y-64205110D01*
X153027661Y-64177661D01*
X153055110Y-64155134D01*
X153086431Y-64138393D01*
X153120409Y-64128085D01*
X153161890Y-64124000D01*
X153838110Y-64124000D01*
X153879591Y-64128085D01*
X153879591Y-64128085D01*
G37*
G36*
X156229591Y-64128085D02*
G01*
X156263569Y-64138393D01*
X156294890Y-64155134D01*
X156322339Y-64177661D01*
X156344866Y-64205110D01*
X156361607Y-64236431D01*
X156371915Y-64270409D01*
X156376000Y-64311890D01*
X156376000Y-64913110D01*
X156371915Y-64954591D01*
X156361607Y-64988569D01*
X156344866Y-65019890D01*
X156322339Y-65047339D01*
X156294890Y-65069866D01*
X156263569Y-65086607D01*
X156229591Y-65096915D01*
X156188110Y-65101000D01*
X155511890Y-65101000D01*
X155470409Y-65096915D01*
X155436431Y-65086607D01*
X155405110Y-65069866D01*
X155377661Y-65047339D01*
X155355134Y-65019890D01*
X155338393Y-64988569D01*
X155328085Y-64954591D01*
X155324000Y-64913110D01*
X155324000Y-64311890D01*
X155328085Y-64270409D01*
X155338393Y-64236431D01*
X155355134Y-64205110D01*
X155377661Y-64177661D01*
X155405110Y-64155134D01*
X155436431Y-64138393D01*
X155470409Y-64128085D01*
X155511890Y-64124000D01*
X156188110Y-64124000D01*
X156229591Y-64128085D01*
X156229591Y-64128085D01*
G37*
G36*
X158679591Y-64128085D02*
G01*
X158713569Y-64138393D01*
X158744890Y-64155134D01*
X158772339Y-64177661D01*
X158794866Y-64205110D01*
X158811607Y-64236431D01*
X158821915Y-64270409D01*
X158826000Y-64311890D01*
X158826000Y-64913110D01*
X158821915Y-64954591D01*
X158811607Y-64988569D01*
X158794866Y-65019890D01*
X158772339Y-65047339D01*
X158744890Y-65069866D01*
X158713569Y-65086607D01*
X158679591Y-65096915D01*
X158638110Y-65101000D01*
X157961890Y-65101000D01*
X157920409Y-65096915D01*
X157886431Y-65086607D01*
X157855110Y-65069866D01*
X157827661Y-65047339D01*
X157805134Y-65019890D01*
X157788393Y-64988569D01*
X157778085Y-64954591D01*
X157774000Y-64913110D01*
X157774000Y-64311890D01*
X157778085Y-64270409D01*
X157788393Y-64236431D01*
X157805134Y-64205110D01*
X157827661Y-64177661D01*
X157855110Y-64155134D01*
X157886431Y-64138393D01*
X157920409Y-64128085D01*
X157961890Y-64124000D01*
X158638110Y-64124000D01*
X158679591Y-64128085D01*
X158679591Y-64128085D01*
G37*
G36*
X121451000Y-64001000D02*
G01*
X120099000Y-64001000D01*
X120099000Y-63099000D01*
X121451000Y-63099000D01*
X121451000Y-64001000D01*
X121451000Y-64001000D01*
G37*
G36*
X119801000Y-64001000D02*
G01*
X118449000Y-64001000D01*
X118449000Y-63099000D01*
X119801000Y-63099000D01*
X119801000Y-64001000D01*
X119801000Y-64001000D01*
G37*
G36*
X110401000Y-63901000D02*
G01*
X109049000Y-63901000D01*
X109049000Y-62999000D01*
X110401000Y-62999000D01*
X110401000Y-63901000D01*
X110401000Y-63901000D01*
G37*
G36*
X112051000Y-63901000D02*
G01*
X110699000Y-63901000D01*
X110699000Y-62999000D01*
X112051000Y-62999000D01*
X112051000Y-63901000D01*
X112051000Y-63901000D01*
G37*
G36*
X95151000Y-63426000D02*
G01*
X94449000Y-63426000D01*
X94449000Y-62274000D01*
X95151000Y-62274000D01*
X95151000Y-63426000D01*
X95151000Y-63426000D01*
G37*
G36*
X97051000Y-63426000D02*
G01*
X96349000Y-63426000D01*
X96349000Y-62274000D01*
X97051000Y-62274000D01*
X97051000Y-63426000D01*
X97051000Y-63426000D01*
G37*
G36*
X156979591Y-62228085D02*
G01*
X157013569Y-62238393D01*
X157044890Y-62255134D01*
X157072339Y-62277661D01*
X157094866Y-62305110D01*
X157111607Y-62336431D01*
X157121915Y-62370409D01*
X157126000Y-62411890D01*
X157126000Y-63088110D01*
X157121915Y-63129591D01*
X157111607Y-63163569D01*
X157094866Y-63194890D01*
X157072339Y-63222339D01*
X157044890Y-63244866D01*
X157013569Y-63261607D01*
X156979591Y-63271915D01*
X156938110Y-63276000D01*
X156336890Y-63276000D01*
X156295409Y-63271915D01*
X156261431Y-63261607D01*
X156230110Y-63244866D01*
X156202661Y-63222339D01*
X156180134Y-63194890D01*
X156163393Y-63163569D01*
X156153085Y-63129591D01*
X156149000Y-63088110D01*
X156149000Y-62411890D01*
X156153085Y-62370409D01*
X156163393Y-62336431D01*
X156180134Y-62305110D01*
X156202661Y-62277661D01*
X156230110Y-62255134D01*
X156261431Y-62238393D01*
X156295409Y-62228085D01*
X156336890Y-62224000D01*
X156938110Y-62224000D01*
X156979591Y-62228085D01*
X156979591Y-62228085D01*
G37*
G36*
X155404591Y-62228085D02*
G01*
X155438569Y-62238393D01*
X155469890Y-62255134D01*
X155497339Y-62277661D01*
X155519866Y-62305110D01*
X155536607Y-62336431D01*
X155546915Y-62370409D01*
X155551000Y-62411890D01*
X155551000Y-63088110D01*
X155546915Y-63129591D01*
X155536607Y-63163569D01*
X155519866Y-63194890D01*
X155497339Y-63222339D01*
X155469890Y-63244866D01*
X155438569Y-63261607D01*
X155404591Y-63271915D01*
X155363110Y-63276000D01*
X154761890Y-63276000D01*
X154720409Y-63271915D01*
X154686431Y-63261607D01*
X154655110Y-63244866D01*
X154627661Y-63222339D01*
X154605134Y-63194890D01*
X154588393Y-63163569D01*
X154578085Y-63129591D01*
X154574000Y-63088110D01*
X154574000Y-62411890D01*
X154578085Y-62370409D01*
X154588393Y-62336431D01*
X154605134Y-62305110D01*
X154627661Y-62277661D01*
X154655110Y-62255134D01*
X154686431Y-62238393D01*
X154720409Y-62228085D01*
X154761890Y-62224000D01*
X155363110Y-62224000D01*
X155404591Y-62228085D01*
X155404591Y-62228085D01*
G37*
G36*
X126601000Y-62926000D02*
G01*
X125899000Y-62926000D01*
X125899000Y-61774000D01*
X126601000Y-61774000D01*
X126601000Y-62926000D01*
X126601000Y-62926000D01*
G37*
G36*
X112051000Y-62101000D02*
G01*
X110699000Y-62101000D01*
X110699000Y-61199000D01*
X112051000Y-61199000D01*
X112051000Y-62101000D01*
X112051000Y-62101000D01*
G37*
G36*
X110401000Y-62101000D02*
G01*
X109049000Y-62101000D01*
X109049000Y-61199000D01*
X110401000Y-61199000D01*
X110401000Y-62101000D01*
X110401000Y-62101000D01*
G37*
G36*
X156434468Y-60503565D02*
G01*
X156473138Y-60515296D01*
X156508777Y-60534346D01*
X156540017Y-60559983D01*
X156565654Y-60591223D01*
X156584704Y-60626862D01*
X156596435Y-60665532D01*
X156601000Y-60711888D01*
X156601000Y-61363112D01*
X156596435Y-61409468D01*
X156584704Y-61448138D01*
X156565654Y-61483777D01*
X156540017Y-61515017D01*
X156508777Y-61540654D01*
X156473138Y-61559704D01*
X156434468Y-61571435D01*
X156388112Y-61576000D01*
X155311888Y-61576000D01*
X155265532Y-61571435D01*
X155226862Y-61559704D01*
X155191223Y-61540654D01*
X155159983Y-61515017D01*
X155134346Y-61483777D01*
X155115296Y-61448138D01*
X155103565Y-61409468D01*
X155099000Y-61363112D01*
X155099000Y-60711888D01*
X155103565Y-60665532D01*
X155115296Y-60626862D01*
X155134346Y-60591223D01*
X155159983Y-60559983D01*
X155191223Y-60534346D01*
X155226862Y-60515296D01*
X155265532Y-60503565D01*
X155311888Y-60499000D01*
X156388112Y-60499000D01*
X156434468Y-60503565D01*
X156434468Y-60503565D01*
G37*
G36*
X139844079Y-57459304D02*
G01*
X139938780Y-57488031D01*
X140026048Y-57534677D01*
X140102544Y-57597456D01*
X140165323Y-57673952D01*
X140211969Y-57761220D01*
X140240696Y-57855921D01*
X140251000Y-57960540D01*
X140251000Y-61039460D01*
X140240696Y-61144079D01*
X140211969Y-61238780D01*
X140165323Y-61326048D01*
X140102544Y-61402544D01*
X140026048Y-61465323D01*
X139938780Y-61511969D01*
X139844079Y-61540696D01*
X139739460Y-61551000D01*
X137860540Y-61551000D01*
X137755921Y-61540696D01*
X137661220Y-61511969D01*
X137573952Y-61465323D01*
X137497456Y-61402544D01*
X137434677Y-61326048D01*
X137388031Y-61238780D01*
X137359304Y-61144079D01*
X137349000Y-61039460D01*
X137349000Y-57960540D01*
X137359304Y-57855921D01*
X137388031Y-57761220D01*
X137434677Y-57673952D01*
X137497456Y-57597456D01*
X137573952Y-57534677D01*
X137661220Y-57488031D01*
X137755921Y-57459304D01*
X137860540Y-57449000D01*
X139739460Y-57449000D01*
X139844079Y-57459304D01*
X139844079Y-57459304D01*
G37*
G36*
X164314468Y-60473565D02*
G01*
X164353138Y-60485296D01*
X164388777Y-60504346D01*
X164420017Y-60529983D01*
X164445654Y-60561223D01*
X164464704Y-60596862D01*
X164476435Y-60635532D01*
X164481000Y-60681888D01*
X164481000Y-61333112D01*
X164476435Y-61379468D01*
X164464704Y-61418138D01*
X164445654Y-61453777D01*
X164420017Y-61485017D01*
X164388777Y-61510654D01*
X164353138Y-61529704D01*
X164314468Y-61541435D01*
X164268112Y-61546000D01*
X163191888Y-61546000D01*
X163145532Y-61541435D01*
X163106862Y-61529704D01*
X163071223Y-61510654D01*
X163039983Y-61485017D01*
X163014346Y-61453777D01*
X162995296Y-61418138D01*
X162983565Y-61379468D01*
X162979000Y-61333112D01*
X162979000Y-60681888D01*
X162983565Y-60635532D01*
X162995296Y-60596862D01*
X163014346Y-60561223D01*
X163039983Y-60529983D01*
X163071223Y-60504346D01*
X163106862Y-60485296D01*
X163145532Y-60473565D01*
X163191888Y-60469000D01*
X164268112Y-60469000D01*
X164314468Y-60473565D01*
X164314468Y-60473565D01*
G37*
G36*
X96101000Y-61226000D02*
G01*
X95399000Y-61226000D01*
X95399000Y-60074000D01*
X96101000Y-60074000D01*
X96101000Y-61226000D01*
X96101000Y-61226000D01*
G37*
G36*
X153679591Y-60253085D02*
G01*
X153713569Y-60263393D01*
X153744890Y-60280134D01*
X153772339Y-60302661D01*
X153794866Y-60330110D01*
X153811607Y-60361431D01*
X153821915Y-60395409D01*
X153826000Y-60436890D01*
X153826000Y-61038110D01*
X153821915Y-61079591D01*
X153811607Y-61113569D01*
X153794866Y-61144890D01*
X153772339Y-61172339D01*
X153744890Y-61194866D01*
X153713569Y-61211607D01*
X153679591Y-61221915D01*
X153638110Y-61226000D01*
X152961890Y-61226000D01*
X152920409Y-61221915D01*
X152886431Y-61211607D01*
X152855110Y-61194866D01*
X152827661Y-61172339D01*
X152805134Y-61144890D01*
X152788393Y-61113569D01*
X152778085Y-61079591D01*
X152774000Y-61038110D01*
X152774000Y-60436890D01*
X152778085Y-60395409D01*
X152788393Y-60361431D01*
X152805134Y-60330110D01*
X152827661Y-60302661D01*
X152855110Y-60280134D01*
X152886431Y-60263393D01*
X152920409Y-60253085D01*
X152961890Y-60249000D01*
X153638110Y-60249000D01*
X153679591Y-60253085D01*
X153679591Y-60253085D01*
G37*
G36*
X158679591Y-60203085D02*
G01*
X158713569Y-60213393D01*
X158744890Y-60230134D01*
X158772339Y-60252661D01*
X158794866Y-60280110D01*
X158811607Y-60311431D01*
X158821915Y-60345409D01*
X158826000Y-60386890D01*
X158826000Y-60988110D01*
X158821915Y-61029591D01*
X158811607Y-61063569D01*
X158794866Y-61094890D01*
X158772339Y-61122339D01*
X158744890Y-61144866D01*
X158713569Y-61161607D01*
X158679591Y-61171915D01*
X158638110Y-61176000D01*
X157961890Y-61176000D01*
X157920409Y-61171915D01*
X157886431Y-61161607D01*
X157855110Y-61144866D01*
X157827661Y-61122339D01*
X157805134Y-61094890D01*
X157788393Y-61063569D01*
X157778085Y-61029591D01*
X157774000Y-60988110D01*
X157774000Y-60386890D01*
X157778085Y-60345409D01*
X157788393Y-60311431D01*
X157805134Y-60280110D01*
X157827661Y-60252661D01*
X157855110Y-60230134D01*
X157886431Y-60213393D01*
X157920409Y-60203085D01*
X157961890Y-60199000D01*
X158638110Y-60199000D01*
X158679591Y-60203085D01*
X158679591Y-60203085D01*
G37*
G36*
X148029591Y-60003085D02*
G01*
X148063569Y-60013393D01*
X148094890Y-60030134D01*
X148122339Y-60052661D01*
X148144866Y-60080110D01*
X148161607Y-60111431D01*
X148171915Y-60145409D01*
X148176000Y-60186890D01*
X148176000Y-60788110D01*
X148171915Y-60829591D01*
X148161607Y-60863569D01*
X148144866Y-60894890D01*
X148122339Y-60922339D01*
X148094890Y-60944866D01*
X148063569Y-60961607D01*
X148029591Y-60971915D01*
X147988110Y-60976000D01*
X147311890Y-60976000D01*
X147270409Y-60971915D01*
X147236431Y-60961607D01*
X147205110Y-60944866D01*
X147177661Y-60922339D01*
X147155134Y-60894890D01*
X147138393Y-60863569D01*
X147128085Y-60829591D01*
X147124000Y-60788110D01*
X147124000Y-60186890D01*
X147128085Y-60145409D01*
X147138393Y-60111431D01*
X147155134Y-60080110D01*
X147177661Y-60052661D01*
X147205110Y-60030134D01*
X147236431Y-60013393D01*
X147270409Y-60003085D01*
X147311890Y-59999000D01*
X147988110Y-59999000D01*
X148029591Y-60003085D01*
X148029591Y-60003085D01*
G37*
G36*
X101851000Y-60951000D02*
G01*
X100499000Y-60951000D01*
X100499000Y-60049000D01*
X101851000Y-60049000D01*
X101851000Y-60951000D01*
X101851000Y-60951000D01*
G37*
G36*
X103501000Y-60951000D02*
G01*
X102149000Y-60951000D01*
X102149000Y-60049000D01*
X103501000Y-60049000D01*
X103501000Y-60951000D01*
X103501000Y-60951000D01*
G37*
G36*
X127551000Y-60726000D02*
G01*
X126849000Y-60726000D01*
X126849000Y-59574000D01*
X127551000Y-59574000D01*
X127551000Y-60726000D01*
X127551000Y-60726000D01*
G37*
G36*
X125651000Y-60726000D02*
G01*
X124949000Y-60726000D01*
X124949000Y-59574000D01*
X125651000Y-59574000D01*
X125651000Y-60726000D01*
X125651000Y-60726000D01*
G37*
G36*
X142722798Y-58663247D02*
G01*
X142758367Y-58674037D01*
X142791139Y-58691554D01*
X142819869Y-58715131D01*
X142843446Y-58743861D01*
X142860963Y-58776633D01*
X142871753Y-58812202D01*
X142876000Y-58855325D01*
X142876000Y-59964675D01*
X142871753Y-60007798D01*
X142860963Y-60043367D01*
X142843446Y-60076139D01*
X142819869Y-60104869D01*
X142791139Y-60128446D01*
X142758367Y-60145963D01*
X142722798Y-60156753D01*
X142679675Y-60161000D01*
X141620325Y-60161000D01*
X141577202Y-60156753D01*
X141541633Y-60145963D01*
X141508861Y-60128446D01*
X141480131Y-60104869D01*
X141456554Y-60076139D01*
X141439037Y-60043367D01*
X141428247Y-60007798D01*
X141424000Y-59964675D01*
X141424000Y-58855325D01*
X141428247Y-58812202D01*
X141439037Y-58776633D01*
X141456554Y-58743861D01*
X141480131Y-58715131D01*
X141508861Y-58691554D01*
X141541633Y-58674037D01*
X141577202Y-58663247D01*
X141620325Y-58659000D01*
X142679675Y-58659000D01*
X142722798Y-58663247D01*
X142722798Y-58663247D01*
G37*
G36*
X156434468Y-58628565D02*
G01*
X156473138Y-58640296D01*
X156508777Y-58659346D01*
X156540017Y-58684983D01*
X156565654Y-58716223D01*
X156584704Y-58751862D01*
X156596435Y-58790532D01*
X156601000Y-58836888D01*
X156601000Y-59488112D01*
X156596435Y-59534468D01*
X156584704Y-59573138D01*
X156565654Y-59608777D01*
X156540017Y-59640017D01*
X156508777Y-59665654D01*
X156473138Y-59684704D01*
X156434468Y-59696435D01*
X156388112Y-59701000D01*
X155311888Y-59701000D01*
X155265532Y-59696435D01*
X155226862Y-59684704D01*
X155191223Y-59665654D01*
X155159983Y-59640017D01*
X155134346Y-59608777D01*
X155115296Y-59573138D01*
X155103565Y-59534468D01*
X155099000Y-59488112D01*
X155099000Y-58836888D01*
X155103565Y-58790532D01*
X155115296Y-58751862D01*
X155134346Y-58716223D01*
X155159983Y-58684983D01*
X155191223Y-58659346D01*
X155226862Y-58640296D01*
X155265532Y-58628565D01*
X155311888Y-58624000D01*
X156388112Y-58624000D01*
X156434468Y-58628565D01*
X156434468Y-58628565D01*
G37*
G36*
X164314468Y-58598565D02*
G01*
X164353138Y-58610296D01*
X164388777Y-58629346D01*
X164420017Y-58654983D01*
X164445654Y-58686223D01*
X164464704Y-58721862D01*
X164476435Y-58760532D01*
X164481000Y-58806888D01*
X164481000Y-59458112D01*
X164476435Y-59504468D01*
X164464704Y-59543138D01*
X164445654Y-59578777D01*
X164420017Y-59610017D01*
X164388777Y-59635654D01*
X164353138Y-59654704D01*
X164314468Y-59666435D01*
X164268112Y-59671000D01*
X163191888Y-59671000D01*
X163145532Y-59666435D01*
X163106862Y-59654704D01*
X163071223Y-59635654D01*
X163039983Y-59610017D01*
X163014346Y-59578777D01*
X162995296Y-59543138D01*
X162983565Y-59504468D01*
X162979000Y-59458112D01*
X162979000Y-58806888D01*
X162983565Y-58760532D01*
X162995296Y-58721862D01*
X163014346Y-58686223D01*
X163039983Y-58654983D01*
X163071223Y-58629346D01*
X163106862Y-58610296D01*
X163145532Y-58598565D01*
X163191888Y-58594000D01*
X164268112Y-58594000D01*
X164314468Y-58598565D01*
X164314468Y-58598565D01*
G37*
G36*
X153679591Y-58678085D02*
G01*
X153713569Y-58688393D01*
X153744890Y-58705134D01*
X153772339Y-58727661D01*
X153794866Y-58755110D01*
X153811607Y-58786431D01*
X153821915Y-58820409D01*
X153826000Y-58861890D01*
X153826000Y-59463110D01*
X153821915Y-59504591D01*
X153811607Y-59538569D01*
X153794866Y-59569890D01*
X153772339Y-59597339D01*
X153744890Y-59619866D01*
X153713569Y-59636607D01*
X153679591Y-59646915D01*
X153638110Y-59651000D01*
X152961890Y-59651000D01*
X152920409Y-59646915D01*
X152886431Y-59636607D01*
X152855110Y-59619866D01*
X152827661Y-59597339D01*
X152805134Y-59569890D01*
X152788393Y-59538569D01*
X152778085Y-59504591D01*
X152774000Y-59463110D01*
X152774000Y-58861890D01*
X152778085Y-58820409D01*
X152788393Y-58786431D01*
X152805134Y-58755110D01*
X152827661Y-58727661D01*
X152855110Y-58705134D01*
X152886431Y-58688393D01*
X152920409Y-58678085D01*
X152961890Y-58674000D01*
X153638110Y-58674000D01*
X153679591Y-58678085D01*
X153679591Y-58678085D01*
G37*
G36*
X158679591Y-58628085D02*
G01*
X158713569Y-58638393D01*
X158744890Y-58655134D01*
X158772339Y-58677661D01*
X158794866Y-58705110D01*
X158811607Y-58736431D01*
X158821915Y-58770409D01*
X158826000Y-58811890D01*
X158826000Y-59413110D01*
X158821915Y-59454591D01*
X158811607Y-59488569D01*
X158794866Y-59519890D01*
X158772339Y-59547339D01*
X158744890Y-59569866D01*
X158713569Y-59586607D01*
X158679591Y-59596915D01*
X158638110Y-59601000D01*
X157961890Y-59601000D01*
X157920409Y-59596915D01*
X157886431Y-59586607D01*
X157855110Y-59569866D01*
X157827661Y-59547339D01*
X157805134Y-59519890D01*
X157788393Y-59488569D01*
X157778085Y-59454591D01*
X157774000Y-59413110D01*
X157774000Y-58811890D01*
X157778085Y-58770409D01*
X157788393Y-58736431D01*
X157805134Y-58705110D01*
X157827661Y-58677661D01*
X157855110Y-58655134D01*
X157886431Y-58638393D01*
X157920409Y-58628085D01*
X157961890Y-58624000D01*
X158638110Y-58624000D01*
X158679591Y-58628085D01*
X158679591Y-58628085D01*
G37*
G36*
X112301000Y-59576000D02*
G01*
X111599000Y-59576000D01*
X111599000Y-58424000D01*
X112301000Y-58424000D01*
X112301000Y-59576000D01*
X112301000Y-59576000D01*
G37*
G36*
X114201000Y-59576000D02*
G01*
X113499000Y-59576000D01*
X113499000Y-58424000D01*
X114201000Y-58424000D01*
X114201000Y-59576000D01*
X114201000Y-59576000D01*
G37*
G36*
X148029591Y-58428085D02*
G01*
X148063569Y-58438393D01*
X148094890Y-58455134D01*
X148122339Y-58477661D01*
X148144866Y-58505110D01*
X148161607Y-58536431D01*
X148171915Y-58570409D01*
X148176000Y-58611890D01*
X148176000Y-59213110D01*
X148171915Y-59254591D01*
X148161607Y-59288569D01*
X148144866Y-59319890D01*
X148122339Y-59347339D01*
X148094890Y-59369866D01*
X148063569Y-59386607D01*
X148029591Y-59396915D01*
X147988110Y-59401000D01*
X147311890Y-59401000D01*
X147270409Y-59396915D01*
X147236431Y-59386607D01*
X147205110Y-59369866D01*
X147177661Y-59347339D01*
X147155134Y-59319890D01*
X147138393Y-59288569D01*
X147128085Y-59254591D01*
X147124000Y-59213110D01*
X147124000Y-58611890D01*
X147128085Y-58570409D01*
X147138393Y-58536431D01*
X147155134Y-58505110D01*
X147177661Y-58477661D01*
X147205110Y-58455134D01*
X147236431Y-58438393D01*
X147270409Y-58428085D01*
X147311890Y-58424000D01*
X147988110Y-58424000D01*
X148029591Y-58428085D01*
X148029591Y-58428085D01*
G37*
G36*
X134879591Y-58253085D02*
G01*
X134913569Y-58263393D01*
X134944890Y-58280134D01*
X134972339Y-58302661D01*
X134994866Y-58330110D01*
X135011607Y-58361431D01*
X135021915Y-58395409D01*
X135026000Y-58436890D01*
X135026000Y-59038110D01*
X135021915Y-59079591D01*
X135011607Y-59113569D01*
X134994866Y-59144890D01*
X134972339Y-59172339D01*
X134944890Y-59194866D01*
X134913569Y-59211607D01*
X134879591Y-59221915D01*
X134838110Y-59226000D01*
X134161890Y-59226000D01*
X134120409Y-59221915D01*
X134086431Y-59211607D01*
X134055110Y-59194866D01*
X134027661Y-59172339D01*
X134005134Y-59144890D01*
X133988393Y-59113569D01*
X133978085Y-59079591D01*
X133974000Y-59038110D01*
X133974000Y-58436890D01*
X133978085Y-58395409D01*
X133988393Y-58361431D01*
X134005134Y-58330110D01*
X134027661Y-58302661D01*
X134055110Y-58280134D01*
X134086431Y-58263393D01*
X134120409Y-58253085D01*
X134161890Y-58249000D01*
X134838110Y-58249000D01*
X134879591Y-58253085D01*
X134879591Y-58253085D01*
G37*
G36*
X101851000Y-59151000D02*
G01*
X100499000Y-59151000D01*
X100499000Y-58249000D01*
X101851000Y-58249000D01*
X101851000Y-59151000D01*
X101851000Y-59151000D01*
G37*
G36*
X103501000Y-59151000D02*
G01*
X102149000Y-59151000D01*
X102149000Y-58249000D01*
X103501000Y-58249000D01*
X103501000Y-59151000D01*
X103501000Y-59151000D01*
G37*
G36*
X144489591Y-57693085D02*
G01*
X144523569Y-57703393D01*
X144554890Y-57720134D01*
X144582339Y-57742661D01*
X144604866Y-57770110D01*
X144621607Y-57801431D01*
X144631915Y-57835409D01*
X144636000Y-57876890D01*
X144636000Y-58478110D01*
X144631915Y-58519591D01*
X144621607Y-58553569D01*
X144604866Y-58584890D01*
X144582339Y-58612339D01*
X144554890Y-58634866D01*
X144523569Y-58651607D01*
X144489591Y-58661915D01*
X144448110Y-58666000D01*
X143771890Y-58666000D01*
X143730409Y-58661915D01*
X143696431Y-58651607D01*
X143665110Y-58634866D01*
X143637661Y-58612339D01*
X143615134Y-58584890D01*
X143598393Y-58553569D01*
X143588085Y-58519591D01*
X143584000Y-58478110D01*
X143584000Y-57876890D01*
X143588085Y-57835409D01*
X143598393Y-57801431D01*
X143615134Y-57770110D01*
X143637661Y-57742661D01*
X143665110Y-57720134D01*
X143696431Y-57703393D01*
X143730409Y-57693085D01*
X143771890Y-57689000D01*
X144448110Y-57689000D01*
X144489591Y-57693085D01*
X144489591Y-57693085D01*
G37*
G36*
X134879591Y-56678085D02*
G01*
X134913569Y-56688393D01*
X134944890Y-56705134D01*
X134972339Y-56727661D01*
X134994866Y-56755110D01*
X135011607Y-56786431D01*
X135021915Y-56820409D01*
X135026000Y-56861890D01*
X135026000Y-57463110D01*
X135021915Y-57504591D01*
X135011607Y-57538569D01*
X134994866Y-57569890D01*
X134972339Y-57597339D01*
X134944890Y-57619866D01*
X134913569Y-57636607D01*
X134879591Y-57646915D01*
X134838110Y-57651000D01*
X134161890Y-57651000D01*
X134120409Y-57646915D01*
X134086431Y-57636607D01*
X134055110Y-57619866D01*
X134027661Y-57597339D01*
X134005134Y-57569890D01*
X133988393Y-57538569D01*
X133978085Y-57504591D01*
X133974000Y-57463110D01*
X133974000Y-56861890D01*
X133978085Y-56820409D01*
X133988393Y-56786431D01*
X134005134Y-56755110D01*
X134027661Y-56727661D01*
X134055110Y-56705134D01*
X134086431Y-56688393D01*
X134120409Y-56678085D01*
X134161890Y-56674000D01*
X134838110Y-56674000D01*
X134879591Y-56678085D01*
X134879591Y-56678085D01*
G37*
G36*
X142722798Y-55963247D02*
G01*
X142758367Y-55974037D01*
X142791139Y-55991554D01*
X142819869Y-56015131D01*
X142843446Y-56043861D01*
X142860963Y-56076633D01*
X142871753Y-56112202D01*
X142876000Y-56155325D01*
X142876000Y-57264675D01*
X142871753Y-57307798D01*
X142860963Y-57343367D01*
X142843446Y-57376139D01*
X142819869Y-57404869D01*
X142791139Y-57428446D01*
X142758367Y-57445963D01*
X142722798Y-57456753D01*
X142679675Y-57461000D01*
X141620325Y-57461000D01*
X141577202Y-57456753D01*
X141541633Y-57445963D01*
X141508861Y-57428446D01*
X141480131Y-57404869D01*
X141456554Y-57376139D01*
X141439037Y-57343367D01*
X141428247Y-57307798D01*
X141424000Y-57264675D01*
X141424000Y-56155325D01*
X141428247Y-56112202D01*
X141439037Y-56076633D01*
X141456554Y-56043861D01*
X141480131Y-56015131D01*
X141508861Y-55991554D01*
X141541633Y-55974037D01*
X141577202Y-55963247D01*
X141620325Y-55959000D01*
X142679675Y-55959000D01*
X142722798Y-55963247D01*
X142722798Y-55963247D01*
G37*
G36*
X113251000Y-57376000D02*
G01*
X112549000Y-57376000D01*
X112549000Y-56224000D01*
X113251000Y-56224000D01*
X113251000Y-57376000D01*
X113251000Y-57376000D01*
G37*
G36*
X144489591Y-56118085D02*
G01*
X144523569Y-56128393D01*
X144554890Y-56145134D01*
X144582339Y-56167661D01*
X144604866Y-56195110D01*
X144621607Y-56226431D01*
X144631915Y-56260409D01*
X144636000Y-56301890D01*
X144636000Y-56903110D01*
X144631915Y-56944591D01*
X144621607Y-56978569D01*
X144604866Y-57009890D01*
X144582339Y-57037339D01*
X144554890Y-57059866D01*
X144523569Y-57076607D01*
X144489591Y-57086915D01*
X144448110Y-57091000D01*
X143771890Y-57091000D01*
X143730409Y-57086915D01*
X143696431Y-57076607D01*
X143665110Y-57059866D01*
X143637661Y-57037339D01*
X143615134Y-57009890D01*
X143598393Y-56978569D01*
X143588085Y-56944591D01*
X143584000Y-56903110D01*
X143584000Y-56301890D01*
X143588085Y-56260409D01*
X143598393Y-56226431D01*
X143615134Y-56195110D01*
X143637661Y-56167661D01*
X143665110Y-56145134D01*
X143696431Y-56128393D01*
X143730409Y-56118085D01*
X143771890Y-56114000D01*
X144448110Y-56114000D01*
X144489591Y-56118085D01*
X144489591Y-56118085D01*
G37*
G36*
X164284468Y-56003565D02*
G01*
X164323138Y-56015296D01*
X164358777Y-56034346D01*
X164390017Y-56059983D01*
X164415654Y-56091223D01*
X164434704Y-56126862D01*
X164446435Y-56165532D01*
X164451000Y-56211888D01*
X164451000Y-56863112D01*
X164446435Y-56909468D01*
X164434704Y-56948138D01*
X164415654Y-56983777D01*
X164390017Y-57015017D01*
X164358777Y-57040654D01*
X164323138Y-57059704D01*
X164284468Y-57071435D01*
X164238112Y-57076000D01*
X163161888Y-57076000D01*
X163115532Y-57071435D01*
X163076862Y-57059704D01*
X163041223Y-57040654D01*
X163009983Y-57015017D01*
X162984346Y-56983777D01*
X162965296Y-56948138D01*
X162953565Y-56909468D01*
X162949000Y-56863112D01*
X162949000Y-56211888D01*
X162953565Y-56165532D01*
X162965296Y-56126862D01*
X162984346Y-56091223D01*
X163009983Y-56059983D01*
X163041223Y-56034346D01*
X163076862Y-56015296D01*
X163115532Y-56003565D01*
X163161888Y-55999000D01*
X164238112Y-55999000D01*
X164284468Y-56003565D01*
X164284468Y-56003565D01*
G37*
G36*
X139579468Y-55283565D02*
G01*
X139618138Y-55295296D01*
X139653777Y-55314346D01*
X139685017Y-55339983D01*
X139710654Y-55371223D01*
X139729704Y-55406862D01*
X139741435Y-55445532D01*
X139746000Y-55491888D01*
X139746000Y-56568112D01*
X139741435Y-56614468D01*
X139729704Y-56653138D01*
X139710654Y-56688777D01*
X139685017Y-56720017D01*
X139653777Y-56745654D01*
X139618138Y-56764704D01*
X139579468Y-56776435D01*
X139533112Y-56781000D01*
X138881888Y-56781000D01*
X138835532Y-56776435D01*
X138796862Y-56764704D01*
X138761223Y-56745654D01*
X138729983Y-56720017D01*
X138704346Y-56688777D01*
X138685296Y-56653138D01*
X138673565Y-56614468D01*
X138669000Y-56568112D01*
X138669000Y-55491888D01*
X138673565Y-55445532D01*
X138685296Y-55406862D01*
X138704346Y-55371223D01*
X138729983Y-55339983D01*
X138761223Y-55314346D01*
X138796862Y-55295296D01*
X138835532Y-55283565D01*
X138881888Y-55279000D01*
X139533112Y-55279000D01*
X139579468Y-55283565D01*
X139579468Y-55283565D01*
G37*
G36*
X137704468Y-55283565D02*
G01*
X137743138Y-55295296D01*
X137778777Y-55314346D01*
X137810017Y-55339983D01*
X137835654Y-55371223D01*
X137854704Y-55406862D01*
X137866435Y-55445532D01*
X137871000Y-55491888D01*
X137871000Y-56568112D01*
X137866435Y-56614468D01*
X137854704Y-56653138D01*
X137835654Y-56688777D01*
X137810017Y-56720017D01*
X137778777Y-56745654D01*
X137743138Y-56764704D01*
X137704468Y-56776435D01*
X137658112Y-56781000D01*
X137006888Y-56781000D01*
X136960532Y-56776435D01*
X136921862Y-56764704D01*
X136886223Y-56745654D01*
X136854983Y-56720017D01*
X136829346Y-56688777D01*
X136810296Y-56653138D01*
X136798565Y-56614468D01*
X136794000Y-56568112D01*
X136794000Y-55491888D01*
X136798565Y-55445532D01*
X136810296Y-55406862D01*
X136829346Y-55371223D01*
X136854983Y-55339983D01*
X136886223Y-55314346D01*
X136921862Y-55295296D01*
X136960532Y-55283565D01*
X137006888Y-55279000D01*
X137658112Y-55279000D01*
X137704468Y-55283565D01*
X137704468Y-55283565D01*
G37*
G36*
X123923642Y-55179781D02*
G01*
X124069414Y-55240162D01*
X124069416Y-55240163D01*
X124200608Y-55327822D01*
X124312178Y-55439392D01*
X124384914Y-55548250D01*
X124399838Y-55570586D01*
X124460219Y-55716358D01*
X124491000Y-55871107D01*
X124491000Y-56028893D01*
X124460219Y-56183642D01*
X124428421Y-56260409D01*
X124399837Y-56329416D01*
X124312178Y-56460608D01*
X124200608Y-56572178D01*
X124069416Y-56659837D01*
X124069415Y-56659838D01*
X124069414Y-56659838D01*
X123923642Y-56720219D01*
X123768893Y-56751000D01*
X123611107Y-56751000D01*
X123456358Y-56720219D01*
X123310586Y-56659838D01*
X123310585Y-56659838D01*
X123310584Y-56659837D01*
X123179392Y-56572178D01*
X123067822Y-56460608D01*
X122980163Y-56329416D01*
X122951579Y-56260409D01*
X122919781Y-56183642D01*
X122889000Y-56028893D01*
X122889000Y-55871107D01*
X122919781Y-55716358D01*
X122980162Y-55570586D01*
X122995086Y-55548250D01*
X123067822Y-55439392D01*
X123179392Y-55327822D01*
X123310584Y-55240163D01*
X123310586Y-55240162D01*
X123456358Y-55179781D01*
X123611107Y-55149000D01*
X123768893Y-55149000D01*
X123923642Y-55179781D01*
X123923642Y-55179781D01*
G37*
G36*
X116303642Y-55179781D02*
G01*
X116449414Y-55240162D01*
X116449416Y-55240163D01*
X116580608Y-55327822D01*
X116692178Y-55439392D01*
X116764914Y-55548250D01*
X116779838Y-55570586D01*
X116840219Y-55716358D01*
X116871000Y-55871107D01*
X116871000Y-56028893D01*
X116840219Y-56183642D01*
X116808421Y-56260409D01*
X116779837Y-56329416D01*
X116692178Y-56460608D01*
X116580608Y-56572178D01*
X116449416Y-56659837D01*
X116449415Y-56659838D01*
X116449414Y-56659838D01*
X116303642Y-56720219D01*
X116148893Y-56751000D01*
X115991107Y-56751000D01*
X115836358Y-56720219D01*
X115690586Y-56659838D01*
X115690585Y-56659838D01*
X115690584Y-56659837D01*
X115559392Y-56572178D01*
X115447822Y-56460608D01*
X115360163Y-56329416D01*
X115331579Y-56260409D01*
X115299781Y-56183642D01*
X115269000Y-56028893D01*
X115269000Y-55871107D01*
X115299781Y-55716358D01*
X115360162Y-55570586D01*
X115375086Y-55548250D01*
X115447822Y-55439392D01*
X115559392Y-55327822D01*
X115690584Y-55240163D01*
X115690586Y-55240162D01*
X115836358Y-55179781D01*
X115991107Y-55149000D01*
X116148893Y-55149000D01*
X116303642Y-55179781D01*
X116303642Y-55179781D01*
G37*
G36*
X118843642Y-55179781D02*
G01*
X118989414Y-55240162D01*
X118989416Y-55240163D01*
X119120608Y-55327822D01*
X119232178Y-55439392D01*
X119304914Y-55548250D01*
X119319838Y-55570586D01*
X119380219Y-55716358D01*
X119411000Y-55871107D01*
X119411000Y-56028893D01*
X119380219Y-56183642D01*
X119348421Y-56260409D01*
X119319837Y-56329416D01*
X119232178Y-56460608D01*
X119120608Y-56572178D01*
X118989416Y-56659837D01*
X118989415Y-56659838D01*
X118989414Y-56659838D01*
X118843642Y-56720219D01*
X118688893Y-56751000D01*
X118531107Y-56751000D01*
X118376358Y-56720219D01*
X118230586Y-56659838D01*
X118230585Y-56659838D01*
X118230584Y-56659837D01*
X118099392Y-56572178D01*
X117987822Y-56460608D01*
X117900163Y-56329416D01*
X117871579Y-56260409D01*
X117839781Y-56183642D01*
X117809000Y-56028893D01*
X117809000Y-55871107D01*
X117839781Y-55716358D01*
X117900162Y-55570586D01*
X117915086Y-55548250D01*
X117987822Y-55439392D01*
X118099392Y-55327822D01*
X118230584Y-55240163D01*
X118230586Y-55240162D01*
X118376358Y-55179781D01*
X118531107Y-55149000D01*
X118688893Y-55149000D01*
X118843642Y-55179781D01*
X118843642Y-55179781D01*
G37*
G36*
X121383642Y-55179781D02*
G01*
X121529414Y-55240162D01*
X121529416Y-55240163D01*
X121660608Y-55327822D01*
X121772178Y-55439392D01*
X121844914Y-55548250D01*
X121859838Y-55570586D01*
X121920219Y-55716358D01*
X121951000Y-55871107D01*
X121951000Y-56028893D01*
X121920219Y-56183642D01*
X121888421Y-56260409D01*
X121859837Y-56329416D01*
X121772178Y-56460608D01*
X121660608Y-56572178D01*
X121529416Y-56659837D01*
X121529415Y-56659838D01*
X121529414Y-56659838D01*
X121383642Y-56720219D01*
X121228893Y-56751000D01*
X121071107Y-56751000D01*
X120916358Y-56720219D01*
X120770586Y-56659838D01*
X120770585Y-56659838D01*
X120770584Y-56659837D01*
X120639392Y-56572178D01*
X120527822Y-56460608D01*
X120440163Y-56329416D01*
X120411579Y-56260409D01*
X120379781Y-56183642D01*
X120349000Y-56028893D01*
X120349000Y-55871107D01*
X120379781Y-55716358D01*
X120440162Y-55570586D01*
X120455086Y-55548250D01*
X120527822Y-55439392D01*
X120639392Y-55327822D01*
X120770584Y-55240163D01*
X120770586Y-55240162D01*
X120916358Y-55179781D01*
X121071107Y-55149000D01*
X121228893Y-55149000D01*
X121383642Y-55179781D01*
X121383642Y-55179781D01*
G37*
G36*
X126463642Y-55179781D02*
G01*
X126609414Y-55240162D01*
X126609416Y-55240163D01*
X126740608Y-55327822D01*
X126852178Y-55439392D01*
X126924914Y-55548250D01*
X126939838Y-55570586D01*
X127000219Y-55716358D01*
X127031000Y-55871107D01*
X127031000Y-56028893D01*
X127000219Y-56183642D01*
X126968421Y-56260409D01*
X126939837Y-56329416D01*
X126852178Y-56460608D01*
X126740608Y-56572178D01*
X126609416Y-56659837D01*
X126609415Y-56659838D01*
X126609414Y-56659838D01*
X126463642Y-56720219D01*
X126308893Y-56751000D01*
X126151107Y-56751000D01*
X125996358Y-56720219D01*
X125850586Y-56659838D01*
X125850585Y-56659838D01*
X125850584Y-56659837D01*
X125719392Y-56572178D01*
X125607822Y-56460608D01*
X125520163Y-56329416D01*
X125491579Y-56260409D01*
X125459781Y-56183642D01*
X125429000Y-56028893D01*
X125429000Y-55871107D01*
X125459781Y-55716358D01*
X125520162Y-55570586D01*
X125535086Y-55548250D01*
X125607822Y-55439392D01*
X125719392Y-55327822D01*
X125850584Y-55240163D01*
X125850586Y-55240162D01*
X125996358Y-55179781D01*
X126151107Y-55149000D01*
X126308893Y-55149000D01*
X126463642Y-55179781D01*
X126463642Y-55179781D01*
G37*
G36*
X101063642Y-55179781D02*
G01*
X101209414Y-55240162D01*
X101209416Y-55240163D01*
X101340608Y-55327822D01*
X101452178Y-55439392D01*
X101524914Y-55548250D01*
X101539838Y-55570586D01*
X101600219Y-55716358D01*
X101631000Y-55871107D01*
X101631000Y-56028893D01*
X101600219Y-56183642D01*
X101568421Y-56260409D01*
X101539837Y-56329416D01*
X101452178Y-56460608D01*
X101340608Y-56572178D01*
X101209416Y-56659837D01*
X101209415Y-56659838D01*
X101209414Y-56659838D01*
X101063642Y-56720219D01*
X100908893Y-56751000D01*
X100751107Y-56751000D01*
X100596358Y-56720219D01*
X100450586Y-56659838D01*
X100450585Y-56659838D01*
X100450584Y-56659837D01*
X100319392Y-56572178D01*
X100207822Y-56460608D01*
X100120163Y-56329416D01*
X100091579Y-56260409D01*
X100059781Y-56183642D01*
X100029000Y-56028893D01*
X100029000Y-55871107D01*
X100059781Y-55716358D01*
X100120162Y-55570586D01*
X100135086Y-55548250D01*
X100207822Y-55439392D01*
X100319392Y-55327822D01*
X100450584Y-55240163D01*
X100450586Y-55240162D01*
X100596358Y-55179781D01*
X100751107Y-55149000D01*
X100908893Y-55149000D01*
X101063642Y-55179781D01*
X101063642Y-55179781D01*
G37*
G36*
X103603642Y-55179781D02*
G01*
X103749414Y-55240162D01*
X103749416Y-55240163D01*
X103880608Y-55327822D01*
X103992178Y-55439392D01*
X104064914Y-55548250D01*
X104079838Y-55570586D01*
X104140219Y-55716358D01*
X104171000Y-55871107D01*
X104171000Y-56028893D01*
X104140219Y-56183642D01*
X104108421Y-56260409D01*
X104079837Y-56329416D01*
X103992178Y-56460608D01*
X103880608Y-56572178D01*
X103749416Y-56659837D01*
X103749415Y-56659838D01*
X103749414Y-56659838D01*
X103603642Y-56720219D01*
X103448893Y-56751000D01*
X103291107Y-56751000D01*
X103136358Y-56720219D01*
X102990586Y-56659838D01*
X102990585Y-56659838D01*
X102990584Y-56659837D01*
X102859392Y-56572178D01*
X102747822Y-56460608D01*
X102660163Y-56329416D01*
X102631579Y-56260409D01*
X102599781Y-56183642D01*
X102569000Y-56028893D01*
X102569000Y-55871107D01*
X102599781Y-55716358D01*
X102660162Y-55570586D01*
X102675086Y-55548250D01*
X102747822Y-55439392D01*
X102859392Y-55327822D01*
X102990584Y-55240163D01*
X102990586Y-55240162D01*
X103136358Y-55179781D01*
X103291107Y-55149000D01*
X103448893Y-55149000D01*
X103603642Y-55179781D01*
X103603642Y-55179781D01*
G37*
G36*
X106143642Y-55179781D02*
G01*
X106289414Y-55240162D01*
X106289416Y-55240163D01*
X106420608Y-55327822D01*
X106532178Y-55439392D01*
X106604914Y-55548250D01*
X106619838Y-55570586D01*
X106680219Y-55716358D01*
X106711000Y-55871107D01*
X106711000Y-56028893D01*
X106680219Y-56183642D01*
X106648421Y-56260409D01*
X106619837Y-56329416D01*
X106532178Y-56460608D01*
X106420608Y-56572178D01*
X106289416Y-56659837D01*
X106289415Y-56659838D01*
X106289414Y-56659838D01*
X106143642Y-56720219D01*
X105988893Y-56751000D01*
X105831107Y-56751000D01*
X105676358Y-56720219D01*
X105530586Y-56659838D01*
X105530585Y-56659838D01*
X105530584Y-56659837D01*
X105399392Y-56572178D01*
X105287822Y-56460608D01*
X105200163Y-56329416D01*
X105171579Y-56260409D01*
X105139781Y-56183642D01*
X105109000Y-56028893D01*
X105109000Y-55871107D01*
X105139781Y-55716358D01*
X105200162Y-55570586D01*
X105215086Y-55548250D01*
X105287822Y-55439392D01*
X105399392Y-55327822D01*
X105530584Y-55240163D01*
X105530586Y-55240162D01*
X105676358Y-55179781D01*
X105831107Y-55149000D01*
X105988893Y-55149000D01*
X106143642Y-55179781D01*
X106143642Y-55179781D01*
G37*
G36*
X98523642Y-55179781D02*
G01*
X98669414Y-55240162D01*
X98669416Y-55240163D01*
X98800608Y-55327822D01*
X98912178Y-55439392D01*
X98984914Y-55548250D01*
X98999838Y-55570586D01*
X99060219Y-55716358D01*
X99091000Y-55871107D01*
X99091000Y-56028893D01*
X99060219Y-56183642D01*
X99028421Y-56260409D01*
X98999837Y-56329416D01*
X98912178Y-56460608D01*
X98800608Y-56572178D01*
X98669416Y-56659837D01*
X98669415Y-56659838D01*
X98669414Y-56659838D01*
X98523642Y-56720219D01*
X98368893Y-56751000D01*
X98211107Y-56751000D01*
X98056358Y-56720219D01*
X97910586Y-56659838D01*
X97910585Y-56659838D01*
X97910584Y-56659837D01*
X97779392Y-56572178D01*
X97667822Y-56460608D01*
X97580163Y-56329416D01*
X97551579Y-56260409D01*
X97519781Y-56183642D01*
X97489000Y-56028893D01*
X97489000Y-55871107D01*
X97519781Y-55716358D01*
X97580162Y-55570586D01*
X97595086Y-55548250D01*
X97667822Y-55439392D01*
X97779392Y-55327822D01*
X97910584Y-55240163D01*
X97910586Y-55240162D01*
X98056358Y-55179781D01*
X98211107Y-55149000D01*
X98368893Y-55149000D01*
X98523642Y-55179781D01*
X98523642Y-55179781D01*
G37*
G36*
X95983642Y-55179781D02*
G01*
X96129414Y-55240162D01*
X96129416Y-55240163D01*
X96260608Y-55327822D01*
X96372178Y-55439392D01*
X96444914Y-55548250D01*
X96459838Y-55570586D01*
X96520219Y-55716358D01*
X96551000Y-55871107D01*
X96551000Y-56028893D01*
X96520219Y-56183642D01*
X96488421Y-56260409D01*
X96459837Y-56329416D01*
X96372178Y-56460608D01*
X96260608Y-56572178D01*
X96129416Y-56659837D01*
X96129415Y-56659838D01*
X96129414Y-56659838D01*
X95983642Y-56720219D01*
X95828893Y-56751000D01*
X95671107Y-56751000D01*
X95516358Y-56720219D01*
X95370586Y-56659838D01*
X95370585Y-56659838D01*
X95370584Y-56659837D01*
X95239392Y-56572178D01*
X95127822Y-56460608D01*
X95040163Y-56329416D01*
X95011579Y-56260409D01*
X94979781Y-56183642D01*
X94949000Y-56028893D01*
X94949000Y-55871107D01*
X94979781Y-55716358D01*
X95040162Y-55570586D01*
X95055086Y-55548250D01*
X95127822Y-55439392D01*
X95239392Y-55327822D01*
X95370584Y-55240163D01*
X95370586Y-55240162D01*
X95516358Y-55179781D01*
X95671107Y-55149000D01*
X95828893Y-55149000D01*
X95983642Y-55179781D01*
X95983642Y-55179781D01*
G37*
G36*
X159906564Y-54039389D02*
G01*
X160097833Y-54118615D01*
X160097835Y-54118616D01*
X160173804Y-54169377D01*
X160269973Y-54233635D01*
X160416365Y-54380027D01*
X160531385Y-54552167D01*
X160610611Y-54743436D01*
X160651000Y-54946484D01*
X160651000Y-55153516D01*
X160610611Y-55356564D01*
X160576302Y-55439393D01*
X160531384Y-55547835D01*
X160416365Y-55719973D01*
X160269973Y-55866365D01*
X160097835Y-55981384D01*
X160097834Y-55981385D01*
X160097833Y-55981385D01*
X159906564Y-56060611D01*
X159703516Y-56101000D01*
X159496484Y-56101000D01*
X159293436Y-56060611D01*
X159102167Y-55981385D01*
X159102166Y-55981385D01*
X159102165Y-55981384D01*
X158930027Y-55866365D01*
X158783635Y-55719973D01*
X158668616Y-55547835D01*
X158623698Y-55439393D01*
X158589389Y-55356564D01*
X158549000Y-55153516D01*
X158549000Y-54946484D01*
X158589389Y-54743436D01*
X158668615Y-54552167D01*
X158783635Y-54380027D01*
X158930027Y-54233635D01*
X159026196Y-54169377D01*
X159102165Y-54118616D01*
X159102167Y-54118615D01*
X159293436Y-54039389D01*
X159496484Y-53999000D01*
X159703516Y-53999000D01*
X159906564Y-54039389D01*
X159906564Y-54039389D01*
G37*
G36*
X150651000Y-56101000D02*
G01*
X148549000Y-56101000D01*
X148549000Y-53999000D01*
X150651000Y-53999000D01*
X150651000Y-56101000D01*
X150651000Y-56101000D01*
G37*
G36*
X164284468Y-54128565D02*
G01*
X164323138Y-54140296D01*
X164358777Y-54159346D01*
X164390017Y-54184983D01*
X164415654Y-54216223D01*
X164434704Y-54251862D01*
X164446435Y-54290532D01*
X164451000Y-54336888D01*
X164451000Y-54988112D01*
X164446435Y-55034468D01*
X164434704Y-55073138D01*
X164415654Y-55108777D01*
X164390017Y-55140017D01*
X164358777Y-55165654D01*
X164323138Y-55184704D01*
X164284468Y-55196435D01*
X164238112Y-55201000D01*
X163161888Y-55201000D01*
X163115532Y-55196435D01*
X163076862Y-55184704D01*
X163041223Y-55165654D01*
X163009983Y-55140017D01*
X162984346Y-55108777D01*
X162965296Y-55073138D01*
X162953565Y-55034468D01*
X162949000Y-54988112D01*
X162949000Y-54336888D01*
X162953565Y-54290532D01*
X162965296Y-54251862D01*
X162984346Y-54216223D01*
X163009983Y-54184983D01*
X163041223Y-54159346D01*
X163076862Y-54140296D01*
X163115532Y-54128565D01*
X163161888Y-54124000D01*
X164238112Y-54124000D01*
X164284468Y-54128565D01*
X164284468Y-54128565D01*
G37*
G36*
X131279591Y-52703085D02*
G01*
X131313569Y-52713393D01*
X131344890Y-52730134D01*
X131372339Y-52752661D01*
X131394866Y-52780110D01*
X131411607Y-52811431D01*
X131421915Y-52845409D01*
X131426000Y-52886890D01*
X131426000Y-53488110D01*
X131421915Y-53529591D01*
X131411607Y-53563569D01*
X131394866Y-53594890D01*
X131372339Y-53622339D01*
X131344890Y-53644866D01*
X131313569Y-53661607D01*
X131279591Y-53671915D01*
X131238110Y-53676000D01*
X130561890Y-53676000D01*
X130520409Y-53671915D01*
X130486431Y-53661607D01*
X130455110Y-53644866D01*
X130427661Y-53622339D01*
X130405134Y-53594890D01*
X130388393Y-53563569D01*
X130378085Y-53529591D01*
X130374000Y-53488110D01*
X130374000Y-52886890D01*
X130378085Y-52845409D01*
X130388393Y-52811431D01*
X130405134Y-52780110D01*
X130427661Y-52752661D01*
X130455110Y-52730134D01*
X130486431Y-52713393D01*
X130520409Y-52703085D01*
X130561890Y-52699000D01*
X131238110Y-52699000D01*
X131279591Y-52703085D01*
X131279591Y-52703085D01*
G37*
G36*
X153354591Y-52478085D02*
G01*
X153388569Y-52488393D01*
X153419890Y-52505134D01*
X153447339Y-52527661D01*
X153469866Y-52555110D01*
X153486607Y-52586431D01*
X153496915Y-52620409D01*
X153501000Y-52661890D01*
X153501000Y-53338110D01*
X153496915Y-53379591D01*
X153486607Y-53413569D01*
X153469866Y-53444890D01*
X153447339Y-53472339D01*
X153419890Y-53494866D01*
X153388569Y-53511607D01*
X153354591Y-53521915D01*
X153313110Y-53526000D01*
X152711890Y-53526000D01*
X152670409Y-53521915D01*
X152636431Y-53511607D01*
X152605110Y-53494866D01*
X152577661Y-53472339D01*
X152555134Y-53444890D01*
X152538393Y-53413569D01*
X152528085Y-53379591D01*
X152524000Y-53338110D01*
X152524000Y-52661890D01*
X152528085Y-52620409D01*
X152538393Y-52586431D01*
X152555134Y-52555110D01*
X152577661Y-52527661D01*
X152605110Y-52505134D01*
X152636431Y-52488393D01*
X152670409Y-52478085D01*
X152711890Y-52474000D01*
X153313110Y-52474000D01*
X153354591Y-52478085D01*
X153354591Y-52478085D01*
G37*
G36*
X154929591Y-52478085D02*
G01*
X154963569Y-52488393D01*
X154994890Y-52505134D01*
X155022339Y-52527661D01*
X155044866Y-52555110D01*
X155061607Y-52586431D01*
X155071915Y-52620409D01*
X155076000Y-52661890D01*
X155076000Y-53338110D01*
X155071915Y-53379591D01*
X155061607Y-53413569D01*
X155044866Y-53444890D01*
X155022339Y-53472339D01*
X154994890Y-53494866D01*
X154963569Y-53511607D01*
X154929591Y-53521915D01*
X154888110Y-53526000D01*
X154286890Y-53526000D01*
X154245409Y-53521915D01*
X154211431Y-53511607D01*
X154180110Y-53494866D01*
X154152661Y-53472339D01*
X154130134Y-53444890D01*
X154113393Y-53413569D01*
X154103085Y-53379591D01*
X154099000Y-53338110D01*
X154099000Y-52661890D01*
X154103085Y-52620409D01*
X154113393Y-52586431D01*
X154130134Y-52555110D01*
X154152661Y-52527661D01*
X154180110Y-52505134D01*
X154211431Y-52488393D01*
X154245409Y-52478085D01*
X154286890Y-52474000D01*
X154888110Y-52474000D01*
X154929591Y-52478085D01*
X154929591Y-52478085D01*
G37*
G36*
X134006564Y-50539389D02*
G01*
X134163662Y-50604461D01*
X134197835Y-50618616D01*
X134369973Y-50733635D01*
X134516365Y-50880027D01*
X134561672Y-50947833D01*
X134631385Y-51052167D01*
X134710611Y-51243436D01*
X134751000Y-51446484D01*
X134751000Y-51653516D01*
X134710611Y-51856564D01*
X134631385Y-52047833D01*
X134631384Y-52047835D01*
X134516365Y-52219973D01*
X134369973Y-52366365D01*
X134197835Y-52481384D01*
X134197834Y-52481385D01*
X134197833Y-52481385D01*
X134006564Y-52560611D01*
X133803516Y-52601000D01*
X133596484Y-52601000D01*
X133393436Y-52560611D01*
X133202167Y-52481385D01*
X133202166Y-52481385D01*
X133202165Y-52481384D01*
X133030027Y-52366365D01*
X132883635Y-52219973D01*
X132768616Y-52047835D01*
X132768615Y-52047833D01*
X132689389Y-51856564D01*
X132649000Y-51653516D01*
X132649000Y-51446484D01*
X132689389Y-51243436D01*
X132768615Y-51052167D01*
X132838329Y-50947833D01*
X132883635Y-50880027D01*
X133030027Y-50733635D01*
X133202165Y-50618616D01*
X133236338Y-50604461D01*
X133393436Y-50539389D01*
X133596484Y-50499000D01*
X133803516Y-50499000D01*
X134006564Y-50539389D01*
X134006564Y-50539389D01*
G37*
G36*
X139606564Y-50539389D02*
G01*
X139763662Y-50604461D01*
X139797835Y-50618616D01*
X139969973Y-50733635D01*
X140116365Y-50880027D01*
X140161672Y-50947833D01*
X140231385Y-51052167D01*
X140310611Y-51243436D01*
X140351000Y-51446484D01*
X140351000Y-51653516D01*
X140310611Y-51856564D01*
X140231385Y-52047833D01*
X140231384Y-52047835D01*
X140116365Y-52219973D01*
X139969973Y-52366365D01*
X139797835Y-52481384D01*
X139797834Y-52481385D01*
X139797833Y-52481385D01*
X139606564Y-52560611D01*
X139403516Y-52601000D01*
X139196484Y-52601000D01*
X138993436Y-52560611D01*
X138802167Y-52481385D01*
X138802166Y-52481385D01*
X138802165Y-52481384D01*
X138630027Y-52366365D01*
X138483635Y-52219973D01*
X138368616Y-52047835D01*
X138368615Y-52047833D01*
X138289389Y-51856564D01*
X138249000Y-51653516D01*
X138249000Y-51446484D01*
X138289389Y-51243436D01*
X138368615Y-51052167D01*
X138438329Y-50947833D01*
X138483635Y-50880027D01*
X138630027Y-50733635D01*
X138802165Y-50618616D01*
X138836338Y-50604461D01*
X138993436Y-50539389D01*
X139196484Y-50499000D01*
X139403516Y-50499000D01*
X139606564Y-50539389D01*
X139606564Y-50539389D01*
G37*
G36*
X136748228Y-50731703D02*
G01*
X136903100Y-50795853D01*
X137042481Y-50888985D01*
X137161015Y-51007519D01*
X137254147Y-51146900D01*
X137318297Y-51301772D01*
X137351000Y-51466184D01*
X137351000Y-51633816D01*
X137318297Y-51798228D01*
X137254147Y-51953100D01*
X137161015Y-52092481D01*
X137042481Y-52211015D01*
X136903100Y-52304147D01*
X136748228Y-52368297D01*
X136583816Y-52401000D01*
X136416184Y-52401000D01*
X136251772Y-52368297D01*
X136096900Y-52304147D01*
X135957519Y-52211015D01*
X135838985Y-52092481D01*
X135745853Y-51953100D01*
X135681703Y-51798228D01*
X135649000Y-51633816D01*
X135649000Y-51466184D01*
X135681703Y-51301772D01*
X135745853Y-51146900D01*
X135838985Y-51007519D01*
X135957519Y-50888985D01*
X136096900Y-50795853D01*
X136251772Y-50731703D01*
X136416184Y-50699000D01*
X136583816Y-50699000D01*
X136748228Y-50731703D01*
X136748228Y-50731703D01*
G37*
G36*
X131279591Y-51128085D02*
G01*
X131313569Y-51138393D01*
X131344890Y-51155134D01*
X131372339Y-51177661D01*
X131394866Y-51205110D01*
X131411607Y-51236431D01*
X131421915Y-51270409D01*
X131426000Y-51311890D01*
X131426000Y-51913110D01*
X131421915Y-51954591D01*
X131411607Y-51988569D01*
X131394866Y-52019890D01*
X131372339Y-52047339D01*
X131344890Y-52069866D01*
X131313569Y-52086607D01*
X131279591Y-52096915D01*
X131238110Y-52101000D01*
X130561890Y-52101000D01*
X130520409Y-52096915D01*
X130486431Y-52086607D01*
X130455110Y-52069866D01*
X130427661Y-52047339D01*
X130405134Y-52019890D01*
X130388393Y-51988569D01*
X130378085Y-51954591D01*
X130374000Y-51913110D01*
X130374000Y-51311890D01*
X130378085Y-51270409D01*
X130388393Y-51236431D01*
X130405134Y-51205110D01*
X130427661Y-51177661D01*
X130455110Y-51155134D01*
X130486431Y-51138393D01*
X130520409Y-51128085D01*
X130561890Y-51124000D01*
X131238110Y-51124000D01*
X131279591Y-51128085D01*
X131279591Y-51128085D01*
G37*
G36*
X98656564Y-49439389D02*
G01*
X98847833Y-49518615D01*
X98847835Y-49518616D01*
X98992527Y-49615296D01*
X99019973Y-49633635D01*
X99166365Y-49780027D01*
X99281385Y-49952167D01*
X99360611Y-50143436D01*
X99401000Y-50346484D01*
X99401000Y-50553516D01*
X99360611Y-50756564D01*
X99286921Y-50934468D01*
X99281384Y-50947835D01*
X99166365Y-51119973D01*
X99019973Y-51266365D01*
X98847835Y-51381384D01*
X98847834Y-51381385D01*
X98847833Y-51381385D01*
X98656564Y-51460611D01*
X98453516Y-51501000D01*
X98246484Y-51501000D01*
X98043436Y-51460611D01*
X97852167Y-51381385D01*
X97852166Y-51381385D01*
X97852165Y-51381384D01*
X97680027Y-51266365D01*
X97533635Y-51119973D01*
X97418616Y-50947835D01*
X97413079Y-50934468D01*
X97339389Y-50756564D01*
X97299000Y-50553516D01*
X97299000Y-50346484D01*
X97339389Y-50143436D01*
X97418615Y-49952167D01*
X97533635Y-49780027D01*
X97680027Y-49633635D01*
X97707473Y-49615296D01*
X97852165Y-49518616D01*
X97852167Y-49518615D01*
X98043436Y-49439389D01*
X98246484Y-49399000D01*
X98453516Y-49399000D01*
X98656564Y-49439389D01*
X98656564Y-49439389D01*
G37*
G36*
X102056564Y-49439389D02*
G01*
X102247833Y-49518615D01*
X102247835Y-49518616D01*
X102392527Y-49615296D01*
X102419973Y-49633635D01*
X102566365Y-49780027D01*
X102681385Y-49952167D01*
X102760611Y-50143436D01*
X102801000Y-50346484D01*
X102801000Y-50553516D01*
X102760611Y-50756564D01*
X102686921Y-50934468D01*
X102681384Y-50947835D01*
X102566365Y-51119973D01*
X102419973Y-51266365D01*
X102247835Y-51381384D01*
X102247834Y-51381385D01*
X102247833Y-51381385D01*
X102056564Y-51460611D01*
X101853516Y-51501000D01*
X101646484Y-51501000D01*
X101443436Y-51460611D01*
X101252167Y-51381385D01*
X101252166Y-51381385D01*
X101252165Y-51381384D01*
X101080027Y-51266365D01*
X100933635Y-51119973D01*
X100818616Y-50947835D01*
X100813079Y-50934468D01*
X100739389Y-50756564D01*
X100699000Y-50553516D01*
X100699000Y-50346484D01*
X100739389Y-50143436D01*
X100818615Y-49952167D01*
X100933635Y-49780027D01*
X101080027Y-49633635D01*
X101107473Y-49615296D01*
X101252165Y-49518616D01*
X101252167Y-49518615D01*
X101443436Y-49439389D01*
X101646484Y-49399000D01*
X101853516Y-49399000D01*
X102056564Y-49439389D01*
X102056564Y-49439389D01*
G37*
G36*
X108556564Y-49439389D02*
G01*
X108747833Y-49518615D01*
X108747835Y-49518616D01*
X108892527Y-49615296D01*
X108919973Y-49633635D01*
X109066365Y-49780027D01*
X109181385Y-49952167D01*
X109260611Y-50143436D01*
X109301000Y-50346484D01*
X109301000Y-50553516D01*
X109260611Y-50756564D01*
X109186921Y-50934468D01*
X109181384Y-50947835D01*
X109066365Y-51119973D01*
X108919973Y-51266365D01*
X108747835Y-51381384D01*
X108747834Y-51381385D01*
X108747833Y-51381385D01*
X108556564Y-51460611D01*
X108353516Y-51501000D01*
X108146484Y-51501000D01*
X107943436Y-51460611D01*
X107752167Y-51381385D01*
X107752166Y-51381385D01*
X107752165Y-51381384D01*
X107580027Y-51266365D01*
X107433635Y-51119973D01*
X107318616Y-50947835D01*
X107313079Y-50934468D01*
X107239389Y-50756564D01*
X107199000Y-50553516D01*
X107199000Y-50346484D01*
X107239389Y-50143436D01*
X107318615Y-49952167D01*
X107433635Y-49780027D01*
X107580027Y-49633635D01*
X107607473Y-49615296D01*
X107752165Y-49518616D01*
X107752167Y-49518615D01*
X107943436Y-49439389D01*
X108146484Y-49399000D01*
X108353516Y-49399000D01*
X108556564Y-49439389D01*
X108556564Y-49439389D01*
G37*
G36*
X92156564Y-49439389D02*
G01*
X92347833Y-49518615D01*
X92347835Y-49518616D01*
X92492527Y-49615296D01*
X92519973Y-49633635D01*
X92666365Y-49780027D01*
X92781385Y-49952167D01*
X92860611Y-50143436D01*
X92901000Y-50346484D01*
X92901000Y-50553516D01*
X92860611Y-50756564D01*
X92786921Y-50934468D01*
X92781384Y-50947835D01*
X92666365Y-51119973D01*
X92519973Y-51266365D01*
X92347835Y-51381384D01*
X92347834Y-51381385D01*
X92347833Y-51381385D01*
X92156564Y-51460611D01*
X91953516Y-51501000D01*
X91746484Y-51501000D01*
X91543436Y-51460611D01*
X91352167Y-51381385D01*
X91352166Y-51381385D01*
X91352165Y-51381384D01*
X91180027Y-51266365D01*
X91033635Y-51119973D01*
X90918616Y-50947835D01*
X90913079Y-50934468D01*
X90839389Y-50756564D01*
X90799000Y-50553516D01*
X90799000Y-50346484D01*
X90839389Y-50143436D01*
X90918615Y-49952167D01*
X91033635Y-49780027D01*
X91180027Y-49633635D01*
X91207473Y-49615296D01*
X91352165Y-49518616D01*
X91352167Y-49518615D01*
X91543436Y-49439389D01*
X91746484Y-49399000D01*
X91953516Y-49399000D01*
X92156564Y-49439389D01*
X92156564Y-49439389D01*
G37*
G36*
X118456564Y-49439389D02*
G01*
X118647833Y-49518615D01*
X118647835Y-49518616D01*
X118792527Y-49615296D01*
X118819973Y-49633635D01*
X118966365Y-49780027D01*
X119081385Y-49952167D01*
X119160611Y-50143436D01*
X119201000Y-50346484D01*
X119201000Y-50553516D01*
X119160611Y-50756564D01*
X119086921Y-50934468D01*
X119081384Y-50947835D01*
X118966365Y-51119973D01*
X118819973Y-51266365D01*
X118647835Y-51381384D01*
X118647834Y-51381385D01*
X118647833Y-51381385D01*
X118456564Y-51460611D01*
X118253516Y-51501000D01*
X118046484Y-51501000D01*
X117843436Y-51460611D01*
X117652167Y-51381385D01*
X117652166Y-51381385D01*
X117652165Y-51381384D01*
X117480027Y-51266365D01*
X117333635Y-51119973D01*
X117218616Y-50947835D01*
X117213079Y-50934468D01*
X117139389Y-50756564D01*
X117099000Y-50553516D01*
X117099000Y-50346484D01*
X117139389Y-50143436D01*
X117218615Y-49952167D01*
X117333635Y-49780027D01*
X117480027Y-49633635D01*
X117507473Y-49615296D01*
X117652165Y-49518616D01*
X117652167Y-49518615D01*
X117843436Y-49439389D01*
X118046484Y-49399000D01*
X118253516Y-49399000D01*
X118456564Y-49439389D01*
X118456564Y-49439389D01*
G37*
G36*
X111956564Y-49439389D02*
G01*
X112147833Y-49518615D01*
X112147835Y-49518616D01*
X112292527Y-49615296D01*
X112319973Y-49633635D01*
X112466365Y-49780027D01*
X112581385Y-49952167D01*
X112660611Y-50143436D01*
X112701000Y-50346484D01*
X112701000Y-50553516D01*
X112660611Y-50756564D01*
X112586921Y-50934468D01*
X112581384Y-50947835D01*
X112466365Y-51119973D01*
X112319973Y-51266365D01*
X112147835Y-51381384D01*
X112147834Y-51381385D01*
X112147833Y-51381385D01*
X111956564Y-51460611D01*
X111753516Y-51501000D01*
X111546484Y-51501000D01*
X111343436Y-51460611D01*
X111152167Y-51381385D01*
X111152166Y-51381385D01*
X111152165Y-51381384D01*
X110980027Y-51266365D01*
X110833635Y-51119973D01*
X110718616Y-50947835D01*
X110713079Y-50934468D01*
X110639389Y-50756564D01*
X110599000Y-50553516D01*
X110599000Y-50346484D01*
X110639389Y-50143436D01*
X110718615Y-49952167D01*
X110833635Y-49780027D01*
X110980027Y-49633635D01*
X111007473Y-49615296D01*
X111152165Y-49518616D01*
X111152167Y-49518615D01*
X111343436Y-49439389D01*
X111546484Y-49399000D01*
X111753516Y-49399000D01*
X111956564Y-49439389D01*
X111956564Y-49439389D01*
G37*
G36*
X128456564Y-49439389D02*
G01*
X128647833Y-49518615D01*
X128647835Y-49518616D01*
X128792527Y-49615296D01*
X128819973Y-49633635D01*
X128966365Y-49780027D01*
X129081385Y-49952167D01*
X129160611Y-50143436D01*
X129201000Y-50346484D01*
X129201000Y-50553516D01*
X129160611Y-50756564D01*
X129086921Y-50934468D01*
X129081384Y-50947835D01*
X128966365Y-51119973D01*
X128819973Y-51266365D01*
X128647835Y-51381384D01*
X128647834Y-51381385D01*
X128647833Y-51381385D01*
X128456564Y-51460611D01*
X128253516Y-51501000D01*
X128046484Y-51501000D01*
X127843436Y-51460611D01*
X127652167Y-51381385D01*
X127652166Y-51381385D01*
X127652165Y-51381384D01*
X127480027Y-51266365D01*
X127333635Y-51119973D01*
X127218616Y-50947835D01*
X127213079Y-50934468D01*
X127139389Y-50756564D01*
X127099000Y-50553516D01*
X127099000Y-50346484D01*
X127139389Y-50143436D01*
X127218615Y-49952167D01*
X127333635Y-49780027D01*
X127480027Y-49633635D01*
X127507473Y-49615296D01*
X127652165Y-49518616D01*
X127652167Y-49518615D01*
X127843436Y-49439389D01*
X128046484Y-49399000D01*
X128253516Y-49399000D01*
X128456564Y-49439389D01*
X128456564Y-49439389D01*
G37*
G36*
X121956564Y-49439389D02*
G01*
X122147833Y-49518615D01*
X122147835Y-49518616D01*
X122292527Y-49615296D01*
X122319973Y-49633635D01*
X122466365Y-49780027D01*
X122581385Y-49952167D01*
X122660611Y-50143436D01*
X122701000Y-50346484D01*
X122701000Y-50553516D01*
X122660611Y-50756564D01*
X122586921Y-50934468D01*
X122581384Y-50947835D01*
X122466365Y-51119973D01*
X122319973Y-51266365D01*
X122147835Y-51381384D01*
X122147834Y-51381385D01*
X122147833Y-51381385D01*
X121956564Y-51460611D01*
X121753516Y-51501000D01*
X121546484Y-51501000D01*
X121343436Y-51460611D01*
X121152167Y-51381385D01*
X121152166Y-51381385D01*
X121152165Y-51381384D01*
X120980027Y-51266365D01*
X120833635Y-51119973D01*
X120718616Y-50947835D01*
X120713079Y-50934468D01*
X120639389Y-50756564D01*
X120599000Y-50553516D01*
X120599000Y-50346484D01*
X120639389Y-50143436D01*
X120718615Y-49952167D01*
X120833635Y-49780027D01*
X120980027Y-49633635D01*
X121007473Y-49615296D01*
X121152165Y-49518616D01*
X121152167Y-49518615D01*
X121343436Y-49439389D01*
X121546484Y-49399000D01*
X121753516Y-49399000D01*
X121956564Y-49439389D01*
X121956564Y-49439389D01*
G37*
G36*
X148809468Y-49603565D02*
G01*
X148848138Y-49615296D01*
X148883777Y-49634346D01*
X148915017Y-49659983D01*
X148940654Y-49691223D01*
X148959704Y-49726862D01*
X148971435Y-49765532D01*
X148976000Y-49811888D01*
X148976000Y-50888112D01*
X148971435Y-50934468D01*
X148959704Y-50973138D01*
X148940654Y-51008777D01*
X148915017Y-51040017D01*
X148883777Y-51065654D01*
X148848138Y-51084704D01*
X148809468Y-51096435D01*
X148763112Y-51101000D01*
X148111888Y-51101000D01*
X148065532Y-51096435D01*
X148026862Y-51084704D01*
X147991223Y-51065654D01*
X147959983Y-51040017D01*
X147934346Y-51008777D01*
X147915296Y-50973138D01*
X147903565Y-50934468D01*
X147899000Y-50888112D01*
X147899000Y-49811888D01*
X147903565Y-49765532D01*
X147915296Y-49726862D01*
X147934346Y-49691223D01*
X147959983Y-49659983D01*
X147991223Y-49634346D01*
X148026862Y-49615296D01*
X148065532Y-49603565D01*
X148111888Y-49599000D01*
X148763112Y-49599000D01*
X148809468Y-49603565D01*
X148809468Y-49603565D01*
G37*
G36*
X146934468Y-49603565D02*
G01*
X146973138Y-49615296D01*
X147008777Y-49634346D01*
X147040017Y-49659983D01*
X147065654Y-49691223D01*
X147084704Y-49726862D01*
X147096435Y-49765532D01*
X147101000Y-49811888D01*
X147101000Y-50888112D01*
X147096435Y-50934468D01*
X147084704Y-50973138D01*
X147065654Y-51008777D01*
X147040017Y-51040017D01*
X147008777Y-51065654D01*
X146973138Y-51084704D01*
X146934468Y-51096435D01*
X146888112Y-51101000D01*
X146236888Y-51101000D01*
X146190532Y-51096435D01*
X146151862Y-51084704D01*
X146116223Y-51065654D01*
X146084983Y-51040017D01*
X146059346Y-51008777D01*
X146040296Y-50973138D01*
X146028565Y-50934468D01*
X146024000Y-50888112D01*
X146024000Y-49811888D01*
X146028565Y-49765532D01*
X146040296Y-49726862D01*
X146059346Y-49691223D01*
X146084983Y-49659983D01*
X146116223Y-49634346D01*
X146151862Y-49615296D01*
X146190532Y-49603565D01*
X146236888Y-49599000D01*
X146888112Y-49599000D01*
X146934468Y-49603565D01*
X146934468Y-49603565D01*
G37*
G36*
X142704591Y-49628085D02*
G01*
X142738569Y-49638393D01*
X142769890Y-49655134D01*
X142797339Y-49677661D01*
X142819866Y-49705110D01*
X142836607Y-49736431D01*
X142846915Y-49770409D01*
X142851000Y-49811890D01*
X142851000Y-50488110D01*
X142846915Y-50529591D01*
X142836607Y-50563569D01*
X142819866Y-50594890D01*
X142797339Y-50622339D01*
X142769890Y-50644866D01*
X142738569Y-50661607D01*
X142704591Y-50671915D01*
X142663110Y-50676000D01*
X142061890Y-50676000D01*
X142020409Y-50671915D01*
X141986431Y-50661607D01*
X141955110Y-50644866D01*
X141927661Y-50622339D01*
X141905134Y-50594890D01*
X141888393Y-50563569D01*
X141878085Y-50529591D01*
X141874000Y-50488110D01*
X141874000Y-49811890D01*
X141878085Y-49770409D01*
X141888393Y-49736431D01*
X141905134Y-49705110D01*
X141927661Y-49677661D01*
X141955110Y-49655134D01*
X141986431Y-49638393D01*
X142020409Y-49628085D01*
X142061890Y-49624000D01*
X142663110Y-49624000D01*
X142704591Y-49628085D01*
X142704591Y-49628085D01*
G37*
G36*
X144279591Y-49628085D02*
G01*
X144313569Y-49638393D01*
X144344890Y-49655134D01*
X144372339Y-49677661D01*
X144394866Y-49705110D01*
X144411607Y-49736431D01*
X144421915Y-49770409D01*
X144426000Y-49811890D01*
X144426000Y-50488110D01*
X144421915Y-50529591D01*
X144411607Y-50563569D01*
X144394866Y-50594890D01*
X144372339Y-50622339D01*
X144344890Y-50644866D01*
X144313569Y-50661607D01*
X144279591Y-50671915D01*
X144238110Y-50676000D01*
X143636890Y-50676000D01*
X143595409Y-50671915D01*
X143561431Y-50661607D01*
X143530110Y-50644866D01*
X143502661Y-50622339D01*
X143480134Y-50594890D01*
X143463393Y-50563569D01*
X143453085Y-50529591D01*
X143449000Y-50488110D01*
X143449000Y-49811890D01*
X143453085Y-49770409D01*
X143463393Y-49736431D01*
X143480134Y-49705110D01*
X143502661Y-49677661D01*
X143530110Y-49655134D01*
X143561431Y-49638393D01*
X143595409Y-49628085D01*
X143636890Y-49624000D01*
X144238110Y-49624000D01*
X144279591Y-49628085D01*
X144279591Y-49628085D01*
G37*
G36*
X156701000Y-49681000D02*
G01*
X155049000Y-49681000D01*
X155049000Y-48929000D01*
X156701000Y-48929000D01*
X156701000Y-49681000D01*
X156701000Y-49681000D01*
G37*
G36*
X162151000Y-49681000D02*
G01*
X160499000Y-49681000D01*
X160499000Y-48929000D01*
X162151000Y-48929000D01*
X162151000Y-49681000D01*
X162151000Y-49681000D01*
G37*
G36*
X153622798Y-48003247D02*
G01*
X153658367Y-48014037D01*
X153691139Y-48031554D01*
X153719869Y-48055131D01*
X153743446Y-48083861D01*
X153760963Y-48116633D01*
X153771753Y-48152202D01*
X153776000Y-48195325D01*
X153776000Y-49304675D01*
X153771753Y-49347798D01*
X153760963Y-49383367D01*
X153743446Y-49416139D01*
X153719869Y-49444869D01*
X153691139Y-49468446D01*
X153658367Y-49485963D01*
X153622798Y-49496753D01*
X153579675Y-49501000D01*
X152520325Y-49501000D01*
X152477202Y-49496753D01*
X152441633Y-49485963D01*
X152408861Y-49468446D01*
X152380131Y-49444869D01*
X152356554Y-49416139D01*
X152339037Y-49383367D01*
X152328247Y-49347798D01*
X152324000Y-49304675D01*
X152324000Y-48195325D01*
X152328247Y-48152202D01*
X152339037Y-48116633D01*
X152356554Y-48083861D01*
X152380131Y-48055131D01*
X152408861Y-48031554D01*
X152441633Y-48014037D01*
X152477202Y-48003247D01*
X152520325Y-47999000D01*
X153579675Y-47999000D01*
X153622798Y-48003247D01*
X153622798Y-48003247D01*
G37*
G36*
X139606564Y-47039389D02*
G01*
X139797833Y-47118615D01*
X139797835Y-47118616D01*
X139969973Y-47233635D01*
X140116365Y-47380027D01*
X140221993Y-47538110D01*
X140231385Y-47552167D01*
X140310611Y-47743436D01*
X140351000Y-47946484D01*
X140351000Y-48153516D01*
X140310611Y-48356564D01*
X140231385Y-48547833D01*
X140231384Y-48547835D01*
X140116365Y-48719973D01*
X139969973Y-48866365D01*
X139797835Y-48981384D01*
X139797834Y-48981385D01*
X139797833Y-48981385D01*
X139606564Y-49060611D01*
X139403516Y-49101000D01*
X139196484Y-49101000D01*
X138993436Y-49060611D01*
X138802167Y-48981385D01*
X138802166Y-48981385D01*
X138802165Y-48981384D01*
X138630027Y-48866365D01*
X138483635Y-48719973D01*
X138368616Y-48547835D01*
X138368615Y-48547833D01*
X138289389Y-48356564D01*
X138249000Y-48153516D01*
X138249000Y-47946484D01*
X138289389Y-47743436D01*
X138368615Y-47552167D01*
X138378008Y-47538110D01*
X138483635Y-47380027D01*
X138630027Y-47233635D01*
X138802165Y-47118616D01*
X138802167Y-47118615D01*
X138993436Y-47039389D01*
X139196484Y-46999000D01*
X139403516Y-46999000D01*
X139606564Y-47039389D01*
X139606564Y-47039389D01*
G37*
G36*
X162151000Y-48411000D02*
G01*
X160499000Y-48411000D01*
X160499000Y-47659000D01*
X162151000Y-47659000D01*
X162151000Y-48411000D01*
X162151000Y-48411000D01*
G37*
G36*
X156701000Y-48411000D02*
G01*
X155049000Y-48411000D01*
X155049000Y-47659000D01*
X156701000Y-47659000D01*
X156701000Y-48411000D01*
X156701000Y-48411000D01*
G37*
G36*
X146934468Y-46453565D02*
G01*
X146973138Y-46465296D01*
X147008777Y-46484346D01*
X147040017Y-46509983D01*
X147065654Y-46541223D01*
X147084704Y-46576862D01*
X147096435Y-46615532D01*
X147101000Y-46661888D01*
X147101000Y-47738112D01*
X147096435Y-47784468D01*
X147084704Y-47823138D01*
X147065654Y-47858777D01*
X147040017Y-47890017D01*
X147008777Y-47915654D01*
X146973138Y-47934704D01*
X146934468Y-47946435D01*
X146888112Y-47951000D01*
X146236888Y-47951000D01*
X146190532Y-47946435D01*
X146151862Y-47934704D01*
X146116223Y-47915654D01*
X146084983Y-47890017D01*
X146059346Y-47858777D01*
X146040296Y-47823138D01*
X146028565Y-47784468D01*
X146024000Y-47738112D01*
X146024000Y-46661888D01*
X146028565Y-46615532D01*
X146040296Y-46576862D01*
X146059346Y-46541223D01*
X146084983Y-46509983D01*
X146116223Y-46484346D01*
X146151862Y-46465296D01*
X146190532Y-46453565D01*
X146236888Y-46449000D01*
X146888112Y-46449000D01*
X146934468Y-46453565D01*
X146934468Y-46453565D01*
G37*
G36*
X148809468Y-46453565D02*
G01*
X148848138Y-46465296D01*
X148883777Y-46484346D01*
X148915017Y-46509983D01*
X148940654Y-46541223D01*
X148959704Y-46576862D01*
X148971435Y-46615532D01*
X148976000Y-46661888D01*
X148976000Y-47738112D01*
X148971435Y-47784468D01*
X148959704Y-47823138D01*
X148940654Y-47858777D01*
X148915017Y-47890017D01*
X148883777Y-47915654D01*
X148848138Y-47934704D01*
X148809468Y-47946435D01*
X148763112Y-47951000D01*
X148111888Y-47951000D01*
X148065532Y-47946435D01*
X148026862Y-47934704D01*
X147991223Y-47915654D01*
X147959983Y-47890017D01*
X147934346Y-47858777D01*
X147915296Y-47823138D01*
X147903565Y-47784468D01*
X147899000Y-47738112D01*
X147899000Y-46661888D01*
X147903565Y-46615532D01*
X147915296Y-46576862D01*
X147934346Y-46541223D01*
X147959983Y-46509983D01*
X147991223Y-46484346D01*
X148026862Y-46465296D01*
X148065532Y-46453565D01*
X148111888Y-46449000D01*
X148763112Y-46449000D01*
X148809468Y-46453565D01*
X148809468Y-46453565D01*
G37*
G36*
X144279591Y-46678085D02*
G01*
X144313569Y-46688393D01*
X144344890Y-46705134D01*
X144372339Y-46727661D01*
X144394866Y-46755110D01*
X144411607Y-46786431D01*
X144421915Y-46820409D01*
X144426000Y-46861890D01*
X144426000Y-47538110D01*
X144421915Y-47579591D01*
X144411607Y-47613569D01*
X144394866Y-47644890D01*
X144372339Y-47672339D01*
X144344890Y-47694866D01*
X144313569Y-47711607D01*
X144279591Y-47721915D01*
X144238110Y-47726000D01*
X143636890Y-47726000D01*
X143595409Y-47721915D01*
X143561431Y-47711607D01*
X143530110Y-47694866D01*
X143502661Y-47672339D01*
X143480134Y-47644890D01*
X143463393Y-47613569D01*
X143453085Y-47579591D01*
X143449000Y-47538110D01*
X143449000Y-46861890D01*
X143453085Y-46820409D01*
X143463393Y-46786431D01*
X143480134Y-46755110D01*
X143502661Y-46727661D01*
X143530110Y-46705134D01*
X143561431Y-46688393D01*
X143595409Y-46678085D01*
X143636890Y-46674000D01*
X144238110Y-46674000D01*
X144279591Y-46678085D01*
X144279591Y-46678085D01*
G37*
G36*
X142704591Y-46678085D02*
G01*
X142738569Y-46688393D01*
X142769890Y-46705134D01*
X142797339Y-46727661D01*
X142819866Y-46755110D01*
X142836607Y-46786431D01*
X142846915Y-46820409D01*
X142851000Y-46861890D01*
X142851000Y-47538110D01*
X142846915Y-47579591D01*
X142836607Y-47613569D01*
X142819866Y-47644890D01*
X142797339Y-47672339D01*
X142769890Y-47694866D01*
X142738569Y-47711607D01*
X142704591Y-47721915D01*
X142663110Y-47726000D01*
X142061890Y-47726000D01*
X142020409Y-47721915D01*
X141986431Y-47711607D01*
X141955110Y-47694866D01*
X141927661Y-47672339D01*
X141905134Y-47644890D01*
X141888393Y-47613569D01*
X141878085Y-47579591D01*
X141874000Y-47538110D01*
X141874000Y-46861890D01*
X141878085Y-46820409D01*
X141888393Y-46786431D01*
X141905134Y-46755110D01*
X141927661Y-46727661D01*
X141955110Y-46705134D01*
X141986431Y-46688393D01*
X142020409Y-46678085D01*
X142061890Y-46674000D01*
X142663110Y-46674000D01*
X142704591Y-46678085D01*
X142704591Y-46678085D01*
G37*
G36*
X156701000Y-47141000D02*
G01*
X155049000Y-47141000D01*
X155049000Y-46389000D01*
X156701000Y-46389000D01*
X156701000Y-47141000D01*
X156701000Y-47141000D01*
G37*
G36*
X162151000Y-47141000D02*
G01*
X160499000Y-47141000D01*
X160499000Y-46389000D01*
X162151000Y-46389000D01*
X162151000Y-47141000D01*
X162151000Y-47141000D01*
G37*
G36*
X98656564Y-44939389D02*
G01*
X98821047Y-45007520D01*
X98847835Y-45018616D01*
X99019973Y-45133635D01*
X99166365Y-45280027D01*
X99235745Y-45383861D01*
X99281385Y-45452167D01*
X99360611Y-45643436D01*
X99401000Y-45846484D01*
X99401000Y-46053516D01*
X99360611Y-46256564D01*
X99305754Y-46389000D01*
X99281384Y-46447835D01*
X99166365Y-46619973D01*
X99019973Y-46766365D01*
X98847835Y-46881384D01*
X98847834Y-46881385D01*
X98847833Y-46881385D01*
X98656564Y-46960611D01*
X98453516Y-47001000D01*
X98246484Y-47001000D01*
X98043436Y-46960611D01*
X97852167Y-46881385D01*
X97852166Y-46881385D01*
X97852165Y-46881384D01*
X97680027Y-46766365D01*
X97533635Y-46619973D01*
X97418616Y-46447835D01*
X97394246Y-46389000D01*
X97339389Y-46256564D01*
X97299000Y-46053516D01*
X97299000Y-45846484D01*
X97339389Y-45643436D01*
X97418615Y-45452167D01*
X97464256Y-45383861D01*
X97533635Y-45280027D01*
X97680027Y-45133635D01*
X97852165Y-45018616D01*
X97878953Y-45007520D01*
X98043436Y-44939389D01*
X98246484Y-44899000D01*
X98453516Y-44899000D01*
X98656564Y-44939389D01*
X98656564Y-44939389D01*
G37*
G36*
X128456564Y-44939389D02*
G01*
X128621047Y-45007520D01*
X128647835Y-45018616D01*
X128819973Y-45133635D01*
X128966365Y-45280027D01*
X129035745Y-45383861D01*
X129081385Y-45452167D01*
X129160611Y-45643436D01*
X129201000Y-45846484D01*
X129201000Y-46053516D01*
X129160611Y-46256564D01*
X129105754Y-46389000D01*
X129081384Y-46447835D01*
X128966365Y-46619973D01*
X128819973Y-46766365D01*
X128647835Y-46881384D01*
X128647834Y-46881385D01*
X128647833Y-46881385D01*
X128456564Y-46960611D01*
X128253516Y-47001000D01*
X128046484Y-47001000D01*
X127843436Y-46960611D01*
X127652167Y-46881385D01*
X127652166Y-46881385D01*
X127652165Y-46881384D01*
X127480027Y-46766365D01*
X127333635Y-46619973D01*
X127218616Y-46447835D01*
X127194246Y-46389000D01*
X127139389Y-46256564D01*
X127099000Y-46053516D01*
X127099000Y-45846484D01*
X127139389Y-45643436D01*
X127218615Y-45452167D01*
X127264256Y-45383861D01*
X127333635Y-45280027D01*
X127480027Y-45133635D01*
X127652165Y-45018616D01*
X127678953Y-45007520D01*
X127843436Y-44939389D01*
X128046484Y-44899000D01*
X128253516Y-44899000D01*
X128456564Y-44939389D01*
X128456564Y-44939389D01*
G37*
G36*
X121956564Y-44939389D02*
G01*
X122121047Y-45007520D01*
X122147835Y-45018616D01*
X122319973Y-45133635D01*
X122466365Y-45280027D01*
X122535745Y-45383861D01*
X122581385Y-45452167D01*
X122660611Y-45643436D01*
X122701000Y-45846484D01*
X122701000Y-46053516D01*
X122660611Y-46256564D01*
X122605754Y-46389000D01*
X122581384Y-46447835D01*
X122466365Y-46619973D01*
X122319973Y-46766365D01*
X122147835Y-46881384D01*
X122147834Y-46881385D01*
X122147833Y-46881385D01*
X121956564Y-46960611D01*
X121753516Y-47001000D01*
X121546484Y-47001000D01*
X121343436Y-46960611D01*
X121152167Y-46881385D01*
X121152166Y-46881385D01*
X121152165Y-46881384D01*
X120980027Y-46766365D01*
X120833635Y-46619973D01*
X120718616Y-46447835D01*
X120694246Y-46389000D01*
X120639389Y-46256564D01*
X120599000Y-46053516D01*
X120599000Y-45846484D01*
X120639389Y-45643436D01*
X120718615Y-45452167D01*
X120764256Y-45383861D01*
X120833635Y-45280027D01*
X120980027Y-45133635D01*
X121152165Y-45018616D01*
X121178953Y-45007520D01*
X121343436Y-44939389D01*
X121546484Y-44899000D01*
X121753516Y-44899000D01*
X121956564Y-44939389D01*
X121956564Y-44939389D01*
G37*
G36*
X118456564Y-44939389D02*
G01*
X118621047Y-45007520D01*
X118647835Y-45018616D01*
X118819973Y-45133635D01*
X118966365Y-45280027D01*
X119035745Y-45383861D01*
X119081385Y-45452167D01*
X119160611Y-45643436D01*
X119201000Y-45846484D01*
X119201000Y-46053516D01*
X119160611Y-46256564D01*
X119105754Y-46389000D01*
X119081384Y-46447835D01*
X118966365Y-46619973D01*
X118819973Y-46766365D01*
X118647835Y-46881384D01*
X118647834Y-46881385D01*
X118647833Y-46881385D01*
X118456564Y-46960611D01*
X118253516Y-47001000D01*
X118046484Y-47001000D01*
X117843436Y-46960611D01*
X117652167Y-46881385D01*
X117652166Y-46881385D01*
X117652165Y-46881384D01*
X117480027Y-46766365D01*
X117333635Y-46619973D01*
X117218616Y-46447835D01*
X117194246Y-46389000D01*
X117139389Y-46256564D01*
X117099000Y-46053516D01*
X117099000Y-45846484D01*
X117139389Y-45643436D01*
X117218615Y-45452167D01*
X117264256Y-45383861D01*
X117333635Y-45280027D01*
X117480027Y-45133635D01*
X117652165Y-45018616D01*
X117678953Y-45007520D01*
X117843436Y-44939389D01*
X118046484Y-44899000D01*
X118253516Y-44899000D01*
X118456564Y-44939389D01*
X118456564Y-44939389D01*
G37*
G36*
X92156564Y-44939389D02*
G01*
X92321047Y-45007520D01*
X92347835Y-45018616D01*
X92519973Y-45133635D01*
X92666365Y-45280027D01*
X92735745Y-45383861D01*
X92781385Y-45452167D01*
X92860611Y-45643436D01*
X92901000Y-45846484D01*
X92901000Y-46053516D01*
X92860611Y-46256564D01*
X92805754Y-46389000D01*
X92781384Y-46447835D01*
X92666365Y-46619973D01*
X92519973Y-46766365D01*
X92347835Y-46881384D01*
X92347834Y-46881385D01*
X92347833Y-46881385D01*
X92156564Y-46960611D01*
X91953516Y-47001000D01*
X91746484Y-47001000D01*
X91543436Y-46960611D01*
X91352167Y-46881385D01*
X91352166Y-46881385D01*
X91352165Y-46881384D01*
X91180027Y-46766365D01*
X91033635Y-46619973D01*
X90918616Y-46447835D01*
X90894246Y-46389000D01*
X90839389Y-46256564D01*
X90799000Y-46053516D01*
X90799000Y-45846484D01*
X90839389Y-45643436D01*
X90918615Y-45452167D01*
X90964256Y-45383861D01*
X91033635Y-45280027D01*
X91180027Y-45133635D01*
X91352165Y-45018616D01*
X91378953Y-45007520D01*
X91543436Y-44939389D01*
X91746484Y-44899000D01*
X91953516Y-44899000D01*
X92156564Y-44939389D01*
X92156564Y-44939389D01*
G37*
G36*
X111956564Y-44939389D02*
G01*
X112121047Y-45007520D01*
X112147835Y-45018616D01*
X112319973Y-45133635D01*
X112466365Y-45280027D01*
X112535745Y-45383861D01*
X112581385Y-45452167D01*
X112660611Y-45643436D01*
X112701000Y-45846484D01*
X112701000Y-46053516D01*
X112660611Y-46256564D01*
X112605754Y-46389000D01*
X112581384Y-46447835D01*
X112466365Y-46619973D01*
X112319973Y-46766365D01*
X112147835Y-46881384D01*
X112147834Y-46881385D01*
X112147833Y-46881385D01*
X111956564Y-46960611D01*
X111753516Y-47001000D01*
X111546484Y-47001000D01*
X111343436Y-46960611D01*
X111152167Y-46881385D01*
X111152166Y-46881385D01*
X111152165Y-46881384D01*
X110980027Y-46766365D01*
X110833635Y-46619973D01*
X110718616Y-46447835D01*
X110694246Y-46389000D01*
X110639389Y-46256564D01*
X110599000Y-46053516D01*
X110599000Y-45846484D01*
X110639389Y-45643436D01*
X110718615Y-45452167D01*
X110764256Y-45383861D01*
X110833635Y-45280027D01*
X110980027Y-45133635D01*
X111152165Y-45018616D01*
X111178953Y-45007520D01*
X111343436Y-44939389D01*
X111546484Y-44899000D01*
X111753516Y-44899000D01*
X111956564Y-44939389D01*
X111956564Y-44939389D01*
G37*
G36*
X108556564Y-44939389D02*
G01*
X108721047Y-45007520D01*
X108747835Y-45018616D01*
X108919973Y-45133635D01*
X109066365Y-45280027D01*
X109135745Y-45383861D01*
X109181385Y-45452167D01*
X109260611Y-45643436D01*
X109301000Y-45846484D01*
X109301000Y-46053516D01*
X109260611Y-46256564D01*
X109205754Y-46389000D01*
X109181384Y-46447835D01*
X109066365Y-46619973D01*
X108919973Y-46766365D01*
X108747835Y-46881384D01*
X108747834Y-46881385D01*
X108747833Y-46881385D01*
X108556564Y-46960611D01*
X108353516Y-47001000D01*
X108146484Y-47001000D01*
X107943436Y-46960611D01*
X107752167Y-46881385D01*
X107752166Y-46881385D01*
X107752165Y-46881384D01*
X107580027Y-46766365D01*
X107433635Y-46619973D01*
X107318616Y-46447835D01*
X107294246Y-46389000D01*
X107239389Y-46256564D01*
X107199000Y-46053516D01*
X107199000Y-45846484D01*
X107239389Y-45643436D01*
X107318615Y-45452167D01*
X107364256Y-45383861D01*
X107433635Y-45280027D01*
X107580027Y-45133635D01*
X107752165Y-45018616D01*
X107778953Y-45007520D01*
X107943436Y-44939389D01*
X108146484Y-44899000D01*
X108353516Y-44899000D01*
X108556564Y-44939389D01*
X108556564Y-44939389D01*
G37*
G36*
X102056564Y-44939389D02*
G01*
X102221047Y-45007520D01*
X102247835Y-45018616D01*
X102419973Y-45133635D01*
X102566365Y-45280027D01*
X102635745Y-45383861D01*
X102681385Y-45452167D01*
X102760611Y-45643436D01*
X102801000Y-45846484D01*
X102801000Y-46053516D01*
X102760611Y-46256564D01*
X102705754Y-46389000D01*
X102681384Y-46447835D01*
X102566365Y-46619973D01*
X102419973Y-46766365D01*
X102247835Y-46881384D01*
X102247834Y-46881385D01*
X102247833Y-46881385D01*
X102056564Y-46960611D01*
X101853516Y-47001000D01*
X101646484Y-47001000D01*
X101443436Y-46960611D01*
X101252167Y-46881385D01*
X101252166Y-46881385D01*
X101252165Y-46881384D01*
X101080027Y-46766365D01*
X100933635Y-46619973D01*
X100818616Y-46447835D01*
X100794246Y-46389000D01*
X100739389Y-46256564D01*
X100699000Y-46053516D01*
X100699000Y-45846484D01*
X100739389Y-45643436D01*
X100818615Y-45452167D01*
X100864256Y-45383861D01*
X100933635Y-45280027D01*
X101080027Y-45133635D01*
X101252165Y-45018616D01*
X101278953Y-45007520D01*
X101443436Y-44939389D01*
X101646484Y-44899000D01*
X101853516Y-44899000D01*
X102056564Y-44939389D01*
X102056564Y-44939389D01*
G37*
G36*
X153622798Y-45303247D02*
G01*
X153658367Y-45314037D01*
X153691139Y-45331554D01*
X153719869Y-45355131D01*
X153743446Y-45383861D01*
X153760963Y-45416633D01*
X153771753Y-45452202D01*
X153776000Y-45495325D01*
X153776000Y-46604675D01*
X153771753Y-46647798D01*
X153760963Y-46683367D01*
X153743446Y-46716139D01*
X153719869Y-46744869D01*
X153691139Y-46768446D01*
X153658367Y-46785963D01*
X153622798Y-46796753D01*
X153579675Y-46801000D01*
X152520325Y-46801000D01*
X152477202Y-46796753D01*
X152441633Y-46785963D01*
X152408861Y-46768446D01*
X152380131Y-46744869D01*
X152356554Y-46716139D01*
X152339037Y-46683367D01*
X152328247Y-46647798D01*
X152324000Y-46604675D01*
X152324000Y-45495325D01*
X152328247Y-45452202D01*
X152339037Y-45416633D01*
X152356554Y-45383861D01*
X152380131Y-45355131D01*
X152408861Y-45331554D01*
X152441633Y-45314037D01*
X152477202Y-45303247D01*
X152520325Y-45299000D01*
X153579675Y-45299000D01*
X153622798Y-45303247D01*
X153622798Y-45303247D01*
G37*
G36*
X136748228Y-44731703D02*
G01*
X136903100Y-44795853D01*
X137042481Y-44888985D01*
X137161015Y-45007519D01*
X137254147Y-45146900D01*
X137318297Y-45301772D01*
X137351000Y-45466184D01*
X137351000Y-45633816D01*
X137318297Y-45798228D01*
X137254147Y-45953100D01*
X137161015Y-46092481D01*
X137042481Y-46211015D01*
X136903100Y-46304147D01*
X136748228Y-46368297D01*
X136583816Y-46401000D01*
X136416184Y-46401000D01*
X136251772Y-46368297D01*
X136096900Y-46304147D01*
X135957519Y-46211015D01*
X135838985Y-46092481D01*
X135745853Y-45953100D01*
X135681703Y-45798228D01*
X135649000Y-45633816D01*
X135649000Y-45466184D01*
X135681703Y-45301772D01*
X135745853Y-45146900D01*
X135838985Y-45007519D01*
X135957519Y-44888985D01*
X136096900Y-44795853D01*
X136251772Y-44731703D01*
X136416184Y-44699000D01*
X136583816Y-44699000D01*
X136748228Y-44731703D01*
X136748228Y-44731703D01*
G37*
G36*
X134006564Y-43839389D02*
G01*
X134197833Y-43918615D01*
X134197835Y-43918616D01*
X134200518Y-43920409D01*
X134369973Y-44033635D01*
X134516365Y-44180027D01*
X134631385Y-44352167D01*
X134710611Y-44543436D01*
X134751000Y-44746484D01*
X134751000Y-44953516D01*
X134710611Y-45156564D01*
X134643134Y-45319468D01*
X134631384Y-45347835D01*
X134516365Y-45519973D01*
X134369973Y-45666365D01*
X134197835Y-45781384D01*
X134197834Y-45781385D01*
X134197833Y-45781385D01*
X134006564Y-45860611D01*
X133803516Y-45901000D01*
X133596484Y-45901000D01*
X133393436Y-45860611D01*
X133202167Y-45781385D01*
X133202166Y-45781385D01*
X133202165Y-45781384D01*
X133030027Y-45666365D01*
X132883635Y-45519973D01*
X132768616Y-45347835D01*
X132756866Y-45319468D01*
X132689389Y-45156564D01*
X132649000Y-44953516D01*
X132649000Y-44746484D01*
X132689389Y-44543436D01*
X132768615Y-44352167D01*
X132883635Y-44180027D01*
X133030027Y-44033635D01*
X133199482Y-43920409D01*
X133202165Y-43918616D01*
X133202167Y-43918615D01*
X133393436Y-43839389D01*
X133596484Y-43799000D01*
X133803516Y-43799000D01*
X134006564Y-43839389D01*
X134006564Y-43839389D01*
G37*
G36*
X139606564Y-43839389D02*
G01*
X139797833Y-43918615D01*
X139797835Y-43918616D01*
X139800518Y-43920409D01*
X139969973Y-44033635D01*
X140116365Y-44180027D01*
X140231385Y-44352167D01*
X140310611Y-44543436D01*
X140351000Y-44746484D01*
X140351000Y-44953516D01*
X140310611Y-45156564D01*
X140243134Y-45319468D01*
X140231384Y-45347835D01*
X140116365Y-45519973D01*
X139969973Y-45666365D01*
X139797835Y-45781384D01*
X139797834Y-45781385D01*
X139797833Y-45781385D01*
X139606564Y-45860611D01*
X139403516Y-45901000D01*
X139196484Y-45901000D01*
X138993436Y-45860611D01*
X138802167Y-45781385D01*
X138802166Y-45781385D01*
X138802165Y-45781384D01*
X138630027Y-45666365D01*
X138483635Y-45519973D01*
X138368616Y-45347835D01*
X138356866Y-45319468D01*
X138289389Y-45156564D01*
X138249000Y-44953516D01*
X138249000Y-44746484D01*
X138289389Y-44543436D01*
X138368615Y-44352167D01*
X138483635Y-44180027D01*
X138630027Y-44033635D01*
X138799482Y-43920409D01*
X138802165Y-43918616D01*
X138802167Y-43918615D01*
X138993436Y-43839389D01*
X139196484Y-43799000D01*
X139403516Y-43799000D01*
X139606564Y-43839389D01*
X139606564Y-43839389D01*
G37*
G36*
X162151000Y-45871000D02*
G01*
X160499000Y-45871000D01*
X160499000Y-45119000D01*
X162151000Y-45119000D01*
X162151000Y-45871000D01*
X162151000Y-45871000D01*
G37*
G36*
X156701000Y-45871000D02*
G01*
X155049000Y-45871000D01*
X155049000Y-45119000D01*
X156701000Y-45119000D01*
X156701000Y-45871000D01*
X156701000Y-45871000D01*
G37*
G36*
X146984468Y-43353565D02*
G01*
X147023138Y-43365296D01*
X147058777Y-43384346D01*
X147090017Y-43409983D01*
X147115654Y-43441223D01*
X147134704Y-43476862D01*
X147146435Y-43515532D01*
X147151000Y-43561888D01*
X147151000Y-44638112D01*
X147146435Y-44684468D01*
X147134704Y-44723138D01*
X147115654Y-44758777D01*
X147090017Y-44790017D01*
X147058777Y-44815654D01*
X147023138Y-44834704D01*
X146984468Y-44846435D01*
X146938112Y-44851000D01*
X146286888Y-44851000D01*
X146240532Y-44846435D01*
X146201862Y-44834704D01*
X146166223Y-44815654D01*
X146134983Y-44790017D01*
X146109346Y-44758777D01*
X146090296Y-44723138D01*
X146078565Y-44684468D01*
X146074000Y-44638112D01*
X146074000Y-43561888D01*
X146078565Y-43515532D01*
X146090296Y-43476862D01*
X146109346Y-43441223D01*
X146134983Y-43409983D01*
X146166223Y-43384346D01*
X146201862Y-43365296D01*
X146240532Y-43353565D01*
X146286888Y-43349000D01*
X146938112Y-43349000D01*
X146984468Y-43353565D01*
X146984468Y-43353565D01*
G37*
G36*
X148859468Y-43353565D02*
G01*
X148898138Y-43365296D01*
X148933777Y-43384346D01*
X148965017Y-43409983D01*
X148990654Y-43441223D01*
X149009704Y-43476862D01*
X149021435Y-43515532D01*
X149026000Y-43561888D01*
X149026000Y-44638112D01*
X149021435Y-44684468D01*
X149009704Y-44723138D01*
X148990654Y-44758777D01*
X148965017Y-44790017D01*
X148933777Y-44815654D01*
X148898138Y-44834704D01*
X148859468Y-44846435D01*
X148813112Y-44851000D01*
X148161888Y-44851000D01*
X148115532Y-44846435D01*
X148076862Y-44834704D01*
X148041223Y-44815654D01*
X148009983Y-44790017D01*
X147984346Y-44758777D01*
X147965296Y-44723138D01*
X147953565Y-44684468D01*
X147949000Y-44638112D01*
X147949000Y-43561888D01*
X147953565Y-43515532D01*
X147965296Y-43476862D01*
X147984346Y-43441223D01*
X148009983Y-43409983D01*
X148041223Y-43384346D01*
X148076862Y-43365296D01*
X148115532Y-43353565D01*
X148161888Y-43349000D01*
X148813112Y-43349000D01*
X148859468Y-43353565D01*
X148859468Y-43353565D01*
G37*
G36*
X144279591Y-43778085D02*
G01*
X144313569Y-43788393D01*
X144344890Y-43805134D01*
X144372339Y-43827661D01*
X144394866Y-43855110D01*
X144411607Y-43886431D01*
X144421915Y-43920409D01*
X144426000Y-43961890D01*
X144426000Y-44638110D01*
X144421915Y-44679591D01*
X144411607Y-44713569D01*
X144394866Y-44744890D01*
X144372339Y-44772339D01*
X144344890Y-44794866D01*
X144313569Y-44811607D01*
X144279591Y-44821915D01*
X144238110Y-44826000D01*
X143636890Y-44826000D01*
X143595409Y-44821915D01*
X143561431Y-44811607D01*
X143530110Y-44794866D01*
X143502661Y-44772339D01*
X143480134Y-44744890D01*
X143463393Y-44713569D01*
X143453085Y-44679591D01*
X143449000Y-44638110D01*
X143449000Y-43961890D01*
X143453085Y-43920409D01*
X143463393Y-43886431D01*
X143480134Y-43855110D01*
X143502661Y-43827661D01*
X143530110Y-43805134D01*
X143561431Y-43788393D01*
X143595409Y-43778085D01*
X143636890Y-43774000D01*
X144238110Y-43774000D01*
X144279591Y-43778085D01*
X144279591Y-43778085D01*
G37*
G36*
X142704591Y-43778085D02*
G01*
X142738569Y-43788393D01*
X142769890Y-43805134D01*
X142797339Y-43827661D01*
X142819866Y-43855110D01*
X142836607Y-43886431D01*
X142846915Y-43920409D01*
X142851000Y-43961890D01*
X142851000Y-44638110D01*
X142846915Y-44679591D01*
X142836607Y-44713569D01*
X142819866Y-44744890D01*
X142797339Y-44772339D01*
X142769890Y-44794866D01*
X142738569Y-44811607D01*
X142704591Y-44821915D01*
X142663110Y-44826000D01*
X142061890Y-44826000D01*
X142020409Y-44821915D01*
X141986431Y-44811607D01*
X141955110Y-44794866D01*
X141927661Y-44772339D01*
X141905134Y-44744890D01*
X141888393Y-44713569D01*
X141878085Y-44679591D01*
X141874000Y-44638110D01*
X141874000Y-43961890D01*
X141878085Y-43920409D01*
X141888393Y-43886431D01*
X141905134Y-43855110D01*
X141927661Y-43827661D01*
X141955110Y-43805134D01*
X141986431Y-43788393D01*
X142020409Y-43778085D01*
X142061890Y-43774000D01*
X142663110Y-43774000D01*
X142704591Y-43778085D01*
X142704591Y-43778085D01*
G37*
M02*
