G04 #@! TF.GenerationSoftware,KiCad,Pcbnew,5.1.4-e60b266~84~ubuntu18.04.1*
G04 #@! TF.CreationDate,2019-11-16T17:22:57+03:00*
G04 #@! TF.ProjectId,Dreamstalker-PRO-v1,44726561-6d73-4746-916c-6b65722d5052,v1.0*
G04 #@! TF.SameCoordinates,Original*
G04 #@! TF.FileFunction,Legend,Bot*
G04 #@! TF.FilePolarity,Positive*
%FSLAX46Y46*%
G04 Gerber Fmt 4.6, Leading zero omitted, Abs format (unit mm)*
G04 Created by KiCad (PCBNEW 5.1.4-e60b266~84~ubuntu18.04.1) date 2019-11-16 17:22:57*
%MOMM*%
%LPD*%
G04 APERTURE LIST*
%ADD10C,0.120000*%
%ADD11C,0.254000*%
%ADD12C,0.200000*%
%ADD13C,0.010000*%
%ADD14C,0.150000*%
%ADD15C,0.250000*%
G04 APERTURE END LIST*
D10*
X143467221Y-89920000D02*
X143792779Y-89920000D01*
X143467221Y-90940000D02*
X143792779Y-90940000D01*
X143457221Y-88300000D02*
X143782779Y-88300000D01*
X143457221Y-89320000D02*
X143782779Y-89320000D01*
X149700000Y-75227221D02*
X149700000Y-75552779D01*
X148680000Y-75227221D02*
X148680000Y-75552779D01*
X148040000Y-75227221D02*
X148040000Y-75552779D01*
X147020000Y-75227221D02*
X147020000Y-75552779D01*
X143085000Y-55750000D02*
X143085000Y-59660000D01*
X141215000Y-55750000D02*
X143085000Y-55750000D01*
X141215000Y-59660000D02*
X141215000Y-55750000D01*
D11*
X118120000Y-92120000D02*
G75*
G03X118120000Y-92120000I-200000J0D01*
G01*
D12*
X104070000Y-90670000D02*
X117370000Y-90670000D01*
X104070000Y-77370000D02*
X104070000Y-90670000D01*
X117370000Y-77370000D02*
X104070000Y-77370000D01*
X117370000Y-90670000D02*
X117370000Y-77370000D01*
D10*
X138011422Y-55320000D02*
X138528578Y-55320000D01*
X138011422Y-56740000D02*
X138528578Y-56740000D01*
X163020000Y-60328578D02*
X163020000Y-59811422D01*
X164440000Y-60328578D02*
X164440000Y-59811422D01*
X98825000Y-88525000D02*
X98825000Y-89875000D01*
X100575000Y-88525000D02*
X100575000Y-89875000D01*
X142480000Y-104900000D02*
X142480000Y-107980000D01*
X145730000Y-107980000D02*
X142480000Y-107980000D01*
X149890000Y-107280000D02*
X145740000Y-107980000D01*
X149880000Y-107280000D02*
X157370000Y-107280000D01*
X157380000Y-104900000D02*
X157380000Y-107280000D01*
X144180000Y-93420000D02*
X147030000Y-93420000D01*
X142480000Y-94980000D02*
X142480000Y-102100000D01*
X157380000Y-94980000D02*
X157380000Y-102100000D01*
D12*
X162100000Y-44820000D02*
X160550000Y-44820000D01*
X160200000Y-49850000D02*
X160200000Y-44950000D01*
X157000000Y-49850000D02*
X160200000Y-49850000D01*
X157000000Y-44950000D02*
X157000000Y-49850000D01*
X160200000Y-44950000D02*
X157000000Y-44950000D01*
D11*
X143475000Y-77675000D02*
G75*
G03X143475000Y-77675000I-125000J0D01*
G01*
D12*
X150000000Y-79250000D02*
X143700000Y-79250000D01*
X150000000Y-85550000D02*
X150000000Y-79250000D01*
X143700000Y-85550000D02*
X150000000Y-85550000D01*
X143700000Y-79250000D02*
X143700000Y-85550000D01*
D10*
X159800000Y-86700000D02*
X159800000Y-80950000D01*
X163400000Y-86700000D02*
X159800000Y-86700000D01*
X163400000Y-80950000D02*
X163400000Y-86700000D01*
X147758578Y-49640000D02*
X147241422Y-49640000D01*
X147758578Y-51060000D02*
X147241422Y-51060000D01*
X143312779Y-49640000D02*
X142987221Y-49640000D01*
X143312779Y-50660000D02*
X142987221Y-50660000D01*
X147808578Y-44810000D02*
X147291422Y-44810000D01*
X147808578Y-43390000D02*
X147291422Y-43390000D01*
X147758578Y-46490000D02*
X147241422Y-46490000D01*
X147758578Y-47910000D02*
X147241422Y-47910000D01*
X143312779Y-47710000D02*
X142987221Y-47710000D01*
X143312779Y-46690000D02*
X142987221Y-46690000D01*
X143312779Y-43790000D02*
X142987221Y-43790000D01*
X143312779Y-44810000D02*
X142987221Y-44810000D01*
X153985000Y-45800000D02*
X153985000Y-49710000D01*
X153985000Y-49710000D02*
X152115000Y-49710000D01*
X152115000Y-49710000D02*
X152115000Y-45800000D01*
X130750000Y-77235000D02*
X126840000Y-77235000D01*
X126840000Y-77235000D02*
X126840000Y-75365000D01*
X126840000Y-75365000D02*
X130750000Y-75365000D01*
X156560000Y-60358578D02*
X156560000Y-59841422D01*
X155140000Y-60358578D02*
X155140000Y-59841422D01*
X138110000Y-100141422D02*
X138110000Y-100658578D01*
X136690000Y-100141422D02*
X136690000Y-100658578D01*
X162990000Y-55341422D02*
X162990000Y-55858578D01*
X164410000Y-55341422D02*
X164410000Y-55858578D01*
X147710000Y-70791422D02*
X147710000Y-71308578D01*
X146290000Y-70791422D02*
X146290000Y-71308578D01*
X131090000Y-70941422D02*
X131090000Y-71458578D01*
X132510000Y-70941422D02*
X132510000Y-71458578D01*
X157140000Y-85341422D02*
X157140000Y-85858578D01*
X158560000Y-85341422D02*
X158560000Y-85858578D01*
X136698578Y-85920000D02*
X136181422Y-85920000D01*
X136698578Y-84500000D02*
X136181422Y-84500000D01*
X158560000Y-81908578D02*
X158560000Y-81391422D01*
X157140000Y-81908578D02*
X157140000Y-81391422D01*
X162487221Y-116510000D02*
X162812779Y-116510000D01*
X162487221Y-115490000D02*
X162812779Y-115490000D01*
X101740000Y-119762779D02*
X101740000Y-119437221D01*
X102760000Y-119762779D02*
X102760000Y-119437221D01*
X100510000Y-119762779D02*
X100510000Y-119437221D01*
X99490000Y-119762779D02*
X99490000Y-119437221D01*
X154010000Y-65237221D02*
X154010000Y-65562779D01*
X152990000Y-65237221D02*
X152990000Y-65562779D01*
X131410000Y-52562779D02*
X131410000Y-52237221D01*
X130390000Y-52562779D02*
X130390000Y-52237221D01*
X158810000Y-65562779D02*
X158810000Y-65237221D01*
X157790000Y-65562779D02*
X157790000Y-65237221D01*
X155340000Y-65562779D02*
X155340000Y-65237221D01*
X156360000Y-65562779D02*
X156360000Y-65237221D01*
X158137221Y-71510000D02*
X158462779Y-71510000D01*
X158137221Y-70490000D02*
X158462779Y-70490000D01*
X158810000Y-59737221D02*
X158810000Y-60062779D01*
X157790000Y-59737221D02*
X157790000Y-60062779D01*
X152790000Y-59787221D02*
X152790000Y-60112779D01*
X153810000Y-59787221D02*
X153810000Y-60112779D01*
X147140000Y-59862779D02*
X147140000Y-59537221D01*
X148160000Y-59862779D02*
X148160000Y-59537221D01*
X97012779Y-123190000D02*
X96687221Y-123190000D01*
X97012779Y-124210000D02*
X96687221Y-124210000D01*
X157337221Y-67690000D02*
X157662779Y-67690000D01*
X157337221Y-68710000D02*
X157662779Y-68710000D01*
X155687221Y-63260000D02*
X156012779Y-63260000D01*
X155687221Y-62240000D02*
X156012779Y-62240000D01*
X153962779Y-53510000D02*
X153637221Y-53510000D01*
X153962779Y-52490000D02*
X153637221Y-52490000D01*
X101287221Y-124210000D02*
X101612779Y-124210000D01*
X101287221Y-123190000D02*
X101612779Y-123190000D01*
X149390000Y-71362779D02*
X149390000Y-71037221D01*
X150410000Y-71362779D02*
X150410000Y-71037221D01*
X133990000Y-57787221D02*
X133990000Y-58112779D01*
X135010000Y-57787221D02*
X135010000Y-58112779D01*
X155190000Y-83812779D02*
X155190000Y-83487221D01*
X156210000Y-83812779D02*
X156210000Y-83487221D01*
X144620000Y-57552779D02*
X144620000Y-57227221D01*
X143600000Y-57552779D02*
X143600000Y-57227221D01*
X108870000Y-62050000D02*
X108870000Y-63050000D01*
X112230000Y-62050000D02*
X112230000Y-63050000D01*
X118270000Y-64950000D02*
X118270000Y-63950000D01*
X121630000Y-64950000D02*
X121630000Y-63950000D01*
X103680000Y-60100000D02*
X103680000Y-59100000D01*
X100320000Y-60100000D02*
X100320000Y-59100000D01*
D12*
X124750000Y-59625000D02*
X124750000Y-60675000D01*
X127700000Y-61025000D02*
X124800000Y-61025000D01*
X127700000Y-61475000D02*
X127700000Y-61025000D01*
X124800000Y-61475000D02*
X127700000Y-61475000D01*
X124800000Y-61025000D02*
X124800000Y-61475000D01*
X114350000Y-58125000D02*
X114350000Y-57675000D01*
X114350000Y-57675000D02*
X111450000Y-57675000D01*
X111450000Y-57675000D02*
X111450000Y-58125000D01*
X111450000Y-58125000D02*
X114350000Y-58125000D01*
X114400000Y-59525000D02*
X114400000Y-58475000D01*
X107800000Y-65125000D02*
X107800000Y-66175000D01*
X110750000Y-66525000D02*
X107850000Y-66525000D01*
X110750000Y-66975000D02*
X110750000Y-66525000D01*
X107850000Y-66975000D02*
X110750000Y-66975000D01*
X107850000Y-66525000D02*
X107850000Y-66975000D01*
X97200000Y-61975000D02*
X97200000Y-61525000D01*
X97200000Y-61525000D02*
X94300000Y-61525000D01*
X94300000Y-61525000D02*
X94300000Y-61975000D01*
X94300000Y-61975000D02*
X97200000Y-61975000D01*
X97250000Y-63375000D02*
X97250000Y-62325000D01*
D13*
G36*
X162473043Y-118226571D02*
G01*
X162376768Y-118250809D01*
X162290184Y-118293641D01*
X162215373Y-118353419D01*
X162154418Y-118428494D01*
X162109399Y-118517220D01*
X162083136Y-118613530D01*
X162077286Y-118710795D01*
X162092140Y-118804654D01*
X162125840Y-118892511D01*
X162176528Y-118971770D01*
X162242345Y-119039836D01*
X162321434Y-119094112D01*
X162411934Y-119132002D01*
X162463200Y-119144426D01*
X162507698Y-119151947D01*
X162541999Y-119154919D01*
X162574960Y-119153094D01*
X162615434Y-119146225D01*
X162648531Y-119139250D01*
X162741947Y-119107741D01*
X162825619Y-119056617D01*
X162897665Y-118987429D01*
X162956200Y-118901728D01*
X162970148Y-118874489D01*
X162986586Y-118838122D01*
X162996894Y-118807582D01*
X163002460Y-118775450D01*
X163004669Y-118734307D01*
X163004948Y-118688222D01*
X163000861Y-118603865D01*
X162987446Y-118534586D01*
X162962256Y-118473961D01*
X162922846Y-118415567D01*
X162884298Y-118371302D01*
X162812406Y-118305484D01*
X162737313Y-118260053D01*
X162654562Y-118232850D01*
X162576928Y-118222576D01*
X162473043Y-118226571D01*
X162473043Y-118226571D01*
G37*
X162473043Y-118226571D02*
X162376768Y-118250809D01*
X162290184Y-118293641D01*
X162215373Y-118353419D01*
X162154418Y-118428494D01*
X162109399Y-118517220D01*
X162083136Y-118613530D01*
X162077286Y-118710795D01*
X162092140Y-118804654D01*
X162125840Y-118892511D01*
X162176528Y-118971770D01*
X162242345Y-119039836D01*
X162321434Y-119094112D01*
X162411934Y-119132002D01*
X162463200Y-119144426D01*
X162507698Y-119151947D01*
X162541999Y-119154919D01*
X162574960Y-119153094D01*
X162615434Y-119146225D01*
X162648531Y-119139250D01*
X162741947Y-119107741D01*
X162825619Y-119056617D01*
X162897665Y-118987429D01*
X162956200Y-118901728D01*
X162970148Y-118874489D01*
X162986586Y-118838122D01*
X162996894Y-118807582D01*
X163002460Y-118775450D01*
X163004669Y-118734307D01*
X163004948Y-118688222D01*
X163000861Y-118603865D01*
X162987446Y-118534586D01*
X162962256Y-118473961D01*
X162922846Y-118415567D01*
X162884298Y-118371302D01*
X162812406Y-118305484D01*
X162737313Y-118260053D01*
X162654562Y-118232850D01*
X162576928Y-118222576D01*
X162473043Y-118226571D01*
G36*
X154013493Y-120672245D02*
G01*
X154013474Y-120906662D01*
X154013448Y-121119603D01*
X154013375Y-121312168D01*
X154013218Y-121485459D01*
X154012936Y-121640576D01*
X154012491Y-121778620D01*
X154011844Y-121900692D01*
X154010955Y-122007894D01*
X154009787Y-122101326D01*
X154008299Y-122182090D01*
X154006454Y-122251286D01*
X154004211Y-122310015D01*
X154001531Y-122359379D01*
X153998377Y-122400478D01*
X153994708Y-122434413D01*
X153990487Y-122462286D01*
X153985673Y-122485198D01*
X153980227Y-122504249D01*
X153974112Y-122520540D01*
X153967288Y-122535173D01*
X153959715Y-122549249D01*
X153951355Y-122563868D01*
X153946161Y-122572974D01*
X153911896Y-122633689D01*
X154770045Y-122633689D01*
X154770045Y-122537733D01*
X154770776Y-122494370D01*
X154772728Y-122461205D01*
X154775537Y-122443424D01*
X154776779Y-122441778D01*
X154788201Y-122448662D01*
X154810916Y-122466505D01*
X154833615Y-122485879D01*
X154888200Y-122526614D01*
X154957679Y-122567617D01*
X155034730Y-122605123D01*
X155112035Y-122635364D01*
X155142887Y-122645012D01*
X155211384Y-122659578D01*
X155294236Y-122669539D01*
X155383629Y-122674583D01*
X155471752Y-122674396D01*
X155550793Y-122668666D01*
X155588489Y-122662858D01*
X155726586Y-122624797D01*
X155853887Y-122567073D01*
X155969708Y-122490211D01*
X156073363Y-122394739D01*
X156164167Y-122281179D01*
X156230969Y-122170381D01*
X156285836Y-122053625D01*
X156327837Y-121934276D01*
X156357833Y-121808283D01*
X156376689Y-121671594D01*
X156385268Y-121520158D01*
X156385994Y-121442711D01*
X156383900Y-121385934D01*
X155554783Y-121385934D01*
X155554576Y-121479002D01*
X155551663Y-121566692D01*
X155546000Y-121643772D01*
X155537545Y-121705009D01*
X155534962Y-121717350D01*
X155503160Y-121824633D01*
X155461502Y-121911658D01*
X155409637Y-121978642D01*
X155347219Y-122025805D01*
X155273900Y-122053365D01*
X155189331Y-122061541D01*
X155093165Y-122050551D01*
X155029689Y-122034829D01*
X154980546Y-122016639D01*
X154926417Y-121990791D01*
X154885756Y-121967089D01*
X154815200Y-121920721D01*
X154815200Y-120770530D01*
X154882608Y-120726962D01*
X154961133Y-120686040D01*
X155045319Y-120659389D01*
X155130443Y-120647465D01*
X155211784Y-120650722D01*
X155284620Y-120669615D01*
X155316574Y-120685184D01*
X155374499Y-120728181D01*
X155423456Y-120784953D01*
X155464610Y-120857575D01*
X155499126Y-120948121D01*
X155528167Y-121058666D01*
X155529448Y-121064533D01*
X155539619Y-121126788D01*
X155547261Y-121204594D01*
X155552330Y-121292720D01*
X155554783Y-121385934D01*
X156383900Y-121385934D01*
X156378143Y-121229895D01*
X156356198Y-121034059D01*
X156320214Y-120855332D01*
X156270241Y-120693845D01*
X156206332Y-120549726D01*
X156128538Y-120423106D01*
X156036911Y-120314115D01*
X155931503Y-120222883D01*
X155886338Y-120191932D01*
X155785389Y-120135785D01*
X155682099Y-120096174D01*
X155572011Y-120072014D01*
X155450670Y-120062219D01*
X155358164Y-120063265D01*
X155228510Y-120074231D01*
X155115916Y-120096046D01*
X155017125Y-120129714D01*
X154928879Y-120176236D01*
X154880014Y-120210448D01*
X154850647Y-120232362D01*
X154828957Y-120247333D01*
X154820747Y-120251733D01*
X154819132Y-120240904D01*
X154817841Y-120210251D01*
X154816862Y-120162526D01*
X154816183Y-120100479D01*
X154815790Y-120026862D01*
X154815670Y-119944427D01*
X154815812Y-119855925D01*
X154816203Y-119764107D01*
X154816829Y-119671724D01*
X154817680Y-119581528D01*
X154818740Y-119496271D01*
X154819999Y-119418703D01*
X154821444Y-119351576D01*
X154823062Y-119297641D01*
X154824839Y-119259650D01*
X154825331Y-119252667D01*
X154832908Y-119182251D01*
X154844469Y-119127102D01*
X154862208Y-119079981D01*
X154888318Y-119033647D01*
X154894585Y-119024067D01*
X154919017Y-118987378D01*
X154013689Y-118987378D01*
X154013493Y-120672245D01*
X154013493Y-120672245D01*
G37*
X154013493Y-120672245D02*
X154013474Y-120906662D01*
X154013448Y-121119603D01*
X154013375Y-121312168D01*
X154013218Y-121485459D01*
X154012936Y-121640576D01*
X154012491Y-121778620D01*
X154011844Y-121900692D01*
X154010955Y-122007894D01*
X154009787Y-122101326D01*
X154008299Y-122182090D01*
X154006454Y-122251286D01*
X154004211Y-122310015D01*
X154001531Y-122359379D01*
X153998377Y-122400478D01*
X153994708Y-122434413D01*
X153990487Y-122462286D01*
X153985673Y-122485198D01*
X153980227Y-122504249D01*
X153974112Y-122520540D01*
X153967288Y-122535173D01*
X153959715Y-122549249D01*
X153951355Y-122563868D01*
X153946161Y-122572974D01*
X153911896Y-122633689D01*
X154770045Y-122633689D01*
X154770045Y-122537733D01*
X154770776Y-122494370D01*
X154772728Y-122461205D01*
X154775537Y-122443424D01*
X154776779Y-122441778D01*
X154788201Y-122448662D01*
X154810916Y-122466505D01*
X154833615Y-122485879D01*
X154888200Y-122526614D01*
X154957679Y-122567617D01*
X155034730Y-122605123D01*
X155112035Y-122635364D01*
X155142887Y-122645012D01*
X155211384Y-122659578D01*
X155294236Y-122669539D01*
X155383629Y-122674583D01*
X155471752Y-122674396D01*
X155550793Y-122668666D01*
X155588489Y-122662858D01*
X155726586Y-122624797D01*
X155853887Y-122567073D01*
X155969708Y-122490211D01*
X156073363Y-122394739D01*
X156164167Y-122281179D01*
X156230969Y-122170381D01*
X156285836Y-122053625D01*
X156327837Y-121934276D01*
X156357833Y-121808283D01*
X156376689Y-121671594D01*
X156385268Y-121520158D01*
X156385994Y-121442711D01*
X156383900Y-121385934D01*
X155554783Y-121385934D01*
X155554576Y-121479002D01*
X155551663Y-121566692D01*
X155546000Y-121643772D01*
X155537545Y-121705009D01*
X155534962Y-121717350D01*
X155503160Y-121824633D01*
X155461502Y-121911658D01*
X155409637Y-121978642D01*
X155347219Y-122025805D01*
X155273900Y-122053365D01*
X155189331Y-122061541D01*
X155093165Y-122050551D01*
X155029689Y-122034829D01*
X154980546Y-122016639D01*
X154926417Y-121990791D01*
X154885756Y-121967089D01*
X154815200Y-121920721D01*
X154815200Y-120770530D01*
X154882608Y-120726962D01*
X154961133Y-120686040D01*
X155045319Y-120659389D01*
X155130443Y-120647465D01*
X155211784Y-120650722D01*
X155284620Y-120669615D01*
X155316574Y-120685184D01*
X155374499Y-120728181D01*
X155423456Y-120784953D01*
X155464610Y-120857575D01*
X155499126Y-120948121D01*
X155528167Y-121058666D01*
X155529448Y-121064533D01*
X155539619Y-121126788D01*
X155547261Y-121204594D01*
X155552330Y-121292720D01*
X155554783Y-121385934D01*
X156383900Y-121385934D01*
X156378143Y-121229895D01*
X156356198Y-121034059D01*
X156320214Y-120855332D01*
X156270241Y-120693845D01*
X156206332Y-120549726D01*
X156128538Y-120423106D01*
X156036911Y-120314115D01*
X155931503Y-120222883D01*
X155886338Y-120191932D01*
X155785389Y-120135785D01*
X155682099Y-120096174D01*
X155572011Y-120072014D01*
X155450670Y-120062219D01*
X155358164Y-120063265D01*
X155228510Y-120074231D01*
X155115916Y-120096046D01*
X155017125Y-120129714D01*
X154928879Y-120176236D01*
X154880014Y-120210448D01*
X154850647Y-120232362D01*
X154828957Y-120247333D01*
X154820747Y-120251733D01*
X154819132Y-120240904D01*
X154817841Y-120210251D01*
X154816862Y-120162526D01*
X154816183Y-120100479D01*
X154815790Y-120026862D01*
X154815670Y-119944427D01*
X154815812Y-119855925D01*
X154816203Y-119764107D01*
X154816829Y-119671724D01*
X154817680Y-119581528D01*
X154818740Y-119496271D01*
X154819999Y-119418703D01*
X154821444Y-119351576D01*
X154823062Y-119297641D01*
X154824839Y-119259650D01*
X154825331Y-119252667D01*
X154832908Y-119182251D01*
X154844469Y-119127102D01*
X154862208Y-119079981D01*
X154888318Y-119033647D01*
X154894585Y-119024067D01*
X154919017Y-118987378D01*
X154013689Y-118987378D01*
X154013493Y-120672245D01*
G36*
X157526426Y-120066552D02*
G01*
X157374508Y-120086567D01*
X157239244Y-120120202D01*
X157119761Y-120167725D01*
X157015185Y-120229405D01*
X156937576Y-120292965D01*
X156868735Y-120367099D01*
X156814994Y-120446871D01*
X156772090Y-120539091D01*
X156756616Y-120582161D01*
X156743756Y-120621142D01*
X156732554Y-120657289D01*
X156722880Y-120692434D01*
X156714604Y-120728410D01*
X156707597Y-120767050D01*
X156701728Y-120810185D01*
X156696869Y-120859649D01*
X156692890Y-120917273D01*
X156689660Y-120984891D01*
X156687051Y-121064334D01*
X156684933Y-121157436D01*
X156683176Y-121266027D01*
X156681651Y-121391942D01*
X156680228Y-121537012D01*
X156678975Y-121679778D01*
X156677649Y-121835968D01*
X156676444Y-121971239D01*
X156675234Y-122087246D01*
X156673894Y-122185645D01*
X156672300Y-122268093D01*
X156670325Y-122336246D01*
X156667844Y-122391760D01*
X156664731Y-122436292D01*
X156660862Y-122471498D01*
X156656111Y-122499034D01*
X156650352Y-122520556D01*
X156643461Y-122537722D01*
X156635311Y-122552186D01*
X156625777Y-122565606D01*
X156614734Y-122579638D01*
X156610434Y-122585071D01*
X156594614Y-122607910D01*
X156587578Y-122623463D01*
X156587556Y-122623922D01*
X156598433Y-122626121D01*
X156629418Y-122628147D01*
X156678043Y-122629942D01*
X156741837Y-122631451D01*
X156818331Y-122632616D01*
X156905056Y-122633380D01*
X156999543Y-122633686D01*
X157010450Y-122633689D01*
X157433343Y-122633689D01*
X157436605Y-122537622D01*
X157439867Y-122441556D01*
X157501956Y-122492543D01*
X157599286Y-122560057D01*
X157709187Y-122614749D01*
X157795651Y-122644978D01*
X157864722Y-122659666D01*
X157948075Y-122669659D01*
X158037841Y-122674646D01*
X158126155Y-122674313D01*
X158205149Y-122668351D01*
X158241378Y-122662638D01*
X158381397Y-122624776D01*
X158507822Y-122569932D01*
X158619740Y-122498924D01*
X158716238Y-122412568D01*
X158796400Y-122311679D01*
X158859313Y-122197076D01*
X158903688Y-122070984D01*
X158916022Y-122014401D01*
X158923632Y-121952202D01*
X158927261Y-121877363D01*
X158927755Y-121843467D01*
X158927690Y-121840282D01*
X158167752Y-121840282D01*
X158158459Y-121915333D01*
X158130272Y-121979160D01*
X158081803Y-122034798D01*
X158076746Y-122039211D01*
X158028452Y-122074037D01*
X157976743Y-122096620D01*
X157916011Y-122108540D01*
X157840648Y-122111383D01*
X157822541Y-122110978D01*
X157768722Y-122108325D01*
X157728692Y-122102909D01*
X157693676Y-122092745D01*
X157654897Y-122075850D01*
X157644255Y-122070672D01*
X157583604Y-122034844D01*
X157536785Y-121992212D01*
X157524048Y-121976973D01*
X157479378Y-121920462D01*
X157479378Y-121724586D01*
X157479914Y-121645939D01*
X157481604Y-121587988D01*
X157484572Y-121548875D01*
X157488943Y-121526741D01*
X157493028Y-121520274D01*
X157508953Y-121517111D01*
X157542736Y-121514488D01*
X157589660Y-121512655D01*
X157645007Y-121511857D01*
X157653894Y-121511842D01*
X157774670Y-121517096D01*
X157877340Y-121533263D01*
X157963894Y-121560961D01*
X158036319Y-121600808D01*
X158091249Y-121647758D01*
X158135796Y-121705645D01*
X158160520Y-121768693D01*
X158167752Y-121840282D01*
X158927690Y-121840282D01*
X158925822Y-121749712D01*
X158917478Y-121670812D01*
X158901232Y-121599590D01*
X158875595Y-121528864D01*
X158851599Y-121476493D01*
X158792980Y-121381196D01*
X158714883Y-121293170D01*
X158619685Y-121214017D01*
X158509762Y-121145340D01*
X158387490Y-121088741D01*
X158255245Y-121045821D01*
X158190578Y-121030882D01*
X158054396Y-121008777D01*
X157905951Y-120994194D01*
X157754495Y-120987813D01*
X157627936Y-120989445D01*
X157466050Y-120996224D01*
X157473470Y-120937245D01*
X157492762Y-120838092D01*
X157523896Y-120757372D01*
X157567731Y-120694466D01*
X157625129Y-120648756D01*
X157696952Y-120619622D01*
X157784059Y-120606447D01*
X157887314Y-120608611D01*
X157925289Y-120612612D01*
X158066480Y-120637780D01*
X158203293Y-120678814D01*
X158297822Y-120716815D01*
X158342982Y-120736190D01*
X158381415Y-120751760D01*
X158407766Y-120761405D01*
X158415454Y-120763452D01*
X158425198Y-120754374D01*
X158441917Y-120725405D01*
X158465768Y-120676217D01*
X158496907Y-120606484D01*
X158535493Y-120515879D01*
X158542090Y-120500089D01*
X158572147Y-120427772D01*
X158599126Y-120362425D01*
X158621864Y-120306906D01*
X158639194Y-120264072D01*
X158649952Y-120236781D01*
X158653059Y-120227942D01*
X158643060Y-120223187D01*
X158616783Y-120217910D01*
X158588511Y-120214231D01*
X158558354Y-120209474D01*
X158510567Y-120200028D01*
X158449388Y-120186820D01*
X158379054Y-120170776D01*
X158303806Y-120152820D01*
X158275245Y-120145797D01*
X158170184Y-120120209D01*
X158082520Y-120100147D01*
X158007932Y-120084969D01*
X157942097Y-120074035D01*
X157880693Y-120066704D01*
X157819398Y-120062335D01*
X157753890Y-120060287D01*
X157695872Y-120059889D01*
X157526426Y-120066552D01*
X157526426Y-120066552D01*
G37*
X157526426Y-120066552D02*
X157374508Y-120086567D01*
X157239244Y-120120202D01*
X157119761Y-120167725D01*
X157015185Y-120229405D01*
X156937576Y-120292965D01*
X156868735Y-120367099D01*
X156814994Y-120446871D01*
X156772090Y-120539091D01*
X156756616Y-120582161D01*
X156743756Y-120621142D01*
X156732554Y-120657289D01*
X156722880Y-120692434D01*
X156714604Y-120728410D01*
X156707597Y-120767050D01*
X156701728Y-120810185D01*
X156696869Y-120859649D01*
X156692890Y-120917273D01*
X156689660Y-120984891D01*
X156687051Y-121064334D01*
X156684933Y-121157436D01*
X156683176Y-121266027D01*
X156681651Y-121391942D01*
X156680228Y-121537012D01*
X156678975Y-121679778D01*
X156677649Y-121835968D01*
X156676444Y-121971239D01*
X156675234Y-122087246D01*
X156673894Y-122185645D01*
X156672300Y-122268093D01*
X156670325Y-122336246D01*
X156667844Y-122391760D01*
X156664731Y-122436292D01*
X156660862Y-122471498D01*
X156656111Y-122499034D01*
X156650352Y-122520556D01*
X156643461Y-122537722D01*
X156635311Y-122552186D01*
X156625777Y-122565606D01*
X156614734Y-122579638D01*
X156610434Y-122585071D01*
X156594614Y-122607910D01*
X156587578Y-122623463D01*
X156587556Y-122623922D01*
X156598433Y-122626121D01*
X156629418Y-122628147D01*
X156678043Y-122629942D01*
X156741837Y-122631451D01*
X156818331Y-122632616D01*
X156905056Y-122633380D01*
X156999543Y-122633686D01*
X157010450Y-122633689D01*
X157433343Y-122633689D01*
X157436605Y-122537622D01*
X157439867Y-122441556D01*
X157501956Y-122492543D01*
X157599286Y-122560057D01*
X157709187Y-122614749D01*
X157795651Y-122644978D01*
X157864722Y-122659666D01*
X157948075Y-122669659D01*
X158037841Y-122674646D01*
X158126155Y-122674313D01*
X158205149Y-122668351D01*
X158241378Y-122662638D01*
X158381397Y-122624776D01*
X158507822Y-122569932D01*
X158619740Y-122498924D01*
X158716238Y-122412568D01*
X158796400Y-122311679D01*
X158859313Y-122197076D01*
X158903688Y-122070984D01*
X158916022Y-122014401D01*
X158923632Y-121952202D01*
X158927261Y-121877363D01*
X158927755Y-121843467D01*
X158927690Y-121840282D01*
X158167752Y-121840282D01*
X158158459Y-121915333D01*
X158130272Y-121979160D01*
X158081803Y-122034798D01*
X158076746Y-122039211D01*
X158028452Y-122074037D01*
X157976743Y-122096620D01*
X157916011Y-122108540D01*
X157840648Y-122111383D01*
X157822541Y-122110978D01*
X157768722Y-122108325D01*
X157728692Y-122102909D01*
X157693676Y-122092745D01*
X157654897Y-122075850D01*
X157644255Y-122070672D01*
X157583604Y-122034844D01*
X157536785Y-121992212D01*
X157524048Y-121976973D01*
X157479378Y-121920462D01*
X157479378Y-121724586D01*
X157479914Y-121645939D01*
X157481604Y-121587988D01*
X157484572Y-121548875D01*
X157488943Y-121526741D01*
X157493028Y-121520274D01*
X157508953Y-121517111D01*
X157542736Y-121514488D01*
X157589660Y-121512655D01*
X157645007Y-121511857D01*
X157653894Y-121511842D01*
X157774670Y-121517096D01*
X157877340Y-121533263D01*
X157963894Y-121560961D01*
X158036319Y-121600808D01*
X158091249Y-121647758D01*
X158135796Y-121705645D01*
X158160520Y-121768693D01*
X158167752Y-121840282D01*
X158927690Y-121840282D01*
X158925822Y-121749712D01*
X158917478Y-121670812D01*
X158901232Y-121599590D01*
X158875595Y-121528864D01*
X158851599Y-121476493D01*
X158792980Y-121381196D01*
X158714883Y-121293170D01*
X158619685Y-121214017D01*
X158509762Y-121145340D01*
X158387490Y-121088741D01*
X158255245Y-121045821D01*
X158190578Y-121030882D01*
X158054396Y-121008777D01*
X157905951Y-120994194D01*
X157754495Y-120987813D01*
X157627936Y-120989445D01*
X157466050Y-120996224D01*
X157473470Y-120937245D01*
X157492762Y-120838092D01*
X157523896Y-120757372D01*
X157567731Y-120694466D01*
X157625129Y-120648756D01*
X157696952Y-120619622D01*
X157784059Y-120606447D01*
X157887314Y-120608611D01*
X157925289Y-120612612D01*
X158066480Y-120637780D01*
X158203293Y-120678814D01*
X158297822Y-120716815D01*
X158342982Y-120736190D01*
X158381415Y-120751760D01*
X158407766Y-120761405D01*
X158415454Y-120763452D01*
X158425198Y-120754374D01*
X158441917Y-120725405D01*
X158465768Y-120676217D01*
X158496907Y-120606484D01*
X158535493Y-120515879D01*
X158542090Y-120500089D01*
X158572147Y-120427772D01*
X158599126Y-120362425D01*
X158621864Y-120306906D01*
X158639194Y-120264072D01*
X158649952Y-120236781D01*
X158653059Y-120227942D01*
X158643060Y-120223187D01*
X158616783Y-120217910D01*
X158588511Y-120214231D01*
X158558354Y-120209474D01*
X158510567Y-120200028D01*
X158449388Y-120186820D01*
X158379054Y-120170776D01*
X158303806Y-120152820D01*
X158275245Y-120145797D01*
X158170184Y-120120209D01*
X158082520Y-120100147D01*
X158007932Y-120084969D01*
X157942097Y-120074035D01*
X157880693Y-120066704D01*
X157819398Y-120062335D01*
X157753890Y-120060287D01*
X157695872Y-120059889D01*
X157526426Y-120066552D01*
G36*
X159871571Y-119149071D02*
G01*
X159711430Y-119170245D01*
X159547490Y-119210385D01*
X159377687Y-119269889D01*
X159199957Y-119349154D01*
X159188690Y-119354699D01*
X159130995Y-119382725D01*
X159079448Y-119406802D01*
X159037809Y-119425249D01*
X159009838Y-119436386D01*
X159000267Y-119438933D01*
X158981050Y-119443941D01*
X158976439Y-119448147D01*
X158981542Y-119458580D01*
X158997582Y-119484868D01*
X159022712Y-119524257D01*
X159055086Y-119573991D01*
X159092857Y-119631315D01*
X159134178Y-119693476D01*
X159177202Y-119757718D01*
X159220083Y-119821285D01*
X159260974Y-119881425D01*
X159298029Y-119935380D01*
X159329400Y-119980397D01*
X159353241Y-120013721D01*
X159367706Y-120032597D01*
X159369691Y-120034787D01*
X159379809Y-120030138D01*
X159402150Y-120012962D01*
X159432720Y-119986440D01*
X159448464Y-119971964D01*
X159544953Y-119896682D01*
X159651664Y-119841241D01*
X159767168Y-119806141D01*
X159890038Y-119791880D01*
X159959439Y-119793051D01*
X160080577Y-119810212D01*
X160189795Y-119846094D01*
X160287418Y-119900959D01*
X160373772Y-119975070D01*
X160449185Y-120068688D01*
X160513982Y-120182076D01*
X160551399Y-120268667D01*
X160595252Y-120404366D01*
X160627572Y-120551850D01*
X160648443Y-120707314D01*
X160657949Y-120866956D01*
X160656173Y-121026973D01*
X160643197Y-121183561D01*
X160619106Y-121332918D01*
X160583982Y-121471240D01*
X160537908Y-121594724D01*
X160521627Y-121628978D01*
X160453380Y-121743064D01*
X160372921Y-121839557D01*
X160281430Y-121917670D01*
X160180089Y-121976617D01*
X160070080Y-122015612D01*
X159952585Y-122033868D01*
X159911117Y-122035211D01*
X159789559Y-122024290D01*
X159669122Y-121991474D01*
X159551334Y-121937439D01*
X159437723Y-121862865D01*
X159346315Y-121784539D01*
X159299785Y-121740008D01*
X159118517Y-122037271D01*
X159073420Y-122111433D01*
X159032181Y-122179646D01*
X158996265Y-122239459D01*
X158967134Y-122288420D01*
X158946250Y-122324079D01*
X158935076Y-122343984D01*
X158933625Y-122347079D01*
X158941854Y-122356718D01*
X158967433Y-122373999D01*
X159007127Y-122397283D01*
X159057703Y-122424934D01*
X159115926Y-122455315D01*
X159178563Y-122486790D01*
X159242379Y-122517722D01*
X159304140Y-122546473D01*
X159360612Y-122571408D01*
X159408562Y-122590889D01*
X159432014Y-122599318D01*
X159565779Y-122637133D01*
X159703673Y-122662136D01*
X159851378Y-122675140D01*
X159978167Y-122677468D01*
X160046122Y-122676373D01*
X160111723Y-122674275D01*
X160169153Y-122671434D01*
X160212597Y-122668106D01*
X160226702Y-122666422D01*
X160365716Y-122637587D01*
X160507243Y-122592468D01*
X160644725Y-122533750D01*
X160771606Y-122464120D01*
X160849111Y-122411441D01*
X160976519Y-122303239D01*
X161094822Y-122176671D01*
X161201828Y-122034866D01*
X161295348Y-121880951D01*
X161373190Y-121718053D01*
X161417044Y-121600756D01*
X161467292Y-121417128D01*
X161500791Y-121222581D01*
X161517551Y-121021325D01*
X161517584Y-120817568D01*
X161500899Y-120615521D01*
X161467507Y-120419392D01*
X161417420Y-120233391D01*
X161413603Y-120221803D01*
X161350719Y-120059750D01*
X161273972Y-119911832D01*
X161180758Y-119773865D01*
X161068473Y-119641661D01*
X161024608Y-119596399D01*
X160888466Y-119472457D01*
X160748509Y-119369915D01*
X160602589Y-119287656D01*
X160448558Y-119224564D01*
X160284268Y-119179523D01*
X160188711Y-119162033D01*
X160029977Y-119146466D01*
X159871571Y-119149071D01*
X159871571Y-119149071D01*
G37*
X159871571Y-119149071D02*
X159711430Y-119170245D01*
X159547490Y-119210385D01*
X159377687Y-119269889D01*
X159199957Y-119349154D01*
X159188690Y-119354699D01*
X159130995Y-119382725D01*
X159079448Y-119406802D01*
X159037809Y-119425249D01*
X159009838Y-119436386D01*
X159000267Y-119438933D01*
X158981050Y-119443941D01*
X158976439Y-119448147D01*
X158981542Y-119458580D01*
X158997582Y-119484868D01*
X159022712Y-119524257D01*
X159055086Y-119573991D01*
X159092857Y-119631315D01*
X159134178Y-119693476D01*
X159177202Y-119757718D01*
X159220083Y-119821285D01*
X159260974Y-119881425D01*
X159298029Y-119935380D01*
X159329400Y-119980397D01*
X159353241Y-120013721D01*
X159367706Y-120032597D01*
X159369691Y-120034787D01*
X159379809Y-120030138D01*
X159402150Y-120012962D01*
X159432720Y-119986440D01*
X159448464Y-119971964D01*
X159544953Y-119896682D01*
X159651664Y-119841241D01*
X159767168Y-119806141D01*
X159890038Y-119791880D01*
X159959439Y-119793051D01*
X160080577Y-119810212D01*
X160189795Y-119846094D01*
X160287418Y-119900959D01*
X160373772Y-119975070D01*
X160449185Y-120068688D01*
X160513982Y-120182076D01*
X160551399Y-120268667D01*
X160595252Y-120404366D01*
X160627572Y-120551850D01*
X160648443Y-120707314D01*
X160657949Y-120866956D01*
X160656173Y-121026973D01*
X160643197Y-121183561D01*
X160619106Y-121332918D01*
X160583982Y-121471240D01*
X160537908Y-121594724D01*
X160521627Y-121628978D01*
X160453380Y-121743064D01*
X160372921Y-121839557D01*
X160281430Y-121917670D01*
X160180089Y-121976617D01*
X160070080Y-122015612D01*
X159952585Y-122033868D01*
X159911117Y-122035211D01*
X159789559Y-122024290D01*
X159669122Y-121991474D01*
X159551334Y-121937439D01*
X159437723Y-121862865D01*
X159346315Y-121784539D01*
X159299785Y-121740008D01*
X159118517Y-122037271D01*
X159073420Y-122111433D01*
X159032181Y-122179646D01*
X158996265Y-122239459D01*
X158967134Y-122288420D01*
X158946250Y-122324079D01*
X158935076Y-122343984D01*
X158933625Y-122347079D01*
X158941854Y-122356718D01*
X158967433Y-122373999D01*
X159007127Y-122397283D01*
X159057703Y-122424934D01*
X159115926Y-122455315D01*
X159178563Y-122486790D01*
X159242379Y-122517722D01*
X159304140Y-122546473D01*
X159360612Y-122571408D01*
X159408562Y-122590889D01*
X159432014Y-122599318D01*
X159565779Y-122637133D01*
X159703673Y-122662136D01*
X159851378Y-122675140D01*
X159978167Y-122677468D01*
X160046122Y-122676373D01*
X160111723Y-122674275D01*
X160169153Y-122671434D01*
X160212597Y-122668106D01*
X160226702Y-122666422D01*
X160365716Y-122637587D01*
X160507243Y-122592468D01*
X160644725Y-122533750D01*
X160771606Y-122464120D01*
X160849111Y-122411441D01*
X160976519Y-122303239D01*
X161094822Y-122176671D01*
X161201828Y-122034866D01*
X161295348Y-121880951D01*
X161373190Y-121718053D01*
X161417044Y-121600756D01*
X161467292Y-121417128D01*
X161500791Y-121222581D01*
X161517551Y-121021325D01*
X161517584Y-120817568D01*
X161500899Y-120615521D01*
X161467507Y-120419392D01*
X161417420Y-120233391D01*
X161413603Y-120221803D01*
X161350719Y-120059750D01*
X161273972Y-119911832D01*
X161180758Y-119773865D01*
X161068473Y-119641661D01*
X161024608Y-119596399D01*
X160888466Y-119472457D01*
X160748509Y-119369915D01*
X160602589Y-119287656D01*
X160448558Y-119224564D01*
X160284268Y-119179523D01*
X160188711Y-119162033D01*
X160029977Y-119146466D01*
X159871571Y-119149071D01*
G36*
X163146400Y-118689054D02*
G01*
X163135535Y-118802993D01*
X163103918Y-118910616D01*
X163053015Y-119009615D01*
X162984293Y-119097684D01*
X162899219Y-119172516D01*
X162802232Y-119230384D01*
X162695964Y-119270005D01*
X162588950Y-119288573D01*
X162483300Y-119287434D01*
X162381125Y-119267930D01*
X162284534Y-119231406D01*
X162195638Y-119179205D01*
X162116546Y-119112673D01*
X162049369Y-119033152D01*
X161996217Y-118941987D01*
X161959199Y-118840523D01*
X161940427Y-118730102D01*
X161938489Y-118680206D01*
X161938489Y-118592267D01*
X161886560Y-118592267D01*
X161850253Y-118595111D01*
X161823355Y-118606911D01*
X161796249Y-118630649D01*
X161757867Y-118669031D01*
X161757867Y-120860602D01*
X161757876Y-121122739D01*
X161757908Y-121363241D01*
X161757972Y-121583048D01*
X161758076Y-121783101D01*
X161758227Y-121964344D01*
X161758434Y-122127716D01*
X161758706Y-122274160D01*
X161759050Y-122404617D01*
X161759474Y-122520029D01*
X161759987Y-122621338D01*
X161760597Y-122709484D01*
X161761312Y-122785410D01*
X161762140Y-122850057D01*
X161763089Y-122904367D01*
X161764167Y-122949280D01*
X161765383Y-122985740D01*
X161766745Y-123014687D01*
X161768261Y-123037063D01*
X161769938Y-123053809D01*
X161771786Y-123065868D01*
X161773813Y-123074180D01*
X161776025Y-123079687D01*
X161777108Y-123081537D01*
X161781271Y-123088549D01*
X161784805Y-123094996D01*
X161788635Y-123100900D01*
X161793682Y-123106286D01*
X161800871Y-123111178D01*
X161811123Y-123115598D01*
X161825364Y-123119572D01*
X161844514Y-123123121D01*
X161869499Y-123126270D01*
X161901240Y-123129042D01*
X161940662Y-123131461D01*
X161988686Y-123133551D01*
X162046237Y-123135335D01*
X162114237Y-123136837D01*
X162193610Y-123138080D01*
X162285279Y-123139089D01*
X162390166Y-123139885D01*
X162509196Y-123140494D01*
X162643290Y-123140939D01*
X162793373Y-123141243D01*
X162960367Y-123141430D01*
X163145196Y-123141524D01*
X163348783Y-123141548D01*
X163572050Y-123141525D01*
X163815922Y-123141480D01*
X164081321Y-123141437D01*
X164119704Y-123141432D01*
X164386682Y-123141389D01*
X164632002Y-123141318D01*
X164856583Y-123141213D01*
X165061345Y-123141066D01*
X165247206Y-123140869D01*
X165415088Y-123140616D01*
X165565908Y-123140300D01*
X165700587Y-123139913D01*
X165820044Y-123139447D01*
X165925199Y-123138897D01*
X166016971Y-123138253D01*
X166096279Y-123137511D01*
X166164043Y-123136661D01*
X166221182Y-123135697D01*
X166268617Y-123134611D01*
X166307266Y-123133397D01*
X166338049Y-123132047D01*
X166361885Y-123130555D01*
X166379694Y-123128911D01*
X166392395Y-123127111D01*
X166400908Y-123125145D01*
X166405266Y-123123477D01*
X166413728Y-123119906D01*
X166421497Y-123117270D01*
X166428602Y-123114634D01*
X166435073Y-123111062D01*
X166440939Y-123105621D01*
X166446229Y-123097375D01*
X166450974Y-123085390D01*
X166455202Y-123068731D01*
X166458943Y-123046463D01*
X166462227Y-123017652D01*
X166465083Y-122981363D01*
X166467540Y-122936661D01*
X166469629Y-122882611D01*
X166471378Y-122818279D01*
X166472817Y-122742730D01*
X166473976Y-122655030D01*
X166474883Y-122554243D01*
X166475569Y-122439434D01*
X166476063Y-122309670D01*
X166476395Y-122164015D01*
X166476593Y-122001535D01*
X166476687Y-121821295D01*
X166476708Y-121622360D01*
X166476685Y-121403796D01*
X166476646Y-121164668D01*
X166476622Y-120904040D01*
X166476622Y-120861889D01*
X166476636Y-120598992D01*
X166476661Y-120357732D01*
X166476671Y-120137165D01*
X166476642Y-119936352D01*
X166476548Y-119754349D01*
X166476362Y-119590216D01*
X166476059Y-119443011D01*
X166475614Y-119311792D01*
X166475034Y-119201867D01*
X166172197Y-119201867D01*
X166132407Y-119259711D01*
X166121236Y-119275479D01*
X166111166Y-119289441D01*
X166102138Y-119302784D01*
X166094097Y-119316693D01*
X166086986Y-119332356D01*
X166080747Y-119350958D01*
X166075325Y-119373686D01*
X166070662Y-119401727D01*
X166066701Y-119436267D01*
X166063385Y-119478492D01*
X166060659Y-119529589D01*
X166058464Y-119590744D01*
X166056745Y-119663144D01*
X166055444Y-119747975D01*
X166054505Y-119846422D01*
X166053870Y-119959674D01*
X166053484Y-120088916D01*
X166053288Y-120235334D01*
X166053227Y-120400116D01*
X166053243Y-120584447D01*
X166053280Y-120789513D01*
X166053289Y-120912133D01*
X166053265Y-121129082D01*
X166053231Y-121324642D01*
X166053243Y-121499999D01*
X166053358Y-121656341D01*
X166053630Y-121794857D01*
X166054118Y-121916734D01*
X166054876Y-122023160D01*
X166055962Y-122115322D01*
X166057431Y-122194409D01*
X166059340Y-122261608D01*
X166061744Y-122318107D01*
X166064701Y-122365093D01*
X166068266Y-122403755D01*
X166072495Y-122435280D01*
X166077446Y-122460855D01*
X166083173Y-122481670D01*
X166089733Y-122498911D01*
X166097183Y-122513765D01*
X166105579Y-122527422D01*
X166114976Y-122541069D01*
X166125432Y-122555893D01*
X166131523Y-122564783D01*
X166170296Y-122622400D01*
X165638732Y-122622400D01*
X165515483Y-122622365D01*
X165412987Y-122622215D01*
X165329420Y-122621878D01*
X165262956Y-122621286D01*
X165211771Y-122620367D01*
X165174041Y-122619051D01*
X165147940Y-122617269D01*
X165131644Y-122614951D01*
X165123328Y-122612026D01*
X165121168Y-122608424D01*
X165123339Y-122604075D01*
X165124535Y-122602645D01*
X165149685Y-122565573D01*
X165175583Y-122512772D01*
X165199192Y-122450770D01*
X165207461Y-122424357D01*
X165212078Y-122406416D01*
X165215979Y-122385355D01*
X165219248Y-122359089D01*
X165221966Y-122325532D01*
X165224215Y-122282599D01*
X165226077Y-122228204D01*
X165227636Y-122160262D01*
X165228972Y-122076688D01*
X165230169Y-121975395D01*
X165231308Y-121854300D01*
X165231685Y-121809600D01*
X165232702Y-121684449D01*
X165233460Y-121580082D01*
X165233903Y-121494707D01*
X165233970Y-121426533D01*
X165233605Y-121373765D01*
X165232748Y-121334614D01*
X165231341Y-121307285D01*
X165229325Y-121289986D01*
X165226643Y-121280926D01*
X165223236Y-121278312D01*
X165219044Y-121280351D01*
X165214571Y-121284667D01*
X165204216Y-121297602D01*
X165182158Y-121326676D01*
X165149957Y-121369759D01*
X165109174Y-121424718D01*
X165061370Y-121489423D01*
X165008105Y-121561742D01*
X164950940Y-121639544D01*
X164891437Y-121720698D01*
X164831155Y-121803072D01*
X164771655Y-121884536D01*
X164714498Y-121962957D01*
X164661245Y-122036204D01*
X164613457Y-122102147D01*
X164572693Y-122158654D01*
X164540516Y-122203593D01*
X164518485Y-122234834D01*
X164513917Y-122241466D01*
X164490996Y-122278369D01*
X164464188Y-122326359D01*
X164438789Y-122375897D01*
X164435568Y-122382577D01*
X164413890Y-122430772D01*
X164401304Y-122468334D01*
X164395574Y-122504160D01*
X164394456Y-122546200D01*
X164395090Y-122622400D01*
X163240651Y-122622400D01*
X163331815Y-122528669D01*
X163378612Y-122478775D01*
X163428899Y-122422295D01*
X163474944Y-122368026D01*
X163495369Y-122342673D01*
X163525807Y-122303128D01*
X163565862Y-122249916D01*
X163614361Y-122184667D01*
X163670135Y-122109011D01*
X163732011Y-122024577D01*
X163798819Y-121932994D01*
X163869387Y-121835892D01*
X163942545Y-121734901D01*
X164017121Y-121631650D01*
X164091944Y-121527768D01*
X164165843Y-121424885D01*
X164237646Y-121324631D01*
X164306184Y-121228636D01*
X164370284Y-121138527D01*
X164428775Y-121055936D01*
X164480486Y-120982492D01*
X164524247Y-120919824D01*
X164558885Y-120869561D01*
X164583230Y-120833334D01*
X164596111Y-120812771D01*
X164597869Y-120808668D01*
X164589910Y-120797342D01*
X164569115Y-120770162D01*
X164536847Y-120728829D01*
X164494470Y-120675044D01*
X164443347Y-120610506D01*
X164384841Y-120536918D01*
X164320314Y-120455978D01*
X164251131Y-120369388D01*
X164178653Y-120278848D01*
X164104246Y-120186060D01*
X164044517Y-120111702D01*
X163033511Y-120111702D01*
X163027602Y-120124659D01*
X163013272Y-120146908D01*
X163012225Y-120148391D01*
X162993438Y-120178544D01*
X162973791Y-120215375D01*
X162969892Y-120223511D01*
X162966356Y-120231940D01*
X162963230Y-120242059D01*
X162960486Y-120255260D01*
X162958092Y-120272938D01*
X162956019Y-120296484D01*
X162954235Y-120327293D01*
X162952712Y-120366757D01*
X162951419Y-120416269D01*
X162950326Y-120477223D01*
X162949403Y-120551011D01*
X162948619Y-120639028D01*
X162947945Y-120742665D01*
X162947350Y-120863316D01*
X162946805Y-121002374D01*
X162946279Y-121161232D01*
X162945745Y-121340089D01*
X162945206Y-121525207D01*
X162944772Y-121689145D01*
X162944509Y-121833303D01*
X162944484Y-121959079D01*
X162944765Y-122067871D01*
X162945419Y-122161077D01*
X162946514Y-122240097D01*
X162948118Y-122306328D01*
X162950297Y-122361170D01*
X162953119Y-122406021D01*
X162956651Y-122442278D01*
X162960961Y-122471341D01*
X162966117Y-122494609D01*
X162972185Y-122513479D01*
X162979233Y-122529351D01*
X162987329Y-122543622D01*
X162996540Y-122557691D01*
X163005040Y-122570158D01*
X163022176Y-122596452D01*
X163032322Y-122614037D01*
X163033511Y-122617257D01*
X163022604Y-122618334D01*
X162991411Y-122619335D01*
X162942223Y-122620235D01*
X162877333Y-122621010D01*
X162799030Y-122621637D01*
X162709607Y-122622091D01*
X162611356Y-122622349D01*
X162542445Y-122622400D01*
X162437452Y-122622180D01*
X162340610Y-122621548D01*
X162254107Y-122620549D01*
X162180132Y-122619227D01*
X162120874Y-122617626D01*
X162078520Y-122615791D01*
X162055260Y-122613765D01*
X162051378Y-122612493D01*
X162059076Y-122597591D01*
X162067074Y-122589560D01*
X162080246Y-122572434D01*
X162097485Y-122542183D01*
X162109407Y-122517622D01*
X162136045Y-122458711D01*
X162139120Y-121281845D01*
X162142195Y-120104978D01*
X162587853Y-120104978D01*
X162685670Y-120105142D01*
X162776064Y-120105611D01*
X162856630Y-120106347D01*
X162924962Y-120107316D01*
X162978656Y-120108480D01*
X163015305Y-120109803D01*
X163032504Y-120111249D01*
X163033511Y-120111702D01*
X164044517Y-120111702D01*
X164029270Y-120092722D01*
X163955090Y-120000537D01*
X163883069Y-119911204D01*
X163814569Y-119826424D01*
X163750955Y-119747898D01*
X163693588Y-119677326D01*
X163643833Y-119616409D01*
X163603052Y-119566847D01*
X163585888Y-119546178D01*
X163499596Y-119445516D01*
X163422997Y-119362259D01*
X163354183Y-119294438D01*
X163291248Y-119240089D01*
X163281867Y-119232722D01*
X163242356Y-119202117D01*
X164374116Y-119201867D01*
X164368827Y-119249844D01*
X164372130Y-119307188D01*
X164393661Y-119375463D01*
X164433635Y-119455212D01*
X164478943Y-119527495D01*
X164495161Y-119550140D01*
X164523214Y-119587696D01*
X164561430Y-119638021D01*
X164608137Y-119698973D01*
X164661661Y-119768411D01*
X164720331Y-119844194D01*
X164782475Y-119924180D01*
X164846421Y-120006228D01*
X164910495Y-120088196D01*
X164973027Y-120167943D01*
X165032343Y-120243327D01*
X165086771Y-120312207D01*
X165134639Y-120372442D01*
X165174275Y-120421889D01*
X165204006Y-120458408D01*
X165222161Y-120479858D01*
X165225220Y-120483156D01*
X165228079Y-120475149D01*
X165230293Y-120444855D01*
X165231857Y-120392556D01*
X165232767Y-120318531D01*
X165233020Y-120223063D01*
X165232613Y-120106434D01*
X165231704Y-119986445D01*
X165230382Y-119854333D01*
X165228857Y-119742594D01*
X165226881Y-119649025D01*
X165224206Y-119571419D01*
X165220582Y-119507574D01*
X165215761Y-119455283D01*
X165209494Y-119412344D01*
X165201532Y-119376551D01*
X165191627Y-119345700D01*
X165179531Y-119317586D01*
X165164993Y-119290005D01*
X165150311Y-119264966D01*
X165112314Y-119201867D01*
X166172197Y-119201867D01*
X166475034Y-119201867D01*
X166475001Y-119195617D01*
X166474195Y-119093544D01*
X166473170Y-119004633D01*
X166471900Y-118927941D01*
X166470360Y-118862527D01*
X166468524Y-118807449D01*
X166466367Y-118761765D01*
X166463863Y-118724534D01*
X166460987Y-118694813D01*
X166457713Y-118671662D01*
X166454015Y-118654139D01*
X166449869Y-118641301D01*
X166445247Y-118632208D01*
X166440126Y-118625918D01*
X166434478Y-118621488D01*
X166428279Y-118617978D01*
X166421504Y-118614445D01*
X166415508Y-118610876D01*
X166410275Y-118608300D01*
X166402099Y-118605972D01*
X166389886Y-118603878D01*
X166372541Y-118602007D01*
X166348969Y-118600347D01*
X166318077Y-118598884D01*
X166278768Y-118597608D01*
X166229950Y-118596504D01*
X166170527Y-118595561D01*
X166099404Y-118594767D01*
X166015488Y-118594109D01*
X165917683Y-118593575D01*
X165804894Y-118593153D01*
X165676029Y-118592829D01*
X165529991Y-118592592D01*
X165365686Y-118592430D01*
X165182020Y-118592330D01*
X164977897Y-118592280D01*
X164766753Y-118592267D01*
X163146400Y-118592267D01*
X163146400Y-118689054D01*
X163146400Y-118689054D01*
G37*
X163146400Y-118689054D02*
X163135535Y-118802993D01*
X163103918Y-118910616D01*
X163053015Y-119009615D01*
X162984293Y-119097684D01*
X162899219Y-119172516D01*
X162802232Y-119230384D01*
X162695964Y-119270005D01*
X162588950Y-119288573D01*
X162483300Y-119287434D01*
X162381125Y-119267930D01*
X162284534Y-119231406D01*
X162195638Y-119179205D01*
X162116546Y-119112673D01*
X162049369Y-119033152D01*
X161996217Y-118941987D01*
X161959199Y-118840523D01*
X161940427Y-118730102D01*
X161938489Y-118680206D01*
X161938489Y-118592267D01*
X161886560Y-118592267D01*
X161850253Y-118595111D01*
X161823355Y-118606911D01*
X161796249Y-118630649D01*
X161757867Y-118669031D01*
X161757867Y-120860602D01*
X161757876Y-121122739D01*
X161757908Y-121363241D01*
X161757972Y-121583048D01*
X161758076Y-121783101D01*
X161758227Y-121964344D01*
X161758434Y-122127716D01*
X161758706Y-122274160D01*
X161759050Y-122404617D01*
X161759474Y-122520029D01*
X161759987Y-122621338D01*
X161760597Y-122709484D01*
X161761312Y-122785410D01*
X161762140Y-122850057D01*
X161763089Y-122904367D01*
X161764167Y-122949280D01*
X161765383Y-122985740D01*
X161766745Y-123014687D01*
X161768261Y-123037063D01*
X161769938Y-123053809D01*
X161771786Y-123065868D01*
X161773813Y-123074180D01*
X161776025Y-123079687D01*
X161777108Y-123081537D01*
X161781271Y-123088549D01*
X161784805Y-123094996D01*
X161788635Y-123100900D01*
X161793682Y-123106286D01*
X161800871Y-123111178D01*
X161811123Y-123115598D01*
X161825364Y-123119572D01*
X161844514Y-123123121D01*
X161869499Y-123126270D01*
X161901240Y-123129042D01*
X161940662Y-123131461D01*
X161988686Y-123133551D01*
X162046237Y-123135335D01*
X162114237Y-123136837D01*
X162193610Y-123138080D01*
X162285279Y-123139089D01*
X162390166Y-123139885D01*
X162509196Y-123140494D01*
X162643290Y-123140939D01*
X162793373Y-123141243D01*
X162960367Y-123141430D01*
X163145196Y-123141524D01*
X163348783Y-123141548D01*
X163572050Y-123141525D01*
X163815922Y-123141480D01*
X164081321Y-123141437D01*
X164119704Y-123141432D01*
X164386682Y-123141389D01*
X164632002Y-123141318D01*
X164856583Y-123141213D01*
X165061345Y-123141066D01*
X165247206Y-123140869D01*
X165415088Y-123140616D01*
X165565908Y-123140300D01*
X165700587Y-123139913D01*
X165820044Y-123139447D01*
X165925199Y-123138897D01*
X166016971Y-123138253D01*
X166096279Y-123137511D01*
X166164043Y-123136661D01*
X166221182Y-123135697D01*
X166268617Y-123134611D01*
X166307266Y-123133397D01*
X166338049Y-123132047D01*
X166361885Y-123130555D01*
X166379694Y-123128911D01*
X166392395Y-123127111D01*
X166400908Y-123125145D01*
X166405266Y-123123477D01*
X166413728Y-123119906D01*
X166421497Y-123117270D01*
X166428602Y-123114634D01*
X166435073Y-123111062D01*
X166440939Y-123105621D01*
X166446229Y-123097375D01*
X166450974Y-123085390D01*
X166455202Y-123068731D01*
X166458943Y-123046463D01*
X166462227Y-123017652D01*
X166465083Y-122981363D01*
X166467540Y-122936661D01*
X166469629Y-122882611D01*
X166471378Y-122818279D01*
X166472817Y-122742730D01*
X166473976Y-122655030D01*
X166474883Y-122554243D01*
X166475569Y-122439434D01*
X166476063Y-122309670D01*
X166476395Y-122164015D01*
X166476593Y-122001535D01*
X166476687Y-121821295D01*
X166476708Y-121622360D01*
X166476685Y-121403796D01*
X166476646Y-121164668D01*
X166476622Y-120904040D01*
X166476622Y-120861889D01*
X166476636Y-120598992D01*
X166476661Y-120357732D01*
X166476671Y-120137165D01*
X166476642Y-119936352D01*
X166476548Y-119754349D01*
X166476362Y-119590216D01*
X166476059Y-119443011D01*
X166475614Y-119311792D01*
X166475034Y-119201867D01*
X166172197Y-119201867D01*
X166132407Y-119259711D01*
X166121236Y-119275479D01*
X166111166Y-119289441D01*
X166102138Y-119302784D01*
X166094097Y-119316693D01*
X166086986Y-119332356D01*
X166080747Y-119350958D01*
X166075325Y-119373686D01*
X166070662Y-119401727D01*
X166066701Y-119436267D01*
X166063385Y-119478492D01*
X166060659Y-119529589D01*
X166058464Y-119590744D01*
X166056745Y-119663144D01*
X166055444Y-119747975D01*
X166054505Y-119846422D01*
X166053870Y-119959674D01*
X166053484Y-120088916D01*
X166053288Y-120235334D01*
X166053227Y-120400116D01*
X166053243Y-120584447D01*
X166053280Y-120789513D01*
X166053289Y-120912133D01*
X166053265Y-121129082D01*
X166053231Y-121324642D01*
X166053243Y-121499999D01*
X166053358Y-121656341D01*
X166053630Y-121794857D01*
X166054118Y-121916734D01*
X166054876Y-122023160D01*
X166055962Y-122115322D01*
X166057431Y-122194409D01*
X166059340Y-122261608D01*
X166061744Y-122318107D01*
X166064701Y-122365093D01*
X166068266Y-122403755D01*
X166072495Y-122435280D01*
X166077446Y-122460855D01*
X166083173Y-122481670D01*
X166089733Y-122498911D01*
X166097183Y-122513765D01*
X166105579Y-122527422D01*
X166114976Y-122541069D01*
X166125432Y-122555893D01*
X166131523Y-122564783D01*
X166170296Y-122622400D01*
X165638732Y-122622400D01*
X165515483Y-122622365D01*
X165412987Y-122622215D01*
X165329420Y-122621878D01*
X165262956Y-122621286D01*
X165211771Y-122620367D01*
X165174041Y-122619051D01*
X165147940Y-122617269D01*
X165131644Y-122614951D01*
X165123328Y-122612026D01*
X165121168Y-122608424D01*
X165123339Y-122604075D01*
X165124535Y-122602645D01*
X165149685Y-122565573D01*
X165175583Y-122512772D01*
X165199192Y-122450770D01*
X165207461Y-122424357D01*
X165212078Y-122406416D01*
X165215979Y-122385355D01*
X165219248Y-122359089D01*
X165221966Y-122325532D01*
X165224215Y-122282599D01*
X165226077Y-122228204D01*
X165227636Y-122160262D01*
X165228972Y-122076688D01*
X165230169Y-121975395D01*
X165231308Y-121854300D01*
X165231685Y-121809600D01*
X165232702Y-121684449D01*
X165233460Y-121580082D01*
X165233903Y-121494707D01*
X165233970Y-121426533D01*
X165233605Y-121373765D01*
X165232748Y-121334614D01*
X165231341Y-121307285D01*
X165229325Y-121289986D01*
X165226643Y-121280926D01*
X165223236Y-121278312D01*
X165219044Y-121280351D01*
X165214571Y-121284667D01*
X165204216Y-121297602D01*
X165182158Y-121326676D01*
X165149957Y-121369759D01*
X165109174Y-121424718D01*
X165061370Y-121489423D01*
X165008105Y-121561742D01*
X164950940Y-121639544D01*
X164891437Y-121720698D01*
X164831155Y-121803072D01*
X164771655Y-121884536D01*
X164714498Y-121962957D01*
X164661245Y-122036204D01*
X164613457Y-122102147D01*
X164572693Y-122158654D01*
X164540516Y-122203593D01*
X164518485Y-122234834D01*
X164513917Y-122241466D01*
X164490996Y-122278369D01*
X164464188Y-122326359D01*
X164438789Y-122375897D01*
X164435568Y-122382577D01*
X164413890Y-122430772D01*
X164401304Y-122468334D01*
X164395574Y-122504160D01*
X164394456Y-122546200D01*
X164395090Y-122622400D01*
X163240651Y-122622400D01*
X163331815Y-122528669D01*
X163378612Y-122478775D01*
X163428899Y-122422295D01*
X163474944Y-122368026D01*
X163495369Y-122342673D01*
X163525807Y-122303128D01*
X163565862Y-122249916D01*
X163614361Y-122184667D01*
X163670135Y-122109011D01*
X163732011Y-122024577D01*
X163798819Y-121932994D01*
X163869387Y-121835892D01*
X163942545Y-121734901D01*
X164017121Y-121631650D01*
X164091944Y-121527768D01*
X164165843Y-121424885D01*
X164237646Y-121324631D01*
X164306184Y-121228636D01*
X164370284Y-121138527D01*
X164428775Y-121055936D01*
X164480486Y-120982492D01*
X164524247Y-120919824D01*
X164558885Y-120869561D01*
X164583230Y-120833334D01*
X164596111Y-120812771D01*
X164597869Y-120808668D01*
X164589910Y-120797342D01*
X164569115Y-120770162D01*
X164536847Y-120728829D01*
X164494470Y-120675044D01*
X164443347Y-120610506D01*
X164384841Y-120536918D01*
X164320314Y-120455978D01*
X164251131Y-120369388D01*
X164178653Y-120278848D01*
X164104246Y-120186060D01*
X164044517Y-120111702D01*
X163033511Y-120111702D01*
X163027602Y-120124659D01*
X163013272Y-120146908D01*
X163012225Y-120148391D01*
X162993438Y-120178544D01*
X162973791Y-120215375D01*
X162969892Y-120223511D01*
X162966356Y-120231940D01*
X162963230Y-120242059D01*
X162960486Y-120255260D01*
X162958092Y-120272938D01*
X162956019Y-120296484D01*
X162954235Y-120327293D01*
X162952712Y-120366757D01*
X162951419Y-120416269D01*
X162950326Y-120477223D01*
X162949403Y-120551011D01*
X162948619Y-120639028D01*
X162947945Y-120742665D01*
X162947350Y-120863316D01*
X162946805Y-121002374D01*
X162946279Y-121161232D01*
X162945745Y-121340089D01*
X162945206Y-121525207D01*
X162944772Y-121689145D01*
X162944509Y-121833303D01*
X162944484Y-121959079D01*
X162944765Y-122067871D01*
X162945419Y-122161077D01*
X162946514Y-122240097D01*
X162948118Y-122306328D01*
X162950297Y-122361170D01*
X162953119Y-122406021D01*
X162956651Y-122442278D01*
X162960961Y-122471341D01*
X162966117Y-122494609D01*
X162972185Y-122513479D01*
X162979233Y-122529351D01*
X162987329Y-122543622D01*
X162996540Y-122557691D01*
X163005040Y-122570158D01*
X163022176Y-122596452D01*
X163032322Y-122614037D01*
X163033511Y-122617257D01*
X163022604Y-122618334D01*
X162991411Y-122619335D01*
X162942223Y-122620235D01*
X162877333Y-122621010D01*
X162799030Y-122621637D01*
X162709607Y-122622091D01*
X162611356Y-122622349D01*
X162542445Y-122622400D01*
X162437452Y-122622180D01*
X162340610Y-122621548D01*
X162254107Y-122620549D01*
X162180132Y-122619227D01*
X162120874Y-122617626D01*
X162078520Y-122615791D01*
X162055260Y-122613765D01*
X162051378Y-122612493D01*
X162059076Y-122597591D01*
X162067074Y-122589560D01*
X162080246Y-122572434D01*
X162097485Y-122542183D01*
X162109407Y-122517622D01*
X162136045Y-122458711D01*
X162139120Y-121281845D01*
X162142195Y-120104978D01*
X162587853Y-120104978D01*
X162685670Y-120105142D01*
X162776064Y-120105611D01*
X162856630Y-120106347D01*
X162924962Y-120107316D01*
X162978656Y-120108480D01*
X163015305Y-120109803D01*
X163032504Y-120111249D01*
X163033511Y-120111702D01*
X164044517Y-120111702D01*
X164029270Y-120092722D01*
X163955090Y-120000537D01*
X163883069Y-119911204D01*
X163814569Y-119826424D01*
X163750955Y-119747898D01*
X163693588Y-119677326D01*
X163643833Y-119616409D01*
X163603052Y-119566847D01*
X163585888Y-119546178D01*
X163499596Y-119445516D01*
X163422997Y-119362259D01*
X163354183Y-119294438D01*
X163291248Y-119240089D01*
X163281867Y-119232722D01*
X163242356Y-119202117D01*
X164374116Y-119201867D01*
X164368827Y-119249844D01*
X164372130Y-119307188D01*
X164393661Y-119375463D01*
X164433635Y-119455212D01*
X164478943Y-119527495D01*
X164495161Y-119550140D01*
X164523214Y-119587696D01*
X164561430Y-119638021D01*
X164608137Y-119698973D01*
X164661661Y-119768411D01*
X164720331Y-119844194D01*
X164782475Y-119924180D01*
X164846421Y-120006228D01*
X164910495Y-120088196D01*
X164973027Y-120167943D01*
X165032343Y-120243327D01*
X165086771Y-120312207D01*
X165134639Y-120372442D01*
X165174275Y-120421889D01*
X165204006Y-120458408D01*
X165222161Y-120479858D01*
X165225220Y-120483156D01*
X165228079Y-120475149D01*
X165230293Y-120444855D01*
X165231857Y-120392556D01*
X165232767Y-120318531D01*
X165233020Y-120223063D01*
X165232613Y-120106434D01*
X165231704Y-119986445D01*
X165230382Y-119854333D01*
X165228857Y-119742594D01*
X165226881Y-119649025D01*
X165224206Y-119571419D01*
X165220582Y-119507574D01*
X165215761Y-119455283D01*
X165209494Y-119412344D01*
X165201532Y-119376551D01*
X165191627Y-119345700D01*
X165179531Y-119317586D01*
X165164993Y-119290005D01*
X165150311Y-119264966D01*
X165112314Y-119201867D01*
X166172197Y-119201867D01*
X166475034Y-119201867D01*
X166475001Y-119195617D01*
X166474195Y-119093544D01*
X166473170Y-119004633D01*
X166471900Y-118927941D01*
X166470360Y-118862527D01*
X166468524Y-118807449D01*
X166466367Y-118761765D01*
X166463863Y-118724534D01*
X166460987Y-118694813D01*
X166457713Y-118671662D01*
X166454015Y-118654139D01*
X166449869Y-118641301D01*
X166445247Y-118632208D01*
X166440126Y-118625918D01*
X166434478Y-118621488D01*
X166428279Y-118617978D01*
X166421504Y-118614445D01*
X166415508Y-118610876D01*
X166410275Y-118608300D01*
X166402099Y-118605972D01*
X166389886Y-118603878D01*
X166372541Y-118602007D01*
X166348969Y-118600347D01*
X166318077Y-118598884D01*
X166278768Y-118597608D01*
X166229950Y-118596504D01*
X166170527Y-118595561D01*
X166099404Y-118594767D01*
X166015488Y-118594109D01*
X165917683Y-118593575D01*
X165804894Y-118593153D01*
X165676029Y-118592829D01*
X165529991Y-118592592D01*
X165365686Y-118592430D01*
X165182020Y-118592330D01*
X164977897Y-118592280D01*
X164766753Y-118592267D01*
X163146400Y-118592267D01*
X163146400Y-118689054D01*
G36*
X153971177Y-123474533D02*
G01*
X153939798Y-123496776D01*
X153912089Y-123524485D01*
X153912089Y-123833920D01*
X153912162Y-123925799D01*
X153912505Y-123997840D01*
X153913308Y-124052780D01*
X153914759Y-124093360D01*
X153917048Y-124122317D01*
X153920364Y-124142391D01*
X153924895Y-124156321D01*
X153930831Y-124166845D01*
X153935486Y-124173100D01*
X153966217Y-124197673D01*
X154001504Y-124200341D01*
X154033755Y-124185271D01*
X154044412Y-124176374D01*
X154051536Y-124164557D01*
X154055833Y-124145526D01*
X154058009Y-124114992D01*
X154058772Y-124068662D01*
X154058845Y-124032871D01*
X154058845Y-123898045D01*
X154555556Y-123898045D01*
X154555556Y-124020700D01*
X154556069Y-124076787D01*
X154558124Y-124115333D01*
X154562492Y-124141361D01*
X154569944Y-124159897D01*
X154578953Y-124173100D01*
X154609856Y-124197604D01*
X154644804Y-124200506D01*
X154678262Y-124183089D01*
X154687396Y-124173959D01*
X154693848Y-124161855D01*
X154698103Y-124143001D01*
X154700648Y-124113620D01*
X154701971Y-124069937D01*
X154702557Y-124008175D01*
X154702625Y-123994000D01*
X154703109Y-123877631D01*
X154703359Y-123781727D01*
X154703277Y-123704177D01*
X154702769Y-123642869D01*
X154701738Y-123595690D01*
X154700087Y-123560530D01*
X154697721Y-123535276D01*
X154694543Y-123517817D01*
X154690456Y-123506041D01*
X154685366Y-123497835D01*
X154679734Y-123491645D01*
X154647872Y-123471844D01*
X154614643Y-123474533D01*
X154583265Y-123496776D01*
X154570567Y-123511126D01*
X154562474Y-123526978D01*
X154557958Y-123549554D01*
X154555994Y-123584078D01*
X154555556Y-123635776D01*
X154555556Y-123751289D01*
X154058845Y-123751289D01*
X154058845Y-123632756D01*
X154058338Y-123578148D01*
X154056302Y-123541275D01*
X154051965Y-123517307D01*
X154044553Y-123501415D01*
X154036267Y-123491645D01*
X154004406Y-123471844D01*
X153971177Y-123474533D01*
X153971177Y-123474533D01*
G37*
X153971177Y-123474533D02*
X153939798Y-123496776D01*
X153912089Y-123524485D01*
X153912089Y-123833920D01*
X153912162Y-123925799D01*
X153912505Y-123997840D01*
X153913308Y-124052780D01*
X153914759Y-124093360D01*
X153917048Y-124122317D01*
X153920364Y-124142391D01*
X153924895Y-124156321D01*
X153930831Y-124166845D01*
X153935486Y-124173100D01*
X153966217Y-124197673D01*
X154001504Y-124200341D01*
X154033755Y-124185271D01*
X154044412Y-124176374D01*
X154051536Y-124164557D01*
X154055833Y-124145526D01*
X154058009Y-124114992D01*
X154058772Y-124068662D01*
X154058845Y-124032871D01*
X154058845Y-123898045D01*
X154555556Y-123898045D01*
X154555556Y-124020700D01*
X154556069Y-124076787D01*
X154558124Y-124115333D01*
X154562492Y-124141361D01*
X154569944Y-124159897D01*
X154578953Y-124173100D01*
X154609856Y-124197604D01*
X154644804Y-124200506D01*
X154678262Y-124183089D01*
X154687396Y-124173959D01*
X154693848Y-124161855D01*
X154698103Y-124143001D01*
X154700648Y-124113620D01*
X154701971Y-124069937D01*
X154702557Y-124008175D01*
X154702625Y-123994000D01*
X154703109Y-123877631D01*
X154703359Y-123781727D01*
X154703277Y-123704177D01*
X154702769Y-123642869D01*
X154701738Y-123595690D01*
X154700087Y-123560530D01*
X154697721Y-123535276D01*
X154694543Y-123517817D01*
X154690456Y-123506041D01*
X154685366Y-123497835D01*
X154679734Y-123491645D01*
X154647872Y-123471844D01*
X154614643Y-123474533D01*
X154583265Y-123496776D01*
X154570567Y-123511126D01*
X154562474Y-123526978D01*
X154557958Y-123549554D01*
X154555994Y-123584078D01*
X154555556Y-123635776D01*
X154555556Y-123751289D01*
X154058845Y-123751289D01*
X154058845Y-123632756D01*
X154058338Y-123578148D01*
X154056302Y-123541275D01*
X154051965Y-123517307D01*
X154044553Y-123501415D01*
X154036267Y-123491645D01*
X154004406Y-123471844D01*
X153971177Y-123474533D01*
G36*
X155236935Y-123469163D02*
G01*
X155158228Y-123469542D01*
X155097137Y-123470333D01*
X155051183Y-123471670D01*
X155017886Y-123473683D01*
X154994764Y-123476506D01*
X154979338Y-123480269D01*
X154969129Y-123485105D01*
X154964187Y-123488822D01*
X154938543Y-123521358D01*
X154935441Y-123555138D01*
X154951289Y-123585826D01*
X154961652Y-123598089D01*
X154972804Y-123606450D01*
X154988965Y-123611657D01*
X155014358Y-123614457D01*
X155053202Y-123615596D01*
X155109720Y-123615821D01*
X155120820Y-123615822D01*
X155266756Y-123615822D01*
X155266756Y-123886756D01*
X155266852Y-123972154D01*
X155267289Y-124037864D01*
X155268288Y-124086774D01*
X155270072Y-124121773D01*
X155272863Y-124145749D01*
X155276883Y-124161593D01*
X155282355Y-124172191D01*
X155289334Y-124180267D01*
X155322266Y-124200112D01*
X155356646Y-124198548D01*
X155387824Y-124175906D01*
X155390114Y-124173100D01*
X155397571Y-124162492D01*
X155403253Y-124150081D01*
X155407399Y-124132850D01*
X155410250Y-124107784D01*
X155412046Y-124071867D01*
X155413028Y-124022083D01*
X155413436Y-123955417D01*
X155413511Y-123879589D01*
X155413511Y-123615822D01*
X155552873Y-123615822D01*
X155612678Y-123615418D01*
X155654082Y-123613840D01*
X155681252Y-123610547D01*
X155698354Y-123604992D01*
X155709557Y-123596631D01*
X155710917Y-123595178D01*
X155727275Y-123561939D01*
X155725828Y-123524362D01*
X155707022Y-123491645D01*
X155699750Y-123485298D01*
X155690373Y-123480266D01*
X155676391Y-123476396D01*
X155655304Y-123473537D01*
X155624611Y-123471535D01*
X155581811Y-123470239D01*
X155524405Y-123469498D01*
X155449890Y-123469158D01*
X155355767Y-123469068D01*
X155335740Y-123469067D01*
X155236935Y-123469163D01*
X155236935Y-123469163D01*
G37*
X155236935Y-123469163D02*
X155158228Y-123469542D01*
X155097137Y-123470333D01*
X155051183Y-123471670D01*
X155017886Y-123473683D01*
X154994764Y-123476506D01*
X154979338Y-123480269D01*
X154969129Y-123485105D01*
X154964187Y-123488822D01*
X154938543Y-123521358D01*
X154935441Y-123555138D01*
X154951289Y-123585826D01*
X154961652Y-123598089D01*
X154972804Y-123606450D01*
X154988965Y-123611657D01*
X155014358Y-123614457D01*
X155053202Y-123615596D01*
X155109720Y-123615821D01*
X155120820Y-123615822D01*
X155266756Y-123615822D01*
X155266756Y-123886756D01*
X155266852Y-123972154D01*
X155267289Y-124037864D01*
X155268288Y-124086774D01*
X155270072Y-124121773D01*
X155272863Y-124145749D01*
X155276883Y-124161593D01*
X155282355Y-124172191D01*
X155289334Y-124180267D01*
X155322266Y-124200112D01*
X155356646Y-124198548D01*
X155387824Y-124175906D01*
X155390114Y-124173100D01*
X155397571Y-124162492D01*
X155403253Y-124150081D01*
X155407399Y-124132850D01*
X155410250Y-124107784D01*
X155412046Y-124071867D01*
X155413028Y-124022083D01*
X155413436Y-123955417D01*
X155413511Y-123879589D01*
X155413511Y-123615822D01*
X155552873Y-123615822D01*
X155612678Y-123615418D01*
X155654082Y-123613840D01*
X155681252Y-123610547D01*
X155698354Y-123604992D01*
X155709557Y-123596631D01*
X155710917Y-123595178D01*
X155727275Y-123561939D01*
X155725828Y-123524362D01*
X155707022Y-123491645D01*
X155699750Y-123485298D01*
X155690373Y-123480266D01*
X155676391Y-123476396D01*
X155655304Y-123473537D01*
X155624611Y-123471535D01*
X155581811Y-123470239D01*
X155524405Y-123469498D01*
X155449890Y-123469158D01*
X155355767Y-123469068D01*
X155335740Y-123469067D01*
X155236935Y-123469163D01*
G36*
X156011386Y-123475877D02*
G01*
X155987673Y-123490647D01*
X155961022Y-123512227D01*
X155961022Y-123833773D01*
X155961107Y-123927830D01*
X155961471Y-124001932D01*
X155962276Y-124058704D01*
X155963687Y-124100768D01*
X155965867Y-124130748D01*
X155968979Y-124151267D01*
X155973186Y-124164949D01*
X155978652Y-124174416D01*
X155982528Y-124179082D01*
X156013966Y-124199575D01*
X156049767Y-124198739D01*
X156081127Y-124181264D01*
X156107778Y-124159684D01*
X156107778Y-123512227D01*
X156081127Y-123490647D01*
X156055406Y-123474949D01*
X156034400Y-123469067D01*
X156011386Y-123475877D01*
X156011386Y-123475877D01*
G37*
X156011386Y-123475877D02*
X155987673Y-123490647D01*
X155961022Y-123512227D01*
X155961022Y-123833773D01*
X155961107Y-123927830D01*
X155961471Y-124001932D01*
X155962276Y-124058704D01*
X155963687Y-124100768D01*
X155965867Y-124130748D01*
X155968979Y-124151267D01*
X155973186Y-124164949D01*
X155978652Y-124174416D01*
X155982528Y-124179082D01*
X156013966Y-124199575D01*
X156049767Y-124198739D01*
X156081127Y-124181264D01*
X156107778Y-124159684D01*
X156107778Y-123512227D01*
X156081127Y-123490647D01*
X156055406Y-123474949D01*
X156034400Y-123469067D01*
X156011386Y-123475877D01*
G36*
X156455335Y-123471034D02*
G01*
X156435745Y-123478035D01*
X156434990Y-123478377D01*
X156408387Y-123498678D01*
X156393730Y-123519561D01*
X156390862Y-123529352D01*
X156391004Y-123542361D01*
X156395039Y-123560895D01*
X156403854Y-123587257D01*
X156418331Y-123623752D01*
X156439355Y-123672687D01*
X156467812Y-123736365D01*
X156504585Y-123817093D01*
X156524825Y-123861216D01*
X156561375Y-123939985D01*
X156595685Y-124012423D01*
X156626448Y-124075880D01*
X156652352Y-124127708D01*
X156672090Y-124165259D01*
X156684350Y-124185884D01*
X156686776Y-124188733D01*
X156717817Y-124201302D01*
X156752879Y-124199619D01*
X156781000Y-124184332D01*
X156782146Y-124183089D01*
X156793332Y-124166154D01*
X156812096Y-124133170D01*
X156836125Y-124088380D01*
X156863103Y-124036032D01*
X156872799Y-124016742D01*
X156945986Y-123870150D01*
X157025760Y-124029393D01*
X157054233Y-124084415D01*
X157080650Y-124132132D01*
X157102852Y-124168893D01*
X157118681Y-124191044D01*
X157124046Y-124195741D01*
X157165743Y-124202102D01*
X157200151Y-124188733D01*
X157210272Y-124174446D01*
X157227786Y-124142692D01*
X157251265Y-124096597D01*
X157279280Y-124039285D01*
X157310401Y-123973880D01*
X157343201Y-123903507D01*
X157376250Y-123831291D01*
X157408119Y-123760355D01*
X157437381Y-123693825D01*
X157462605Y-123634826D01*
X157482364Y-123586481D01*
X157495228Y-123551915D01*
X157499769Y-123534253D01*
X157499723Y-123533613D01*
X157488674Y-123511388D01*
X157466590Y-123488753D01*
X157465290Y-123487768D01*
X157438147Y-123472425D01*
X157413042Y-123472574D01*
X157403632Y-123475466D01*
X157392166Y-123481718D01*
X157379990Y-123494014D01*
X157365643Y-123514908D01*
X157347664Y-123546949D01*
X157324593Y-123592688D01*
X157294970Y-123654677D01*
X157268255Y-123711898D01*
X157237520Y-123778226D01*
X157209979Y-123837874D01*
X157187062Y-123887725D01*
X157170202Y-123924664D01*
X157160827Y-123945573D01*
X157159460Y-123948845D01*
X157153311Y-123943497D01*
X157139178Y-123921109D01*
X157118943Y-123884946D01*
X157094485Y-123838277D01*
X157084752Y-123819022D01*
X157051783Y-123754004D01*
X157026357Y-123706654D01*
X157006388Y-123674219D01*
X156989790Y-123653946D01*
X156974476Y-123643082D01*
X156958360Y-123638875D01*
X156947857Y-123638400D01*
X156929330Y-123640042D01*
X156913096Y-123646831D01*
X156896965Y-123661566D01*
X156878749Y-123687044D01*
X156856261Y-123726061D01*
X156827311Y-123781414D01*
X156811338Y-123812903D01*
X156785430Y-123863087D01*
X156762833Y-123904704D01*
X156745542Y-123934242D01*
X156735550Y-123948189D01*
X156734191Y-123948770D01*
X156727739Y-123937793D01*
X156713292Y-123909290D01*
X156692297Y-123866244D01*
X156666203Y-123811638D01*
X156636454Y-123748454D01*
X156621820Y-123717071D01*
X156583750Y-123636078D01*
X156553095Y-123573756D01*
X156528263Y-123528071D01*
X156507663Y-123496989D01*
X156489702Y-123478478D01*
X156472790Y-123470504D01*
X156455335Y-123471034D01*
X156455335Y-123471034D01*
G37*
X156455335Y-123471034D02*
X156435745Y-123478035D01*
X156434990Y-123478377D01*
X156408387Y-123498678D01*
X156393730Y-123519561D01*
X156390862Y-123529352D01*
X156391004Y-123542361D01*
X156395039Y-123560895D01*
X156403854Y-123587257D01*
X156418331Y-123623752D01*
X156439355Y-123672687D01*
X156467812Y-123736365D01*
X156504585Y-123817093D01*
X156524825Y-123861216D01*
X156561375Y-123939985D01*
X156595685Y-124012423D01*
X156626448Y-124075880D01*
X156652352Y-124127708D01*
X156672090Y-124165259D01*
X156684350Y-124185884D01*
X156686776Y-124188733D01*
X156717817Y-124201302D01*
X156752879Y-124199619D01*
X156781000Y-124184332D01*
X156782146Y-124183089D01*
X156793332Y-124166154D01*
X156812096Y-124133170D01*
X156836125Y-124088380D01*
X156863103Y-124036032D01*
X156872799Y-124016742D01*
X156945986Y-123870150D01*
X157025760Y-124029393D01*
X157054233Y-124084415D01*
X157080650Y-124132132D01*
X157102852Y-124168893D01*
X157118681Y-124191044D01*
X157124046Y-124195741D01*
X157165743Y-124202102D01*
X157200151Y-124188733D01*
X157210272Y-124174446D01*
X157227786Y-124142692D01*
X157251265Y-124096597D01*
X157279280Y-124039285D01*
X157310401Y-123973880D01*
X157343201Y-123903507D01*
X157376250Y-123831291D01*
X157408119Y-123760355D01*
X157437381Y-123693825D01*
X157462605Y-123634826D01*
X157482364Y-123586481D01*
X157495228Y-123551915D01*
X157499769Y-123534253D01*
X157499723Y-123533613D01*
X157488674Y-123511388D01*
X157466590Y-123488753D01*
X157465290Y-123487768D01*
X157438147Y-123472425D01*
X157413042Y-123472574D01*
X157403632Y-123475466D01*
X157392166Y-123481718D01*
X157379990Y-123494014D01*
X157365643Y-123514908D01*
X157347664Y-123546949D01*
X157324593Y-123592688D01*
X157294970Y-123654677D01*
X157268255Y-123711898D01*
X157237520Y-123778226D01*
X157209979Y-123837874D01*
X157187062Y-123887725D01*
X157170202Y-123924664D01*
X157160827Y-123945573D01*
X157159460Y-123948845D01*
X157153311Y-123943497D01*
X157139178Y-123921109D01*
X157118943Y-123884946D01*
X157094485Y-123838277D01*
X157084752Y-123819022D01*
X157051783Y-123754004D01*
X157026357Y-123706654D01*
X157006388Y-123674219D01*
X156989790Y-123653946D01*
X156974476Y-123643082D01*
X156958360Y-123638875D01*
X156947857Y-123638400D01*
X156929330Y-123640042D01*
X156913096Y-123646831D01*
X156896965Y-123661566D01*
X156878749Y-123687044D01*
X156856261Y-123726061D01*
X156827311Y-123781414D01*
X156811338Y-123812903D01*
X156785430Y-123863087D01*
X156762833Y-123904704D01*
X156745542Y-123934242D01*
X156735550Y-123948189D01*
X156734191Y-123948770D01*
X156727739Y-123937793D01*
X156713292Y-123909290D01*
X156692297Y-123866244D01*
X156666203Y-123811638D01*
X156636454Y-123748454D01*
X156621820Y-123717071D01*
X156583750Y-123636078D01*
X156553095Y-123573756D01*
X156528263Y-123528071D01*
X156507663Y-123496989D01*
X156489702Y-123478478D01*
X156472790Y-123470504D01*
X156455335Y-123471034D01*
G36*
X159181691Y-123469275D02*
G01*
X159052712Y-123473636D01*
X158943009Y-123486861D01*
X158850774Y-123509741D01*
X158774198Y-123543070D01*
X158711473Y-123587638D01*
X158660788Y-123644236D01*
X158620337Y-123713658D01*
X158619541Y-123715351D01*
X158595399Y-123777483D01*
X158586797Y-123832509D01*
X158593769Y-123887887D01*
X158616346Y-123951073D01*
X158620628Y-123960689D01*
X158649828Y-124016966D01*
X158682644Y-124060451D01*
X158724998Y-124097417D01*
X158782810Y-124134135D01*
X158786169Y-124136052D01*
X158836496Y-124160227D01*
X158893379Y-124178282D01*
X158960473Y-124190839D01*
X159041435Y-124198522D01*
X159139918Y-124201953D01*
X159174714Y-124202251D01*
X159340406Y-124202845D01*
X159363803Y-124173100D01*
X159370743Y-124163319D01*
X159376158Y-124151897D01*
X159380235Y-124136095D01*
X159383163Y-124113175D01*
X159385133Y-124080396D01*
X159385775Y-124056089D01*
X159229156Y-124056089D01*
X159135274Y-124056089D01*
X159080336Y-124054483D01*
X159023940Y-124050255D01*
X158977655Y-124044292D01*
X158974861Y-124043790D01*
X158892652Y-124021736D01*
X158828886Y-123988600D01*
X158781548Y-123942847D01*
X158748618Y-123882939D01*
X158742892Y-123867061D01*
X158737279Y-123842333D01*
X158739709Y-123817902D01*
X158751533Y-123785400D01*
X158758660Y-123769434D01*
X158782000Y-123727006D01*
X158810120Y-123697240D01*
X158841060Y-123676511D01*
X158903034Y-123649537D01*
X158982349Y-123629998D01*
X159074747Y-123618746D01*
X159141667Y-123616270D01*
X159229156Y-123615822D01*
X159229156Y-124056089D01*
X159385775Y-124056089D01*
X159386332Y-124035021D01*
X159386950Y-123974311D01*
X159387175Y-123895526D01*
X159387200Y-123833920D01*
X159387200Y-123524485D01*
X159359491Y-123496776D01*
X159347194Y-123485544D01*
X159333897Y-123477853D01*
X159315328Y-123473040D01*
X159287214Y-123470446D01*
X159245283Y-123469410D01*
X159185263Y-123469270D01*
X159181691Y-123469275D01*
X159181691Y-123469275D01*
G37*
X159181691Y-123469275D02*
X159052712Y-123473636D01*
X158943009Y-123486861D01*
X158850774Y-123509741D01*
X158774198Y-123543070D01*
X158711473Y-123587638D01*
X158660788Y-123644236D01*
X158620337Y-123713658D01*
X158619541Y-123715351D01*
X158595399Y-123777483D01*
X158586797Y-123832509D01*
X158593769Y-123887887D01*
X158616346Y-123951073D01*
X158620628Y-123960689D01*
X158649828Y-124016966D01*
X158682644Y-124060451D01*
X158724998Y-124097417D01*
X158782810Y-124134135D01*
X158786169Y-124136052D01*
X158836496Y-124160227D01*
X158893379Y-124178282D01*
X158960473Y-124190839D01*
X159041435Y-124198522D01*
X159139918Y-124201953D01*
X159174714Y-124202251D01*
X159340406Y-124202845D01*
X159363803Y-124173100D01*
X159370743Y-124163319D01*
X159376158Y-124151897D01*
X159380235Y-124136095D01*
X159383163Y-124113175D01*
X159385133Y-124080396D01*
X159385775Y-124056089D01*
X159229156Y-124056089D01*
X159135274Y-124056089D01*
X159080336Y-124054483D01*
X159023940Y-124050255D01*
X158977655Y-124044292D01*
X158974861Y-124043790D01*
X158892652Y-124021736D01*
X158828886Y-123988600D01*
X158781548Y-123942847D01*
X158748618Y-123882939D01*
X158742892Y-123867061D01*
X158737279Y-123842333D01*
X158739709Y-123817902D01*
X158751533Y-123785400D01*
X158758660Y-123769434D01*
X158782000Y-123727006D01*
X158810120Y-123697240D01*
X158841060Y-123676511D01*
X158903034Y-123649537D01*
X158982349Y-123629998D01*
X159074747Y-123618746D01*
X159141667Y-123616270D01*
X159229156Y-123615822D01*
X159229156Y-124056089D01*
X159385775Y-124056089D01*
X159386332Y-124035021D01*
X159386950Y-123974311D01*
X159387175Y-123895526D01*
X159387200Y-123833920D01*
X159387200Y-123524485D01*
X159359491Y-123496776D01*
X159347194Y-123485544D01*
X159333897Y-123477853D01*
X159315328Y-123473040D01*
X159287214Y-123470446D01*
X159245283Y-123469410D01*
X159185263Y-123469270D01*
X159181691Y-123469275D01*
G36*
X159969657Y-123469260D02*
G01*
X159893299Y-123470174D01*
X159834783Y-123472311D01*
X159791745Y-123476175D01*
X159761817Y-123482267D01*
X159742632Y-123491090D01*
X159731824Y-123503146D01*
X159727027Y-123518939D01*
X159725873Y-123538970D01*
X159725867Y-123541335D01*
X159726869Y-123563992D01*
X159731604Y-123581503D01*
X159742667Y-123594574D01*
X159762652Y-123603913D01*
X159794154Y-123610227D01*
X159839768Y-123614222D01*
X159902087Y-123616606D01*
X159983707Y-123618086D01*
X160008723Y-123618414D01*
X160250800Y-123621467D01*
X160254186Y-123686378D01*
X160257571Y-123751289D01*
X160089424Y-123751289D01*
X160023734Y-123751531D01*
X159976828Y-123752556D01*
X159944917Y-123754811D01*
X159924209Y-123758742D01*
X159910916Y-123764798D01*
X159901245Y-123773424D01*
X159901183Y-123773493D01*
X159883644Y-123807112D01*
X159884278Y-123843448D01*
X159902686Y-123874423D01*
X159906329Y-123877607D01*
X159919259Y-123885812D01*
X159936976Y-123891521D01*
X159963430Y-123895162D01*
X160002568Y-123897167D01*
X160058338Y-123897964D01*
X160094006Y-123898045D01*
X160256445Y-123898045D01*
X160256445Y-124056089D01*
X160009839Y-124056089D01*
X159928420Y-124056231D01*
X159866590Y-124056814D01*
X159821363Y-124058068D01*
X159789752Y-124060227D01*
X159768769Y-124063523D01*
X159755427Y-124068189D01*
X159746739Y-124074457D01*
X159744550Y-124076733D01*
X159728386Y-124108280D01*
X159727203Y-124144168D01*
X159740464Y-124175285D01*
X159750957Y-124185271D01*
X159761871Y-124190769D01*
X159778783Y-124195022D01*
X159804367Y-124198180D01*
X159841299Y-124200392D01*
X159892254Y-124201806D01*
X159959906Y-124202572D01*
X160046931Y-124202838D01*
X160066606Y-124202845D01*
X160155089Y-124202787D01*
X160223773Y-124202467D01*
X160275436Y-124201667D01*
X160312855Y-124200167D01*
X160338810Y-124197749D01*
X160356078Y-124194194D01*
X160367438Y-124189282D01*
X160375668Y-124182795D01*
X160380183Y-124178138D01*
X160386979Y-124169889D01*
X160392288Y-124159669D01*
X160396294Y-124144800D01*
X160399179Y-124122602D01*
X160401126Y-124090393D01*
X160402319Y-124045496D01*
X160402939Y-123985228D01*
X160403171Y-123906911D01*
X160403200Y-123840994D01*
X160403129Y-123748628D01*
X160402792Y-123676117D01*
X160402002Y-123620737D01*
X160400574Y-123579765D01*
X160398321Y-123550478D01*
X160395057Y-123530153D01*
X160390596Y-123516066D01*
X160384752Y-123505495D01*
X160379803Y-123498811D01*
X160356406Y-123469067D01*
X160066226Y-123469067D01*
X159969657Y-123469260D01*
X159969657Y-123469260D01*
G37*
X159969657Y-123469260D02*
X159893299Y-123470174D01*
X159834783Y-123472311D01*
X159791745Y-123476175D01*
X159761817Y-123482267D01*
X159742632Y-123491090D01*
X159731824Y-123503146D01*
X159727027Y-123518939D01*
X159725873Y-123538970D01*
X159725867Y-123541335D01*
X159726869Y-123563992D01*
X159731604Y-123581503D01*
X159742667Y-123594574D01*
X159762652Y-123603913D01*
X159794154Y-123610227D01*
X159839768Y-123614222D01*
X159902087Y-123616606D01*
X159983707Y-123618086D01*
X160008723Y-123618414D01*
X160250800Y-123621467D01*
X160254186Y-123686378D01*
X160257571Y-123751289D01*
X160089424Y-123751289D01*
X160023734Y-123751531D01*
X159976828Y-123752556D01*
X159944917Y-123754811D01*
X159924209Y-123758742D01*
X159910916Y-123764798D01*
X159901245Y-123773424D01*
X159901183Y-123773493D01*
X159883644Y-123807112D01*
X159884278Y-123843448D01*
X159902686Y-123874423D01*
X159906329Y-123877607D01*
X159919259Y-123885812D01*
X159936976Y-123891521D01*
X159963430Y-123895162D01*
X160002568Y-123897167D01*
X160058338Y-123897964D01*
X160094006Y-123898045D01*
X160256445Y-123898045D01*
X160256445Y-124056089D01*
X160009839Y-124056089D01*
X159928420Y-124056231D01*
X159866590Y-124056814D01*
X159821363Y-124058068D01*
X159789752Y-124060227D01*
X159768769Y-124063523D01*
X159755427Y-124068189D01*
X159746739Y-124074457D01*
X159744550Y-124076733D01*
X159728386Y-124108280D01*
X159727203Y-124144168D01*
X159740464Y-124175285D01*
X159750957Y-124185271D01*
X159761871Y-124190769D01*
X159778783Y-124195022D01*
X159804367Y-124198180D01*
X159841299Y-124200392D01*
X159892254Y-124201806D01*
X159959906Y-124202572D01*
X160046931Y-124202838D01*
X160066606Y-124202845D01*
X160155089Y-124202787D01*
X160223773Y-124202467D01*
X160275436Y-124201667D01*
X160312855Y-124200167D01*
X160338810Y-124197749D01*
X160356078Y-124194194D01*
X160367438Y-124189282D01*
X160375668Y-124182795D01*
X160380183Y-124178138D01*
X160386979Y-124169889D01*
X160392288Y-124159669D01*
X160396294Y-124144800D01*
X160399179Y-124122602D01*
X160401126Y-124090393D01*
X160402319Y-124045496D01*
X160402939Y-123985228D01*
X160403171Y-123906911D01*
X160403200Y-123840994D01*
X160403129Y-123748628D01*
X160402792Y-123676117D01*
X160402002Y-123620737D01*
X160400574Y-123579765D01*
X160398321Y-123550478D01*
X160395057Y-123530153D01*
X160390596Y-123516066D01*
X160384752Y-123505495D01*
X160379803Y-123498811D01*
X160356406Y-123469067D01*
X160066226Y-123469067D01*
X159969657Y-123469260D01*
G36*
X161500114Y-123473448D02*
G01*
X161476548Y-123487273D01*
X161445735Y-123509881D01*
X161406078Y-123542338D01*
X161355980Y-123585708D01*
X161293843Y-123641058D01*
X161218072Y-123709451D01*
X161131334Y-123788084D01*
X160950711Y-123951878D01*
X160945067Y-123732029D01*
X160943029Y-123656351D01*
X160941063Y-123599994D01*
X160938734Y-123559706D01*
X160935606Y-123532235D01*
X160931245Y-123514329D01*
X160925216Y-123502737D01*
X160917084Y-123494208D01*
X160912772Y-123490623D01*
X160878241Y-123471670D01*
X160845383Y-123474441D01*
X160819318Y-123490633D01*
X160792667Y-123512199D01*
X160789352Y-123827151D01*
X160788435Y-123919779D01*
X160787968Y-123992544D01*
X160788113Y-124048161D01*
X160789032Y-124089342D01*
X160790887Y-124118803D01*
X160793839Y-124139255D01*
X160798050Y-124153413D01*
X160803682Y-124163991D01*
X160809927Y-124172474D01*
X160823439Y-124188207D01*
X160836883Y-124198636D01*
X160852124Y-124202639D01*
X160871026Y-124199094D01*
X160895455Y-124186879D01*
X160927273Y-124164871D01*
X160968348Y-124131949D01*
X161020542Y-124086991D01*
X161085722Y-124028875D01*
X161159556Y-123962099D01*
X161424845Y-123721458D01*
X161430489Y-123940589D01*
X161432531Y-124016128D01*
X161434502Y-124072354D01*
X161436839Y-124112524D01*
X161439981Y-124139896D01*
X161444364Y-124157728D01*
X161450424Y-124169279D01*
X161458600Y-124177807D01*
X161462784Y-124181282D01*
X161499765Y-124200372D01*
X161534708Y-124197493D01*
X161565136Y-124173100D01*
X161572097Y-124163286D01*
X161577523Y-124151826D01*
X161581603Y-124135968D01*
X161584529Y-124112963D01*
X161586492Y-124080062D01*
X161587683Y-124034516D01*
X161588292Y-123973573D01*
X161588511Y-123894486D01*
X161588534Y-123835956D01*
X161588460Y-123744407D01*
X161588113Y-123672687D01*
X161587301Y-123618045D01*
X161585833Y-123577732D01*
X161583519Y-123548998D01*
X161580167Y-123529093D01*
X161575588Y-123515268D01*
X161569589Y-123504772D01*
X161565136Y-123498811D01*
X161553850Y-123484691D01*
X161543301Y-123474029D01*
X161531893Y-123467892D01*
X161518030Y-123467343D01*
X161500114Y-123473448D01*
X161500114Y-123473448D01*
G37*
X161500114Y-123473448D02*
X161476548Y-123487273D01*
X161445735Y-123509881D01*
X161406078Y-123542338D01*
X161355980Y-123585708D01*
X161293843Y-123641058D01*
X161218072Y-123709451D01*
X161131334Y-123788084D01*
X160950711Y-123951878D01*
X160945067Y-123732029D01*
X160943029Y-123656351D01*
X160941063Y-123599994D01*
X160938734Y-123559706D01*
X160935606Y-123532235D01*
X160931245Y-123514329D01*
X160925216Y-123502737D01*
X160917084Y-123494208D01*
X160912772Y-123490623D01*
X160878241Y-123471670D01*
X160845383Y-123474441D01*
X160819318Y-123490633D01*
X160792667Y-123512199D01*
X160789352Y-123827151D01*
X160788435Y-123919779D01*
X160787968Y-123992544D01*
X160788113Y-124048161D01*
X160789032Y-124089342D01*
X160790887Y-124118803D01*
X160793839Y-124139255D01*
X160798050Y-124153413D01*
X160803682Y-124163991D01*
X160809927Y-124172474D01*
X160823439Y-124188207D01*
X160836883Y-124198636D01*
X160852124Y-124202639D01*
X160871026Y-124199094D01*
X160895455Y-124186879D01*
X160927273Y-124164871D01*
X160968348Y-124131949D01*
X161020542Y-124086991D01*
X161085722Y-124028875D01*
X161159556Y-123962099D01*
X161424845Y-123721458D01*
X161430489Y-123940589D01*
X161432531Y-124016128D01*
X161434502Y-124072354D01*
X161436839Y-124112524D01*
X161439981Y-124139896D01*
X161444364Y-124157728D01*
X161450424Y-124169279D01*
X161458600Y-124177807D01*
X161462784Y-124181282D01*
X161499765Y-124200372D01*
X161534708Y-124197493D01*
X161565136Y-124173100D01*
X161572097Y-124163286D01*
X161577523Y-124151826D01*
X161581603Y-124135968D01*
X161584529Y-124112963D01*
X161586492Y-124080062D01*
X161587683Y-124034516D01*
X161588292Y-123973573D01*
X161588511Y-123894486D01*
X161588534Y-123835956D01*
X161588460Y-123744407D01*
X161588113Y-123672687D01*
X161587301Y-123618045D01*
X161585833Y-123577732D01*
X161583519Y-123548998D01*
X161580167Y-123529093D01*
X161575588Y-123515268D01*
X161569589Y-123504772D01*
X161565136Y-123498811D01*
X161553850Y-123484691D01*
X161543301Y-123474029D01*
X161531893Y-123467892D01*
X161518030Y-123467343D01*
X161500114Y-123473448D01*
G36*
X162150081Y-123474599D02*
G01*
X162081565Y-123486095D01*
X162028943Y-123503967D01*
X161994708Y-123527499D01*
X161985379Y-123540924D01*
X161975893Y-123572148D01*
X161982277Y-123600395D01*
X162002430Y-123627182D01*
X162033745Y-123639713D01*
X162079183Y-123638696D01*
X162114326Y-123631906D01*
X162192419Y-123618971D01*
X162272226Y-123617742D01*
X162361555Y-123628241D01*
X162386229Y-123632690D01*
X162469291Y-123656108D01*
X162534273Y-123690945D01*
X162580461Y-123736604D01*
X162607145Y-123792494D01*
X162612663Y-123821388D01*
X162609051Y-123880012D01*
X162585729Y-123931879D01*
X162544824Y-123975978D01*
X162488459Y-124011299D01*
X162418760Y-124036829D01*
X162337852Y-124051559D01*
X162247860Y-124054478D01*
X162150910Y-124044575D01*
X162145436Y-124043641D01*
X162106875Y-124036459D01*
X162085494Y-124029521D01*
X162076227Y-124019227D01*
X162074006Y-124001976D01*
X162073956Y-123992841D01*
X162073956Y-123954489D01*
X162142431Y-123954489D01*
X162202900Y-123950347D01*
X162244165Y-123937147D01*
X162268175Y-123913730D01*
X162276877Y-123878936D01*
X162276983Y-123874394D01*
X162271892Y-123844654D01*
X162254433Y-123823419D01*
X162221939Y-123809366D01*
X162171743Y-123801173D01*
X162123123Y-123798161D01*
X162052456Y-123796433D01*
X162001198Y-123799070D01*
X161966239Y-123808800D01*
X161944470Y-123828353D01*
X161932780Y-123860456D01*
X161928060Y-123907838D01*
X161927200Y-123970071D01*
X161928609Y-124039535D01*
X161932848Y-124086786D01*
X161939936Y-124112012D01*
X161941311Y-124113988D01*
X161980228Y-124145508D01*
X162037286Y-124170470D01*
X162108869Y-124188340D01*
X162191358Y-124198586D01*
X162281139Y-124200673D01*
X162374592Y-124194068D01*
X162429556Y-124185956D01*
X162515766Y-124161554D01*
X162595892Y-124121662D01*
X162662977Y-124069887D01*
X162673173Y-124059539D01*
X162706302Y-124016035D01*
X162736194Y-123962118D01*
X162759357Y-123905592D01*
X162772298Y-123854259D01*
X162773858Y-123834544D01*
X162767218Y-123793419D01*
X162749568Y-123742252D01*
X162724297Y-123688394D01*
X162694789Y-123639195D01*
X162668719Y-123606334D01*
X162607765Y-123557452D01*
X162528969Y-123518545D01*
X162435157Y-123490494D01*
X162329150Y-123474179D01*
X162232000Y-123470192D01*
X162150081Y-123474599D01*
X162150081Y-123474599D01*
G37*
X162150081Y-123474599D02*
X162081565Y-123486095D01*
X162028943Y-123503967D01*
X161994708Y-123527499D01*
X161985379Y-123540924D01*
X161975893Y-123572148D01*
X161982277Y-123600395D01*
X162002430Y-123627182D01*
X162033745Y-123639713D01*
X162079183Y-123638696D01*
X162114326Y-123631906D01*
X162192419Y-123618971D01*
X162272226Y-123617742D01*
X162361555Y-123628241D01*
X162386229Y-123632690D01*
X162469291Y-123656108D01*
X162534273Y-123690945D01*
X162580461Y-123736604D01*
X162607145Y-123792494D01*
X162612663Y-123821388D01*
X162609051Y-123880012D01*
X162585729Y-123931879D01*
X162544824Y-123975978D01*
X162488459Y-124011299D01*
X162418760Y-124036829D01*
X162337852Y-124051559D01*
X162247860Y-124054478D01*
X162150910Y-124044575D01*
X162145436Y-124043641D01*
X162106875Y-124036459D01*
X162085494Y-124029521D01*
X162076227Y-124019227D01*
X162074006Y-124001976D01*
X162073956Y-123992841D01*
X162073956Y-123954489D01*
X162142431Y-123954489D01*
X162202900Y-123950347D01*
X162244165Y-123937147D01*
X162268175Y-123913730D01*
X162276877Y-123878936D01*
X162276983Y-123874394D01*
X162271892Y-123844654D01*
X162254433Y-123823419D01*
X162221939Y-123809366D01*
X162171743Y-123801173D01*
X162123123Y-123798161D01*
X162052456Y-123796433D01*
X162001198Y-123799070D01*
X161966239Y-123808800D01*
X161944470Y-123828353D01*
X161932780Y-123860456D01*
X161928060Y-123907838D01*
X161927200Y-123970071D01*
X161928609Y-124039535D01*
X161932848Y-124086786D01*
X161939936Y-124112012D01*
X161941311Y-124113988D01*
X161980228Y-124145508D01*
X162037286Y-124170470D01*
X162108869Y-124188340D01*
X162191358Y-124198586D01*
X162281139Y-124200673D01*
X162374592Y-124194068D01*
X162429556Y-124185956D01*
X162515766Y-124161554D01*
X162595892Y-124121662D01*
X162662977Y-124069887D01*
X162673173Y-124059539D01*
X162706302Y-124016035D01*
X162736194Y-123962118D01*
X162759357Y-123905592D01*
X162772298Y-123854259D01*
X162773858Y-123834544D01*
X162767218Y-123793419D01*
X162749568Y-123742252D01*
X162724297Y-123688394D01*
X162694789Y-123639195D01*
X162668719Y-123606334D01*
X162607765Y-123557452D01*
X162528969Y-123518545D01*
X162435157Y-123490494D01*
X162329150Y-123474179D01*
X162232000Y-123470192D01*
X162150081Y-123474599D01*
G36*
X163123822Y-123491645D02*
G01*
X163117242Y-123499218D01*
X163112079Y-123508987D01*
X163108164Y-123523571D01*
X163105324Y-123545585D01*
X163103387Y-123577648D01*
X163102183Y-123622375D01*
X163101539Y-123682385D01*
X163101284Y-123760294D01*
X163101245Y-123835956D01*
X163101314Y-123929802D01*
X163101638Y-124003689D01*
X163102386Y-124060232D01*
X163103732Y-124102049D01*
X163105846Y-124131757D01*
X163108900Y-124151973D01*
X163113066Y-124165314D01*
X163118516Y-124174398D01*
X163123822Y-124180267D01*
X163156826Y-124199947D01*
X163191991Y-124198181D01*
X163223455Y-124176717D01*
X163230684Y-124168337D01*
X163236334Y-124158614D01*
X163240599Y-124144861D01*
X163243673Y-124124389D01*
X163245752Y-124094512D01*
X163247030Y-124052541D01*
X163247701Y-123995789D01*
X163247959Y-123921567D01*
X163248000Y-123837537D01*
X163248000Y-123524485D01*
X163220291Y-123496776D01*
X163186137Y-123473463D01*
X163153006Y-123472623D01*
X163123822Y-123491645D01*
X163123822Y-123491645D01*
G37*
X163123822Y-123491645D02*
X163117242Y-123499218D01*
X163112079Y-123508987D01*
X163108164Y-123523571D01*
X163105324Y-123545585D01*
X163103387Y-123577648D01*
X163102183Y-123622375D01*
X163101539Y-123682385D01*
X163101284Y-123760294D01*
X163101245Y-123835956D01*
X163101314Y-123929802D01*
X163101638Y-124003689D01*
X163102386Y-124060232D01*
X163103732Y-124102049D01*
X163105846Y-124131757D01*
X163108900Y-124151973D01*
X163113066Y-124165314D01*
X163118516Y-124174398D01*
X163123822Y-124180267D01*
X163156826Y-124199947D01*
X163191991Y-124198181D01*
X163223455Y-124176717D01*
X163230684Y-124168337D01*
X163236334Y-124158614D01*
X163240599Y-124144861D01*
X163243673Y-124124389D01*
X163245752Y-124094512D01*
X163247030Y-124052541D01*
X163247701Y-123995789D01*
X163247959Y-123921567D01*
X163248000Y-123837537D01*
X163248000Y-123524485D01*
X163220291Y-123496776D01*
X163186137Y-123473463D01*
X163153006Y-123472623D01*
X163123822Y-123491645D01*
G36*
X163891703Y-123470351D02*
G01*
X163816888Y-123475581D01*
X163747306Y-123483750D01*
X163687002Y-123494550D01*
X163640020Y-123507673D01*
X163610406Y-123522813D01*
X163605860Y-123527269D01*
X163590054Y-123561850D01*
X163594847Y-123597351D01*
X163619364Y-123627725D01*
X163620534Y-123628596D01*
X163634954Y-123637954D01*
X163650008Y-123642876D01*
X163671005Y-123643473D01*
X163703257Y-123639861D01*
X163752073Y-123632154D01*
X163756000Y-123631505D01*
X163828739Y-123622569D01*
X163907217Y-123618161D01*
X163985927Y-123618119D01*
X164059361Y-123622279D01*
X164122011Y-123630479D01*
X164168370Y-123642557D01*
X164171416Y-123643771D01*
X164205048Y-123662615D01*
X164216864Y-123681685D01*
X164207614Y-123700439D01*
X164178047Y-123718337D01*
X164128911Y-123734837D01*
X164060957Y-123749396D01*
X164015645Y-123756406D01*
X163921456Y-123769889D01*
X163846544Y-123782214D01*
X163787717Y-123794449D01*
X163741785Y-123807661D01*
X163705555Y-123822917D01*
X163675838Y-123841285D01*
X163649442Y-123863831D01*
X163628230Y-123885971D01*
X163603065Y-123916819D01*
X163590681Y-123943345D01*
X163586808Y-123976026D01*
X163586667Y-123987995D01*
X163589576Y-124027712D01*
X163601202Y-124057259D01*
X163621323Y-124083486D01*
X163662216Y-124123576D01*
X163707817Y-124154149D01*
X163761513Y-124176203D01*
X163826692Y-124190735D01*
X163906744Y-124198741D01*
X164005057Y-124201218D01*
X164021289Y-124201177D01*
X164086849Y-124199818D01*
X164151866Y-124196730D01*
X164209252Y-124192356D01*
X164251922Y-124187140D01*
X164255372Y-124186541D01*
X164297796Y-124176491D01*
X164333780Y-124163796D01*
X164354150Y-124152190D01*
X164373107Y-124121572D01*
X164374427Y-124085918D01*
X164358085Y-124054144D01*
X164354429Y-124050551D01*
X164339315Y-124039876D01*
X164320415Y-124035276D01*
X164291162Y-124036059D01*
X164255651Y-124040127D01*
X164215970Y-124043762D01*
X164160345Y-124046828D01*
X164095406Y-124049053D01*
X164027785Y-124050164D01*
X164010000Y-124050237D01*
X163942128Y-124049964D01*
X163892454Y-124048646D01*
X163856610Y-124045827D01*
X163830224Y-124041050D01*
X163808926Y-124033857D01*
X163796126Y-124027867D01*
X163768000Y-124011233D01*
X163750068Y-123996168D01*
X163747447Y-123991897D01*
X163752976Y-123974263D01*
X163779260Y-123957192D01*
X163824478Y-123941458D01*
X163886808Y-123927838D01*
X163905171Y-123924804D01*
X164001090Y-123909738D01*
X164077641Y-123897146D01*
X164137780Y-123886111D01*
X164184460Y-123875720D01*
X164220637Y-123865056D01*
X164249265Y-123853205D01*
X164273298Y-123839251D01*
X164295692Y-123822281D01*
X164319402Y-123801378D01*
X164327380Y-123794049D01*
X164355353Y-123766699D01*
X164370160Y-123745029D01*
X164375952Y-123720232D01*
X164376889Y-123688983D01*
X164366575Y-123627705D01*
X164335752Y-123575640D01*
X164284595Y-123532958D01*
X164213283Y-123499825D01*
X164162400Y-123484964D01*
X164107100Y-123475366D01*
X164040853Y-123469936D01*
X163967706Y-123468367D01*
X163891703Y-123470351D01*
X163891703Y-123470351D01*
G37*
X163891703Y-123470351D02*
X163816888Y-123475581D01*
X163747306Y-123483750D01*
X163687002Y-123494550D01*
X163640020Y-123507673D01*
X163610406Y-123522813D01*
X163605860Y-123527269D01*
X163590054Y-123561850D01*
X163594847Y-123597351D01*
X163619364Y-123627725D01*
X163620534Y-123628596D01*
X163634954Y-123637954D01*
X163650008Y-123642876D01*
X163671005Y-123643473D01*
X163703257Y-123639861D01*
X163752073Y-123632154D01*
X163756000Y-123631505D01*
X163828739Y-123622569D01*
X163907217Y-123618161D01*
X163985927Y-123618119D01*
X164059361Y-123622279D01*
X164122011Y-123630479D01*
X164168370Y-123642557D01*
X164171416Y-123643771D01*
X164205048Y-123662615D01*
X164216864Y-123681685D01*
X164207614Y-123700439D01*
X164178047Y-123718337D01*
X164128911Y-123734837D01*
X164060957Y-123749396D01*
X164015645Y-123756406D01*
X163921456Y-123769889D01*
X163846544Y-123782214D01*
X163787717Y-123794449D01*
X163741785Y-123807661D01*
X163705555Y-123822917D01*
X163675838Y-123841285D01*
X163649442Y-123863831D01*
X163628230Y-123885971D01*
X163603065Y-123916819D01*
X163590681Y-123943345D01*
X163586808Y-123976026D01*
X163586667Y-123987995D01*
X163589576Y-124027712D01*
X163601202Y-124057259D01*
X163621323Y-124083486D01*
X163662216Y-124123576D01*
X163707817Y-124154149D01*
X163761513Y-124176203D01*
X163826692Y-124190735D01*
X163906744Y-124198741D01*
X164005057Y-124201218D01*
X164021289Y-124201177D01*
X164086849Y-124199818D01*
X164151866Y-124196730D01*
X164209252Y-124192356D01*
X164251922Y-124187140D01*
X164255372Y-124186541D01*
X164297796Y-124176491D01*
X164333780Y-124163796D01*
X164354150Y-124152190D01*
X164373107Y-124121572D01*
X164374427Y-124085918D01*
X164358085Y-124054144D01*
X164354429Y-124050551D01*
X164339315Y-124039876D01*
X164320415Y-124035276D01*
X164291162Y-124036059D01*
X164255651Y-124040127D01*
X164215970Y-124043762D01*
X164160345Y-124046828D01*
X164095406Y-124049053D01*
X164027785Y-124050164D01*
X164010000Y-124050237D01*
X163942128Y-124049964D01*
X163892454Y-124048646D01*
X163856610Y-124045827D01*
X163830224Y-124041050D01*
X163808926Y-124033857D01*
X163796126Y-124027867D01*
X163768000Y-124011233D01*
X163750068Y-123996168D01*
X163747447Y-123991897D01*
X163752976Y-123974263D01*
X163779260Y-123957192D01*
X163824478Y-123941458D01*
X163886808Y-123927838D01*
X163905171Y-123924804D01*
X164001090Y-123909738D01*
X164077641Y-123897146D01*
X164137780Y-123886111D01*
X164184460Y-123875720D01*
X164220637Y-123865056D01*
X164249265Y-123853205D01*
X164273298Y-123839251D01*
X164295692Y-123822281D01*
X164319402Y-123801378D01*
X164327380Y-123794049D01*
X164355353Y-123766699D01*
X164370160Y-123745029D01*
X164375952Y-123720232D01*
X164376889Y-123688983D01*
X164366575Y-123627705D01*
X164335752Y-123575640D01*
X164284595Y-123532958D01*
X164213283Y-123499825D01*
X164162400Y-123484964D01*
X164107100Y-123475366D01*
X164040853Y-123469936D01*
X163967706Y-123468367D01*
X163891703Y-123470351D01*
G36*
X164912794Y-123469146D02*
G01*
X164843386Y-123469518D01*
X164790997Y-123470385D01*
X164752847Y-123471946D01*
X164726159Y-123474403D01*
X164708153Y-123477957D01*
X164696049Y-123482810D01*
X164687069Y-123489161D01*
X164683818Y-123492084D01*
X164664043Y-123523142D01*
X164660482Y-123558828D01*
X164673491Y-123590510D01*
X164679506Y-123596913D01*
X164689235Y-123603121D01*
X164704901Y-123607910D01*
X164729408Y-123611514D01*
X164765661Y-123614164D01*
X164816565Y-123616095D01*
X164885026Y-123617539D01*
X164947617Y-123618418D01*
X165195334Y-123621467D01*
X165198719Y-123686378D01*
X165202105Y-123751289D01*
X165033958Y-123751289D01*
X164960959Y-123751919D01*
X164907517Y-123754553D01*
X164870628Y-123760309D01*
X164847288Y-123770304D01*
X164834494Y-123785656D01*
X164829242Y-123807482D01*
X164828445Y-123827738D01*
X164830923Y-123852592D01*
X164840277Y-123870906D01*
X164859383Y-123883637D01*
X164891118Y-123891741D01*
X164938359Y-123896176D01*
X165003983Y-123897899D01*
X165039801Y-123898045D01*
X165200978Y-123898045D01*
X165200978Y-124056089D01*
X164952622Y-124056089D01*
X164871213Y-124056202D01*
X164809342Y-124056712D01*
X164763968Y-124057870D01*
X164732054Y-124059930D01*
X164710559Y-124063146D01*
X164696443Y-124067772D01*
X164686668Y-124074059D01*
X164681689Y-124078667D01*
X164664610Y-124105560D01*
X164659111Y-124129467D01*
X164666963Y-124158667D01*
X164681689Y-124180267D01*
X164689546Y-124187066D01*
X164699688Y-124192346D01*
X164714844Y-124196298D01*
X164737741Y-124199113D01*
X164771109Y-124200982D01*
X164817675Y-124202098D01*
X164880167Y-124202651D01*
X164961314Y-124202833D01*
X165003422Y-124202845D01*
X165093598Y-124202765D01*
X165163924Y-124202398D01*
X165217129Y-124201552D01*
X165255940Y-124200036D01*
X165283087Y-124197659D01*
X165301298Y-124194229D01*
X165313300Y-124189554D01*
X165321822Y-124183444D01*
X165325156Y-124180267D01*
X165331755Y-124172670D01*
X165336927Y-124162870D01*
X165340846Y-124148239D01*
X165343684Y-124126152D01*
X165345615Y-124093982D01*
X165346812Y-124049103D01*
X165347448Y-123988889D01*
X165347697Y-123910713D01*
X165347734Y-123837923D01*
X165347700Y-123744707D01*
X165347465Y-123671431D01*
X165346830Y-123615458D01*
X165345594Y-123574151D01*
X165343556Y-123544872D01*
X165340517Y-123524984D01*
X165336277Y-123511850D01*
X165330635Y-123502832D01*
X165323391Y-123495293D01*
X165321606Y-123493612D01*
X165312945Y-123486172D01*
X165302882Y-123480409D01*
X165288625Y-123476112D01*
X165267383Y-123473064D01*
X165236364Y-123471051D01*
X165192777Y-123469860D01*
X165133831Y-123469275D01*
X165056734Y-123469083D01*
X165002001Y-123469067D01*
X164912794Y-123469146D01*
X164912794Y-123469146D01*
G37*
X164912794Y-123469146D02*
X164843386Y-123469518D01*
X164790997Y-123470385D01*
X164752847Y-123471946D01*
X164726159Y-123474403D01*
X164708153Y-123477957D01*
X164696049Y-123482810D01*
X164687069Y-123489161D01*
X164683818Y-123492084D01*
X164664043Y-123523142D01*
X164660482Y-123558828D01*
X164673491Y-123590510D01*
X164679506Y-123596913D01*
X164689235Y-123603121D01*
X164704901Y-123607910D01*
X164729408Y-123611514D01*
X164765661Y-123614164D01*
X164816565Y-123616095D01*
X164885026Y-123617539D01*
X164947617Y-123618418D01*
X165195334Y-123621467D01*
X165198719Y-123686378D01*
X165202105Y-123751289D01*
X165033958Y-123751289D01*
X164960959Y-123751919D01*
X164907517Y-123754553D01*
X164870628Y-123760309D01*
X164847288Y-123770304D01*
X164834494Y-123785656D01*
X164829242Y-123807482D01*
X164828445Y-123827738D01*
X164830923Y-123852592D01*
X164840277Y-123870906D01*
X164859383Y-123883637D01*
X164891118Y-123891741D01*
X164938359Y-123896176D01*
X165003983Y-123897899D01*
X165039801Y-123898045D01*
X165200978Y-123898045D01*
X165200978Y-124056089D01*
X164952622Y-124056089D01*
X164871213Y-124056202D01*
X164809342Y-124056712D01*
X164763968Y-124057870D01*
X164732054Y-124059930D01*
X164710559Y-124063146D01*
X164696443Y-124067772D01*
X164686668Y-124074059D01*
X164681689Y-124078667D01*
X164664610Y-124105560D01*
X164659111Y-124129467D01*
X164666963Y-124158667D01*
X164681689Y-124180267D01*
X164689546Y-124187066D01*
X164699688Y-124192346D01*
X164714844Y-124196298D01*
X164737741Y-124199113D01*
X164771109Y-124200982D01*
X164817675Y-124202098D01*
X164880167Y-124202651D01*
X164961314Y-124202833D01*
X165003422Y-124202845D01*
X165093598Y-124202765D01*
X165163924Y-124202398D01*
X165217129Y-124201552D01*
X165255940Y-124200036D01*
X165283087Y-124197659D01*
X165301298Y-124194229D01*
X165313300Y-124189554D01*
X165321822Y-124183444D01*
X165325156Y-124180267D01*
X165331755Y-124172670D01*
X165336927Y-124162870D01*
X165340846Y-124148239D01*
X165343684Y-124126152D01*
X165345615Y-124093982D01*
X165346812Y-124049103D01*
X165347448Y-123988889D01*
X165347697Y-123910713D01*
X165347734Y-123837923D01*
X165347700Y-123744707D01*
X165347465Y-123671431D01*
X165346830Y-123615458D01*
X165345594Y-123574151D01*
X165343556Y-123544872D01*
X165340517Y-123524984D01*
X165336277Y-123511850D01*
X165330635Y-123502832D01*
X165323391Y-123495293D01*
X165321606Y-123493612D01*
X165312945Y-123486172D01*
X165302882Y-123480409D01*
X165288625Y-123476112D01*
X165267383Y-123473064D01*
X165236364Y-123471051D01*
X165192777Y-123469860D01*
X165133831Y-123469275D01*
X165056734Y-123469083D01*
X165002001Y-123469067D01*
X164912794Y-123469146D01*
G36*
X166321371Y-123469066D02*
G01*
X166281889Y-123469467D01*
X166166200Y-123472259D01*
X166069311Y-123480550D01*
X165987919Y-123495232D01*
X165918723Y-123517193D01*
X165858420Y-123547322D01*
X165803708Y-123586510D01*
X165784167Y-123603532D01*
X165751750Y-123643363D01*
X165722520Y-123697413D01*
X165699991Y-123757323D01*
X165687679Y-123814739D01*
X165686400Y-123835956D01*
X165694417Y-123894769D01*
X165715899Y-123959013D01*
X165746999Y-124019821D01*
X165783866Y-124068330D01*
X165789854Y-124074182D01*
X165840579Y-124115321D01*
X165896125Y-124147435D01*
X165959696Y-124171365D01*
X166034494Y-124187953D01*
X166123722Y-124198041D01*
X166230582Y-124202469D01*
X166279528Y-124202845D01*
X166341762Y-124202545D01*
X166385528Y-124201292D01*
X166414931Y-124198554D01*
X166434079Y-124193801D01*
X166447077Y-124186501D01*
X166454045Y-124180267D01*
X166460626Y-124172694D01*
X166465788Y-124162924D01*
X166469703Y-124148340D01*
X166472543Y-124126326D01*
X166474480Y-124094264D01*
X166475684Y-124049536D01*
X166476328Y-123989526D01*
X166476583Y-123911617D01*
X166476622Y-123835956D01*
X166476870Y-123735041D01*
X166476817Y-123654427D01*
X166475857Y-123615822D01*
X166329867Y-123615822D01*
X166329867Y-124056089D01*
X166236734Y-124056004D01*
X166180693Y-124054396D01*
X166121999Y-124050256D01*
X166073028Y-124044464D01*
X166071538Y-124044226D01*
X165992392Y-124025090D01*
X165931002Y-123995287D01*
X165884305Y-123952878D01*
X165854635Y-123906961D01*
X165836353Y-123856026D01*
X165837771Y-123808200D01*
X165858988Y-123756933D01*
X165900489Y-123703899D01*
X165957998Y-123664600D01*
X166032750Y-123638331D01*
X166082708Y-123629035D01*
X166139416Y-123622507D01*
X166199519Y-123617782D01*
X166250639Y-123615817D01*
X166253667Y-123615808D01*
X166329867Y-123615822D01*
X166475857Y-123615822D01*
X166475260Y-123591851D01*
X166470998Y-123545055D01*
X166462830Y-123511778D01*
X166449556Y-123489759D01*
X166429974Y-123476739D01*
X166402883Y-123470457D01*
X166367082Y-123468653D01*
X166321371Y-123469066D01*
X166321371Y-123469066D01*
G37*
X166321371Y-123469066D02*
X166281889Y-123469467D01*
X166166200Y-123472259D01*
X166069311Y-123480550D01*
X165987919Y-123495232D01*
X165918723Y-123517193D01*
X165858420Y-123547322D01*
X165803708Y-123586510D01*
X165784167Y-123603532D01*
X165751750Y-123643363D01*
X165722520Y-123697413D01*
X165699991Y-123757323D01*
X165687679Y-123814739D01*
X165686400Y-123835956D01*
X165694417Y-123894769D01*
X165715899Y-123959013D01*
X165746999Y-124019821D01*
X165783866Y-124068330D01*
X165789854Y-124074182D01*
X165840579Y-124115321D01*
X165896125Y-124147435D01*
X165959696Y-124171365D01*
X166034494Y-124187953D01*
X166123722Y-124198041D01*
X166230582Y-124202469D01*
X166279528Y-124202845D01*
X166341762Y-124202545D01*
X166385528Y-124201292D01*
X166414931Y-124198554D01*
X166434079Y-124193801D01*
X166447077Y-124186501D01*
X166454045Y-124180267D01*
X166460626Y-124172694D01*
X166465788Y-124162924D01*
X166469703Y-124148340D01*
X166472543Y-124126326D01*
X166474480Y-124094264D01*
X166475684Y-124049536D01*
X166476328Y-123989526D01*
X166476583Y-123911617D01*
X166476622Y-123835956D01*
X166476870Y-123735041D01*
X166476817Y-123654427D01*
X166475857Y-123615822D01*
X166329867Y-123615822D01*
X166329867Y-124056089D01*
X166236734Y-124056004D01*
X166180693Y-124054396D01*
X166121999Y-124050256D01*
X166073028Y-124044464D01*
X166071538Y-124044226D01*
X165992392Y-124025090D01*
X165931002Y-123995287D01*
X165884305Y-123952878D01*
X165854635Y-123906961D01*
X165836353Y-123856026D01*
X165837771Y-123808200D01*
X165858988Y-123756933D01*
X165900489Y-123703899D01*
X165957998Y-123664600D01*
X166032750Y-123638331D01*
X166082708Y-123629035D01*
X166139416Y-123622507D01*
X166199519Y-123617782D01*
X166250639Y-123615817D01*
X166253667Y-123615808D01*
X166329867Y-123615822D01*
X166475857Y-123615822D01*
X166475260Y-123591851D01*
X166470998Y-123545055D01*
X166462830Y-123511778D01*
X166449556Y-123489759D01*
X166429974Y-123476739D01*
X166402883Y-123470457D01*
X166367082Y-123468653D01*
X166321371Y-123469066D01*
D14*
X141232857Y-91512380D02*
X141566190Y-91036190D01*
X141804285Y-91512380D02*
X141804285Y-90512380D01*
X141423333Y-90512380D01*
X141328095Y-90560000D01*
X141280476Y-90607619D01*
X141232857Y-90702857D01*
X141232857Y-90845714D01*
X141280476Y-90940952D01*
X141328095Y-90988571D01*
X141423333Y-91036190D01*
X141804285Y-91036190D01*
X140899523Y-90512380D02*
X140280476Y-90512380D01*
X140613809Y-90893333D01*
X140470952Y-90893333D01*
X140375714Y-90940952D01*
X140328095Y-90988571D01*
X140280476Y-91083809D01*
X140280476Y-91321904D01*
X140328095Y-91417142D01*
X140375714Y-91464761D01*
X140470952Y-91512380D01*
X140756666Y-91512380D01*
X140851904Y-91464761D01*
X140899523Y-91417142D01*
X139328095Y-91512380D02*
X139899523Y-91512380D01*
X139613809Y-91512380D02*
X139613809Y-90512380D01*
X139709047Y-90655238D01*
X139804285Y-90750476D01*
X139899523Y-90798095D01*
X141292857Y-89902380D02*
X141626190Y-89426190D01*
X141864285Y-89902380D02*
X141864285Y-88902380D01*
X141483333Y-88902380D01*
X141388095Y-88950000D01*
X141340476Y-88997619D01*
X141292857Y-89092857D01*
X141292857Y-89235714D01*
X141340476Y-89330952D01*
X141388095Y-89378571D01*
X141483333Y-89426190D01*
X141864285Y-89426190D01*
X140959523Y-88902380D02*
X140340476Y-88902380D01*
X140673809Y-89283333D01*
X140530952Y-89283333D01*
X140435714Y-89330952D01*
X140388095Y-89378571D01*
X140340476Y-89473809D01*
X140340476Y-89711904D01*
X140388095Y-89807142D01*
X140435714Y-89854761D01*
X140530952Y-89902380D01*
X140816666Y-89902380D01*
X140911904Y-89854761D01*
X140959523Y-89807142D01*
X139721428Y-88902380D02*
X139626190Y-88902380D01*
X139530952Y-88950000D01*
X139483333Y-88997619D01*
X139435714Y-89092857D01*
X139388095Y-89283333D01*
X139388095Y-89521428D01*
X139435714Y-89711904D01*
X139483333Y-89807142D01*
X139530952Y-89854761D01*
X139626190Y-89902380D01*
X139721428Y-89902380D01*
X139816666Y-89854761D01*
X139864285Y-89807142D01*
X139911904Y-89711904D01*
X139959523Y-89521428D01*
X139959523Y-89283333D01*
X139911904Y-89092857D01*
X139864285Y-88997619D01*
X139816666Y-88950000D01*
X139721428Y-88902380D01*
X152062857Y-75852380D02*
X152396190Y-75376190D01*
X152634285Y-75852380D02*
X152634285Y-74852380D01*
X152253333Y-74852380D01*
X152158095Y-74900000D01*
X152110476Y-74947619D01*
X152062857Y-75042857D01*
X152062857Y-75185714D01*
X152110476Y-75280952D01*
X152158095Y-75328571D01*
X152253333Y-75376190D01*
X152634285Y-75376190D01*
X151681904Y-74947619D02*
X151634285Y-74900000D01*
X151539047Y-74852380D01*
X151300952Y-74852380D01*
X151205714Y-74900000D01*
X151158095Y-74947619D01*
X151110476Y-75042857D01*
X151110476Y-75138095D01*
X151158095Y-75280952D01*
X151729523Y-75852380D01*
X151110476Y-75852380D01*
X150539047Y-75280952D02*
X150634285Y-75233333D01*
X150681904Y-75185714D01*
X150729523Y-75090476D01*
X150729523Y-75042857D01*
X150681904Y-74947619D01*
X150634285Y-74900000D01*
X150539047Y-74852380D01*
X150348571Y-74852380D01*
X150253333Y-74900000D01*
X150205714Y-74947619D01*
X150158095Y-75042857D01*
X150158095Y-75090476D01*
X150205714Y-75185714D01*
X150253333Y-75233333D01*
X150348571Y-75280952D01*
X150539047Y-75280952D01*
X150634285Y-75328571D01*
X150681904Y-75376190D01*
X150729523Y-75471428D01*
X150729523Y-75661904D01*
X150681904Y-75757142D01*
X150634285Y-75804761D01*
X150539047Y-75852380D01*
X150348571Y-75852380D01*
X150253333Y-75804761D01*
X150205714Y-75757142D01*
X150158095Y-75661904D01*
X150158095Y-75471428D01*
X150205714Y-75376190D01*
X150253333Y-75328571D01*
X150348571Y-75280952D01*
X145992857Y-75932380D02*
X146326190Y-75456190D01*
X146564285Y-75932380D02*
X146564285Y-74932380D01*
X146183333Y-74932380D01*
X146088095Y-74980000D01*
X146040476Y-75027619D01*
X145992857Y-75122857D01*
X145992857Y-75265714D01*
X146040476Y-75360952D01*
X146088095Y-75408571D01*
X146183333Y-75456190D01*
X146564285Y-75456190D01*
X145611904Y-75027619D02*
X145564285Y-74980000D01*
X145469047Y-74932380D01*
X145230952Y-74932380D01*
X145135714Y-74980000D01*
X145088095Y-75027619D01*
X145040476Y-75122857D01*
X145040476Y-75218095D01*
X145088095Y-75360952D01*
X145659523Y-75932380D01*
X145040476Y-75932380D01*
X144183333Y-75265714D02*
X144183333Y-75932380D01*
X144421428Y-74884761D02*
X144659523Y-75599047D01*
X144040476Y-75599047D01*
X140757142Y-57417142D02*
X140804761Y-57369523D01*
X140852380Y-57226666D01*
X140852380Y-57131428D01*
X140804761Y-56988571D01*
X140709523Y-56893333D01*
X140614285Y-56845714D01*
X140423809Y-56798095D01*
X140280952Y-56798095D01*
X140090476Y-56845714D01*
X139995238Y-56893333D01*
X139900000Y-56988571D01*
X139852380Y-57131428D01*
X139852380Y-57226666D01*
X139900000Y-57369523D01*
X139947619Y-57417142D01*
X140852380Y-58369523D02*
X140852380Y-57798095D01*
X140852380Y-58083809D02*
X139852380Y-58083809D01*
X139995238Y-57988571D01*
X140090476Y-57893333D01*
X140138095Y-57798095D01*
X139852380Y-59274285D02*
X139852380Y-58798095D01*
X140328571Y-58750476D01*
X140280952Y-58798095D01*
X140233333Y-58893333D01*
X140233333Y-59131428D01*
X140280952Y-59226666D01*
X140328571Y-59274285D01*
X140423809Y-59321904D01*
X140661904Y-59321904D01*
X140757142Y-59274285D01*
X140804761Y-59226666D01*
X140852380Y-59131428D01*
X140852380Y-58893333D01*
X140804761Y-58798095D01*
X140757142Y-58750476D01*
D11*
X120074523Y-83052380D02*
X121102619Y-83052380D01*
X121223571Y-83112857D01*
X121284047Y-83173333D01*
X121344523Y-83294285D01*
X121344523Y-83536190D01*
X121284047Y-83657142D01*
X121223571Y-83717619D01*
X121102619Y-83778095D01*
X120074523Y-83778095D01*
X121344523Y-85048095D02*
X121344523Y-84322380D01*
X121344523Y-84685238D02*
X120074523Y-84685238D01*
X120255952Y-84564285D01*
X120376904Y-84443333D01*
X120437380Y-84322380D01*
D15*
X136857142Y-58585714D02*
X135942857Y-58585714D01*
X136400000Y-59042857D02*
X136400000Y-58128571D01*
X136857142Y-58585714D02*
X135942857Y-58585714D01*
X136400000Y-59042857D02*
X136400000Y-58128571D01*
D14*
X138436666Y-58037142D02*
X138484285Y-58084761D01*
X138627142Y-58132380D01*
X138722380Y-58132380D01*
X138865238Y-58084761D01*
X138960476Y-57989523D01*
X139008095Y-57894285D01*
X139055714Y-57703809D01*
X139055714Y-57560952D01*
X139008095Y-57370476D01*
X138960476Y-57275238D01*
X138865238Y-57180000D01*
X138722380Y-57132380D01*
X138627142Y-57132380D01*
X138484285Y-57180000D01*
X138436666Y-57227619D01*
X137579523Y-57132380D02*
X137770000Y-57132380D01*
X137865238Y-57180000D01*
X137912857Y-57227619D01*
X138008095Y-57370476D01*
X138055714Y-57560952D01*
X138055714Y-57941904D01*
X138008095Y-58037142D01*
X137960476Y-58084761D01*
X137865238Y-58132380D01*
X137674761Y-58132380D01*
X137579523Y-58084761D01*
X137531904Y-58037142D01*
X137484285Y-57941904D01*
X137484285Y-57703809D01*
X137531904Y-57608571D01*
X137579523Y-57560952D01*
X137674761Y-57513333D01*
X137865238Y-57513333D01*
X137960476Y-57560952D01*
X138008095Y-57608571D01*
X138055714Y-57703809D01*
X165737142Y-59903333D02*
X165784761Y-59855714D01*
X165832380Y-59712857D01*
X165832380Y-59617619D01*
X165784761Y-59474761D01*
X165689523Y-59379523D01*
X165594285Y-59331904D01*
X165403809Y-59284285D01*
X165260952Y-59284285D01*
X165070476Y-59331904D01*
X164975238Y-59379523D01*
X164880000Y-59474761D01*
X164832380Y-59617619D01*
X164832380Y-59712857D01*
X164880000Y-59855714D01*
X164927619Y-59903333D01*
X164832380Y-60808095D02*
X164832380Y-60331904D01*
X165308571Y-60284285D01*
X165260952Y-60331904D01*
X165213333Y-60427142D01*
X165213333Y-60665238D01*
X165260952Y-60760476D01*
X165308571Y-60808095D01*
X165403809Y-60855714D01*
X165641904Y-60855714D01*
X165737142Y-60808095D01*
X165784761Y-60760476D01*
X165832380Y-60665238D01*
X165832380Y-60427142D01*
X165784761Y-60331904D01*
X165737142Y-60284285D01*
X100026190Y-91976190D02*
X100026190Y-92452380D01*
X100359523Y-91452380D02*
X100026190Y-91976190D01*
X99692857Y-91452380D01*
X98835714Y-92452380D02*
X99407142Y-92452380D01*
X99121428Y-92452380D02*
X99121428Y-91452380D01*
X99216666Y-91595238D01*
X99311904Y-91690476D01*
X99407142Y-91738095D01*
X158933333Y-96052380D02*
X158933333Y-96766666D01*
X158980952Y-96909523D01*
X159076190Y-97004761D01*
X159219047Y-97052380D01*
X159314285Y-97052380D01*
X158028571Y-96385714D02*
X158028571Y-97052380D01*
X158266666Y-96004761D02*
X158504761Y-96719047D01*
X157885714Y-96719047D01*
D11*
X162067619Y-50604523D02*
X162067619Y-51632619D01*
X162007142Y-51753571D01*
X161946666Y-51814047D01*
X161825714Y-51874523D01*
X161583809Y-51874523D01*
X161462857Y-51814047D01*
X161402380Y-51753571D01*
X161341904Y-51632619D01*
X161341904Y-50604523D01*
X160797619Y-50725476D02*
X160737142Y-50665000D01*
X160616190Y-50604523D01*
X160313809Y-50604523D01*
X160192857Y-50665000D01*
X160132380Y-50725476D01*
X160071904Y-50846428D01*
X160071904Y-50967380D01*
X160132380Y-51148809D01*
X160858095Y-51874523D01*
X160071904Y-51874523D01*
X147817619Y-88054523D02*
X147817619Y-89082619D01*
X147757142Y-89203571D01*
X147696666Y-89264047D01*
X147575714Y-89324523D01*
X147333809Y-89324523D01*
X147212857Y-89264047D01*
X147152380Y-89203571D01*
X147091904Y-89082619D01*
X147091904Y-88054523D01*
X146608095Y-88054523D02*
X145821904Y-88054523D01*
X146245238Y-88538333D01*
X146063809Y-88538333D01*
X145942857Y-88598809D01*
X145882380Y-88659285D01*
X145821904Y-88780238D01*
X145821904Y-89082619D01*
X145882380Y-89203571D01*
X145942857Y-89264047D01*
X146063809Y-89324523D01*
X146426666Y-89324523D01*
X146547619Y-89264047D01*
X146608095Y-89203571D01*
D14*
X162176190Y-79176190D02*
X162176190Y-79652380D01*
X162509523Y-78652380D02*
X162176190Y-79176190D01*
X161842857Y-78652380D01*
X161557142Y-78747619D02*
X161509523Y-78700000D01*
X161414285Y-78652380D01*
X161176190Y-78652380D01*
X161080952Y-78700000D01*
X161033333Y-78747619D01*
X160985714Y-78842857D01*
X160985714Y-78938095D01*
X161033333Y-79080952D01*
X161604761Y-79652380D01*
X160985714Y-79652380D01*
X148242857Y-52357142D02*
X148290476Y-52404761D01*
X148433333Y-52452380D01*
X148528571Y-52452380D01*
X148671428Y-52404761D01*
X148766666Y-52309523D01*
X148814285Y-52214285D01*
X148861904Y-52023809D01*
X148861904Y-51880952D01*
X148814285Y-51690476D01*
X148766666Y-51595238D01*
X148671428Y-51500000D01*
X148528571Y-51452380D01*
X148433333Y-51452380D01*
X148290476Y-51500000D01*
X148242857Y-51547619D01*
X147290476Y-52452380D02*
X147861904Y-52452380D01*
X147576190Y-52452380D02*
X147576190Y-51452380D01*
X147671428Y-51595238D01*
X147766666Y-51690476D01*
X147861904Y-51738095D01*
X146719047Y-51880952D02*
X146814285Y-51833333D01*
X146861904Y-51785714D01*
X146909523Y-51690476D01*
X146909523Y-51642857D01*
X146861904Y-51547619D01*
X146814285Y-51500000D01*
X146719047Y-51452380D01*
X146528571Y-51452380D01*
X146433333Y-51500000D01*
X146385714Y-51547619D01*
X146338095Y-51642857D01*
X146338095Y-51690476D01*
X146385714Y-51785714D01*
X146433333Y-51833333D01*
X146528571Y-51880952D01*
X146719047Y-51880952D01*
X146814285Y-51928571D01*
X146861904Y-51976190D01*
X146909523Y-52071428D01*
X146909523Y-52261904D01*
X146861904Y-52357142D01*
X146814285Y-52404761D01*
X146719047Y-52452380D01*
X146528571Y-52452380D01*
X146433333Y-52404761D01*
X146385714Y-52357142D01*
X146338095Y-52261904D01*
X146338095Y-52071428D01*
X146385714Y-51976190D01*
X146433333Y-51928571D01*
X146528571Y-51880952D01*
X144792857Y-52102380D02*
X145126190Y-51626190D01*
X145364285Y-52102380D02*
X145364285Y-51102380D01*
X144983333Y-51102380D01*
X144888095Y-51150000D01*
X144840476Y-51197619D01*
X144792857Y-51292857D01*
X144792857Y-51435714D01*
X144840476Y-51530952D01*
X144888095Y-51578571D01*
X144983333Y-51626190D01*
X145364285Y-51626190D01*
X143840476Y-52102380D02*
X144411904Y-52102380D01*
X144126190Y-52102380D02*
X144126190Y-51102380D01*
X144221428Y-51245238D01*
X144316666Y-51340476D01*
X144411904Y-51388095D01*
X143269047Y-51530952D02*
X143364285Y-51483333D01*
X143411904Y-51435714D01*
X143459523Y-51340476D01*
X143459523Y-51292857D01*
X143411904Y-51197619D01*
X143364285Y-51150000D01*
X143269047Y-51102380D01*
X143078571Y-51102380D01*
X142983333Y-51150000D01*
X142935714Y-51197619D01*
X142888095Y-51292857D01*
X142888095Y-51340476D01*
X142935714Y-51435714D01*
X142983333Y-51483333D01*
X143078571Y-51530952D01*
X143269047Y-51530952D01*
X143364285Y-51578571D01*
X143411904Y-51626190D01*
X143459523Y-51721428D01*
X143459523Y-51911904D01*
X143411904Y-52007142D01*
X143364285Y-52054761D01*
X143269047Y-52102380D01*
X143078571Y-52102380D01*
X142983333Y-52054761D01*
X142935714Y-52007142D01*
X142888095Y-51911904D01*
X142888095Y-51721428D01*
X142935714Y-51626190D01*
X142983333Y-51578571D01*
X143078571Y-51530952D01*
X148292857Y-46007142D02*
X148340476Y-46054761D01*
X148483333Y-46102380D01*
X148578571Y-46102380D01*
X148721428Y-46054761D01*
X148816666Y-45959523D01*
X148864285Y-45864285D01*
X148911904Y-45673809D01*
X148911904Y-45530952D01*
X148864285Y-45340476D01*
X148816666Y-45245238D01*
X148721428Y-45150000D01*
X148578571Y-45102380D01*
X148483333Y-45102380D01*
X148340476Y-45150000D01*
X148292857Y-45197619D01*
X147340476Y-46102380D02*
X147911904Y-46102380D01*
X147626190Y-46102380D02*
X147626190Y-45102380D01*
X147721428Y-45245238D01*
X147816666Y-45340476D01*
X147911904Y-45388095D01*
X147007142Y-45102380D02*
X146340476Y-45102380D01*
X146769047Y-46102380D01*
X148292857Y-49207142D02*
X148340476Y-49254761D01*
X148483333Y-49302380D01*
X148578571Y-49302380D01*
X148721428Y-49254761D01*
X148816666Y-49159523D01*
X148864285Y-49064285D01*
X148911904Y-48873809D01*
X148911904Y-48730952D01*
X148864285Y-48540476D01*
X148816666Y-48445238D01*
X148721428Y-48350000D01*
X148578571Y-48302380D01*
X148483333Y-48302380D01*
X148340476Y-48350000D01*
X148292857Y-48397619D01*
X147340476Y-49302380D02*
X147911904Y-49302380D01*
X147626190Y-49302380D02*
X147626190Y-48302380D01*
X147721428Y-48445238D01*
X147816666Y-48540476D01*
X147911904Y-48588095D01*
X146483333Y-48302380D02*
X146673809Y-48302380D01*
X146769047Y-48350000D01*
X146816666Y-48397619D01*
X146911904Y-48540476D01*
X146959523Y-48730952D01*
X146959523Y-49111904D01*
X146911904Y-49207142D01*
X146864285Y-49254761D01*
X146769047Y-49302380D01*
X146578571Y-49302380D01*
X146483333Y-49254761D01*
X146435714Y-49207142D01*
X146388095Y-49111904D01*
X146388095Y-48873809D01*
X146435714Y-48778571D01*
X146483333Y-48730952D01*
X146578571Y-48683333D01*
X146769047Y-48683333D01*
X146864285Y-48730952D01*
X146911904Y-48778571D01*
X146959523Y-48873809D01*
X143792857Y-49152380D02*
X144126190Y-48676190D01*
X144364285Y-49152380D02*
X144364285Y-48152380D01*
X143983333Y-48152380D01*
X143888095Y-48200000D01*
X143840476Y-48247619D01*
X143792857Y-48342857D01*
X143792857Y-48485714D01*
X143840476Y-48580952D01*
X143888095Y-48628571D01*
X143983333Y-48676190D01*
X144364285Y-48676190D01*
X142840476Y-49152380D02*
X143411904Y-49152380D01*
X143126190Y-49152380D02*
X143126190Y-48152380D01*
X143221428Y-48295238D01*
X143316666Y-48390476D01*
X143411904Y-48438095D01*
X142507142Y-48152380D02*
X141840476Y-48152380D01*
X142269047Y-49152380D01*
X143692857Y-46202380D02*
X144026190Y-45726190D01*
X144264285Y-46202380D02*
X144264285Y-45202380D01*
X143883333Y-45202380D01*
X143788095Y-45250000D01*
X143740476Y-45297619D01*
X143692857Y-45392857D01*
X143692857Y-45535714D01*
X143740476Y-45630952D01*
X143788095Y-45678571D01*
X143883333Y-45726190D01*
X144264285Y-45726190D01*
X143311904Y-45297619D02*
X143264285Y-45250000D01*
X143169047Y-45202380D01*
X142930952Y-45202380D01*
X142835714Y-45250000D01*
X142788095Y-45297619D01*
X142740476Y-45392857D01*
X142740476Y-45488095D01*
X142788095Y-45630952D01*
X143359523Y-46202380D01*
X142740476Y-46202380D01*
X142407142Y-45202380D02*
X141740476Y-45202380D01*
X142169047Y-46202380D01*
X151757142Y-46957142D02*
X151804761Y-46909523D01*
X151852380Y-46766666D01*
X151852380Y-46671428D01*
X151804761Y-46528571D01*
X151709523Y-46433333D01*
X151614285Y-46385714D01*
X151423809Y-46338095D01*
X151280952Y-46338095D01*
X151090476Y-46385714D01*
X150995238Y-46433333D01*
X150900000Y-46528571D01*
X150852380Y-46671428D01*
X150852380Y-46766666D01*
X150900000Y-46909523D01*
X150947619Y-46957142D01*
X151852380Y-47909523D02*
X151852380Y-47338095D01*
X151852380Y-47623809D02*
X150852380Y-47623809D01*
X150995238Y-47528571D01*
X151090476Y-47433333D01*
X151138095Y-47338095D01*
X151185714Y-48766666D02*
X151852380Y-48766666D01*
X150804761Y-48528571D02*
X151519047Y-48290476D01*
X151519047Y-48909523D01*
X149980952Y-52581428D02*
X149219047Y-52581428D01*
X149600000Y-52962380D02*
X149600000Y-52200476D01*
X129792857Y-75007142D02*
X129840476Y-75054761D01*
X129983333Y-75102380D01*
X130078571Y-75102380D01*
X130221428Y-75054761D01*
X130316666Y-74959523D01*
X130364285Y-74864285D01*
X130411904Y-74673809D01*
X130411904Y-74530952D01*
X130364285Y-74340476D01*
X130316666Y-74245238D01*
X130221428Y-74150000D01*
X130078571Y-74102380D01*
X129983333Y-74102380D01*
X129840476Y-74150000D01*
X129792857Y-74197619D01*
X128840476Y-75102380D02*
X129411904Y-75102380D01*
X129126190Y-75102380D02*
X129126190Y-74102380D01*
X129221428Y-74245238D01*
X129316666Y-74340476D01*
X129411904Y-74388095D01*
X128221428Y-74102380D02*
X128126190Y-74102380D01*
X128030952Y-74150000D01*
X127983333Y-74197619D01*
X127935714Y-74292857D01*
X127888095Y-74483333D01*
X127888095Y-74721428D01*
X127935714Y-74911904D01*
X127983333Y-75007142D01*
X128030952Y-75054761D01*
X128126190Y-75102380D01*
X128221428Y-75102380D01*
X128316666Y-75054761D01*
X128364285Y-75007142D01*
X128411904Y-74911904D01*
X128459523Y-74721428D01*
X128459523Y-74483333D01*
X128411904Y-74292857D01*
X128364285Y-74197619D01*
X128316666Y-74150000D01*
X128221428Y-74102380D01*
X156257142Y-57233333D02*
X156304761Y-57185714D01*
X156352380Y-57042857D01*
X156352380Y-56947619D01*
X156304761Y-56804761D01*
X156209523Y-56709523D01*
X156114285Y-56661904D01*
X155923809Y-56614285D01*
X155780952Y-56614285D01*
X155590476Y-56661904D01*
X155495238Y-56709523D01*
X155400000Y-56804761D01*
X155352380Y-56947619D01*
X155352380Y-57042857D01*
X155400000Y-57185714D01*
X155447619Y-57233333D01*
X155447619Y-57614285D02*
X155400000Y-57661904D01*
X155352380Y-57757142D01*
X155352380Y-57995238D01*
X155400000Y-58090476D01*
X155447619Y-58138095D01*
X155542857Y-58185714D01*
X155638095Y-58185714D01*
X155780952Y-58138095D01*
X156352380Y-57566666D01*
X156352380Y-58185714D01*
X136157142Y-100333333D02*
X136204761Y-100285714D01*
X136252380Y-100142857D01*
X136252380Y-100047619D01*
X136204761Y-99904761D01*
X136109523Y-99809523D01*
X136014285Y-99761904D01*
X135823809Y-99714285D01*
X135680952Y-99714285D01*
X135490476Y-99761904D01*
X135395238Y-99809523D01*
X135300000Y-99904761D01*
X135252380Y-100047619D01*
X135252380Y-100142857D01*
X135300000Y-100285714D01*
X135347619Y-100333333D01*
X135252380Y-100666666D02*
X135252380Y-101285714D01*
X135633333Y-100952380D01*
X135633333Y-101095238D01*
X135680952Y-101190476D01*
X135728571Y-101238095D01*
X135823809Y-101285714D01*
X136061904Y-101285714D01*
X136157142Y-101238095D01*
X136204761Y-101190476D01*
X136252380Y-101095238D01*
X136252380Y-100809523D01*
X136204761Y-100714285D01*
X136157142Y-100666666D01*
X165857142Y-55433333D02*
X165904761Y-55385714D01*
X165952380Y-55242857D01*
X165952380Y-55147619D01*
X165904761Y-55004761D01*
X165809523Y-54909523D01*
X165714285Y-54861904D01*
X165523809Y-54814285D01*
X165380952Y-54814285D01*
X165190476Y-54861904D01*
X165095238Y-54909523D01*
X165000000Y-55004761D01*
X164952380Y-55147619D01*
X164952380Y-55242857D01*
X165000000Y-55385714D01*
X165047619Y-55433333D01*
X165285714Y-56290476D02*
X165952380Y-56290476D01*
X164904761Y-56052380D02*
X165619047Y-55814285D01*
X165619047Y-56433333D01*
X147607142Y-68183333D02*
X147654761Y-68135714D01*
X147702380Y-67992857D01*
X147702380Y-67897619D01*
X147654761Y-67754761D01*
X147559523Y-67659523D01*
X147464285Y-67611904D01*
X147273809Y-67564285D01*
X147130952Y-67564285D01*
X146940476Y-67611904D01*
X146845238Y-67659523D01*
X146750000Y-67754761D01*
X146702380Y-67897619D01*
X146702380Y-67992857D01*
X146750000Y-68135714D01*
X146797619Y-68183333D01*
X146702380Y-68516666D02*
X146702380Y-69183333D01*
X147702380Y-68754761D01*
X130507142Y-71033333D02*
X130554761Y-70985714D01*
X130602380Y-70842857D01*
X130602380Y-70747619D01*
X130554761Y-70604761D01*
X130459523Y-70509523D01*
X130364285Y-70461904D01*
X130173809Y-70414285D01*
X130030952Y-70414285D01*
X129840476Y-70461904D01*
X129745238Y-70509523D01*
X129650000Y-70604761D01*
X129602380Y-70747619D01*
X129602380Y-70842857D01*
X129650000Y-70985714D01*
X129697619Y-71033333D01*
X130030952Y-71604761D02*
X129983333Y-71509523D01*
X129935714Y-71461904D01*
X129840476Y-71414285D01*
X129792857Y-71414285D01*
X129697619Y-71461904D01*
X129650000Y-71509523D01*
X129602380Y-71604761D01*
X129602380Y-71795238D01*
X129650000Y-71890476D01*
X129697619Y-71938095D01*
X129792857Y-71985714D01*
X129840476Y-71985714D01*
X129935714Y-71938095D01*
X129983333Y-71890476D01*
X130030952Y-71795238D01*
X130030952Y-71604761D01*
X130078571Y-71509523D01*
X130126190Y-71461904D01*
X130221428Y-71414285D01*
X130411904Y-71414285D01*
X130507142Y-71461904D01*
X130554761Y-71509523D01*
X130602380Y-71604761D01*
X130602380Y-71795238D01*
X130554761Y-71890476D01*
X130507142Y-71938095D01*
X130411904Y-71985714D01*
X130221428Y-71985714D01*
X130126190Y-71938095D01*
X130078571Y-71890476D01*
X130030952Y-71795238D01*
X158357142Y-88107142D02*
X158404761Y-88059523D01*
X158452380Y-87916666D01*
X158452380Y-87821428D01*
X158404761Y-87678571D01*
X158309523Y-87583333D01*
X158214285Y-87535714D01*
X158023809Y-87488095D01*
X157880952Y-87488095D01*
X157690476Y-87535714D01*
X157595238Y-87583333D01*
X157500000Y-87678571D01*
X157452380Y-87821428D01*
X157452380Y-87916666D01*
X157500000Y-88059523D01*
X157547619Y-88107142D01*
X158452380Y-89059523D02*
X158452380Y-88488095D01*
X158452380Y-88773809D02*
X157452380Y-88773809D01*
X157595238Y-88678571D01*
X157690476Y-88583333D01*
X157738095Y-88488095D01*
X157547619Y-89440476D02*
X157500000Y-89488095D01*
X157452380Y-89583333D01*
X157452380Y-89821428D01*
X157500000Y-89916666D01*
X157547619Y-89964285D01*
X157642857Y-90011904D01*
X157738095Y-90011904D01*
X157880952Y-89964285D01*
X158452380Y-89392857D01*
X158452380Y-90011904D01*
X133882857Y-85617142D02*
X133930476Y-85664761D01*
X134073333Y-85712380D01*
X134168571Y-85712380D01*
X134311428Y-85664761D01*
X134406666Y-85569523D01*
X134454285Y-85474285D01*
X134501904Y-85283809D01*
X134501904Y-85140952D01*
X134454285Y-84950476D01*
X134406666Y-84855238D01*
X134311428Y-84760000D01*
X134168571Y-84712380D01*
X134073333Y-84712380D01*
X133930476Y-84760000D01*
X133882857Y-84807619D01*
X132930476Y-85712380D02*
X133501904Y-85712380D01*
X133216190Y-85712380D02*
X133216190Y-84712380D01*
X133311428Y-84855238D01*
X133406666Y-84950476D01*
X133501904Y-84998095D01*
X132597142Y-84712380D02*
X131978095Y-84712380D01*
X132311428Y-85093333D01*
X132168571Y-85093333D01*
X132073333Y-85140952D01*
X132025714Y-85188571D01*
X131978095Y-85283809D01*
X131978095Y-85521904D01*
X132025714Y-85617142D01*
X132073333Y-85664761D01*
X132168571Y-85712380D01*
X132454285Y-85712380D01*
X132549523Y-85664761D01*
X132597142Y-85617142D01*
X158057142Y-77957142D02*
X158104761Y-77909523D01*
X158152380Y-77766666D01*
X158152380Y-77671428D01*
X158104761Y-77528571D01*
X158009523Y-77433333D01*
X157914285Y-77385714D01*
X157723809Y-77338095D01*
X157580952Y-77338095D01*
X157390476Y-77385714D01*
X157295238Y-77433333D01*
X157200000Y-77528571D01*
X157152380Y-77671428D01*
X157152380Y-77766666D01*
X157200000Y-77909523D01*
X157247619Y-77957142D01*
X158152380Y-78909523D02*
X158152380Y-78338095D01*
X158152380Y-78623809D02*
X157152380Y-78623809D01*
X157295238Y-78528571D01*
X157390476Y-78433333D01*
X157438095Y-78338095D01*
X158152380Y-79861904D02*
X158152380Y-79290476D01*
X158152380Y-79576190D02*
X157152380Y-79576190D01*
X157295238Y-79480952D01*
X157390476Y-79385714D01*
X157438095Y-79290476D01*
X162342857Y-114952380D02*
X162676190Y-114476190D01*
X162914285Y-114952380D02*
X162914285Y-113952380D01*
X162533333Y-113952380D01*
X162438095Y-114000000D01*
X162390476Y-114047619D01*
X162342857Y-114142857D01*
X162342857Y-114285714D01*
X162390476Y-114380952D01*
X162438095Y-114428571D01*
X162533333Y-114476190D01*
X162914285Y-114476190D01*
X161390476Y-114952380D02*
X161961904Y-114952380D01*
X161676190Y-114952380D02*
X161676190Y-113952380D01*
X161771428Y-114095238D01*
X161866666Y-114190476D01*
X161961904Y-114238095D01*
X161057142Y-113952380D02*
X160438095Y-113952380D01*
X160771428Y-114333333D01*
X160628571Y-114333333D01*
X160533333Y-114380952D01*
X160485714Y-114428571D01*
X160438095Y-114523809D01*
X160438095Y-114761904D01*
X160485714Y-114857142D01*
X160533333Y-114904761D01*
X160628571Y-114952380D01*
X160914285Y-114952380D01*
X161009523Y-114904761D01*
X161057142Y-114857142D01*
X104252380Y-117757142D02*
X103776190Y-117423809D01*
X104252380Y-117185714D02*
X103252380Y-117185714D01*
X103252380Y-117566666D01*
X103300000Y-117661904D01*
X103347619Y-117709523D01*
X103442857Y-117757142D01*
X103585714Y-117757142D01*
X103680952Y-117709523D01*
X103728571Y-117661904D01*
X103776190Y-117566666D01*
X103776190Y-117185714D01*
X104252380Y-118709523D02*
X104252380Y-118138095D01*
X104252380Y-118423809D02*
X103252380Y-118423809D01*
X103395238Y-118328571D01*
X103490476Y-118233333D01*
X103538095Y-118138095D01*
X103347619Y-119090476D02*
X103300000Y-119138095D01*
X103252380Y-119233333D01*
X103252380Y-119471428D01*
X103300000Y-119566666D01*
X103347619Y-119614285D01*
X103442857Y-119661904D01*
X103538095Y-119661904D01*
X103680952Y-119614285D01*
X104252380Y-119042857D01*
X104252380Y-119661904D01*
X98952380Y-118857142D02*
X98476190Y-118523809D01*
X98952380Y-118285714D02*
X97952380Y-118285714D01*
X97952380Y-118666666D01*
X98000000Y-118761904D01*
X98047619Y-118809523D01*
X98142857Y-118857142D01*
X98285714Y-118857142D01*
X98380952Y-118809523D01*
X98428571Y-118761904D01*
X98476190Y-118666666D01*
X98476190Y-118285714D01*
X98952380Y-119809523D02*
X98952380Y-119238095D01*
X98952380Y-119523809D02*
X97952380Y-119523809D01*
X98095238Y-119428571D01*
X98190476Y-119333333D01*
X98238095Y-119238095D01*
X98952380Y-120761904D02*
X98952380Y-120190476D01*
X98952380Y-120476190D02*
X97952380Y-120476190D01*
X98095238Y-120380952D01*
X98190476Y-120285714D01*
X98238095Y-120190476D01*
X154102380Y-67707142D02*
X153626190Y-67373809D01*
X154102380Y-67135714D02*
X153102380Y-67135714D01*
X153102380Y-67516666D01*
X153150000Y-67611904D01*
X153197619Y-67659523D01*
X153292857Y-67707142D01*
X153435714Y-67707142D01*
X153530952Y-67659523D01*
X153578571Y-67611904D01*
X153626190Y-67516666D01*
X153626190Y-67135714D01*
X154102380Y-68659523D02*
X154102380Y-68088095D01*
X154102380Y-68373809D02*
X153102380Y-68373809D01*
X153245238Y-68278571D01*
X153340476Y-68183333D01*
X153388095Y-68088095D01*
X153102380Y-69278571D02*
X153102380Y-69373809D01*
X153150000Y-69469047D01*
X153197619Y-69516666D01*
X153292857Y-69564285D01*
X153483333Y-69611904D01*
X153721428Y-69611904D01*
X153911904Y-69564285D01*
X154007142Y-69516666D01*
X154054761Y-69469047D01*
X154102380Y-69373809D01*
X154102380Y-69278571D01*
X154054761Y-69183333D01*
X154007142Y-69135714D01*
X153911904Y-69088095D01*
X153721428Y-69040476D01*
X153483333Y-69040476D01*
X153292857Y-69088095D01*
X153197619Y-69135714D01*
X153150000Y-69183333D01*
X153102380Y-69278571D01*
X131352380Y-49733333D02*
X130876190Y-49400000D01*
X131352380Y-49161904D02*
X130352380Y-49161904D01*
X130352380Y-49542857D01*
X130400000Y-49638095D01*
X130447619Y-49685714D01*
X130542857Y-49733333D01*
X130685714Y-49733333D01*
X130780952Y-49685714D01*
X130828571Y-49638095D01*
X130876190Y-49542857D01*
X130876190Y-49161904D01*
X131352380Y-50209523D02*
X131352380Y-50400000D01*
X131304761Y-50495238D01*
X131257142Y-50542857D01*
X131114285Y-50638095D01*
X130923809Y-50685714D01*
X130542857Y-50685714D01*
X130447619Y-50638095D01*
X130400000Y-50590476D01*
X130352380Y-50495238D01*
X130352380Y-50304761D01*
X130400000Y-50209523D01*
X130447619Y-50161904D01*
X130542857Y-50114285D01*
X130780952Y-50114285D01*
X130876190Y-50161904D01*
X130923809Y-50209523D01*
X130971428Y-50304761D01*
X130971428Y-50495238D01*
X130923809Y-50590476D01*
X130876190Y-50638095D01*
X130780952Y-50685714D01*
X160252380Y-65333333D02*
X159776190Y-65000000D01*
X160252380Y-64761904D02*
X159252380Y-64761904D01*
X159252380Y-65142857D01*
X159300000Y-65238095D01*
X159347619Y-65285714D01*
X159442857Y-65333333D01*
X159585714Y-65333333D01*
X159680952Y-65285714D01*
X159728571Y-65238095D01*
X159776190Y-65142857D01*
X159776190Y-64761904D01*
X159585714Y-66190476D02*
X160252380Y-66190476D01*
X159204761Y-65952380D02*
X159919047Y-65714285D01*
X159919047Y-66333333D01*
X155652380Y-67733333D02*
X155176190Y-67400000D01*
X155652380Y-67161904D02*
X154652380Y-67161904D01*
X154652380Y-67542857D01*
X154700000Y-67638095D01*
X154747619Y-67685714D01*
X154842857Y-67733333D01*
X154985714Y-67733333D01*
X155080952Y-67685714D01*
X155128571Y-67638095D01*
X155176190Y-67542857D01*
X155176190Y-67161904D01*
X154652380Y-68638095D02*
X154652380Y-68161904D01*
X155128571Y-68114285D01*
X155080952Y-68161904D01*
X155033333Y-68257142D01*
X155033333Y-68495238D01*
X155080952Y-68590476D01*
X155128571Y-68638095D01*
X155223809Y-68685714D01*
X155461904Y-68685714D01*
X155557142Y-68638095D01*
X155604761Y-68590476D01*
X155652380Y-68495238D01*
X155652380Y-68257142D01*
X155604761Y-68161904D01*
X155557142Y-68114285D01*
X161466666Y-71452380D02*
X161800000Y-70976190D01*
X162038095Y-71452380D02*
X162038095Y-70452380D01*
X161657142Y-70452380D01*
X161561904Y-70500000D01*
X161514285Y-70547619D01*
X161466666Y-70642857D01*
X161466666Y-70785714D01*
X161514285Y-70880952D01*
X161561904Y-70928571D01*
X161657142Y-70976190D01*
X162038095Y-70976190D01*
X160895238Y-70880952D02*
X160990476Y-70833333D01*
X161038095Y-70785714D01*
X161085714Y-70690476D01*
X161085714Y-70642857D01*
X161038095Y-70547619D01*
X160990476Y-70500000D01*
X160895238Y-70452380D01*
X160704761Y-70452380D01*
X160609523Y-70500000D01*
X160561904Y-70547619D01*
X160514285Y-70642857D01*
X160514285Y-70690476D01*
X160561904Y-70785714D01*
X160609523Y-70833333D01*
X160704761Y-70880952D01*
X160895238Y-70880952D01*
X160990476Y-70928571D01*
X161038095Y-70976190D01*
X161085714Y-71071428D01*
X161085714Y-71261904D01*
X161038095Y-71357142D01*
X160990476Y-71404761D01*
X160895238Y-71452380D01*
X160704761Y-71452380D01*
X160609523Y-71404761D01*
X160561904Y-71357142D01*
X160514285Y-71261904D01*
X160514285Y-71071428D01*
X160561904Y-70976190D01*
X160609523Y-70928571D01*
X160704761Y-70880952D01*
X158752380Y-57083333D02*
X158276190Y-56750000D01*
X158752380Y-56511904D02*
X157752380Y-56511904D01*
X157752380Y-56892857D01*
X157800000Y-56988095D01*
X157847619Y-57035714D01*
X157942857Y-57083333D01*
X158085714Y-57083333D01*
X158180952Y-57035714D01*
X158228571Y-56988095D01*
X158276190Y-56892857D01*
X158276190Y-56511904D01*
X157752380Y-57940476D02*
X157752380Y-57750000D01*
X157800000Y-57654761D01*
X157847619Y-57607142D01*
X157990476Y-57511904D01*
X158180952Y-57464285D01*
X158561904Y-57464285D01*
X158657142Y-57511904D01*
X158704761Y-57559523D01*
X158752380Y-57654761D01*
X158752380Y-57845238D01*
X158704761Y-57940476D01*
X158657142Y-57988095D01*
X158561904Y-58035714D01*
X158323809Y-58035714D01*
X158228571Y-57988095D01*
X158180952Y-57940476D01*
X158133333Y-57845238D01*
X158133333Y-57654761D01*
X158180952Y-57559523D01*
X158228571Y-57511904D01*
X158323809Y-57464285D01*
X153752380Y-57183333D02*
X153276190Y-56850000D01*
X153752380Y-56611904D02*
X152752380Y-56611904D01*
X152752380Y-56992857D01*
X152800000Y-57088095D01*
X152847619Y-57135714D01*
X152942857Y-57183333D01*
X153085714Y-57183333D01*
X153180952Y-57135714D01*
X153228571Y-57088095D01*
X153276190Y-56992857D01*
X153276190Y-56611904D01*
X152752380Y-57516666D02*
X152752380Y-58183333D01*
X153752380Y-57754761D01*
X148152380Y-61957142D02*
X147676190Y-61623809D01*
X148152380Y-61385714D02*
X147152380Y-61385714D01*
X147152380Y-61766666D01*
X147200000Y-61861904D01*
X147247619Y-61909523D01*
X147342857Y-61957142D01*
X147485714Y-61957142D01*
X147580952Y-61909523D01*
X147628571Y-61861904D01*
X147676190Y-61766666D01*
X147676190Y-61385714D01*
X147247619Y-62338095D02*
X147200000Y-62385714D01*
X147152380Y-62480952D01*
X147152380Y-62719047D01*
X147200000Y-62814285D01*
X147247619Y-62861904D01*
X147342857Y-62909523D01*
X147438095Y-62909523D01*
X147580952Y-62861904D01*
X148152380Y-62290476D01*
X148152380Y-62909523D01*
X147152380Y-63528571D02*
X147152380Y-63623809D01*
X147200000Y-63719047D01*
X147247619Y-63766666D01*
X147342857Y-63814285D01*
X147533333Y-63861904D01*
X147771428Y-63861904D01*
X147961904Y-63814285D01*
X148057142Y-63766666D01*
X148104761Y-63719047D01*
X148152380Y-63623809D01*
X148152380Y-63528571D01*
X148104761Y-63433333D01*
X148057142Y-63385714D01*
X147961904Y-63338095D01*
X147771428Y-63290476D01*
X147533333Y-63290476D01*
X147342857Y-63338095D01*
X147247619Y-63385714D01*
X147200000Y-63433333D01*
X147152380Y-63528571D01*
X97542857Y-125702380D02*
X97876190Y-125226190D01*
X98114285Y-125702380D02*
X98114285Y-124702380D01*
X97733333Y-124702380D01*
X97638095Y-124750000D01*
X97590476Y-124797619D01*
X97542857Y-124892857D01*
X97542857Y-125035714D01*
X97590476Y-125130952D01*
X97638095Y-125178571D01*
X97733333Y-125226190D01*
X98114285Y-125226190D01*
X96590476Y-125702380D02*
X97161904Y-125702380D01*
X96876190Y-125702380D02*
X96876190Y-124702380D01*
X96971428Y-124845238D01*
X97066666Y-124940476D01*
X97161904Y-124988095D01*
X95733333Y-125035714D02*
X95733333Y-125702380D01*
X95971428Y-124654761D02*
X96209523Y-125369047D01*
X95590476Y-125369047D01*
X161442857Y-68752380D02*
X161776190Y-68276190D01*
X162014285Y-68752380D02*
X162014285Y-67752380D01*
X161633333Y-67752380D01*
X161538095Y-67800000D01*
X161490476Y-67847619D01*
X161442857Y-67942857D01*
X161442857Y-68085714D01*
X161490476Y-68180952D01*
X161538095Y-68228571D01*
X161633333Y-68276190D01*
X162014285Y-68276190D01*
X160490476Y-68752380D02*
X161061904Y-68752380D01*
X160776190Y-68752380D02*
X160776190Y-67752380D01*
X160871428Y-67895238D01*
X160966666Y-67990476D01*
X161061904Y-68038095D01*
X159585714Y-67752380D02*
X160061904Y-67752380D01*
X160109523Y-68228571D01*
X160061904Y-68180952D01*
X159966666Y-68133333D01*
X159728571Y-68133333D01*
X159633333Y-68180952D01*
X159585714Y-68228571D01*
X159538095Y-68323809D01*
X159538095Y-68561904D01*
X159585714Y-68657142D01*
X159633333Y-68704761D01*
X159728571Y-68752380D01*
X159966666Y-68752380D01*
X160061904Y-68704761D01*
X160109523Y-68657142D01*
X159392857Y-63102380D02*
X159726190Y-62626190D01*
X159964285Y-63102380D02*
X159964285Y-62102380D01*
X159583333Y-62102380D01*
X159488095Y-62150000D01*
X159440476Y-62197619D01*
X159392857Y-62292857D01*
X159392857Y-62435714D01*
X159440476Y-62530952D01*
X159488095Y-62578571D01*
X159583333Y-62626190D01*
X159964285Y-62626190D01*
X158440476Y-63102380D02*
X159011904Y-63102380D01*
X158726190Y-63102380D02*
X158726190Y-62102380D01*
X158821428Y-62245238D01*
X158916666Y-62340476D01*
X159011904Y-62388095D01*
X157583333Y-62102380D02*
X157773809Y-62102380D01*
X157869047Y-62150000D01*
X157916666Y-62197619D01*
X158011904Y-62340476D01*
X158059523Y-62530952D01*
X158059523Y-62911904D01*
X158011904Y-63007142D01*
X157964285Y-63054761D01*
X157869047Y-63102380D01*
X157678571Y-63102380D01*
X157583333Y-63054761D01*
X157535714Y-63007142D01*
X157488095Y-62911904D01*
X157488095Y-62673809D01*
X157535714Y-62578571D01*
X157583333Y-62530952D01*
X157678571Y-62483333D01*
X157869047Y-62483333D01*
X157964285Y-62530952D01*
X158011904Y-62578571D01*
X158059523Y-62673809D01*
X153942857Y-51952380D02*
X154276190Y-51476190D01*
X154514285Y-51952380D02*
X154514285Y-50952380D01*
X154133333Y-50952380D01*
X154038095Y-51000000D01*
X153990476Y-51047619D01*
X153942857Y-51142857D01*
X153942857Y-51285714D01*
X153990476Y-51380952D01*
X154038095Y-51428571D01*
X154133333Y-51476190D01*
X154514285Y-51476190D01*
X152990476Y-51952380D02*
X153561904Y-51952380D01*
X153276190Y-51952380D02*
X153276190Y-50952380D01*
X153371428Y-51095238D01*
X153466666Y-51190476D01*
X153561904Y-51238095D01*
X152514285Y-51952380D02*
X152323809Y-51952380D01*
X152228571Y-51904761D01*
X152180952Y-51857142D01*
X152085714Y-51714285D01*
X152038095Y-51523809D01*
X152038095Y-51142857D01*
X152085714Y-51047619D01*
X152133333Y-51000000D01*
X152228571Y-50952380D01*
X152419047Y-50952380D01*
X152514285Y-51000000D01*
X152561904Y-51047619D01*
X152609523Y-51142857D01*
X152609523Y-51380952D01*
X152561904Y-51476190D01*
X152514285Y-51523809D01*
X152419047Y-51571428D01*
X152228571Y-51571428D01*
X152133333Y-51523809D01*
X152085714Y-51476190D01*
X152038095Y-51380952D01*
X101616666Y-125582380D02*
X101950000Y-125106190D01*
X102188095Y-125582380D02*
X102188095Y-124582380D01*
X101807142Y-124582380D01*
X101711904Y-124630000D01*
X101664285Y-124677619D01*
X101616666Y-124772857D01*
X101616666Y-124915714D01*
X101664285Y-125010952D01*
X101711904Y-125058571D01*
X101807142Y-125106190D01*
X102188095Y-125106190D01*
X100664285Y-125582380D02*
X101235714Y-125582380D01*
X100950000Y-125582380D02*
X100950000Y-124582380D01*
X101045238Y-124725238D01*
X101140476Y-124820476D01*
X101235714Y-124868095D01*
X150402380Y-67707142D02*
X149926190Y-67373809D01*
X150402380Y-67135714D02*
X149402380Y-67135714D01*
X149402380Y-67516666D01*
X149450000Y-67611904D01*
X149497619Y-67659523D01*
X149592857Y-67707142D01*
X149735714Y-67707142D01*
X149830952Y-67659523D01*
X149878571Y-67611904D01*
X149926190Y-67516666D01*
X149926190Y-67135714D01*
X149497619Y-68088095D02*
X149450000Y-68135714D01*
X149402380Y-68230952D01*
X149402380Y-68469047D01*
X149450000Y-68564285D01*
X149497619Y-68611904D01*
X149592857Y-68659523D01*
X149688095Y-68659523D01*
X149830952Y-68611904D01*
X150402380Y-68040476D01*
X150402380Y-68659523D01*
X150402380Y-69611904D02*
X150402380Y-69040476D01*
X150402380Y-69326190D02*
X149402380Y-69326190D01*
X149545238Y-69230952D01*
X149640476Y-69135714D01*
X149688095Y-69040476D01*
X134292857Y-56252380D02*
X134626190Y-55776190D01*
X134864285Y-56252380D02*
X134864285Y-55252380D01*
X134483333Y-55252380D01*
X134388095Y-55300000D01*
X134340476Y-55347619D01*
X134292857Y-55442857D01*
X134292857Y-55585714D01*
X134340476Y-55680952D01*
X134388095Y-55728571D01*
X134483333Y-55776190D01*
X134864285Y-55776190D01*
X133911904Y-55347619D02*
X133864285Y-55300000D01*
X133769047Y-55252380D01*
X133530952Y-55252380D01*
X133435714Y-55300000D01*
X133388095Y-55347619D01*
X133340476Y-55442857D01*
X133340476Y-55538095D01*
X133388095Y-55680952D01*
X133959523Y-56252380D01*
X133340476Y-56252380D01*
X133007142Y-55252380D02*
X132388095Y-55252380D01*
X132721428Y-55633333D01*
X132578571Y-55633333D01*
X132483333Y-55680952D01*
X132435714Y-55728571D01*
X132388095Y-55823809D01*
X132388095Y-56061904D01*
X132435714Y-56157142D01*
X132483333Y-56204761D01*
X132578571Y-56252380D01*
X132864285Y-56252380D01*
X132959523Y-56204761D01*
X133007142Y-56157142D01*
X154702380Y-83157142D02*
X154226190Y-82823809D01*
X154702380Y-82585714D02*
X153702380Y-82585714D01*
X153702380Y-82966666D01*
X153750000Y-83061904D01*
X153797619Y-83109523D01*
X153892857Y-83157142D01*
X154035714Y-83157142D01*
X154130952Y-83109523D01*
X154178571Y-83061904D01*
X154226190Y-82966666D01*
X154226190Y-82585714D01*
X153797619Y-83538095D02*
X153750000Y-83585714D01*
X153702380Y-83680952D01*
X153702380Y-83919047D01*
X153750000Y-84014285D01*
X153797619Y-84061904D01*
X153892857Y-84109523D01*
X153988095Y-84109523D01*
X154130952Y-84061904D01*
X154702380Y-83490476D01*
X154702380Y-84109523D01*
X153702380Y-85014285D02*
X153702380Y-84538095D01*
X154178571Y-84490476D01*
X154130952Y-84538095D01*
X154083333Y-84633333D01*
X154083333Y-84871428D01*
X154130952Y-84966666D01*
X154178571Y-85014285D01*
X154273809Y-85061904D01*
X154511904Y-85061904D01*
X154607142Y-85014285D01*
X154654761Y-84966666D01*
X154702380Y-84871428D01*
X154702380Y-84633333D01*
X154654761Y-84538095D01*
X154607142Y-84490476D01*
X145402857Y-55192380D02*
X145736190Y-54716190D01*
X145974285Y-55192380D02*
X145974285Y-54192380D01*
X145593333Y-54192380D01*
X145498095Y-54240000D01*
X145450476Y-54287619D01*
X145402857Y-54382857D01*
X145402857Y-54525714D01*
X145450476Y-54620952D01*
X145498095Y-54668571D01*
X145593333Y-54716190D01*
X145974285Y-54716190D01*
X145021904Y-54287619D02*
X144974285Y-54240000D01*
X144879047Y-54192380D01*
X144640952Y-54192380D01*
X144545714Y-54240000D01*
X144498095Y-54287619D01*
X144450476Y-54382857D01*
X144450476Y-54478095D01*
X144498095Y-54620952D01*
X145069523Y-55192380D01*
X144450476Y-55192380D01*
X144069523Y-54287619D02*
X144021904Y-54240000D01*
X143926666Y-54192380D01*
X143688571Y-54192380D01*
X143593333Y-54240000D01*
X143545714Y-54287619D01*
X143498095Y-54382857D01*
X143498095Y-54478095D01*
X143545714Y-54620952D01*
X144117142Y-55192380D01*
X143498095Y-55192380D01*
X114640476Y-63152380D02*
X114973809Y-62676190D01*
X115211904Y-63152380D02*
X115211904Y-62152380D01*
X114830952Y-62152380D01*
X114735714Y-62200000D01*
X114688095Y-62247619D01*
X114640476Y-62342857D01*
X114640476Y-62485714D01*
X114688095Y-62580952D01*
X114735714Y-62628571D01*
X114830952Y-62676190D01*
X115211904Y-62676190D01*
X114211904Y-63152380D02*
X114211904Y-62152380D01*
X113640476Y-63152380D01*
X113640476Y-62152380D01*
X113259523Y-62152380D02*
X112640476Y-62152380D01*
X112973809Y-62533333D01*
X112830952Y-62533333D01*
X112735714Y-62580952D01*
X112688095Y-62628571D01*
X112640476Y-62723809D01*
X112640476Y-62961904D01*
X112688095Y-63057142D01*
X112735714Y-63104761D01*
X112830952Y-63152380D01*
X113116666Y-63152380D01*
X113211904Y-63104761D01*
X113259523Y-63057142D01*
X117140476Y-64852380D02*
X117473809Y-64376190D01*
X117711904Y-64852380D02*
X117711904Y-63852380D01*
X117330952Y-63852380D01*
X117235714Y-63900000D01*
X117188095Y-63947619D01*
X117140476Y-64042857D01*
X117140476Y-64185714D01*
X117188095Y-64280952D01*
X117235714Y-64328571D01*
X117330952Y-64376190D01*
X117711904Y-64376190D01*
X116711904Y-64852380D02*
X116711904Y-63852380D01*
X116140476Y-64852380D01*
X116140476Y-63852380D01*
X115140476Y-64852380D02*
X115711904Y-64852380D01*
X115426190Y-64852380D02*
X115426190Y-63852380D01*
X115521428Y-63995238D01*
X115616666Y-64090476D01*
X115711904Y-64138095D01*
X106290476Y-60052380D02*
X106623809Y-59576190D01*
X106861904Y-60052380D02*
X106861904Y-59052380D01*
X106480952Y-59052380D01*
X106385714Y-59100000D01*
X106338095Y-59147619D01*
X106290476Y-59242857D01*
X106290476Y-59385714D01*
X106338095Y-59480952D01*
X106385714Y-59528571D01*
X106480952Y-59576190D01*
X106861904Y-59576190D01*
X105861904Y-60052380D02*
X105861904Y-59052380D01*
X105290476Y-60052380D01*
X105290476Y-59052380D01*
X104861904Y-59147619D02*
X104814285Y-59100000D01*
X104719047Y-59052380D01*
X104480952Y-59052380D01*
X104385714Y-59100000D01*
X104338095Y-59147619D01*
X104290476Y-59242857D01*
X104290476Y-59338095D01*
X104338095Y-59480952D01*
X104909523Y-60052380D01*
X104290476Y-60052380D01*
D11*
X129520952Y-61745476D02*
X129641904Y-61685000D01*
X129762857Y-61564047D01*
X129944285Y-61382619D01*
X130065238Y-61322142D01*
X130186190Y-61322142D01*
X130125714Y-61624523D02*
X130246666Y-61564047D01*
X130367619Y-61443095D01*
X130428095Y-61201190D01*
X130428095Y-60777857D01*
X130367619Y-60535952D01*
X130246666Y-60415000D01*
X130125714Y-60354523D01*
X129883809Y-60354523D01*
X129762857Y-60415000D01*
X129641904Y-60535952D01*
X129581428Y-60777857D01*
X129581428Y-61201190D01*
X129641904Y-61443095D01*
X129762857Y-61564047D01*
X129883809Y-61624523D01*
X130125714Y-61624523D01*
X129097619Y-60475476D02*
X129037142Y-60415000D01*
X128916190Y-60354523D01*
X128613809Y-60354523D01*
X128492857Y-60415000D01*
X128432380Y-60475476D01*
X128371904Y-60596428D01*
X128371904Y-60717380D01*
X128432380Y-60898809D01*
X129158095Y-61624523D01*
X128371904Y-61624523D01*
X109920952Y-58945476D02*
X110041904Y-58885000D01*
X110162857Y-58764047D01*
X110344285Y-58582619D01*
X110465238Y-58522142D01*
X110586190Y-58522142D01*
X110525714Y-58824523D02*
X110646666Y-58764047D01*
X110767619Y-58643095D01*
X110828095Y-58401190D01*
X110828095Y-57977857D01*
X110767619Y-57735952D01*
X110646666Y-57615000D01*
X110525714Y-57554523D01*
X110283809Y-57554523D01*
X110162857Y-57615000D01*
X110041904Y-57735952D01*
X109981428Y-57977857D01*
X109981428Y-58401190D01*
X110041904Y-58643095D01*
X110162857Y-58764047D01*
X110283809Y-58824523D01*
X110525714Y-58824523D01*
X109558095Y-57554523D02*
X108771904Y-57554523D01*
X109195238Y-58038333D01*
X109013809Y-58038333D01*
X108892857Y-58098809D01*
X108832380Y-58159285D01*
X108771904Y-58280238D01*
X108771904Y-58582619D01*
X108832380Y-58703571D01*
X108892857Y-58764047D01*
X109013809Y-58824523D01*
X109376666Y-58824523D01*
X109497619Y-58764047D01*
X109558095Y-58703571D01*
X106370952Y-67595476D02*
X106491904Y-67535000D01*
X106612857Y-67414047D01*
X106794285Y-67232619D01*
X106915238Y-67172142D01*
X107036190Y-67172142D01*
X106975714Y-67474523D02*
X107096666Y-67414047D01*
X107217619Y-67293095D01*
X107278095Y-67051190D01*
X107278095Y-66627857D01*
X107217619Y-66385952D01*
X107096666Y-66265000D01*
X106975714Y-66204523D01*
X106733809Y-66204523D01*
X106612857Y-66265000D01*
X106491904Y-66385952D01*
X106431428Y-66627857D01*
X106431428Y-67051190D01*
X106491904Y-67293095D01*
X106612857Y-67414047D01*
X106733809Y-67474523D01*
X106975714Y-67474523D01*
X105342857Y-66627857D02*
X105342857Y-67474523D01*
X105645238Y-66144047D02*
X105947619Y-67051190D01*
X105161428Y-67051190D01*
X98870952Y-62295476D02*
X98991904Y-62235000D01*
X99112857Y-62114047D01*
X99294285Y-61932619D01*
X99415238Y-61872142D01*
X99536190Y-61872142D01*
X99475714Y-62174523D02*
X99596666Y-62114047D01*
X99717619Y-61993095D01*
X99778095Y-61751190D01*
X99778095Y-61327857D01*
X99717619Y-61085952D01*
X99596666Y-60965000D01*
X99475714Y-60904523D01*
X99233809Y-60904523D01*
X99112857Y-60965000D01*
X98991904Y-61085952D01*
X98931428Y-61327857D01*
X98931428Y-61751190D01*
X98991904Y-61993095D01*
X99112857Y-62114047D01*
X99233809Y-62174523D01*
X99475714Y-62174523D01*
X97782380Y-60904523D02*
X98387142Y-60904523D01*
X98447619Y-61509285D01*
X98387142Y-61448809D01*
X98266190Y-61388333D01*
X97963809Y-61388333D01*
X97842857Y-61448809D01*
X97782380Y-61509285D01*
X97721904Y-61630238D01*
X97721904Y-61932619D01*
X97782380Y-62053571D01*
X97842857Y-62114047D01*
X97963809Y-62174523D01*
X98266190Y-62174523D01*
X98387142Y-62114047D01*
X98447619Y-62053571D01*
M02*
