G04 #@! TF.GenerationSoftware,KiCad,Pcbnew,5.1.4-e60b266~84~ubuntu18.04.1*
G04 #@! TF.CreationDate,2019-09-03T22:39:15+03:00*
G04 #@! TF.ProjectId,Dreamstalker-PRO-v1,44726561-6d73-4746-916c-6b65722d5052,v1.0*
G04 #@! TF.SameCoordinates,Original*
G04 #@! TF.FileFunction,Legend,Top*
G04 #@! TF.FilePolarity,Positive*
%FSLAX46Y46*%
G04 Gerber Fmt 4.6, Leading zero omitted, Abs format (unit mm)*
G04 Created by KiCad (PCBNEW 5.1.4-e60b266~84~ubuntu18.04.1) date 2019-09-03 22:39:15*
%MOMM*%
%LPD*%
G04 APERTURE LIST*
%ADD10C,0.100000*%
%ADD11C,0.120000*%
%ADD12C,0.200000*%
%ADD13C,0.254000*%
%ADD14C,0.150000*%
%ADD15C,0.180000*%
G04 APERTURE END LIST*
D10*
X90790000Y-70300000D02*
X90790000Y-54300000D01*
X131190000Y-70300000D02*
X90790000Y-70300000D01*
X131190000Y-54300000D02*
X131190000Y-70300000D01*
X90790000Y-54300000D02*
X131190000Y-54300000D01*
D11*
X94700000Y-75850000D02*
X96300000Y-75850000D01*
X94700000Y-76350000D02*
X96300000Y-76350000D01*
X97200000Y-73250000D02*
X97200000Y-75700000D01*
X93800000Y-73250000D02*
X97200000Y-73250000D01*
X93800000Y-75700000D02*
X93800000Y-73250000D01*
X97600000Y-81550000D02*
X97600000Y-80450000D01*
X94450000Y-83550000D02*
X96550000Y-83550000D01*
X93400000Y-81550000D02*
X93400000Y-80450000D01*
X105175000Y-72570000D02*
X105175000Y-73840000D01*
X102635000Y-72570000D02*
X105175000Y-72570000D01*
X102635000Y-95430000D02*
X102635000Y-72570000D01*
X105175000Y-95430000D02*
X105175000Y-94160000D01*
X102635000Y-95430000D02*
X105175000Y-95430000D01*
X149625000Y-73840000D02*
X136925000Y-73840000D01*
X149625000Y-72570000D02*
X149625000Y-73840000D01*
X152165000Y-72570000D02*
X149625000Y-72570000D01*
X152165000Y-95430000D02*
X152165000Y-72570000D01*
X149625000Y-95430000D02*
X152165000Y-95430000D01*
X149625000Y-94160000D02*
X149625000Y-95430000D01*
X149625000Y-94160000D02*
X136925000Y-94160000D01*
X105175000Y-73840000D02*
X117875000Y-73840000D01*
X136925000Y-95430000D02*
X136925000Y-94160000D01*
X117875000Y-95430000D02*
X136925000Y-95430000D01*
X117875000Y-94160000D02*
X117875000Y-95430000D01*
X105175000Y-94160000D02*
X117875000Y-94160000D01*
X117875000Y-72570000D02*
X117875000Y-73840000D01*
X136925000Y-72570000D02*
X117875000Y-72570000D01*
X136925000Y-73840000D02*
X136925000Y-72570000D01*
X125495000Y-83746000D02*
X102635000Y-83746000D01*
X125495000Y-84254000D02*
X125495000Y-83746000D01*
X102635000Y-84254000D02*
X125495000Y-84254000D01*
X129305000Y-83746000D02*
X152165000Y-83746000D01*
X129305000Y-84254000D02*
X129305000Y-83746000D01*
X152165000Y-84254000D02*
X129305000Y-84254000D01*
X117875000Y-92890000D02*
X117875000Y-91620000D01*
X135655000Y-92890000D02*
X117875000Y-92890000D01*
X135655000Y-91620000D02*
X135655000Y-92890000D01*
X136925000Y-91620000D02*
X135655000Y-91620000D01*
X136925000Y-89080000D02*
X136925000Y-91620000D01*
X135655000Y-89080000D02*
X136925000Y-89080000D01*
X135655000Y-87810000D02*
X135655000Y-89080000D01*
X117875000Y-87810000D02*
X135655000Y-87810000D01*
X117875000Y-91620000D02*
X117875000Y-87810000D01*
X119145000Y-75110000D02*
X136925000Y-75110000D01*
X119145000Y-76380000D02*
X119145000Y-75110000D01*
X117875000Y-76380000D02*
X119145000Y-76380000D01*
X117875000Y-78920000D02*
X117875000Y-76380000D01*
X119145000Y-78920000D02*
X117875000Y-78920000D01*
X119145000Y-80190000D02*
X119145000Y-78920000D01*
X136925000Y-80190000D02*
X119145000Y-80190000D01*
X136925000Y-75110000D02*
X136925000Y-80190000D01*
X100395000Y-96400000D02*
X153595000Y-96400000D01*
X153595000Y-96400000D02*
X153595000Y-71600000D01*
X153595000Y-71600000D02*
X100395000Y-71600000D01*
X100395000Y-71600000D02*
X100395000Y-96400000D01*
X143750000Y-65000000D02*
G75*
G03X143750000Y-65000000I-4950000J0D01*
G01*
X133900000Y-43050000D02*
X139100000Y-43050000D01*
X139600000Y-54750000D02*
X139600000Y-52650000D01*
X133400000Y-54750000D02*
X139600000Y-54750000D01*
X133400000Y-52650000D02*
X133400000Y-54750000D01*
X139600000Y-49150000D02*
X139600000Y-50450000D01*
X139600000Y-45950000D02*
X139600000Y-46950000D01*
X133400000Y-45950000D02*
X133400000Y-50450000D01*
X139100000Y-43050000D02*
X139600000Y-43050000D01*
X139600000Y-43050000D02*
X139600000Y-43750000D01*
X133400000Y-43050000D02*
X133400000Y-43750000D01*
X133900000Y-43050000D02*
X133400000Y-43050000D01*
X139100000Y-40550000D02*
X139100000Y-43050000D01*
X133900000Y-40550000D02*
X139100000Y-40550000D01*
X133900000Y-40550000D02*
X133900000Y-43050000D01*
X140890000Y-54162779D02*
X140890000Y-53837221D01*
X141910000Y-54162779D02*
X141910000Y-53837221D01*
X101500000Y-47450000D02*
X101500000Y-48950000D01*
X102750000Y-51450000D02*
X107250000Y-51450000D01*
X108500000Y-48950000D02*
X108500000Y-47450000D01*
X107250000Y-44950000D02*
X102750000Y-44950000D01*
X107850000Y-101300000D02*
X107850000Y-99800000D01*
X106600000Y-97300000D02*
X102100000Y-97300000D01*
X100850000Y-99800000D02*
X100850000Y-101300000D01*
X102100000Y-103800000D02*
X106600000Y-103800000D01*
X132500000Y-101300000D02*
X132500000Y-99800000D01*
X131250000Y-97300000D02*
X126750000Y-97300000D01*
X125500000Y-99800000D02*
X125500000Y-101300000D01*
X126750000Y-103800000D02*
X131250000Y-103800000D01*
X121400000Y-47450000D02*
X121400000Y-48950000D01*
X122650000Y-51450000D02*
X127150000Y-51450000D01*
X128400000Y-48950000D02*
X128400000Y-47450000D01*
X127150000Y-44950000D02*
X122650000Y-44950000D01*
X111400000Y-47450000D02*
X111400000Y-48950000D01*
X112650000Y-51450000D02*
X117150000Y-51450000D01*
X118400000Y-48950000D02*
X118400000Y-47450000D01*
X117150000Y-44950000D02*
X112650000Y-44950000D01*
X91600000Y-47450000D02*
X91600000Y-48950000D01*
X92850000Y-51450000D02*
X97350000Y-51450000D01*
X98600000Y-48950000D02*
X98600000Y-47450000D01*
X97350000Y-44950000D02*
X92850000Y-44950000D01*
X166200000Y-55050000D02*
G75*
G03X166200000Y-55050000I-11600000J0D01*
G01*
X93841422Y-91810000D02*
X94358578Y-91810000D01*
X93841422Y-90390000D02*
X94358578Y-90390000D01*
X132490000Y-59841422D02*
X132490000Y-60358578D01*
X133910000Y-59841422D02*
X133910000Y-60358578D01*
X160870000Y-105860000D02*
X166070000Y-105860000D01*
X160870000Y-100720000D02*
X160870000Y-105860000D01*
X166070000Y-98120000D02*
X166070000Y-105860000D01*
X160870000Y-100720000D02*
X163470000Y-100720000D01*
X163470000Y-100720000D02*
X163470000Y-98120000D01*
X163470000Y-98120000D02*
X166070000Y-98120000D01*
X160870000Y-99450000D02*
X160870000Y-98120000D01*
X160870000Y-98120000D02*
X162200000Y-98120000D01*
X115790000Y-113830000D02*
X115790000Y-108630000D01*
X105570000Y-113830000D02*
X115790000Y-113830000D01*
X102970000Y-108630000D02*
X115790000Y-108630000D01*
X105570000Y-113830000D02*
X105570000Y-111230000D01*
X105570000Y-111230000D02*
X102970000Y-111230000D01*
X102970000Y-111230000D02*
X102970000Y-108630000D01*
X104300000Y-113830000D02*
X102970000Y-113830000D01*
X102970000Y-113830000D02*
X102970000Y-112500000D01*
X98162779Y-87390000D02*
X97837221Y-87390000D01*
X98162779Y-88410000D02*
X97837221Y-88410000D01*
X98162779Y-86310000D02*
X97837221Y-86310000D01*
X98162779Y-85290000D02*
X97837221Y-85290000D01*
D12*
X92690000Y-86900000D02*
X92690000Y-86800000D01*
X92690000Y-86800000D02*
X95610000Y-86800000D01*
X95610000Y-86800000D02*
X95610000Y-86900000D01*
X95610000Y-86900000D02*
X92690000Y-86900000D01*
X92650000Y-88550000D02*
X92650000Y-87250000D01*
D13*
X94857857Y-72074523D02*
X94857857Y-70804523D01*
X95160238Y-70804523D01*
X95341666Y-70865000D01*
X95462619Y-70985952D01*
X95523095Y-71106904D01*
X95583571Y-71348809D01*
X95583571Y-71530238D01*
X95523095Y-71772142D01*
X95462619Y-71893095D01*
X95341666Y-72014047D01*
X95160238Y-72074523D01*
X94857857Y-72074523D01*
X96067380Y-72014047D02*
X96248809Y-72074523D01*
X96551190Y-72074523D01*
X96672142Y-72014047D01*
X96732619Y-71953571D01*
X96793095Y-71832619D01*
X96793095Y-71711666D01*
X96732619Y-71590714D01*
X96672142Y-71530238D01*
X96551190Y-71469761D01*
X96309285Y-71409285D01*
X96188333Y-71348809D01*
X96127857Y-71288333D01*
X96067380Y-71167380D01*
X96067380Y-71046428D01*
X96127857Y-70925476D01*
X96188333Y-70865000D01*
X96309285Y-70804523D01*
X96611666Y-70804523D01*
X96793095Y-70865000D01*
X98002619Y-72074523D02*
X97276904Y-72074523D01*
X97639761Y-72074523D02*
X97639761Y-70804523D01*
X97518809Y-70985952D01*
X97397857Y-71106904D01*
X97276904Y-71167380D01*
D14*
X90790476Y-79452380D02*
X90790476Y-78452380D01*
X91123809Y-79166666D01*
X91457142Y-78452380D01*
X91457142Y-79452380D01*
X92457142Y-79452380D02*
X91885714Y-79452380D01*
X92171428Y-79452380D02*
X92171428Y-78452380D01*
X92076190Y-78595238D01*
X91980952Y-78690476D01*
X91885714Y-78738095D01*
X150109285Y-97278571D02*
X150252142Y-97326190D01*
X150299761Y-97373809D01*
X150347380Y-97469047D01*
X150347380Y-97611904D01*
X150299761Y-97707142D01*
X150252142Y-97754761D01*
X150156904Y-97802380D01*
X149775952Y-97802380D01*
X149775952Y-96802380D01*
X150109285Y-96802380D01*
X150204523Y-96850000D01*
X150252142Y-96897619D01*
X150299761Y-96992857D01*
X150299761Y-97088095D01*
X150252142Y-97183333D01*
X150204523Y-97230952D01*
X150109285Y-97278571D01*
X149775952Y-97278571D01*
X150633095Y-96802380D02*
X151204523Y-96802380D01*
X150918809Y-97802380D02*
X150918809Y-96802380D01*
X152061666Y-97802380D02*
X151490238Y-97802380D01*
X151775952Y-97802380D02*
X151775952Y-96802380D01*
X151680714Y-96945238D01*
X151585476Y-97040476D01*
X151490238Y-97088095D01*
X118728571Y-90607142D02*
X119871428Y-90607142D01*
X134328571Y-90607142D02*
X135471428Y-90607142D01*
X134900000Y-91178571D02*
X134900000Y-90035714D01*
X134778571Y-77857142D02*
X135921428Y-77857142D01*
X119578571Y-77857142D02*
X120721428Y-77857142D01*
X120150000Y-78428571D02*
X120150000Y-77285714D01*
X134328571Y-90607142D02*
X135471428Y-90607142D01*
X134900000Y-91178571D02*
X134900000Y-90035714D01*
X118728571Y-90607142D02*
X119871428Y-90607142D01*
X142290476Y-70252380D02*
X142290476Y-69252380D01*
X142623809Y-69966666D01*
X142957142Y-69252380D01*
X142957142Y-70252380D01*
X143433333Y-70252380D02*
X143433333Y-69252380D01*
X144004761Y-70252380D02*
X143576190Y-69680952D01*
X144004761Y-69252380D02*
X143433333Y-69823809D01*
X144957142Y-70252380D02*
X144385714Y-70252380D01*
X144671428Y-70252380D02*
X144671428Y-69252380D01*
X144576190Y-69395238D01*
X144480952Y-69490476D01*
X144385714Y-69538095D01*
D13*
X97462619Y-105874523D02*
X97462619Y-104604523D01*
X97765000Y-104604523D01*
X97946428Y-104665000D01*
X98067380Y-104785952D01*
X98127857Y-104906904D01*
X98188333Y-105148809D01*
X98188333Y-105330238D01*
X98127857Y-105572142D01*
X98067380Y-105693095D01*
X97946428Y-105814047D01*
X97765000Y-105874523D01*
X97462619Y-105874523D01*
X98611666Y-104604523D02*
X99397857Y-104604523D01*
X98974523Y-105088333D01*
X99155952Y-105088333D01*
X99276904Y-105148809D01*
X99337380Y-105209285D01*
X99397857Y-105330238D01*
X99397857Y-105632619D01*
X99337380Y-105753571D01*
X99276904Y-105814047D01*
X99155952Y-105874523D01*
X98793095Y-105874523D01*
X98672142Y-105814047D01*
X98611666Y-105753571D01*
D15*
X93321428Y-105497619D02*
X92178571Y-105497619D01*
X92750000Y-104497619D02*
X92750000Y-105497619D01*
D13*
X94062619Y-108274523D02*
X94062619Y-107004523D01*
X94365000Y-107004523D01*
X94546428Y-107065000D01*
X94667380Y-107185952D01*
X94727857Y-107306904D01*
X94788333Y-107548809D01*
X94788333Y-107730238D01*
X94727857Y-107972142D01*
X94667380Y-108093095D01*
X94546428Y-108214047D01*
X94365000Y-108274523D01*
X94062619Y-108274523D01*
X95997857Y-108274523D02*
X95272142Y-108274523D01*
X95635000Y-108274523D02*
X95635000Y-107004523D01*
X95514047Y-107185952D01*
X95393095Y-107306904D01*
X95272142Y-107367380D01*
D15*
X98302380Y-110921428D02*
X98302380Y-109778571D01*
X99302380Y-110350000D02*
X98302380Y-110350000D01*
D13*
X94629047Y-121495476D02*
X94508095Y-121435000D01*
X94387142Y-121314047D01*
X94205714Y-121132619D01*
X94084761Y-121072142D01*
X93963809Y-121072142D01*
X94024285Y-121374523D02*
X93903333Y-121314047D01*
X93782380Y-121193095D01*
X93721904Y-120951190D01*
X93721904Y-120527857D01*
X93782380Y-120285952D01*
X93903333Y-120165000D01*
X94024285Y-120104523D01*
X94266190Y-120104523D01*
X94387142Y-120165000D01*
X94508095Y-120285952D01*
X94568571Y-120527857D01*
X94568571Y-120951190D01*
X94508095Y-121193095D01*
X94387142Y-121314047D01*
X94266190Y-121374523D01*
X94024285Y-121374523D01*
X95657142Y-120104523D02*
X95415238Y-120104523D01*
X95294285Y-120165000D01*
X95233809Y-120225476D01*
X95112857Y-120406904D01*
X95052380Y-120648809D01*
X95052380Y-121132619D01*
X95112857Y-121253571D01*
X95173333Y-121314047D01*
X95294285Y-121374523D01*
X95536190Y-121374523D01*
X95657142Y-121314047D01*
X95717619Y-121253571D01*
X95778095Y-121132619D01*
X95778095Y-120830238D01*
X95717619Y-120709285D01*
X95657142Y-120648809D01*
X95536190Y-120588333D01*
X95294285Y-120588333D01*
X95173333Y-120648809D01*
X95112857Y-120709285D01*
X95052380Y-120830238D01*
D15*
X92378571Y-115052380D02*
X93521428Y-115052380D01*
X92950000Y-116052380D02*
X92950000Y-115052380D01*
D13*
X163962619Y-108574523D02*
X163962619Y-107304523D01*
X164265000Y-107304523D01*
X164446428Y-107365000D01*
X164567380Y-107485952D01*
X164627857Y-107606904D01*
X164688333Y-107848809D01*
X164688333Y-108030238D01*
X164627857Y-108272142D01*
X164567380Y-108393095D01*
X164446428Y-108514047D01*
X164265000Y-108574523D01*
X163962619Y-108574523D01*
X165172142Y-107425476D02*
X165232619Y-107365000D01*
X165353571Y-107304523D01*
X165655952Y-107304523D01*
X165776904Y-107365000D01*
X165837380Y-107425476D01*
X165897857Y-107546428D01*
X165897857Y-107667380D01*
X165837380Y-107848809D01*
X165111666Y-108574523D01*
X165897857Y-108574523D01*
D15*
X159747619Y-109828571D02*
X159747619Y-110971428D01*
X158747619Y-110400000D02*
X159747619Y-110400000D01*
D14*
X131216666Y-47202380D02*
X131216666Y-47916666D01*
X131169047Y-48059523D01*
X131073809Y-48154761D01*
X130930952Y-48202380D01*
X130835714Y-48202380D01*
X131597619Y-47202380D02*
X132216666Y-47202380D01*
X131883333Y-47583333D01*
X132026190Y-47583333D01*
X132121428Y-47630952D01*
X132169047Y-47678571D01*
X132216666Y-47773809D01*
X132216666Y-48011904D01*
X132169047Y-48107142D01*
X132121428Y-48154761D01*
X132026190Y-48202380D01*
X131740476Y-48202380D01*
X131645238Y-48154761D01*
X131597619Y-48107142D01*
X142052380Y-57742857D02*
X141576190Y-58076190D01*
X142052380Y-58314285D02*
X141052380Y-58314285D01*
X141052380Y-57933333D01*
X141100000Y-57838095D01*
X141147619Y-57790476D01*
X141242857Y-57742857D01*
X141385714Y-57742857D01*
X141480952Y-57790476D01*
X141528571Y-57838095D01*
X141576190Y-57933333D01*
X141576190Y-58314285D01*
X141147619Y-57361904D02*
X141100000Y-57314285D01*
X141052380Y-57219047D01*
X141052380Y-56980952D01*
X141100000Y-56885714D01*
X141147619Y-56838095D01*
X141242857Y-56790476D01*
X141338095Y-56790476D01*
X141480952Y-56838095D01*
X142052380Y-57409523D01*
X142052380Y-56790476D01*
X141052380Y-55933333D02*
X141052380Y-56123809D01*
X141100000Y-56219047D01*
X141147619Y-56266666D01*
X141290476Y-56361904D01*
X141480952Y-56409523D01*
X141861904Y-56409523D01*
X141957142Y-56361904D01*
X142004761Y-56314285D01*
X142052380Y-56219047D01*
X142052380Y-56028571D01*
X142004761Y-55933333D01*
X141957142Y-55885714D01*
X141861904Y-55838095D01*
X141623809Y-55838095D01*
X141528571Y-55885714D01*
X141480952Y-55933333D01*
X141433333Y-56028571D01*
X141433333Y-56219047D01*
X141480952Y-56314285D01*
X141528571Y-56361904D01*
X141623809Y-56409523D01*
X103566666Y-53054761D02*
X103709523Y-53102380D01*
X103947619Y-53102380D01*
X104042857Y-53054761D01*
X104090476Y-53007142D01*
X104138095Y-52911904D01*
X104138095Y-52816666D01*
X104090476Y-52721428D01*
X104042857Y-52673809D01*
X103947619Y-52626190D01*
X103757142Y-52578571D01*
X103661904Y-52530952D01*
X103614285Y-52483333D01*
X103566666Y-52388095D01*
X103566666Y-52292857D01*
X103614285Y-52197619D01*
X103661904Y-52150000D01*
X103757142Y-52102380D01*
X103995238Y-52102380D01*
X104138095Y-52150000D01*
X104471428Y-52102380D02*
X104709523Y-53102380D01*
X104900000Y-52388095D01*
X105090476Y-53102380D01*
X105328571Y-52102380D01*
X105661904Y-52197619D02*
X105709523Y-52150000D01*
X105804761Y-52102380D01*
X106042857Y-52102380D01*
X106138095Y-52150000D01*
X106185714Y-52197619D01*
X106233333Y-52292857D01*
X106233333Y-52388095D01*
X106185714Y-52530952D01*
X105614285Y-53102380D01*
X106233333Y-53102380D01*
X102578571Y-43328571D02*
X102911904Y-43328571D01*
X103054761Y-43852380D02*
X102578571Y-43852380D01*
X102578571Y-42852380D01*
X103054761Y-42852380D01*
X103483333Y-43852380D02*
X103483333Y-42852380D01*
X104054761Y-43852380D01*
X104054761Y-42852380D01*
X104388095Y-42852380D02*
X104959523Y-42852380D01*
X104673809Y-43852380D02*
X104673809Y-42852380D01*
X105292857Y-43328571D02*
X105626190Y-43328571D01*
X105769047Y-43852380D02*
X105292857Y-43852380D01*
X105292857Y-42852380D01*
X105769047Y-42852380D01*
X106769047Y-43852380D02*
X106435714Y-43376190D01*
X106197619Y-43852380D02*
X106197619Y-42852380D01*
X106578571Y-42852380D01*
X106673809Y-42900000D01*
X106721428Y-42947619D01*
X106769047Y-43042857D01*
X106769047Y-43185714D01*
X106721428Y-43280952D01*
X106673809Y-43328571D01*
X106578571Y-43376190D01*
X106197619Y-43376190D01*
X109166666Y-101054761D02*
X109309523Y-101102380D01*
X109547619Y-101102380D01*
X109642857Y-101054761D01*
X109690476Y-101007142D01*
X109738095Y-100911904D01*
X109738095Y-100816666D01*
X109690476Y-100721428D01*
X109642857Y-100673809D01*
X109547619Y-100626190D01*
X109357142Y-100578571D01*
X109261904Y-100530952D01*
X109214285Y-100483333D01*
X109166666Y-100388095D01*
X109166666Y-100292857D01*
X109214285Y-100197619D01*
X109261904Y-100150000D01*
X109357142Y-100102380D01*
X109595238Y-100102380D01*
X109738095Y-100150000D01*
X110071428Y-100102380D02*
X110309523Y-101102380D01*
X110500000Y-100388095D01*
X110690476Y-101102380D01*
X110928571Y-100102380D01*
X111214285Y-100102380D02*
X111833333Y-100102380D01*
X111500000Y-100483333D01*
X111642857Y-100483333D01*
X111738095Y-100530952D01*
X111785714Y-100578571D01*
X111833333Y-100673809D01*
X111833333Y-100911904D01*
X111785714Y-101007142D01*
X111738095Y-101054761D01*
X111642857Y-101102380D01*
X111357142Y-101102380D01*
X111261904Y-101054761D01*
X111214285Y-101007142D01*
X93890476Y-98752380D02*
X93890476Y-97752380D01*
X94271428Y-97752380D01*
X94366666Y-97800000D01*
X94414285Y-97847619D01*
X94461904Y-97942857D01*
X94461904Y-98085714D01*
X94414285Y-98180952D01*
X94366666Y-98228571D01*
X94271428Y-98276190D01*
X93890476Y-98276190D01*
X95080952Y-97752380D02*
X95271428Y-97752380D01*
X95366666Y-97800000D01*
X95461904Y-97895238D01*
X95509523Y-98085714D01*
X95509523Y-98419047D01*
X95461904Y-98609523D01*
X95366666Y-98704761D01*
X95271428Y-98752380D01*
X95080952Y-98752380D01*
X94985714Y-98704761D01*
X94890476Y-98609523D01*
X94842857Y-98419047D01*
X94842857Y-98085714D01*
X94890476Y-97895238D01*
X94985714Y-97800000D01*
X95080952Y-97752380D01*
X95842857Y-97752380D02*
X96080952Y-98752380D01*
X96271428Y-98038095D01*
X96461904Y-98752380D01*
X96700000Y-97752380D01*
X97080952Y-98228571D02*
X97414285Y-98228571D01*
X97557142Y-98752380D02*
X97080952Y-98752380D01*
X97080952Y-97752380D01*
X97557142Y-97752380D01*
X98557142Y-98752380D02*
X98223809Y-98276190D01*
X97985714Y-98752380D02*
X97985714Y-97752380D01*
X98366666Y-97752380D01*
X98461904Y-97800000D01*
X98509523Y-97847619D01*
X98557142Y-97942857D01*
X98557142Y-98085714D01*
X98509523Y-98180952D01*
X98461904Y-98228571D01*
X98366666Y-98276190D01*
X97985714Y-98276190D01*
X121366666Y-100954761D02*
X121509523Y-101002380D01*
X121747619Y-101002380D01*
X121842857Y-100954761D01*
X121890476Y-100907142D01*
X121938095Y-100811904D01*
X121938095Y-100716666D01*
X121890476Y-100621428D01*
X121842857Y-100573809D01*
X121747619Y-100526190D01*
X121557142Y-100478571D01*
X121461904Y-100430952D01*
X121414285Y-100383333D01*
X121366666Y-100288095D01*
X121366666Y-100192857D01*
X121414285Y-100097619D01*
X121461904Y-100050000D01*
X121557142Y-100002380D01*
X121795238Y-100002380D01*
X121938095Y-100050000D01*
X122271428Y-100002380D02*
X122509523Y-101002380D01*
X122700000Y-100288095D01*
X122890476Y-101002380D01*
X123128571Y-100002380D01*
X123938095Y-100335714D02*
X123938095Y-101002380D01*
X123700000Y-99954761D02*
X123461904Y-100669047D01*
X124080952Y-100669047D01*
X127333333Y-105807142D02*
X127285714Y-105854761D01*
X127142857Y-105902380D01*
X127047619Y-105902380D01*
X126904761Y-105854761D01*
X126809523Y-105759523D01*
X126761904Y-105664285D01*
X126714285Y-105473809D01*
X126714285Y-105330952D01*
X126761904Y-105140476D01*
X126809523Y-105045238D01*
X126904761Y-104950000D01*
X127047619Y-104902380D01*
X127142857Y-104902380D01*
X127285714Y-104950000D01*
X127333333Y-104997619D01*
X127761904Y-105902380D02*
X127761904Y-104902380D01*
X127761904Y-105378571D02*
X128333333Y-105378571D01*
X128333333Y-105902380D02*
X128333333Y-104902380D01*
X128809523Y-105378571D02*
X129142857Y-105378571D01*
X129285714Y-105902380D02*
X128809523Y-105902380D01*
X128809523Y-104902380D01*
X129285714Y-104902380D01*
X130285714Y-105807142D02*
X130238095Y-105854761D01*
X130095238Y-105902380D01*
X130000000Y-105902380D01*
X129857142Y-105854761D01*
X129761904Y-105759523D01*
X129714285Y-105664285D01*
X129666666Y-105473809D01*
X129666666Y-105330952D01*
X129714285Y-105140476D01*
X129761904Y-105045238D01*
X129857142Y-104950000D01*
X130000000Y-104902380D01*
X130095238Y-104902380D01*
X130238095Y-104950000D01*
X130285714Y-104997619D01*
X130714285Y-105902380D02*
X130714285Y-104902380D01*
X131285714Y-105902380D02*
X130857142Y-105330952D01*
X131285714Y-104902380D02*
X130714285Y-105473809D01*
X123616666Y-53054761D02*
X123759523Y-53102380D01*
X123997619Y-53102380D01*
X124092857Y-53054761D01*
X124140476Y-53007142D01*
X124188095Y-52911904D01*
X124188095Y-52816666D01*
X124140476Y-52721428D01*
X124092857Y-52673809D01*
X123997619Y-52626190D01*
X123807142Y-52578571D01*
X123711904Y-52530952D01*
X123664285Y-52483333D01*
X123616666Y-52388095D01*
X123616666Y-52292857D01*
X123664285Y-52197619D01*
X123711904Y-52150000D01*
X123807142Y-52102380D01*
X124045238Y-52102380D01*
X124188095Y-52150000D01*
X124521428Y-52102380D02*
X124759523Y-53102380D01*
X124950000Y-52388095D01*
X125140476Y-53102380D01*
X125378571Y-52102380D01*
X126188095Y-52102380D02*
X125997619Y-52102380D01*
X125902380Y-52150000D01*
X125854761Y-52197619D01*
X125759523Y-52340476D01*
X125711904Y-52530952D01*
X125711904Y-52911904D01*
X125759523Y-53007142D01*
X125807142Y-53054761D01*
X125902380Y-53102380D01*
X126092857Y-53102380D01*
X126188095Y-53054761D01*
X126235714Y-53007142D01*
X126283333Y-52911904D01*
X126283333Y-52673809D01*
X126235714Y-52578571D01*
X126188095Y-52530952D01*
X126092857Y-52483333D01*
X125902380Y-52483333D01*
X125807142Y-52530952D01*
X125759523Y-52578571D01*
X125711904Y-52673809D01*
X124138095Y-43885714D02*
X123900000Y-43885714D01*
X123900000Y-42457142D01*
X124138095Y-42457142D01*
X124519047Y-43171428D02*
X125280952Y-43171428D01*
X125661904Y-43885714D02*
X125900000Y-43885714D01*
X125900000Y-42457142D01*
X125661904Y-42457142D01*
X113466666Y-53054761D02*
X113609523Y-53102380D01*
X113847619Y-53102380D01*
X113942857Y-53054761D01*
X113990476Y-53007142D01*
X114038095Y-52911904D01*
X114038095Y-52816666D01*
X113990476Y-52721428D01*
X113942857Y-52673809D01*
X113847619Y-52626190D01*
X113657142Y-52578571D01*
X113561904Y-52530952D01*
X113514285Y-52483333D01*
X113466666Y-52388095D01*
X113466666Y-52292857D01*
X113514285Y-52197619D01*
X113561904Y-52150000D01*
X113657142Y-52102380D01*
X113895238Y-52102380D01*
X114038095Y-52150000D01*
X114371428Y-52102380D02*
X114609523Y-53102380D01*
X114800000Y-52388095D01*
X114990476Y-53102380D01*
X115228571Y-52102380D01*
X116085714Y-52102380D02*
X115609523Y-52102380D01*
X115561904Y-52578571D01*
X115609523Y-52530952D01*
X115704761Y-52483333D01*
X115942857Y-52483333D01*
X116038095Y-52530952D01*
X116085714Y-52578571D01*
X116133333Y-52673809D01*
X116133333Y-52911904D01*
X116085714Y-53007142D01*
X116038095Y-53054761D01*
X115942857Y-53102380D01*
X115704761Y-53102380D01*
X115609523Y-53054761D01*
X115561904Y-53007142D01*
X114138095Y-43885714D02*
X113900000Y-43885714D01*
X113900000Y-42457142D01*
X114138095Y-42457142D01*
X114519047Y-43171428D02*
X115280952Y-43171428D01*
X114900000Y-43552380D02*
X114900000Y-42790476D01*
X115661904Y-43885714D02*
X115900000Y-43885714D01*
X115900000Y-42457142D01*
X115661904Y-42457142D01*
X94116666Y-53104761D02*
X94259523Y-53152380D01*
X94497619Y-53152380D01*
X94592857Y-53104761D01*
X94640476Y-53057142D01*
X94688095Y-52961904D01*
X94688095Y-52866666D01*
X94640476Y-52771428D01*
X94592857Y-52723809D01*
X94497619Y-52676190D01*
X94307142Y-52628571D01*
X94211904Y-52580952D01*
X94164285Y-52533333D01*
X94116666Y-52438095D01*
X94116666Y-52342857D01*
X94164285Y-52247619D01*
X94211904Y-52200000D01*
X94307142Y-52152380D01*
X94545238Y-52152380D01*
X94688095Y-52200000D01*
X95021428Y-52152380D02*
X95259523Y-53152380D01*
X95450000Y-52438095D01*
X95640476Y-53152380D01*
X95878571Y-52152380D01*
X96783333Y-53152380D02*
X96211904Y-53152380D01*
X96497619Y-53152380D02*
X96497619Y-52152380D01*
X96402380Y-52295238D01*
X96307142Y-52390476D01*
X96211904Y-52438095D01*
X92673809Y-43854761D02*
X92816666Y-43902380D01*
X93054761Y-43902380D01*
X93150000Y-43854761D01*
X93197619Y-43807142D01*
X93245238Y-43711904D01*
X93245238Y-43616666D01*
X93197619Y-43521428D01*
X93150000Y-43473809D01*
X93054761Y-43426190D01*
X92864285Y-43378571D01*
X92769047Y-43330952D01*
X92721428Y-43283333D01*
X92673809Y-43188095D01*
X92673809Y-43092857D01*
X92721428Y-42997619D01*
X92769047Y-42950000D01*
X92864285Y-42902380D01*
X93102380Y-42902380D01*
X93245238Y-42950000D01*
X93673809Y-43378571D02*
X94007142Y-43378571D01*
X94150000Y-43902380D02*
X93673809Y-43902380D01*
X93673809Y-42902380D01*
X94150000Y-42902380D01*
X95054761Y-43902380D02*
X94578571Y-43902380D01*
X94578571Y-42902380D01*
X95388095Y-43378571D02*
X95721428Y-43378571D01*
X95864285Y-43902380D02*
X95388095Y-43902380D01*
X95388095Y-42902380D01*
X95864285Y-42902380D01*
X96864285Y-43807142D02*
X96816666Y-43854761D01*
X96673809Y-43902380D01*
X96578571Y-43902380D01*
X96435714Y-43854761D01*
X96340476Y-43759523D01*
X96292857Y-43664285D01*
X96245238Y-43473809D01*
X96245238Y-43330952D01*
X96292857Y-43140476D01*
X96340476Y-43045238D01*
X96435714Y-42950000D01*
X96578571Y-42902380D01*
X96673809Y-42902380D01*
X96816666Y-42950000D01*
X96864285Y-42997619D01*
X97150000Y-42902380D02*
X97721428Y-42902380D01*
X97435714Y-43902380D02*
X97435714Y-42902380D01*
X165457142Y-47402380D02*
X164980952Y-47402380D01*
X164980952Y-46402380D01*
X165742857Y-47354761D02*
X165885714Y-47402380D01*
X166123809Y-47402380D01*
X166219047Y-47354761D01*
X166266666Y-47307142D01*
X166314285Y-47211904D01*
X166314285Y-47116666D01*
X166266666Y-47021428D01*
X166219047Y-46973809D01*
X166123809Y-46926190D01*
X165933333Y-46878571D01*
X165838095Y-46830952D01*
X165790476Y-46783333D01*
X165742857Y-46688095D01*
X165742857Y-46592857D01*
X165790476Y-46497619D01*
X165838095Y-46450000D01*
X165933333Y-46402380D01*
X166171428Y-46402380D01*
X166314285Y-46450000D01*
X167266666Y-47402380D02*
X166695238Y-47402380D01*
X166980952Y-47402380D02*
X166980952Y-46402380D01*
X166885714Y-46545238D01*
X166790476Y-46640476D01*
X166695238Y-46688095D01*
X149209047Y-52581428D02*
X149970952Y-52581428D01*
X149590000Y-52962380D02*
X149590000Y-52200476D01*
X93833333Y-93157142D02*
X93785714Y-93204761D01*
X93642857Y-93252380D01*
X93547619Y-93252380D01*
X93404761Y-93204761D01*
X93309523Y-93109523D01*
X93261904Y-93014285D01*
X93214285Y-92823809D01*
X93214285Y-92680952D01*
X93261904Y-92490476D01*
X93309523Y-92395238D01*
X93404761Y-92300000D01*
X93547619Y-92252380D01*
X93642857Y-92252380D01*
X93785714Y-92300000D01*
X93833333Y-92347619D01*
X94785714Y-93252380D02*
X94214285Y-93252380D01*
X94500000Y-93252380D02*
X94500000Y-92252380D01*
X94404761Y-92395238D01*
X94309523Y-92490476D01*
X94214285Y-92538095D01*
X133657142Y-57366666D02*
X133704761Y-57414285D01*
X133752380Y-57557142D01*
X133752380Y-57652380D01*
X133704761Y-57795238D01*
X133609523Y-57890476D01*
X133514285Y-57938095D01*
X133323809Y-57985714D01*
X133180952Y-57985714D01*
X132990476Y-57938095D01*
X132895238Y-57890476D01*
X132800000Y-57795238D01*
X132752380Y-57652380D01*
X132752380Y-57557142D01*
X132800000Y-57414285D01*
X132847619Y-57366666D01*
X133752380Y-56890476D02*
X133752380Y-56700000D01*
X133704761Y-56604761D01*
X133657142Y-56557142D01*
X133514285Y-56461904D01*
X133323809Y-56414285D01*
X132942857Y-56414285D01*
X132847619Y-56461904D01*
X132800000Y-56509523D01*
X132752380Y-56604761D01*
X132752380Y-56795238D01*
X132800000Y-56890476D01*
X132847619Y-56938095D01*
X132942857Y-56985714D01*
X133180952Y-56985714D01*
X133276190Y-56938095D01*
X133323809Y-56890476D01*
X133371428Y-56795238D01*
X133371428Y-56604761D01*
X133323809Y-56509523D01*
X133276190Y-56461904D01*
X133180952Y-56414285D01*
X163136666Y-96572380D02*
X163136666Y-97286666D01*
X163089047Y-97429523D01*
X162993809Y-97524761D01*
X162850952Y-97572380D01*
X162755714Y-97572380D01*
X164136666Y-97572380D02*
X163565238Y-97572380D01*
X163850952Y-97572380D02*
X163850952Y-96572380D01*
X163755714Y-96715238D01*
X163660476Y-96810476D01*
X163565238Y-96858095D01*
X117166666Y-110902380D02*
X117166666Y-111616666D01*
X117119047Y-111759523D01*
X117023809Y-111854761D01*
X116880952Y-111902380D01*
X116785714Y-111902380D01*
X117595238Y-110997619D02*
X117642857Y-110950000D01*
X117738095Y-110902380D01*
X117976190Y-110902380D01*
X118071428Y-110950000D01*
X118119047Y-110997619D01*
X118166666Y-111092857D01*
X118166666Y-111188095D01*
X118119047Y-111330952D01*
X117547619Y-111902380D01*
X118166666Y-111902380D01*
X98433333Y-89852380D02*
X98100000Y-89376190D01*
X97861904Y-89852380D02*
X97861904Y-88852380D01*
X98242857Y-88852380D01*
X98338095Y-88900000D01*
X98385714Y-88947619D01*
X98433333Y-89042857D01*
X98433333Y-89185714D01*
X98385714Y-89280952D01*
X98338095Y-89328571D01*
X98242857Y-89376190D01*
X97861904Y-89376190D01*
X98766666Y-88852380D02*
X99385714Y-88852380D01*
X99052380Y-89233333D01*
X99195238Y-89233333D01*
X99290476Y-89280952D01*
X99338095Y-89328571D01*
X99385714Y-89423809D01*
X99385714Y-89661904D01*
X99338095Y-89757142D01*
X99290476Y-89804761D01*
X99195238Y-89852380D01*
X98909523Y-89852380D01*
X98814285Y-89804761D01*
X98766666Y-89757142D01*
X98333333Y-84952380D02*
X98000000Y-84476190D01*
X97761904Y-84952380D02*
X97761904Y-83952380D01*
X98142857Y-83952380D01*
X98238095Y-84000000D01*
X98285714Y-84047619D01*
X98333333Y-84142857D01*
X98333333Y-84285714D01*
X98285714Y-84380952D01*
X98238095Y-84428571D01*
X98142857Y-84476190D01*
X97761904Y-84476190D01*
X98714285Y-84047619D02*
X98761904Y-84000000D01*
X98857142Y-83952380D01*
X99095238Y-83952380D01*
X99190476Y-84000000D01*
X99238095Y-84047619D01*
X99285714Y-84142857D01*
X99285714Y-84238095D01*
X99238095Y-84380952D01*
X98666666Y-84952380D01*
X99285714Y-84952380D01*
D13*
X91379047Y-89595476D02*
X91258095Y-89535000D01*
X91137142Y-89414047D01*
X90955714Y-89232619D01*
X90834761Y-89172142D01*
X90713809Y-89172142D01*
X90774285Y-89474523D02*
X90653333Y-89414047D01*
X90532380Y-89293095D01*
X90471904Y-89051190D01*
X90471904Y-88627857D01*
X90532380Y-88385952D01*
X90653333Y-88265000D01*
X90774285Y-88204523D01*
X91016190Y-88204523D01*
X91137142Y-88265000D01*
X91258095Y-88385952D01*
X91318571Y-88627857D01*
X91318571Y-89051190D01*
X91258095Y-89293095D01*
X91137142Y-89414047D01*
X91016190Y-89474523D01*
X90774285Y-89474523D01*
X92528095Y-89474523D02*
X91802380Y-89474523D01*
X92165238Y-89474523D02*
X92165238Y-88204523D01*
X92044285Y-88385952D01*
X91923333Y-88506904D01*
X91802380Y-88567380D01*
M02*
