G04 #@! TF.GenerationSoftware,KiCad,Pcbnew,5.1.4-e60b266~84~ubuntu18.04.1*
G04 #@! TF.CreationDate,2019-09-03T22:39:15+03:00*
G04 #@! TF.ProjectId,Dreamstalker-PRO-v1,44726561-6d73-4746-916c-6b65722d5052,v1.0*
G04 #@! TF.SameCoordinates,Original*
G04 #@! TF.FileFunction,Soldermask,Top*
G04 #@! TF.FilePolarity,Negative*
%FSLAX46Y46*%
G04 Gerber Fmt 4.6, Leading zero omitted, Abs format (unit mm)*
G04 Created by KiCad (PCBNEW 5.1.4-e60b266~84~ubuntu18.04.1) date 2019-09-03 22:39:15*
%MOMM*%
%LPD*%
G04 APERTURE LIST*
%ADD10C,0.100000*%
G04 APERTURE END LIST*
D10*
G36*
X96105538Y-118114004D02*
G01*
X96105996Y-118114096D01*
X96106049Y-118114101D01*
X96115942Y-118116082D01*
X96115992Y-118116097D01*
X96116470Y-118116193D01*
X96126576Y-118120396D01*
X96135708Y-118126508D01*
X96136073Y-118126873D01*
X96143181Y-118133991D01*
X96143188Y-118133999D01*
X96143524Y-118134336D01*
X96143788Y-118134731D01*
X96143802Y-118134749D01*
X96149385Y-118143123D01*
X96149398Y-118143148D01*
X96149669Y-118143554D01*
X96153862Y-118153706D01*
X96156576Y-118167397D01*
X96156852Y-118173048D01*
X96156852Y-119346923D01*
X96156572Y-119352633D01*
X96155906Y-119355977D01*
X96155904Y-119355997D01*
X96153938Y-119365873D01*
X96153929Y-119365902D01*
X96153832Y-119366390D01*
X96149640Y-119376510D01*
X96143569Y-119385607D01*
X96143246Y-119385930D01*
X96143178Y-119386013D01*
X96136013Y-119393178D01*
X96135930Y-119393246D01*
X96135607Y-119393569D01*
X96126510Y-119399640D01*
X96116390Y-119403832D01*
X96115902Y-119403929D01*
X96115873Y-119403938D01*
X96105997Y-119405904D01*
X96105977Y-119405906D01*
X96102633Y-119406572D01*
X96096923Y-119406852D01*
X94303077Y-119406852D01*
X94297367Y-119406572D01*
X94294023Y-119405906D01*
X94294003Y-119405904D01*
X94284127Y-119403938D01*
X94284098Y-119403929D01*
X94283610Y-119403832D01*
X94273490Y-119399640D01*
X94264393Y-119393569D01*
X94264070Y-119393246D01*
X94263987Y-119393178D01*
X94256822Y-119386013D01*
X94256754Y-119385930D01*
X94256431Y-119385607D01*
X94250360Y-119376510D01*
X94246168Y-119366390D01*
X94246071Y-119365902D01*
X94246062Y-119365873D01*
X94244096Y-119355997D01*
X94244094Y-119355977D01*
X94243428Y-119352633D01*
X94243148Y-119346923D01*
X94243148Y-118173077D01*
X94243428Y-118167367D01*
X94244094Y-118164023D01*
X94244096Y-118164003D01*
X94246062Y-118154127D01*
X94246071Y-118154098D01*
X94246168Y-118153610D01*
X94250360Y-118143490D01*
X94256431Y-118134393D01*
X94256754Y-118134070D01*
X94256822Y-118133987D01*
X94263987Y-118126822D01*
X94264070Y-118126754D01*
X94264393Y-118126431D01*
X94273490Y-118120360D01*
X94283610Y-118116168D01*
X94284098Y-118116071D01*
X94284127Y-118116062D01*
X94294003Y-118114096D01*
X94294025Y-118114094D01*
X94294501Y-118113999D01*
X94305499Y-118113999D01*
X94305976Y-118114094D01*
X94305997Y-118114096D01*
X94315873Y-118116062D01*
X94315896Y-118116069D01*
X94315936Y-118116077D01*
X94315971Y-118116092D01*
X94316811Y-118116347D01*
X94326743Y-118120551D01*
X94327512Y-118120977D01*
X94329870Y-118121975D01*
X94335954Y-118125815D01*
X94397155Y-118169530D01*
X94405498Y-118175000D01*
X94447530Y-118200219D01*
X94449824Y-118201563D01*
X94513839Y-118238143D01*
X94519955Y-118241416D01*
X94568657Y-118265767D01*
X94578135Y-118270023D01*
X94620892Y-118287126D01*
X94621133Y-118287223D01*
X94622956Y-118287985D01*
X94685451Y-118314768D01*
X94695163Y-118318461D01*
X94773176Y-118344465D01*
X94779814Y-118346474D01*
X94877391Y-118373086D01*
X94887920Y-118375475D01*
X94985202Y-118393163D01*
X94992060Y-118394214D01*
X95062753Y-118403050D01*
X95068668Y-118403647D01*
X95180412Y-118412244D01*
X95199588Y-118412244D01*
X95314367Y-118403414D01*
X95316095Y-118403269D01*
X95413933Y-118394375D01*
X95428809Y-118392113D01*
X95552098Y-118365693D01*
X95560245Y-118363659D01*
X95682643Y-118328689D01*
X95698406Y-118323018D01*
X95839977Y-118261080D01*
X95849731Y-118256297D01*
X95945686Y-118203958D01*
X95955167Y-118198228D01*
X96065912Y-118124398D01*
X96070843Y-118121450D01*
X96083694Y-118116143D01*
X96084175Y-118116048D01*
X96084194Y-118116042D01*
X96094060Y-118114090D01*
X96094066Y-118114089D01*
X96094553Y-118113993D01*
X96105538Y-118114004D01*
X96105538Y-118114004D01*
G37*
G36*
X96102633Y-114693428D02*
G01*
X96105977Y-114694094D01*
X96105997Y-114694096D01*
X96115873Y-114696062D01*
X96115902Y-114696071D01*
X96116390Y-114696168D01*
X96126510Y-114700360D01*
X96135607Y-114706431D01*
X96135930Y-114706754D01*
X96136013Y-114706822D01*
X96143178Y-114713987D01*
X96143246Y-114714070D01*
X96143569Y-114714393D01*
X96149640Y-114723490D01*
X96153832Y-114733610D01*
X96153929Y-114734098D01*
X96153938Y-114734127D01*
X96155904Y-114744003D01*
X96155906Y-114744023D01*
X96156572Y-114747367D01*
X96156852Y-114753077D01*
X96156852Y-115926923D01*
X96156572Y-115932633D01*
X96155906Y-115935977D01*
X96155904Y-115935997D01*
X96153938Y-115945873D01*
X96153929Y-115945902D01*
X96153832Y-115946390D01*
X96149640Y-115956510D01*
X96143569Y-115965607D01*
X96143246Y-115965930D01*
X96143178Y-115966013D01*
X96136013Y-115973178D01*
X96135930Y-115973246D01*
X96135607Y-115973569D01*
X96126510Y-115979640D01*
X96116390Y-115983832D01*
X96115902Y-115983929D01*
X96115873Y-115983938D01*
X96105997Y-115985904D01*
X96105975Y-115985906D01*
X96105499Y-115986001D01*
X96094501Y-115986001D01*
X96094024Y-115985906D01*
X96094003Y-115985904D01*
X96084127Y-115983938D01*
X96084104Y-115983931D01*
X96084064Y-115983923D01*
X96084029Y-115983908D01*
X96083189Y-115983653D01*
X96073257Y-115979449D01*
X96072488Y-115979023D01*
X96070130Y-115978025D01*
X96064046Y-115974185D01*
X96002845Y-115930470D01*
X95994502Y-115925000D01*
X95952470Y-115899781D01*
X95950176Y-115898437D01*
X95886161Y-115861857D01*
X95880045Y-115858584D01*
X95831343Y-115834233D01*
X95821865Y-115829977D01*
X95779108Y-115812874D01*
X95778867Y-115812777D01*
X95777044Y-115812015D01*
X95714549Y-115785232D01*
X95704837Y-115781539D01*
X95626824Y-115755535D01*
X95620186Y-115753526D01*
X95522609Y-115726914D01*
X95512080Y-115724525D01*
X95414798Y-115706837D01*
X95407940Y-115705786D01*
X95337247Y-115696950D01*
X95331332Y-115696353D01*
X95219588Y-115687756D01*
X95200412Y-115687756D01*
X95085607Y-115696588D01*
X95083878Y-115696733D01*
X94986066Y-115705625D01*
X94971191Y-115707887D01*
X94847902Y-115734307D01*
X94839755Y-115736341D01*
X94717357Y-115771311D01*
X94701594Y-115776982D01*
X94560023Y-115838920D01*
X94550269Y-115843703D01*
X94454314Y-115896042D01*
X94444833Y-115901772D01*
X94334088Y-115975602D01*
X94329157Y-115978550D01*
X94316306Y-115983857D01*
X94315825Y-115983952D01*
X94315806Y-115983958D01*
X94305940Y-115985910D01*
X94305934Y-115985911D01*
X94305447Y-115986007D01*
X94294462Y-115985996D01*
X94294004Y-115985904D01*
X94293951Y-115985899D01*
X94284058Y-115983918D01*
X94284008Y-115983903D01*
X94283530Y-115983807D01*
X94273424Y-115979604D01*
X94264292Y-115973492D01*
X94263927Y-115973127D01*
X94256819Y-115966009D01*
X94256812Y-115966001D01*
X94256476Y-115965664D01*
X94256212Y-115965269D01*
X94256198Y-115965251D01*
X94250615Y-115956877D01*
X94250602Y-115956852D01*
X94250331Y-115956446D01*
X94246138Y-115946294D01*
X94243424Y-115932603D01*
X94243148Y-115926952D01*
X94243148Y-114753077D01*
X94243428Y-114747367D01*
X94244094Y-114744023D01*
X94244096Y-114744003D01*
X94246062Y-114734127D01*
X94246071Y-114734098D01*
X94246168Y-114733610D01*
X94250360Y-114723490D01*
X94256431Y-114714393D01*
X94256754Y-114714070D01*
X94256822Y-114713987D01*
X94263987Y-114706822D01*
X94264070Y-114706754D01*
X94264393Y-114706431D01*
X94273490Y-114700360D01*
X94283610Y-114696168D01*
X94284098Y-114696071D01*
X94284127Y-114696062D01*
X94294003Y-114694096D01*
X94294023Y-114694094D01*
X94297367Y-114693428D01*
X94303077Y-114693148D01*
X96096923Y-114693148D01*
X96102633Y-114693428D01*
X96102633Y-114693428D01*
G37*
G36*
X112030443Y-111605519D02*
G01*
X112096627Y-111612037D01*
X112266466Y-111663557D01*
X112422991Y-111747222D01*
X112458729Y-111776552D01*
X112560186Y-111859814D01*
X112643448Y-111961271D01*
X112672778Y-111997009D01*
X112756443Y-112153534D01*
X112807963Y-112323373D01*
X112825359Y-112500000D01*
X112807963Y-112676627D01*
X112756443Y-112846466D01*
X112672778Y-113002991D01*
X112643448Y-113038729D01*
X112560186Y-113140186D01*
X112458729Y-113223448D01*
X112422991Y-113252778D01*
X112266466Y-113336443D01*
X112096627Y-113387963D01*
X112030442Y-113394482D01*
X111964260Y-113401000D01*
X111875740Y-113401000D01*
X111809558Y-113394482D01*
X111743373Y-113387963D01*
X111573534Y-113336443D01*
X111417009Y-113252778D01*
X111381271Y-113223448D01*
X111279814Y-113140186D01*
X111196552Y-113038729D01*
X111167222Y-113002991D01*
X111083557Y-112846466D01*
X111032037Y-112676627D01*
X111014641Y-112500000D01*
X111032037Y-112323373D01*
X111083557Y-112153534D01*
X111167222Y-111997009D01*
X111196552Y-111961271D01*
X111279814Y-111859814D01*
X111381271Y-111776552D01*
X111417009Y-111747222D01*
X111573534Y-111663557D01*
X111743373Y-111612037D01*
X111809557Y-111605519D01*
X111875740Y-111599000D01*
X111964260Y-111599000D01*
X112030443Y-111605519D01*
X112030443Y-111605519D01*
G37*
G36*
X105201000Y-113401000D02*
G01*
X103399000Y-113401000D01*
X103399000Y-111599000D01*
X105201000Y-111599000D01*
X105201000Y-113401000D01*
X105201000Y-113401000D01*
G37*
G36*
X106950443Y-111605519D02*
G01*
X107016627Y-111612037D01*
X107186466Y-111663557D01*
X107342991Y-111747222D01*
X107378729Y-111776552D01*
X107480186Y-111859814D01*
X107563448Y-111961271D01*
X107592778Y-111997009D01*
X107676443Y-112153534D01*
X107727963Y-112323373D01*
X107745359Y-112500000D01*
X107727963Y-112676627D01*
X107676443Y-112846466D01*
X107592778Y-113002991D01*
X107563448Y-113038729D01*
X107480186Y-113140186D01*
X107378729Y-113223448D01*
X107342991Y-113252778D01*
X107186466Y-113336443D01*
X107016627Y-113387963D01*
X106950442Y-113394482D01*
X106884260Y-113401000D01*
X106795740Y-113401000D01*
X106729558Y-113394482D01*
X106663373Y-113387963D01*
X106493534Y-113336443D01*
X106337009Y-113252778D01*
X106301271Y-113223448D01*
X106199814Y-113140186D01*
X106116552Y-113038729D01*
X106087222Y-113002991D01*
X106003557Y-112846466D01*
X105952037Y-112676627D01*
X105934641Y-112500000D01*
X105952037Y-112323373D01*
X106003557Y-112153534D01*
X106087222Y-111997009D01*
X106116552Y-111961271D01*
X106199814Y-111859814D01*
X106301271Y-111776552D01*
X106337009Y-111747222D01*
X106493534Y-111663557D01*
X106663373Y-111612037D01*
X106729557Y-111605519D01*
X106795740Y-111599000D01*
X106884260Y-111599000D01*
X106950443Y-111605519D01*
X106950443Y-111605519D01*
G37*
G36*
X109490443Y-111605519D02*
G01*
X109556627Y-111612037D01*
X109726466Y-111663557D01*
X109882991Y-111747222D01*
X109918729Y-111776552D01*
X110020186Y-111859814D01*
X110103448Y-111961271D01*
X110132778Y-111997009D01*
X110216443Y-112153534D01*
X110267963Y-112323373D01*
X110285359Y-112500000D01*
X110267963Y-112676627D01*
X110216443Y-112846466D01*
X110132778Y-113002991D01*
X110103448Y-113038729D01*
X110020186Y-113140186D01*
X109918729Y-113223448D01*
X109882991Y-113252778D01*
X109726466Y-113336443D01*
X109556627Y-113387963D01*
X109490442Y-113394482D01*
X109424260Y-113401000D01*
X109335740Y-113401000D01*
X109269558Y-113394482D01*
X109203373Y-113387963D01*
X109033534Y-113336443D01*
X108877009Y-113252778D01*
X108841271Y-113223448D01*
X108739814Y-113140186D01*
X108656552Y-113038729D01*
X108627222Y-113002991D01*
X108543557Y-112846466D01*
X108492037Y-112676627D01*
X108474641Y-112500000D01*
X108492037Y-112323373D01*
X108543557Y-112153534D01*
X108627222Y-111997009D01*
X108656552Y-111961271D01*
X108739814Y-111859814D01*
X108841271Y-111776552D01*
X108877009Y-111747222D01*
X109033534Y-111663557D01*
X109203373Y-111612037D01*
X109269557Y-111605519D01*
X109335740Y-111599000D01*
X109424260Y-111599000D01*
X109490443Y-111605519D01*
X109490443Y-111605519D01*
G37*
G36*
X114570443Y-111605519D02*
G01*
X114636627Y-111612037D01*
X114806466Y-111663557D01*
X114962991Y-111747222D01*
X114998729Y-111776552D01*
X115100186Y-111859814D01*
X115183448Y-111961271D01*
X115212778Y-111997009D01*
X115296443Y-112153534D01*
X115347963Y-112323373D01*
X115365359Y-112500000D01*
X115347963Y-112676627D01*
X115296443Y-112846466D01*
X115212778Y-113002991D01*
X115183448Y-113038729D01*
X115100186Y-113140186D01*
X114998729Y-113223448D01*
X114962991Y-113252778D01*
X114806466Y-113336443D01*
X114636627Y-113387963D01*
X114570442Y-113394482D01*
X114504260Y-113401000D01*
X114415740Y-113401000D01*
X114349558Y-113394482D01*
X114283373Y-113387963D01*
X114113534Y-113336443D01*
X113957009Y-113252778D01*
X113921271Y-113223448D01*
X113819814Y-113140186D01*
X113736552Y-113038729D01*
X113707222Y-113002991D01*
X113623557Y-112846466D01*
X113572037Y-112676627D01*
X113554641Y-112500000D01*
X113572037Y-112323373D01*
X113623557Y-112153534D01*
X113707222Y-111997009D01*
X113736552Y-111961271D01*
X113819814Y-111859814D01*
X113921271Y-111776552D01*
X113957009Y-111747222D01*
X114113534Y-111663557D01*
X114283373Y-111612037D01*
X114349557Y-111605519D01*
X114415740Y-111599000D01*
X114504260Y-111599000D01*
X114570443Y-111605519D01*
X114570443Y-111605519D01*
G37*
G36*
X165052633Y-109393428D02*
G01*
X165055977Y-109394094D01*
X165055997Y-109394096D01*
X165065873Y-109396062D01*
X165065902Y-109396071D01*
X165066390Y-109396168D01*
X165076510Y-109400360D01*
X165085607Y-109406431D01*
X165085930Y-109406754D01*
X165086013Y-109406822D01*
X165093178Y-109413987D01*
X165093246Y-109414070D01*
X165093569Y-109414393D01*
X165099640Y-109423490D01*
X165103832Y-109433610D01*
X165103929Y-109434098D01*
X165103938Y-109434127D01*
X165105904Y-109444003D01*
X165105906Y-109444023D01*
X165106572Y-109447367D01*
X165106852Y-109453077D01*
X165106852Y-111246923D01*
X165106572Y-111252633D01*
X165105906Y-111255977D01*
X165105904Y-111255997D01*
X165103938Y-111265873D01*
X165103929Y-111265902D01*
X165103832Y-111266390D01*
X165099640Y-111276510D01*
X165093569Y-111285607D01*
X165093246Y-111285930D01*
X165093178Y-111286013D01*
X165086013Y-111293178D01*
X165085930Y-111293246D01*
X165085607Y-111293569D01*
X165076510Y-111299640D01*
X165066390Y-111303832D01*
X165065902Y-111303929D01*
X165065873Y-111303938D01*
X165055997Y-111305904D01*
X165055977Y-111305906D01*
X165052633Y-111306572D01*
X165046923Y-111306852D01*
X163873077Y-111306852D01*
X163867367Y-111306572D01*
X163864023Y-111305906D01*
X163864003Y-111305904D01*
X163854127Y-111303938D01*
X163854098Y-111303929D01*
X163853610Y-111303832D01*
X163843490Y-111299640D01*
X163834393Y-111293569D01*
X163834070Y-111293246D01*
X163833987Y-111293178D01*
X163826822Y-111286013D01*
X163826754Y-111285930D01*
X163826431Y-111285607D01*
X163820360Y-111276510D01*
X163816168Y-111266390D01*
X163816071Y-111265902D01*
X163816062Y-111265873D01*
X163814096Y-111255997D01*
X163814094Y-111255975D01*
X163813999Y-111255499D01*
X163813999Y-111244501D01*
X163814094Y-111244024D01*
X163814096Y-111244003D01*
X163816062Y-111234127D01*
X163816069Y-111234104D01*
X163816077Y-111234064D01*
X163816092Y-111234029D01*
X163816347Y-111233189D01*
X163820551Y-111223257D01*
X163820977Y-111222488D01*
X163821975Y-111220130D01*
X163825815Y-111214046D01*
X163869530Y-111152845D01*
X163875000Y-111144502D01*
X163900219Y-111102470D01*
X163901563Y-111100176D01*
X163938143Y-111036161D01*
X163941416Y-111030045D01*
X163965767Y-110981343D01*
X163970023Y-110971865D01*
X163987126Y-110929108D01*
X163987223Y-110928867D01*
X163987985Y-110927044D01*
X164014768Y-110864549D01*
X164018461Y-110854837D01*
X164044465Y-110776824D01*
X164046474Y-110770186D01*
X164073086Y-110672609D01*
X164075475Y-110662080D01*
X164093163Y-110564798D01*
X164094214Y-110557940D01*
X164103050Y-110487247D01*
X164103647Y-110481332D01*
X164112244Y-110369588D01*
X164112244Y-110350412D01*
X164103412Y-110235607D01*
X164103267Y-110233878D01*
X164094375Y-110136066D01*
X164092113Y-110121191D01*
X164065693Y-109997902D01*
X164063659Y-109989755D01*
X164028689Y-109867357D01*
X164023018Y-109851594D01*
X163961080Y-109710023D01*
X163956297Y-109700269D01*
X163903958Y-109604314D01*
X163898228Y-109594833D01*
X163824398Y-109484088D01*
X163821450Y-109479157D01*
X163816143Y-109466306D01*
X163816048Y-109465825D01*
X163816042Y-109465806D01*
X163814090Y-109455940D01*
X163814089Y-109455934D01*
X163813993Y-109455447D01*
X163814004Y-109444462D01*
X163814096Y-109444003D01*
X163814101Y-109443951D01*
X163816082Y-109434058D01*
X163816097Y-109434008D01*
X163816193Y-109433530D01*
X163820396Y-109423424D01*
X163826508Y-109414292D01*
X163826873Y-109413927D01*
X163833991Y-109406819D01*
X163833999Y-109406812D01*
X163834336Y-109406476D01*
X163834731Y-109406212D01*
X163834749Y-109406198D01*
X163843123Y-109400615D01*
X163843148Y-109400602D01*
X163843554Y-109400331D01*
X163853706Y-109396138D01*
X163867397Y-109393424D01*
X163873048Y-109393148D01*
X165046923Y-109393148D01*
X165052633Y-109393428D01*
X165052633Y-109393428D01*
G37*
G36*
X94082633Y-109393428D02*
G01*
X94085977Y-109394094D01*
X94085997Y-109394096D01*
X94095873Y-109396062D01*
X94095902Y-109396071D01*
X94096390Y-109396168D01*
X94106510Y-109400360D01*
X94115607Y-109406431D01*
X94115930Y-109406754D01*
X94116013Y-109406822D01*
X94123178Y-109413987D01*
X94123246Y-109414070D01*
X94123569Y-109414393D01*
X94129640Y-109423490D01*
X94133832Y-109433610D01*
X94133929Y-109434098D01*
X94133938Y-109434127D01*
X94135904Y-109444003D01*
X94135906Y-109444025D01*
X94136001Y-109444501D01*
X94136001Y-109455499D01*
X94135906Y-109455976D01*
X94135904Y-109455997D01*
X94133938Y-109465873D01*
X94133931Y-109465896D01*
X94133923Y-109465936D01*
X94133908Y-109465971D01*
X94133653Y-109466811D01*
X94129449Y-109476743D01*
X94129023Y-109477512D01*
X94128025Y-109479870D01*
X94124185Y-109485954D01*
X94080470Y-109547155D01*
X94075000Y-109555498D01*
X94049781Y-109597530D01*
X94048437Y-109599824D01*
X94011857Y-109663839D01*
X94008584Y-109669955D01*
X93984233Y-109718657D01*
X93979977Y-109728135D01*
X93962874Y-109770892D01*
X93962784Y-109771115D01*
X93962015Y-109772956D01*
X93935232Y-109835451D01*
X93931539Y-109845163D01*
X93905535Y-109923176D01*
X93903526Y-109929814D01*
X93876914Y-110027391D01*
X93874525Y-110037920D01*
X93856837Y-110135202D01*
X93855786Y-110142060D01*
X93846950Y-110212753D01*
X93846353Y-110218668D01*
X93837756Y-110330412D01*
X93837756Y-110349588D01*
X93846588Y-110464393D01*
X93846733Y-110466122D01*
X93855625Y-110563934D01*
X93857887Y-110578809D01*
X93884307Y-110702098D01*
X93886341Y-110710245D01*
X93921311Y-110832643D01*
X93926982Y-110848406D01*
X93988920Y-110989977D01*
X93993703Y-110999731D01*
X94046042Y-111095686D01*
X94051772Y-111105167D01*
X94125602Y-111215912D01*
X94128550Y-111220843D01*
X94133857Y-111233694D01*
X94133952Y-111234175D01*
X94133958Y-111234194D01*
X94135910Y-111244060D01*
X94135911Y-111244066D01*
X94136007Y-111244553D01*
X94135996Y-111255538D01*
X94135904Y-111255996D01*
X94135899Y-111256049D01*
X94133918Y-111265942D01*
X94133903Y-111265992D01*
X94133807Y-111266470D01*
X94129604Y-111276576D01*
X94123492Y-111285708D01*
X94123127Y-111286073D01*
X94116009Y-111293181D01*
X94116001Y-111293188D01*
X94115664Y-111293524D01*
X94115269Y-111293788D01*
X94115251Y-111293802D01*
X94106877Y-111299385D01*
X94106852Y-111299398D01*
X94106446Y-111299669D01*
X94096294Y-111303862D01*
X94082603Y-111306576D01*
X94076952Y-111306852D01*
X92903077Y-111306852D01*
X92897367Y-111306572D01*
X92894023Y-111305906D01*
X92894003Y-111305904D01*
X92884127Y-111303938D01*
X92884098Y-111303929D01*
X92883610Y-111303832D01*
X92873490Y-111299640D01*
X92864393Y-111293569D01*
X92864070Y-111293246D01*
X92863987Y-111293178D01*
X92856822Y-111286013D01*
X92856754Y-111285930D01*
X92856431Y-111285607D01*
X92850360Y-111276510D01*
X92846168Y-111266390D01*
X92846071Y-111265902D01*
X92846062Y-111265873D01*
X92844096Y-111255997D01*
X92844094Y-111255977D01*
X92843428Y-111252633D01*
X92843148Y-111246923D01*
X92843148Y-109453077D01*
X92843428Y-109447367D01*
X92844094Y-109444023D01*
X92844096Y-109444003D01*
X92846062Y-109434127D01*
X92846071Y-109434098D01*
X92846168Y-109433610D01*
X92850360Y-109423490D01*
X92856431Y-109414393D01*
X92856754Y-109414070D01*
X92856822Y-109413987D01*
X92863987Y-109406822D01*
X92864070Y-109406754D01*
X92864393Y-109406431D01*
X92873490Y-109400360D01*
X92883610Y-109396168D01*
X92884098Y-109396071D01*
X92884127Y-109396062D01*
X92894003Y-109394096D01*
X92894023Y-109394094D01*
X92897367Y-109393428D01*
X92903077Y-109393148D01*
X94076923Y-109393148D01*
X94082633Y-109393428D01*
X94082633Y-109393428D01*
G37*
G36*
X161632633Y-109393428D02*
G01*
X161635977Y-109394094D01*
X161635997Y-109394096D01*
X161645873Y-109396062D01*
X161645902Y-109396071D01*
X161646390Y-109396168D01*
X161656510Y-109400360D01*
X161665607Y-109406431D01*
X161665930Y-109406754D01*
X161666013Y-109406822D01*
X161673178Y-109413987D01*
X161673246Y-109414070D01*
X161673569Y-109414393D01*
X161679640Y-109423490D01*
X161683832Y-109433610D01*
X161683929Y-109434098D01*
X161683938Y-109434127D01*
X161685904Y-109444003D01*
X161685906Y-109444025D01*
X161686001Y-109444501D01*
X161686001Y-109455499D01*
X161685906Y-109455976D01*
X161685904Y-109455997D01*
X161683938Y-109465873D01*
X161683931Y-109465896D01*
X161683923Y-109465936D01*
X161683908Y-109465971D01*
X161683653Y-109466811D01*
X161679449Y-109476743D01*
X161679023Y-109477512D01*
X161678025Y-109479870D01*
X161674185Y-109485954D01*
X161630470Y-109547155D01*
X161625000Y-109555498D01*
X161599781Y-109597530D01*
X161598437Y-109599824D01*
X161561857Y-109663839D01*
X161558584Y-109669955D01*
X161534233Y-109718657D01*
X161529977Y-109728135D01*
X161512874Y-109770892D01*
X161512784Y-109771115D01*
X161512015Y-109772956D01*
X161485232Y-109835451D01*
X161481539Y-109845163D01*
X161455535Y-109923176D01*
X161453526Y-109929814D01*
X161426914Y-110027391D01*
X161424525Y-110037920D01*
X161406837Y-110135202D01*
X161405786Y-110142060D01*
X161396950Y-110212753D01*
X161396353Y-110218668D01*
X161387756Y-110330412D01*
X161387756Y-110349588D01*
X161396586Y-110464367D01*
X161396731Y-110466095D01*
X161405625Y-110563933D01*
X161407887Y-110578809D01*
X161434307Y-110702098D01*
X161436341Y-110710245D01*
X161471311Y-110832643D01*
X161476982Y-110848406D01*
X161538920Y-110989977D01*
X161543703Y-110999731D01*
X161596042Y-111095686D01*
X161601772Y-111105167D01*
X161675602Y-111215912D01*
X161678550Y-111220843D01*
X161683857Y-111233694D01*
X161683952Y-111234175D01*
X161683958Y-111234194D01*
X161685910Y-111244060D01*
X161685911Y-111244066D01*
X161686007Y-111244553D01*
X161685996Y-111255538D01*
X161685904Y-111255996D01*
X161685899Y-111256049D01*
X161683918Y-111265942D01*
X161683903Y-111265992D01*
X161683807Y-111266470D01*
X161679604Y-111276576D01*
X161673492Y-111285708D01*
X161673127Y-111286073D01*
X161666009Y-111293181D01*
X161666001Y-111293188D01*
X161665664Y-111293524D01*
X161665269Y-111293788D01*
X161665251Y-111293802D01*
X161656877Y-111299385D01*
X161656852Y-111299398D01*
X161656446Y-111299669D01*
X161646294Y-111303862D01*
X161632603Y-111306576D01*
X161626952Y-111306852D01*
X160453077Y-111306852D01*
X160447367Y-111306572D01*
X160444023Y-111305906D01*
X160444003Y-111305904D01*
X160434127Y-111303938D01*
X160434098Y-111303929D01*
X160433610Y-111303832D01*
X160423490Y-111299640D01*
X160414393Y-111293569D01*
X160414070Y-111293246D01*
X160413987Y-111293178D01*
X160406822Y-111286013D01*
X160406754Y-111285930D01*
X160406431Y-111285607D01*
X160400360Y-111276510D01*
X160396168Y-111266390D01*
X160396071Y-111265902D01*
X160396062Y-111265873D01*
X160394096Y-111255997D01*
X160394094Y-111255977D01*
X160393428Y-111252633D01*
X160393148Y-111246923D01*
X160393148Y-109453077D01*
X160393428Y-109447367D01*
X160394094Y-109444023D01*
X160394096Y-109444003D01*
X160396062Y-109434127D01*
X160396071Y-109434098D01*
X160396168Y-109433610D01*
X160400360Y-109423490D01*
X160406431Y-109414393D01*
X160406754Y-109414070D01*
X160406822Y-109413987D01*
X160413987Y-109406822D01*
X160414070Y-109406754D01*
X160414393Y-109406431D01*
X160423490Y-109400360D01*
X160433610Y-109396168D01*
X160434098Y-109396071D01*
X160434127Y-109396062D01*
X160444003Y-109394096D01*
X160444023Y-109394094D01*
X160447367Y-109393428D01*
X160453077Y-109393148D01*
X161626923Y-109393148D01*
X161632633Y-109393428D01*
X161632633Y-109393428D01*
G37*
G36*
X97502633Y-109393428D02*
G01*
X97505977Y-109394094D01*
X97505997Y-109394096D01*
X97515873Y-109396062D01*
X97515902Y-109396071D01*
X97516390Y-109396168D01*
X97526510Y-109400360D01*
X97535607Y-109406431D01*
X97535930Y-109406754D01*
X97536013Y-109406822D01*
X97543178Y-109413987D01*
X97543246Y-109414070D01*
X97543569Y-109414393D01*
X97549640Y-109423490D01*
X97553832Y-109433610D01*
X97553929Y-109434098D01*
X97553938Y-109434127D01*
X97555904Y-109444003D01*
X97555906Y-109444023D01*
X97556572Y-109447367D01*
X97556852Y-109453077D01*
X97556852Y-111246923D01*
X97556572Y-111252633D01*
X97555906Y-111255977D01*
X97555904Y-111255997D01*
X97553938Y-111265873D01*
X97553929Y-111265902D01*
X97553832Y-111266390D01*
X97549640Y-111276510D01*
X97543569Y-111285607D01*
X97543246Y-111285930D01*
X97543178Y-111286013D01*
X97536013Y-111293178D01*
X97535930Y-111293246D01*
X97535607Y-111293569D01*
X97526510Y-111299640D01*
X97516390Y-111303832D01*
X97515902Y-111303929D01*
X97515873Y-111303938D01*
X97505997Y-111305904D01*
X97505977Y-111305906D01*
X97502633Y-111306572D01*
X97496923Y-111306852D01*
X96323077Y-111306852D01*
X96317367Y-111306572D01*
X96314023Y-111305906D01*
X96314003Y-111305904D01*
X96304127Y-111303938D01*
X96304098Y-111303929D01*
X96303610Y-111303832D01*
X96293490Y-111299640D01*
X96284393Y-111293569D01*
X96284070Y-111293246D01*
X96283987Y-111293178D01*
X96276822Y-111286013D01*
X96276754Y-111285930D01*
X96276431Y-111285607D01*
X96270360Y-111276510D01*
X96266168Y-111266390D01*
X96266071Y-111265902D01*
X96266062Y-111265873D01*
X96264096Y-111255997D01*
X96264094Y-111255975D01*
X96263999Y-111255499D01*
X96263999Y-111244501D01*
X96264094Y-111244024D01*
X96264096Y-111244003D01*
X96266062Y-111234127D01*
X96266069Y-111234104D01*
X96266077Y-111234064D01*
X96266092Y-111234029D01*
X96266347Y-111233189D01*
X96270551Y-111223257D01*
X96270977Y-111222488D01*
X96271975Y-111220130D01*
X96275815Y-111214046D01*
X96319530Y-111152845D01*
X96325000Y-111144502D01*
X96350219Y-111102470D01*
X96351563Y-111100176D01*
X96388143Y-111036161D01*
X96391416Y-111030045D01*
X96415767Y-110981343D01*
X96420023Y-110971865D01*
X96437126Y-110929108D01*
X96437223Y-110928867D01*
X96437985Y-110927044D01*
X96464768Y-110864549D01*
X96468461Y-110854837D01*
X96494465Y-110776824D01*
X96496474Y-110770186D01*
X96523086Y-110672609D01*
X96525475Y-110662080D01*
X96543163Y-110564798D01*
X96544214Y-110557940D01*
X96553050Y-110487247D01*
X96553647Y-110481332D01*
X96562244Y-110369588D01*
X96562244Y-110350412D01*
X96553414Y-110235633D01*
X96553269Y-110233905D01*
X96544375Y-110136067D01*
X96542113Y-110121191D01*
X96515693Y-109997902D01*
X96513659Y-109989755D01*
X96478689Y-109867357D01*
X96473018Y-109851594D01*
X96411080Y-109710023D01*
X96406297Y-109700269D01*
X96353958Y-109604314D01*
X96348228Y-109594833D01*
X96274398Y-109484088D01*
X96271450Y-109479157D01*
X96266143Y-109466306D01*
X96266048Y-109465825D01*
X96266042Y-109465806D01*
X96264090Y-109455940D01*
X96264089Y-109455934D01*
X96263993Y-109455447D01*
X96264004Y-109444462D01*
X96264096Y-109444003D01*
X96264101Y-109443951D01*
X96266082Y-109434058D01*
X96266097Y-109434008D01*
X96266193Y-109433530D01*
X96270396Y-109423424D01*
X96276508Y-109414292D01*
X96276873Y-109413927D01*
X96283991Y-109406819D01*
X96283999Y-109406812D01*
X96284336Y-109406476D01*
X96284731Y-109406212D01*
X96284749Y-109406198D01*
X96293123Y-109400615D01*
X96293148Y-109400602D01*
X96293554Y-109400331D01*
X96303706Y-109396138D01*
X96317397Y-109393424D01*
X96323048Y-109393148D01*
X97496923Y-109393148D01*
X97502633Y-109393428D01*
X97502633Y-109393428D01*
G37*
G36*
X104410443Y-109065519D02*
G01*
X104476627Y-109072037D01*
X104646466Y-109123557D01*
X104802991Y-109207222D01*
X104838729Y-109236552D01*
X104940186Y-109319814D01*
X105017421Y-109413927D01*
X105052778Y-109457009D01*
X105136443Y-109613534D01*
X105187963Y-109783373D01*
X105205359Y-109960000D01*
X105187963Y-110136627D01*
X105136443Y-110306466D01*
X105136442Y-110306468D01*
X105118519Y-110340000D01*
X105052778Y-110462991D01*
X105050208Y-110466122D01*
X104940186Y-110600186D01*
X104851937Y-110672609D01*
X104802991Y-110712778D01*
X104646466Y-110796443D01*
X104476627Y-110847963D01*
X104410443Y-110854481D01*
X104344260Y-110861000D01*
X104255740Y-110861000D01*
X104189557Y-110854481D01*
X104123373Y-110847963D01*
X103953534Y-110796443D01*
X103797009Y-110712778D01*
X103748063Y-110672609D01*
X103659814Y-110600186D01*
X103549792Y-110466122D01*
X103547222Y-110462991D01*
X103481481Y-110340000D01*
X103463558Y-110306468D01*
X103463557Y-110306466D01*
X103412037Y-110136627D01*
X103394641Y-109960000D01*
X103412037Y-109783373D01*
X103463557Y-109613534D01*
X103547222Y-109457009D01*
X103582579Y-109413927D01*
X103659814Y-109319814D01*
X103761271Y-109236552D01*
X103797009Y-109207222D01*
X103953534Y-109123557D01*
X104123373Y-109072037D01*
X104189557Y-109065519D01*
X104255740Y-109059000D01*
X104344260Y-109059000D01*
X104410443Y-109065519D01*
X104410443Y-109065519D01*
G37*
G36*
X106950443Y-109065519D02*
G01*
X107016627Y-109072037D01*
X107186466Y-109123557D01*
X107342991Y-109207222D01*
X107378729Y-109236552D01*
X107480186Y-109319814D01*
X107557421Y-109413927D01*
X107592778Y-109457009D01*
X107676443Y-109613534D01*
X107727963Y-109783373D01*
X107745359Y-109960000D01*
X107727963Y-110136627D01*
X107676443Y-110306466D01*
X107676442Y-110306468D01*
X107658519Y-110340000D01*
X107592778Y-110462991D01*
X107590208Y-110466122D01*
X107480186Y-110600186D01*
X107391937Y-110672609D01*
X107342991Y-110712778D01*
X107186466Y-110796443D01*
X107016627Y-110847963D01*
X106950443Y-110854481D01*
X106884260Y-110861000D01*
X106795740Y-110861000D01*
X106729557Y-110854481D01*
X106663373Y-110847963D01*
X106493534Y-110796443D01*
X106337009Y-110712778D01*
X106288063Y-110672609D01*
X106199814Y-110600186D01*
X106089792Y-110466122D01*
X106087222Y-110462991D01*
X106021481Y-110340000D01*
X106003558Y-110306468D01*
X106003557Y-110306466D01*
X105952037Y-110136627D01*
X105934641Y-109960000D01*
X105952037Y-109783373D01*
X106003557Y-109613534D01*
X106087222Y-109457009D01*
X106122579Y-109413927D01*
X106199814Y-109319814D01*
X106301271Y-109236552D01*
X106337009Y-109207222D01*
X106493534Y-109123557D01*
X106663373Y-109072037D01*
X106729557Y-109065519D01*
X106795740Y-109059000D01*
X106884260Y-109059000D01*
X106950443Y-109065519D01*
X106950443Y-109065519D01*
G37*
G36*
X114570443Y-109065519D02*
G01*
X114636627Y-109072037D01*
X114806466Y-109123557D01*
X114962991Y-109207222D01*
X114998729Y-109236552D01*
X115100186Y-109319814D01*
X115177421Y-109413927D01*
X115212778Y-109457009D01*
X115296443Y-109613534D01*
X115347963Y-109783373D01*
X115365359Y-109960000D01*
X115347963Y-110136627D01*
X115296443Y-110306466D01*
X115296442Y-110306468D01*
X115278519Y-110340000D01*
X115212778Y-110462991D01*
X115210208Y-110466122D01*
X115100186Y-110600186D01*
X115011937Y-110672609D01*
X114962991Y-110712778D01*
X114806466Y-110796443D01*
X114636627Y-110847963D01*
X114570443Y-110854481D01*
X114504260Y-110861000D01*
X114415740Y-110861000D01*
X114349557Y-110854481D01*
X114283373Y-110847963D01*
X114113534Y-110796443D01*
X113957009Y-110712778D01*
X113908063Y-110672609D01*
X113819814Y-110600186D01*
X113709792Y-110466122D01*
X113707222Y-110462991D01*
X113641481Y-110340000D01*
X113623558Y-110306468D01*
X113623557Y-110306466D01*
X113572037Y-110136627D01*
X113554641Y-109960000D01*
X113572037Y-109783373D01*
X113623557Y-109613534D01*
X113707222Y-109457009D01*
X113742579Y-109413927D01*
X113819814Y-109319814D01*
X113921271Y-109236552D01*
X113957009Y-109207222D01*
X114113534Y-109123557D01*
X114283373Y-109072037D01*
X114349557Y-109065519D01*
X114415740Y-109059000D01*
X114504260Y-109059000D01*
X114570443Y-109065519D01*
X114570443Y-109065519D01*
G37*
G36*
X112030443Y-109065519D02*
G01*
X112096627Y-109072037D01*
X112266466Y-109123557D01*
X112422991Y-109207222D01*
X112458729Y-109236552D01*
X112560186Y-109319814D01*
X112637421Y-109413927D01*
X112672778Y-109457009D01*
X112756443Y-109613534D01*
X112807963Y-109783373D01*
X112825359Y-109960000D01*
X112807963Y-110136627D01*
X112756443Y-110306466D01*
X112756442Y-110306468D01*
X112738519Y-110340000D01*
X112672778Y-110462991D01*
X112670208Y-110466122D01*
X112560186Y-110600186D01*
X112471937Y-110672609D01*
X112422991Y-110712778D01*
X112266466Y-110796443D01*
X112096627Y-110847963D01*
X112030443Y-110854481D01*
X111964260Y-110861000D01*
X111875740Y-110861000D01*
X111809557Y-110854481D01*
X111743373Y-110847963D01*
X111573534Y-110796443D01*
X111417009Y-110712778D01*
X111368063Y-110672609D01*
X111279814Y-110600186D01*
X111169792Y-110466122D01*
X111167222Y-110462991D01*
X111101481Y-110340000D01*
X111083558Y-110306468D01*
X111083557Y-110306466D01*
X111032037Y-110136627D01*
X111014641Y-109960000D01*
X111032037Y-109783373D01*
X111083557Y-109613534D01*
X111167222Y-109457009D01*
X111202579Y-109413927D01*
X111279814Y-109319814D01*
X111381271Y-109236552D01*
X111417009Y-109207222D01*
X111573534Y-109123557D01*
X111743373Y-109072037D01*
X111809557Y-109065519D01*
X111875740Y-109059000D01*
X111964260Y-109059000D01*
X112030443Y-109065519D01*
X112030443Y-109065519D01*
G37*
G36*
X109490443Y-109065519D02*
G01*
X109556627Y-109072037D01*
X109726466Y-109123557D01*
X109882991Y-109207222D01*
X109918729Y-109236552D01*
X110020186Y-109319814D01*
X110097421Y-109413927D01*
X110132778Y-109457009D01*
X110216443Y-109613534D01*
X110267963Y-109783373D01*
X110285359Y-109960000D01*
X110267963Y-110136627D01*
X110216443Y-110306466D01*
X110216442Y-110306468D01*
X110198519Y-110340000D01*
X110132778Y-110462991D01*
X110130208Y-110466122D01*
X110020186Y-110600186D01*
X109931937Y-110672609D01*
X109882991Y-110712778D01*
X109726466Y-110796443D01*
X109556627Y-110847963D01*
X109490443Y-110854481D01*
X109424260Y-110861000D01*
X109335740Y-110861000D01*
X109269557Y-110854481D01*
X109203373Y-110847963D01*
X109033534Y-110796443D01*
X108877009Y-110712778D01*
X108828063Y-110672609D01*
X108739814Y-110600186D01*
X108629792Y-110466122D01*
X108627222Y-110462991D01*
X108561481Y-110340000D01*
X108543558Y-110306468D01*
X108543557Y-110306466D01*
X108492037Y-110136627D01*
X108474641Y-109960000D01*
X108492037Y-109783373D01*
X108543557Y-109613534D01*
X108627222Y-109457009D01*
X108662579Y-109413927D01*
X108739814Y-109319814D01*
X108841271Y-109236552D01*
X108877009Y-109207222D01*
X109033534Y-109123557D01*
X109203373Y-109072037D01*
X109269557Y-109065519D01*
X109335740Y-109059000D01*
X109424260Y-109059000D01*
X109490443Y-109065519D01*
X109490443Y-109065519D01*
G37*
G36*
X96105538Y-104714004D02*
G01*
X96105996Y-104714096D01*
X96106049Y-104714101D01*
X96115942Y-104716082D01*
X96115992Y-104716097D01*
X96116470Y-104716193D01*
X96126576Y-104720396D01*
X96135708Y-104726508D01*
X96136073Y-104726873D01*
X96143181Y-104733991D01*
X96143188Y-104733999D01*
X96143524Y-104734336D01*
X96143788Y-104734731D01*
X96143802Y-104734749D01*
X96149385Y-104743123D01*
X96149398Y-104743148D01*
X96149669Y-104743554D01*
X96153862Y-104753706D01*
X96156576Y-104767397D01*
X96156852Y-104773048D01*
X96156852Y-105946923D01*
X96156572Y-105952633D01*
X96155906Y-105955977D01*
X96155904Y-105955997D01*
X96153938Y-105965873D01*
X96153929Y-105965902D01*
X96153832Y-105966390D01*
X96149640Y-105976510D01*
X96143569Y-105985607D01*
X96143246Y-105985930D01*
X96143178Y-105986013D01*
X96136013Y-105993178D01*
X96135930Y-105993246D01*
X96135607Y-105993569D01*
X96126510Y-105999640D01*
X96116390Y-106003832D01*
X96115902Y-106003929D01*
X96115873Y-106003938D01*
X96105997Y-106005904D01*
X96105977Y-106005906D01*
X96102633Y-106006572D01*
X96096923Y-106006852D01*
X94303077Y-106006852D01*
X94297367Y-106006572D01*
X94294023Y-106005906D01*
X94294003Y-106005904D01*
X94284127Y-106003938D01*
X94284098Y-106003929D01*
X94283610Y-106003832D01*
X94273490Y-105999640D01*
X94264393Y-105993569D01*
X94264070Y-105993246D01*
X94263987Y-105993178D01*
X94256822Y-105986013D01*
X94256754Y-105985930D01*
X94256431Y-105985607D01*
X94250360Y-105976510D01*
X94246168Y-105966390D01*
X94246071Y-105965902D01*
X94246062Y-105965873D01*
X94244096Y-105955997D01*
X94244094Y-105955977D01*
X94243428Y-105952633D01*
X94243148Y-105946923D01*
X94243148Y-104773077D01*
X94243428Y-104767367D01*
X94244094Y-104764023D01*
X94244096Y-104764003D01*
X94246062Y-104754127D01*
X94246071Y-104754098D01*
X94246168Y-104753610D01*
X94250360Y-104743490D01*
X94256431Y-104734393D01*
X94256754Y-104734070D01*
X94256822Y-104733987D01*
X94263987Y-104726822D01*
X94264070Y-104726754D01*
X94264393Y-104726431D01*
X94273490Y-104720360D01*
X94283610Y-104716168D01*
X94284098Y-104716071D01*
X94284127Y-104716062D01*
X94294003Y-104714096D01*
X94294025Y-104714094D01*
X94294501Y-104713999D01*
X94305499Y-104713999D01*
X94305976Y-104714094D01*
X94305997Y-104714096D01*
X94315873Y-104716062D01*
X94315896Y-104716069D01*
X94315936Y-104716077D01*
X94315971Y-104716092D01*
X94316811Y-104716347D01*
X94326743Y-104720551D01*
X94327512Y-104720977D01*
X94329870Y-104721975D01*
X94335954Y-104725815D01*
X94397155Y-104769530D01*
X94405498Y-104775000D01*
X94447530Y-104800219D01*
X94449824Y-104801563D01*
X94513839Y-104838143D01*
X94519955Y-104841416D01*
X94568657Y-104865767D01*
X94578135Y-104870023D01*
X94620892Y-104887126D01*
X94621133Y-104887223D01*
X94622956Y-104887985D01*
X94685451Y-104914768D01*
X94695163Y-104918461D01*
X94773176Y-104944465D01*
X94779814Y-104946474D01*
X94877391Y-104973086D01*
X94887920Y-104975475D01*
X94985202Y-104993163D01*
X94992060Y-104994214D01*
X95062753Y-105003050D01*
X95068668Y-105003647D01*
X95180412Y-105012244D01*
X95199588Y-105012244D01*
X95314393Y-105003412D01*
X95316122Y-105003267D01*
X95413934Y-104994375D01*
X95428809Y-104992113D01*
X95552098Y-104965693D01*
X95560245Y-104963659D01*
X95682643Y-104928689D01*
X95698406Y-104923018D01*
X95839977Y-104861080D01*
X95849731Y-104856297D01*
X95945686Y-104803958D01*
X95955167Y-104798228D01*
X96065912Y-104724398D01*
X96070843Y-104721450D01*
X96083694Y-104716143D01*
X96084175Y-104716048D01*
X96084194Y-104716042D01*
X96094060Y-104714090D01*
X96094066Y-104714089D01*
X96094553Y-104713993D01*
X96105538Y-104714004D01*
X96105538Y-104714004D01*
G37*
G36*
X164850442Y-103635518D02*
G01*
X164916627Y-103642037D01*
X165086466Y-103693557D01*
X165242991Y-103777222D01*
X165278729Y-103806552D01*
X165380186Y-103889814D01*
X165463448Y-103991271D01*
X165492778Y-104027009D01*
X165576443Y-104183534D01*
X165627963Y-104353373D01*
X165645359Y-104530000D01*
X165627963Y-104706627D01*
X165578397Y-104870023D01*
X165576442Y-104876468D01*
X165539200Y-104946143D01*
X165492778Y-105032991D01*
X165463448Y-105068729D01*
X165380186Y-105170186D01*
X165278729Y-105253448D01*
X165242991Y-105282778D01*
X165086466Y-105366443D01*
X164916627Y-105417963D01*
X164850443Y-105424481D01*
X164784260Y-105431000D01*
X164695740Y-105431000D01*
X164629557Y-105424481D01*
X164563373Y-105417963D01*
X164393534Y-105366443D01*
X164237009Y-105282778D01*
X164201271Y-105253448D01*
X164099814Y-105170186D01*
X164016552Y-105068729D01*
X163987222Y-105032991D01*
X163940800Y-104946143D01*
X163903558Y-104876468D01*
X163901603Y-104870023D01*
X163852037Y-104706627D01*
X163834641Y-104530000D01*
X163852037Y-104353373D01*
X163903557Y-104183534D01*
X163987222Y-104027009D01*
X164016552Y-103991271D01*
X164099814Y-103889814D01*
X164201271Y-103806552D01*
X164237009Y-103777222D01*
X164393534Y-103693557D01*
X164563373Y-103642037D01*
X164629557Y-103635519D01*
X164695740Y-103629000D01*
X164784260Y-103629000D01*
X164850442Y-103635518D01*
X164850442Y-103635518D01*
G37*
G36*
X162310442Y-103635518D02*
G01*
X162376627Y-103642037D01*
X162546466Y-103693557D01*
X162702991Y-103777222D01*
X162738729Y-103806552D01*
X162840186Y-103889814D01*
X162923448Y-103991271D01*
X162952778Y-104027009D01*
X163036443Y-104183534D01*
X163087963Y-104353373D01*
X163105359Y-104530000D01*
X163087963Y-104706627D01*
X163038397Y-104870023D01*
X163036442Y-104876468D01*
X162999200Y-104946143D01*
X162952778Y-105032991D01*
X162923448Y-105068729D01*
X162840186Y-105170186D01*
X162738729Y-105253448D01*
X162702991Y-105282778D01*
X162546466Y-105366443D01*
X162376627Y-105417963D01*
X162310443Y-105424481D01*
X162244260Y-105431000D01*
X162155740Y-105431000D01*
X162089557Y-105424481D01*
X162023373Y-105417963D01*
X161853534Y-105366443D01*
X161697009Y-105282778D01*
X161661271Y-105253448D01*
X161559814Y-105170186D01*
X161476552Y-105068729D01*
X161447222Y-105032991D01*
X161400800Y-104946143D01*
X161363558Y-104876468D01*
X161361603Y-104870023D01*
X161312037Y-104706627D01*
X161294641Y-104530000D01*
X161312037Y-104353373D01*
X161363557Y-104183534D01*
X161447222Y-104027009D01*
X161476552Y-103991271D01*
X161559814Y-103889814D01*
X161661271Y-103806552D01*
X161697009Y-103777222D01*
X161853534Y-103693557D01*
X162023373Y-103642037D01*
X162089557Y-103635519D01*
X162155740Y-103629000D01*
X162244260Y-103629000D01*
X162310442Y-103635518D01*
X162310442Y-103635518D01*
G37*
G36*
X155039890Y-103274017D02*
G01*
X155097387Y-103297833D01*
X155158364Y-103323091D01*
X155264988Y-103394335D01*
X155355665Y-103485012D01*
X155426910Y-103591638D01*
X155475983Y-103710110D01*
X155495974Y-103810611D01*
X155501000Y-103835882D01*
X155501000Y-103964118D01*
X155475983Y-104089890D01*
X155426909Y-104208364D01*
X155355665Y-104314988D01*
X155264988Y-104405665D01*
X155158364Y-104476909D01*
X155158363Y-104476910D01*
X155158362Y-104476910D01*
X155039890Y-104525983D01*
X154914119Y-104551000D01*
X154785881Y-104551000D01*
X154660110Y-104525983D01*
X154541638Y-104476910D01*
X154541637Y-104476910D01*
X154541636Y-104476909D01*
X154435012Y-104405665D01*
X154344335Y-104314988D01*
X154273091Y-104208364D01*
X154224017Y-104089890D01*
X154199000Y-103964118D01*
X154199000Y-103835882D01*
X154204027Y-103810611D01*
X154224017Y-103710110D01*
X154273090Y-103591638D01*
X154344335Y-103485012D01*
X154435012Y-103394335D01*
X154541636Y-103323091D01*
X154602614Y-103297833D01*
X154660110Y-103274017D01*
X154785881Y-103249000D01*
X154914119Y-103249000D01*
X155039890Y-103274017D01*
X155039890Y-103274017D01*
G37*
G36*
X147039890Y-103274017D02*
G01*
X147097387Y-103297833D01*
X147158364Y-103323091D01*
X147264988Y-103394335D01*
X147355665Y-103485012D01*
X147426910Y-103591638D01*
X147475983Y-103710110D01*
X147495974Y-103810611D01*
X147501000Y-103835882D01*
X147501000Y-103964118D01*
X147475983Y-104089890D01*
X147426909Y-104208364D01*
X147355665Y-104314988D01*
X147264988Y-104405665D01*
X147158364Y-104476909D01*
X147158363Y-104476910D01*
X147158362Y-104476910D01*
X147039890Y-104525983D01*
X146914119Y-104551000D01*
X146785881Y-104551000D01*
X146660110Y-104525983D01*
X146541638Y-104476910D01*
X146541637Y-104476910D01*
X146541636Y-104476909D01*
X146435012Y-104405665D01*
X146344335Y-104314988D01*
X146273091Y-104208364D01*
X146224017Y-104089890D01*
X146199000Y-103964118D01*
X146199000Y-103835882D01*
X146204027Y-103810611D01*
X146224017Y-103710110D01*
X146273090Y-103591638D01*
X146344335Y-103485012D01*
X146435012Y-103394335D01*
X146541636Y-103323091D01*
X146602614Y-103297833D01*
X146660110Y-103274017D01*
X146785881Y-103249000D01*
X146914119Y-103249000D01*
X147039890Y-103274017D01*
X147039890Y-103274017D01*
G37*
G36*
X126056564Y-101789389D02*
G01*
X126247833Y-101868615D01*
X126247835Y-101868616D01*
X126419973Y-101983635D01*
X126566365Y-102130027D01*
X126677501Y-102296353D01*
X126681385Y-102302167D01*
X126760611Y-102493436D01*
X126801000Y-102696484D01*
X126801000Y-102903516D01*
X126760611Y-103106564D01*
X126701612Y-103249000D01*
X126681384Y-103297835D01*
X126566365Y-103469973D01*
X126419973Y-103616365D01*
X126247835Y-103731384D01*
X126247834Y-103731385D01*
X126247833Y-103731385D01*
X126056564Y-103810611D01*
X125853516Y-103851000D01*
X125646484Y-103851000D01*
X125443436Y-103810611D01*
X125252167Y-103731385D01*
X125252166Y-103731385D01*
X125252165Y-103731384D01*
X125080027Y-103616365D01*
X124933635Y-103469973D01*
X124818616Y-103297835D01*
X124798388Y-103249000D01*
X124739389Y-103106564D01*
X124699000Y-102903516D01*
X124699000Y-102696484D01*
X124739389Y-102493436D01*
X124818615Y-102302167D01*
X124822500Y-102296353D01*
X124933635Y-102130027D01*
X125080027Y-101983635D01*
X125252165Y-101868616D01*
X125252167Y-101868615D01*
X125443436Y-101789389D01*
X125646484Y-101749000D01*
X125853516Y-101749000D01*
X126056564Y-101789389D01*
X126056564Y-101789389D01*
G37*
G36*
X132556564Y-101789389D02*
G01*
X132747833Y-101868615D01*
X132747835Y-101868616D01*
X132919973Y-101983635D01*
X133066365Y-102130027D01*
X133177501Y-102296353D01*
X133181385Y-102302167D01*
X133260611Y-102493436D01*
X133301000Y-102696484D01*
X133301000Y-102903516D01*
X133260611Y-103106564D01*
X133201612Y-103249000D01*
X133181384Y-103297835D01*
X133066365Y-103469973D01*
X132919973Y-103616365D01*
X132747835Y-103731384D01*
X132747834Y-103731385D01*
X132747833Y-103731385D01*
X132556564Y-103810611D01*
X132353516Y-103851000D01*
X132146484Y-103851000D01*
X131943436Y-103810611D01*
X131752167Y-103731385D01*
X131752166Y-103731385D01*
X131752165Y-103731384D01*
X131580027Y-103616365D01*
X131433635Y-103469973D01*
X131318616Y-103297835D01*
X131298388Y-103249000D01*
X131239389Y-103106564D01*
X131199000Y-102903516D01*
X131199000Y-102696484D01*
X131239389Y-102493436D01*
X131318615Y-102302167D01*
X131322500Y-102296353D01*
X131433635Y-102130027D01*
X131580027Y-101983635D01*
X131752165Y-101868616D01*
X131752167Y-101868615D01*
X131943436Y-101789389D01*
X132146484Y-101749000D01*
X132353516Y-101749000D01*
X132556564Y-101789389D01*
X132556564Y-101789389D01*
G37*
G36*
X107906564Y-101789389D02*
G01*
X108097833Y-101868615D01*
X108097835Y-101868616D01*
X108269973Y-101983635D01*
X108416365Y-102130027D01*
X108527501Y-102296353D01*
X108531385Y-102302167D01*
X108610611Y-102493436D01*
X108651000Y-102696484D01*
X108651000Y-102903516D01*
X108610611Y-103106564D01*
X108551612Y-103249000D01*
X108531384Y-103297835D01*
X108416365Y-103469973D01*
X108269973Y-103616365D01*
X108097835Y-103731384D01*
X108097834Y-103731385D01*
X108097833Y-103731385D01*
X107906564Y-103810611D01*
X107703516Y-103851000D01*
X107496484Y-103851000D01*
X107293436Y-103810611D01*
X107102167Y-103731385D01*
X107102166Y-103731385D01*
X107102165Y-103731384D01*
X106930027Y-103616365D01*
X106783635Y-103469973D01*
X106668616Y-103297835D01*
X106648388Y-103249000D01*
X106589389Y-103106564D01*
X106549000Y-102903516D01*
X106549000Y-102696484D01*
X106589389Y-102493436D01*
X106668615Y-102302167D01*
X106672500Y-102296353D01*
X106783635Y-102130027D01*
X106930027Y-101983635D01*
X107102165Y-101868616D01*
X107102167Y-101868615D01*
X107293436Y-101789389D01*
X107496484Y-101749000D01*
X107703516Y-101749000D01*
X107906564Y-101789389D01*
X107906564Y-101789389D01*
G37*
G36*
X101406564Y-101789389D02*
G01*
X101597833Y-101868615D01*
X101597835Y-101868616D01*
X101769973Y-101983635D01*
X101916365Y-102130027D01*
X102027501Y-102296353D01*
X102031385Y-102302167D01*
X102110611Y-102493436D01*
X102151000Y-102696484D01*
X102151000Y-102903516D01*
X102110611Y-103106564D01*
X102051612Y-103249000D01*
X102031384Y-103297835D01*
X101916365Y-103469973D01*
X101769973Y-103616365D01*
X101597835Y-103731384D01*
X101597834Y-103731385D01*
X101597833Y-103731385D01*
X101406564Y-103810611D01*
X101203516Y-103851000D01*
X100996484Y-103851000D01*
X100793436Y-103810611D01*
X100602167Y-103731385D01*
X100602166Y-103731385D01*
X100602165Y-103731384D01*
X100430027Y-103616365D01*
X100283635Y-103469973D01*
X100168616Y-103297835D01*
X100148388Y-103249000D01*
X100089389Y-103106564D01*
X100049000Y-102903516D01*
X100049000Y-102696484D01*
X100089389Y-102493436D01*
X100168615Y-102302167D01*
X100172500Y-102296353D01*
X100283635Y-102130027D01*
X100430027Y-101983635D01*
X100602165Y-101868616D01*
X100602167Y-101868615D01*
X100793436Y-101789389D01*
X100996484Y-101749000D01*
X101203516Y-101749000D01*
X101406564Y-101789389D01*
X101406564Y-101789389D01*
G37*
G36*
X164850443Y-101095519D02*
G01*
X164916627Y-101102037D01*
X165086466Y-101153557D01*
X165242991Y-101237222D01*
X165278729Y-101266552D01*
X165380186Y-101349814D01*
X165463448Y-101451271D01*
X165492778Y-101487009D01*
X165576443Y-101643534D01*
X165627963Y-101813373D01*
X165645359Y-101990000D01*
X165627963Y-102166627D01*
X165576443Y-102336466D01*
X165492778Y-102492991D01*
X165464907Y-102526952D01*
X165380186Y-102630186D01*
X165299400Y-102696484D01*
X165242991Y-102742778D01*
X165086466Y-102826443D01*
X164916627Y-102877963D01*
X164850442Y-102884482D01*
X164784260Y-102891000D01*
X164695740Y-102891000D01*
X164629558Y-102884482D01*
X164563373Y-102877963D01*
X164393534Y-102826443D01*
X164237009Y-102742778D01*
X164180600Y-102696484D01*
X164099814Y-102630186D01*
X164015093Y-102526952D01*
X163987222Y-102492991D01*
X163903557Y-102336466D01*
X163852037Y-102166627D01*
X163834641Y-101990000D01*
X163852037Y-101813373D01*
X163903557Y-101643534D01*
X163987222Y-101487009D01*
X164016552Y-101451271D01*
X164099814Y-101349814D01*
X164201271Y-101266552D01*
X164237009Y-101237222D01*
X164393534Y-101153557D01*
X164563373Y-101102037D01*
X164629557Y-101095519D01*
X164695740Y-101089000D01*
X164784260Y-101089000D01*
X164850443Y-101095519D01*
X164850443Y-101095519D01*
G37*
G36*
X162310443Y-101095519D02*
G01*
X162376627Y-101102037D01*
X162546466Y-101153557D01*
X162702991Y-101237222D01*
X162738729Y-101266552D01*
X162840186Y-101349814D01*
X162923448Y-101451271D01*
X162952778Y-101487009D01*
X163036443Y-101643534D01*
X163087963Y-101813373D01*
X163105359Y-101990000D01*
X163087963Y-102166627D01*
X163036443Y-102336466D01*
X162952778Y-102492991D01*
X162924907Y-102526952D01*
X162840186Y-102630186D01*
X162759400Y-102696484D01*
X162702991Y-102742778D01*
X162546466Y-102826443D01*
X162376627Y-102877963D01*
X162310442Y-102884482D01*
X162244260Y-102891000D01*
X162155740Y-102891000D01*
X162089558Y-102884482D01*
X162023373Y-102877963D01*
X161853534Y-102826443D01*
X161697009Y-102742778D01*
X161640600Y-102696484D01*
X161559814Y-102630186D01*
X161475093Y-102526952D01*
X161447222Y-102492991D01*
X161363557Y-102336466D01*
X161312037Y-102166627D01*
X161294641Y-101990000D01*
X161312037Y-101813373D01*
X161363557Y-101643534D01*
X161447222Y-101487009D01*
X161476552Y-101451271D01*
X161559814Y-101349814D01*
X161661271Y-101266552D01*
X161697009Y-101237222D01*
X161853534Y-101153557D01*
X162023373Y-101102037D01*
X162089557Y-101095519D01*
X162155740Y-101089000D01*
X162244260Y-101089000D01*
X162310443Y-101095519D01*
X162310443Y-101095519D01*
G37*
G36*
X96102633Y-101293428D02*
G01*
X96105977Y-101294094D01*
X96105997Y-101294096D01*
X96115873Y-101296062D01*
X96115902Y-101296071D01*
X96116390Y-101296168D01*
X96126510Y-101300360D01*
X96135607Y-101306431D01*
X96135930Y-101306754D01*
X96136013Y-101306822D01*
X96143178Y-101313987D01*
X96143246Y-101314070D01*
X96143569Y-101314393D01*
X96149640Y-101323490D01*
X96153832Y-101333610D01*
X96153929Y-101334098D01*
X96153938Y-101334127D01*
X96155904Y-101344003D01*
X96155906Y-101344023D01*
X96156572Y-101347367D01*
X96156852Y-101353077D01*
X96156852Y-102526923D01*
X96156572Y-102532633D01*
X96155906Y-102535977D01*
X96155904Y-102535997D01*
X96153938Y-102545873D01*
X96153929Y-102545902D01*
X96153832Y-102546390D01*
X96149640Y-102556510D01*
X96143569Y-102565607D01*
X96143246Y-102565930D01*
X96143178Y-102566013D01*
X96136013Y-102573178D01*
X96135930Y-102573246D01*
X96135607Y-102573569D01*
X96126510Y-102579640D01*
X96116390Y-102583832D01*
X96115902Y-102583929D01*
X96115873Y-102583938D01*
X96105997Y-102585904D01*
X96105975Y-102585906D01*
X96105499Y-102586001D01*
X96094501Y-102586001D01*
X96094024Y-102585906D01*
X96094003Y-102585904D01*
X96084127Y-102583938D01*
X96084104Y-102583931D01*
X96084064Y-102583923D01*
X96084029Y-102583908D01*
X96083189Y-102583653D01*
X96073257Y-102579449D01*
X96072488Y-102579023D01*
X96070130Y-102578025D01*
X96064046Y-102574185D01*
X96002846Y-102530471D01*
X95994504Y-102525001D01*
X95952471Y-102499781D01*
X95950176Y-102498437D01*
X95886161Y-102461857D01*
X95880045Y-102458584D01*
X95831343Y-102434233D01*
X95821865Y-102429977D01*
X95779108Y-102412874D01*
X95778867Y-102412777D01*
X95777044Y-102412015D01*
X95714549Y-102385232D01*
X95704837Y-102381539D01*
X95626824Y-102355535D01*
X95620186Y-102353526D01*
X95522609Y-102326914D01*
X95512080Y-102324525D01*
X95414798Y-102306837D01*
X95407940Y-102305786D01*
X95337247Y-102296950D01*
X95331332Y-102296353D01*
X95219588Y-102287756D01*
X95200412Y-102287756D01*
X95085633Y-102296586D01*
X95083905Y-102296731D01*
X94986067Y-102305625D01*
X94971191Y-102307887D01*
X94847902Y-102334307D01*
X94839755Y-102336341D01*
X94717357Y-102371311D01*
X94701594Y-102376982D01*
X94560023Y-102438920D01*
X94550269Y-102443703D01*
X94454314Y-102496042D01*
X94444833Y-102501772D01*
X94334088Y-102575602D01*
X94329157Y-102578550D01*
X94316306Y-102583857D01*
X94315825Y-102583952D01*
X94315806Y-102583958D01*
X94305940Y-102585910D01*
X94305934Y-102585911D01*
X94305447Y-102586007D01*
X94294462Y-102585996D01*
X94294004Y-102585904D01*
X94293951Y-102585899D01*
X94284058Y-102583918D01*
X94284008Y-102583903D01*
X94283530Y-102583807D01*
X94273424Y-102579604D01*
X94264292Y-102573492D01*
X94263927Y-102573127D01*
X94256819Y-102566009D01*
X94256812Y-102566001D01*
X94256476Y-102565664D01*
X94256212Y-102565269D01*
X94256198Y-102565251D01*
X94250615Y-102556877D01*
X94250602Y-102556852D01*
X94250331Y-102556446D01*
X94246138Y-102546294D01*
X94243424Y-102532603D01*
X94243148Y-102526952D01*
X94243148Y-101353077D01*
X94243428Y-101347367D01*
X94244094Y-101344023D01*
X94244096Y-101344003D01*
X94246062Y-101334127D01*
X94246071Y-101334098D01*
X94246168Y-101333610D01*
X94250360Y-101323490D01*
X94256431Y-101314393D01*
X94256754Y-101314070D01*
X94256822Y-101313987D01*
X94263987Y-101306822D01*
X94264070Y-101306754D01*
X94264393Y-101306431D01*
X94273490Y-101300360D01*
X94283610Y-101296168D01*
X94284098Y-101296071D01*
X94284127Y-101296062D01*
X94294003Y-101294096D01*
X94294023Y-101294094D01*
X94297367Y-101293428D01*
X94303077Y-101293148D01*
X96096923Y-101293148D01*
X96102633Y-101293428D01*
X96102633Y-101293428D01*
G37*
G36*
X164850443Y-98555519D02*
G01*
X164916627Y-98562037D01*
X165086466Y-98613557D01*
X165242991Y-98697222D01*
X165278729Y-98726552D01*
X165380186Y-98809814D01*
X165463448Y-98911271D01*
X165492778Y-98947009D01*
X165576443Y-99103534D01*
X165627963Y-99273373D01*
X165645359Y-99450000D01*
X165627963Y-99626627D01*
X165576443Y-99796466D01*
X165492778Y-99952991D01*
X165463448Y-99988729D01*
X165380186Y-100090186D01*
X165278729Y-100173448D01*
X165242991Y-100202778D01*
X165086466Y-100286443D01*
X164916627Y-100337963D01*
X164850443Y-100344481D01*
X164784260Y-100351000D01*
X164695740Y-100351000D01*
X164629557Y-100344481D01*
X164563373Y-100337963D01*
X164393534Y-100286443D01*
X164237009Y-100202778D01*
X164201271Y-100173448D01*
X164099814Y-100090186D01*
X164016552Y-99988729D01*
X163987222Y-99952991D01*
X163903557Y-99796466D01*
X163852037Y-99626627D01*
X163834641Y-99450000D01*
X163852037Y-99273373D01*
X163903557Y-99103534D01*
X163987222Y-98947009D01*
X164016552Y-98911271D01*
X164099814Y-98809814D01*
X164201271Y-98726552D01*
X164237009Y-98697222D01*
X164393534Y-98613557D01*
X164563373Y-98562037D01*
X164629557Y-98555519D01*
X164695740Y-98549000D01*
X164784260Y-98549000D01*
X164850443Y-98555519D01*
X164850443Y-98555519D01*
G37*
G36*
X163101000Y-100351000D02*
G01*
X161299000Y-100351000D01*
X161299000Y-98549000D01*
X163101000Y-98549000D01*
X163101000Y-100351000D01*
X163101000Y-100351000D01*
G37*
G36*
X107906564Y-97289389D02*
G01*
X108097833Y-97368615D01*
X108097835Y-97368616D01*
X108269973Y-97483635D01*
X108416365Y-97630027D01*
X108531385Y-97802167D01*
X108610611Y-97993436D01*
X108651000Y-98196484D01*
X108651000Y-98403516D01*
X108610611Y-98606564D01*
X108573059Y-98697222D01*
X108531384Y-98797835D01*
X108416365Y-98969973D01*
X108269973Y-99116365D01*
X108097835Y-99231384D01*
X108097834Y-99231385D01*
X108097833Y-99231385D01*
X107906564Y-99310611D01*
X107703516Y-99351000D01*
X107496484Y-99351000D01*
X107293436Y-99310611D01*
X107102167Y-99231385D01*
X107102166Y-99231385D01*
X107102165Y-99231384D01*
X106930027Y-99116365D01*
X106783635Y-98969973D01*
X106668616Y-98797835D01*
X106626941Y-98697222D01*
X106589389Y-98606564D01*
X106549000Y-98403516D01*
X106549000Y-98196484D01*
X106589389Y-97993436D01*
X106668615Y-97802167D01*
X106783635Y-97630027D01*
X106930027Y-97483635D01*
X107102165Y-97368616D01*
X107102167Y-97368615D01*
X107293436Y-97289389D01*
X107496484Y-97249000D01*
X107703516Y-97249000D01*
X107906564Y-97289389D01*
X107906564Y-97289389D01*
G37*
G36*
X101406564Y-97289389D02*
G01*
X101597833Y-97368615D01*
X101597835Y-97368616D01*
X101769973Y-97483635D01*
X101916365Y-97630027D01*
X102031385Y-97802167D01*
X102110611Y-97993436D01*
X102151000Y-98196484D01*
X102151000Y-98403516D01*
X102110611Y-98606564D01*
X102073059Y-98697222D01*
X102031384Y-98797835D01*
X101916365Y-98969973D01*
X101769973Y-99116365D01*
X101597835Y-99231384D01*
X101597834Y-99231385D01*
X101597833Y-99231385D01*
X101406564Y-99310611D01*
X101203516Y-99351000D01*
X100996484Y-99351000D01*
X100793436Y-99310611D01*
X100602167Y-99231385D01*
X100602166Y-99231385D01*
X100602165Y-99231384D01*
X100430027Y-99116365D01*
X100283635Y-98969973D01*
X100168616Y-98797835D01*
X100126941Y-98697222D01*
X100089389Y-98606564D01*
X100049000Y-98403516D01*
X100049000Y-98196484D01*
X100089389Y-97993436D01*
X100168615Y-97802167D01*
X100283635Y-97630027D01*
X100430027Y-97483635D01*
X100602165Y-97368616D01*
X100602167Y-97368615D01*
X100793436Y-97289389D01*
X100996484Y-97249000D01*
X101203516Y-97249000D01*
X101406564Y-97289389D01*
X101406564Y-97289389D01*
G37*
G36*
X126056564Y-97289389D02*
G01*
X126247833Y-97368615D01*
X126247835Y-97368616D01*
X126419973Y-97483635D01*
X126566365Y-97630027D01*
X126681385Y-97802167D01*
X126760611Y-97993436D01*
X126801000Y-98196484D01*
X126801000Y-98403516D01*
X126760611Y-98606564D01*
X126723059Y-98697222D01*
X126681384Y-98797835D01*
X126566365Y-98969973D01*
X126419973Y-99116365D01*
X126247835Y-99231384D01*
X126247834Y-99231385D01*
X126247833Y-99231385D01*
X126056564Y-99310611D01*
X125853516Y-99351000D01*
X125646484Y-99351000D01*
X125443436Y-99310611D01*
X125252167Y-99231385D01*
X125252166Y-99231385D01*
X125252165Y-99231384D01*
X125080027Y-99116365D01*
X124933635Y-98969973D01*
X124818616Y-98797835D01*
X124776941Y-98697222D01*
X124739389Y-98606564D01*
X124699000Y-98403516D01*
X124699000Y-98196484D01*
X124739389Y-97993436D01*
X124818615Y-97802167D01*
X124933635Y-97630027D01*
X125080027Y-97483635D01*
X125252165Y-97368616D01*
X125252167Y-97368615D01*
X125443436Y-97289389D01*
X125646484Y-97249000D01*
X125853516Y-97249000D01*
X126056564Y-97289389D01*
X126056564Y-97289389D01*
G37*
G36*
X132556564Y-97289389D02*
G01*
X132747833Y-97368615D01*
X132747835Y-97368616D01*
X132919973Y-97483635D01*
X133066365Y-97630027D01*
X133181385Y-97802167D01*
X133260611Y-97993436D01*
X133301000Y-98196484D01*
X133301000Y-98403516D01*
X133260611Y-98606564D01*
X133223059Y-98697222D01*
X133181384Y-98797835D01*
X133066365Y-98969973D01*
X132919973Y-99116365D01*
X132747835Y-99231384D01*
X132747834Y-99231385D01*
X132747833Y-99231385D01*
X132556564Y-99310611D01*
X132353516Y-99351000D01*
X132146484Y-99351000D01*
X131943436Y-99310611D01*
X131752167Y-99231385D01*
X131752166Y-99231385D01*
X131752165Y-99231384D01*
X131580027Y-99116365D01*
X131433635Y-98969973D01*
X131318616Y-98797835D01*
X131276941Y-98697222D01*
X131239389Y-98606564D01*
X131199000Y-98403516D01*
X131199000Y-98196484D01*
X131239389Y-97993436D01*
X131318615Y-97802167D01*
X131433635Y-97630027D01*
X131580027Y-97483635D01*
X131752165Y-97368616D01*
X131752167Y-97368615D01*
X131943436Y-97289389D01*
X132146484Y-97249000D01*
X132353516Y-97249000D01*
X132556564Y-97289389D01*
X132556564Y-97289389D01*
G37*
G36*
X93534468Y-90353565D02*
G01*
X93573138Y-90365296D01*
X93608777Y-90384346D01*
X93640017Y-90409983D01*
X93665654Y-90441223D01*
X93684704Y-90476862D01*
X93696435Y-90515532D01*
X93701000Y-90561888D01*
X93701000Y-91638112D01*
X93696435Y-91684468D01*
X93684704Y-91723138D01*
X93665654Y-91758777D01*
X93640017Y-91790017D01*
X93608777Y-91815654D01*
X93573138Y-91834704D01*
X93534468Y-91846435D01*
X93488112Y-91851000D01*
X92836888Y-91851000D01*
X92790532Y-91846435D01*
X92751862Y-91834704D01*
X92716223Y-91815654D01*
X92684983Y-91790017D01*
X92659346Y-91758777D01*
X92640296Y-91723138D01*
X92628565Y-91684468D01*
X92624000Y-91638112D01*
X92624000Y-90561888D01*
X92628565Y-90515532D01*
X92640296Y-90476862D01*
X92659346Y-90441223D01*
X92684983Y-90409983D01*
X92716223Y-90384346D01*
X92751862Y-90365296D01*
X92790532Y-90353565D01*
X92836888Y-90349000D01*
X93488112Y-90349000D01*
X93534468Y-90353565D01*
X93534468Y-90353565D01*
G37*
G36*
X95409468Y-90353565D02*
G01*
X95448138Y-90365296D01*
X95483777Y-90384346D01*
X95515017Y-90409983D01*
X95540654Y-90441223D01*
X95559704Y-90476862D01*
X95571435Y-90515532D01*
X95576000Y-90561888D01*
X95576000Y-91638112D01*
X95571435Y-91684468D01*
X95559704Y-91723138D01*
X95540654Y-91758777D01*
X95515017Y-91790017D01*
X95483777Y-91815654D01*
X95448138Y-91834704D01*
X95409468Y-91846435D01*
X95363112Y-91851000D01*
X94711888Y-91851000D01*
X94665532Y-91846435D01*
X94626862Y-91834704D01*
X94591223Y-91815654D01*
X94559983Y-91790017D01*
X94534346Y-91758777D01*
X94515296Y-91723138D01*
X94503565Y-91684468D01*
X94499000Y-91638112D01*
X94499000Y-90561888D01*
X94503565Y-90515532D01*
X94515296Y-90476862D01*
X94534346Y-90441223D01*
X94559983Y-90409983D01*
X94591223Y-90384346D01*
X94626862Y-90365296D01*
X94665532Y-90353565D01*
X94711888Y-90349000D01*
X95363112Y-90349000D01*
X95409468Y-90353565D01*
X95409468Y-90353565D01*
G37*
G36*
X157251000Y-91451000D02*
G01*
X155149000Y-91451000D01*
X155149000Y-89349000D01*
X157251000Y-89349000D01*
X157251000Y-91451000D01*
X157251000Y-91451000D01*
G37*
G36*
X95451000Y-88601000D02*
G01*
X94749000Y-88601000D01*
X94749000Y-87199000D01*
X95451000Y-87199000D01*
X95451000Y-88601000D01*
X95451000Y-88601000D01*
G37*
G36*
X93551000Y-88601000D02*
G01*
X92849000Y-88601000D01*
X92849000Y-87199000D01*
X93551000Y-87199000D01*
X93551000Y-88601000D01*
X93551000Y-88601000D01*
G37*
G36*
X97554591Y-87378085D02*
G01*
X97588569Y-87388393D01*
X97619890Y-87405134D01*
X97647339Y-87427661D01*
X97669866Y-87455110D01*
X97686607Y-87486431D01*
X97696915Y-87520409D01*
X97701000Y-87561890D01*
X97701000Y-88238110D01*
X97696915Y-88279591D01*
X97686607Y-88313569D01*
X97669866Y-88344890D01*
X97647339Y-88372339D01*
X97619890Y-88394866D01*
X97588569Y-88411607D01*
X97554591Y-88421915D01*
X97513110Y-88426000D01*
X96911890Y-88426000D01*
X96870409Y-88421915D01*
X96836431Y-88411607D01*
X96805110Y-88394866D01*
X96777661Y-88372339D01*
X96755134Y-88344890D01*
X96738393Y-88313569D01*
X96728085Y-88279591D01*
X96724000Y-88238110D01*
X96724000Y-87561890D01*
X96728085Y-87520409D01*
X96738393Y-87486431D01*
X96755134Y-87455110D01*
X96777661Y-87427661D01*
X96805110Y-87405134D01*
X96836431Y-87388393D01*
X96870409Y-87378085D01*
X96911890Y-87374000D01*
X97513110Y-87374000D01*
X97554591Y-87378085D01*
X97554591Y-87378085D01*
G37*
G36*
X99129591Y-87378085D02*
G01*
X99163569Y-87388393D01*
X99194890Y-87405134D01*
X99222339Y-87427661D01*
X99244866Y-87455110D01*
X99261607Y-87486431D01*
X99271915Y-87520409D01*
X99276000Y-87561890D01*
X99276000Y-88238110D01*
X99271915Y-88279591D01*
X99261607Y-88313569D01*
X99244866Y-88344890D01*
X99222339Y-88372339D01*
X99194890Y-88394866D01*
X99163569Y-88411607D01*
X99129591Y-88421915D01*
X99088110Y-88426000D01*
X98486890Y-88426000D01*
X98445409Y-88421915D01*
X98411431Y-88411607D01*
X98380110Y-88394866D01*
X98352661Y-88372339D01*
X98330134Y-88344890D01*
X98313393Y-88313569D01*
X98303085Y-88279591D01*
X98299000Y-88238110D01*
X98299000Y-87561890D01*
X98303085Y-87520409D01*
X98313393Y-87486431D01*
X98330134Y-87455110D01*
X98352661Y-87427661D01*
X98380110Y-87405134D01*
X98411431Y-87388393D01*
X98445409Y-87378085D01*
X98486890Y-87374000D01*
X99088110Y-87374000D01*
X99129591Y-87378085D01*
X99129591Y-87378085D01*
G37*
G36*
X127975711Y-81105702D02*
G01*
X128260775Y-81162405D01*
X128797823Y-81384857D01*
X129281153Y-81707808D01*
X129692192Y-82118847D01*
X130015143Y-82602177D01*
X130237595Y-83139225D01*
X130237595Y-83139226D01*
X130302507Y-83465558D01*
X130351000Y-83709352D01*
X130351000Y-84290648D01*
X130237595Y-84860775D01*
X130015143Y-85397823D01*
X129692192Y-85881153D01*
X129281153Y-86292192D01*
X128797823Y-86615143D01*
X128260775Y-86837595D01*
X127975712Y-86894297D01*
X127690649Y-86951000D01*
X127109351Y-86951000D01*
X126824288Y-86894297D01*
X126539225Y-86837595D01*
X126002177Y-86615143D01*
X125518847Y-86292192D01*
X125107808Y-85881153D01*
X124784857Y-85397823D01*
X124562405Y-84860775D01*
X124449000Y-84290648D01*
X124449000Y-83709352D01*
X124497494Y-83465558D01*
X124562405Y-83139226D01*
X124562405Y-83139225D01*
X124784857Y-82602177D01*
X125107808Y-82118847D01*
X125518847Y-81707808D01*
X126002177Y-81384857D01*
X126539225Y-81162405D01*
X126824289Y-81105702D01*
X127109351Y-81049000D01*
X127690649Y-81049000D01*
X127975711Y-81105702D01*
X127975711Y-81105702D01*
G37*
G36*
X94501000Y-86501000D02*
G01*
X93799000Y-86501000D01*
X93799000Y-85099000D01*
X94501000Y-85099000D01*
X94501000Y-86501000D01*
X94501000Y-86501000D01*
G37*
G36*
X99129591Y-85278085D02*
G01*
X99163569Y-85288393D01*
X99194890Y-85305134D01*
X99222339Y-85327661D01*
X99244866Y-85355110D01*
X99261607Y-85386431D01*
X99271915Y-85420409D01*
X99276000Y-85461890D01*
X99276000Y-86138110D01*
X99271915Y-86179591D01*
X99261607Y-86213569D01*
X99244866Y-86244890D01*
X99222339Y-86272339D01*
X99194890Y-86294866D01*
X99163569Y-86311607D01*
X99129591Y-86321915D01*
X99088110Y-86326000D01*
X98486890Y-86326000D01*
X98445409Y-86321915D01*
X98411431Y-86311607D01*
X98380110Y-86294866D01*
X98352661Y-86272339D01*
X98330134Y-86244890D01*
X98313393Y-86213569D01*
X98303085Y-86179591D01*
X98299000Y-86138110D01*
X98299000Y-85461890D01*
X98303085Y-85420409D01*
X98313393Y-85386431D01*
X98330134Y-85355110D01*
X98352661Y-85327661D01*
X98380110Y-85305134D01*
X98411431Y-85288393D01*
X98445409Y-85278085D01*
X98486890Y-85274000D01*
X99088110Y-85274000D01*
X99129591Y-85278085D01*
X99129591Y-85278085D01*
G37*
G36*
X97554591Y-85278085D02*
G01*
X97588569Y-85288393D01*
X97619890Y-85305134D01*
X97647339Y-85327661D01*
X97669866Y-85355110D01*
X97686607Y-85386431D01*
X97696915Y-85420409D01*
X97701000Y-85461890D01*
X97701000Y-86138110D01*
X97696915Y-86179591D01*
X97686607Y-86213569D01*
X97669866Y-86244890D01*
X97647339Y-86272339D01*
X97619890Y-86294866D01*
X97588569Y-86311607D01*
X97554591Y-86321915D01*
X97513110Y-86326000D01*
X96911890Y-86326000D01*
X96870409Y-86321915D01*
X96836431Y-86311607D01*
X96805110Y-86294866D01*
X96777661Y-86272339D01*
X96755134Y-86244890D01*
X96738393Y-86213569D01*
X96728085Y-86179591D01*
X96724000Y-86138110D01*
X96724000Y-85461890D01*
X96728085Y-85420409D01*
X96738393Y-85386431D01*
X96755134Y-85355110D01*
X96777661Y-85327661D01*
X96805110Y-85305134D01*
X96836431Y-85288393D01*
X96870409Y-85278085D01*
X96911890Y-85274000D01*
X97513110Y-85274000D01*
X97554591Y-85278085D01*
X97554591Y-85278085D01*
G37*
G36*
X94402038Y-81601952D02*
G01*
X94424963Y-81608907D01*
X94446087Y-81620198D01*
X94464605Y-81635395D01*
X94479802Y-81653913D01*
X94491093Y-81675037D01*
X94498048Y-81697962D01*
X94501000Y-81727938D01*
X94501000Y-83372062D01*
X94498048Y-83402038D01*
X94491093Y-83424963D01*
X94479802Y-83446087D01*
X94464605Y-83464605D01*
X94446087Y-83479802D01*
X94424963Y-83491093D01*
X94402038Y-83498048D01*
X94372062Y-83501000D01*
X93227938Y-83501000D01*
X93197962Y-83498048D01*
X93175037Y-83491093D01*
X93153913Y-83479802D01*
X93135395Y-83464605D01*
X93120198Y-83446087D01*
X93108907Y-83424963D01*
X93101952Y-83402038D01*
X93099000Y-83372062D01*
X93099000Y-81727938D01*
X93101952Y-81697962D01*
X93108907Y-81675037D01*
X93120198Y-81653913D01*
X93135395Y-81635395D01*
X93153913Y-81620198D01*
X93175037Y-81608907D01*
X93197962Y-81601952D01*
X93227938Y-81599000D01*
X94372062Y-81599000D01*
X94402038Y-81601952D01*
X94402038Y-81601952D01*
G37*
G36*
X97802038Y-81601952D02*
G01*
X97824963Y-81608907D01*
X97846087Y-81620198D01*
X97864605Y-81635395D01*
X97879802Y-81653913D01*
X97891093Y-81675037D01*
X97898048Y-81697962D01*
X97901000Y-81727938D01*
X97901000Y-83372062D01*
X97898048Y-83402038D01*
X97891093Y-83424963D01*
X97879802Y-83446087D01*
X97864605Y-83464605D01*
X97846087Y-83479802D01*
X97824963Y-83491093D01*
X97802038Y-83498048D01*
X97772062Y-83501000D01*
X96627938Y-83501000D01*
X96597962Y-83498048D01*
X96575037Y-83491093D01*
X96553913Y-83479802D01*
X96535395Y-83464605D01*
X96520198Y-83446087D01*
X96508907Y-83424963D01*
X96501952Y-83402038D01*
X96499000Y-83372062D01*
X96499000Y-81727938D01*
X96501952Y-81697962D01*
X96508907Y-81675037D01*
X96520198Y-81653913D01*
X96535395Y-81635395D01*
X96553913Y-81620198D01*
X96575037Y-81608907D01*
X96597962Y-81601952D01*
X96627938Y-81599000D01*
X97772062Y-81599000D01*
X97802038Y-81601952D01*
X97802038Y-81601952D01*
G37*
G36*
X94602633Y-75743428D02*
G01*
X94605977Y-75744094D01*
X94605997Y-75744096D01*
X94615873Y-75746062D01*
X94615902Y-75746071D01*
X94616390Y-75746168D01*
X94626510Y-75750360D01*
X94635607Y-75756431D01*
X94635930Y-75756754D01*
X94636013Y-75756822D01*
X94643178Y-75763987D01*
X94643246Y-75764070D01*
X94643569Y-75764393D01*
X94649640Y-75773490D01*
X94653832Y-75783610D01*
X94653929Y-75784098D01*
X94653938Y-75784127D01*
X94655904Y-75794003D01*
X94655906Y-75794023D01*
X94656572Y-75797367D01*
X94656852Y-75803077D01*
X94656852Y-76423149D01*
X94659254Y-76447535D01*
X94666367Y-76470984D01*
X94677918Y-76492595D01*
X94693463Y-76511537D01*
X94712405Y-76527082D01*
X94734016Y-76538633D01*
X94757465Y-76545746D01*
X94781851Y-76548148D01*
X96218149Y-76548148D01*
X96242535Y-76545746D01*
X96265984Y-76538633D01*
X96287595Y-76527082D01*
X96306537Y-76511537D01*
X96322082Y-76492595D01*
X96333633Y-76470984D01*
X96340746Y-76447535D01*
X96343148Y-76423149D01*
X96343148Y-75803077D01*
X96343428Y-75797367D01*
X96344094Y-75794023D01*
X96344096Y-75794003D01*
X96346062Y-75784127D01*
X96346071Y-75784098D01*
X96346168Y-75783610D01*
X96350360Y-75773490D01*
X96356431Y-75764393D01*
X96356754Y-75764070D01*
X96356822Y-75763987D01*
X96363987Y-75756822D01*
X96364070Y-75756754D01*
X96364393Y-75756431D01*
X96373490Y-75750360D01*
X96383610Y-75746168D01*
X96384098Y-75746071D01*
X96384127Y-75746062D01*
X96394003Y-75744096D01*
X96394023Y-75744094D01*
X96397367Y-75743428D01*
X96403077Y-75743148D01*
X97796923Y-75743148D01*
X97802633Y-75743428D01*
X97805977Y-75744094D01*
X97805997Y-75744096D01*
X97815873Y-75746062D01*
X97815902Y-75746071D01*
X97816390Y-75746168D01*
X97826510Y-75750360D01*
X97835607Y-75756431D01*
X97835930Y-75756754D01*
X97836013Y-75756822D01*
X97843178Y-75763987D01*
X97843246Y-75764070D01*
X97843569Y-75764393D01*
X97849640Y-75773490D01*
X97853832Y-75783610D01*
X97853929Y-75784098D01*
X97853938Y-75784127D01*
X97855904Y-75794003D01*
X97855906Y-75794023D01*
X97856572Y-75797367D01*
X97856852Y-75803077D01*
X97856852Y-80296923D01*
X97856572Y-80302633D01*
X97855906Y-80305977D01*
X97855904Y-80305997D01*
X97853938Y-80315873D01*
X97853929Y-80315902D01*
X97853832Y-80316390D01*
X97849640Y-80326510D01*
X97843569Y-80335607D01*
X97843246Y-80335930D01*
X97843178Y-80336013D01*
X97836013Y-80343178D01*
X97835930Y-80343246D01*
X97835607Y-80343569D01*
X97826510Y-80349640D01*
X97816390Y-80353832D01*
X97815902Y-80353929D01*
X97815873Y-80353938D01*
X97805997Y-80355904D01*
X97805977Y-80355906D01*
X97802633Y-80356572D01*
X97796923Y-80356852D01*
X96403077Y-80356852D01*
X96397367Y-80356572D01*
X96394023Y-80355906D01*
X96394003Y-80355904D01*
X96384127Y-80353938D01*
X96384098Y-80353929D01*
X96383610Y-80353832D01*
X96373490Y-80349640D01*
X96364393Y-80343569D01*
X96364070Y-80343246D01*
X96363987Y-80343178D01*
X96356822Y-80336013D01*
X96356754Y-80335930D01*
X96356431Y-80335607D01*
X96350360Y-80326510D01*
X96346168Y-80316390D01*
X96346071Y-80315902D01*
X96346062Y-80315873D01*
X96344096Y-80305997D01*
X96344094Y-80305977D01*
X96343428Y-80302633D01*
X96343148Y-80296923D01*
X96343148Y-78276851D01*
X96340746Y-78252465D01*
X96333633Y-78229016D01*
X96322082Y-78207405D01*
X96306537Y-78188463D01*
X96287595Y-78172918D01*
X96265984Y-78161367D01*
X96242535Y-78154254D01*
X96218149Y-78151852D01*
X94781851Y-78151852D01*
X94757465Y-78154254D01*
X94734016Y-78161367D01*
X94712405Y-78172918D01*
X94693463Y-78188463D01*
X94677918Y-78207405D01*
X94666367Y-78229016D01*
X94659254Y-78252465D01*
X94656852Y-78276851D01*
X94656852Y-80296923D01*
X94656572Y-80302633D01*
X94655906Y-80305977D01*
X94655904Y-80305997D01*
X94653938Y-80315873D01*
X94653929Y-80315902D01*
X94653832Y-80316390D01*
X94649640Y-80326510D01*
X94643569Y-80335607D01*
X94643246Y-80335930D01*
X94643178Y-80336013D01*
X94636013Y-80343178D01*
X94635930Y-80343246D01*
X94635607Y-80343569D01*
X94626510Y-80349640D01*
X94616390Y-80353832D01*
X94615902Y-80353929D01*
X94615873Y-80353938D01*
X94605997Y-80355904D01*
X94605977Y-80355906D01*
X94602633Y-80356572D01*
X94596923Y-80356852D01*
X93203077Y-80356852D01*
X93197367Y-80356572D01*
X93194023Y-80355906D01*
X93194003Y-80355904D01*
X93184127Y-80353938D01*
X93184098Y-80353929D01*
X93183610Y-80353832D01*
X93173490Y-80349640D01*
X93164393Y-80343569D01*
X93164070Y-80343246D01*
X93163987Y-80343178D01*
X93156822Y-80336013D01*
X93156754Y-80335930D01*
X93156431Y-80335607D01*
X93150360Y-80326510D01*
X93146168Y-80316390D01*
X93146071Y-80315902D01*
X93146062Y-80315873D01*
X93144096Y-80305997D01*
X93144094Y-80305977D01*
X93143428Y-80302633D01*
X93143148Y-80296923D01*
X93143148Y-75803077D01*
X93143428Y-75797367D01*
X93144094Y-75794023D01*
X93144096Y-75794003D01*
X93146062Y-75784127D01*
X93146071Y-75784098D01*
X93146168Y-75783610D01*
X93150360Y-75773490D01*
X93156431Y-75764393D01*
X93156754Y-75764070D01*
X93156822Y-75763987D01*
X93163987Y-75756822D01*
X93164070Y-75756754D01*
X93164393Y-75756431D01*
X93173490Y-75750360D01*
X93183610Y-75746168D01*
X93184098Y-75746071D01*
X93184127Y-75746062D01*
X93194003Y-75744096D01*
X93194023Y-75744094D01*
X93197367Y-75743428D01*
X93203077Y-75743148D01*
X94596923Y-75743148D01*
X94602633Y-75743428D01*
X94602633Y-75743428D01*
G37*
G36*
X156506564Y-76639389D02*
G01*
X156697833Y-76718615D01*
X156697835Y-76718616D01*
X156869973Y-76833635D01*
X157016365Y-76980027D01*
X157131385Y-77152167D01*
X157210611Y-77343436D01*
X157251000Y-77546484D01*
X157251000Y-77753516D01*
X157210611Y-77956564D01*
X157131385Y-78147833D01*
X157131384Y-78147835D01*
X157016365Y-78319973D01*
X156869973Y-78466365D01*
X156697835Y-78581384D01*
X156697834Y-78581385D01*
X156697833Y-78581385D01*
X156506564Y-78660611D01*
X156303516Y-78701000D01*
X156096484Y-78701000D01*
X155893436Y-78660611D01*
X155702167Y-78581385D01*
X155702166Y-78581385D01*
X155702165Y-78581384D01*
X155530027Y-78466365D01*
X155383635Y-78319973D01*
X155268616Y-78147835D01*
X155268615Y-78147833D01*
X155189389Y-77956564D01*
X155149000Y-77753516D01*
X155149000Y-77546484D01*
X155189389Y-77343436D01*
X155268615Y-77152167D01*
X155383635Y-76980027D01*
X155530027Y-76833635D01*
X155702165Y-76718616D01*
X155702167Y-76718615D01*
X155893436Y-76639389D01*
X156096484Y-76599000D01*
X156303516Y-76599000D01*
X156506564Y-76639389D01*
X156506564Y-76639389D01*
G37*
G36*
X101063642Y-67879781D02*
G01*
X101209414Y-67940162D01*
X101209416Y-67940163D01*
X101340608Y-68027822D01*
X101452178Y-68139392D01*
X101539837Y-68270584D01*
X101539838Y-68270586D01*
X101600219Y-68416358D01*
X101631000Y-68571107D01*
X101631000Y-68728893D01*
X101600219Y-68883642D01*
X101539838Y-69029414D01*
X101539837Y-69029416D01*
X101452178Y-69160608D01*
X101340608Y-69272178D01*
X101209416Y-69359837D01*
X101209415Y-69359838D01*
X101209414Y-69359838D01*
X101063642Y-69420219D01*
X100908893Y-69451000D01*
X100751107Y-69451000D01*
X100596358Y-69420219D01*
X100450586Y-69359838D01*
X100450585Y-69359838D01*
X100450584Y-69359837D01*
X100319392Y-69272178D01*
X100207822Y-69160608D01*
X100120163Y-69029416D01*
X100120162Y-69029414D01*
X100059781Y-68883642D01*
X100029000Y-68728893D01*
X100029000Y-68571107D01*
X100059781Y-68416358D01*
X100120162Y-68270586D01*
X100120163Y-68270584D01*
X100207822Y-68139392D01*
X100319392Y-68027822D01*
X100450584Y-67940163D01*
X100450586Y-67940162D01*
X100596358Y-67879781D01*
X100751107Y-67849000D01*
X100908893Y-67849000D01*
X101063642Y-67879781D01*
X101063642Y-67879781D01*
G37*
G36*
X98523642Y-67879781D02*
G01*
X98669414Y-67940162D01*
X98669416Y-67940163D01*
X98800608Y-68027822D01*
X98912178Y-68139392D01*
X98999837Y-68270584D01*
X98999838Y-68270586D01*
X99060219Y-68416358D01*
X99091000Y-68571107D01*
X99091000Y-68728893D01*
X99060219Y-68883642D01*
X98999838Y-69029414D01*
X98999837Y-69029416D01*
X98912178Y-69160608D01*
X98800608Y-69272178D01*
X98669416Y-69359837D01*
X98669415Y-69359838D01*
X98669414Y-69359838D01*
X98523642Y-69420219D01*
X98368893Y-69451000D01*
X98211107Y-69451000D01*
X98056358Y-69420219D01*
X97910586Y-69359838D01*
X97910585Y-69359838D01*
X97910584Y-69359837D01*
X97779392Y-69272178D01*
X97667822Y-69160608D01*
X97580163Y-69029416D01*
X97580162Y-69029414D01*
X97519781Y-68883642D01*
X97489000Y-68728893D01*
X97489000Y-68571107D01*
X97519781Y-68416358D01*
X97580162Y-68270586D01*
X97580163Y-68270584D01*
X97667822Y-68139392D01*
X97779392Y-68027822D01*
X97910584Y-67940163D01*
X97910586Y-67940162D01*
X98056358Y-67879781D01*
X98211107Y-67849000D01*
X98368893Y-67849000D01*
X98523642Y-67879781D01*
X98523642Y-67879781D01*
G37*
G36*
X96551000Y-69451000D02*
G01*
X94949000Y-69451000D01*
X94949000Y-67849000D01*
X96551000Y-67849000D01*
X96551000Y-69451000D01*
X96551000Y-69451000D01*
G37*
G36*
X103603642Y-67879781D02*
G01*
X103749414Y-67940162D01*
X103749416Y-67940163D01*
X103880608Y-68027822D01*
X103992178Y-68139392D01*
X104079837Y-68270584D01*
X104079838Y-68270586D01*
X104140219Y-68416358D01*
X104171000Y-68571107D01*
X104171000Y-68728893D01*
X104140219Y-68883642D01*
X104079838Y-69029414D01*
X104079837Y-69029416D01*
X103992178Y-69160608D01*
X103880608Y-69272178D01*
X103749416Y-69359837D01*
X103749415Y-69359838D01*
X103749414Y-69359838D01*
X103603642Y-69420219D01*
X103448893Y-69451000D01*
X103291107Y-69451000D01*
X103136358Y-69420219D01*
X102990586Y-69359838D01*
X102990585Y-69359838D01*
X102990584Y-69359837D01*
X102859392Y-69272178D01*
X102747822Y-69160608D01*
X102660163Y-69029416D01*
X102660162Y-69029414D01*
X102599781Y-68883642D01*
X102569000Y-68728893D01*
X102569000Y-68571107D01*
X102599781Y-68416358D01*
X102660162Y-68270586D01*
X102660163Y-68270584D01*
X102747822Y-68139392D01*
X102859392Y-68027822D01*
X102990584Y-67940163D01*
X102990586Y-67940162D01*
X103136358Y-67879781D01*
X103291107Y-67849000D01*
X103448893Y-67849000D01*
X103603642Y-67879781D01*
X103603642Y-67879781D01*
G37*
G36*
X123923642Y-67879781D02*
G01*
X124069414Y-67940162D01*
X124069416Y-67940163D01*
X124200608Y-68027822D01*
X124312178Y-68139392D01*
X124399837Y-68270584D01*
X124399838Y-68270586D01*
X124460219Y-68416358D01*
X124491000Y-68571107D01*
X124491000Y-68728893D01*
X124460219Y-68883642D01*
X124399838Y-69029414D01*
X124399837Y-69029416D01*
X124312178Y-69160608D01*
X124200608Y-69272178D01*
X124069416Y-69359837D01*
X124069415Y-69359838D01*
X124069414Y-69359838D01*
X123923642Y-69420219D01*
X123768893Y-69451000D01*
X123611107Y-69451000D01*
X123456358Y-69420219D01*
X123310586Y-69359838D01*
X123310585Y-69359838D01*
X123310584Y-69359837D01*
X123179392Y-69272178D01*
X123067822Y-69160608D01*
X122980163Y-69029416D01*
X122980162Y-69029414D01*
X122919781Y-68883642D01*
X122889000Y-68728893D01*
X122889000Y-68571107D01*
X122919781Y-68416358D01*
X122980162Y-68270586D01*
X122980163Y-68270584D01*
X123067822Y-68139392D01*
X123179392Y-68027822D01*
X123310584Y-67940163D01*
X123310586Y-67940162D01*
X123456358Y-67879781D01*
X123611107Y-67849000D01*
X123768893Y-67849000D01*
X123923642Y-67879781D01*
X123923642Y-67879781D01*
G37*
G36*
X121383642Y-67879781D02*
G01*
X121529414Y-67940162D01*
X121529416Y-67940163D01*
X121660608Y-68027822D01*
X121772178Y-68139392D01*
X121859837Y-68270584D01*
X121859838Y-68270586D01*
X121920219Y-68416358D01*
X121951000Y-68571107D01*
X121951000Y-68728893D01*
X121920219Y-68883642D01*
X121859838Y-69029414D01*
X121859837Y-69029416D01*
X121772178Y-69160608D01*
X121660608Y-69272178D01*
X121529416Y-69359837D01*
X121529415Y-69359838D01*
X121529414Y-69359838D01*
X121383642Y-69420219D01*
X121228893Y-69451000D01*
X121071107Y-69451000D01*
X120916358Y-69420219D01*
X120770586Y-69359838D01*
X120770585Y-69359838D01*
X120770584Y-69359837D01*
X120639392Y-69272178D01*
X120527822Y-69160608D01*
X120440163Y-69029416D01*
X120440162Y-69029414D01*
X120379781Y-68883642D01*
X120349000Y-68728893D01*
X120349000Y-68571107D01*
X120379781Y-68416358D01*
X120440162Y-68270586D01*
X120440163Y-68270584D01*
X120527822Y-68139392D01*
X120639392Y-68027822D01*
X120770584Y-67940163D01*
X120770586Y-67940162D01*
X120916358Y-67879781D01*
X121071107Y-67849000D01*
X121228893Y-67849000D01*
X121383642Y-67879781D01*
X121383642Y-67879781D01*
G37*
G36*
X106143642Y-67879781D02*
G01*
X106289414Y-67940162D01*
X106289416Y-67940163D01*
X106420608Y-68027822D01*
X106532178Y-68139392D01*
X106619837Y-68270584D01*
X106619838Y-68270586D01*
X106680219Y-68416358D01*
X106711000Y-68571107D01*
X106711000Y-68728893D01*
X106680219Y-68883642D01*
X106619838Y-69029414D01*
X106619837Y-69029416D01*
X106532178Y-69160608D01*
X106420608Y-69272178D01*
X106289416Y-69359837D01*
X106289415Y-69359838D01*
X106289414Y-69359838D01*
X106143642Y-69420219D01*
X105988893Y-69451000D01*
X105831107Y-69451000D01*
X105676358Y-69420219D01*
X105530586Y-69359838D01*
X105530585Y-69359838D01*
X105530584Y-69359837D01*
X105399392Y-69272178D01*
X105287822Y-69160608D01*
X105200163Y-69029416D01*
X105200162Y-69029414D01*
X105139781Y-68883642D01*
X105109000Y-68728893D01*
X105109000Y-68571107D01*
X105139781Y-68416358D01*
X105200162Y-68270586D01*
X105200163Y-68270584D01*
X105287822Y-68139392D01*
X105399392Y-68027822D01*
X105530584Y-67940163D01*
X105530586Y-67940162D01*
X105676358Y-67879781D01*
X105831107Y-67849000D01*
X105988893Y-67849000D01*
X106143642Y-67879781D01*
X106143642Y-67879781D01*
G37*
G36*
X116303642Y-67879781D02*
G01*
X116449414Y-67940162D01*
X116449416Y-67940163D01*
X116580608Y-68027822D01*
X116692178Y-68139392D01*
X116779837Y-68270584D01*
X116779838Y-68270586D01*
X116840219Y-68416358D01*
X116871000Y-68571107D01*
X116871000Y-68728893D01*
X116840219Y-68883642D01*
X116779838Y-69029414D01*
X116779837Y-69029416D01*
X116692178Y-69160608D01*
X116580608Y-69272178D01*
X116449416Y-69359837D01*
X116449415Y-69359838D01*
X116449414Y-69359838D01*
X116303642Y-69420219D01*
X116148893Y-69451000D01*
X115991107Y-69451000D01*
X115836358Y-69420219D01*
X115690586Y-69359838D01*
X115690585Y-69359838D01*
X115690584Y-69359837D01*
X115559392Y-69272178D01*
X115447822Y-69160608D01*
X115360163Y-69029416D01*
X115360162Y-69029414D01*
X115299781Y-68883642D01*
X115269000Y-68728893D01*
X115269000Y-68571107D01*
X115299781Y-68416358D01*
X115360162Y-68270586D01*
X115360163Y-68270584D01*
X115447822Y-68139392D01*
X115559392Y-68027822D01*
X115690584Y-67940163D01*
X115690586Y-67940162D01*
X115836358Y-67879781D01*
X115991107Y-67849000D01*
X116148893Y-67849000D01*
X116303642Y-67879781D01*
X116303642Y-67879781D01*
G37*
G36*
X126463642Y-67879781D02*
G01*
X126609414Y-67940162D01*
X126609416Y-67940163D01*
X126740608Y-68027822D01*
X126852178Y-68139392D01*
X126939837Y-68270584D01*
X126939838Y-68270586D01*
X127000219Y-68416358D01*
X127031000Y-68571107D01*
X127031000Y-68728893D01*
X127000219Y-68883642D01*
X126939838Y-69029414D01*
X126939837Y-69029416D01*
X126852178Y-69160608D01*
X126740608Y-69272178D01*
X126609416Y-69359837D01*
X126609415Y-69359838D01*
X126609414Y-69359838D01*
X126463642Y-69420219D01*
X126308893Y-69451000D01*
X126151107Y-69451000D01*
X125996358Y-69420219D01*
X125850586Y-69359838D01*
X125850585Y-69359838D01*
X125850584Y-69359837D01*
X125719392Y-69272178D01*
X125607822Y-69160608D01*
X125520163Y-69029416D01*
X125520162Y-69029414D01*
X125459781Y-68883642D01*
X125429000Y-68728893D01*
X125429000Y-68571107D01*
X125459781Y-68416358D01*
X125520162Y-68270586D01*
X125520163Y-68270584D01*
X125607822Y-68139392D01*
X125719392Y-68027822D01*
X125850584Y-67940163D01*
X125850586Y-67940162D01*
X125996358Y-67879781D01*
X126151107Y-67849000D01*
X126308893Y-67849000D01*
X126463642Y-67879781D01*
X126463642Y-67879781D01*
G37*
G36*
X118843642Y-67879781D02*
G01*
X118989414Y-67940162D01*
X118989416Y-67940163D01*
X119120608Y-68027822D01*
X119232178Y-68139392D01*
X119319837Y-68270584D01*
X119319838Y-68270586D01*
X119380219Y-68416358D01*
X119411000Y-68571107D01*
X119411000Y-68728893D01*
X119380219Y-68883642D01*
X119319838Y-69029414D01*
X119319837Y-69029416D01*
X119232178Y-69160608D01*
X119120608Y-69272178D01*
X118989416Y-69359837D01*
X118989415Y-69359838D01*
X118989414Y-69359838D01*
X118843642Y-69420219D01*
X118688893Y-69451000D01*
X118531107Y-69451000D01*
X118376358Y-69420219D01*
X118230586Y-69359838D01*
X118230585Y-69359838D01*
X118230584Y-69359837D01*
X118099392Y-69272178D01*
X117987822Y-69160608D01*
X117900163Y-69029416D01*
X117900162Y-69029414D01*
X117839781Y-68883642D01*
X117809000Y-68728893D01*
X117809000Y-68571107D01*
X117839781Y-68416358D01*
X117900162Y-68270586D01*
X117900163Y-68270584D01*
X117987822Y-68139392D01*
X118099392Y-68027822D01*
X118230584Y-67940163D01*
X118230586Y-67940162D01*
X118376358Y-67879781D01*
X118531107Y-67849000D01*
X118688893Y-67849000D01*
X118843642Y-67879781D01*
X118843642Y-67879781D01*
G37*
G36*
X133784468Y-60503565D02*
G01*
X133823138Y-60515296D01*
X133858777Y-60534346D01*
X133890017Y-60559983D01*
X133915654Y-60591223D01*
X133934704Y-60626862D01*
X133946435Y-60665532D01*
X133951000Y-60711888D01*
X133951000Y-61363112D01*
X133946435Y-61409468D01*
X133934704Y-61448138D01*
X133915654Y-61483777D01*
X133890017Y-61515017D01*
X133858777Y-61540654D01*
X133823138Y-61559704D01*
X133784468Y-61571435D01*
X133738112Y-61576000D01*
X132661888Y-61576000D01*
X132615532Y-61571435D01*
X132576862Y-61559704D01*
X132541223Y-61540654D01*
X132509983Y-61515017D01*
X132484346Y-61483777D01*
X132465296Y-61448138D01*
X132453565Y-61409468D01*
X132449000Y-61363112D01*
X132449000Y-60711888D01*
X132453565Y-60665532D01*
X132465296Y-60626862D01*
X132484346Y-60591223D01*
X132509983Y-60559983D01*
X132541223Y-60534346D01*
X132576862Y-60515296D01*
X132615532Y-60503565D01*
X132661888Y-60499000D01*
X133738112Y-60499000D01*
X133784468Y-60503565D01*
X133784468Y-60503565D01*
G37*
G36*
X133784468Y-58628565D02*
G01*
X133823138Y-58640296D01*
X133858777Y-58659346D01*
X133890017Y-58684983D01*
X133915654Y-58716223D01*
X133934704Y-58751862D01*
X133946435Y-58790532D01*
X133951000Y-58836888D01*
X133951000Y-59488112D01*
X133946435Y-59534468D01*
X133934704Y-59573138D01*
X133915654Y-59608777D01*
X133890017Y-59640017D01*
X133858777Y-59665654D01*
X133823138Y-59684704D01*
X133784468Y-59696435D01*
X133738112Y-59701000D01*
X132661888Y-59701000D01*
X132615532Y-59696435D01*
X132576862Y-59684704D01*
X132541223Y-59665654D01*
X132509983Y-59640017D01*
X132484346Y-59608777D01*
X132465296Y-59573138D01*
X132453565Y-59534468D01*
X132449000Y-59488112D01*
X132449000Y-58836888D01*
X132453565Y-58790532D01*
X132465296Y-58751862D01*
X132484346Y-58716223D01*
X132509983Y-58684983D01*
X132541223Y-58659346D01*
X132576862Y-58640296D01*
X132615532Y-58628565D01*
X132661888Y-58624000D01*
X133738112Y-58624000D01*
X133784468Y-58628565D01*
X133784468Y-58628565D01*
G37*
G36*
X121383642Y-55179781D02*
G01*
X121529414Y-55240162D01*
X121529416Y-55240163D01*
X121660608Y-55327822D01*
X121772178Y-55439392D01*
X121859837Y-55570584D01*
X121859838Y-55570586D01*
X121920219Y-55716358D01*
X121951000Y-55871107D01*
X121951000Y-56028893D01*
X121920219Y-56183642D01*
X121859838Y-56329414D01*
X121859837Y-56329416D01*
X121772178Y-56460608D01*
X121660608Y-56572178D01*
X121529416Y-56659837D01*
X121529415Y-56659838D01*
X121529414Y-56659838D01*
X121383642Y-56720219D01*
X121228893Y-56751000D01*
X121071107Y-56751000D01*
X120916358Y-56720219D01*
X120770586Y-56659838D01*
X120770585Y-56659838D01*
X120770584Y-56659837D01*
X120639392Y-56572178D01*
X120527822Y-56460608D01*
X120440163Y-56329416D01*
X120440162Y-56329414D01*
X120379781Y-56183642D01*
X120349000Y-56028893D01*
X120349000Y-55871107D01*
X120379781Y-55716358D01*
X120440162Y-55570586D01*
X120440163Y-55570584D01*
X120527822Y-55439392D01*
X120639392Y-55327822D01*
X120770584Y-55240163D01*
X120770586Y-55240162D01*
X120916358Y-55179781D01*
X121071107Y-55149000D01*
X121228893Y-55149000D01*
X121383642Y-55179781D01*
X121383642Y-55179781D01*
G37*
G36*
X118843642Y-55179781D02*
G01*
X118989414Y-55240162D01*
X118989416Y-55240163D01*
X119120608Y-55327822D01*
X119232178Y-55439392D01*
X119319837Y-55570584D01*
X119319838Y-55570586D01*
X119380219Y-55716358D01*
X119411000Y-55871107D01*
X119411000Y-56028893D01*
X119380219Y-56183642D01*
X119319838Y-56329414D01*
X119319837Y-56329416D01*
X119232178Y-56460608D01*
X119120608Y-56572178D01*
X118989416Y-56659837D01*
X118989415Y-56659838D01*
X118989414Y-56659838D01*
X118843642Y-56720219D01*
X118688893Y-56751000D01*
X118531107Y-56751000D01*
X118376358Y-56720219D01*
X118230586Y-56659838D01*
X118230585Y-56659838D01*
X118230584Y-56659837D01*
X118099392Y-56572178D01*
X117987822Y-56460608D01*
X117900163Y-56329416D01*
X117900162Y-56329414D01*
X117839781Y-56183642D01*
X117809000Y-56028893D01*
X117809000Y-55871107D01*
X117839781Y-55716358D01*
X117900162Y-55570586D01*
X117900163Y-55570584D01*
X117987822Y-55439392D01*
X118099392Y-55327822D01*
X118230584Y-55240163D01*
X118230586Y-55240162D01*
X118376358Y-55179781D01*
X118531107Y-55149000D01*
X118688893Y-55149000D01*
X118843642Y-55179781D01*
X118843642Y-55179781D01*
G37*
G36*
X95983642Y-55179781D02*
G01*
X96129414Y-55240162D01*
X96129416Y-55240163D01*
X96260608Y-55327822D01*
X96372178Y-55439392D01*
X96459837Y-55570584D01*
X96459838Y-55570586D01*
X96520219Y-55716358D01*
X96551000Y-55871107D01*
X96551000Y-56028893D01*
X96520219Y-56183642D01*
X96459838Y-56329414D01*
X96459837Y-56329416D01*
X96372178Y-56460608D01*
X96260608Y-56572178D01*
X96129416Y-56659837D01*
X96129415Y-56659838D01*
X96129414Y-56659838D01*
X95983642Y-56720219D01*
X95828893Y-56751000D01*
X95671107Y-56751000D01*
X95516358Y-56720219D01*
X95370586Y-56659838D01*
X95370585Y-56659838D01*
X95370584Y-56659837D01*
X95239392Y-56572178D01*
X95127822Y-56460608D01*
X95040163Y-56329416D01*
X95040162Y-56329414D01*
X94979781Y-56183642D01*
X94949000Y-56028893D01*
X94949000Y-55871107D01*
X94979781Y-55716358D01*
X95040162Y-55570586D01*
X95040163Y-55570584D01*
X95127822Y-55439392D01*
X95239392Y-55327822D01*
X95370584Y-55240163D01*
X95370586Y-55240162D01*
X95516358Y-55179781D01*
X95671107Y-55149000D01*
X95828893Y-55149000D01*
X95983642Y-55179781D01*
X95983642Y-55179781D01*
G37*
G36*
X98523642Y-55179781D02*
G01*
X98669414Y-55240162D01*
X98669416Y-55240163D01*
X98800608Y-55327822D01*
X98912178Y-55439392D01*
X98999837Y-55570584D01*
X98999838Y-55570586D01*
X99060219Y-55716358D01*
X99091000Y-55871107D01*
X99091000Y-56028893D01*
X99060219Y-56183642D01*
X98999838Y-56329414D01*
X98999837Y-56329416D01*
X98912178Y-56460608D01*
X98800608Y-56572178D01*
X98669416Y-56659837D01*
X98669415Y-56659838D01*
X98669414Y-56659838D01*
X98523642Y-56720219D01*
X98368893Y-56751000D01*
X98211107Y-56751000D01*
X98056358Y-56720219D01*
X97910586Y-56659838D01*
X97910585Y-56659838D01*
X97910584Y-56659837D01*
X97779392Y-56572178D01*
X97667822Y-56460608D01*
X97580163Y-56329416D01*
X97580162Y-56329414D01*
X97519781Y-56183642D01*
X97489000Y-56028893D01*
X97489000Y-55871107D01*
X97519781Y-55716358D01*
X97580162Y-55570586D01*
X97580163Y-55570584D01*
X97667822Y-55439392D01*
X97779392Y-55327822D01*
X97910584Y-55240163D01*
X97910586Y-55240162D01*
X98056358Y-55179781D01*
X98211107Y-55149000D01*
X98368893Y-55149000D01*
X98523642Y-55179781D01*
X98523642Y-55179781D01*
G37*
G36*
X101063642Y-55179781D02*
G01*
X101209414Y-55240162D01*
X101209416Y-55240163D01*
X101340608Y-55327822D01*
X101452178Y-55439392D01*
X101539837Y-55570584D01*
X101539838Y-55570586D01*
X101600219Y-55716358D01*
X101631000Y-55871107D01*
X101631000Y-56028893D01*
X101600219Y-56183642D01*
X101539838Y-56329414D01*
X101539837Y-56329416D01*
X101452178Y-56460608D01*
X101340608Y-56572178D01*
X101209416Y-56659837D01*
X101209415Y-56659838D01*
X101209414Y-56659838D01*
X101063642Y-56720219D01*
X100908893Y-56751000D01*
X100751107Y-56751000D01*
X100596358Y-56720219D01*
X100450586Y-56659838D01*
X100450585Y-56659838D01*
X100450584Y-56659837D01*
X100319392Y-56572178D01*
X100207822Y-56460608D01*
X100120163Y-56329416D01*
X100120162Y-56329414D01*
X100059781Y-56183642D01*
X100029000Y-56028893D01*
X100029000Y-55871107D01*
X100059781Y-55716358D01*
X100120162Y-55570586D01*
X100120163Y-55570584D01*
X100207822Y-55439392D01*
X100319392Y-55327822D01*
X100450584Y-55240163D01*
X100450586Y-55240162D01*
X100596358Y-55179781D01*
X100751107Y-55149000D01*
X100908893Y-55149000D01*
X101063642Y-55179781D01*
X101063642Y-55179781D01*
G37*
G36*
X103603642Y-55179781D02*
G01*
X103749414Y-55240162D01*
X103749416Y-55240163D01*
X103880608Y-55327822D01*
X103992178Y-55439392D01*
X104079837Y-55570584D01*
X104079838Y-55570586D01*
X104140219Y-55716358D01*
X104171000Y-55871107D01*
X104171000Y-56028893D01*
X104140219Y-56183642D01*
X104079838Y-56329414D01*
X104079837Y-56329416D01*
X103992178Y-56460608D01*
X103880608Y-56572178D01*
X103749416Y-56659837D01*
X103749415Y-56659838D01*
X103749414Y-56659838D01*
X103603642Y-56720219D01*
X103448893Y-56751000D01*
X103291107Y-56751000D01*
X103136358Y-56720219D01*
X102990586Y-56659838D01*
X102990585Y-56659838D01*
X102990584Y-56659837D01*
X102859392Y-56572178D01*
X102747822Y-56460608D01*
X102660163Y-56329416D01*
X102660162Y-56329414D01*
X102599781Y-56183642D01*
X102569000Y-56028893D01*
X102569000Y-55871107D01*
X102599781Y-55716358D01*
X102660162Y-55570586D01*
X102660163Y-55570584D01*
X102747822Y-55439392D01*
X102859392Y-55327822D01*
X102990584Y-55240163D01*
X102990586Y-55240162D01*
X103136358Y-55179781D01*
X103291107Y-55149000D01*
X103448893Y-55149000D01*
X103603642Y-55179781D01*
X103603642Y-55179781D01*
G37*
G36*
X116303642Y-55179781D02*
G01*
X116449414Y-55240162D01*
X116449416Y-55240163D01*
X116580608Y-55327822D01*
X116692178Y-55439392D01*
X116779837Y-55570584D01*
X116779838Y-55570586D01*
X116840219Y-55716358D01*
X116871000Y-55871107D01*
X116871000Y-56028893D01*
X116840219Y-56183642D01*
X116779838Y-56329414D01*
X116779837Y-56329416D01*
X116692178Y-56460608D01*
X116580608Y-56572178D01*
X116449416Y-56659837D01*
X116449415Y-56659838D01*
X116449414Y-56659838D01*
X116303642Y-56720219D01*
X116148893Y-56751000D01*
X115991107Y-56751000D01*
X115836358Y-56720219D01*
X115690586Y-56659838D01*
X115690585Y-56659838D01*
X115690584Y-56659837D01*
X115559392Y-56572178D01*
X115447822Y-56460608D01*
X115360163Y-56329416D01*
X115360162Y-56329414D01*
X115299781Y-56183642D01*
X115269000Y-56028893D01*
X115269000Y-55871107D01*
X115299781Y-55716358D01*
X115360162Y-55570586D01*
X115360163Y-55570584D01*
X115447822Y-55439392D01*
X115559392Y-55327822D01*
X115690584Y-55240163D01*
X115690586Y-55240162D01*
X115836358Y-55179781D01*
X115991107Y-55149000D01*
X116148893Y-55149000D01*
X116303642Y-55179781D01*
X116303642Y-55179781D01*
G37*
G36*
X106143642Y-55179781D02*
G01*
X106289414Y-55240162D01*
X106289416Y-55240163D01*
X106420608Y-55327822D01*
X106532178Y-55439392D01*
X106619837Y-55570584D01*
X106619838Y-55570586D01*
X106680219Y-55716358D01*
X106711000Y-55871107D01*
X106711000Y-56028893D01*
X106680219Y-56183642D01*
X106619838Y-56329414D01*
X106619837Y-56329416D01*
X106532178Y-56460608D01*
X106420608Y-56572178D01*
X106289416Y-56659837D01*
X106289415Y-56659838D01*
X106289414Y-56659838D01*
X106143642Y-56720219D01*
X105988893Y-56751000D01*
X105831107Y-56751000D01*
X105676358Y-56720219D01*
X105530586Y-56659838D01*
X105530585Y-56659838D01*
X105530584Y-56659837D01*
X105399392Y-56572178D01*
X105287822Y-56460608D01*
X105200163Y-56329416D01*
X105200162Y-56329414D01*
X105139781Y-56183642D01*
X105109000Y-56028893D01*
X105109000Y-55871107D01*
X105139781Y-55716358D01*
X105200162Y-55570586D01*
X105200163Y-55570584D01*
X105287822Y-55439392D01*
X105399392Y-55327822D01*
X105530584Y-55240163D01*
X105530586Y-55240162D01*
X105676358Y-55179781D01*
X105831107Y-55149000D01*
X105988893Y-55149000D01*
X106143642Y-55179781D01*
X106143642Y-55179781D01*
G37*
G36*
X123923642Y-55179781D02*
G01*
X124069414Y-55240162D01*
X124069416Y-55240163D01*
X124200608Y-55327822D01*
X124312178Y-55439392D01*
X124399837Y-55570584D01*
X124399838Y-55570586D01*
X124460219Y-55716358D01*
X124491000Y-55871107D01*
X124491000Y-56028893D01*
X124460219Y-56183642D01*
X124399838Y-56329414D01*
X124399837Y-56329416D01*
X124312178Y-56460608D01*
X124200608Y-56572178D01*
X124069416Y-56659837D01*
X124069415Y-56659838D01*
X124069414Y-56659838D01*
X123923642Y-56720219D01*
X123768893Y-56751000D01*
X123611107Y-56751000D01*
X123456358Y-56720219D01*
X123310586Y-56659838D01*
X123310585Y-56659838D01*
X123310584Y-56659837D01*
X123179392Y-56572178D01*
X123067822Y-56460608D01*
X122980163Y-56329416D01*
X122980162Y-56329414D01*
X122919781Y-56183642D01*
X122889000Y-56028893D01*
X122889000Y-55871107D01*
X122919781Y-55716358D01*
X122980162Y-55570586D01*
X122980163Y-55570584D01*
X123067822Y-55439392D01*
X123179392Y-55327822D01*
X123310584Y-55240163D01*
X123310586Y-55240162D01*
X123456358Y-55179781D01*
X123611107Y-55149000D01*
X123768893Y-55149000D01*
X123923642Y-55179781D01*
X123923642Y-55179781D01*
G37*
G36*
X126463642Y-55179781D02*
G01*
X126609414Y-55240162D01*
X126609416Y-55240163D01*
X126740608Y-55327822D01*
X126852178Y-55439392D01*
X126939837Y-55570584D01*
X126939838Y-55570586D01*
X127000219Y-55716358D01*
X127031000Y-55871107D01*
X127031000Y-56028893D01*
X127000219Y-56183642D01*
X126939838Y-56329414D01*
X126939837Y-56329416D01*
X126852178Y-56460608D01*
X126740608Y-56572178D01*
X126609416Y-56659837D01*
X126609415Y-56659838D01*
X126609414Y-56659838D01*
X126463642Y-56720219D01*
X126308893Y-56751000D01*
X126151107Y-56751000D01*
X125996358Y-56720219D01*
X125850586Y-56659838D01*
X125850585Y-56659838D01*
X125850584Y-56659837D01*
X125719392Y-56572178D01*
X125607822Y-56460608D01*
X125520163Y-56329416D01*
X125520162Y-56329414D01*
X125459781Y-56183642D01*
X125429000Y-56028893D01*
X125429000Y-55871107D01*
X125459781Y-55716358D01*
X125520162Y-55570586D01*
X125520163Y-55570584D01*
X125607822Y-55439392D01*
X125719392Y-55327822D01*
X125850584Y-55240163D01*
X125850586Y-55240162D01*
X125996358Y-55179781D01*
X126151107Y-55149000D01*
X126308893Y-55149000D01*
X126463642Y-55179781D01*
X126463642Y-55179781D01*
G37*
G36*
X150651000Y-56101000D02*
G01*
X148549000Y-56101000D01*
X148549000Y-53999000D01*
X150651000Y-53999000D01*
X150651000Y-56101000D01*
X150651000Y-56101000D01*
G37*
G36*
X159906564Y-54039389D02*
G01*
X160097833Y-54118615D01*
X160097835Y-54118616D01*
X160269973Y-54233635D01*
X160416365Y-54380027D01*
X160487769Y-54486890D01*
X160531385Y-54552167D01*
X160610611Y-54743436D01*
X160651000Y-54946484D01*
X160651000Y-55153516D01*
X160610611Y-55356564D01*
X160576302Y-55439393D01*
X160531384Y-55547835D01*
X160416365Y-55719973D01*
X160269973Y-55866365D01*
X160097835Y-55981384D01*
X160097834Y-55981385D01*
X160097833Y-55981385D01*
X159906564Y-56060611D01*
X159703516Y-56101000D01*
X159496484Y-56101000D01*
X159293436Y-56060611D01*
X159102167Y-55981385D01*
X159102166Y-55981385D01*
X159102165Y-55981384D01*
X158930027Y-55866365D01*
X158783635Y-55719973D01*
X158668616Y-55547835D01*
X158623698Y-55439393D01*
X158589389Y-55356564D01*
X158549000Y-55153516D01*
X158549000Y-54946484D01*
X158589389Y-54743436D01*
X158668615Y-54552167D01*
X158712232Y-54486890D01*
X158783635Y-54380027D01*
X158930027Y-54233635D01*
X159102165Y-54118616D01*
X159102167Y-54118615D01*
X159293436Y-54039389D01*
X159496484Y-53999000D01*
X159703516Y-53999000D01*
X159906564Y-54039389D01*
X159906564Y-54039389D01*
G37*
G36*
X141779591Y-54303085D02*
G01*
X141813569Y-54313393D01*
X141844890Y-54330134D01*
X141872339Y-54352661D01*
X141894866Y-54380110D01*
X141911607Y-54411431D01*
X141921915Y-54445409D01*
X141926000Y-54486890D01*
X141926000Y-55088110D01*
X141921915Y-55129591D01*
X141911607Y-55163569D01*
X141894866Y-55194890D01*
X141872339Y-55222339D01*
X141844890Y-55244866D01*
X141813569Y-55261607D01*
X141779591Y-55271915D01*
X141738110Y-55276000D01*
X141061890Y-55276000D01*
X141020409Y-55271915D01*
X140986431Y-55261607D01*
X140955110Y-55244866D01*
X140927661Y-55222339D01*
X140905134Y-55194890D01*
X140888393Y-55163569D01*
X140878085Y-55129591D01*
X140874000Y-55088110D01*
X140874000Y-54486890D01*
X140878085Y-54445409D01*
X140888393Y-54411431D01*
X140905134Y-54380110D01*
X140927661Y-54352661D01*
X140955110Y-54330134D01*
X140986431Y-54313393D01*
X141020409Y-54303085D01*
X141061890Y-54299000D01*
X141738110Y-54299000D01*
X141779591Y-54303085D01*
X141779591Y-54303085D01*
G37*
G36*
X141779591Y-52728085D02*
G01*
X141813569Y-52738393D01*
X141844890Y-52755134D01*
X141872339Y-52777661D01*
X141894866Y-52805110D01*
X141911607Y-52836431D01*
X141921915Y-52870409D01*
X141926000Y-52911890D01*
X141926000Y-53513110D01*
X141921915Y-53554591D01*
X141911607Y-53588569D01*
X141894866Y-53619890D01*
X141872339Y-53647339D01*
X141844890Y-53669866D01*
X141813569Y-53686607D01*
X141779591Y-53696915D01*
X141738110Y-53701000D01*
X141061890Y-53701000D01*
X141020409Y-53696915D01*
X140986431Y-53686607D01*
X140955110Y-53669866D01*
X140927661Y-53647339D01*
X140905134Y-53619890D01*
X140888393Y-53588569D01*
X140878085Y-53554591D01*
X140874000Y-53513110D01*
X140874000Y-52911890D01*
X140878085Y-52870409D01*
X140888393Y-52836431D01*
X140905134Y-52805110D01*
X140927661Y-52777661D01*
X140955110Y-52755134D01*
X140986431Y-52738393D01*
X141020409Y-52728085D01*
X141061890Y-52724000D01*
X141738110Y-52724000D01*
X141779591Y-52728085D01*
X141779591Y-52728085D01*
G37*
G36*
X139606564Y-50539389D02*
G01*
X139797833Y-50618615D01*
X139797835Y-50618616D01*
X139969973Y-50733635D01*
X140116365Y-50880027D01*
X140161672Y-50947833D01*
X140231385Y-51052167D01*
X140310611Y-51243436D01*
X140351000Y-51446484D01*
X140351000Y-51653516D01*
X140310611Y-51856564D01*
X140231385Y-52047833D01*
X140231384Y-52047835D01*
X140116365Y-52219973D01*
X139969973Y-52366365D01*
X139797835Y-52481384D01*
X139797834Y-52481385D01*
X139797833Y-52481385D01*
X139606564Y-52560611D01*
X139403516Y-52601000D01*
X139196484Y-52601000D01*
X138993436Y-52560611D01*
X138802167Y-52481385D01*
X138802166Y-52481385D01*
X138802165Y-52481384D01*
X138630027Y-52366365D01*
X138483635Y-52219973D01*
X138368616Y-52047835D01*
X138368615Y-52047833D01*
X138289389Y-51856564D01*
X138249000Y-51653516D01*
X138249000Y-51446484D01*
X138289389Y-51243436D01*
X138368615Y-51052167D01*
X138438329Y-50947833D01*
X138483635Y-50880027D01*
X138630027Y-50733635D01*
X138802165Y-50618616D01*
X138802167Y-50618615D01*
X138993436Y-50539389D01*
X139196484Y-50499000D01*
X139403516Y-50499000D01*
X139606564Y-50539389D01*
X139606564Y-50539389D01*
G37*
G36*
X134006564Y-50539389D02*
G01*
X134197833Y-50618615D01*
X134197835Y-50618616D01*
X134369973Y-50733635D01*
X134516365Y-50880027D01*
X134561672Y-50947833D01*
X134631385Y-51052167D01*
X134710611Y-51243436D01*
X134751000Y-51446484D01*
X134751000Y-51653516D01*
X134710611Y-51856564D01*
X134631385Y-52047833D01*
X134631384Y-52047835D01*
X134516365Y-52219973D01*
X134369973Y-52366365D01*
X134197835Y-52481384D01*
X134197834Y-52481385D01*
X134197833Y-52481385D01*
X134006564Y-52560611D01*
X133803516Y-52601000D01*
X133596484Y-52601000D01*
X133393436Y-52560611D01*
X133202167Y-52481385D01*
X133202166Y-52481385D01*
X133202165Y-52481384D01*
X133030027Y-52366365D01*
X132883635Y-52219973D01*
X132768616Y-52047835D01*
X132768615Y-52047833D01*
X132689389Y-51856564D01*
X132649000Y-51653516D01*
X132649000Y-51446484D01*
X132689389Y-51243436D01*
X132768615Y-51052167D01*
X132838329Y-50947833D01*
X132883635Y-50880027D01*
X133030027Y-50733635D01*
X133202165Y-50618616D01*
X133202167Y-50618615D01*
X133393436Y-50539389D01*
X133596484Y-50499000D01*
X133803516Y-50499000D01*
X134006564Y-50539389D01*
X134006564Y-50539389D01*
G37*
G36*
X136748228Y-50731703D02*
G01*
X136903100Y-50795853D01*
X137042481Y-50888985D01*
X137161015Y-51007519D01*
X137254147Y-51146900D01*
X137318297Y-51301772D01*
X137351000Y-51466184D01*
X137351000Y-51633816D01*
X137318297Y-51798228D01*
X137254147Y-51953100D01*
X137161015Y-52092481D01*
X137042481Y-52211015D01*
X136903100Y-52304147D01*
X136748228Y-52368297D01*
X136583816Y-52401000D01*
X136416184Y-52401000D01*
X136251772Y-52368297D01*
X136096900Y-52304147D01*
X135957519Y-52211015D01*
X135838985Y-52092481D01*
X135745853Y-51953100D01*
X135681703Y-51798228D01*
X135649000Y-51633816D01*
X135649000Y-51466184D01*
X135681703Y-51301772D01*
X135745853Y-51146900D01*
X135838985Y-51007519D01*
X135957519Y-50888985D01*
X136096900Y-50795853D01*
X136251772Y-50731703D01*
X136416184Y-50699000D01*
X136583816Y-50699000D01*
X136748228Y-50731703D01*
X136748228Y-50731703D01*
G37*
G36*
X108556564Y-49439389D02*
G01*
X108747833Y-49518615D01*
X108747835Y-49518616D01*
X108919973Y-49633635D01*
X109066365Y-49780027D01*
X109181385Y-49952167D01*
X109260611Y-50143436D01*
X109301000Y-50346484D01*
X109301000Y-50553516D01*
X109260611Y-50756564D01*
X109181385Y-50947833D01*
X109181384Y-50947835D01*
X109066365Y-51119973D01*
X108919973Y-51266365D01*
X108747835Y-51381384D01*
X108747834Y-51381385D01*
X108747833Y-51381385D01*
X108556564Y-51460611D01*
X108353516Y-51501000D01*
X108146484Y-51501000D01*
X107943436Y-51460611D01*
X107752167Y-51381385D01*
X107752166Y-51381385D01*
X107752165Y-51381384D01*
X107580027Y-51266365D01*
X107433635Y-51119973D01*
X107318616Y-50947835D01*
X107318615Y-50947833D01*
X107239389Y-50756564D01*
X107199000Y-50553516D01*
X107199000Y-50346484D01*
X107239389Y-50143436D01*
X107318615Y-49952167D01*
X107433635Y-49780027D01*
X107580027Y-49633635D01*
X107752165Y-49518616D01*
X107752167Y-49518615D01*
X107943436Y-49439389D01*
X108146484Y-49399000D01*
X108353516Y-49399000D01*
X108556564Y-49439389D01*
X108556564Y-49439389D01*
G37*
G36*
X102056564Y-49439389D02*
G01*
X102247833Y-49518615D01*
X102247835Y-49518616D01*
X102419973Y-49633635D01*
X102566365Y-49780027D01*
X102681385Y-49952167D01*
X102760611Y-50143436D01*
X102801000Y-50346484D01*
X102801000Y-50553516D01*
X102760611Y-50756564D01*
X102681385Y-50947833D01*
X102681384Y-50947835D01*
X102566365Y-51119973D01*
X102419973Y-51266365D01*
X102247835Y-51381384D01*
X102247834Y-51381385D01*
X102247833Y-51381385D01*
X102056564Y-51460611D01*
X101853516Y-51501000D01*
X101646484Y-51501000D01*
X101443436Y-51460611D01*
X101252167Y-51381385D01*
X101252166Y-51381385D01*
X101252165Y-51381384D01*
X101080027Y-51266365D01*
X100933635Y-51119973D01*
X100818616Y-50947835D01*
X100818615Y-50947833D01*
X100739389Y-50756564D01*
X100699000Y-50553516D01*
X100699000Y-50346484D01*
X100739389Y-50143436D01*
X100818615Y-49952167D01*
X100933635Y-49780027D01*
X101080027Y-49633635D01*
X101252165Y-49518616D01*
X101252167Y-49518615D01*
X101443436Y-49439389D01*
X101646484Y-49399000D01*
X101853516Y-49399000D01*
X102056564Y-49439389D01*
X102056564Y-49439389D01*
G37*
G36*
X121956564Y-49439389D02*
G01*
X122147833Y-49518615D01*
X122147835Y-49518616D01*
X122319973Y-49633635D01*
X122466365Y-49780027D01*
X122581385Y-49952167D01*
X122660611Y-50143436D01*
X122701000Y-50346484D01*
X122701000Y-50553516D01*
X122660611Y-50756564D01*
X122581385Y-50947833D01*
X122581384Y-50947835D01*
X122466365Y-51119973D01*
X122319973Y-51266365D01*
X122147835Y-51381384D01*
X122147834Y-51381385D01*
X122147833Y-51381385D01*
X121956564Y-51460611D01*
X121753516Y-51501000D01*
X121546484Y-51501000D01*
X121343436Y-51460611D01*
X121152167Y-51381385D01*
X121152166Y-51381385D01*
X121152165Y-51381384D01*
X120980027Y-51266365D01*
X120833635Y-51119973D01*
X120718616Y-50947835D01*
X120718615Y-50947833D01*
X120639389Y-50756564D01*
X120599000Y-50553516D01*
X120599000Y-50346484D01*
X120639389Y-50143436D01*
X120718615Y-49952167D01*
X120833635Y-49780027D01*
X120980027Y-49633635D01*
X121152165Y-49518616D01*
X121152167Y-49518615D01*
X121343436Y-49439389D01*
X121546484Y-49399000D01*
X121753516Y-49399000D01*
X121956564Y-49439389D01*
X121956564Y-49439389D01*
G37*
G36*
X128456564Y-49439389D02*
G01*
X128647833Y-49518615D01*
X128647835Y-49518616D01*
X128819973Y-49633635D01*
X128966365Y-49780027D01*
X129081385Y-49952167D01*
X129160611Y-50143436D01*
X129201000Y-50346484D01*
X129201000Y-50553516D01*
X129160611Y-50756564D01*
X129081385Y-50947833D01*
X129081384Y-50947835D01*
X128966365Y-51119973D01*
X128819973Y-51266365D01*
X128647835Y-51381384D01*
X128647834Y-51381385D01*
X128647833Y-51381385D01*
X128456564Y-51460611D01*
X128253516Y-51501000D01*
X128046484Y-51501000D01*
X127843436Y-51460611D01*
X127652167Y-51381385D01*
X127652166Y-51381385D01*
X127652165Y-51381384D01*
X127480027Y-51266365D01*
X127333635Y-51119973D01*
X127218616Y-50947835D01*
X127218615Y-50947833D01*
X127139389Y-50756564D01*
X127099000Y-50553516D01*
X127099000Y-50346484D01*
X127139389Y-50143436D01*
X127218615Y-49952167D01*
X127333635Y-49780027D01*
X127480027Y-49633635D01*
X127652165Y-49518616D01*
X127652167Y-49518615D01*
X127843436Y-49439389D01*
X128046484Y-49399000D01*
X128253516Y-49399000D01*
X128456564Y-49439389D01*
X128456564Y-49439389D01*
G37*
G36*
X111956564Y-49439389D02*
G01*
X112147833Y-49518615D01*
X112147835Y-49518616D01*
X112319973Y-49633635D01*
X112466365Y-49780027D01*
X112581385Y-49952167D01*
X112660611Y-50143436D01*
X112701000Y-50346484D01*
X112701000Y-50553516D01*
X112660611Y-50756564D01*
X112581385Y-50947833D01*
X112581384Y-50947835D01*
X112466365Y-51119973D01*
X112319973Y-51266365D01*
X112147835Y-51381384D01*
X112147834Y-51381385D01*
X112147833Y-51381385D01*
X111956564Y-51460611D01*
X111753516Y-51501000D01*
X111546484Y-51501000D01*
X111343436Y-51460611D01*
X111152167Y-51381385D01*
X111152166Y-51381385D01*
X111152165Y-51381384D01*
X110980027Y-51266365D01*
X110833635Y-51119973D01*
X110718616Y-50947835D01*
X110718615Y-50947833D01*
X110639389Y-50756564D01*
X110599000Y-50553516D01*
X110599000Y-50346484D01*
X110639389Y-50143436D01*
X110718615Y-49952167D01*
X110833635Y-49780027D01*
X110980027Y-49633635D01*
X111152165Y-49518616D01*
X111152167Y-49518615D01*
X111343436Y-49439389D01*
X111546484Y-49399000D01*
X111753516Y-49399000D01*
X111956564Y-49439389D01*
X111956564Y-49439389D01*
G37*
G36*
X118456564Y-49439389D02*
G01*
X118647833Y-49518615D01*
X118647835Y-49518616D01*
X118819973Y-49633635D01*
X118966365Y-49780027D01*
X119081385Y-49952167D01*
X119160611Y-50143436D01*
X119201000Y-50346484D01*
X119201000Y-50553516D01*
X119160611Y-50756564D01*
X119081385Y-50947833D01*
X119081384Y-50947835D01*
X118966365Y-51119973D01*
X118819973Y-51266365D01*
X118647835Y-51381384D01*
X118647834Y-51381385D01*
X118647833Y-51381385D01*
X118456564Y-51460611D01*
X118253516Y-51501000D01*
X118046484Y-51501000D01*
X117843436Y-51460611D01*
X117652167Y-51381385D01*
X117652166Y-51381385D01*
X117652165Y-51381384D01*
X117480027Y-51266365D01*
X117333635Y-51119973D01*
X117218616Y-50947835D01*
X117218615Y-50947833D01*
X117139389Y-50756564D01*
X117099000Y-50553516D01*
X117099000Y-50346484D01*
X117139389Y-50143436D01*
X117218615Y-49952167D01*
X117333635Y-49780027D01*
X117480027Y-49633635D01*
X117652165Y-49518616D01*
X117652167Y-49518615D01*
X117843436Y-49439389D01*
X118046484Y-49399000D01*
X118253516Y-49399000D01*
X118456564Y-49439389D01*
X118456564Y-49439389D01*
G37*
G36*
X92156564Y-49439389D02*
G01*
X92347833Y-49518615D01*
X92347835Y-49518616D01*
X92519973Y-49633635D01*
X92666365Y-49780027D01*
X92781385Y-49952167D01*
X92860611Y-50143436D01*
X92901000Y-50346484D01*
X92901000Y-50553516D01*
X92860611Y-50756564D01*
X92781385Y-50947833D01*
X92781384Y-50947835D01*
X92666365Y-51119973D01*
X92519973Y-51266365D01*
X92347835Y-51381384D01*
X92347834Y-51381385D01*
X92347833Y-51381385D01*
X92156564Y-51460611D01*
X91953516Y-51501000D01*
X91746484Y-51501000D01*
X91543436Y-51460611D01*
X91352167Y-51381385D01*
X91352166Y-51381385D01*
X91352165Y-51381384D01*
X91180027Y-51266365D01*
X91033635Y-51119973D01*
X90918616Y-50947835D01*
X90918615Y-50947833D01*
X90839389Y-50756564D01*
X90799000Y-50553516D01*
X90799000Y-50346484D01*
X90839389Y-50143436D01*
X90918615Y-49952167D01*
X91033635Y-49780027D01*
X91180027Y-49633635D01*
X91352165Y-49518616D01*
X91352167Y-49518615D01*
X91543436Y-49439389D01*
X91746484Y-49399000D01*
X91953516Y-49399000D01*
X92156564Y-49439389D01*
X92156564Y-49439389D01*
G37*
G36*
X98656564Y-49439389D02*
G01*
X98847833Y-49518615D01*
X98847835Y-49518616D01*
X99019973Y-49633635D01*
X99166365Y-49780027D01*
X99281385Y-49952167D01*
X99360611Y-50143436D01*
X99401000Y-50346484D01*
X99401000Y-50553516D01*
X99360611Y-50756564D01*
X99281385Y-50947833D01*
X99281384Y-50947835D01*
X99166365Y-51119973D01*
X99019973Y-51266365D01*
X98847835Y-51381384D01*
X98847834Y-51381385D01*
X98847833Y-51381385D01*
X98656564Y-51460611D01*
X98453516Y-51501000D01*
X98246484Y-51501000D01*
X98043436Y-51460611D01*
X97852167Y-51381385D01*
X97852166Y-51381385D01*
X97852165Y-51381384D01*
X97680027Y-51266365D01*
X97533635Y-51119973D01*
X97418616Y-50947835D01*
X97418615Y-50947833D01*
X97339389Y-50756564D01*
X97299000Y-50553516D01*
X97299000Y-50346484D01*
X97339389Y-50143436D01*
X97418615Y-49952167D01*
X97533635Y-49780027D01*
X97680027Y-49633635D01*
X97852165Y-49518616D01*
X97852167Y-49518615D01*
X98043436Y-49439389D01*
X98246484Y-49399000D01*
X98453516Y-49399000D01*
X98656564Y-49439389D01*
X98656564Y-49439389D01*
G37*
G36*
X139606564Y-47039389D02*
G01*
X139797833Y-47118615D01*
X139797835Y-47118616D01*
X139969973Y-47233635D01*
X140116365Y-47380027D01*
X140231385Y-47552167D01*
X140310611Y-47743436D01*
X140351000Y-47946484D01*
X140351000Y-48153516D01*
X140310611Y-48356564D01*
X140231385Y-48547833D01*
X140231384Y-48547835D01*
X140116365Y-48719973D01*
X139969973Y-48866365D01*
X139797835Y-48981384D01*
X139797834Y-48981385D01*
X139797833Y-48981385D01*
X139606564Y-49060611D01*
X139403516Y-49101000D01*
X139196484Y-49101000D01*
X138993436Y-49060611D01*
X138802167Y-48981385D01*
X138802166Y-48981385D01*
X138802165Y-48981384D01*
X138630027Y-48866365D01*
X138483635Y-48719973D01*
X138368616Y-48547835D01*
X138368615Y-48547833D01*
X138289389Y-48356564D01*
X138249000Y-48153516D01*
X138249000Y-47946484D01*
X138289389Y-47743436D01*
X138368615Y-47552167D01*
X138483635Y-47380027D01*
X138630027Y-47233635D01*
X138802165Y-47118616D01*
X138802167Y-47118615D01*
X138993436Y-47039389D01*
X139196484Y-46999000D01*
X139403516Y-46999000D01*
X139606564Y-47039389D01*
X139606564Y-47039389D01*
G37*
G36*
X102056564Y-44939389D02*
G01*
X102221047Y-45007520D01*
X102247835Y-45018616D01*
X102419973Y-45133635D01*
X102566365Y-45280027D01*
X102611672Y-45347833D01*
X102681385Y-45452167D01*
X102760611Y-45643436D01*
X102801000Y-45846484D01*
X102801000Y-46053516D01*
X102760611Y-46256564D01*
X102700784Y-46401000D01*
X102681384Y-46447835D01*
X102566365Y-46619973D01*
X102419973Y-46766365D01*
X102247835Y-46881384D01*
X102247834Y-46881385D01*
X102247833Y-46881385D01*
X102056564Y-46960611D01*
X101853516Y-47001000D01*
X101646484Y-47001000D01*
X101443436Y-46960611D01*
X101252167Y-46881385D01*
X101252166Y-46881385D01*
X101252165Y-46881384D01*
X101080027Y-46766365D01*
X100933635Y-46619973D01*
X100818616Y-46447835D01*
X100799216Y-46401000D01*
X100739389Y-46256564D01*
X100699000Y-46053516D01*
X100699000Y-45846484D01*
X100739389Y-45643436D01*
X100818615Y-45452167D01*
X100888329Y-45347833D01*
X100933635Y-45280027D01*
X101080027Y-45133635D01*
X101252165Y-45018616D01*
X101278953Y-45007520D01*
X101443436Y-44939389D01*
X101646484Y-44899000D01*
X101853516Y-44899000D01*
X102056564Y-44939389D01*
X102056564Y-44939389D01*
G37*
G36*
X92156564Y-44939389D02*
G01*
X92321047Y-45007520D01*
X92347835Y-45018616D01*
X92519973Y-45133635D01*
X92666365Y-45280027D01*
X92711672Y-45347833D01*
X92781385Y-45452167D01*
X92860611Y-45643436D01*
X92901000Y-45846484D01*
X92901000Y-46053516D01*
X92860611Y-46256564D01*
X92800784Y-46401000D01*
X92781384Y-46447835D01*
X92666365Y-46619973D01*
X92519973Y-46766365D01*
X92347835Y-46881384D01*
X92347834Y-46881385D01*
X92347833Y-46881385D01*
X92156564Y-46960611D01*
X91953516Y-47001000D01*
X91746484Y-47001000D01*
X91543436Y-46960611D01*
X91352167Y-46881385D01*
X91352166Y-46881385D01*
X91352165Y-46881384D01*
X91180027Y-46766365D01*
X91033635Y-46619973D01*
X90918616Y-46447835D01*
X90899216Y-46401000D01*
X90839389Y-46256564D01*
X90799000Y-46053516D01*
X90799000Y-45846484D01*
X90839389Y-45643436D01*
X90918615Y-45452167D01*
X90988329Y-45347833D01*
X91033635Y-45280027D01*
X91180027Y-45133635D01*
X91352165Y-45018616D01*
X91378953Y-45007520D01*
X91543436Y-44939389D01*
X91746484Y-44899000D01*
X91953516Y-44899000D01*
X92156564Y-44939389D01*
X92156564Y-44939389D01*
G37*
G36*
X108556564Y-44939389D02*
G01*
X108721047Y-45007520D01*
X108747835Y-45018616D01*
X108919973Y-45133635D01*
X109066365Y-45280027D01*
X109111672Y-45347833D01*
X109181385Y-45452167D01*
X109260611Y-45643436D01*
X109301000Y-45846484D01*
X109301000Y-46053516D01*
X109260611Y-46256564D01*
X109200784Y-46401000D01*
X109181384Y-46447835D01*
X109066365Y-46619973D01*
X108919973Y-46766365D01*
X108747835Y-46881384D01*
X108747834Y-46881385D01*
X108747833Y-46881385D01*
X108556564Y-46960611D01*
X108353516Y-47001000D01*
X108146484Y-47001000D01*
X107943436Y-46960611D01*
X107752167Y-46881385D01*
X107752166Y-46881385D01*
X107752165Y-46881384D01*
X107580027Y-46766365D01*
X107433635Y-46619973D01*
X107318616Y-46447835D01*
X107299216Y-46401000D01*
X107239389Y-46256564D01*
X107199000Y-46053516D01*
X107199000Y-45846484D01*
X107239389Y-45643436D01*
X107318615Y-45452167D01*
X107388329Y-45347833D01*
X107433635Y-45280027D01*
X107580027Y-45133635D01*
X107752165Y-45018616D01*
X107778953Y-45007520D01*
X107943436Y-44939389D01*
X108146484Y-44899000D01*
X108353516Y-44899000D01*
X108556564Y-44939389D01*
X108556564Y-44939389D01*
G37*
G36*
X98656564Y-44939389D02*
G01*
X98821047Y-45007520D01*
X98847835Y-45018616D01*
X99019973Y-45133635D01*
X99166365Y-45280027D01*
X99211672Y-45347833D01*
X99281385Y-45452167D01*
X99360611Y-45643436D01*
X99401000Y-45846484D01*
X99401000Y-46053516D01*
X99360611Y-46256564D01*
X99300784Y-46401000D01*
X99281384Y-46447835D01*
X99166365Y-46619973D01*
X99019973Y-46766365D01*
X98847835Y-46881384D01*
X98847834Y-46881385D01*
X98847833Y-46881385D01*
X98656564Y-46960611D01*
X98453516Y-47001000D01*
X98246484Y-47001000D01*
X98043436Y-46960611D01*
X97852167Y-46881385D01*
X97852166Y-46881385D01*
X97852165Y-46881384D01*
X97680027Y-46766365D01*
X97533635Y-46619973D01*
X97418616Y-46447835D01*
X97399216Y-46401000D01*
X97339389Y-46256564D01*
X97299000Y-46053516D01*
X97299000Y-45846484D01*
X97339389Y-45643436D01*
X97418615Y-45452167D01*
X97488329Y-45347833D01*
X97533635Y-45280027D01*
X97680027Y-45133635D01*
X97852165Y-45018616D01*
X97878953Y-45007520D01*
X98043436Y-44939389D01*
X98246484Y-44899000D01*
X98453516Y-44899000D01*
X98656564Y-44939389D01*
X98656564Y-44939389D01*
G37*
G36*
X111956564Y-44939389D02*
G01*
X112121047Y-45007520D01*
X112147835Y-45018616D01*
X112319973Y-45133635D01*
X112466365Y-45280027D01*
X112511672Y-45347833D01*
X112581385Y-45452167D01*
X112660611Y-45643436D01*
X112701000Y-45846484D01*
X112701000Y-46053516D01*
X112660611Y-46256564D01*
X112600784Y-46401000D01*
X112581384Y-46447835D01*
X112466365Y-46619973D01*
X112319973Y-46766365D01*
X112147835Y-46881384D01*
X112147834Y-46881385D01*
X112147833Y-46881385D01*
X111956564Y-46960611D01*
X111753516Y-47001000D01*
X111546484Y-47001000D01*
X111343436Y-46960611D01*
X111152167Y-46881385D01*
X111152166Y-46881385D01*
X111152165Y-46881384D01*
X110980027Y-46766365D01*
X110833635Y-46619973D01*
X110718616Y-46447835D01*
X110699216Y-46401000D01*
X110639389Y-46256564D01*
X110599000Y-46053516D01*
X110599000Y-45846484D01*
X110639389Y-45643436D01*
X110718615Y-45452167D01*
X110788329Y-45347833D01*
X110833635Y-45280027D01*
X110980027Y-45133635D01*
X111152165Y-45018616D01*
X111178953Y-45007520D01*
X111343436Y-44939389D01*
X111546484Y-44899000D01*
X111753516Y-44899000D01*
X111956564Y-44939389D01*
X111956564Y-44939389D01*
G37*
G36*
X118456564Y-44939389D02*
G01*
X118621047Y-45007520D01*
X118647835Y-45018616D01*
X118819973Y-45133635D01*
X118966365Y-45280027D01*
X119011672Y-45347833D01*
X119081385Y-45452167D01*
X119160611Y-45643436D01*
X119201000Y-45846484D01*
X119201000Y-46053516D01*
X119160611Y-46256564D01*
X119100784Y-46401000D01*
X119081384Y-46447835D01*
X118966365Y-46619973D01*
X118819973Y-46766365D01*
X118647835Y-46881384D01*
X118647834Y-46881385D01*
X118647833Y-46881385D01*
X118456564Y-46960611D01*
X118253516Y-47001000D01*
X118046484Y-47001000D01*
X117843436Y-46960611D01*
X117652167Y-46881385D01*
X117652166Y-46881385D01*
X117652165Y-46881384D01*
X117480027Y-46766365D01*
X117333635Y-46619973D01*
X117218616Y-46447835D01*
X117199216Y-46401000D01*
X117139389Y-46256564D01*
X117099000Y-46053516D01*
X117099000Y-45846484D01*
X117139389Y-45643436D01*
X117218615Y-45452167D01*
X117288329Y-45347833D01*
X117333635Y-45280027D01*
X117480027Y-45133635D01*
X117652165Y-45018616D01*
X117678953Y-45007520D01*
X117843436Y-44939389D01*
X118046484Y-44899000D01*
X118253516Y-44899000D01*
X118456564Y-44939389D01*
X118456564Y-44939389D01*
G37*
G36*
X121956564Y-44939389D02*
G01*
X122121047Y-45007520D01*
X122147835Y-45018616D01*
X122319973Y-45133635D01*
X122466365Y-45280027D01*
X122511672Y-45347833D01*
X122581385Y-45452167D01*
X122660611Y-45643436D01*
X122701000Y-45846484D01*
X122701000Y-46053516D01*
X122660611Y-46256564D01*
X122600784Y-46401000D01*
X122581384Y-46447835D01*
X122466365Y-46619973D01*
X122319973Y-46766365D01*
X122147835Y-46881384D01*
X122147834Y-46881385D01*
X122147833Y-46881385D01*
X121956564Y-46960611D01*
X121753516Y-47001000D01*
X121546484Y-47001000D01*
X121343436Y-46960611D01*
X121152167Y-46881385D01*
X121152166Y-46881385D01*
X121152165Y-46881384D01*
X120980027Y-46766365D01*
X120833635Y-46619973D01*
X120718616Y-46447835D01*
X120699216Y-46401000D01*
X120639389Y-46256564D01*
X120599000Y-46053516D01*
X120599000Y-45846484D01*
X120639389Y-45643436D01*
X120718615Y-45452167D01*
X120788329Y-45347833D01*
X120833635Y-45280027D01*
X120980027Y-45133635D01*
X121152165Y-45018616D01*
X121178953Y-45007520D01*
X121343436Y-44939389D01*
X121546484Y-44899000D01*
X121753516Y-44899000D01*
X121956564Y-44939389D01*
X121956564Y-44939389D01*
G37*
G36*
X128456564Y-44939389D02*
G01*
X128621047Y-45007520D01*
X128647835Y-45018616D01*
X128819973Y-45133635D01*
X128966365Y-45280027D01*
X129011672Y-45347833D01*
X129081385Y-45452167D01*
X129160611Y-45643436D01*
X129201000Y-45846484D01*
X129201000Y-46053516D01*
X129160611Y-46256564D01*
X129100784Y-46401000D01*
X129081384Y-46447835D01*
X128966365Y-46619973D01*
X128819973Y-46766365D01*
X128647835Y-46881384D01*
X128647834Y-46881385D01*
X128647833Y-46881385D01*
X128456564Y-46960611D01*
X128253516Y-47001000D01*
X128046484Y-47001000D01*
X127843436Y-46960611D01*
X127652167Y-46881385D01*
X127652166Y-46881385D01*
X127652165Y-46881384D01*
X127480027Y-46766365D01*
X127333635Y-46619973D01*
X127218616Y-46447835D01*
X127199216Y-46401000D01*
X127139389Y-46256564D01*
X127099000Y-46053516D01*
X127099000Y-45846484D01*
X127139389Y-45643436D01*
X127218615Y-45452167D01*
X127288329Y-45347833D01*
X127333635Y-45280027D01*
X127480027Y-45133635D01*
X127652165Y-45018616D01*
X127678953Y-45007520D01*
X127843436Y-44939389D01*
X128046484Y-44899000D01*
X128253516Y-44899000D01*
X128456564Y-44939389D01*
X128456564Y-44939389D01*
G37*
G36*
X136748228Y-44731703D02*
G01*
X136903100Y-44795853D01*
X137042481Y-44888985D01*
X137161015Y-45007519D01*
X137254147Y-45146900D01*
X137318297Y-45301772D01*
X137351000Y-45466184D01*
X137351000Y-45633816D01*
X137318297Y-45798228D01*
X137254147Y-45953100D01*
X137161015Y-46092481D01*
X137042481Y-46211015D01*
X136903100Y-46304147D01*
X136748228Y-46368297D01*
X136583816Y-46401000D01*
X136416184Y-46401000D01*
X136251772Y-46368297D01*
X136096900Y-46304147D01*
X135957519Y-46211015D01*
X135838985Y-46092481D01*
X135745853Y-45953100D01*
X135681703Y-45798228D01*
X135649000Y-45633816D01*
X135649000Y-45466184D01*
X135681703Y-45301772D01*
X135745853Y-45146900D01*
X135838985Y-45007519D01*
X135957519Y-44888985D01*
X136096900Y-44795853D01*
X136251772Y-44731703D01*
X136416184Y-44699000D01*
X136583816Y-44699000D01*
X136748228Y-44731703D01*
X136748228Y-44731703D01*
G37*
G36*
X139606564Y-43839389D02*
G01*
X139797833Y-43918615D01*
X139797835Y-43918616D01*
X139969973Y-44033635D01*
X140116365Y-44180027D01*
X140231385Y-44352167D01*
X140310611Y-44543436D01*
X140351000Y-44746484D01*
X140351000Y-44953516D01*
X140310611Y-45156564D01*
X140259471Y-45280027D01*
X140231384Y-45347835D01*
X140116365Y-45519973D01*
X139969973Y-45666365D01*
X139797835Y-45781384D01*
X139797834Y-45781385D01*
X139797833Y-45781385D01*
X139606564Y-45860611D01*
X139403516Y-45901000D01*
X139196484Y-45901000D01*
X138993436Y-45860611D01*
X138802167Y-45781385D01*
X138802166Y-45781385D01*
X138802165Y-45781384D01*
X138630027Y-45666365D01*
X138483635Y-45519973D01*
X138368616Y-45347835D01*
X138340529Y-45280027D01*
X138289389Y-45156564D01*
X138249000Y-44953516D01*
X138249000Y-44746484D01*
X138289389Y-44543436D01*
X138368615Y-44352167D01*
X138483635Y-44180027D01*
X138630027Y-44033635D01*
X138802165Y-43918616D01*
X138802167Y-43918615D01*
X138993436Y-43839389D01*
X139196484Y-43799000D01*
X139403516Y-43799000D01*
X139606564Y-43839389D01*
X139606564Y-43839389D01*
G37*
G36*
X134006564Y-43839389D02*
G01*
X134197833Y-43918615D01*
X134197835Y-43918616D01*
X134369973Y-44033635D01*
X134516365Y-44180027D01*
X134631385Y-44352167D01*
X134710611Y-44543436D01*
X134751000Y-44746484D01*
X134751000Y-44953516D01*
X134710611Y-45156564D01*
X134659471Y-45280027D01*
X134631384Y-45347835D01*
X134516365Y-45519973D01*
X134369973Y-45666365D01*
X134197835Y-45781384D01*
X134197834Y-45781385D01*
X134197833Y-45781385D01*
X134006564Y-45860611D01*
X133803516Y-45901000D01*
X133596484Y-45901000D01*
X133393436Y-45860611D01*
X133202167Y-45781385D01*
X133202166Y-45781385D01*
X133202165Y-45781384D01*
X133030027Y-45666365D01*
X132883635Y-45519973D01*
X132768616Y-45347835D01*
X132740529Y-45280027D01*
X132689389Y-45156564D01*
X132649000Y-44953516D01*
X132649000Y-44746484D01*
X132689389Y-44543436D01*
X132768615Y-44352167D01*
X132883635Y-44180027D01*
X133030027Y-44033635D01*
X133202165Y-43918616D01*
X133202167Y-43918615D01*
X133393436Y-43839389D01*
X133596484Y-43799000D01*
X133803516Y-43799000D01*
X134006564Y-43839389D01*
X134006564Y-43839389D01*
G37*
M02*
