G04 #@! TF.GenerationSoftware,KiCad,Pcbnew,5.1.4-e60b266~84~ubuntu18.04.1*
G04 #@! TF.CreationDate,2019-09-03T22:39:15+03:00*
G04 #@! TF.ProjectId,Dreamstalker-PRO-v1,44726561-6d73-4746-916c-6b65722d5052,v1.0*
G04 #@! TF.SameCoordinates,Original*
G04 #@! TF.FileFunction,Paste,Top*
G04 #@! TF.FilePolarity,Positive*
%FSLAX46Y46*%
G04 Gerber Fmt 4.6, Leading zero omitted, Abs format (unit mm)*
G04 Created by KiCad (PCBNEW 5.1.4-e60b266~84~ubuntu18.04.1) date 2019-09-03 22:39:15*
%MOMM*%
%LPD*%
G04 APERTURE LIST*
%ADD10C,1.500000*%
%ADD11C,0.100000*%
%ADD12C,1.300000*%
%ADD13C,0.700000*%
%ADD14C,0.875000*%
%ADD15C,0.975000*%
%ADD16R,0.600000X1.300000*%
G04 APERTURE END LIST*
D10*
X95500000Y-77350000D03*
D11*
G36*
X93195096Y-75799025D02*
G01*
X93195381Y-75798087D01*
X93195843Y-75797222D01*
X93196464Y-75796464D01*
X93197222Y-75795843D01*
X93198087Y-75795381D01*
X93199025Y-75795096D01*
X93200000Y-75795000D01*
X94600000Y-75795000D01*
X94600975Y-75795096D01*
X94601913Y-75795381D01*
X94602778Y-75795843D01*
X94603536Y-75796464D01*
X94604157Y-75797222D01*
X94604619Y-75798087D01*
X94604904Y-75799025D01*
X94605000Y-75800000D01*
X94605000Y-76600000D01*
X96395000Y-76600000D01*
X96395000Y-75800000D01*
X96395096Y-75799025D01*
X96395381Y-75798087D01*
X96395843Y-75797222D01*
X96396464Y-75796464D01*
X96397222Y-75795843D01*
X96398087Y-75795381D01*
X96399025Y-75795096D01*
X96400000Y-75795000D01*
X97800000Y-75795000D01*
X97800975Y-75795096D01*
X97801913Y-75795381D01*
X97802778Y-75795843D01*
X97803536Y-75796464D01*
X97804157Y-75797222D01*
X97804619Y-75798087D01*
X97804904Y-75799025D01*
X97805000Y-75800000D01*
X97805000Y-80300000D01*
X97804904Y-80300975D01*
X97804619Y-80301913D01*
X97804157Y-80302778D01*
X97803536Y-80303536D01*
X97802778Y-80304157D01*
X97801913Y-80304619D01*
X97800975Y-80304904D01*
X97800000Y-80305000D01*
X96400000Y-80305000D01*
X96399025Y-80304904D01*
X96398087Y-80304619D01*
X96397222Y-80304157D01*
X96396464Y-80303536D01*
X96395843Y-80302778D01*
X96395381Y-80301913D01*
X96395096Y-80300975D01*
X96395000Y-80300000D01*
X96395000Y-78100000D01*
X94605000Y-78100000D01*
X94605000Y-80300000D01*
X94604904Y-80300975D01*
X94604619Y-80301913D01*
X94604157Y-80302778D01*
X94603536Y-80303536D01*
X94602778Y-80304157D01*
X94601913Y-80304619D01*
X94600975Y-80304904D01*
X94600000Y-80305000D01*
X93200000Y-80305000D01*
X93199025Y-80304904D01*
X93198087Y-80304619D01*
X93197222Y-80304157D01*
X93196464Y-80303536D01*
X93195843Y-80302778D01*
X93195381Y-80301913D01*
X93195096Y-80300975D01*
X93195000Y-80300000D01*
X93195000Y-75800000D01*
X93195096Y-75799025D01*
X93195096Y-75799025D01*
G37*
G36*
X94274113Y-81650939D02*
G01*
X94293043Y-81653747D01*
X94311606Y-81658397D01*
X94329623Y-81664843D01*
X94346922Y-81673025D01*
X94363336Y-81682863D01*
X94378707Y-81694263D01*
X94392886Y-81707114D01*
X94405737Y-81721293D01*
X94417137Y-81736664D01*
X94426975Y-81753078D01*
X94435157Y-81770377D01*
X94441603Y-81788394D01*
X94446253Y-81806957D01*
X94449061Y-81825887D01*
X94450000Y-81845000D01*
X94450000Y-83255000D01*
X94449061Y-83274113D01*
X94446253Y-83293043D01*
X94441603Y-83311606D01*
X94435157Y-83329623D01*
X94426975Y-83346922D01*
X94417137Y-83363336D01*
X94405737Y-83378707D01*
X94392886Y-83392886D01*
X94378707Y-83405737D01*
X94363336Y-83417137D01*
X94346922Y-83426975D01*
X94329623Y-83435157D01*
X94311606Y-83441603D01*
X94293043Y-83446253D01*
X94274113Y-83449061D01*
X94255000Y-83450000D01*
X93345000Y-83450000D01*
X93325887Y-83449061D01*
X93306957Y-83446253D01*
X93288394Y-83441603D01*
X93270377Y-83435157D01*
X93253078Y-83426975D01*
X93236664Y-83417137D01*
X93221293Y-83405737D01*
X93207114Y-83392886D01*
X93194263Y-83378707D01*
X93182863Y-83363336D01*
X93173025Y-83346922D01*
X93164843Y-83329623D01*
X93158397Y-83311606D01*
X93153747Y-83293043D01*
X93150939Y-83274113D01*
X93150000Y-83255000D01*
X93150000Y-81845000D01*
X93150939Y-81825887D01*
X93153747Y-81806957D01*
X93158397Y-81788394D01*
X93164843Y-81770377D01*
X93173025Y-81753078D01*
X93182863Y-81736664D01*
X93194263Y-81721293D01*
X93207114Y-81707114D01*
X93221293Y-81694263D01*
X93236664Y-81682863D01*
X93253078Y-81673025D01*
X93270377Y-81664843D01*
X93288394Y-81658397D01*
X93306957Y-81653747D01*
X93325887Y-81650939D01*
X93345000Y-81650000D01*
X94255000Y-81650000D01*
X94274113Y-81650939D01*
X94274113Y-81650939D01*
G37*
D12*
X93800000Y-82550000D03*
D11*
G36*
X97674113Y-81650939D02*
G01*
X97693043Y-81653747D01*
X97711606Y-81658397D01*
X97729623Y-81664843D01*
X97746922Y-81673025D01*
X97763336Y-81682863D01*
X97778707Y-81694263D01*
X97792886Y-81707114D01*
X97805737Y-81721293D01*
X97817137Y-81736664D01*
X97826975Y-81753078D01*
X97835157Y-81770377D01*
X97841603Y-81788394D01*
X97846253Y-81806957D01*
X97849061Y-81825887D01*
X97850000Y-81845000D01*
X97850000Y-83255000D01*
X97849061Y-83274113D01*
X97846253Y-83293043D01*
X97841603Y-83311606D01*
X97835157Y-83329623D01*
X97826975Y-83346922D01*
X97817137Y-83363336D01*
X97805737Y-83378707D01*
X97792886Y-83392886D01*
X97778707Y-83405737D01*
X97763336Y-83417137D01*
X97746922Y-83426975D01*
X97729623Y-83435157D01*
X97711606Y-83441603D01*
X97693043Y-83446253D01*
X97674113Y-83449061D01*
X97655000Y-83450000D01*
X96745000Y-83450000D01*
X96725887Y-83449061D01*
X96706957Y-83446253D01*
X96688394Y-83441603D01*
X96670377Y-83435157D01*
X96653078Y-83426975D01*
X96636664Y-83417137D01*
X96621293Y-83405737D01*
X96607114Y-83392886D01*
X96594263Y-83378707D01*
X96582863Y-83363336D01*
X96573025Y-83346922D01*
X96564843Y-83329623D01*
X96558397Y-83311606D01*
X96553747Y-83293043D01*
X96550939Y-83274113D01*
X96550000Y-83255000D01*
X96550000Y-81845000D01*
X96550939Y-81825887D01*
X96553747Y-81806957D01*
X96558397Y-81788394D01*
X96564843Y-81770377D01*
X96573025Y-81753078D01*
X96582863Y-81736664D01*
X96594263Y-81721293D01*
X96607114Y-81707114D01*
X96621293Y-81694263D01*
X96636664Y-81682863D01*
X96653078Y-81673025D01*
X96670377Y-81664843D01*
X96688394Y-81658397D01*
X96706957Y-81653747D01*
X96725887Y-81650939D01*
X96745000Y-81650000D01*
X97655000Y-81650000D01*
X97674113Y-81650939D01*
X97674113Y-81650939D01*
G37*
D12*
X97200000Y-82550000D03*
D13*
X95200000Y-105470000D03*
D11*
G36*
X96104904Y-105950975D02*
G01*
X96104619Y-105951913D01*
X96104157Y-105952778D01*
X96103536Y-105953536D01*
X96102778Y-105954157D01*
X96101913Y-105954619D01*
X96100975Y-105954904D01*
X96100000Y-105955000D01*
X94300000Y-105955000D01*
X94299025Y-105954904D01*
X94298087Y-105954619D01*
X94297222Y-105954157D01*
X94296464Y-105953536D01*
X94295843Y-105952778D01*
X94295381Y-105951913D01*
X94295096Y-105950975D01*
X94295000Y-105950000D01*
X94295000Y-104770000D01*
X94295096Y-104769025D01*
X94295381Y-104768087D01*
X94295843Y-104767222D01*
X94296464Y-104766464D01*
X94297222Y-104765843D01*
X94298087Y-104765381D01*
X94299025Y-104765096D01*
X94300000Y-104765000D01*
X94300975Y-104765096D01*
X94301913Y-104765381D01*
X94302906Y-104765931D01*
X94372752Y-104815821D01*
X94422502Y-104845671D01*
X94492362Y-104885591D01*
X94552052Y-104915436D01*
X94601857Y-104935358D01*
X94601970Y-104935404D01*
X94671788Y-104965326D01*
X94761437Y-104995209D01*
X94871115Y-105025121D01*
X94980758Y-105045056D01*
X95060500Y-105055024D01*
X95190000Y-105064986D01*
X95319617Y-105055015D01*
X95429243Y-105045049D01*
X95568782Y-105015147D01*
X95708306Y-104975284D01*
X95867804Y-104905503D01*
X95977405Y-104845720D01*
X96097226Y-104765840D01*
X96098091Y-104765379D01*
X96099030Y-104765095D01*
X96100005Y-104765000D01*
X96100981Y-104765097D01*
X96101918Y-104765383D01*
X96102782Y-104765846D01*
X96103539Y-104766468D01*
X96104160Y-104767226D01*
X96104621Y-104768091D01*
X96104905Y-104769030D01*
X96105000Y-104770000D01*
X96105000Y-105950000D01*
X96104904Y-105950975D01*
X96104904Y-105950975D01*
G37*
D13*
X95200000Y-101830000D03*
D11*
G36*
X96104904Y-102530975D02*
G01*
X96104619Y-102531913D01*
X96104157Y-102532778D01*
X96103536Y-102533536D01*
X96102778Y-102534157D01*
X96101913Y-102534619D01*
X96100975Y-102534904D01*
X96100000Y-102535000D01*
X96099025Y-102534904D01*
X96098087Y-102534619D01*
X96097094Y-102534069D01*
X96027248Y-102484179D01*
X95977498Y-102454329D01*
X95907638Y-102414409D01*
X95847948Y-102384564D01*
X95798143Y-102364642D01*
X95798030Y-102364596D01*
X95728212Y-102334674D01*
X95638563Y-102304791D01*
X95528885Y-102274879D01*
X95419242Y-102254944D01*
X95339500Y-102244976D01*
X95210000Y-102235014D01*
X95080409Y-102244983D01*
X94970757Y-102254951D01*
X94831218Y-102284853D01*
X94691694Y-102324716D01*
X94532196Y-102394497D01*
X94422595Y-102454280D01*
X94302774Y-102534160D01*
X94301909Y-102534621D01*
X94300970Y-102534905D01*
X94299995Y-102535000D01*
X94299019Y-102534903D01*
X94298082Y-102534617D01*
X94297218Y-102534154D01*
X94296461Y-102533532D01*
X94295840Y-102532774D01*
X94295379Y-102531909D01*
X94295095Y-102530970D01*
X94295000Y-102530000D01*
X94295000Y-101350000D01*
X94295096Y-101349025D01*
X94295381Y-101348087D01*
X94295843Y-101347222D01*
X94296464Y-101346464D01*
X94297222Y-101345843D01*
X94298087Y-101345381D01*
X94299025Y-101345096D01*
X94300000Y-101345000D01*
X96100000Y-101345000D01*
X96100975Y-101345096D01*
X96101913Y-101345381D01*
X96102778Y-101345843D01*
X96103536Y-101346464D01*
X96104157Y-101347222D01*
X96104619Y-101348087D01*
X96104904Y-101349025D01*
X96105000Y-101350000D01*
X96105000Y-102530000D01*
X96104904Y-102530975D01*
X96104904Y-102530975D01*
G37*
D13*
X93380000Y-110350000D03*
D11*
G36*
X92899025Y-111254904D02*
G01*
X92898087Y-111254619D01*
X92897222Y-111254157D01*
X92896464Y-111253536D01*
X92895843Y-111252778D01*
X92895381Y-111251913D01*
X92895096Y-111250975D01*
X92895000Y-111250000D01*
X92895000Y-109450000D01*
X92895096Y-109449025D01*
X92895381Y-109448087D01*
X92895843Y-109447222D01*
X92896464Y-109446464D01*
X92897222Y-109445843D01*
X92898087Y-109445381D01*
X92899025Y-109445096D01*
X92900000Y-109445000D01*
X94080000Y-109445000D01*
X94080975Y-109445096D01*
X94081913Y-109445381D01*
X94082778Y-109445843D01*
X94083536Y-109446464D01*
X94084157Y-109447222D01*
X94084619Y-109448087D01*
X94084904Y-109449025D01*
X94085000Y-109450000D01*
X94084904Y-109450975D01*
X94084619Y-109451913D01*
X94084069Y-109452906D01*
X94034179Y-109522752D01*
X94004329Y-109572502D01*
X93964409Y-109642362D01*
X93934564Y-109702052D01*
X93914642Y-109751857D01*
X93914596Y-109751970D01*
X93884674Y-109821788D01*
X93854791Y-109911437D01*
X93824879Y-110021115D01*
X93804944Y-110130758D01*
X93794976Y-110210500D01*
X93785014Y-110340000D01*
X93794985Y-110469617D01*
X93804951Y-110579243D01*
X93834853Y-110718782D01*
X93874716Y-110858306D01*
X93944497Y-111017804D01*
X94004280Y-111127405D01*
X94084160Y-111247226D01*
X94084621Y-111248091D01*
X94084905Y-111249030D01*
X94085000Y-111250005D01*
X94084903Y-111250981D01*
X94084617Y-111251918D01*
X94084154Y-111252782D01*
X94083532Y-111253539D01*
X94082774Y-111254160D01*
X94081909Y-111254621D01*
X94080970Y-111254905D01*
X94080000Y-111255000D01*
X92900000Y-111255000D01*
X92899025Y-111254904D01*
X92899025Y-111254904D01*
G37*
D13*
X97020000Y-110350000D03*
D11*
G36*
X96319025Y-111254904D02*
G01*
X96318087Y-111254619D01*
X96317222Y-111254157D01*
X96316464Y-111253536D01*
X96315843Y-111252778D01*
X96315381Y-111251913D01*
X96315096Y-111250975D01*
X96315000Y-111250000D01*
X96315096Y-111249025D01*
X96315381Y-111248087D01*
X96315931Y-111247094D01*
X96365821Y-111177248D01*
X96395671Y-111127498D01*
X96435591Y-111057638D01*
X96465436Y-110997948D01*
X96485358Y-110948143D01*
X96485404Y-110948030D01*
X96515326Y-110878212D01*
X96545209Y-110788563D01*
X96575121Y-110678885D01*
X96595056Y-110569242D01*
X96605024Y-110489500D01*
X96614986Y-110360000D01*
X96605017Y-110230409D01*
X96595049Y-110120757D01*
X96565147Y-109981218D01*
X96525284Y-109841694D01*
X96455503Y-109682196D01*
X96395720Y-109572595D01*
X96315840Y-109452774D01*
X96315379Y-109451909D01*
X96315095Y-109450970D01*
X96315000Y-109449995D01*
X96315097Y-109449019D01*
X96315383Y-109448082D01*
X96315846Y-109447218D01*
X96316468Y-109446461D01*
X96317226Y-109445840D01*
X96318091Y-109445379D01*
X96319030Y-109445095D01*
X96320000Y-109445000D01*
X97500000Y-109445000D01*
X97500975Y-109445096D01*
X97501913Y-109445381D01*
X97502778Y-109445843D01*
X97503536Y-109446464D01*
X97504157Y-109447222D01*
X97504619Y-109448087D01*
X97504904Y-109449025D01*
X97505000Y-109450000D01*
X97505000Y-111250000D01*
X97504904Y-111250975D01*
X97504619Y-111251913D01*
X97504157Y-111252778D01*
X97503536Y-111253536D01*
X97502778Y-111254157D01*
X97501913Y-111254619D01*
X97500975Y-111254904D01*
X97500000Y-111255000D01*
X96320000Y-111255000D01*
X96319025Y-111254904D01*
X96319025Y-111254904D01*
G37*
D13*
X95200000Y-118870000D03*
D11*
G36*
X94295096Y-118169025D02*
G01*
X94295381Y-118168087D01*
X94295843Y-118167222D01*
X94296464Y-118166464D01*
X94297222Y-118165843D01*
X94298087Y-118165381D01*
X94299025Y-118165096D01*
X94300000Y-118165000D01*
X94300975Y-118165096D01*
X94301913Y-118165381D01*
X94302906Y-118165931D01*
X94372752Y-118215821D01*
X94422502Y-118245671D01*
X94492362Y-118285591D01*
X94552052Y-118315436D01*
X94601857Y-118335358D01*
X94601970Y-118335404D01*
X94671788Y-118365326D01*
X94761437Y-118395209D01*
X94871115Y-118425121D01*
X94980758Y-118445056D01*
X95060500Y-118455024D01*
X95190000Y-118464986D01*
X95319591Y-118455017D01*
X95429243Y-118445049D01*
X95568782Y-118415147D01*
X95708306Y-118375284D01*
X95867804Y-118305503D01*
X95977405Y-118245720D01*
X96097226Y-118165840D01*
X96098091Y-118165379D01*
X96099030Y-118165095D01*
X96100005Y-118165000D01*
X96100981Y-118165097D01*
X96101918Y-118165383D01*
X96102782Y-118165846D01*
X96103539Y-118166468D01*
X96104160Y-118167226D01*
X96104621Y-118168091D01*
X96104905Y-118169030D01*
X96105000Y-118170000D01*
X96105000Y-119350000D01*
X96104904Y-119350975D01*
X96104619Y-119351913D01*
X96104157Y-119352778D01*
X96103536Y-119353536D01*
X96102778Y-119354157D01*
X96101913Y-119354619D01*
X96100975Y-119354904D01*
X96100000Y-119355000D01*
X94300000Y-119355000D01*
X94299025Y-119354904D01*
X94298087Y-119354619D01*
X94297222Y-119354157D01*
X94296464Y-119353536D01*
X94295843Y-119352778D01*
X94295381Y-119351913D01*
X94295096Y-119350975D01*
X94295000Y-119350000D01*
X94295000Y-118170000D01*
X94295096Y-118169025D01*
X94295096Y-118169025D01*
G37*
D13*
X95200000Y-115230000D03*
D11*
G36*
X94295096Y-114749025D02*
G01*
X94295381Y-114748087D01*
X94295843Y-114747222D01*
X94296464Y-114746464D01*
X94297222Y-114745843D01*
X94298087Y-114745381D01*
X94299025Y-114745096D01*
X94300000Y-114745000D01*
X96100000Y-114745000D01*
X96100975Y-114745096D01*
X96101913Y-114745381D01*
X96102778Y-114745843D01*
X96103536Y-114746464D01*
X96104157Y-114747222D01*
X96104619Y-114748087D01*
X96104904Y-114749025D01*
X96105000Y-114750000D01*
X96105000Y-115930000D01*
X96104904Y-115930975D01*
X96104619Y-115931913D01*
X96104157Y-115932778D01*
X96103536Y-115933536D01*
X96102778Y-115934157D01*
X96101913Y-115934619D01*
X96100975Y-115934904D01*
X96100000Y-115935000D01*
X96099025Y-115934904D01*
X96098087Y-115934619D01*
X96097094Y-115934069D01*
X96027248Y-115884179D01*
X95977498Y-115854329D01*
X95907638Y-115814409D01*
X95847948Y-115784564D01*
X95798143Y-115764642D01*
X95798030Y-115764596D01*
X95728212Y-115734674D01*
X95638563Y-115704791D01*
X95528885Y-115674879D01*
X95419242Y-115654944D01*
X95339500Y-115644976D01*
X95210000Y-115635014D01*
X95080383Y-115644985D01*
X94970757Y-115654951D01*
X94831218Y-115684853D01*
X94691694Y-115724716D01*
X94532196Y-115794497D01*
X94422595Y-115854280D01*
X94302774Y-115934160D01*
X94301909Y-115934621D01*
X94300970Y-115934905D01*
X94299995Y-115935000D01*
X94299019Y-115934903D01*
X94298082Y-115934617D01*
X94297218Y-115934154D01*
X94296461Y-115933532D01*
X94295840Y-115932774D01*
X94295379Y-115931909D01*
X94295095Y-115930970D01*
X94295000Y-115930000D01*
X94295000Y-114750000D01*
X94295096Y-114749025D01*
X94295096Y-114749025D01*
G37*
D13*
X164570000Y-110350000D03*
D11*
G36*
X165050975Y-109445096D02*
G01*
X165051913Y-109445381D01*
X165052778Y-109445843D01*
X165053536Y-109446464D01*
X165054157Y-109447222D01*
X165054619Y-109448087D01*
X165054904Y-109449025D01*
X165055000Y-109450000D01*
X165055000Y-111250000D01*
X165054904Y-111250975D01*
X165054619Y-111251913D01*
X165054157Y-111252778D01*
X165053536Y-111253536D01*
X165052778Y-111254157D01*
X165051913Y-111254619D01*
X165050975Y-111254904D01*
X165050000Y-111255000D01*
X163870000Y-111255000D01*
X163869025Y-111254904D01*
X163868087Y-111254619D01*
X163867222Y-111254157D01*
X163866464Y-111253536D01*
X163865843Y-111252778D01*
X163865381Y-111251913D01*
X163865096Y-111250975D01*
X163865000Y-111250000D01*
X163865096Y-111249025D01*
X163865381Y-111248087D01*
X163865931Y-111247094D01*
X163915821Y-111177248D01*
X163945671Y-111127498D01*
X163985591Y-111057638D01*
X164015436Y-110997948D01*
X164035358Y-110948143D01*
X164035404Y-110948030D01*
X164065326Y-110878212D01*
X164095209Y-110788563D01*
X164125121Y-110678885D01*
X164145056Y-110569242D01*
X164155024Y-110489500D01*
X164164986Y-110360000D01*
X164155015Y-110230383D01*
X164145049Y-110120757D01*
X164115147Y-109981218D01*
X164075284Y-109841694D01*
X164005503Y-109682196D01*
X163945720Y-109572595D01*
X163865840Y-109452774D01*
X163865379Y-109451909D01*
X163865095Y-109450970D01*
X163865000Y-109449995D01*
X163865097Y-109449019D01*
X163865383Y-109448082D01*
X163865846Y-109447218D01*
X163866468Y-109446461D01*
X163867226Y-109445840D01*
X163868091Y-109445379D01*
X163869030Y-109445095D01*
X163870000Y-109445000D01*
X165050000Y-109445000D01*
X165050975Y-109445096D01*
X165050975Y-109445096D01*
G37*
D13*
X160930000Y-110350000D03*
D11*
G36*
X161630975Y-109445096D02*
G01*
X161631913Y-109445381D01*
X161632778Y-109445843D01*
X161633536Y-109446464D01*
X161634157Y-109447222D01*
X161634619Y-109448087D01*
X161634904Y-109449025D01*
X161635000Y-109450000D01*
X161634904Y-109450975D01*
X161634619Y-109451913D01*
X161634069Y-109452906D01*
X161584179Y-109522752D01*
X161554329Y-109572502D01*
X161514409Y-109642362D01*
X161484564Y-109702052D01*
X161464642Y-109751857D01*
X161464596Y-109751970D01*
X161434674Y-109821788D01*
X161404791Y-109911437D01*
X161374879Y-110021115D01*
X161354944Y-110130758D01*
X161344976Y-110210500D01*
X161335014Y-110340000D01*
X161344983Y-110469591D01*
X161354951Y-110579243D01*
X161384853Y-110718782D01*
X161424716Y-110858306D01*
X161494497Y-111017804D01*
X161554280Y-111127405D01*
X161634160Y-111247226D01*
X161634621Y-111248091D01*
X161634905Y-111249030D01*
X161635000Y-111250005D01*
X161634903Y-111250981D01*
X161634617Y-111251918D01*
X161634154Y-111252782D01*
X161633532Y-111253539D01*
X161632774Y-111254160D01*
X161631909Y-111254621D01*
X161630970Y-111254905D01*
X161630000Y-111255000D01*
X160450000Y-111255000D01*
X160449025Y-111254904D01*
X160448087Y-111254619D01*
X160447222Y-111254157D01*
X160446464Y-111253536D01*
X160445843Y-111252778D01*
X160445381Y-111251913D01*
X160445096Y-111250975D01*
X160445000Y-111250000D01*
X160445000Y-109450000D01*
X160445096Y-109449025D01*
X160445381Y-109448087D01*
X160445843Y-109447222D01*
X160446464Y-109446464D01*
X160447222Y-109445843D01*
X160448087Y-109445381D01*
X160449025Y-109445096D01*
X160450000Y-109445000D01*
X161630000Y-109445000D01*
X161630975Y-109445096D01*
X161630975Y-109445096D01*
G37*
G36*
X141677691Y-54351053D02*
G01*
X141698926Y-54354203D01*
X141719750Y-54359419D01*
X141739962Y-54366651D01*
X141759368Y-54375830D01*
X141777781Y-54386866D01*
X141795024Y-54399654D01*
X141810930Y-54414070D01*
X141825346Y-54429976D01*
X141838134Y-54447219D01*
X141849170Y-54465632D01*
X141858349Y-54485038D01*
X141865581Y-54505250D01*
X141870797Y-54526074D01*
X141873947Y-54547309D01*
X141875000Y-54568750D01*
X141875000Y-55006250D01*
X141873947Y-55027691D01*
X141870797Y-55048926D01*
X141865581Y-55069750D01*
X141858349Y-55089962D01*
X141849170Y-55109368D01*
X141838134Y-55127781D01*
X141825346Y-55145024D01*
X141810930Y-55160930D01*
X141795024Y-55175346D01*
X141777781Y-55188134D01*
X141759368Y-55199170D01*
X141739962Y-55208349D01*
X141719750Y-55215581D01*
X141698926Y-55220797D01*
X141677691Y-55223947D01*
X141656250Y-55225000D01*
X141143750Y-55225000D01*
X141122309Y-55223947D01*
X141101074Y-55220797D01*
X141080250Y-55215581D01*
X141060038Y-55208349D01*
X141040632Y-55199170D01*
X141022219Y-55188134D01*
X141004976Y-55175346D01*
X140989070Y-55160930D01*
X140974654Y-55145024D01*
X140961866Y-55127781D01*
X140950830Y-55109368D01*
X140941651Y-55089962D01*
X140934419Y-55069750D01*
X140929203Y-55048926D01*
X140926053Y-55027691D01*
X140925000Y-55006250D01*
X140925000Y-54568750D01*
X140926053Y-54547309D01*
X140929203Y-54526074D01*
X140934419Y-54505250D01*
X140941651Y-54485038D01*
X140950830Y-54465632D01*
X140961866Y-54447219D01*
X140974654Y-54429976D01*
X140989070Y-54414070D01*
X141004976Y-54399654D01*
X141022219Y-54386866D01*
X141040632Y-54375830D01*
X141060038Y-54366651D01*
X141080250Y-54359419D01*
X141101074Y-54354203D01*
X141122309Y-54351053D01*
X141143750Y-54350000D01*
X141656250Y-54350000D01*
X141677691Y-54351053D01*
X141677691Y-54351053D01*
G37*
D14*
X141400000Y-54787500D03*
D11*
G36*
X141677691Y-52776053D02*
G01*
X141698926Y-52779203D01*
X141719750Y-52784419D01*
X141739962Y-52791651D01*
X141759368Y-52800830D01*
X141777781Y-52811866D01*
X141795024Y-52824654D01*
X141810930Y-52839070D01*
X141825346Y-52854976D01*
X141838134Y-52872219D01*
X141849170Y-52890632D01*
X141858349Y-52910038D01*
X141865581Y-52930250D01*
X141870797Y-52951074D01*
X141873947Y-52972309D01*
X141875000Y-52993750D01*
X141875000Y-53431250D01*
X141873947Y-53452691D01*
X141870797Y-53473926D01*
X141865581Y-53494750D01*
X141858349Y-53514962D01*
X141849170Y-53534368D01*
X141838134Y-53552781D01*
X141825346Y-53570024D01*
X141810930Y-53585930D01*
X141795024Y-53600346D01*
X141777781Y-53613134D01*
X141759368Y-53624170D01*
X141739962Y-53633349D01*
X141719750Y-53640581D01*
X141698926Y-53645797D01*
X141677691Y-53648947D01*
X141656250Y-53650000D01*
X141143750Y-53650000D01*
X141122309Y-53648947D01*
X141101074Y-53645797D01*
X141080250Y-53640581D01*
X141060038Y-53633349D01*
X141040632Y-53624170D01*
X141022219Y-53613134D01*
X141004976Y-53600346D01*
X140989070Y-53585930D01*
X140974654Y-53570024D01*
X140961866Y-53552781D01*
X140950830Y-53534368D01*
X140941651Y-53514962D01*
X140934419Y-53494750D01*
X140929203Y-53473926D01*
X140926053Y-53452691D01*
X140925000Y-53431250D01*
X140925000Y-52993750D01*
X140926053Y-52972309D01*
X140929203Y-52951074D01*
X140934419Y-52930250D01*
X140941651Y-52910038D01*
X140950830Y-52890632D01*
X140961866Y-52872219D01*
X140974654Y-52854976D01*
X140989070Y-52839070D01*
X141004976Y-52824654D01*
X141022219Y-52811866D01*
X141040632Y-52800830D01*
X141060038Y-52791651D01*
X141080250Y-52784419D01*
X141101074Y-52779203D01*
X141122309Y-52776053D01*
X141143750Y-52775000D01*
X141656250Y-52775000D01*
X141677691Y-52776053D01*
X141677691Y-52776053D01*
G37*
D14*
X141400000Y-53212500D03*
D11*
G36*
X95305142Y-90401174D02*
G01*
X95328803Y-90404684D01*
X95352007Y-90410496D01*
X95374529Y-90418554D01*
X95396153Y-90428782D01*
X95416670Y-90441079D01*
X95435883Y-90455329D01*
X95453607Y-90471393D01*
X95469671Y-90489117D01*
X95483921Y-90508330D01*
X95496218Y-90528847D01*
X95506446Y-90550471D01*
X95514504Y-90572993D01*
X95520316Y-90596197D01*
X95523826Y-90619858D01*
X95525000Y-90643750D01*
X95525000Y-91556250D01*
X95523826Y-91580142D01*
X95520316Y-91603803D01*
X95514504Y-91627007D01*
X95506446Y-91649529D01*
X95496218Y-91671153D01*
X95483921Y-91691670D01*
X95469671Y-91710883D01*
X95453607Y-91728607D01*
X95435883Y-91744671D01*
X95416670Y-91758921D01*
X95396153Y-91771218D01*
X95374529Y-91781446D01*
X95352007Y-91789504D01*
X95328803Y-91795316D01*
X95305142Y-91798826D01*
X95281250Y-91800000D01*
X94793750Y-91800000D01*
X94769858Y-91798826D01*
X94746197Y-91795316D01*
X94722993Y-91789504D01*
X94700471Y-91781446D01*
X94678847Y-91771218D01*
X94658330Y-91758921D01*
X94639117Y-91744671D01*
X94621393Y-91728607D01*
X94605329Y-91710883D01*
X94591079Y-91691670D01*
X94578782Y-91671153D01*
X94568554Y-91649529D01*
X94560496Y-91627007D01*
X94554684Y-91603803D01*
X94551174Y-91580142D01*
X94550000Y-91556250D01*
X94550000Y-90643750D01*
X94551174Y-90619858D01*
X94554684Y-90596197D01*
X94560496Y-90572993D01*
X94568554Y-90550471D01*
X94578782Y-90528847D01*
X94591079Y-90508330D01*
X94605329Y-90489117D01*
X94621393Y-90471393D01*
X94639117Y-90455329D01*
X94658330Y-90441079D01*
X94678847Y-90428782D01*
X94700471Y-90418554D01*
X94722993Y-90410496D01*
X94746197Y-90404684D01*
X94769858Y-90401174D01*
X94793750Y-90400000D01*
X95281250Y-90400000D01*
X95305142Y-90401174D01*
X95305142Y-90401174D01*
G37*
D15*
X95037500Y-91100000D03*
D11*
G36*
X93430142Y-90401174D02*
G01*
X93453803Y-90404684D01*
X93477007Y-90410496D01*
X93499529Y-90418554D01*
X93521153Y-90428782D01*
X93541670Y-90441079D01*
X93560883Y-90455329D01*
X93578607Y-90471393D01*
X93594671Y-90489117D01*
X93608921Y-90508330D01*
X93621218Y-90528847D01*
X93631446Y-90550471D01*
X93639504Y-90572993D01*
X93645316Y-90596197D01*
X93648826Y-90619858D01*
X93650000Y-90643750D01*
X93650000Y-91556250D01*
X93648826Y-91580142D01*
X93645316Y-91603803D01*
X93639504Y-91627007D01*
X93631446Y-91649529D01*
X93621218Y-91671153D01*
X93608921Y-91691670D01*
X93594671Y-91710883D01*
X93578607Y-91728607D01*
X93560883Y-91744671D01*
X93541670Y-91758921D01*
X93521153Y-91771218D01*
X93499529Y-91781446D01*
X93477007Y-91789504D01*
X93453803Y-91795316D01*
X93430142Y-91798826D01*
X93406250Y-91800000D01*
X92918750Y-91800000D01*
X92894858Y-91798826D01*
X92871197Y-91795316D01*
X92847993Y-91789504D01*
X92825471Y-91781446D01*
X92803847Y-91771218D01*
X92783330Y-91758921D01*
X92764117Y-91744671D01*
X92746393Y-91728607D01*
X92730329Y-91710883D01*
X92716079Y-91691670D01*
X92703782Y-91671153D01*
X92693554Y-91649529D01*
X92685496Y-91627007D01*
X92679684Y-91603803D01*
X92676174Y-91580142D01*
X92675000Y-91556250D01*
X92675000Y-90643750D01*
X92676174Y-90619858D01*
X92679684Y-90596197D01*
X92685496Y-90572993D01*
X92693554Y-90550471D01*
X92703782Y-90528847D01*
X92716079Y-90508330D01*
X92730329Y-90489117D01*
X92746393Y-90471393D01*
X92764117Y-90455329D01*
X92783330Y-90441079D01*
X92803847Y-90428782D01*
X92825471Y-90418554D01*
X92847993Y-90410496D01*
X92871197Y-90404684D01*
X92894858Y-90401174D01*
X92918750Y-90400000D01*
X93406250Y-90400000D01*
X93430142Y-90401174D01*
X93430142Y-90401174D01*
G37*
D15*
X93162500Y-91100000D03*
D11*
G36*
X133680142Y-60551174D02*
G01*
X133703803Y-60554684D01*
X133727007Y-60560496D01*
X133749529Y-60568554D01*
X133771153Y-60578782D01*
X133791670Y-60591079D01*
X133810883Y-60605329D01*
X133828607Y-60621393D01*
X133844671Y-60639117D01*
X133858921Y-60658330D01*
X133871218Y-60678847D01*
X133881446Y-60700471D01*
X133889504Y-60722993D01*
X133895316Y-60746197D01*
X133898826Y-60769858D01*
X133900000Y-60793750D01*
X133900000Y-61281250D01*
X133898826Y-61305142D01*
X133895316Y-61328803D01*
X133889504Y-61352007D01*
X133881446Y-61374529D01*
X133871218Y-61396153D01*
X133858921Y-61416670D01*
X133844671Y-61435883D01*
X133828607Y-61453607D01*
X133810883Y-61469671D01*
X133791670Y-61483921D01*
X133771153Y-61496218D01*
X133749529Y-61506446D01*
X133727007Y-61514504D01*
X133703803Y-61520316D01*
X133680142Y-61523826D01*
X133656250Y-61525000D01*
X132743750Y-61525000D01*
X132719858Y-61523826D01*
X132696197Y-61520316D01*
X132672993Y-61514504D01*
X132650471Y-61506446D01*
X132628847Y-61496218D01*
X132608330Y-61483921D01*
X132589117Y-61469671D01*
X132571393Y-61453607D01*
X132555329Y-61435883D01*
X132541079Y-61416670D01*
X132528782Y-61396153D01*
X132518554Y-61374529D01*
X132510496Y-61352007D01*
X132504684Y-61328803D01*
X132501174Y-61305142D01*
X132500000Y-61281250D01*
X132500000Y-60793750D01*
X132501174Y-60769858D01*
X132504684Y-60746197D01*
X132510496Y-60722993D01*
X132518554Y-60700471D01*
X132528782Y-60678847D01*
X132541079Y-60658330D01*
X132555329Y-60639117D01*
X132571393Y-60621393D01*
X132589117Y-60605329D01*
X132608330Y-60591079D01*
X132628847Y-60578782D01*
X132650471Y-60568554D01*
X132672993Y-60560496D01*
X132696197Y-60554684D01*
X132719858Y-60551174D01*
X132743750Y-60550000D01*
X133656250Y-60550000D01*
X133680142Y-60551174D01*
X133680142Y-60551174D01*
G37*
D15*
X133200000Y-61037500D03*
D11*
G36*
X133680142Y-58676174D02*
G01*
X133703803Y-58679684D01*
X133727007Y-58685496D01*
X133749529Y-58693554D01*
X133771153Y-58703782D01*
X133791670Y-58716079D01*
X133810883Y-58730329D01*
X133828607Y-58746393D01*
X133844671Y-58764117D01*
X133858921Y-58783330D01*
X133871218Y-58803847D01*
X133881446Y-58825471D01*
X133889504Y-58847993D01*
X133895316Y-58871197D01*
X133898826Y-58894858D01*
X133900000Y-58918750D01*
X133900000Y-59406250D01*
X133898826Y-59430142D01*
X133895316Y-59453803D01*
X133889504Y-59477007D01*
X133881446Y-59499529D01*
X133871218Y-59521153D01*
X133858921Y-59541670D01*
X133844671Y-59560883D01*
X133828607Y-59578607D01*
X133810883Y-59594671D01*
X133791670Y-59608921D01*
X133771153Y-59621218D01*
X133749529Y-59631446D01*
X133727007Y-59639504D01*
X133703803Y-59645316D01*
X133680142Y-59648826D01*
X133656250Y-59650000D01*
X132743750Y-59650000D01*
X132719858Y-59648826D01*
X132696197Y-59645316D01*
X132672993Y-59639504D01*
X132650471Y-59631446D01*
X132628847Y-59621218D01*
X132608330Y-59608921D01*
X132589117Y-59594671D01*
X132571393Y-59578607D01*
X132555329Y-59560883D01*
X132541079Y-59541670D01*
X132528782Y-59521153D01*
X132518554Y-59499529D01*
X132510496Y-59477007D01*
X132504684Y-59453803D01*
X132501174Y-59430142D01*
X132500000Y-59406250D01*
X132500000Y-58918750D01*
X132501174Y-58894858D01*
X132504684Y-58871197D01*
X132510496Y-58847993D01*
X132518554Y-58825471D01*
X132528782Y-58803847D01*
X132541079Y-58783330D01*
X132555329Y-58764117D01*
X132571393Y-58746393D01*
X132589117Y-58730329D01*
X132608330Y-58716079D01*
X132628847Y-58703782D01*
X132650471Y-58693554D01*
X132672993Y-58685496D01*
X132696197Y-58679684D01*
X132719858Y-58676174D01*
X132743750Y-58675000D01*
X133656250Y-58675000D01*
X133680142Y-58676174D01*
X133680142Y-58676174D01*
G37*
D15*
X133200000Y-59162500D03*
D11*
G36*
X97452691Y-87426053D02*
G01*
X97473926Y-87429203D01*
X97494750Y-87434419D01*
X97514962Y-87441651D01*
X97534368Y-87450830D01*
X97552781Y-87461866D01*
X97570024Y-87474654D01*
X97585930Y-87489070D01*
X97600346Y-87504976D01*
X97613134Y-87522219D01*
X97624170Y-87540632D01*
X97633349Y-87560038D01*
X97640581Y-87580250D01*
X97645797Y-87601074D01*
X97648947Y-87622309D01*
X97650000Y-87643750D01*
X97650000Y-88156250D01*
X97648947Y-88177691D01*
X97645797Y-88198926D01*
X97640581Y-88219750D01*
X97633349Y-88239962D01*
X97624170Y-88259368D01*
X97613134Y-88277781D01*
X97600346Y-88295024D01*
X97585930Y-88310930D01*
X97570024Y-88325346D01*
X97552781Y-88338134D01*
X97534368Y-88349170D01*
X97514962Y-88358349D01*
X97494750Y-88365581D01*
X97473926Y-88370797D01*
X97452691Y-88373947D01*
X97431250Y-88375000D01*
X96993750Y-88375000D01*
X96972309Y-88373947D01*
X96951074Y-88370797D01*
X96930250Y-88365581D01*
X96910038Y-88358349D01*
X96890632Y-88349170D01*
X96872219Y-88338134D01*
X96854976Y-88325346D01*
X96839070Y-88310930D01*
X96824654Y-88295024D01*
X96811866Y-88277781D01*
X96800830Y-88259368D01*
X96791651Y-88239962D01*
X96784419Y-88219750D01*
X96779203Y-88198926D01*
X96776053Y-88177691D01*
X96775000Y-88156250D01*
X96775000Y-87643750D01*
X96776053Y-87622309D01*
X96779203Y-87601074D01*
X96784419Y-87580250D01*
X96791651Y-87560038D01*
X96800830Y-87540632D01*
X96811866Y-87522219D01*
X96824654Y-87504976D01*
X96839070Y-87489070D01*
X96854976Y-87474654D01*
X96872219Y-87461866D01*
X96890632Y-87450830D01*
X96910038Y-87441651D01*
X96930250Y-87434419D01*
X96951074Y-87429203D01*
X96972309Y-87426053D01*
X96993750Y-87425000D01*
X97431250Y-87425000D01*
X97452691Y-87426053D01*
X97452691Y-87426053D01*
G37*
D14*
X97212500Y-87900000D03*
D11*
G36*
X99027691Y-87426053D02*
G01*
X99048926Y-87429203D01*
X99069750Y-87434419D01*
X99089962Y-87441651D01*
X99109368Y-87450830D01*
X99127781Y-87461866D01*
X99145024Y-87474654D01*
X99160930Y-87489070D01*
X99175346Y-87504976D01*
X99188134Y-87522219D01*
X99199170Y-87540632D01*
X99208349Y-87560038D01*
X99215581Y-87580250D01*
X99220797Y-87601074D01*
X99223947Y-87622309D01*
X99225000Y-87643750D01*
X99225000Y-88156250D01*
X99223947Y-88177691D01*
X99220797Y-88198926D01*
X99215581Y-88219750D01*
X99208349Y-88239962D01*
X99199170Y-88259368D01*
X99188134Y-88277781D01*
X99175346Y-88295024D01*
X99160930Y-88310930D01*
X99145024Y-88325346D01*
X99127781Y-88338134D01*
X99109368Y-88349170D01*
X99089962Y-88358349D01*
X99069750Y-88365581D01*
X99048926Y-88370797D01*
X99027691Y-88373947D01*
X99006250Y-88375000D01*
X98568750Y-88375000D01*
X98547309Y-88373947D01*
X98526074Y-88370797D01*
X98505250Y-88365581D01*
X98485038Y-88358349D01*
X98465632Y-88349170D01*
X98447219Y-88338134D01*
X98429976Y-88325346D01*
X98414070Y-88310930D01*
X98399654Y-88295024D01*
X98386866Y-88277781D01*
X98375830Y-88259368D01*
X98366651Y-88239962D01*
X98359419Y-88219750D01*
X98354203Y-88198926D01*
X98351053Y-88177691D01*
X98350000Y-88156250D01*
X98350000Y-87643750D01*
X98351053Y-87622309D01*
X98354203Y-87601074D01*
X98359419Y-87580250D01*
X98366651Y-87560038D01*
X98375830Y-87540632D01*
X98386866Y-87522219D01*
X98399654Y-87504976D01*
X98414070Y-87489070D01*
X98429976Y-87474654D01*
X98447219Y-87461866D01*
X98465632Y-87450830D01*
X98485038Y-87441651D01*
X98505250Y-87434419D01*
X98526074Y-87429203D01*
X98547309Y-87426053D01*
X98568750Y-87425000D01*
X99006250Y-87425000D01*
X99027691Y-87426053D01*
X99027691Y-87426053D01*
G37*
D14*
X98787500Y-87900000D03*
D11*
G36*
X99027691Y-85326053D02*
G01*
X99048926Y-85329203D01*
X99069750Y-85334419D01*
X99089962Y-85341651D01*
X99109368Y-85350830D01*
X99127781Y-85361866D01*
X99145024Y-85374654D01*
X99160930Y-85389070D01*
X99175346Y-85404976D01*
X99188134Y-85422219D01*
X99199170Y-85440632D01*
X99208349Y-85460038D01*
X99215581Y-85480250D01*
X99220797Y-85501074D01*
X99223947Y-85522309D01*
X99225000Y-85543750D01*
X99225000Y-86056250D01*
X99223947Y-86077691D01*
X99220797Y-86098926D01*
X99215581Y-86119750D01*
X99208349Y-86139962D01*
X99199170Y-86159368D01*
X99188134Y-86177781D01*
X99175346Y-86195024D01*
X99160930Y-86210930D01*
X99145024Y-86225346D01*
X99127781Y-86238134D01*
X99109368Y-86249170D01*
X99089962Y-86258349D01*
X99069750Y-86265581D01*
X99048926Y-86270797D01*
X99027691Y-86273947D01*
X99006250Y-86275000D01*
X98568750Y-86275000D01*
X98547309Y-86273947D01*
X98526074Y-86270797D01*
X98505250Y-86265581D01*
X98485038Y-86258349D01*
X98465632Y-86249170D01*
X98447219Y-86238134D01*
X98429976Y-86225346D01*
X98414070Y-86210930D01*
X98399654Y-86195024D01*
X98386866Y-86177781D01*
X98375830Y-86159368D01*
X98366651Y-86139962D01*
X98359419Y-86119750D01*
X98354203Y-86098926D01*
X98351053Y-86077691D01*
X98350000Y-86056250D01*
X98350000Y-85543750D01*
X98351053Y-85522309D01*
X98354203Y-85501074D01*
X98359419Y-85480250D01*
X98366651Y-85460038D01*
X98375830Y-85440632D01*
X98386866Y-85422219D01*
X98399654Y-85404976D01*
X98414070Y-85389070D01*
X98429976Y-85374654D01*
X98447219Y-85361866D01*
X98465632Y-85350830D01*
X98485038Y-85341651D01*
X98505250Y-85334419D01*
X98526074Y-85329203D01*
X98547309Y-85326053D01*
X98568750Y-85325000D01*
X99006250Y-85325000D01*
X99027691Y-85326053D01*
X99027691Y-85326053D01*
G37*
D14*
X98787500Y-85800000D03*
D11*
G36*
X97452691Y-85326053D02*
G01*
X97473926Y-85329203D01*
X97494750Y-85334419D01*
X97514962Y-85341651D01*
X97534368Y-85350830D01*
X97552781Y-85361866D01*
X97570024Y-85374654D01*
X97585930Y-85389070D01*
X97600346Y-85404976D01*
X97613134Y-85422219D01*
X97624170Y-85440632D01*
X97633349Y-85460038D01*
X97640581Y-85480250D01*
X97645797Y-85501074D01*
X97648947Y-85522309D01*
X97650000Y-85543750D01*
X97650000Y-86056250D01*
X97648947Y-86077691D01*
X97645797Y-86098926D01*
X97640581Y-86119750D01*
X97633349Y-86139962D01*
X97624170Y-86159368D01*
X97613134Y-86177781D01*
X97600346Y-86195024D01*
X97585930Y-86210930D01*
X97570024Y-86225346D01*
X97552781Y-86238134D01*
X97534368Y-86249170D01*
X97514962Y-86258349D01*
X97494750Y-86265581D01*
X97473926Y-86270797D01*
X97452691Y-86273947D01*
X97431250Y-86275000D01*
X96993750Y-86275000D01*
X96972309Y-86273947D01*
X96951074Y-86270797D01*
X96930250Y-86265581D01*
X96910038Y-86258349D01*
X96890632Y-86249170D01*
X96872219Y-86238134D01*
X96854976Y-86225346D01*
X96839070Y-86210930D01*
X96824654Y-86195024D01*
X96811866Y-86177781D01*
X96800830Y-86159368D01*
X96791651Y-86139962D01*
X96784419Y-86119750D01*
X96779203Y-86098926D01*
X96776053Y-86077691D01*
X96775000Y-86056250D01*
X96775000Y-85543750D01*
X96776053Y-85522309D01*
X96779203Y-85501074D01*
X96784419Y-85480250D01*
X96791651Y-85460038D01*
X96800830Y-85440632D01*
X96811866Y-85422219D01*
X96824654Y-85404976D01*
X96839070Y-85389070D01*
X96854976Y-85374654D01*
X96872219Y-85361866D01*
X96890632Y-85350830D01*
X96910038Y-85341651D01*
X96930250Y-85334419D01*
X96951074Y-85329203D01*
X96972309Y-85326053D01*
X96993750Y-85325000D01*
X97431250Y-85325000D01*
X97452691Y-85326053D01*
X97452691Y-85326053D01*
G37*
D14*
X97212500Y-85800000D03*
D16*
X93200000Y-87900000D03*
X95100000Y-87900000D03*
X94150000Y-85800000D03*
M02*
