G04 #@! TF.GenerationSoftware,KiCad,Pcbnew,5.1.5-52549c5~86~ubuntu18.04.1*
G04 #@! TF.CreationDate,2020-04-11T22:25:53+03:00*
G04 #@! TF.ProjectId,Dreamstalker-PRO-v1,44726561-6d73-4746-916c-6b65722d5052,1.02*
G04 #@! TF.SameCoordinates,Original*
G04 #@! TF.FileFunction,Soldermask,Top*
G04 #@! TF.FilePolarity,Negative*
%FSLAX46Y46*%
G04 Gerber Fmt 4.6, Leading zero omitted, Abs format (unit mm)*
G04 Created by KiCad (PCBNEW 5.1.5-52549c5~86~ubuntu18.04.1) date 2020-04-11 22:25:53*
%MOMM*%
%LPD*%
G04 APERTURE LIST*
%ADD10C,0.100000*%
G04 APERTURE END LIST*
D10*
G36*
X96105538Y-118174004D02*
G01*
X96105996Y-118174096D01*
X96106049Y-118174101D01*
X96115942Y-118176082D01*
X96115992Y-118176097D01*
X96116470Y-118176193D01*
X96126576Y-118180396D01*
X96135708Y-118186508D01*
X96136073Y-118186873D01*
X96143181Y-118193991D01*
X96143188Y-118193999D01*
X96143524Y-118194336D01*
X96143788Y-118194731D01*
X96143802Y-118194749D01*
X96149385Y-118203123D01*
X96149398Y-118203148D01*
X96149669Y-118203554D01*
X96153862Y-118213706D01*
X96156576Y-118227397D01*
X96156852Y-118233048D01*
X96156852Y-119406923D01*
X96156572Y-119412633D01*
X96155906Y-119415977D01*
X96155904Y-119415997D01*
X96153938Y-119425873D01*
X96153929Y-119425902D01*
X96153832Y-119426390D01*
X96149640Y-119436510D01*
X96143569Y-119445607D01*
X96143246Y-119445930D01*
X96143178Y-119446013D01*
X96136013Y-119453178D01*
X96135930Y-119453246D01*
X96135607Y-119453569D01*
X96126510Y-119459640D01*
X96116390Y-119463832D01*
X96115902Y-119463929D01*
X96115873Y-119463938D01*
X96105997Y-119465904D01*
X96105977Y-119465906D01*
X96102633Y-119466572D01*
X96096923Y-119466852D01*
X94303077Y-119466852D01*
X94297367Y-119466572D01*
X94294023Y-119465906D01*
X94294003Y-119465904D01*
X94284127Y-119463938D01*
X94284098Y-119463929D01*
X94283610Y-119463832D01*
X94273490Y-119459640D01*
X94264393Y-119453569D01*
X94264070Y-119453246D01*
X94263987Y-119453178D01*
X94256822Y-119446013D01*
X94256754Y-119445930D01*
X94256431Y-119445607D01*
X94250360Y-119436510D01*
X94246168Y-119426390D01*
X94246071Y-119425902D01*
X94246062Y-119425873D01*
X94244096Y-119415997D01*
X94244094Y-119415977D01*
X94243428Y-119412633D01*
X94243148Y-119406923D01*
X94243148Y-118233077D01*
X94243428Y-118227367D01*
X94244094Y-118224023D01*
X94244096Y-118224003D01*
X94246062Y-118214127D01*
X94246071Y-118214098D01*
X94246168Y-118213610D01*
X94250360Y-118203490D01*
X94256431Y-118194393D01*
X94256754Y-118194070D01*
X94256822Y-118193987D01*
X94263987Y-118186822D01*
X94264070Y-118186754D01*
X94264393Y-118186431D01*
X94273490Y-118180360D01*
X94283610Y-118176168D01*
X94284098Y-118176071D01*
X94284127Y-118176062D01*
X94294003Y-118174096D01*
X94294025Y-118174094D01*
X94294501Y-118173999D01*
X94305499Y-118173999D01*
X94305976Y-118174094D01*
X94305997Y-118174096D01*
X94315873Y-118176062D01*
X94315896Y-118176069D01*
X94315936Y-118176077D01*
X94315971Y-118176092D01*
X94316811Y-118176347D01*
X94326743Y-118180551D01*
X94327512Y-118180977D01*
X94329870Y-118181975D01*
X94335954Y-118185815D01*
X94397155Y-118229530D01*
X94405498Y-118235000D01*
X94447530Y-118260219D01*
X94449824Y-118261563D01*
X94513839Y-118298143D01*
X94519955Y-118301416D01*
X94568657Y-118325767D01*
X94578135Y-118330023D01*
X94620892Y-118347126D01*
X94621133Y-118347223D01*
X94622956Y-118347985D01*
X94685451Y-118374768D01*
X94695163Y-118378461D01*
X94773176Y-118404465D01*
X94779814Y-118406474D01*
X94877391Y-118433086D01*
X94887920Y-118435475D01*
X94985202Y-118453163D01*
X94992060Y-118454214D01*
X95062753Y-118463050D01*
X95068668Y-118463647D01*
X95180412Y-118472244D01*
X95199588Y-118472244D01*
X95314367Y-118463414D01*
X95316095Y-118463269D01*
X95413933Y-118454375D01*
X95428809Y-118452113D01*
X95552098Y-118425693D01*
X95560245Y-118423659D01*
X95682643Y-118388689D01*
X95698406Y-118383018D01*
X95839977Y-118321080D01*
X95849731Y-118316297D01*
X95945686Y-118263958D01*
X95955167Y-118258228D01*
X96065912Y-118184398D01*
X96070843Y-118181450D01*
X96083694Y-118176143D01*
X96084175Y-118176048D01*
X96084194Y-118176042D01*
X96094060Y-118174090D01*
X96094066Y-118174089D01*
X96094553Y-118173993D01*
X96105538Y-118174004D01*
G37*
G36*
X96102633Y-114633428D02*
G01*
X96105977Y-114634094D01*
X96105997Y-114634096D01*
X96115873Y-114636062D01*
X96115902Y-114636071D01*
X96116390Y-114636168D01*
X96126510Y-114640360D01*
X96135607Y-114646431D01*
X96135930Y-114646754D01*
X96136013Y-114646822D01*
X96143178Y-114653987D01*
X96143246Y-114654070D01*
X96143569Y-114654393D01*
X96149640Y-114663490D01*
X96153832Y-114673610D01*
X96153929Y-114674098D01*
X96153938Y-114674127D01*
X96155904Y-114684003D01*
X96155906Y-114684023D01*
X96156572Y-114687367D01*
X96156852Y-114693077D01*
X96156852Y-115866923D01*
X96156572Y-115872633D01*
X96155906Y-115875977D01*
X96155904Y-115875997D01*
X96153938Y-115885873D01*
X96153929Y-115885902D01*
X96153832Y-115886390D01*
X96149640Y-115896510D01*
X96143569Y-115905607D01*
X96143246Y-115905930D01*
X96143178Y-115906013D01*
X96136013Y-115913178D01*
X96135930Y-115913246D01*
X96135607Y-115913569D01*
X96126510Y-115919640D01*
X96116390Y-115923832D01*
X96115902Y-115923929D01*
X96115873Y-115923938D01*
X96105997Y-115925904D01*
X96105975Y-115925906D01*
X96105499Y-115926001D01*
X96094501Y-115926001D01*
X96094024Y-115925906D01*
X96094003Y-115925904D01*
X96084127Y-115923938D01*
X96084104Y-115923931D01*
X96084064Y-115923923D01*
X96084029Y-115923908D01*
X96083189Y-115923653D01*
X96073257Y-115919449D01*
X96072488Y-115919023D01*
X96070130Y-115918025D01*
X96064046Y-115914185D01*
X96002845Y-115870470D01*
X95994502Y-115865000D01*
X95952470Y-115839781D01*
X95950176Y-115838437D01*
X95886161Y-115801857D01*
X95880045Y-115798584D01*
X95831343Y-115774233D01*
X95821865Y-115769977D01*
X95779108Y-115752874D01*
X95778867Y-115752777D01*
X95777044Y-115752015D01*
X95714549Y-115725232D01*
X95704837Y-115721539D01*
X95626824Y-115695535D01*
X95620186Y-115693526D01*
X95522609Y-115666914D01*
X95512080Y-115664525D01*
X95414798Y-115646837D01*
X95407940Y-115645786D01*
X95337247Y-115636950D01*
X95331332Y-115636353D01*
X95219588Y-115627756D01*
X95200412Y-115627756D01*
X95085607Y-115636588D01*
X95083878Y-115636733D01*
X94986066Y-115645625D01*
X94971191Y-115647887D01*
X94847902Y-115674307D01*
X94839755Y-115676341D01*
X94717357Y-115711311D01*
X94701594Y-115716982D01*
X94560023Y-115778920D01*
X94550269Y-115783703D01*
X94454314Y-115836042D01*
X94444833Y-115841772D01*
X94334088Y-115915602D01*
X94329157Y-115918550D01*
X94316306Y-115923857D01*
X94315825Y-115923952D01*
X94315806Y-115923958D01*
X94305940Y-115925910D01*
X94305934Y-115925911D01*
X94305447Y-115926007D01*
X94294462Y-115925996D01*
X94294004Y-115925904D01*
X94293951Y-115925899D01*
X94284058Y-115923918D01*
X94284008Y-115923903D01*
X94283530Y-115923807D01*
X94273424Y-115919604D01*
X94264292Y-115913492D01*
X94263927Y-115913127D01*
X94256819Y-115906009D01*
X94256812Y-115906001D01*
X94256476Y-115905664D01*
X94256212Y-115905269D01*
X94256198Y-115905251D01*
X94250615Y-115896877D01*
X94250602Y-115896852D01*
X94250331Y-115896446D01*
X94246138Y-115886294D01*
X94243424Y-115872603D01*
X94243148Y-115866952D01*
X94243148Y-114693077D01*
X94243428Y-114687367D01*
X94244094Y-114684023D01*
X94244096Y-114684003D01*
X94246062Y-114674127D01*
X94246071Y-114674098D01*
X94246168Y-114673610D01*
X94250360Y-114663490D01*
X94256431Y-114654393D01*
X94256754Y-114654070D01*
X94256822Y-114653987D01*
X94263987Y-114646822D01*
X94264070Y-114646754D01*
X94264393Y-114646431D01*
X94273490Y-114640360D01*
X94283610Y-114636168D01*
X94284098Y-114636071D01*
X94284127Y-114636062D01*
X94294003Y-114634096D01*
X94294023Y-114634094D01*
X94297367Y-114633428D01*
X94303077Y-114633148D01*
X96096923Y-114633148D01*
X96102633Y-114633428D01*
G37*
G36*
X112033512Y-111603927D02*
G01*
X112182812Y-111633624D01*
X112346784Y-111701544D01*
X112494354Y-111800147D01*
X112619853Y-111925646D01*
X112718456Y-112073216D01*
X112786376Y-112237188D01*
X112821000Y-112411259D01*
X112821000Y-112588741D01*
X112786376Y-112762812D01*
X112718456Y-112926784D01*
X112619853Y-113074354D01*
X112494354Y-113199853D01*
X112346784Y-113298456D01*
X112182812Y-113366376D01*
X112033512Y-113396073D01*
X112008742Y-113401000D01*
X111831258Y-113401000D01*
X111806488Y-113396073D01*
X111657188Y-113366376D01*
X111493216Y-113298456D01*
X111345646Y-113199853D01*
X111220147Y-113074354D01*
X111121544Y-112926784D01*
X111053624Y-112762812D01*
X111019000Y-112588741D01*
X111019000Y-112411259D01*
X111053624Y-112237188D01*
X111121544Y-112073216D01*
X111220147Y-111925646D01*
X111345646Y-111800147D01*
X111493216Y-111701544D01*
X111657188Y-111633624D01*
X111806488Y-111603927D01*
X111831258Y-111599000D01*
X112008742Y-111599000D01*
X112033512Y-111603927D01*
G37*
G36*
X105201000Y-113401000D02*
G01*
X103399000Y-113401000D01*
X103399000Y-111599000D01*
X105201000Y-111599000D01*
X105201000Y-113401000D01*
G37*
G36*
X106953512Y-111603927D02*
G01*
X107102812Y-111633624D01*
X107266784Y-111701544D01*
X107414354Y-111800147D01*
X107539853Y-111925646D01*
X107638456Y-112073216D01*
X107706376Y-112237188D01*
X107741000Y-112411259D01*
X107741000Y-112588741D01*
X107706376Y-112762812D01*
X107638456Y-112926784D01*
X107539853Y-113074354D01*
X107414354Y-113199853D01*
X107266784Y-113298456D01*
X107102812Y-113366376D01*
X106953512Y-113396073D01*
X106928742Y-113401000D01*
X106751258Y-113401000D01*
X106726488Y-113396073D01*
X106577188Y-113366376D01*
X106413216Y-113298456D01*
X106265646Y-113199853D01*
X106140147Y-113074354D01*
X106041544Y-112926784D01*
X105973624Y-112762812D01*
X105939000Y-112588741D01*
X105939000Y-112411259D01*
X105973624Y-112237188D01*
X106041544Y-112073216D01*
X106140147Y-111925646D01*
X106265646Y-111800147D01*
X106413216Y-111701544D01*
X106577188Y-111633624D01*
X106726488Y-111603927D01*
X106751258Y-111599000D01*
X106928742Y-111599000D01*
X106953512Y-111603927D01*
G37*
G36*
X109493512Y-111603927D02*
G01*
X109642812Y-111633624D01*
X109806784Y-111701544D01*
X109954354Y-111800147D01*
X110079853Y-111925646D01*
X110178456Y-112073216D01*
X110246376Y-112237188D01*
X110281000Y-112411259D01*
X110281000Y-112588741D01*
X110246376Y-112762812D01*
X110178456Y-112926784D01*
X110079853Y-113074354D01*
X109954354Y-113199853D01*
X109806784Y-113298456D01*
X109642812Y-113366376D01*
X109493512Y-113396073D01*
X109468742Y-113401000D01*
X109291258Y-113401000D01*
X109266488Y-113396073D01*
X109117188Y-113366376D01*
X108953216Y-113298456D01*
X108805646Y-113199853D01*
X108680147Y-113074354D01*
X108581544Y-112926784D01*
X108513624Y-112762812D01*
X108479000Y-112588741D01*
X108479000Y-112411259D01*
X108513624Y-112237188D01*
X108581544Y-112073216D01*
X108680147Y-111925646D01*
X108805646Y-111800147D01*
X108953216Y-111701544D01*
X109117188Y-111633624D01*
X109266488Y-111603927D01*
X109291258Y-111599000D01*
X109468742Y-111599000D01*
X109493512Y-111603927D01*
G37*
G36*
X114573512Y-111603927D02*
G01*
X114722812Y-111633624D01*
X114886784Y-111701544D01*
X115034354Y-111800147D01*
X115159853Y-111925646D01*
X115258456Y-112073216D01*
X115326376Y-112237188D01*
X115361000Y-112411259D01*
X115361000Y-112588741D01*
X115326376Y-112762812D01*
X115258456Y-112926784D01*
X115159853Y-113074354D01*
X115034354Y-113199853D01*
X114886784Y-113298456D01*
X114722812Y-113366376D01*
X114573512Y-113396073D01*
X114548742Y-113401000D01*
X114371258Y-113401000D01*
X114346488Y-113396073D01*
X114197188Y-113366376D01*
X114033216Y-113298456D01*
X113885646Y-113199853D01*
X113760147Y-113074354D01*
X113661544Y-112926784D01*
X113593624Y-112762812D01*
X113559000Y-112588741D01*
X113559000Y-112411259D01*
X113593624Y-112237188D01*
X113661544Y-112073216D01*
X113760147Y-111925646D01*
X113885646Y-111800147D01*
X114033216Y-111701544D01*
X114197188Y-111633624D01*
X114346488Y-111603927D01*
X114371258Y-111599000D01*
X114548742Y-111599000D01*
X114573512Y-111603927D01*
G37*
G36*
X94022633Y-109393428D02*
G01*
X94025977Y-109394094D01*
X94025997Y-109394096D01*
X94035873Y-109396062D01*
X94035902Y-109396071D01*
X94036390Y-109396168D01*
X94046510Y-109400360D01*
X94055607Y-109406431D01*
X94055930Y-109406754D01*
X94056013Y-109406822D01*
X94063178Y-109413987D01*
X94063246Y-109414070D01*
X94063569Y-109414393D01*
X94069640Y-109423490D01*
X94073832Y-109433610D01*
X94073929Y-109434098D01*
X94073938Y-109434127D01*
X94075904Y-109444003D01*
X94075906Y-109444025D01*
X94076001Y-109444501D01*
X94076001Y-109455499D01*
X94075906Y-109455976D01*
X94075904Y-109455997D01*
X94073938Y-109465873D01*
X94073931Y-109465896D01*
X94073923Y-109465936D01*
X94073908Y-109465971D01*
X94073653Y-109466811D01*
X94069449Y-109476743D01*
X94069023Y-109477512D01*
X94068025Y-109479870D01*
X94064185Y-109485954D01*
X94020470Y-109547155D01*
X94015000Y-109555498D01*
X93989781Y-109597530D01*
X93988437Y-109599824D01*
X93951857Y-109663839D01*
X93948584Y-109669955D01*
X93924233Y-109718657D01*
X93919977Y-109728135D01*
X93902874Y-109770892D01*
X93902784Y-109771115D01*
X93902015Y-109772956D01*
X93875232Y-109835451D01*
X93871539Y-109845163D01*
X93845535Y-109923176D01*
X93843526Y-109929814D01*
X93816914Y-110027391D01*
X93814525Y-110037920D01*
X93796837Y-110135202D01*
X93795786Y-110142060D01*
X93786950Y-110212753D01*
X93786353Y-110218668D01*
X93777756Y-110330412D01*
X93777756Y-110349588D01*
X93786588Y-110464393D01*
X93786733Y-110466122D01*
X93795625Y-110563934D01*
X93797887Y-110578809D01*
X93824307Y-110702098D01*
X93826341Y-110710245D01*
X93861311Y-110832643D01*
X93866982Y-110848406D01*
X93928920Y-110989977D01*
X93933703Y-110999731D01*
X93986042Y-111095686D01*
X93991772Y-111105167D01*
X94065602Y-111215912D01*
X94068550Y-111220843D01*
X94073857Y-111233694D01*
X94073952Y-111234175D01*
X94073958Y-111234194D01*
X94075910Y-111244060D01*
X94075911Y-111244066D01*
X94076007Y-111244553D01*
X94075996Y-111255538D01*
X94075904Y-111255996D01*
X94075899Y-111256049D01*
X94073918Y-111265942D01*
X94073903Y-111265992D01*
X94073807Y-111266470D01*
X94069604Y-111276576D01*
X94063492Y-111285708D01*
X94063127Y-111286073D01*
X94056009Y-111293181D01*
X94056001Y-111293188D01*
X94055664Y-111293524D01*
X94055269Y-111293788D01*
X94055251Y-111293802D01*
X94046877Y-111299385D01*
X94046852Y-111299398D01*
X94046446Y-111299669D01*
X94036294Y-111303862D01*
X94022603Y-111306576D01*
X94016952Y-111306852D01*
X92843077Y-111306852D01*
X92837367Y-111306572D01*
X92834023Y-111305906D01*
X92834003Y-111305904D01*
X92824127Y-111303938D01*
X92824098Y-111303929D01*
X92823610Y-111303832D01*
X92813490Y-111299640D01*
X92804393Y-111293569D01*
X92804070Y-111293246D01*
X92803987Y-111293178D01*
X92796822Y-111286013D01*
X92796754Y-111285930D01*
X92796431Y-111285607D01*
X92790360Y-111276510D01*
X92786168Y-111266390D01*
X92786071Y-111265902D01*
X92786062Y-111265873D01*
X92784096Y-111255997D01*
X92784094Y-111255977D01*
X92783428Y-111252633D01*
X92783148Y-111246923D01*
X92783148Y-109453077D01*
X92783428Y-109447367D01*
X92784094Y-109444023D01*
X92784096Y-109444003D01*
X92786062Y-109434127D01*
X92786071Y-109434098D01*
X92786168Y-109433610D01*
X92790360Y-109423490D01*
X92796431Y-109414393D01*
X92796754Y-109414070D01*
X92796822Y-109413987D01*
X92803987Y-109406822D01*
X92804070Y-109406754D01*
X92804393Y-109406431D01*
X92813490Y-109400360D01*
X92823610Y-109396168D01*
X92824098Y-109396071D01*
X92824127Y-109396062D01*
X92834003Y-109394096D01*
X92834023Y-109394094D01*
X92837367Y-109393428D01*
X92843077Y-109393148D01*
X94016923Y-109393148D01*
X94022633Y-109393428D01*
G37*
G36*
X97562633Y-109393428D02*
G01*
X97565977Y-109394094D01*
X97565997Y-109394096D01*
X97575873Y-109396062D01*
X97575902Y-109396071D01*
X97576390Y-109396168D01*
X97586510Y-109400360D01*
X97595607Y-109406431D01*
X97595930Y-109406754D01*
X97596013Y-109406822D01*
X97603178Y-109413987D01*
X97603246Y-109414070D01*
X97603569Y-109414393D01*
X97609640Y-109423490D01*
X97613832Y-109433610D01*
X97613929Y-109434098D01*
X97613938Y-109434127D01*
X97615904Y-109444003D01*
X97615906Y-109444023D01*
X97616572Y-109447367D01*
X97616852Y-109453077D01*
X97616852Y-111246923D01*
X97616572Y-111252633D01*
X97615906Y-111255977D01*
X97615904Y-111255997D01*
X97613938Y-111265873D01*
X97613929Y-111265902D01*
X97613832Y-111266390D01*
X97609640Y-111276510D01*
X97603569Y-111285607D01*
X97603246Y-111285930D01*
X97603178Y-111286013D01*
X97596013Y-111293178D01*
X97595930Y-111293246D01*
X97595607Y-111293569D01*
X97586510Y-111299640D01*
X97576390Y-111303832D01*
X97575902Y-111303929D01*
X97575873Y-111303938D01*
X97565997Y-111305904D01*
X97565977Y-111305906D01*
X97562633Y-111306572D01*
X97556923Y-111306852D01*
X96383077Y-111306852D01*
X96377367Y-111306572D01*
X96374023Y-111305906D01*
X96374003Y-111305904D01*
X96364127Y-111303938D01*
X96364098Y-111303929D01*
X96363610Y-111303832D01*
X96353490Y-111299640D01*
X96344393Y-111293569D01*
X96344070Y-111293246D01*
X96343987Y-111293178D01*
X96336822Y-111286013D01*
X96336754Y-111285930D01*
X96336431Y-111285607D01*
X96330360Y-111276510D01*
X96326168Y-111266390D01*
X96326071Y-111265902D01*
X96326062Y-111265873D01*
X96324096Y-111255997D01*
X96324094Y-111255975D01*
X96323999Y-111255499D01*
X96323999Y-111244501D01*
X96324094Y-111244024D01*
X96324096Y-111244003D01*
X96326062Y-111234127D01*
X96326069Y-111234104D01*
X96326077Y-111234064D01*
X96326092Y-111234029D01*
X96326347Y-111233189D01*
X96330551Y-111223257D01*
X96330977Y-111222488D01*
X96331975Y-111220130D01*
X96335815Y-111214046D01*
X96379530Y-111152845D01*
X96385000Y-111144502D01*
X96410219Y-111102470D01*
X96411563Y-111100176D01*
X96448143Y-111036161D01*
X96451416Y-111030045D01*
X96475767Y-110981343D01*
X96480023Y-110971865D01*
X96497126Y-110929108D01*
X96497223Y-110928867D01*
X96497985Y-110927044D01*
X96524768Y-110864549D01*
X96528461Y-110854837D01*
X96554465Y-110776824D01*
X96556474Y-110770186D01*
X96583086Y-110672609D01*
X96585475Y-110662080D01*
X96603163Y-110564798D01*
X96604214Y-110557940D01*
X96613050Y-110487247D01*
X96613647Y-110481332D01*
X96622244Y-110369588D01*
X96622244Y-110350412D01*
X96613414Y-110235633D01*
X96613269Y-110233905D01*
X96604375Y-110136067D01*
X96602113Y-110121191D01*
X96575693Y-109997902D01*
X96573659Y-109989755D01*
X96538689Y-109867357D01*
X96533018Y-109851594D01*
X96471080Y-109710023D01*
X96466297Y-109700269D01*
X96413958Y-109604314D01*
X96408228Y-109594833D01*
X96334398Y-109484088D01*
X96331450Y-109479157D01*
X96326143Y-109466306D01*
X96326048Y-109465825D01*
X96326042Y-109465806D01*
X96324090Y-109455940D01*
X96324089Y-109455934D01*
X96323993Y-109455447D01*
X96324004Y-109444462D01*
X96324096Y-109444003D01*
X96324101Y-109443951D01*
X96326082Y-109434058D01*
X96326097Y-109434008D01*
X96326193Y-109433530D01*
X96330396Y-109423424D01*
X96336508Y-109414292D01*
X96336873Y-109413927D01*
X96343991Y-109406819D01*
X96343999Y-109406812D01*
X96344336Y-109406476D01*
X96344731Y-109406212D01*
X96344749Y-109406198D01*
X96353123Y-109400615D01*
X96353148Y-109400602D01*
X96353554Y-109400331D01*
X96363706Y-109396138D01*
X96377397Y-109393424D01*
X96383048Y-109393148D01*
X97556923Y-109393148D01*
X97562633Y-109393428D01*
G37*
G36*
X161572633Y-109393428D02*
G01*
X161575977Y-109394094D01*
X161575997Y-109394096D01*
X161585873Y-109396062D01*
X161585902Y-109396071D01*
X161586390Y-109396168D01*
X161596510Y-109400360D01*
X161605607Y-109406431D01*
X161605930Y-109406754D01*
X161606013Y-109406822D01*
X161613178Y-109413987D01*
X161613246Y-109414070D01*
X161613569Y-109414393D01*
X161619640Y-109423490D01*
X161623832Y-109433610D01*
X161623929Y-109434098D01*
X161623938Y-109434127D01*
X161625904Y-109444003D01*
X161625906Y-109444025D01*
X161626001Y-109444501D01*
X161626001Y-109455499D01*
X161625906Y-109455976D01*
X161625904Y-109455997D01*
X161623938Y-109465873D01*
X161623931Y-109465896D01*
X161623923Y-109465936D01*
X161623908Y-109465971D01*
X161623653Y-109466811D01*
X161619449Y-109476743D01*
X161619023Y-109477512D01*
X161618025Y-109479870D01*
X161614185Y-109485954D01*
X161570470Y-109547155D01*
X161565000Y-109555498D01*
X161539781Y-109597530D01*
X161538437Y-109599824D01*
X161501857Y-109663839D01*
X161498584Y-109669955D01*
X161474233Y-109718657D01*
X161469977Y-109728135D01*
X161452874Y-109770892D01*
X161452784Y-109771115D01*
X161452015Y-109772956D01*
X161425232Y-109835451D01*
X161421539Y-109845163D01*
X161395535Y-109923176D01*
X161393526Y-109929814D01*
X161366914Y-110027391D01*
X161364525Y-110037920D01*
X161346837Y-110135202D01*
X161345786Y-110142060D01*
X161336950Y-110212753D01*
X161336353Y-110218668D01*
X161327756Y-110330412D01*
X161327756Y-110349588D01*
X161336586Y-110464367D01*
X161336731Y-110466095D01*
X161345625Y-110563933D01*
X161347887Y-110578809D01*
X161374307Y-110702098D01*
X161376341Y-110710245D01*
X161411311Y-110832643D01*
X161416982Y-110848406D01*
X161478920Y-110989977D01*
X161483703Y-110999731D01*
X161536042Y-111095686D01*
X161541772Y-111105167D01*
X161615602Y-111215912D01*
X161618550Y-111220843D01*
X161623857Y-111233694D01*
X161623952Y-111234175D01*
X161623958Y-111234194D01*
X161625910Y-111244060D01*
X161625911Y-111244066D01*
X161626007Y-111244553D01*
X161625996Y-111255538D01*
X161625904Y-111255996D01*
X161625899Y-111256049D01*
X161623918Y-111265942D01*
X161623903Y-111265992D01*
X161623807Y-111266470D01*
X161619604Y-111276576D01*
X161613492Y-111285708D01*
X161613127Y-111286073D01*
X161606009Y-111293181D01*
X161606001Y-111293188D01*
X161605664Y-111293524D01*
X161605269Y-111293788D01*
X161605251Y-111293802D01*
X161596877Y-111299385D01*
X161596852Y-111299398D01*
X161596446Y-111299669D01*
X161586294Y-111303862D01*
X161572603Y-111306576D01*
X161566952Y-111306852D01*
X160393077Y-111306852D01*
X160387367Y-111306572D01*
X160384023Y-111305906D01*
X160384003Y-111305904D01*
X160374127Y-111303938D01*
X160374098Y-111303929D01*
X160373610Y-111303832D01*
X160363490Y-111299640D01*
X160354393Y-111293569D01*
X160354070Y-111293246D01*
X160353987Y-111293178D01*
X160346822Y-111286013D01*
X160346754Y-111285930D01*
X160346431Y-111285607D01*
X160340360Y-111276510D01*
X160336168Y-111266390D01*
X160336071Y-111265902D01*
X160336062Y-111265873D01*
X160334096Y-111255997D01*
X160334094Y-111255977D01*
X160333428Y-111252633D01*
X160333148Y-111246923D01*
X160333148Y-109453077D01*
X160333428Y-109447367D01*
X160334094Y-109444023D01*
X160334096Y-109444003D01*
X160336062Y-109434127D01*
X160336071Y-109434098D01*
X160336168Y-109433610D01*
X160340360Y-109423490D01*
X160346431Y-109414393D01*
X160346754Y-109414070D01*
X160346822Y-109413987D01*
X160353987Y-109406822D01*
X160354070Y-109406754D01*
X160354393Y-109406431D01*
X160363490Y-109400360D01*
X160373610Y-109396168D01*
X160374098Y-109396071D01*
X160374127Y-109396062D01*
X160384003Y-109394096D01*
X160384023Y-109394094D01*
X160387367Y-109393428D01*
X160393077Y-109393148D01*
X161566923Y-109393148D01*
X161572633Y-109393428D01*
G37*
G36*
X165112633Y-109393428D02*
G01*
X165115977Y-109394094D01*
X165115997Y-109394096D01*
X165125873Y-109396062D01*
X165125902Y-109396071D01*
X165126390Y-109396168D01*
X165136510Y-109400360D01*
X165145607Y-109406431D01*
X165145930Y-109406754D01*
X165146013Y-109406822D01*
X165153178Y-109413987D01*
X165153246Y-109414070D01*
X165153569Y-109414393D01*
X165159640Y-109423490D01*
X165163832Y-109433610D01*
X165163929Y-109434098D01*
X165163938Y-109434127D01*
X165165904Y-109444003D01*
X165165906Y-109444023D01*
X165166572Y-109447367D01*
X165166852Y-109453077D01*
X165166852Y-111246923D01*
X165166572Y-111252633D01*
X165165906Y-111255977D01*
X165165904Y-111255997D01*
X165163938Y-111265873D01*
X165163929Y-111265902D01*
X165163832Y-111266390D01*
X165159640Y-111276510D01*
X165153569Y-111285607D01*
X165153246Y-111285930D01*
X165153178Y-111286013D01*
X165146013Y-111293178D01*
X165145930Y-111293246D01*
X165145607Y-111293569D01*
X165136510Y-111299640D01*
X165126390Y-111303832D01*
X165125902Y-111303929D01*
X165125873Y-111303938D01*
X165115997Y-111305904D01*
X165115977Y-111305906D01*
X165112633Y-111306572D01*
X165106923Y-111306852D01*
X163933077Y-111306852D01*
X163927367Y-111306572D01*
X163924023Y-111305906D01*
X163924003Y-111305904D01*
X163914127Y-111303938D01*
X163914098Y-111303929D01*
X163913610Y-111303832D01*
X163903490Y-111299640D01*
X163894393Y-111293569D01*
X163894070Y-111293246D01*
X163893987Y-111293178D01*
X163886822Y-111286013D01*
X163886754Y-111285930D01*
X163886431Y-111285607D01*
X163880360Y-111276510D01*
X163876168Y-111266390D01*
X163876071Y-111265902D01*
X163876062Y-111265873D01*
X163874096Y-111255997D01*
X163874094Y-111255975D01*
X163873999Y-111255499D01*
X163873999Y-111244501D01*
X163874094Y-111244024D01*
X163874096Y-111244003D01*
X163876062Y-111234127D01*
X163876069Y-111234104D01*
X163876077Y-111234064D01*
X163876092Y-111234029D01*
X163876347Y-111233189D01*
X163880551Y-111223257D01*
X163880977Y-111222488D01*
X163881975Y-111220130D01*
X163885815Y-111214046D01*
X163929530Y-111152845D01*
X163935000Y-111144502D01*
X163960219Y-111102470D01*
X163961563Y-111100176D01*
X163998143Y-111036161D01*
X164001416Y-111030045D01*
X164025767Y-110981343D01*
X164030023Y-110971865D01*
X164047126Y-110929108D01*
X164047223Y-110928867D01*
X164047985Y-110927044D01*
X164074768Y-110864549D01*
X164078461Y-110854837D01*
X164104465Y-110776824D01*
X164106474Y-110770186D01*
X164133086Y-110672609D01*
X164135475Y-110662080D01*
X164153163Y-110564798D01*
X164154214Y-110557940D01*
X164163050Y-110487247D01*
X164163647Y-110481332D01*
X164172244Y-110369588D01*
X164172244Y-110350412D01*
X164163412Y-110235607D01*
X164163267Y-110233878D01*
X164154375Y-110136066D01*
X164152113Y-110121191D01*
X164125693Y-109997902D01*
X164123659Y-109989755D01*
X164088689Y-109867357D01*
X164083018Y-109851594D01*
X164021080Y-109710023D01*
X164016297Y-109700269D01*
X163963958Y-109604314D01*
X163958228Y-109594833D01*
X163884398Y-109484088D01*
X163881450Y-109479157D01*
X163876143Y-109466306D01*
X163876048Y-109465825D01*
X163876042Y-109465806D01*
X163874090Y-109455940D01*
X163874089Y-109455934D01*
X163873993Y-109455447D01*
X163874004Y-109444462D01*
X163874096Y-109444003D01*
X163874101Y-109443951D01*
X163876082Y-109434058D01*
X163876097Y-109434008D01*
X163876193Y-109433530D01*
X163880396Y-109423424D01*
X163886508Y-109414292D01*
X163886873Y-109413927D01*
X163893991Y-109406819D01*
X163893999Y-109406812D01*
X163894336Y-109406476D01*
X163894731Y-109406212D01*
X163894749Y-109406198D01*
X163903123Y-109400615D01*
X163903148Y-109400602D01*
X163903554Y-109400331D01*
X163913706Y-109396138D01*
X163927397Y-109393424D01*
X163933048Y-109393148D01*
X165106923Y-109393148D01*
X165112633Y-109393428D01*
G37*
G36*
X109493512Y-109063927D02*
G01*
X109642812Y-109093624D01*
X109806784Y-109161544D01*
X109954354Y-109260147D01*
X110079853Y-109385646D01*
X110178456Y-109533216D01*
X110246376Y-109697188D01*
X110274785Y-109840012D01*
X110277089Y-109851594D01*
X110281000Y-109871259D01*
X110281000Y-110048741D01*
X110246376Y-110222812D01*
X110178456Y-110386784D01*
X110079853Y-110534354D01*
X109954354Y-110659853D01*
X109806784Y-110758456D01*
X109642812Y-110826376D01*
X109499725Y-110854837D01*
X109468742Y-110861000D01*
X109291258Y-110861000D01*
X109260275Y-110854837D01*
X109117188Y-110826376D01*
X108953216Y-110758456D01*
X108805646Y-110659853D01*
X108680147Y-110534354D01*
X108581544Y-110386784D01*
X108513624Y-110222812D01*
X108479000Y-110048741D01*
X108479000Y-109871259D01*
X108482912Y-109851594D01*
X108485215Y-109840012D01*
X108513624Y-109697188D01*
X108581544Y-109533216D01*
X108680147Y-109385646D01*
X108805646Y-109260147D01*
X108953216Y-109161544D01*
X109117188Y-109093624D01*
X109266488Y-109063927D01*
X109291258Y-109059000D01*
X109468742Y-109059000D01*
X109493512Y-109063927D01*
G37*
G36*
X114573512Y-109063927D02*
G01*
X114722812Y-109093624D01*
X114886784Y-109161544D01*
X115034354Y-109260147D01*
X115159853Y-109385646D01*
X115258456Y-109533216D01*
X115326376Y-109697188D01*
X115354785Y-109840012D01*
X115357089Y-109851594D01*
X115361000Y-109871259D01*
X115361000Y-110048741D01*
X115326376Y-110222812D01*
X115258456Y-110386784D01*
X115159853Y-110534354D01*
X115034354Y-110659853D01*
X114886784Y-110758456D01*
X114722812Y-110826376D01*
X114579725Y-110854837D01*
X114548742Y-110861000D01*
X114371258Y-110861000D01*
X114340275Y-110854837D01*
X114197188Y-110826376D01*
X114033216Y-110758456D01*
X113885646Y-110659853D01*
X113760147Y-110534354D01*
X113661544Y-110386784D01*
X113593624Y-110222812D01*
X113559000Y-110048741D01*
X113559000Y-109871259D01*
X113562912Y-109851594D01*
X113565215Y-109840012D01*
X113593624Y-109697188D01*
X113661544Y-109533216D01*
X113760147Y-109385646D01*
X113885646Y-109260147D01*
X114033216Y-109161544D01*
X114197188Y-109093624D01*
X114346488Y-109063927D01*
X114371258Y-109059000D01*
X114548742Y-109059000D01*
X114573512Y-109063927D01*
G37*
G36*
X104413512Y-109063927D02*
G01*
X104562812Y-109093624D01*
X104726784Y-109161544D01*
X104874354Y-109260147D01*
X104999853Y-109385646D01*
X105098456Y-109533216D01*
X105166376Y-109697188D01*
X105194785Y-109840012D01*
X105197089Y-109851594D01*
X105201000Y-109871259D01*
X105201000Y-110048741D01*
X105166376Y-110222812D01*
X105098456Y-110386784D01*
X104999853Y-110534354D01*
X104874354Y-110659853D01*
X104726784Y-110758456D01*
X104562812Y-110826376D01*
X104419725Y-110854837D01*
X104388742Y-110861000D01*
X104211258Y-110861000D01*
X104180275Y-110854837D01*
X104037188Y-110826376D01*
X103873216Y-110758456D01*
X103725646Y-110659853D01*
X103600147Y-110534354D01*
X103501544Y-110386784D01*
X103433624Y-110222812D01*
X103399000Y-110048741D01*
X103399000Y-109871259D01*
X103402912Y-109851594D01*
X103405215Y-109840012D01*
X103433624Y-109697188D01*
X103501544Y-109533216D01*
X103600147Y-109385646D01*
X103725646Y-109260147D01*
X103873216Y-109161544D01*
X104037188Y-109093624D01*
X104186488Y-109063927D01*
X104211258Y-109059000D01*
X104388742Y-109059000D01*
X104413512Y-109063927D01*
G37*
G36*
X106953512Y-109063927D02*
G01*
X107102812Y-109093624D01*
X107266784Y-109161544D01*
X107414354Y-109260147D01*
X107539853Y-109385646D01*
X107638456Y-109533216D01*
X107706376Y-109697188D01*
X107734785Y-109840012D01*
X107737089Y-109851594D01*
X107741000Y-109871259D01*
X107741000Y-110048741D01*
X107706376Y-110222812D01*
X107638456Y-110386784D01*
X107539853Y-110534354D01*
X107414354Y-110659853D01*
X107266784Y-110758456D01*
X107102812Y-110826376D01*
X106959725Y-110854837D01*
X106928742Y-110861000D01*
X106751258Y-110861000D01*
X106720275Y-110854837D01*
X106577188Y-110826376D01*
X106413216Y-110758456D01*
X106265646Y-110659853D01*
X106140147Y-110534354D01*
X106041544Y-110386784D01*
X105973624Y-110222812D01*
X105939000Y-110048741D01*
X105939000Y-109871259D01*
X105942912Y-109851594D01*
X105945215Y-109840012D01*
X105973624Y-109697188D01*
X106041544Y-109533216D01*
X106140147Y-109385646D01*
X106265646Y-109260147D01*
X106413216Y-109161544D01*
X106577188Y-109093624D01*
X106726488Y-109063927D01*
X106751258Y-109059000D01*
X106928742Y-109059000D01*
X106953512Y-109063927D01*
G37*
G36*
X112033512Y-109063927D02*
G01*
X112182812Y-109093624D01*
X112346784Y-109161544D01*
X112494354Y-109260147D01*
X112619853Y-109385646D01*
X112718456Y-109533216D01*
X112786376Y-109697188D01*
X112814785Y-109840012D01*
X112817089Y-109851594D01*
X112821000Y-109871259D01*
X112821000Y-110048741D01*
X112786376Y-110222812D01*
X112718456Y-110386784D01*
X112619853Y-110534354D01*
X112494354Y-110659853D01*
X112346784Y-110758456D01*
X112182812Y-110826376D01*
X112039725Y-110854837D01*
X112008742Y-110861000D01*
X111831258Y-110861000D01*
X111800275Y-110854837D01*
X111657188Y-110826376D01*
X111493216Y-110758456D01*
X111345646Y-110659853D01*
X111220147Y-110534354D01*
X111121544Y-110386784D01*
X111053624Y-110222812D01*
X111019000Y-110048741D01*
X111019000Y-109871259D01*
X111022912Y-109851594D01*
X111025215Y-109840012D01*
X111053624Y-109697188D01*
X111121544Y-109533216D01*
X111220147Y-109385646D01*
X111345646Y-109260147D01*
X111493216Y-109161544D01*
X111657188Y-109093624D01*
X111806488Y-109063927D01*
X111831258Y-109059000D01*
X112008742Y-109059000D01*
X112033512Y-109063927D01*
G37*
G36*
X96105538Y-104774004D02*
G01*
X96105996Y-104774096D01*
X96106049Y-104774101D01*
X96115942Y-104776082D01*
X96115992Y-104776097D01*
X96116470Y-104776193D01*
X96126576Y-104780396D01*
X96135708Y-104786508D01*
X96136073Y-104786873D01*
X96143181Y-104793991D01*
X96143188Y-104793999D01*
X96143524Y-104794336D01*
X96143788Y-104794731D01*
X96143802Y-104794749D01*
X96149385Y-104803123D01*
X96149398Y-104803148D01*
X96149669Y-104803554D01*
X96153862Y-104813706D01*
X96156576Y-104827397D01*
X96156852Y-104833048D01*
X96156852Y-106006923D01*
X96156572Y-106012633D01*
X96155906Y-106015977D01*
X96155904Y-106015997D01*
X96153938Y-106025873D01*
X96153929Y-106025902D01*
X96153832Y-106026390D01*
X96149640Y-106036510D01*
X96143569Y-106045607D01*
X96143246Y-106045930D01*
X96143178Y-106046013D01*
X96136013Y-106053178D01*
X96135930Y-106053246D01*
X96135607Y-106053569D01*
X96126510Y-106059640D01*
X96116390Y-106063832D01*
X96115902Y-106063929D01*
X96115873Y-106063938D01*
X96105997Y-106065904D01*
X96105977Y-106065906D01*
X96102633Y-106066572D01*
X96096923Y-106066852D01*
X94303077Y-106066852D01*
X94297367Y-106066572D01*
X94294023Y-106065906D01*
X94294003Y-106065904D01*
X94284127Y-106063938D01*
X94284098Y-106063929D01*
X94283610Y-106063832D01*
X94273490Y-106059640D01*
X94264393Y-106053569D01*
X94264070Y-106053246D01*
X94263987Y-106053178D01*
X94256822Y-106046013D01*
X94256754Y-106045930D01*
X94256431Y-106045607D01*
X94250360Y-106036510D01*
X94246168Y-106026390D01*
X94246071Y-106025902D01*
X94246062Y-106025873D01*
X94244096Y-106015997D01*
X94244094Y-106015977D01*
X94243428Y-106012633D01*
X94243148Y-106006923D01*
X94243148Y-104833077D01*
X94243428Y-104827367D01*
X94244094Y-104824023D01*
X94244096Y-104824003D01*
X94246062Y-104814127D01*
X94246071Y-104814098D01*
X94246168Y-104813610D01*
X94250360Y-104803490D01*
X94256431Y-104794393D01*
X94256754Y-104794070D01*
X94256822Y-104793987D01*
X94263987Y-104786822D01*
X94264070Y-104786754D01*
X94264393Y-104786431D01*
X94273490Y-104780360D01*
X94283610Y-104776168D01*
X94284098Y-104776071D01*
X94284127Y-104776062D01*
X94294003Y-104774096D01*
X94294025Y-104774094D01*
X94294501Y-104773999D01*
X94305499Y-104773999D01*
X94305976Y-104774094D01*
X94305997Y-104774096D01*
X94315873Y-104776062D01*
X94315896Y-104776069D01*
X94315936Y-104776077D01*
X94315971Y-104776092D01*
X94316811Y-104776347D01*
X94326743Y-104780551D01*
X94327512Y-104780977D01*
X94329870Y-104781975D01*
X94335954Y-104785815D01*
X94397155Y-104829530D01*
X94405498Y-104835000D01*
X94447530Y-104860219D01*
X94449824Y-104861563D01*
X94513839Y-104898143D01*
X94519955Y-104901416D01*
X94568657Y-104925767D01*
X94578135Y-104930023D01*
X94620892Y-104947126D01*
X94621133Y-104947223D01*
X94622956Y-104947985D01*
X94685451Y-104974768D01*
X94695163Y-104978461D01*
X94773176Y-105004465D01*
X94779814Y-105006474D01*
X94877391Y-105033086D01*
X94887920Y-105035475D01*
X94985202Y-105053163D01*
X94992060Y-105054214D01*
X95062753Y-105063050D01*
X95068668Y-105063647D01*
X95180412Y-105072244D01*
X95199588Y-105072244D01*
X95314393Y-105063412D01*
X95316122Y-105063267D01*
X95413934Y-105054375D01*
X95428809Y-105052113D01*
X95552098Y-105025693D01*
X95560245Y-105023659D01*
X95682643Y-104988689D01*
X95698406Y-104983018D01*
X95839977Y-104921080D01*
X95849731Y-104916297D01*
X95945686Y-104863958D01*
X95955167Y-104858228D01*
X96065912Y-104784398D01*
X96070843Y-104781450D01*
X96083694Y-104776143D01*
X96084175Y-104776048D01*
X96084194Y-104776042D01*
X96094060Y-104774090D01*
X96094066Y-104774089D01*
X96094553Y-104773993D01*
X96105538Y-104774004D01*
G37*
G36*
X162313512Y-103633927D02*
G01*
X162462812Y-103663624D01*
X162626784Y-103731544D01*
X162774354Y-103830147D01*
X162899853Y-103955646D01*
X162998456Y-104103216D01*
X163066376Y-104267188D01*
X163101000Y-104441259D01*
X163101000Y-104618741D01*
X163066376Y-104792812D01*
X162998456Y-104956784D01*
X162899853Y-105104354D01*
X162774354Y-105229853D01*
X162626784Y-105328456D01*
X162462812Y-105396376D01*
X162313512Y-105426073D01*
X162288742Y-105431000D01*
X162111258Y-105431000D01*
X162086488Y-105426073D01*
X161937188Y-105396376D01*
X161773216Y-105328456D01*
X161625646Y-105229853D01*
X161500147Y-105104354D01*
X161401544Y-104956784D01*
X161333624Y-104792812D01*
X161299000Y-104618741D01*
X161299000Y-104441259D01*
X161333624Y-104267188D01*
X161401544Y-104103216D01*
X161500147Y-103955646D01*
X161625646Y-103830147D01*
X161773216Y-103731544D01*
X161937188Y-103663624D01*
X162086488Y-103633927D01*
X162111258Y-103629000D01*
X162288742Y-103629000D01*
X162313512Y-103633927D01*
G37*
G36*
X164853512Y-103633927D02*
G01*
X165002812Y-103663624D01*
X165166784Y-103731544D01*
X165314354Y-103830147D01*
X165439853Y-103955646D01*
X165538456Y-104103216D01*
X165606376Y-104267188D01*
X165641000Y-104441259D01*
X165641000Y-104618741D01*
X165606376Y-104792812D01*
X165538456Y-104956784D01*
X165439853Y-105104354D01*
X165314354Y-105229853D01*
X165166784Y-105328456D01*
X165002812Y-105396376D01*
X164853512Y-105426073D01*
X164828742Y-105431000D01*
X164651258Y-105431000D01*
X164626488Y-105426073D01*
X164477188Y-105396376D01*
X164313216Y-105328456D01*
X164165646Y-105229853D01*
X164040147Y-105104354D01*
X163941544Y-104956784D01*
X163873624Y-104792812D01*
X163839000Y-104618741D01*
X163839000Y-104441259D01*
X163873624Y-104267188D01*
X163941544Y-104103216D01*
X164040147Y-103955646D01*
X164165646Y-103830147D01*
X164313216Y-103731544D01*
X164477188Y-103663624D01*
X164626488Y-103633927D01*
X164651258Y-103629000D01*
X164828742Y-103629000D01*
X164853512Y-103633927D01*
G37*
G36*
X147039890Y-103274017D02*
G01*
X147097387Y-103297833D01*
X147158364Y-103323091D01*
X147264988Y-103394335D01*
X147355665Y-103485012D01*
X147426910Y-103591638D01*
X147475983Y-103710110D01*
X147499860Y-103830148D01*
X147501000Y-103835882D01*
X147501000Y-103964118D01*
X147475983Y-104089890D01*
X147426909Y-104208364D01*
X147355665Y-104314988D01*
X147264988Y-104405665D01*
X147158364Y-104476909D01*
X147158363Y-104476910D01*
X147158362Y-104476910D01*
X147039890Y-104525983D01*
X146914119Y-104551000D01*
X146785881Y-104551000D01*
X146660110Y-104525983D01*
X146541638Y-104476910D01*
X146541637Y-104476910D01*
X146541636Y-104476909D01*
X146435012Y-104405665D01*
X146344335Y-104314988D01*
X146273091Y-104208364D01*
X146224017Y-104089890D01*
X146199000Y-103964118D01*
X146199000Y-103835882D01*
X146200141Y-103830148D01*
X146224017Y-103710110D01*
X146273090Y-103591638D01*
X146344335Y-103485012D01*
X146435012Y-103394335D01*
X146541636Y-103323091D01*
X146602614Y-103297833D01*
X146660110Y-103274017D01*
X146785881Y-103249000D01*
X146914119Y-103249000D01*
X147039890Y-103274017D01*
G37*
G36*
X155039890Y-103274017D02*
G01*
X155097387Y-103297833D01*
X155158364Y-103323091D01*
X155264988Y-103394335D01*
X155355665Y-103485012D01*
X155426910Y-103591638D01*
X155475983Y-103710110D01*
X155499860Y-103830148D01*
X155501000Y-103835882D01*
X155501000Y-103964118D01*
X155475983Y-104089890D01*
X155426909Y-104208364D01*
X155355665Y-104314988D01*
X155264988Y-104405665D01*
X155158364Y-104476909D01*
X155158363Y-104476910D01*
X155158362Y-104476910D01*
X155039890Y-104525983D01*
X154914119Y-104551000D01*
X154785881Y-104551000D01*
X154660110Y-104525983D01*
X154541638Y-104476910D01*
X154541637Y-104476910D01*
X154541636Y-104476909D01*
X154435012Y-104405665D01*
X154344335Y-104314988D01*
X154273091Y-104208364D01*
X154224017Y-104089890D01*
X154199000Y-103964118D01*
X154199000Y-103835882D01*
X154200141Y-103830148D01*
X154224017Y-103710110D01*
X154273090Y-103591638D01*
X154344335Y-103485012D01*
X154435012Y-103394335D01*
X154541636Y-103323091D01*
X154602614Y-103297833D01*
X154660110Y-103274017D01*
X154785881Y-103249000D01*
X154914119Y-103249000D01*
X155039890Y-103274017D01*
G37*
G36*
X107906564Y-101789389D02*
G01*
X108097833Y-101868615D01*
X108097835Y-101868616D01*
X108269973Y-101983635D01*
X108416365Y-102130027D01*
X108525833Y-102293857D01*
X108531385Y-102302167D01*
X108610611Y-102493436D01*
X108651000Y-102696484D01*
X108651000Y-102903516D01*
X108610611Y-103106564D01*
X108551612Y-103249000D01*
X108531384Y-103297835D01*
X108416365Y-103469973D01*
X108269973Y-103616365D01*
X108097835Y-103731384D01*
X108097834Y-103731385D01*
X108097833Y-103731385D01*
X107906564Y-103810611D01*
X107703516Y-103851000D01*
X107496484Y-103851000D01*
X107293436Y-103810611D01*
X107102167Y-103731385D01*
X107102166Y-103731385D01*
X107102165Y-103731384D01*
X106930027Y-103616365D01*
X106783635Y-103469973D01*
X106668616Y-103297835D01*
X106648388Y-103249000D01*
X106589389Y-103106564D01*
X106549000Y-102903516D01*
X106549000Y-102696484D01*
X106589389Y-102493436D01*
X106668615Y-102302167D01*
X106674168Y-102293857D01*
X106783635Y-102130027D01*
X106930027Y-101983635D01*
X107102165Y-101868616D01*
X107102167Y-101868615D01*
X107293436Y-101789389D01*
X107496484Y-101749000D01*
X107703516Y-101749000D01*
X107906564Y-101789389D01*
G37*
G36*
X101406564Y-101789389D02*
G01*
X101597833Y-101868615D01*
X101597835Y-101868616D01*
X101769973Y-101983635D01*
X101916365Y-102130027D01*
X102025833Y-102293857D01*
X102031385Y-102302167D01*
X102110611Y-102493436D01*
X102151000Y-102696484D01*
X102151000Y-102903516D01*
X102110611Y-103106564D01*
X102051612Y-103249000D01*
X102031384Y-103297835D01*
X101916365Y-103469973D01*
X101769973Y-103616365D01*
X101597835Y-103731384D01*
X101597834Y-103731385D01*
X101597833Y-103731385D01*
X101406564Y-103810611D01*
X101203516Y-103851000D01*
X100996484Y-103851000D01*
X100793436Y-103810611D01*
X100602167Y-103731385D01*
X100602166Y-103731385D01*
X100602165Y-103731384D01*
X100430027Y-103616365D01*
X100283635Y-103469973D01*
X100168616Y-103297835D01*
X100148388Y-103249000D01*
X100089389Y-103106564D01*
X100049000Y-102903516D01*
X100049000Y-102696484D01*
X100089389Y-102493436D01*
X100168615Y-102302167D01*
X100174168Y-102293857D01*
X100283635Y-102130027D01*
X100430027Y-101983635D01*
X100602165Y-101868616D01*
X100602167Y-101868615D01*
X100793436Y-101789389D01*
X100996484Y-101749000D01*
X101203516Y-101749000D01*
X101406564Y-101789389D01*
G37*
G36*
X132556564Y-101789389D02*
G01*
X132747833Y-101868615D01*
X132747835Y-101868616D01*
X132919973Y-101983635D01*
X133066365Y-102130027D01*
X133175833Y-102293857D01*
X133181385Y-102302167D01*
X133260611Y-102493436D01*
X133301000Y-102696484D01*
X133301000Y-102903516D01*
X133260611Y-103106564D01*
X133201612Y-103249000D01*
X133181384Y-103297835D01*
X133066365Y-103469973D01*
X132919973Y-103616365D01*
X132747835Y-103731384D01*
X132747834Y-103731385D01*
X132747833Y-103731385D01*
X132556564Y-103810611D01*
X132353516Y-103851000D01*
X132146484Y-103851000D01*
X131943436Y-103810611D01*
X131752167Y-103731385D01*
X131752166Y-103731385D01*
X131752165Y-103731384D01*
X131580027Y-103616365D01*
X131433635Y-103469973D01*
X131318616Y-103297835D01*
X131298388Y-103249000D01*
X131239389Y-103106564D01*
X131199000Y-102903516D01*
X131199000Y-102696484D01*
X131239389Y-102493436D01*
X131318615Y-102302167D01*
X131324168Y-102293857D01*
X131433635Y-102130027D01*
X131580027Y-101983635D01*
X131752165Y-101868616D01*
X131752167Y-101868615D01*
X131943436Y-101789389D01*
X132146484Y-101749000D01*
X132353516Y-101749000D01*
X132556564Y-101789389D01*
G37*
G36*
X126056564Y-101789389D02*
G01*
X126247833Y-101868615D01*
X126247835Y-101868616D01*
X126419973Y-101983635D01*
X126566365Y-102130027D01*
X126675833Y-102293857D01*
X126681385Y-102302167D01*
X126760611Y-102493436D01*
X126801000Y-102696484D01*
X126801000Y-102903516D01*
X126760611Y-103106564D01*
X126701612Y-103249000D01*
X126681384Y-103297835D01*
X126566365Y-103469973D01*
X126419973Y-103616365D01*
X126247835Y-103731384D01*
X126247834Y-103731385D01*
X126247833Y-103731385D01*
X126056564Y-103810611D01*
X125853516Y-103851000D01*
X125646484Y-103851000D01*
X125443436Y-103810611D01*
X125252167Y-103731385D01*
X125252166Y-103731385D01*
X125252165Y-103731384D01*
X125080027Y-103616365D01*
X124933635Y-103469973D01*
X124818616Y-103297835D01*
X124798388Y-103249000D01*
X124739389Y-103106564D01*
X124699000Y-102903516D01*
X124699000Y-102696484D01*
X124739389Y-102493436D01*
X124818615Y-102302167D01*
X124824168Y-102293857D01*
X124933635Y-102130027D01*
X125080027Y-101983635D01*
X125252165Y-101868616D01*
X125252167Y-101868615D01*
X125443436Y-101789389D01*
X125646484Y-101749000D01*
X125853516Y-101749000D01*
X126056564Y-101789389D01*
G37*
G36*
X164853512Y-101093927D02*
G01*
X165002812Y-101123624D01*
X165166784Y-101191544D01*
X165314354Y-101290147D01*
X165439853Y-101415646D01*
X165538456Y-101563216D01*
X165606376Y-101727188D01*
X165641000Y-101901259D01*
X165641000Y-102078741D01*
X165606376Y-102252812D01*
X165538456Y-102416784D01*
X165439853Y-102564354D01*
X165314354Y-102689853D01*
X165166784Y-102788456D01*
X165002812Y-102856376D01*
X164853512Y-102886073D01*
X164828742Y-102891000D01*
X164651258Y-102891000D01*
X164626488Y-102886073D01*
X164477188Y-102856376D01*
X164313216Y-102788456D01*
X164165646Y-102689853D01*
X164040147Y-102564354D01*
X163941544Y-102416784D01*
X163873624Y-102252812D01*
X163839000Y-102078741D01*
X163839000Y-101901259D01*
X163873624Y-101727188D01*
X163941544Y-101563216D01*
X164040147Y-101415646D01*
X164165646Y-101290147D01*
X164313216Y-101191544D01*
X164477188Y-101123624D01*
X164626488Y-101093927D01*
X164651258Y-101089000D01*
X164828742Y-101089000D01*
X164853512Y-101093927D01*
G37*
G36*
X162313512Y-101093927D02*
G01*
X162462812Y-101123624D01*
X162626784Y-101191544D01*
X162774354Y-101290147D01*
X162899853Y-101415646D01*
X162998456Y-101563216D01*
X163066376Y-101727188D01*
X163101000Y-101901259D01*
X163101000Y-102078741D01*
X163066376Y-102252812D01*
X162998456Y-102416784D01*
X162899853Y-102564354D01*
X162774354Y-102689853D01*
X162626784Y-102788456D01*
X162462812Y-102856376D01*
X162313512Y-102886073D01*
X162288742Y-102891000D01*
X162111258Y-102891000D01*
X162086488Y-102886073D01*
X161937188Y-102856376D01*
X161773216Y-102788456D01*
X161625646Y-102689853D01*
X161500147Y-102564354D01*
X161401544Y-102416784D01*
X161333624Y-102252812D01*
X161299000Y-102078741D01*
X161299000Y-101901259D01*
X161333624Y-101727188D01*
X161401544Y-101563216D01*
X161500147Y-101415646D01*
X161625646Y-101290147D01*
X161773216Y-101191544D01*
X161937188Y-101123624D01*
X162086488Y-101093927D01*
X162111258Y-101089000D01*
X162288742Y-101089000D01*
X162313512Y-101093927D01*
G37*
G36*
X96102633Y-101233428D02*
G01*
X96105977Y-101234094D01*
X96105997Y-101234096D01*
X96115873Y-101236062D01*
X96115902Y-101236071D01*
X96116390Y-101236168D01*
X96126510Y-101240360D01*
X96135607Y-101246431D01*
X96135930Y-101246754D01*
X96136013Y-101246822D01*
X96143178Y-101253987D01*
X96143246Y-101254070D01*
X96143569Y-101254393D01*
X96149640Y-101263490D01*
X96153832Y-101273610D01*
X96153929Y-101274098D01*
X96153938Y-101274127D01*
X96155904Y-101284003D01*
X96155906Y-101284023D01*
X96156572Y-101287367D01*
X96156852Y-101293077D01*
X96156852Y-102466923D01*
X96156572Y-102472633D01*
X96155906Y-102475977D01*
X96155904Y-102475997D01*
X96153938Y-102485873D01*
X96153929Y-102485902D01*
X96153832Y-102486390D01*
X96149640Y-102496510D01*
X96143569Y-102505607D01*
X96143246Y-102505930D01*
X96143178Y-102506013D01*
X96136013Y-102513178D01*
X96135930Y-102513246D01*
X96135607Y-102513569D01*
X96126510Y-102519640D01*
X96116390Y-102523832D01*
X96115902Y-102523929D01*
X96115873Y-102523938D01*
X96105997Y-102525904D01*
X96105975Y-102525906D01*
X96105499Y-102526001D01*
X96094501Y-102526001D01*
X96094024Y-102525906D01*
X96094003Y-102525904D01*
X96084127Y-102523938D01*
X96084104Y-102523931D01*
X96084064Y-102523923D01*
X96084029Y-102523908D01*
X96083189Y-102523653D01*
X96073257Y-102519449D01*
X96072488Y-102519023D01*
X96070130Y-102518025D01*
X96064046Y-102514185D01*
X96002846Y-102470471D01*
X95994504Y-102465001D01*
X95952471Y-102439781D01*
X95950176Y-102438437D01*
X95886161Y-102401857D01*
X95880045Y-102398584D01*
X95831343Y-102374233D01*
X95821865Y-102369977D01*
X95779108Y-102352874D01*
X95778867Y-102352777D01*
X95777044Y-102352015D01*
X95714549Y-102325232D01*
X95704837Y-102321539D01*
X95626824Y-102295535D01*
X95620186Y-102293526D01*
X95522609Y-102266914D01*
X95512080Y-102264525D01*
X95414798Y-102246837D01*
X95407940Y-102245786D01*
X95337247Y-102236950D01*
X95331332Y-102236353D01*
X95219588Y-102227756D01*
X95200412Y-102227756D01*
X95085633Y-102236586D01*
X95083905Y-102236731D01*
X94986067Y-102245625D01*
X94971191Y-102247887D01*
X94847902Y-102274307D01*
X94839755Y-102276341D01*
X94717357Y-102311311D01*
X94701594Y-102316982D01*
X94560023Y-102378920D01*
X94550269Y-102383703D01*
X94454314Y-102436042D01*
X94444833Y-102441772D01*
X94334088Y-102515602D01*
X94329157Y-102518550D01*
X94316306Y-102523857D01*
X94315825Y-102523952D01*
X94315806Y-102523958D01*
X94305940Y-102525910D01*
X94305934Y-102525911D01*
X94305447Y-102526007D01*
X94294462Y-102525996D01*
X94294004Y-102525904D01*
X94293951Y-102525899D01*
X94284058Y-102523918D01*
X94284008Y-102523903D01*
X94283530Y-102523807D01*
X94273424Y-102519604D01*
X94264292Y-102513492D01*
X94263927Y-102513127D01*
X94256819Y-102506009D01*
X94256812Y-102506001D01*
X94256476Y-102505664D01*
X94256212Y-102505269D01*
X94256198Y-102505251D01*
X94250615Y-102496877D01*
X94250602Y-102496852D01*
X94250331Y-102496446D01*
X94246138Y-102486294D01*
X94243424Y-102472603D01*
X94243148Y-102466952D01*
X94243148Y-101293077D01*
X94243428Y-101287367D01*
X94244094Y-101284023D01*
X94244096Y-101284003D01*
X94246062Y-101274127D01*
X94246071Y-101274098D01*
X94246168Y-101273610D01*
X94250360Y-101263490D01*
X94256431Y-101254393D01*
X94256754Y-101254070D01*
X94256822Y-101253987D01*
X94263987Y-101246822D01*
X94264070Y-101246754D01*
X94264393Y-101246431D01*
X94273490Y-101240360D01*
X94283610Y-101236168D01*
X94284098Y-101236071D01*
X94284127Y-101236062D01*
X94294003Y-101234096D01*
X94294023Y-101234094D01*
X94297367Y-101233428D01*
X94303077Y-101233148D01*
X96096923Y-101233148D01*
X96102633Y-101233428D01*
G37*
G36*
X164853512Y-98553927D02*
G01*
X165002812Y-98583624D01*
X165166784Y-98651544D01*
X165314354Y-98750147D01*
X165439853Y-98875646D01*
X165538456Y-99023216D01*
X165606376Y-99187188D01*
X165630926Y-99310611D01*
X165638960Y-99351000D01*
X165641000Y-99361259D01*
X165641000Y-99538741D01*
X165606376Y-99712812D01*
X165538456Y-99876784D01*
X165439853Y-100024354D01*
X165314354Y-100149853D01*
X165166784Y-100248456D01*
X165002812Y-100316376D01*
X164853512Y-100346073D01*
X164828742Y-100351000D01*
X164651258Y-100351000D01*
X164626488Y-100346073D01*
X164477188Y-100316376D01*
X164313216Y-100248456D01*
X164165646Y-100149853D01*
X164040147Y-100024354D01*
X163941544Y-99876784D01*
X163873624Y-99712812D01*
X163839000Y-99538741D01*
X163839000Y-99361259D01*
X163841041Y-99351000D01*
X163849074Y-99310611D01*
X163873624Y-99187188D01*
X163941544Y-99023216D01*
X164040147Y-98875646D01*
X164165646Y-98750147D01*
X164313216Y-98651544D01*
X164477188Y-98583624D01*
X164626488Y-98553927D01*
X164651258Y-98549000D01*
X164828742Y-98549000D01*
X164853512Y-98553927D01*
G37*
G36*
X163101000Y-100351000D02*
G01*
X161299000Y-100351000D01*
X161299000Y-98549000D01*
X163101000Y-98549000D01*
X163101000Y-100351000D01*
G37*
G36*
X132556564Y-97289389D02*
G01*
X132747833Y-97368615D01*
X132747835Y-97368616D01*
X132919973Y-97483635D01*
X133066365Y-97630027D01*
X133181385Y-97802167D01*
X133260611Y-97993436D01*
X133301000Y-98196484D01*
X133301000Y-98403516D01*
X133260611Y-98606564D01*
X133181385Y-98797833D01*
X133181384Y-98797835D01*
X133066365Y-98969973D01*
X132919973Y-99116365D01*
X132747835Y-99231384D01*
X132747834Y-99231385D01*
X132747833Y-99231385D01*
X132556564Y-99310611D01*
X132353516Y-99351000D01*
X132146484Y-99351000D01*
X131943436Y-99310611D01*
X131752167Y-99231385D01*
X131752166Y-99231385D01*
X131752165Y-99231384D01*
X131580027Y-99116365D01*
X131433635Y-98969973D01*
X131318616Y-98797835D01*
X131318615Y-98797833D01*
X131239389Y-98606564D01*
X131199000Y-98403516D01*
X131199000Y-98196484D01*
X131239389Y-97993436D01*
X131318615Y-97802167D01*
X131433635Y-97630027D01*
X131580027Y-97483635D01*
X131752165Y-97368616D01*
X131752167Y-97368615D01*
X131943436Y-97289389D01*
X132146484Y-97249000D01*
X132353516Y-97249000D01*
X132556564Y-97289389D01*
G37*
G36*
X126056564Y-97289389D02*
G01*
X126247833Y-97368615D01*
X126247835Y-97368616D01*
X126419973Y-97483635D01*
X126566365Y-97630027D01*
X126681385Y-97802167D01*
X126760611Y-97993436D01*
X126801000Y-98196484D01*
X126801000Y-98403516D01*
X126760611Y-98606564D01*
X126681385Y-98797833D01*
X126681384Y-98797835D01*
X126566365Y-98969973D01*
X126419973Y-99116365D01*
X126247835Y-99231384D01*
X126247834Y-99231385D01*
X126247833Y-99231385D01*
X126056564Y-99310611D01*
X125853516Y-99351000D01*
X125646484Y-99351000D01*
X125443436Y-99310611D01*
X125252167Y-99231385D01*
X125252166Y-99231385D01*
X125252165Y-99231384D01*
X125080027Y-99116365D01*
X124933635Y-98969973D01*
X124818616Y-98797835D01*
X124818615Y-98797833D01*
X124739389Y-98606564D01*
X124699000Y-98403516D01*
X124699000Y-98196484D01*
X124739389Y-97993436D01*
X124818615Y-97802167D01*
X124933635Y-97630027D01*
X125080027Y-97483635D01*
X125252165Y-97368616D01*
X125252167Y-97368615D01*
X125443436Y-97289389D01*
X125646484Y-97249000D01*
X125853516Y-97249000D01*
X126056564Y-97289389D01*
G37*
G36*
X107906564Y-97289389D02*
G01*
X108097833Y-97368615D01*
X108097835Y-97368616D01*
X108269973Y-97483635D01*
X108416365Y-97630027D01*
X108531385Y-97802167D01*
X108610611Y-97993436D01*
X108651000Y-98196484D01*
X108651000Y-98403516D01*
X108610611Y-98606564D01*
X108531385Y-98797833D01*
X108531384Y-98797835D01*
X108416365Y-98969973D01*
X108269973Y-99116365D01*
X108097835Y-99231384D01*
X108097834Y-99231385D01*
X108097833Y-99231385D01*
X107906564Y-99310611D01*
X107703516Y-99351000D01*
X107496484Y-99351000D01*
X107293436Y-99310611D01*
X107102167Y-99231385D01*
X107102166Y-99231385D01*
X107102165Y-99231384D01*
X106930027Y-99116365D01*
X106783635Y-98969973D01*
X106668616Y-98797835D01*
X106668615Y-98797833D01*
X106589389Y-98606564D01*
X106549000Y-98403516D01*
X106549000Y-98196484D01*
X106589389Y-97993436D01*
X106668615Y-97802167D01*
X106783635Y-97630027D01*
X106930027Y-97483635D01*
X107102165Y-97368616D01*
X107102167Y-97368615D01*
X107293436Y-97289389D01*
X107496484Y-97249000D01*
X107703516Y-97249000D01*
X107906564Y-97289389D01*
G37*
G36*
X101406564Y-97289389D02*
G01*
X101597833Y-97368615D01*
X101597835Y-97368616D01*
X101769973Y-97483635D01*
X101916365Y-97630027D01*
X102031385Y-97802167D01*
X102110611Y-97993436D01*
X102151000Y-98196484D01*
X102151000Y-98403516D01*
X102110611Y-98606564D01*
X102031385Y-98797833D01*
X102031384Y-98797835D01*
X101916365Y-98969973D01*
X101769973Y-99116365D01*
X101597835Y-99231384D01*
X101597834Y-99231385D01*
X101597833Y-99231385D01*
X101406564Y-99310611D01*
X101203516Y-99351000D01*
X100996484Y-99351000D01*
X100793436Y-99310611D01*
X100602167Y-99231385D01*
X100602166Y-99231385D01*
X100602165Y-99231384D01*
X100430027Y-99116365D01*
X100283635Y-98969973D01*
X100168616Y-98797835D01*
X100168615Y-98797833D01*
X100089389Y-98606564D01*
X100049000Y-98403516D01*
X100049000Y-98196484D01*
X100089389Y-97993436D01*
X100168615Y-97802167D01*
X100283635Y-97630027D01*
X100430027Y-97483635D01*
X100602165Y-97368616D01*
X100602167Y-97368615D01*
X100793436Y-97289389D01*
X100996484Y-97249000D01*
X101203516Y-97249000D01*
X101406564Y-97289389D01*
G37*
G36*
X95409468Y-90353565D02*
G01*
X95448138Y-90365296D01*
X95483777Y-90384346D01*
X95515017Y-90409983D01*
X95540654Y-90441223D01*
X95559704Y-90476862D01*
X95571435Y-90515532D01*
X95576000Y-90561888D01*
X95576000Y-91638112D01*
X95571435Y-91684468D01*
X95559704Y-91723138D01*
X95540654Y-91758777D01*
X95515017Y-91790017D01*
X95483777Y-91815654D01*
X95448138Y-91834704D01*
X95409468Y-91846435D01*
X95363112Y-91851000D01*
X94711888Y-91851000D01*
X94665532Y-91846435D01*
X94626862Y-91834704D01*
X94591223Y-91815654D01*
X94559983Y-91790017D01*
X94534346Y-91758777D01*
X94515296Y-91723138D01*
X94503565Y-91684468D01*
X94499000Y-91638112D01*
X94499000Y-90561888D01*
X94503565Y-90515532D01*
X94515296Y-90476862D01*
X94534346Y-90441223D01*
X94559983Y-90409983D01*
X94591223Y-90384346D01*
X94626862Y-90365296D01*
X94665532Y-90353565D01*
X94711888Y-90349000D01*
X95363112Y-90349000D01*
X95409468Y-90353565D01*
G37*
G36*
X93534468Y-90353565D02*
G01*
X93573138Y-90365296D01*
X93608777Y-90384346D01*
X93640017Y-90409983D01*
X93665654Y-90441223D01*
X93684704Y-90476862D01*
X93696435Y-90515532D01*
X93701000Y-90561888D01*
X93701000Y-91638112D01*
X93696435Y-91684468D01*
X93684704Y-91723138D01*
X93665654Y-91758777D01*
X93640017Y-91790017D01*
X93608777Y-91815654D01*
X93573138Y-91834704D01*
X93534468Y-91846435D01*
X93488112Y-91851000D01*
X92836888Y-91851000D01*
X92790532Y-91846435D01*
X92751862Y-91834704D01*
X92716223Y-91815654D01*
X92684983Y-91790017D01*
X92659346Y-91758777D01*
X92640296Y-91723138D01*
X92628565Y-91684468D01*
X92624000Y-91638112D01*
X92624000Y-90561888D01*
X92628565Y-90515532D01*
X92640296Y-90476862D01*
X92659346Y-90441223D01*
X92684983Y-90409983D01*
X92716223Y-90384346D01*
X92751862Y-90365296D01*
X92790532Y-90353565D01*
X92836888Y-90349000D01*
X93488112Y-90349000D01*
X93534468Y-90353565D01*
G37*
G36*
X157251000Y-91451000D02*
G01*
X155149000Y-91451000D01*
X155149000Y-89349000D01*
X157251000Y-89349000D01*
X157251000Y-91451000D01*
G37*
G36*
X93551000Y-88601000D02*
G01*
X92849000Y-88601000D01*
X92849000Y-87199000D01*
X93551000Y-87199000D01*
X93551000Y-88601000D01*
G37*
G36*
X95451000Y-88601000D02*
G01*
X94749000Y-88601000D01*
X94749000Y-87199000D01*
X95451000Y-87199000D01*
X95451000Y-88601000D01*
G37*
G36*
X99129591Y-87378085D02*
G01*
X99163569Y-87388393D01*
X99194890Y-87405134D01*
X99222339Y-87427661D01*
X99244866Y-87455110D01*
X99261607Y-87486431D01*
X99271915Y-87520409D01*
X99276000Y-87561890D01*
X99276000Y-88238110D01*
X99271915Y-88279591D01*
X99261607Y-88313569D01*
X99244866Y-88344890D01*
X99222339Y-88372339D01*
X99194890Y-88394866D01*
X99163569Y-88411607D01*
X99129591Y-88421915D01*
X99088110Y-88426000D01*
X98486890Y-88426000D01*
X98445409Y-88421915D01*
X98411431Y-88411607D01*
X98380110Y-88394866D01*
X98352661Y-88372339D01*
X98330134Y-88344890D01*
X98313393Y-88313569D01*
X98303085Y-88279591D01*
X98299000Y-88238110D01*
X98299000Y-87561890D01*
X98303085Y-87520409D01*
X98313393Y-87486431D01*
X98330134Y-87455110D01*
X98352661Y-87427661D01*
X98380110Y-87405134D01*
X98411431Y-87388393D01*
X98445409Y-87378085D01*
X98486890Y-87374000D01*
X99088110Y-87374000D01*
X99129591Y-87378085D01*
G37*
G36*
X97554591Y-87378085D02*
G01*
X97588569Y-87388393D01*
X97619890Y-87405134D01*
X97647339Y-87427661D01*
X97669866Y-87455110D01*
X97686607Y-87486431D01*
X97696915Y-87520409D01*
X97701000Y-87561890D01*
X97701000Y-88238110D01*
X97696915Y-88279591D01*
X97686607Y-88313569D01*
X97669866Y-88344890D01*
X97647339Y-88372339D01*
X97619890Y-88394866D01*
X97588569Y-88411607D01*
X97554591Y-88421915D01*
X97513110Y-88426000D01*
X96911890Y-88426000D01*
X96870409Y-88421915D01*
X96836431Y-88411607D01*
X96805110Y-88394866D01*
X96777661Y-88372339D01*
X96755134Y-88344890D01*
X96738393Y-88313569D01*
X96728085Y-88279591D01*
X96724000Y-88238110D01*
X96724000Y-87561890D01*
X96728085Y-87520409D01*
X96738393Y-87486431D01*
X96755134Y-87455110D01*
X96777661Y-87427661D01*
X96805110Y-87405134D01*
X96836431Y-87388393D01*
X96870409Y-87378085D01*
X96911890Y-87374000D01*
X97513110Y-87374000D01*
X97554591Y-87378085D01*
G37*
G36*
X127975711Y-81105702D02*
G01*
X128260775Y-81162405D01*
X128797823Y-81384857D01*
X129281153Y-81707808D01*
X129692192Y-82118847D01*
X130015143Y-82602177D01*
X130178824Y-82997339D01*
X130237595Y-83139226D01*
X130351000Y-83709351D01*
X130351000Y-84290649D01*
X130313417Y-84479591D01*
X130237595Y-84860775D01*
X130015143Y-85397823D01*
X129692192Y-85881153D01*
X129281153Y-86292192D01*
X128797823Y-86615143D01*
X128260775Y-86837595D01*
X127975712Y-86894297D01*
X127690649Y-86951000D01*
X127109351Y-86951000D01*
X126824288Y-86894297D01*
X126539225Y-86837595D01*
X126002177Y-86615143D01*
X125518847Y-86292192D01*
X125107808Y-85881153D01*
X124784857Y-85397823D01*
X124562405Y-84860775D01*
X124486583Y-84479591D01*
X124449000Y-84290649D01*
X124449000Y-83709351D01*
X124562405Y-83139226D01*
X124621176Y-82997339D01*
X124784857Y-82602177D01*
X125107808Y-82118847D01*
X125518847Y-81707808D01*
X126002177Y-81384857D01*
X126539225Y-81162405D01*
X126824289Y-81105702D01*
X127109351Y-81049000D01*
X127690649Y-81049000D01*
X127975711Y-81105702D01*
G37*
G36*
X94501000Y-86501000D02*
G01*
X93799000Y-86501000D01*
X93799000Y-85099000D01*
X94501000Y-85099000D01*
X94501000Y-86501000D01*
G37*
G36*
X91729591Y-83653085D02*
G01*
X91763569Y-83663393D01*
X91794890Y-83680134D01*
X91822339Y-83702661D01*
X91844866Y-83730110D01*
X91861607Y-83761431D01*
X91871915Y-83795409D01*
X91876000Y-83836890D01*
X91876000Y-84438110D01*
X91871915Y-84479591D01*
X91861607Y-84513569D01*
X91844866Y-84544890D01*
X91822339Y-84572339D01*
X91794890Y-84594866D01*
X91763569Y-84611607D01*
X91729591Y-84621915D01*
X91688110Y-84626000D01*
X91011890Y-84626000D01*
X90970409Y-84621915D01*
X90936431Y-84611607D01*
X90905110Y-84594866D01*
X90877661Y-84572339D01*
X90855134Y-84544890D01*
X90838393Y-84513569D01*
X90828085Y-84479591D01*
X90824000Y-84438110D01*
X90824000Y-83836890D01*
X90828085Y-83795409D01*
X90838393Y-83761431D01*
X90855134Y-83730110D01*
X90877661Y-83702661D01*
X90905110Y-83680134D01*
X90936431Y-83663393D01*
X90970409Y-83653085D01*
X91011890Y-83649000D01*
X91688110Y-83649000D01*
X91729591Y-83653085D01*
G37*
G36*
X97915816Y-81602817D02*
G01*
X97947183Y-81612332D01*
X97976089Y-81627783D01*
X98001425Y-81648575D01*
X98022217Y-81673911D01*
X98037668Y-81702817D01*
X98047183Y-81734184D01*
X98051000Y-81772940D01*
X98051000Y-83327060D01*
X98047183Y-83365816D01*
X98037668Y-83397183D01*
X98022217Y-83426089D01*
X98001425Y-83451425D01*
X97976089Y-83472217D01*
X97947183Y-83487668D01*
X97915816Y-83497183D01*
X97877060Y-83501000D01*
X96522940Y-83501000D01*
X96484184Y-83497183D01*
X96452817Y-83487668D01*
X96423911Y-83472217D01*
X96398575Y-83451425D01*
X96377783Y-83426089D01*
X96362332Y-83397183D01*
X96352817Y-83365816D01*
X96349000Y-83327060D01*
X96349000Y-81772940D01*
X96352817Y-81734184D01*
X96362332Y-81702817D01*
X96377783Y-81673911D01*
X96398575Y-81648575D01*
X96423911Y-81627783D01*
X96452817Y-81612332D01*
X96484184Y-81602817D01*
X96522940Y-81599000D01*
X97877060Y-81599000D01*
X97915816Y-81602817D01*
G37*
G36*
X94515816Y-81602817D02*
G01*
X94547183Y-81612332D01*
X94576089Y-81627783D01*
X94601425Y-81648575D01*
X94622217Y-81673911D01*
X94637668Y-81702817D01*
X94647183Y-81734184D01*
X94651000Y-81772940D01*
X94651000Y-83327060D01*
X94647183Y-83365816D01*
X94637668Y-83397183D01*
X94622217Y-83426089D01*
X94601425Y-83451425D01*
X94576089Y-83472217D01*
X94547183Y-83487668D01*
X94515816Y-83497183D01*
X94477060Y-83501000D01*
X93122940Y-83501000D01*
X93084184Y-83497183D01*
X93052817Y-83487668D01*
X93023911Y-83472217D01*
X92998575Y-83451425D01*
X92977783Y-83426089D01*
X92962332Y-83397183D01*
X92952817Y-83365816D01*
X92949000Y-83327060D01*
X92949000Y-81772940D01*
X92952817Y-81734184D01*
X92962332Y-81702817D01*
X92977783Y-81673911D01*
X92998575Y-81648575D01*
X93023911Y-81627783D01*
X93052817Y-81612332D01*
X93084184Y-81602817D01*
X93122940Y-81599000D01*
X94477060Y-81599000D01*
X94515816Y-81602817D01*
G37*
G36*
X91729591Y-82078085D02*
G01*
X91763569Y-82088393D01*
X91794890Y-82105134D01*
X91822339Y-82127661D01*
X91844866Y-82155110D01*
X91861607Y-82186431D01*
X91871915Y-82220409D01*
X91876000Y-82261890D01*
X91876000Y-82863110D01*
X91871915Y-82904591D01*
X91861607Y-82938569D01*
X91844866Y-82969890D01*
X91822339Y-82997339D01*
X91794890Y-83019866D01*
X91763569Y-83036607D01*
X91729591Y-83046915D01*
X91688110Y-83051000D01*
X91011890Y-83051000D01*
X90970409Y-83046915D01*
X90936431Y-83036607D01*
X90905110Y-83019866D01*
X90877661Y-82997339D01*
X90855134Y-82969890D01*
X90838393Y-82938569D01*
X90828085Y-82904591D01*
X90824000Y-82863110D01*
X90824000Y-82261890D01*
X90828085Y-82220409D01*
X90838393Y-82186431D01*
X90855134Y-82155110D01*
X90877661Y-82127661D01*
X90905110Y-82105134D01*
X90936431Y-82088393D01*
X90970409Y-82078085D01*
X91011890Y-82074000D01*
X91688110Y-82074000D01*
X91729591Y-82078085D01*
G37*
G36*
X94602633Y-74743428D02*
G01*
X94605977Y-74744094D01*
X94605997Y-74744096D01*
X94615873Y-74746062D01*
X94615902Y-74746071D01*
X94616390Y-74746168D01*
X94626510Y-74750360D01*
X94635607Y-74756431D01*
X94635930Y-74756754D01*
X94636013Y-74756822D01*
X94643178Y-74763987D01*
X94643246Y-74764070D01*
X94643569Y-74764393D01*
X94649640Y-74773490D01*
X94653832Y-74783610D01*
X94653929Y-74784098D01*
X94653938Y-74784127D01*
X94655904Y-74794003D01*
X94655906Y-74794023D01*
X94656572Y-74797367D01*
X94656852Y-74803077D01*
X94656852Y-76423149D01*
X94659254Y-76447535D01*
X94666367Y-76470984D01*
X94677918Y-76492595D01*
X94693463Y-76511537D01*
X94712405Y-76527082D01*
X94734016Y-76538633D01*
X94757465Y-76545746D01*
X94781851Y-76548148D01*
X96218149Y-76548148D01*
X96242535Y-76545746D01*
X96265984Y-76538633D01*
X96287595Y-76527082D01*
X96306537Y-76511537D01*
X96322082Y-76492595D01*
X96333633Y-76470984D01*
X96340746Y-76447535D01*
X96343148Y-76423149D01*
X96343148Y-74803077D01*
X96343428Y-74797367D01*
X96344094Y-74794023D01*
X96344096Y-74794003D01*
X96346062Y-74784127D01*
X96346071Y-74784098D01*
X96346168Y-74783610D01*
X96350360Y-74773490D01*
X96356431Y-74764393D01*
X96356754Y-74764070D01*
X96356822Y-74763987D01*
X96363987Y-74756822D01*
X96364070Y-74756754D01*
X96364393Y-74756431D01*
X96373490Y-74750360D01*
X96383610Y-74746168D01*
X96384098Y-74746071D01*
X96384127Y-74746062D01*
X96394003Y-74744096D01*
X96394023Y-74744094D01*
X96397367Y-74743428D01*
X96403077Y-74743148D01*
X97896923Y-74743148D01*
X97902633Y-74743428D01*
X97905977Y-74744094D01*
X97905997Y-74744096D01*
X97915873Y-74746062D01*
X97915902Y-74746071D01*
X97916390Y-74746168D01*
X97926510Y-74750360D01*
X97935607Y-74756431D01*
X97935930Y-74756754D01*
X97936013Y-74756822D01*
X97943178Y-74763987D01*
X97943246Y-74764070D01*
X97943569Y-74764393D01*
X97949640Y-74773490D01*
X97953832Y-74783610D01*
X97953929Y-74784098D01*
X97953938Y-74784127D01*
X97955904Y-74794003D01*
X97955906Y-74794023D01*
X97956572Y-74797367D01*
X97956852Y-74803077D01*
X97956852Y-80296923D01*
X97956572Y-80302633D01*
X97955906Y-80305977D01*
X97955904Y-80305997D01*
X97953938Y-80315873D01*
X97953929Y-80315902D01*
X97953832Y-80316390D01*
X97949640Y-80326510D01*
X97943569Y-80335607D01*
X97943246Y-80335930D01*
X97943178Y-80336013D01*
X97936013Y-80343178D01*
X97935930Y-80343246D01*
X97935607Y-80343569D01*
X97926510Y-80349640D01*
X97916390Y-80353832D01*
X97915902Y-80353929D01*
X97915873Y-80353938D01*
X97905997Y-80355904D01*
X97905977Y-80355906D01*
X97902633Y-80356572D01*
X97896923Y-80356852D01*
X96403077Y-80356852D01*
X96397367Y-80356572D01*
X96394023Y-80355906D01*
X96394003Y-80355904D01*
X96384127Y-80353938D01*
X96384098Y-80353929D01*
X96383610Y-80353832D01*
X96373490Y-80349640D01*
X96364393Y-80343569D01*
X96364070Y-80343246D01*
X96363987Y-80343178D01*
X96356822Y-80336013D01*
X96356754Y-80335930D01*
X96356431Y-80335607D01*
X96350360Y-80326510D01*
X96346168Y-80316390D01*
X96346071Y-80315902D01*
X96346062Y-80315873D01*
X96344096Y-80305997D01*
X96344094Y-80305977D01*
X96343428Y-80302633D01*
X96343148Y-80296923D01*
X96343148Y-78276851D01*
X96340746Y-78252465D01*
X96333633Y-78229016D01*
X96322082Y-78207405D01*
X96306537Y-78188463D01*
X96287595Y-78172918D01*
X96265984Y-78161367D01*
X96242535Y-78154254D01*
X96218149Y-78151852D01*
X94781851Y-78151852D01*
X94757465Y-78154254D01*
X94734016Y-78161367D01*
X94712405Y-78172918D01*
X94693463Y-78188463D01*
X94677918Y-78207405D01*
X94666367Y-78229016D01*
X94659254Y-78252465D01*
X94656852Y-78276851D01*
X94656852Y-80296923D01*
X94656572Y-80302633D01*
X94655906Y-80305977D01*
X94655904Y-80305997D01*
X94653938Y-80315873D01*
X94653929Y-80315902D01*
X94653832Y-80316390D01*
X94649640Y-80326510D01*
X94643569Y-80335607D01*
X94643246Y-80335930D01*
X94643178Y-80336013D01*
X94636013Y-80343178D01*
X94635930Y-80343246D01*
X94635607Y-80343569D01*
X94626510Y-80349640D01*
X94616390Y-80353832D01*
X94615902Y-80353929D01*
X94615873Y-80353938D01*
X94605997Y-80355904D01*
X94605977Y-80355906D01*
X94602633Y-80356572D01*
X94596923Y-80356852D01*
X93103077Y-80356852D01*
X93097367Y-80356572D01*
X93094023Y-80355906D01*
X93094003Y-80355904D01*
X93084127Y-80353938D01*
X93084098Y-80353929D01*
X93083610Y-80353832D01*
X93073490Y-80349640D01*
X93064393Y-80343569D01*
X93064070Y-80343246D01*
X93063987Y-80343178D01*
X93056822Y-80336013D01*
X93056754Y-80335930D01*
X93056431Y-80335607D01*
X93050360Y-80326510D01*
X93046168Y-80316390D01*
X93046071Y-80315902D01*
X93046062Y-80315873D01*
X93044096Y-80305997D01*
X93044094Y-80305977D01*
X93043428Y-80302633D01*
X93043148Y-80296923D01*
X93043148Y-74803077D01*
X93043428Y-74797367D01*
X93044094Y-74794023D01*
X93044096Y-74794003D01*
X93046062Y-74784127D01*
X93046071Y-74784098D01*
X93046168Y-74783610D01*
X93050360Y-74773490D01*
X93056431Y-74764393D01*
X93056754Y-74764070D01*
X93056822Y-74763987D01*
X93063987Y-74756822D01*
X93064070Y-74756754D01*
X93064393Y-74756431D01*
X93073490Y-74750360D01*
X93083610Y-74746168D01*
X93084098Y-74746071D01*
X93084127Y-74746062D01*
X93094003Y-74744096D01*
X93094023Y-74744094D01*
X93097367Y-74743428D01*
X93103077Y-74743148D01*
X94596923Y-74743148D01*
X94602633Y-74743428D01*
G37*
G36*
X156506564Y-76639389D02*
G01*
X156697833Y-76718615D01*
X156697835Y-76718616D01*
X156869973Y-76833635D01*
X157016365Y-76980027D01*
X157131385Y-77152167D01*
X157210611Y-77343436D01*
X157251000Y-77546484D01*
X157251000Y-77753516D01*
X157210611Y-77956564D01*
X157131385Y-78147833D01*
X157131384Y-78147835D01*
X157016365Y-78319973D01*
X156869973Y-78466365D01*
X156697835Y-78581384D01*
X156697834Y-78581385D01*
X156697833Y-78581385D01*
X156506564Y-78660611D01*
X156303516Y-78701000D01*
X156096484Y-78701000D01*
X155893436Y-78660611D01*
X155702167Y-78581385D01*
X155702166Y-78581385D01*
X155702165Y-78581384D01*
X155530027Y-78466365D01*
X155383635Y-78319973D01*
X155268616Y-78147835D01*
X155268615Y-78147833D01*
X155189389Y-77956564D01*
X155149000Y-77753516D01*
X155149000Y-77546484D01*
X155189389Y-77343436D01*
X155268615Y-77152167D01*
X155383635Y-76980027D01*
X155530027Y-76833635D01*
X155702165Y-76718616D01*
X155702167Y-76718615D01*
X155893436Y-76639389D01*
X156096484Y-76599000D01*
X156303516Y-76599000D01*
X156506564Y-76639389D01*
G37*
G36*
X98523642Y-67879781D02*
G01*
X98669414Y-67940162D01*
X98669416Y-67940163D01*
X98800608Y-68027822D01*
X98912178Y-68139392D01*
X98999837Y-68270584D01*
X98999838Y-68270586D01*
X99060219Y-68416358D01*
X99091000Y-68571107D01*
X99091000Y-68728893D01*
X99060219Y-68883642D01*
X98999838Y-69029414D01*
X98999837Y-69029416D01*
X98912178Y-69160608D01*
X98800608Y-69272178D01*
X98669416Y-69359837D01*
X98669415Y-69359838D01*
X98669414Y-69359838D01*
X98523642Y-69420219D01*
X98368893Y-69451000D01*
X98211107Y-69451000D01*
X98056358Y-69420219D01*
X97910586Y-69359838D01*
X97910585Y-69359838D01*
X97910584Y-69359837D01*
X97779392Y-69272178D01*
X97667822Y-69160608D01*
X97580163Y-69029416D01*
X97580162Y-69029414D01*
X97519781Y-68883642D01*
X97489000Y-68728893D01*
X97489000Y-68571107D01*
X97519781Y-68416358D01*
X97580162Y-68270586D01*
X97580163Y-68270584D01*
X97667822Y-68139392D01*
X97779392Y-68027822D01*
X97910584Y-67940163D01*
X97910586Y-67940162D01*
X98056358Y-67879781D01*
X98211107Y-67849000D01*
X98368893Y-67849000D01*
X98523642Y-67879781D01*
G37*
G36*
X103603642Y-67879781D02*
G01*
X103749414Y-67940162D01*
X103749416Y-67940163D01*
X103880608Y-68027822D01*
X103992178Y-68139392D01*
X104079837Y-68270584D01*
X104079838Y-68270586D01*
X104140219Y-68416358D01*
X104171000Y-68571107D01*
X104171000Y-68728893D01*
X104140219Y-68883642D01*
X104079838Y-69029414D01*
X104079837Y-69029416D01*
X103992178Y-69160608D01*
X103880608Y-69272178D01*
X103749416Y-69359837D01*
X103749415Y-69359838D01*
X103749414Y-69359838D01*
X103603642Y-69420219D01*
X103448893Y-69451000D01*
X103291107Y-69451000D01*
X103136358Y-69420219D01*
X102990586Y-69359838D01*
X102990585Y-69359838D01*
X102990584Y-69359837D01*
X102859392Y-69272178D01*
X102747822Y-69160608D01*
X102660163Y-69029416D01*
X102660162Y-69029414D01*
X102599781Y-68883642D01*
X102569000Y-68728893D01*
X102569000Y-68571107D01*
X102599781Y-68416358D01*
X102660162Y-68270586D01*
X102660163Y-68270584D01*
X102747822Y-68139392D01*
X102859392Y-68027822D01*
X102990584Y-67940163D01*
X102990586Y-67940162D01*
X103136358Y-67879781D01*
X103291107Y-67849000D01*
X103448893Y-67849000D01*
X103603642Y-67879781D01*
G37*
G36*
X106143642Y-67879781D02*
G01*
X106289414Y-67940162D01*
X106289416Y-67940163D01*
X106420608Y-68027822D01*
X106532178Y-68139392D01*
X106619837Y-68270584D01*
X106619838Y-68270586D01*
X106680219Y-68416358D01*
X106711000Y-68571107D01*
X106711000Y-68728893D01*
X106680219Y-68883642D01*
X106619838Y-69029414D01*
X106619837Y-69029416D01*
X106532178Y-69160608D01*
X106420608Y-69272178D01*
X106289416Y-69359837D01*
X106289415Y-69359838D01*
X106289414Y-69359838D01*
X106143642Y-69420219D01*
X105988893Y-69451000D01*
X105831107Y-69451000D01*
X105676358Y-69420219D01*
X105530586Y-69359838D01*
X105530585Y-69359838D01*
X105530584Y-69359837D01*
X105399392Y-69272178D01*
X105287822Y-69160608D01*
X105200163Y-69029416D01*
X105200162Y-69029414D01*
X105139781Y-68883642D01*
X105109000Y-68728893D01*
X105109000Y-68571107D01*
X105139781Y-68416358D01*
X105200162Y-68270586D01*
X105200163Y-68270584D01*
X105287822Y-68139392D01*
X105399392Y-68027822D01*
X105530584Y-67940163D01*
X105530586Y-67940162D01*
X105676358Y-67879781D01*
X105831107Y-67849000D01*
X105988893Y-67849000D01*
X106143642Y-67879781D01*
G37*
G36*
X116303642Y-67879781D02*
G01*
X116449414Y-67940162D01*
X116449416Y-67940163D01*
X116580608Y-68027822D01*
X116692178Y-68139392D01*
X116779837Y-68270584D01*
X116779838Y-68270586D01*
X116840219Y-68416358D01*
X116871000Y-68571107D01*
X116871000Y-68728893D01*
X116840219Y-68883642D01*
X116779838Y-69029414D01*
X116779837Y-69029416D01*
X116692178Y-69160608D01*
X116580608Y-69272178D01*
X116449416Y-69359837D01*
X116449415Y-69359838D01*
X116449414Y-69359838D01*
X116303642Y-69420219D01*
X116148893Y-69451000D01*
X115991107Y-69451000D01*
X115836358Y-69420219D01*
X115690586Y-69359838D01*
X115690585Y-69359838D01*
X115690584Y-69359837D01*
X115559392Y-69272178D01*
X115447822Y-69160608D01*
X115360163Y-69029416D01*
X115360162Y-69029414D01*
X115299781Y-68883642D01*
X115269000Y-68728893D01*
X115269000Y-68571107D01*
X115299781Y-68416358D01*
X115360162Y-68270586D01*
X115360163Y-68270584D01*
X115447822Y-68139392D01*
X115559392Y-68027822D01*
X115690584Y-67940163D01*
X115690586Y-67940162D01*
X115836358Y-67879781D01*
X115991107Y-67849000D01*
X116148893Y-67849000D01*
X116303642Y-67879781D01*
G37*
G36*
X118843642Y-67879781D02*
G01*
X118989414Y-67940162D01*
X118989416Y-67940163D01*
X119120608Y-68027822D01*
X119232178Y-68139392D01*
X119319837Y-68270584D01*
X119319838Y-68270586D01*
X119380219Y-68416358D01*
X119411000Y-68571107D01*
X119411000Y-68728893D01*
X119380219Y-68883642D01*
X119319838Y-69029414D01*
X119319837Y-69029416D01*
X119232178Y-69160608D01*
X119120608Y-69272178D01*
X118989416Y-69359837D01*
X118989415Y-69359838D01*
X118989414Y-69359838D01*
X118843642Y-69420219D01*
X118688893Y-69451000D01*
X118531107Y-69451000D01*
X118376358Y-69420219D01*
X118230586Y-69359838D01*
X118230585Y-69359838D01*
X118230584Y-69359837D01*
X118099392Y-69272178D01*
X117987822Y-69160608D01*
X117900163Y-69029416D01*
X117900162Y-69029414D01*
X117839781Y-68883642D01*
X117809000Y-68728893D01*
X117809000Y-68571107D01*
X117839781Y-68416358D01*
X117900162Y-68270586D01*
X117900163Y-68270584D01*
X117987822Y-68139392D01*
X118099392Y-68027822D01*
X118230584Y-67940163D01*
X118230586Y-67940162D01*
X118376358Y-67879781D01*
X118531107Y-67849000D01*
X118688893Y-67849000D01*
X118843642Y-67879781D01*
G37*
G36*
X121383642Y-67879781D02*
G01*
X121529414Y-67940162D01*
X121529416Y-67940163D01*
X121660608Y-68027822D01*
X121772178Y-68139392D01*
X121859837Y-68270584D01*
X121859838Y-68270586D01*
X121920219Y-68416358D01*
X121951000Y-68571107D01*
X121951000Y-68728893D01*
X121920219Y-68883642D01*
X121859838Y-69029414D01*
X121859837Y-69029416D01*
X121772178Y-69160608D01*
X121660608Y-69272178D01*
X121529416Y-69359837D01*
X121529415Y-69359838D01*
X121529414Y-69359838D01*
X121383642Y-69420219D01*
X121228893Y-69451000D01*
X121071107Y-69451000D01*
X120916358Y-69420219D01*
X120770586Y-69359838D01*
X120770585Y-69359838D01*
X120770584Y-69359837D01*
X120639392Y-69272178D01*
X120527822Y-69160608D01*
X120440163Y-69029416D01*
X120440162Y-69029414D01*
X120379781Y-68883642D01*
X120349000Y-68728893D01*
X120349000Y-68571107D01*
X120379781Y-68416358D01*
X120440162Y-68270586D01*
X120440163Y-68270584D01*
X120527822Y-68139392D01*
X120639392Y-68027822D01*
X120770584Y-67940163D01*
X120770586Y-67940162D01*
X120916358Y-67879781D01*
X121071107Y-67849000D01*
X121228893Y-67849000D01*
X121383642Y-67879781D01*
G37*
G36*
X123923642Y-67879781D02*
G01*
X124069414Y-67940162D01*
X124069416Y-67940163D01*
X124200608Y-68027822D01*
X124312178Y-68139392D01*
X124399837Y-68270584D01*
X124399838Y-68270586D01*
X124460219Y-68416358D01*
X124491000Y-68571107D01*
X124491000Y-68728893D01*
X124460219Y-68883642D01*
X124399838Y-69029414D01*
X124399837Y-69029416D01*
X124312178Y-69160608D01*
X124200608Y-69272178D01*
X124069416Y-69359837D01*
X124069415Y-69359838D01*
X124069414Y-69359838D01*
X123923642Y-69420219D01*
X123768893Y-69451000D01*
X123611107Y-69451000D01*
X123456358Y-69420219D01*
X123310586Y-69359838D01*
X123310585Y-69359838D01*
X123310584Y-69359837D01*
X123179392Y-69272178D01*
X123067822Y-69160608D01*
X122980163Y-69029416D01*
X122980162Y-69029414D01*
X122919781Y-68883642D01*
X122889000Y-68728893D01*
X122889000Y-68571107D01*
X122919781Y-68416358D01*
X122980162Y-68270586D01*
X122980163Y-68270584D01*
X123067822Y-68139392D01*
X123179392Y-68027822D01*
X123310584Y-67940163D01*
X123310586Y-67940162D01*
X123456358Y-67879781D01*
X123611107Y-67849000D01*
X123768893Y-67849000D01*
X123923642Y-67879781D01*
G37*
G36*
X126463642Y-67879781D02*
G01*
X126609414Y-67940162D01*
X126609416Y-67940163D01*
X126740608Y-68027822D01*
X126852178Y-68139392D01*
X126939837Y-68270584D01*
X126939838Y-68270586D01*
X127000219Y-68416358D01*
X127031000Y-68571107D01*
X127031000Y-68728893D01*
X127000219Y-68883642D01*
X126939838Y-69029414D01*
X126939837Y-69029416D01*
X126852178Y-69160608D01*
X126740608Y-69272178D01*
X126609416Y-69359837D01*
X126609415Y-69359838D01*
X126609414Y-69359838D01*
X126463642Y-69420219D01*
X126308893Y-69451000D01*
X126151107Y-69451000D01*
X125996358Y-69420219D01*
X125850586Y-69359838D01*
X125850585Y-69359838D01*
X125850584Y-69359837D01*
X125719392Y-69272178D01*
X125607822Y-69160608D01*
X125520163Y-69029416D01*
X125520162Y-69029414D01*
X125459781Y-68883642D01*
X125429000Y-68728893D01*
X125429000Y-68571107D01*
X125459781Y-68416358D01*
X125520162Y-68270586D01*
X125520163Y-68270584D01*
X125607822Y-68139392D01*
X125719392Y-68027822D01*
X125850584Y-67940163D01*
X125850586Y-67940162D01*
X125996358Y-67879781D01*
X126151107Y-67849000D01*
X126308893Y-67849000D01*
X126463642Y-67879781D01*
G37*
G36*
X96551000Y-69451000D02*
G01*
X94949000Y-69451000D01*
X94949000Y-67849000D01*
X96551000Y-67849000D01*
X96551000Y-69451000D01*
G37*
G36*
X101063642Y-67879781D02*
G01*
X101209414Y-67940162D01*
X101209416Y-67940163D01*
X101340608Y-68027822D01*
X101452178Y-68139392D01*
X101539837Y-68270584D01*
X101539838Y-68270586D01*
X101600219Y-68416358D01*
X101631000Y-68571107D01*
X101631000Y-68728893D01*
X101600219Y-68883642D01*
X101539838Y-69029414D01*
X101539837Y-69029416D01*
X101452178Y-69160608D01*
X101340608Y-69272178D01*
X101209416Y-69359837D01*
X101209415Y-69359838D01*
X101209414Y-69359838D01*
X101063642Y-69420219D01*
X100908893Y-69451000D01*
X100751107Y-69451000D01*
X100596358Y-69420219D01*
X100450586Y-69359838D01*
X100450585Y-69359838D01*
X100450584Y-69359837D01*
X100319392Y-69272178D01*
X100207822Y-69160608D01*
X100120163Y-69029416D01*
X100120162Y-69029414D01*
X100059781Y-68883642D01*
X100029000Y-68728893D01*
X100029000Y-68571107D01*
X100059781Y-68416358D01*
X100120162Y-68270586D01*
X100120163Y-68270584D01*
X100207822Y-68139392D01*
X100319392Y-68027822D01*
X100450584Y-67940163D01*
X100450586Y-67940162D01*
X100596358Y-67879781D01*
X100751107Y-67849000D01*
X100908893Y-67849000D01*
X101063642Y-67879781D01*
G37*
G36*
X133784468Y-60503565D02*
G01*
X133823138Y-60515296D01*
X133858777Y-60534346D01*
X133890017Y-60559983D01*
X133915654Y-60591223D01*
X133934704Y-60626862D01*
X133946435Y-60665532D01*
X133951000Y-60711888D01*
X133951000Y-61363112D01*
X133946435Y-61409468D01*
X133934704Y-61448138D01*
X133915654Y-61483777D01*
X133890017Y-61515017D01*
X133858777Y-61540654D01*
X133823138Y-61559704D01*
X133784468Y-61571435D01*
X133738112Y-61576000D01*
X132661888Y-61576000D01*
X132615532Y-61571435D01*
X132576862Y-61559704D01*
X132541223Y-61540654D01*
X132509983Y-61515017D01*
X132484346Y-61483777D01*
X132465296Y-61448138D01*
X132453565Y-61409468D01*
X132449000Y-61363112D01*
X132449000Y-60711888D01*
X132453565Y-60665532D01*
X132465296Y-60626862D01*
X132484346Y-60591223D01*
X132509983Y-60559983D01*
X132541223Y-60534346D01*
X132576862Y-60515296D01*
X132615532Y-60503565D01*
X132661888Y-60499000D01*
X133738112Y-60499000D01*
X133784468Y-60503565D01*
G37*
G36*
X133784468Y-58628565D02*
G01*
X133823138Y-58640296D01*
X133858777Y-58659346D01*
X133890017Y-58684983D01*
X133915654Y-58716223D01*
X133934704Y-58751862D01*
X133946435Y-58790532D01*
X133951000Y-58836888D01*
X133951000Y-59488112D01*
X133946435Y-59534468D01*
X133934704Y-59573138D01*
X133915654Y-59608777D01*
X133890017Y-59640017D01*
X133858777Y-59665654D01*
X133823138Y-59684704D01*
X133784468Y-59696435D01*
X133738112Y-59701000D01*
X132661888Y-59701000D01*
X132615532Y-59696435D01*
X132576862Y-59684704D01*
X132541223Y-59665654D01*
X132509983Y-59640017D01*
X132484346Y-59608777D01*
X132465296Y-59573138D01*
X132453565Y-59534468D01*
X132449000Y-59488112D01*
X132449000Y-58836888D01*
X132453565Y-58790532D01*
X132465296Y-58751862D01*
X132484346Y-58716223D01*
X132509983Y-58684983D01*
X132541223Y-58659346D01*
X132576862Y-58640296D01*
X132615532Y-58628565D01*
X132661888Y-58624000D01*
X133738112Y-58624000D01*
X133784468Y-58628565D01*
G37*
G36*
X123923642Y-55179781D02*
G01*
X124069414Y-55240162D01*
X124069416Y-55240163D01*
X124200608Y-55327822D01*
X124312178Y-55439392D01*
X124399837Y-55570584D01*
X124399838Y-55570586D01*
X124460219Y-55716358D01*
X124491000Y-55871107D01*
X124491000Y-56028893D01*
X124460219Y-56183642D01*
X124399838Y-56329414D01*
X124399837Y-56329416D01*
X124312178Y-56460608D01*
X124200608Y-56572178D01*
X124069416Y-56659837D01*
X124069415Y-56659838D01*
X124069414Y-56659838D01*
X123923642Y-56720219D01*
X123768893Y-56751000D01*
X123611107Y-56751000D01*
X123456358Y-56720219D01*
X123310586Y-56659838D01*
X123310585Y-56659838D01*
X123310584Y-56659837D01*
X123179392Y-56572178D01*
X123067822Y-56460608D01*
X122980163Y-56329416D01*
X122980162Y-56329414D01*
X122919781Y-56183642D01*
X122889000Y-56028893D01*
X122889000Y-55871107D01*
X122919781Y-55716358D01*
X122980162Y-55570586D01*
X122980163Y-55570584D01*
X123067822Y-55439392D01*
X123179392Y-55327822D01*
X123310584Y-55240163D01*
X123310586Y-55240162D01*
X123456358Y-55179781D01*
X123611107Y-55149000D01*
X123768893Y-55149000D01*
X123923642Y-55179781D01*
G37*
G36*
X126463642Y-55179781D02*
G01*
X126609414Y-55240162D01*
X126609416Y-55240163D01*
X126740608Y-55327822D01*
X126852178Y-55439392D01*
X126939837Y-55570584D01*
X126939838Y-55570586D01*
X127000219Y-55716358D01*
X127031000Y-55871107D01*
X127031000Y-56028893D01*
X127000219Y-56183642D01*
X126939838Y-56329414D01*
X126939837Y-56329416D01*
X126852178Y-56460608D01*
X126740608Y-56572178D01*
X126609416Y-56659837D01*
X126609415Y-56659838D01*
X126609414Y-56659838D01*
X126463642Y-56720219D01*
X126308893Y-56751000D01*
X126151107Y-56751000D01*
X125996358Y-56720219D01*
X125850586Y-56659838D01*
X125850585Y-56659838D01*
X125850584Y-56659837D01*
X125719392Y-56572178D01*
X125607822Y-56460608D01*
X125520163Y-56329416D01*
X125520162Y-56329414D01*
X125459781Y-56183642D01*
X125429000Y-56028893D01*
X125429000Y-55871107D01*
X125459781Y-55716358D01*
X125520162Y-55570586D01*
X125520163Y-55570584D01*
X125607822Y-55439392D01*
X125719392Y-55327822D01*
X125850584Y-55240163D01*
X125850586Y-55240162D01*
X125996358Y-55179781D01*
X126151107Y-55149000D01*
X126308893Y-55149000D01*
X126463642Y-55179781D01*
G37*
G36*
X121383642Y-55179781D02*
G01*
X121529414Y-55240162D01*
X121529416Y-55240163D01*
X121660608Y-55327822D01*
X121772178Y-55439392D01*
X121859837Y-55570584D01*
X121859838Y-55570586D01*
X121920219Y-55716358D01*
X121951000Y-55871107D01*
X121951000Y-56028893D01*
X121920219Y-56183642D01*
X121859838Y-56329414D01*
X121859837Y-56329416D01*
X121772178Y-56460608D01*
X121660608Y-56572178D01*
X121529416Y-56659837D01*
X121529415Y-56659838D01*
X121529414Y-56659838D01*
X121383642Y-56720219D01*
X121228893Y-56751000D01*
X121071107Y-56751000D01*
X120916358Y-56720219D01*
X120770586Y-56659838D01*
X120770585Y-56659838D01*
X120770584Y-56659837D01*
X120639392Y-56572178D01*
X120527822Y-56460608D01*
X120440163Y-56329416D01*
X120440162Y-56329414D01*
X120379781Y-56183642D01*
X120349000Y-56028893D01*
X120349000Y-55871107D01*
X120379781Y-55716358D01*
X120440162Y-55570586D01*
X120440163Y-55570584D01*
X120527822Y-55439392D01*
X120639392Y-55327822D01*
X120770584Y-55240163D01*
X120770586Y-55240162D01*
X120916358Y-55179781D01*
X121071107Y-55149000D01*
X121228893Y-55149000D01*
X121383642Y-55179781D01*
G37*
G36*
X118843642Y-55179781D02*
G01*
X118989414Y-55240162D01*
X118989416Y-55240163D01*
X119120608Y-55327822D01*
X119232178Y-55439392D01*
X119319837Y-55570584D01*
X119319838Y-55570586D01*
X119380219Y-55716358D01*
X119411000Y-55871107D01*
X119411000Y-56028893D01*
X119380219Y-56183642D01*
X119319838Y-56329414D01*
X119319837Y-56329416D01*
X119232178Y-56460608D01*
X119120608Y-56572178D01*
X118989416Y-56659837D01*
X118989415Y-56659838D01*
X118989414Y-56659838D01*
X118843642Y-56720219D01*
X118688893Y-56751000D01*
X118531107Y-56751000D01*
X118376358Y-56720219D01*
X118230586Y-56659838D01*
X118230585Y-56659838D01*
X118230584Y-56659837D01*
X118099392Y-56572178D01*
X117987822Y-56460608D01*
X117900163Y-56329416D01*
X117900162Y-56329414D01*
X117839781Y-56183642D01*
X117809000Y-56028893D01*
X117809000Y-55871107D01*
X117839781Y-55716358D01*
X117900162Y-55570586D01*
X117900163Y-55570584D01*
X117987822Y-55439392D01*
X118099392Y-55327822D01*
X118230584Y-55240163D01*
X118230586Y-55240162D01*
X118376358Y-55179781D01*
X118531107Y-55149000D01*
X118688893Y-55149000D01*
X118843642Y-55179781D01*
G37*
G36*
X98523642Y-55179781D02*
G01*
X98669414Y-55240162D01*
X98669416Y-55240163D01*
X98800608Y-55327822D01*
X98912178Y-55439392D01*
X98999837Y-55570584D01*
X98999838Y-55570586D01*
X99060219Y-55716358D01*
X99091000Y-55871107D01*
X99091000Y-56028893D01*
X99060219Y-56183642D01*
X98999838Y-56329414D01*
X98999837Y-56329416D01*
X98912178Y-56460608D01*
X98800608Y-56572178D01*
X98669416Y-56659837D01*
X98669415Y-56659838D01*
X98669414Y-56659838D01*
X98523642Y-56720219D01*
X98368893Y-56751000D01*
X98211107Y-56751000D01*
X98056358Y-56720219D01*
X97910586Y-56659838D01*
X97910585Y-56659838D01*
X97910584Y-56659837D01*
X97779392Y-56572178D01*
X97667822Y-56460608D01*
X97580163Y-56329416D01*
X97580162Y-56329414D01*
X97519781Y-56183642D01*
X97489000Y-56028893D01*
X97489000Y-55871107D01*
X97519781Y-55716358D01*
X97580162Y-55570586D01*
X97580163Y-55570584D01*
X97667822Y-55439392D01*
X97779392Y-55327822D01*
X97910584Y-55240163D01*
X97910586Y-55240162D01*
X98056358Y-55179781D01*
X98211107Y-55149000D01*
X98368893Y-55149000D01*
X98523642Y-55179781D01*
G37*
G36*
X116303642Y-55179781D02*
G01*
X116449414Y-55240162D01*
X116449416Y-55240163D01*
X116580608Y-55327822D01*
X116692178Y-55439392D01*
X116779837Y-55570584D01*
X116779838Y-55570586D01*
X116840219Y-55716358D01*
X116871000Y-55871107D01*
X116871000Y-56028893D01*
X116840219Y-56183642D01*
X116779838Y-56329414D01*
X116779837Y-56329416D01*
X116692178Y-56460608D01*
X116580608Y-56572178D01*
X116449416Y-56659837D01*
X116449415Y-56659838D01*
X116449414Y-56659838D01*
X116303642Y-56720219D01*
X116148893Y-56751000D01*
X115991107Y-56751000D01*
X115836358Y-56720219D01*
X115690586Y-56659838D01*
X115690585Y-56659838D01*
X115690584Y-56659837D01*
X115559392Y-56572178D01*
X115447822Y-56460608D01*
X115360163Y-56329416D01*
X115360162Y-56329414D01*
X115299781Y-56183642D01*
X115269000Y-56028893D01*
X115269000Y-55871107D01*
X115299781Y-55716358D01*
X115360162Y-55570586D01*
X115360163Y-55570584D01*
X115447822Y-55439392D01*
X115559392Y-55327822D01*
X115690584Y-55240163D01*
X115690586Y-55240162D01*
X115836358Y-55179781D01*
X115991107Y-55149000D01*
X116148893Y-55149000D01*
X116303642Y-55179781D01*
G37*
G36*
X106143642Y-55179781D02*
G01*
X106289414Y-55240162D01*
X106289416Y-55240163D01*
X106420608Y-55327822D01*
X106532178Y-55439392D01*
X106619837Y-55570584D01*
X106619838Y-55570586D01*
X106680219Y-55716358D01*
X106711000Y-55871107D01*
X106711000Y-56028893D01*
X106680219Y-56183642D01*
X106619838Y-56329414D01*
X106619837Y-56329416D01*
X106532178Y-56460608D01*
X106420608Y-56572178D01*
X106289416Y-56659837D01*
X106289415Y-56659838D01*
X106289414Y-56659838D01*
X106143642Y-56720219D01*
X105988893Y-56751000D01*
X105831107Y-56751000D01*
X105676358Y-56720219D01*
X105530586Y-56659838D01*
X105530585Y-56659838D01*
X105530584Y-56659837D01*
X105399392Y-56572178D01*
X105287822Y-56460608D01*
X105200163Y-56329416D01*
X105200162Y-56329414D01*
X105139781Y-56183642D01*
X105109000Y-56028893D01*
X105109000Y-55871107D01*
X105139781Y-55716358D01*
X105200162Y-55570586D01*
X105200163Y-55570584D01*
X105287822Y-55439392D01*
X105399392Y-55327822D01*
X105530584Y-55240163D01*
X105530586Y-55240162D01*
X105676358Y-55179781D01*
X105831107Y-55149000D01*
X105988893Y-55149000D01*
X106143642Y-55179781D01*
G37*
G36*
X103603642Y-55179781D02*
G01*
X103749414Y-55240162D01*
X103749416Y-55240163D01*
X103880608Y-55327822D01*
X103992178Y-55439392D01*
X104079837Y-55570584D01*
X104079838Y-55570586D01*
X104140219Y-55716358D01*
X104171000Y-55871107D01*
X104171000Y-56028893D01*
X104140219Y-56183642D01*
X104079838Y-56329414D01*
X104079837Y-56329416D01*
X103992178Y-56460608D01*
X103880608Y-56572178D01*
X103749416Y-56659837D01*
X103749415Y-56659838D01*
X103749414Y-56659838D01*
X103603642Y-56720219D01*
X103448893Y-56751000D01*
X103291107Y-56751000D01*
X103136358Y-56720219D01*
X102990586Y-56659838D01*
X102990585Y-56659838D01*
X102990584Y-56659837D01*
X102859392Y-56572178D01*
X102747822Y-56460608D01*
X102660163Y-56329416D01*
X102660162Y-56329414D01*
X102599781Y-56183642D01*
X102569000Y-56028893D01*
X102569000Y-55871107D01*
X102599781Y-55716358D01*
X102660162Y-55570586D01*
X102660163Y-55570584D01*
X102747822Y-55439392D01*
X102859392Y-55327822D01*
X102990584Y-55240163D01*
X102990586Y-55240162D01*
X103136358Y-55179781D01*
X103291107Y-55149000D01*
X103448893Y-55149000D01*
X103603642Y-55179781D01*
G37*
G36*
X101063642Y-55179781D02*
G01*
X101209414Y-55240162D01*
X101209416Y-55240163D01*
X101340608Y-55327822D01*
X101452178Y-55439392D01*
X101539837Y-55570584D01*
X101539838Y-55570586D01*
X101600219Y-55716358D01*
X101631000Y-55871107D01*
X101631000Y-56028893D01*
X101600219Y-56183642D01*
X101539838Y-56329414D01*
X101539837Y-56329416D01*
X101452178Y-56460608D01*
X101340608Y-56572178D01*
X101209416Y-56659837D01*
X101209415Y-56659838D01*
X101209414Y-56659838D01*
X101063642Y-56720219D01*
X100908893Y-56751000D01*
X100751107Y-56751000D01*
X100596358Y-56720219D01*
X100450586Y-56659838D01*
X100450585Y-56659838D01*
X100450584Y-56659837D01*
X100319392Y-56572178D01*
X100207822Y-56460608D01*
X100120163Y-56329416D01*
X100120162Y-56329414D01*
X100059781Y-56183642D01*
X100029000Y-56028893D01*
X100029000Y-55871107D01*
X100059781Y-55716358D01*
X100120162Y-55570586D01*
X100120163Y-55570584D01*
X100207822Y-55439392D01*
X100319392Y-55327822D01*
X100450584Y-55240163D01*
X100450586Y-55240162D01*
X100596358Y-55179781D01*
X100751107Y-55149000D01*
X100908893Y-55149000D01*
X101063642Y-55179781D01*
G37*
G36*
X95983642Y-55179781D02*
G01*
X96129414Y-55240162D01*
X96129416Y-55240163D01*
X96260608Y-55327822D01*
X96372178Y-55439392D01*
X96459837Y-55570584D01*
X96459838Y-55570586D01*
X96520219Y-55716358D01*
X96551000Y-55871107D01*
X96551000Y-56028893D01*
X96520219Y-56183642D01*
X96459838Y-56329414D01*
X96459837Y-56329416D01*
X96372178Y-56460608D01*
X96260608Y-56572178D01*
X96129416Y-56659837D01*
X96129415Y-56659838D01*
X96129414Y-56659838D01*
X95983642Y-56720219D01*
X95828893Y-56751000D01*
X95671107Y-56751000D01*
X95516358Y-56720219D01*
X95370586Y-56659838D01*
X95370585Y-56659838D01*
X95370584Y-56659837D01*
X95239392Y-56572178D01*
X95127822Y-56460608D01*
X95040163Y-56329416D01*
X95040162Y-56329414D01*
X94979781Y-56183642D01*
X94949000Y-56028893D01*
X94949000Y-55871107D01*
X94979781Y-55716358D01*
X95040162Y-55570586D01*
X95040163Y-55570584D01*
X95127822Y-55439392D01*
X95239392Y-55327822D01*
X95370584Y-55240163D01*
X95370586Y-55240162D01*
X95516358Y-55179781D01*
X95671107Y-55149000D01*
X95828893Y-55149000D01*
X95983642Y-55179781D01*
G37*
G36*
X159906564Y-54039389D02*
G01*
X160097833Y-54118615D01*
X160097835Y-54118616D01*
X160269973Y-54233635D01*
X160416365Y-54380027D01*
X160487769Y-54486890D01*
X160531385Y-54552167D01*
X160610611Y-54743436D01*
X160651000Y-54946484D01*
X160651000Y-55153516D01*
X160610611Y-55356564D01*
X160576302Y-55439393D01*
X160531384Y-55547835D01*
X160416365Y-55719973D01*
X160269973Y-55866365D01*
X160097835Y-55981384D01*
X160097834Y-55981385D01*
X160097833Y-55981385D01*
X159906564Y-56060611D01*
X159703516Y-56101000D01*
X159496484Y-56101000D01*
X159293436Y-56060611D01*
X159102167Y-55981385D01*
X159102166Y-55981385D01*
X159102165Y-55981384D01*
X158930027Y-55866365D01*
X158783635Y-55719973D01*
X158668616Y-55547835D01*
X158623698Y-55439393D01*
X158589389Y-55356564D01*
X158549000Y-55153516D01*
X158549000Y-54946484D01*
X158589389Y-54743436D01*
X158668615Y-54552167D01*
X158712232Y-54486890D01*
X158783635Y-54380027D01*
X158930027Y-54233635D01*
X159102165Y-54118616D01*
X159102167Y-54118615D01*
X159293436Y-54039389D01*
X159496484Y-53999000D01*
X159703516Y-53999000D01*
X159906564Y-54039389D01*
G37*
G36*
X150651000Y-56101000D02*
G01*
X148549000Y-56101000D01*
X148549000Y-53999000D01*
X150651000Y-53999000D01*
X150651000Y-56101000D01*
G37*
G36*
X141779591Y-54303085D02*
G01*
X141813569Y-54313393D01*
X141844890Y-54330134D01*
X141872339Y-54352661D01*
X141894866Y-54380110D01*
X141911607Y-54411431D01*
X141921915Y-54445409D01*
X141926000Y-54486890D01*
X141926000Y-55088110D01*
X141921915Y-55129591D01*
X141911607Y-55163569D01*
X141894866Y-55194890D01*
X141872339Y-55222339D01*
X141844890Y-55244866D01*
X141813569Y-55261607D01*
X141779591Y-55271915D01*
X141738110Y-55276000D01*
X141061890Y-55276000D01*
X141020409Y-55271915D01*
X140986431Y-55261607D01*
X140955110Y-55244866D01*
X140927661Y-55222339D01*
X140905134Y-55194890D01*
X140888393Y-55163569D01*
X140878085Y-55129591D01*
X140874000Y-55088110D01*
X140874000Y-54486890D01*
X140878085Y-54445409D01*
X140888393Y-54411431D01*
X140905134Y-54380110D01*
X140927661Y-54352661D01*
X140955110Y-54330134D01*
X140986431Y-54313393D01*
X141020409Y-54303085D01*
X141061890Y-54299000D01*
X141738110Y-54299000D01*
X141779591Y-54303085D01*
G37*
G36*
X141779591Y-52728085D02*
G01*
X141813569Y-52738393D01*
X141844890Y-52755134D01*
X141872339Y-52777661D01*
X141894866Y-52805110D01*
X141911607Y-52836431D01*
X141921915Y-52870409D01*
X141926000Y-52911890D01*
X141926000Y-53513110D01*
X141921915Y-53554591D01*
X141911607Y-53588569D01*
X141894866Y-53619890D01*
X141872339Y-53647339D01*
X141844890Y-53669866D01*
X141813569Y-53686607D01*
X141779591Y-53696915D01*
X141738110Y-53701000D01*
X141061890Y-53701000D01*
X141020409Y-53696915D01*
X140986431Y-53686607D01*
X140955110Y-53669866D01*
X140927661Y-53647339D01*
X140905134Y-53619890D01*
X140888393Y-53588569D01*
X140878085Y-53554591D01*
X140874000Y-53513110D01*
X140874000Y-52911890D01*
X140878085Y-52870409D01*
X140888393Y-52836431D01*
X140905134Y-52805110D01*
X140927661Y-52777661D01*
X140955110Y-52755134D01*
X140986431Y-52738393D01*
X141020409Y-52728085D01*
X141061890Y-52724000D01*
X141738110Y-52724000D01*
X141779591Y-52728085D01*
G37*
G36*
X134006564Y-50539389D02*
G01*
X134197833Y-50618615D01*
X134197835Y-50618616D01*
X134369973Y-50733635D01*
X134516365Y-50880027D01*
X134561672Y-50947833D01*
X134631385Y-51052167D01*
X134710611Y-51243436D01*
X134751000Y-51446484D01*
X134751000Y-51653516D01*
X134710611Y-51856564D01*
X134631385Y-52047833D01*
X134631384Y-52047835D01*
X134516365Y-52219973D01*
X134369973Y-52366365D01*
X134197835Y-52481384D01*
X134197834Y-52481385D01*
X134197833Y-52481385D01*
X134006564Y-52560611D01*
X133803516Y-52601000D01*
X133596484Y-52601000D01*
X133393436Y-52560611D01*
X133202167Y-52481385D01*
X133202166Y-52481385D01*
X133202165Y-52481384D01*
X133030027Y-52366365D01*
X132883635Y-52219973D01*
X132768616Y-52047835D01*
X132768615Y-52047833D01*
X132689389Y-51856564D01*
X132649000Y-51653516D01*
X132649000Y-51446484D01*
X132689389Y-51243436D01*
X132768615Y-51052167D01*
X132838329Y-50947833D01*
X132883635Y-50880027D01*
X133030027Y-50733635D01*
X133202165Y-50618616D01*
X133202167Y-50618615D01*
X133393436Y-50539389D01*
X133596484Y-50499000D01*
X133803516Y-50499000D01*
X134006564Y-50539389D01*
G37*
G36*
X139606564Y-50539389D02*
G01*
X139797833Y-50618615D01*
X139797835Y-50618616D01*
X139969973Y-50733635D01*
X140116365Y-50880027D01*
X140161672Y-50947833D01*
X140231385Y-51052167D01*
X140310611Y-51243436D01*
X140351000Y-51446484D01*
X140351000Y-51653516D01*
X140310611Y-51856564D01*
X140231385Y-52047833D01*
X140231384Y-52047835D01*
X140116365Y-52219973D01*
X139969973Y-52366365D01*
X139797835Y-52481384D01*
X139797834Y-52481385D01*
X139797833Y-52481385D01*
X139606564Y-52560611D01*
X139403516Y-52601000D01*
X139196484Y-52601000D01*
X138993436Y-52560611D01*
X138802167Y-52481385D01*
X138802166Y-52481385D01*
X138802165Y-52481384D01*
X138630027Y-52366365D01*
X138483635Y-52219973D01*
X138368616Y-52047835D01*
X138368615Y-52047833D01*
X138289389Y-51856564D01*
X138249000Y-51653516D01*
X138249000Y-51446484D01*
X138289389Y-51243436D01*
X138368615Y-51052167D01*
X138438329Y-50947833D01*
X138483635Y-50880027D01*
X138630027Y-50733635D01*
X138802165Y-50618616D01*
X138802167Y-50618615D01*
X138993436Y-50539389D01*
X139196484Y-50499000D01*
X139403516Y-50499000D01*
X139606564Y-50539389D01*
G37*
G36*
X136748228Y-50731703D02*
G01*
X136903100Y-50795853D01*
X137042481Y-50888985D01*
X137161015Y-51007519D01*
X137254147Y-51146900D01*
X137318297Y-51301772D01*
X137351000Y-51466184D01*
X137351000Y-51633816D01*
X137318297Y-51798228D01*
X137254147Y-51953100D01*
X137161015Y-52092481D01*
X137042481Y-52211015D01*
X136903100Y-52304147D01*
X136748228Y-52368297D01*
X136583816Y-52401000D01*
X136416184Y-52401000D01*
X136251772Y-52368297D01*
X136096900Y-52304147D01*
X135957519Y-52211015D01*
X135838985Y-52092481D01*
X135745853Y-51953100D01*
X135681703Y-51798228D01*
X135649000Y-51633816D01*
X135649000Y-51466184D01*
X135681703Y-51301772D01*
X135745853Y-51146900D01*
X135838985Y-51007519D01*
X135957519Y-50888985D01*
X136096900Y-50795853D01*
X136251772Y-50731703D01*
X136416184Y-50699000D01*
X136583816Y-50699000D01*
X136748228Y-50731703D01*
G37*
G36*
X92156564Y-49439389D02*
G01*
X92347833Y-49518615D01*
X92347835Y-49518616D01*
X92519973Y-49633635D01*
X92666365Y-49780027D01*
X92781385Y-49952167D01*
X92860611Y-50143436D01*
X92901000Y-50346484D01*
X92901000Y-50553516D01*
X92860611Y-50756564D01*
X92781385Y-50947833D01*
X92781384Y-50947835D01*
X92666365Y-51119973D01*
X92519973Y-51266365D01*
X92347835Y-51381384D01*
X92347834Y-51381385D01*
X92347833Y-51381385D01*
X92156564Y-51460611D01*
X91953516Y-51501000D01*
X91746484Y-51501000D01*
X91543436Y-51460611D01*
X91352167Y-51381385D01*
X91352166Y-51381385D01*
X91352165Y-51381384D01*
X91180027Y-51266365D01*
X91033635Y-51119973D01*
X90918616Y-50947835D01*
X90918615Y-50947833D01*
X90839389Y-50756564D01*
X90799000Y-50553516D01*
X90799000Y-50346484D01*
X90839389Y-50143436D01*
X90918615Y-49952167D01*
X91033635Y-49780027D01*
X91180027Y-49633635D01*
X91352165Y-49518616D01*
X91352167Y-49518615D01*
X91543436Y-49439389D01*
X91746484Y-49399000D01*
X91953516Y-49399000D01*
X92156564Y-49439389D01*
G37*
G36*
X98656564Y-49439389D02*
G01*
X98847833Y-49518615D01*
X98847835Y-49518616D01*
X99019973Y-49633635D01*
X99166365Y-49780027D01*
X99281385Y-49952167D01*
X99360611Y-50143436D01*
X99401000Y-50346484D01*
X99401000Y-50553516D01*
X99360611Y-50756564D01*
X99281385Y-50947833D01*
X99281384Y-50947835D01*
X99166365Y-51119973D01*
X99019973Y-51266365D01*
X98847835Y-51381384D01*
X98847834Y-51381385D01*
X98847833Y-51381385D01*
X98656564Y-51460611D01*
X98453516Y-51501000D01*
X98246484Y-51501000D01*
X98043436Y-51460611D01*
X97852167Y-51381385D01*
X97852166Y-51381385D01*
X97852165Y-51381384D01*
X97680027Y-51266365D01*
X97533635Y-51119973D01*
X97418616Y-50947835D01*
X97418615Y-50947833D01*
X97339389Y-50756564D01*
X97299000Y-50553516D01*
X97299000Y-50346484D01*
X97339389Y-50143436D01*
X97418615Y-49952167D01*
X97533635Y-49780027D01*
X97680027Y-49633635D01*
X97852165Y-49518616D01*
X97852167Y-49518615D01*
X98043436Y-49439389D01*
X98246484Y-49399000D01*
X98453516Y-49399000D01*
X98656564Y-49439389D01*
G37*
G36*
X102056564Y-49439389D02*
G01*
X102247833Y-49518615D01*
X102247835Y-49518616D01*
X102419973Y-49633635D01*
X102566365Y-49780027D01*
X102681385Y-49952167D01*
X102760611Y-50143436D01*
X102801000Y-50346484D01*
X102801000Y-50553516D01*
X102760611Y-50756564D01*
X102681385Y-50947833D01*
X102681384Y-50947835D01*
X102566365Y-51119973D01*
X102419973Y-51266365D01*
X102247835Y-51381384D01*
X102247834Y-51381385D01*
X102247833Y-51381385D01*
X102056564Y-51460611D01*
X101853516Y-51501000D01*
X101646484Y-51501000D01*
X101443436Y-51460611D01*
X101252167Y-51381385D01*
X101252166Y-51381385D01*
X101252165Y-51381384D01*
X101080027Y-51266365D01*
X100933635Y-51119973D01*
X100818616Y-50947835D01*
X100818615Y-50947833D01*
X100739389Y-50756564D01*
X100699000Y-50553516D01*
X100699000Y-50346484D01*
X100739389Y-50143436D01*
X100818615Y-49952167D01*
X100933635Y-49780027D01*
X101080027Y-49633635D01*
X101252165Y-49518616D01*
X101252167Y-49518615D01*
X101443436Y-49439389D01*
X101646484Y-49399000D01*
X101853516Y-49399000D01*
X102056564Y-49439389D01*
G37*
G36*
X128456564Y-49439389D02*
G01*
X128647833Y-49518615D01*
X128647835Y-49518616D01*
X128819973Y-49633635D01*
X128966365Y-49780027D01*
X129081385Y-49952167D01*
X129160611Y-50143436D01*
X129201000Y-50346484D01*
X129201000Y-50553516D01*
X129160611Y-50756564D01*
X129081385Y-50947833D01*
X129081384Y-50947835D01*
X128966365Y-51119973D01*
X128819973Y-51266365D01*
X128647835Y-51381384D01*
X128647834Y-51381385D01*
X128647833Y-51381385D01*
X128456564Y-51460611D01*
X128253516Y-51501000D01*
X128046484Y-51501000D01*
X127843436Y-51460611D01*
X127652167Y-51381385D01*
X127652166Y-51381385D01*
X127652165Y-51381384D01*
X127480027Y-51266365D01*
X127333635Y-51119973D01*
X127218616Y-50947835D01*
X127218615Y-50947833D01*
X127139389Y-50756564D01*
X127099000Y-50553516D01*
X127099000Y-50346484D01*
X127139389Y-50143436D01*
X127218615Y-49952167D01*
X127333635Y-49780027D01*
X127480027Y-49633635D01*
X127652165Y-49518616D01*
X127652167Y-49518615D01*
X127843436Y-49439389D01*
X128046484Y-49399000D01*
X128253516Y-49399000D01*
X128456564Y-49439389D01*
G37*
G36*
X121956564Y-49439389D02*
G01*
X122147833Y-49518615D01*
X122147835Y-49518616D01*
X122319973Y-49633635D01*
X122466365Y-49780027D01*
X122581385Y-49952167D01*
X122660611Y-50143436D01*
X122701000Y-50346484D01*
X122701000Y-50553516D01*
X122660611Y-50756564D01*
X122581385Y-50947833D01*
X122581384Y-50947835D01*
X122466365Y-51119973D01*
X122319973Y-51266365D01*
X122147835Y-51381384D01*
X122147834Y-51381385D01*
X122147833Y-51381385D01*
X121956564Y-51460611D01*
X121753516Y-51501000D01*
X121546484Y-51501000D01*
X121343436Y-51460611D01*
X121152167Y-51381385D01*
X121152166Y-51381385D01*
X121152165Y-51381384D01*
X120980027Y-51266365D01*
X120833635Y-51119973D01*
X120718616Y-50947835D01*
X120718615Y-50947833D01*
X120639389Y-50756564D01*
X120599000Y-50553516D01*
X120599000Y-50346484D01*
X120639389Y-50143436D01*
X120718615Y-49952167D01*
X120833635Y-49780027D01*
X120980027Y-49633635D01*
X121152165Y-49518616D01*
X121152167Y-49518615D01*
X121343436Y-49439389D01*
X121546484Y-49399000D01*
X121753516Y-49399000D01*
X121956564Y-49439389D01*
G37*
G36*
X118456564Y-49439389D02*
G01*
X118647833Y-49518615D01*
X118647835Y-49518616D01*
X118819973Y-49633635D01*
X118966365Y-49780027D01*
X119081385Y-49952167D01*
X119160611Y-50143436D01*
X119201000Y-50346484D01*
X119201000Y-50553516D01*
X119160611Y-50756564D01*
X119081385Y-50947833D01*
X119081384Y-50947835D01*
X118966365Y-51119973D01*
X118819973Y-51266365D01*
X118647835Y-51381384D01*
X118647834Y-51381385D01*
X118647833Y-51381385D01*
X118456564Y-51460611D01*
X118253516Y-51501000D01*
X118046484Y-51501000D01*
X117843436Y-51460611D01*
X117652167Y-51381385D01*
X117652166Y-51381385D01*
X117652165Y-51381384D01*
X117480027Y-51266365D01*
X117333635Y-51119973D01*
X117218616Y-50947835D01*
X117218615Y-50947833D01*
X117139389Y-50756564D01*
X117099000Y-50553516D01*
X117099000Y-50346484D01*
X117139389Y-50143436D01*
X117218615Y-49952167D01*
X117333635Y-49780027D01*
X117480027Y-49633635D01*
X117652165Y-49518616D01*
X117652167Y-49518615D01*
X117843436Y-49439389D01*
X118046484Y-49399000D01*
X118253516Y-49399000D01*
X118456564Y-49439389D01*
G37*
G36*
X111956564Y-49439389D02*
G01*
X112147833Y-49518615D01*
X112147835Y-49518616D01*
X112319973Y-49633635D01*
X112466365Y-49780027D01*
X112581385Y-49952167D01*
X112660611Y-50143436D01*
X112701000Y-50346484D01*
X112701000Y-50553516D01*
X112660611Y-50756564D01*
X112581385Y-50947833D01*
X112581384Y-50947835D01*
X112466365Y-51119973D01*
X112319973Y-51266365D01*
X112147835Y-51381384D01*
X112147834Y-51381385D01*
X112147833Y-51381385D01*
X111956564Y-51460611D01*
X111753516Y-51501000D01*
X111546484Y-51501000D01*
X111343436Y-51460611D01*
X111152167Y-51381385D01*
X111152166Y-51381385D01*
X111152165Y-51381384D01*
X110980027Y-51266365D01*
X110833635Y-51119973D01*
X110718616Y-50947835D01*
X110718615Y-50947833D01*
X110639389Y-50756564D01*
X110599000Y-50553516D01*
X110599000Y-50346484D01*
X110639389Y-50143436D01*
X110718615Y-49952167D01*
X110833635Y-49780027D01*
X110980027Y-49633635D01*
X111152165Y-49518616D01*
X111152167Y-49518615D01*
X111343436Y-49439389D01*
X111546484Y-49399000D01*
X111753516Y-49399000D01*
X111956564Y-49439389D01*
G37*
G36*
X108556564Y-49439389D02*
G01*
X108747833Y-49518615D01*
X108747835Y-49518616D01*
X108919973Y-49633635D01*
X109066365Y-49780027D01*
X109181385Y-49952167D01*
X109260611Y-50143436D01*
X109301000Y-50346484D01*
X109301000Y-50553516D01*
X109260611Y-50756564D01*
X109181385Y-50947833D01*
X109181384Y-50947835D01*
X109066365Y-51119973D01*
X108919973Y-51266365D01*
X108747835Y-51381384D01*
X108747834Y-51381385D01*
X108747833Y-51381385D01*
X108556564Y-51460611D01*
X108353516Y-51501000D01*
X108146484Y-51501000D01*
X107943436Y-51460611D01*
X107752167Y-51381385D01*
X107752166Y-51381385D01*
X107752165Y-51381384D01*
X107580027Y-51266365D01*
X107433635Y-51119973D01*
X107318616Y-50947835D01*
X107318615Y-50947833D01*
X107239389Y-50756564D01*
X107199000Y-50553516D01*
X107199000Y-50346484D01*
X107239389Y-50143436D01*
X107318615Y-49952167D01*
X107433635Y-49780027D01*
X107580027Y-49633635D01*
X107752165Y-49518616D01*
X107752167Y-49518615D01*
X107943436Y-49439389D01*
X108146484Y-49399000D01*
X108353516Y-49399000D01*
X108556564Y-49439389D01*
G37*
G36*
X139606564Y-47039389D02*
G01*
X139797833Y-47118615D01*
X139797835Y-47118616D01*
X139969973Y-47233635D01*
X140116365Y-47380027D01*
X140231385Y-47552167D01*
X140310611Y-47743436D01*
X140351000Y-47946484D01*
X140351000Y-48153516D01*
X140310611Y-48356564D01*
X140231385Y-48547833D01*
X140231384Y-48547835D01*
X140116365Y-48719973D01*
X139969973Y-48866365D01*
X139797835Y-48981384D01*
X139797834Y-48981385D01*
X139797833Y-48981385D01*
X139606564Y-49060611D01*
X139403516Y-49101000D01*
X139196484Y-49101000D01*
X138993436Y-49060611D01*
X138802167Y-48981385D01*
X138802166Y-48981385D01*
X138802165Y-48981384D01*
X138630027Y-48866365D01*
X138483635Y-48719973D01*
X138368616Y-48547835D01*
X138368615Y-48547833D01*
X138289389Y-48356564D01*
X138249000Y-48153516D01*
X138249000Y-47946484D01*
X138289389Y-47743436D01*
X138368615Y-47552167D01*
X138483635Y-47380027D01*
X138630027Y-47233635D01*
X138802165Y-47118616D01*
X138802167Y-47118615D01*
X138993436Y-47039389D01*
X139196484Y-46999000D01*
X139403516Y-46999000D01*
X139606564Y-47039389D01*
G37*
G36*
X92156564Y-44939389D02*
G01*
X92321047Y-45007520D01*
X92347835Y-45018616D01*
X92519973Y-45133635D01*
X92666365Y-45280027D01*
X92711672Y-45347833D01*
X92781385Y-45452167D01*
X92860611Y-45643436D01*
X92901000Y-45846484D01*
X92901000Y-46053516D01*
X92860611Y-46256564D01*
X92800784Y-46401000D01*
X92781384Y-46447835D01*
X92666365Y-46619973D01*
X92519973Y-46766365D01*
X92347835Y-46881384D01*
X92347834Y-46881385D01*
X92347833Y-46881385D01*
X92156564Y-46960611D01*
X91953516Y-47001000D01*
X91746484Y-47001000D01*
X91543436Y-46960611D01*
X91352167Y-46881385D01*
X91352166Y-46881385D01*
X91352165Y-46881384D01*
X91180027Y-46766365D01*
X91033635Y-46619973D01*
X90918616Y-46447835D01*
X90899216Y-46401000D01*
X90839389Y-46256564D01*
X90799000Y-46053516D01*
X90799000Y-45846484D01*
X90839389Y-45643436D01*
X90918615Y-45452167D01*
X90988329Y-45347833D01*
X91033635Y-45280027D01*
X91180027Y-45133635D01*
X91352165Y-45018616D01*
X91378953Y-45007520D01*
X91543436Y-44939389D01*
X91746484Y-44899000D01*
X91953516Y-44899000D01*
X92156564Y-44939389D01*
G37*
G36*
X98656564Y-44939389D02*
G01*
X98821047Y-45007520D01*
X98847835Y-45018616D01*
X99019973Y-45133635D01*
X99166365Y-45280027D01*
X99211672Y-45347833D01*
X99281385Y-45452167D01*
X99360611Y-45643436D01*
X99401000Y-45846484D01*
X99401000Y-46053516D01*
X99360611Y-46256564D01*
X99300784Y-46401000D01*
X99281384Y-46447835D01*
X99166365Y-46619973D01*
X99019973Y-46766365D01*
X98847835Y-46881384D01*
X98847834Y-46881385D01*
X98847833Y-46881385D01*
X98656564Y-46960611D01*
X98453516Y-47001000D01*
X98246484Y-47001000D01*
X98043436Y-46960611D01*
X97852167Y-46881385D01*
X97852166Y-46881385D01*
X97852165Y-46881384D01*
X97680027Y-46766365D01*
X97533635Y-46619973D01*
X97418616Y-46447835D01*
X97399216Y-46401000D01*
X97339389Y-46256564D01*
X97299000Y-46053516D01*
X97299000Y-45846484D01*
X97339389Y-45643436D01*
X97418615Y-45452167D01*
X97488329Y-45347833D01*
X97533635Y-45280027D01*
X97680027Y-45133635D01*
X97852165Y-45018616D01*
X97878953Y-45007520D01*
X98043436Y-44939389D01*
X98246484Y-44899000D01*
X98453516Y-44899000D01*
X98656564Y-44939389D01*
G37*
G36*
X102056564Y-44939389D02*
G01*
X102221047Y-45007520D01*
X102247835Y-45018616D01*
X102419973Y-45133635D01*
X102566365Y-45280027D01*
X102611672Y-45347833D01*
X102681385Y-45452167D01*
X102760611Y-45643436D01*
X102801000Y-45846484D01*
X102801000Y-46053516D01*
X102760611Y-46256564D01*
X102700784Y-46401000D01*
X102681384Y-46447835D01*
X102566365Y-46619973D01*
X102419973Y-46766365D01*
X102247835Y-46881384D01*
X102247834Y-46881385D01*
X102247833Y-46881385D01*
X102056564Y-46960611D01*
X101853516Y-47001000D01*
X101646484Y-47001000D01*
X101443436Y-46960611D01*
X101252167Y-46881385D01*
X101252166Y-46881385D01*
X101252165Y-46881384D01*
X101080027Y-46766365D01*
X100933635Y-46619973D01*
X100818616Y-46447835D01*
X100799216Y-46401000D01*
X100739389Y-46256564D01*
X100699000Y-46053516D01*
X100699000Y-45846484D01*
X100739389Y-45643436D01*
X100818615Y-45452167D01*
X100888329Y-45347833D01*
X100933635Y-45280027D01*
X101080027Y-45133635D01*
X101252165Y-45018616D01*
X101278953Y-45007520D01*
X101443436Y-44939389D01*
X101646484Y-44899000D01*
X101853516Y-44899000D01*
X102056564Y-44939389D01*
G37*
G36*
X108556564Y-44939389D02*
G01*
X108721047Y-45007520D01*
X108747835Y-45018616D01*
X108919973Y-45133635D01*
X109066365Y-45280027D01*
X109111672Y-45347833D01*
X109181385Y-45452167D01*
X109260611Y-45643436D01*
X109301000Y-45846484D01*
X109301000Y-46053516D01*
X109260611Y-46256564D01*
X109200784Y-46401000D01*
X109181384Y-46447835D01*
X109066365Y-46619973D01*
X108919973Y-46766365D01*
X108747835Y-46881384D01*
X108747834Y-46881385D01*
X108747833Y-46881385D01*
X108556564Y-46960611D01*
X108353516Y-47001000D01*
X108146484Y-47001000D01*
X107943436Y-46960611D01*
X107752167Y-46881385D01*
X107752166Y-46881385D01*
X107752165Y-46881384D01*
X107580027Y-46766365D01*
X107433635Y-46619973D01*
X107318616Y-46447835D01*
X107299216Y-46401000D01*
X107239389Y-46256564D01*
X107199000Y-46053516D01*
X107199000Y-45846484D01*
X107239389Y-45643436D01*
X107318615Y-45452167D01*
X107388329Y-45347833D01*
X107433635Y-45280027D01*
X107580027Y-45133635D01*
X107752165Y-45018616D01*
X107778953Y-45007520D01*
X107943436Y-44939389D01*
X108146484Y-44899000D01*
X108353516Y-44899000D01*
X108556564Y-44939389D01*
G37*
G36*
X111956564Y-44939389D02*
G01*
X112121047Y-45007520D01*
X112147835Y-45018616D01*
X112319973Y-45133635D01*
X112466365Y-45280027D01*
X112511672Y-45347833D01*
X112581385Y-45452167D01*
X112660611Y-45643436D01*
X112701000Y-45846484D01*
X112701000Y-46053516D01*
X112660611Y-46256564D01*
X112600784Y-46401000D01*
X112581384Y-46447835D01*
X112466365Y-46619973D01*
X112319973Y-46766365D01*
X112147835Y-46881384D01*
X112147834Y-46881385D01*
X112147833Y-46881385D01*
X111956564Y-46960611D01*
X111753516Y-47001000D01*
X111546484Y-47001000D01*
X111343436Y-46960611D01*
X111152167Y-46881385D01*
X111152166Y-46881385D01*
X111152165Y-46881384D01*
X110980027Y-46766365D01*
X110833635Y-46619973D01*
X110718616Y-46447835D01*
X110699216Y-46401000D01*
X110639389Y-46256564D01*
X110599000Y-46053516D01*
X110599000Y-45846484D01*
X110639389Y-45643436D01*
X110718615Y-45452167D01*
X110788329Y-45347833D01*
X110833635Y-45280027D01*
X110980027Y-45133635D01*
X111152165Y-45018616D01*
X111178953Y-45007520D01*
X111343436Y-44939389D01*
X111546484Y-44899000D01*
X111753516Y-44899000D01*
X111956564Y-44939389D01*
G37*
G36*
X118456564Y-44939389D02*
G01*
X118621047Y-45007520D01*
X118647835Y-45018616D01*
X118819973Y-45133635D01*
X118966365Y-45280027D01*
X119011672Y-45347833D01*
X119081385Y-45452167D01*
X119160611Y-45643436D01*
X119201000Y-45846484D01*
X119201000Y-46053516D01*
X119160611Y-46256564D01*
X119100784Y-46401000D01*
X119081384Y-46447835D01*
X118966365Y-46619973D01*
X118819973Y-46766365D01*
X118647835Y-46881384D01*
X118647834Y-46881385D01*
X118647833Y-46881385D01*
X118456564Y-46960611D01*
X118253516Y-47001000D01*
X118046484Y-47001000D01*
X117843436Y-46960611D01*
X117652167Y-46881385D01*
X117652166Y-46881385D01*
X117652165Y-46881384D01*
X117480027Y-46766365D01*
X117333635Y-46619973D01*
X117218616Y-46447835D01*
X117199216Y-46401000D01*
X117139389Y-46256564D01*
X117099000Y-46053516D01*
X117099000Y-45846484D01*
X117139389Y-45643436D01*
X117218615Y-45452167D01*
X117288329Y-45347833D01*
X117333635Y-45280027D01*
X117480027Y-45133635D01*
X117652165Y-45018616D01*
X117678953Y-45007520D01*
X117843436Y-44939389D01*
X118046484Y-44899000D01*
X118253516Y-44899000D01*
X118456564Y-44939389D01*
G37*
G36*
X121956564Y-44939389D02*
G01*
X122121047Y-45007520D01*
X122147835Y-45018616D01*
X122319973Y-45133635D01*
X122466365Y-45280027D01*
X122511672Y-45347833D01*
X122581385Y-45452167D01*
X122660611Y-45643436D01*
X122701000Y-45846484D01*
X122701000Y-46053516D01*
X122660611Y-46256564D01*
X122600784Y-46401000D01*
X122581384Y-46447835D01*
X122466365Y-46619973D01*
X122319973Y-46766365D01*
X122147835Y-46881384D01*
X122147834Y-46881385D01*
X122147833Y-46881385D01*
X121956564Y-46960611D01*
X121753516Y-47001000D01*
X121546484Y-47001000D01*
X121343436Y-46960611D01*
X121152167Y-46881385D01*
X121152166Y-46881385D01*
X121152165Y-46881384D01*
X120980027Y-46766365D01*
X120833635Y-46619973D01*
X120718616Y-46447835D01*
X120699216Y-46401000D01*
X120639389Y-46256564D01*
X120599000Y-46053516D01*
X120599000Y-45846484D01*
X120639389Y-45643436D01*
X120718615Y-45452167D01*
X120788329Y-45347833D01*
X120833635Y-45280027D01*
X120980027Y-45133635D01*
X121152165Y-45018616D01*
X121178953Y-45007520D01*
X121343436Y-44939389D01*
X121546484Y-44899000D01*
X121753516Y-44899000D01*
X121956564Y-44939389D01*
G37*
G36*
X128456564Y-44939389D02*
G01*
X128621047Y-45007520D01*
X128647835Y-45018616D01*
X128819973Y-45133635D01*
X128966365Y-45280027D01*
X129011672Y-45347833D01*
X129081385Y-45452167D01*
X129160611Y-45643436D01*
X129201000Y-45846484D01*
X129201000Y-46053516D01*
X129160611Y-46256564D01*
X129100784Y-46401000D01*
X129081384Y-46447835D01*
X128966365Y-46619973D01*
X128819973Y-46766365D01*
X128647835Y-46881384D01*
X128647834Y-46881385D01*
X128647833Y-46881385D01*
X128456564Y-46960611D01*
X128253516Y-47001000D01*
X128046484Y-47001000D01*
X127843436Y-46960611D01*
X127652167Y-46881385D01*
X127652166Y-46881385D01*
X127652165Y-46881384D01*
X127480027Y-46766365D01*
X127333635Y-46619973D01*
X127218616Y-46447835D01*
X127199216Y-46401000D01*
X127139389Y-46256564D01*
X127099000Y-46053516D01*
X127099000Y-45846484D01*
X127139389Y-45643436D01*
X127218615Y-45452167D01*
X127288329Y-45347833D01*
X127333635Y-45280027D01*
X127480027Y-45133635D01*
X127652165Y-45018616D01*
X127678953Y-45007520D01*
X127843436Y-44939389D01*
X128046484Y-44899000D01*
X128253516Y-44899000D01*
X128456564Y-44939389D01*
G37*
G36*
X136748228Y-44731703D02*
G01*
X136903100Y-44795853D01*
X137042481Y-44888985D01*
X137161015Y-45007519D01*
X137254147Y-45146900D01*
X137318297Y-45301772D01*
X137351000Y-45466184D01*
X137351000Y-45633816D01*
X137318297Y-45798228D01*
X137254147Y-45953100D01*
X137161015Y-46092481D01*
X137042481Y-46211015D01*
X136903100Y-46304147D01*
X136748228Y-46368297D01*
X136583816Y-46401000D01*
X136416184Y-46401000D01*
X136251772Y-46368297D01*
X136096900Y-46304147D01*
X135957519Y-46211015D01*
X135838985Y-46092481D01*
X135745853Y-45953100D01*
X135681703Y-45798228D01*
X135649000Y-45633816D01*
X135649000Y-45466184D01*
X135681703Y-45301772D01*
X135745853Y-45146900D01*
X135838985Y-45007519D01*
X135957519Y-44888985D01*
X136096900Y-44795853D01*
X136251772Y-44731703D01*
X136416184Y-44699000D01*
X136583816Y-44699000D01*
X136748228Y-44731703D01*
G37*
G36*
X134006564Y-43839389D02*
G01*
X134197833Y-43918615D01*
X134197835Y-43918616D01*
X134369973Y-44033635D01*
X134516365Y-44180027D01*
X134631385Y-44352167D01*
X134710611Y-44543436D01*
X134751000Y-44746484D01*
X134751000Y-44953516D01*
X134710611Y-45156564D01*
X134659471Y-45280027D01*
X134631384Y-45347835D01*
X134516365Y-45519973D01*
X134369973Y-45666365D01*
X134197835Y-45781384D01*
X134197834Y-45781385D01*
X134197833Y-45781385D01*
X134006564Y-45860611D01*
X133803516Y-45901000D01*
X133596484Y-45901000D01*
X133393436Y-45860611D01*
X133202167Y-45781385D01*
X133202166Y-45781385D01*
X133202165Y-45781384D01*
X133030027Y-45666365D01*
X132883635Y-45519973D01*
X132768616Y-45347835D01*
X132740529Y-45280027D01*
X132689389Y-45156564D01*
X132649000Y-44953516D01*
X132649000Y-44746484D01*
X132689389Y-44543436D01*
X132768615Y-44352167D01*
X132883635Y-44180027D01*
X133030027Y-44033635D01*
X133202165Y-43918616D01*
X133202167Y-43918615D01*
X133393436Y-43839389D01*
X133596484Y-43799000D01*
X133803516Y-43799000D01*
X134006564Y-43839389D01*
G37*
G36*
X139606564Y-43839389D02*
G01*
X139797833Y-43918615D01*
X139797835Y-43918616D01*
X139969973Y-44033635D01*
X140116365Y-44180027D01*
X140231385Y-44352167D01*
X140310611Y-44543436D01*
X140351000Y-44746484D01*
X140351000Y-44953516D01*
X140310611Y-45156564D01*
X140259471Y-45280027D01*
X140231384Y-45347835D01*
X140116365Y-45519973D01*
X139969973Y-45666365D01*
X139797835Y-45781384D01*
X139797834Y-45781385D01*
X139797833Y-45781385D01*
X139606564Y-45860611D01*
X139403516Y-45901000D01*
X139196484Y-45901000D01*
X138993436Y-45860611D01*
X138802167Y-45781385D01*
X138802166Y-45781385D01*
X138802165Y-45781384D01*
X138630027Y-45666365D01*
X138483635Y-45519973D01*
X138368616Y-45347835D01*
X138340529Y-45280027D01*
X138289389Y-45156564D01*
X138249000Y-44953516D01*
X138249000Y-44746484D01*
X138289389Y-44543436D01*
X138368615Y-44352167D01*
X138483635Y-44180027D01*
X138630027Y-44033635D01*
X138802165Y-43918616D01*
X138802167Y-43918615D01*
X138993436Y-43839389D01*
X139196484Y-43799000D01*
X139403516Y-43799000D01*
X139606564Y-43839389D01*
G37*
M02*
