M48
; DRILL file {KiCad 5.1.5-52549c5~86~ubuntu18.04.1} date Sat 11 Apr 2020 22:25:51 MSK
; FORMAT={-:-/ absolute / inch / decimal}
; #@! TF.CreationDate,2020-04-11T22:25:51+03:00
; #@! TF.GenerationSoftware,Kicad,Pcbnew,5.1.5-52549c5~86~ubuntu18.04.1
; #@! TF.FileFunction,Plated,1,2,PTH
FMAT,2
INCH
T1C0.0150
T2C0.0200
T3C0.0394
T4C0.0402
T5C0.0433
T6C0.0945
T7C0.1008
T8C0.1378
%
G90
G05
T1
X3.624Y-4.4606
X3.6476Y-4.213
X3.6614Y-2.2008
X3.7008Y-3.7953
X3.7402Y-1.7323
X3.7677Y-2.126
X3.7913Y-3.9016
X3.8445Y-4.7126
X3.8996Y-4.25
X3.9134Y-2.3484
X3.9902Y-3.0709
X4.0Y-3.6772
X4.0295Y-2.4326
X4.0394Y-3.7953
X4.063Y-2.878
X4.1142Y-2.9331
X4.122Y-3.0807
X4.1299Y-3.7953
X4.1339Y-3.2244
X4.1378Y-1.7323
X4.1378Y-1.9961
X4.1476Y-2.4094
X4.1496Y-3.874
X4.1693Y-3.3504
X4.1811Y-3.4921
X4.1811Y-3.6732
X4.1929Y-2.878
X4.2067Y-2.5669
X4.2149Y-3.4038
X4.2205Y-3.2323
X4.2362Y-2.9291
X4.2441Y-3.6732
X4.248Y-2.4626
X4.248Y-3.752
X4.25Y-3.5453
X4.2677Y-3.4685
X4.2717Y-3.2323
X4.2756Y-3.1339
X4.2953Y-3.3268
X4.3131Y-3.5452
X4.3346Y-3.8976
X4.3602Y-3.4346
X4.3701Y-3.1732
X4.3909Y-3.3079
X4.3957Y-3.1035
X4.4173Y-4.5591
X4.4236Y-3.6795
X4.4331Y-3.8681
X4.437Y-3.2756
X4.437Y-4.1732
X4.4449Y-2.928
X4.4547Y-2.4075
X4.4567Y-3.472
X4.474Y-2.5866
X4.4976Y-2.878
X4.4979Y-3.8681
X4.502Y-3.5413
X4.5122Y-3.6791
X4.5188Y-3.2014
X4.5236Y-1.7362
X4.5551Y-4.2244
X4.563Y-4.0551
X4.5646Y-2.8929
X4.565Y-3.5551
X4.5811Y-3.8441
X4.585Y-2.4811
X4.5925Y-3.6732
X4.5945Y-3.3425
X4.6102Y-2.9059
X4.6272Y-2.8339
X4.6634Y-4.063
X4.6693Y-4.1732
X4.6752Y-2.4449
X4.6894Y-3.8583
X4.7Y-2.9728
X4.7591Y-3.2193
X4.7713Y-2.9035
X4.7795Y-2.8555
X4.8161Y-3.8925
X4.8173Y-4.0358
X4.872Y-2.3681
X4.8819Y-2.8555
X4.9134Y-1.7323
X4.9146Y-3.5024
X4.9213Y-4.1339
X4.9768Y-2.8555
X4.9835Y-2.2846
X5.0197Y-2.622
X5.0433Y-2.3189
X5.0886Y-2.2402
X5.0921Y-2.3165
X5.1031Y-3.6193
X5.1102Y-2.8504
X5.1157Y-3.0677
X5.122Y-3.5079
X5.178Y-3.4087
X5.1969Y-2.8937
X5.2087Y-2.5098
X5.2315Y-3.6094
X5.2996Y-2.8937
X5.311Y-3.8465
X5.311Y-3.9921
X5.3539Y-2.2602
X5.3543Y-2.3386
X5.4366Y-3.476
X5.452Y-3.289
X5.4846Y-3.561
X5.5354Y-3.685
X5.5469Y-3.215
X5.5787Y-3.476
X5.5866Y-2.0295
X5.6102Y-3.0157
X5.6248Y-2.1661
X5.7067Y-2.3465
X5.7126Y-3.3583
X5.7126Y-3.7697
X5.7213Y-2.0201
X5.752Y-3.2945
X5.7559Y-3.1969
X5.7953Y-3.7697
X5.7953Y-4.4843
X5.7992Y-3.1315
X5.8307Y-3.7343
X5.8417Y-3.3008
X5.8445Y-3.1496
X5.8701Y-3.4764
X5.8937Y-2.4567
X5.9449Y-4.685
X5.9567Y-2.6417
X5.9646Y-3.0157
X5.9843Y-3.889
X5.9846Y-3.7933
X5.9882Y-2.5709
X5.9961Y-2.4843
X6.0039Y-3.5949
X6.0317Y-3.7421
X6.0472Y-4.4843
X6.0622Y-3.1413
X6.1488Y-2.752
X6.1969Y-1.7911
X6.248Y-1.874
X6.2756Y-3.2933
X6.2835Y-1.8425
X6.2835Y-1.8976
X6.3193Y-2.9087
X6.3346Y-4.4496
X6.4449Y-2.0945
X6.4819Y-4.4496
X6.5118Y-2.4724
T2
X3.5965Y-3.3815
X3.6024Y-3.6654
X3.6339Y-4.0906
X3.6614Y-3.3228
X3.6706Y-2.3196
X3.6706Y-2.4311
X3.6929Y-4.8031
X3.7717Y-2.7913
X3.7874Y-2.5669
X3.8346Y-3.6102
X3.8787Y-4.4165
X3.9094Y-2.9882
X3.9094Y-3.2756
X3.9252Y-2.4764
X3.9331Y-2.5669
X3.9606Y-4.4528
X4.0276Y-4.8031
X4.0724Y-4.5579
X4.1142Y-4.122
X4.1457Y-2.3386
X4.1811Y-2.6181
X4.2717Y-2.2323
X4.315Y-2.3661
X4.3386Y-4.122
X4.3406Y-2.8819
X4.4173Y-2.1693
X4.6024Y-2.5827
X4.7638Y-3.5039
X4.8583Y-2.4567
X4.8583Y-2.5827
X4.8583Y-3.1496
X4.9764Y-3.0694
X5.0335Y-2.5433
X5.0827Y-4.1063
X5.2346Y-3.1091
X5.2469Y-2.1594
X5.3031Y-3.4803
X5.3228Y-1.9016
X5.3244Y-3.2071
X5.4646Y-3.1311
X5.4654Y-3.0571
X5.4712Y-3.9158
X5.4921Y-3.4055
X5.5165Y-3.3346
X5.6992Y-4.1012
X5.6996Y-3.9606
X5.7402Y-2.9094
X5.7441Y-2.1654
X5.8984Y-3.8882
X5.9035Y-2.5315
X5.9323Y-1.9201
X5.9331Y-1.7244
X5.9331Y-2.311
X5.9406Y-4.187
X5.9567Y-2.8331
X5.9606Y-3.4252
X5.9756Y-2.9217
X5.9882Y-2.1654
X6.076Y-3.8878
X6.1693Y-2.1654
X6.1898Y-2.8642
X6.2087Y-1.7244
X6.2791Y-3.9138
X6.2795Y-3.7598
X6.3031Y-2.3273
X6.3327Y-3.624
X6.3583Y-2.0
T3
X3.7697Y-2.2028
X3.7697Y-2.7028
X3.8697Y-2.2028
X3.8697Y-2.7028
X3.9697Y-2.2028
X3.9697Y-2.7028
X4.0697Y-2.2028
X4.0697Y-2.7028
X4.1697Y-2.2028
X4.1697Y-2.7028
X4.5697Y-2.2028
X4.5697Y-2.7028
X4.6697Y-2.2028
X4.6697Y-2.7028
X4.7697Y-2.2028
X4.7697Y-2.7028
X4.8697Y-2.2028
X4.8697Y-2.7028
X4.9697Y-2.2028
X4.9697Y-2.7028
X6.3858Y-3.9154
X6.3858Y-4.0154
X6.3858Y-4.1154
X6.4858Y-3.9154
X6.4858Y-4.0154
X6.4858Y-4.1154
X4.1063Y-4.3291
X4.1063Y-4.4291
X4.2063Y-4.3291
X4.2063Y-4.4291
X4.3063Y-4.3291
X4.3063Y-4.4291
X4.4063Y-4.3291
X4.4063Y-4.4291
X4.5063Y-4.3291
X4.5063Y-4.4291
X5.8898Y-2.1673
X6.2835Y-2.1673
T4
X6.1496Y-3.0571
X6.1496Y-3.5591
T5
X4.3957Y-1.8091
X4.3957Y-1.9862
X4.6516Y-1.8091
X4.6516Y-1.9862
X3.9803Y-3.8701
X3.9803Y-4.0472
X4.2362Y-3.8701
X4.2362Y-4.0472
X4.0059Y-1.8091
X4.0059Y-1.9862
X4.2618Y-1.8091
X4.2618Y-1.9862
X4.9508Y-3.8701
X4.9508Y-4.0472
X5.2067Y-3.8701
X5.2067Y-4.0472
X5.2638Y-1.7657
X5.2638Y-2.0295
X5.4843Y-1.7657
X5.4843Y-1.8917
X5.4843Y-2.0295
X3.6161Y-1.8091
X3.6161Y-1.9862
X3.872Y-1.8091
X3.872Y-1.9862
X4.7894Y-1.8091
X4.7894Y-1.9862
X5.0453Y-1.8091
X5.0453Y-1.9862
T7
X6.4075Y-4.3445
X3.748Y-4.6083
X3.748Y-4.0807
X3.748Y-4.3445
T8
X5.0157Y-3.3071
T6
G00X5.4646Y-2.5091
M15
G01X5.4646Y-2.6602
M16
G05
T0
M30
