G04 #@! TF.GenerationSoftware,KiCad,Pcbnew,9.0.6-9.0.6~ubuntu24.04.1*
G04 #@! TF.CreationDate,2026-01-10T11:13:35+03:00*
G04 #@! TF.ProjectId,Dreamstalker-PRO-v2,44726561-6d73-4746-916c-6b65722d5052,2.4*
G04 #@! TF.SameCoordinates,Original*
G04 #@! TF.FileFunction,Soldermask,Top*
G04 #@! TF.FilePolarity,Negative*
%FSLAX46Y46*%
G04 Gerber Fmt 4.6, Leading zero omitted, Abs format (unit mm)*
G04 Created by KiCad (PCBNEW 9.0.6-9.0.6~ubuntu24.04.1) date 2026-01-10 11:13:35*
%MOMM*%
%LPD*%
G01*
G04 APERTURE LIST*
G04 Aperture macros list*
%AMRoundRect*
0 Rectangle with rounded corners*
0 $1 Rounding radius*
0 $2 $3 $4 $5 $6 $7 $8 $9 X,Y pos of 4 corners*
0 Add a 4 corners polygon primitive as box body*
4,1,4,$2,$3,$4,$5,$6,$7,$8,$9,$2,$3,0*
0 Add four circle primitives for the rounded corners*
1,1,$1+$1,$2,$3*
1,1,$1+$1,$4,$5*
1,1,$1+$1,$6,$7*
1,1,$1+$1,$8,$9*
0 Add four rect primitives between the rounded corners*
20,1,$1+$1,$2,$3,$4,$5,0*
20,1,$1+$1,$4,$5,$6,$7,0*
20,1,$1+$1,$6,$7,$8,$9,0*
20,1,$1+$1,$8,$9,$2,$3,0*%
%AMFreePoly0*
4,1,29,2.553536,2.403536,2.555000,2.400000,2.555000,0.900000,2.553536,0.896464,2.550000,0.895000,0.750000,0.895000,0.750000,-0.895000,2.550000,-0.895000,2.553536,-0.896464,2.555000,-0.900000,2.555000,-2.400000,2.553536,-2.403536,2.550000,-2.405000,-2.950000,-2.405000,-2.953536,-2.403536,-2.955000,-2.400000,-2.955000,-0.900000,-2.953536,-0.896464,-2.950000,-0.895000,-0.750000,-0.895000,
-0.750000,0.895000,-2.950000,0.895000,-2.953536,0.896464,-2.955000,0.900000,-2.955000,2.400000,-2.953536,2.403536,-2.950000,2.405000,2.550000,2.405000,2.553536,2.403536,2.553536,2.403536,$1*%
%AMFreePoly1*
4,1,33,0.703536,0.903536,0.705000,0.900000,0.704069,0.897094,0.654179,0.827248,0.624329,0.777498,0.584409,0.707638,0.554564,0.647948,0.534642,0.598143,0.534596,0.598030,0.504674,0.528212,0.474791,0.438563,0.444878,0.328885,0.424943,0.219242,0.414976,0.139500,0.405014,0.010000,0.414983,-0.119591,0.424951,-0.229243,0.454852,-0.368782,0.494716,-0.508305,0.564497,-0.667804,
0.624279,-0.777405,0.704160,-0.897226,0.704903,-0.900981,0.702774,-0.904160,0.700000,-0.905000,-0.480000,-0.905000,-0.483536,-0.903536,-0.485000,-0.900000,-0.485000,0.900000,-0.483536,0.903536,-0.480000,0.905000,0.700000,0.905000,0.703536,0.903536,0.703536,0.903536,$1*%
%AMFreePoly2*
4,1,33,0.483536,0.903536,0.485000,0.900000,0.485000,-0.900000,0.483536,-0.903536,0.480000,-0.905000,-0.700000,-0.905000,-0.703536,-0.903536,-0.705000,-0.900000,-0.704069,-0.897094,-0.654179,-0.827248,-0.624329,-0.777498,-0.584409,-0.707638,-0.554564,-0.647948,-0.534642,-0.598143,-0.534596,-0.598030,-0.504674,-0.528212,-0.474791,-0.438563,-0.444878,-0.328885,-0.424943,-0.219242,-0.414976,-0.139500,
-0.405014,-0.010000,-0.414985,0.119617,-0.424951,0.229243,-0.454852,0.368782,-0.494716,0.508305,-0.564497,0.667804,-0.624279,0.777405,-0.704160,0.897226,-0.704903,0.900981,-0.702774,0.904160,-0.700000,0.905000,0.480000,0.905000,0.483536,0.903536,0.483536,0.903536,$1*%
G04 Aperture macros list end*
%ADD10C,2.000000*%
%ADD11R,0.600000X1.300000*%
%ADD12RoundRect,0.218750X0.218750X0.256250X-0.218750X0.256250X-0.218750X-0.256250X0.218750X-0.256250X0*%
%ADD13RoundRect,0.243750X-0.456250X0.243750X-0.456250X-0.243750X0.456250X-0.243750X0.456250X0.243750X0*%
%ADD14RoundRect,0.243750X-0.243750X-0.456250X0.243750X-0.456250X0.243750X0.456250X-0.243750X0.456250X0*%
%ADD15R,1.500000X1.500000*%
%ADD16C,1.500000*%
%ADD17R,2.000000X2.000000*%
%ADD18RoundRect,0.240000X0.560000X-0.660000X0.560000X0.660000X-0.560000X0.660000X-0.560000X-0.660000X0*%
%ADD19FreePoly0,90.000000*%
%ADD20FreePoly1,0.000000*%
%ADD21FreePoly2,0.000000*%
%ADD22FreePoly1,270.000000*%
%ADD23FreePoly2,270.000000*%
%ADD24R,1.700000X1.700000*%
%ADD25O,1.700000X1.700000*%
%ADD26C,1.600000*%
%ADD27FreePoly1,90.000000*%
%ADD28FreePoly2,90.000000*%
%ADD29FreePoly1,180.000000*%
%ADD30FreePoly2,180.000000*%
%ADD31RoundRect,0.218750X0.256250X-0.218750X0.256250X0.218750X-0.256250X0.218750X-0.256250X-0.218750X0*%
%ADD32RoundRect,0.175000X0.425000X-0.175000X0.425000X0.175000X-0.425000X0.175000X-0.425000X-0.175000X0*%
%ADD33RoundRect,0.190000X-0.410000X0.190000X-0.410000X-0.190000X0.410000X-0.190000X0.410000X0.190000X0*%
%ADD34RoundRect,0.200000X-0.400000X0.200000X-0.400000X-0.200000X0.400000X-0.200000X0.400000X0.200000X0*%
%ADD35RoundRect,0.175000X-0.425000X0.175000X-0.425000X-0.175000X0.425000X-0.175000X0.425000X0.175000X0*%
%ADD36RoundRect,0.190000X0.410000X-0.190000X0.410000X0.190000X-0.410000X0.190000X-0.410000X-0.190000X0*%
%ADD37RoundRect,0.200000X0.400000X-0.200000X0.400000X0.200000X-0.400000X0.200000X-0.400000X-0.200000X0*%
%ADD38O,1.700000X1.100000*%
%ADD39RoundRect,0.218750X-0.218750X-0.256250X0.218750X-0.256250X0.218750X0.256250X-0.218750X0.256250X0*%
%ADD40R,0.300000X1.400000*%
%ADD41RoundRect,0.250000X-0.625000X0.350000X-0.625000X-0.350000X0.625000X-0.350000X0.625000X0.350000X0*%
%ADD42O,1.750000X1.200000*%
%ADD43RoundRect,0.350000X-0.350000X-0.350000X0.350000X-0.350000X0.350000X0.350000X-0.350000X0.350000X0*%
%ADD44C,1.400000*%
%ADD45RoundRect,0.243750X0.456250X-0.243750X0.456250X0.243750X-0.456250X0.243750X-0.456250X-0.243750X0*%
%ADD46RoundRect,0.150000X0.587500X0.150000X-0.587500X0.150000X-0.587500X-0.150000X0.587500X-0.150000X0*%
%ADD47RoundRect,0.243750X0.243750X0.456250X-0.243750X0.456250X-0.243750X-0.456250X0.243750X-0.456250X0*%
%ADD48C,1.200000*%
G04 APERTURE END LIST*
D10*
X101100000Y-98300000D03*
X107600000Y-98300000D03*
X101100000Y-102800000D03*
X107600000Y-102800000D03*
X125750000Y-98300000D03*
X132250000Y-98300000D03*
X125750000Y-102800000D03*
X132250000Y-102800000D03*
D11*
X93200000Y-87900000D03*
X95100000Y-87900000D03*
X94150000Y-85800000D03*
D12*
X98787500Y-87900000D03*
X97212500Y-87900000D03*
D13*
X133200000Y-59350000D03*
X133200000Y-61225000D03*
D14*
X93162500Y-91100000D03*
X95037500Y-91100000D03*
D15*
X95750000Y-68650000D03*
D16*
X98290000Y-68650000D03*
X100830000Y-68650000D03*
X103370000Y-68650000D03*
X105910000Y-68650000D03*
X116070000Y-68650000D03*
X118610000Y-68650000D03*
X121150000Y-68650000D03*
X123690000Y-68650000D03*
X126230000Y-68650000D03*
X126230000Y-55950000D03*
X123690000Y-55950000D03*
X121150000Y-55950000D03*
X118610000Y-55950000D03*
X116070000Y-55950000D03*
X105910000Y-55950000D03*
X103370000Y-55950000D03*
X100830000Y-55950000D03*
X98290000Y-55950000D03*
X95750000Y-55950000D03*
D17*
X149600000Y-55050000D03*
D10*
X159600000Y-55050000D03*
D18*
X93800000Y-82550000D03*
X97200000Y-82550000D03*
D19*
X95500000Y-77350000D03*
D20*
X160870000Y-110350000D03*
D21*
X164630000Y-110350000D03*
D22*
X95200000Y-101770000D03*
D23*
X95200000Y-105530000D03*
D24*
X104300000Y-112500000D03*
D25*
X104300000Y-109960000D03*
X106840000Y-112500000D03*
X106840000Y-109960000D03*
X109380000Y-112500000D03*
X109380000Y-109960000D03*
X111920000Y-112500000D03*
X111920000Y-109960000D03*
X114460000Y-112500000D03*
X114460000Y-109960000D03*
D24*
X162200000Y-99450000D03*
D25*
X164740000Y-99450000D03*
X162200000Y-101990000D03*
X164740000Y-101990000D03*
X162200000Y-104530000D03*
X164740000Y-104530000D03*
D26*
X136500000Y-45550000D03*
X136500000Y-51550000D03*
D10*
X139300000Y-48050000D03*
X133700000Y-44850000D03*
X139300000Y-44850000D03*
X133700000Y-51550000D03*
X139300000Y-51550000D03*
D27*
X95200000Y-118930000D03*
D28*
X95200000Y-115170000D03*
D10*
X108250000Y-50450000D03*
X101750000Y-50450000D03*
X108250000Y-45950000D03*
X101750000Y-45950000D03*
D29*
X97080000Y-110350000D03*
D30*
X93320000Y-110350000D03*
D10*
X98350000Y-50450000D03*
X91850000Y-50450000D03*
X98350000Y-45950000D03*
X91850000Y-45950000D03*
X118150000Y-50450000D03*
X111650000Y-50450000D03*
X118150000Y-45950000D03*
X111650000Y-45950000D03*
X128150000Y-50450000D03*
X121650000Y-50450000D03*
X128150000Y-45950000D03*
X121650000Y-45950000D03*
D31*
X141400000Y-55287500D03*
X141400000Y-53712500D03*
D32*
X161800000Y-71700000D03*
D33*
X161800000Y-69680000D03*
D34*
X161800000Y-68450000D03*
D35*
X161800000Y-70700000D03*
D36*
X161800000Y-72720000D03*
D37*
X161800000Y-73950000D03*
D38*
X161880000Y-75520000D03*
X165680000Y-75520000D03*
X161880000Y-66880000D03*
X165680000Y-66880000D03*
D12*
X157887500Y-68650000D03*
X156312500Y-68650000D03*
D39*
X164912500Y-78100000D03*
X166487500Y-78100000D03*
D12*
X166487500Y-80750000D03*
X164912500Y-80750000D03*
D40*
X161000000Y-84400000D03*
X161500000Y-84400000D03*
X162000000Y-84400000D03*
X162500000Y-84400000D03*
X163000000Y-84400000D03*
X163000000Y-80000000D03*
X162500000Y-80000000D03*
X162000000Y-80000000D03*
X161500000Y-80000000D03*
X161000000Y-80000000D03*
D41*
X155300000Y-88100000D03*
D42*
X155300000Y-90100000D03*
D39*
X97425000Y-86000000D03*
X99000000Y-86000000D03*
D43*
X137200000Y-63850000D03*
D44*
X140100000Y-63850000D03*
D12*
X143787500Y-45000000D03*
X142212500Y-45000000D03*
D45*
X158800000Y-87275000D03*
X158800000Y-85400000D03*
D12*
X166500000Y-85500000D03*
X164925000Y-85500000D03*
X143787500Y-47000000D03*
X142212500Y-47000000D03*
X166500000Y-83100000D03*
X164925000Y-83100000D03*
X165237500Y-93000000D03*
X163662500Y-93000000D03*
D46*
X160937500Y-91150000D03*
X160937500Y-89250000D03*
X159062500Y-90200000D03*
D47*
X151500000Y-113450000D03*
X149625000Y-113450000D03*
D14*
X163400000Y-95600000D03*
X165275000Y-95600000D03*
X163525000Y-88800000D03*
X165400000Y-88800000D03*
D12*
X155700000Y-70600000D03*
X154125000Y-70600000D03*
D39*
X160625000Y-77800000D03*
X162200000Y-77800000D03*
D48*
X154850000Y-103900000D03*
X146850000Y-103900000D03*
M02*
