G04 #@! TF.GenerationSoftware,KiCad,Pcbnew,9.0.6-9.0.6~ubuntu24.04.1*
G04 #@! TF.CreationDate,2026-01-10T11:13:35+03:00*
G04 #@! TF.ProjectId,Dreamstalker-PRO-v2,44726561-6d73-4746-916c-6b65722d5052,2.4*
G04 #@! TF.SameCoordinates,Original*
G04 #@! TF.FileFunction,Soldermask,Bot*
G04 #@! TF.FilePolarity,Negative*
%FSLAX46Y46*%
G04 Gerber Fmt 4.6, Leading zero omitted, Abs format (unit mm)*
G04 Created by KiCad (PCBNEW 9.0.6-9.0.6~ubuntu24.04.1) date 2026-01-10 11:13:35*
%MOMM*%
%LPD*%
G01*
G04 APERTURE LIST*
G04 Aperture macros list*
%AMRoundRect*
0 Rectangle with rounded corners*
0 $1 Rounding radius*
0 $2 $3 $4 $5 $6 $7 $8 $9 X,Y pos of 4 corners*
0 Add a 4 corners polygon primitive as box body*
4,1,4,$2,$3,$4,$5,$6,$7,$8,$9,$2,$3,0*
0 Add four circle primitives for the rounded corners*
1,1,$1+$1,$2,$3*
1,1,$1+$1,$4,$5*
1,1,$1+$1,$6,$7*
1,1,$1+$1,$8,$9*
0 Add four rect primitives between the rounded corners*
20,1,$1+$1,$2,$3,$4,$5,0*
20,1,$1+$1,$4,$5,$6,$7,0*
20,1,$1+$1,$6,$7,$8,$9,0*
20,1,$1+$1,$8,$9,$2,$3,0*%
G04 Aperture macros list end*
%ADD10C,2.000000*%
%ADD11R,1.500000X1.500000*%
%ADD12C,1.500000*%
%ADD13R,2.000000X2.000000*%
%ADD14C,3.200000*%
%ADD15R,1.700000X1.700000*%
%ADD16O,1.700000X1.700000*%
%ADD17C,1.600000*%
%ADD18O,1.700000X1.100000*%
%ADD19RoundRect,0.250000X-0.625000X0.350000X-0.625000X-0.350000X0.625000X-0.350000X0.625000X0.350000X0*%
%ADD20O,1.750000X1.200000*%
%ADD21RoundRect,0.350000X-0.350000X-0.350000X0.350000X-0.350000X0.350000X0.350000X-0.350000X0.350000X0*%
%ADD22C,1.400000*%
%ADD23R,0.600000X1.050000*%
%ADD24R,1.550000X0.650000*%
%ADD25R,0.500000X0.800000*%
%ADD26R,0.400000X0.800000*%
%ADD27RoundRect,0.218750X0.256250X-0.218750X0.256250X0.218750X-0.256250X0.218750X-0.256250X-0.218750X0*%
%ADD28RoundRect,0.218750X-0.218750X-0.256250X0.218750X-0.256250X0.218750X0.256250X-0.218750X0.256250X0*%
%ADD29RoundRect,0.218750X0.218750X0.256250X-0.218750X0.256250X-0.218750X-0.256250X0.218750X-0.256250X0*%
%ADD30RoundRect,0.218750X-0.256250X0.218750X-0.256250X-0.218750X0.256250X-0.218750X0.256250X0.218750X0*%
%ADD31RoundRect,0.243750X-0.456250X0.243750X-0.456250X-0.243750X0.456250X-0.243750X0.456250X0.243750X0*%
%ADD32RoundRect,0.243750X0.456250X-0.243750X0.456250X0.243750X-0.456250X0.243750X-0.456250X-0.243750X0*%
%ADD33R,0.300000X1.475000*%
%ADD34R,1.475000X0.300000*%
%ADD35R,2.400000X2.000000*%
%ADD36RoundRect,0.243750X0.243750X0.456250X-0.243750X0.456250X-0.243750X-0.456250X0.243750X-0.456250X0*%
%ADD37RoundRect,0.250000X-0.425000X0.450000X-0.425000X-0.450000X0.425000X-0.450000X0.425000X0.450000X0*%
%ADD38C,1.200000*%
%ADD39R,0.700000X1.600000*%
%ADD40R,1.200000X2.200000*%
%ADD41R,1.200000X1.400000*%
%ADD42R,1.600000X1.400000*%
%ADD43RoundRect,0.250000X-0.450000X-0.425000X0.450000X-0.425000X0.450000X0.425000X-0.450000X0.425000X0*%
%ADD44R,1.800000X1.000000*%
%ADD45R,0.600000X1.500000*%
%ADD46R,1.500000X0.600000*%
%ADD47RoundRect,0.250000X0.450000X0.425000X-0.450000X0.425000X-0.450000X-0.425000X0.450000X-0.425000X0*%
%ADD48RoundRect,0.243750X-0.243750X-0.456250X0.243750X-0.456250X0.243750X0.456250X-0.243750X0.456250X0*%
%ADD49RoundRect,0.250000X0.250000X-0.250000X0.250000X0.250000X-0.250000X0.250000X-0.250000X-0.250000X0*%
%ADD50RoundRect,0.250000X0.425000X-0.450000X0.425000X0.450000X-0.425000X0.450000X-0.425000X-0.450000X0*%
%ADD51RoundRect,0.150000X-0.512500X-0.150000X0.512500X-0.150000X0.512500X0.150000X-0.512500X0.150000X0*%
G04 APERTURE END LIST*
D10*
X101100000Y-98300000D03*
X107600000Y-98300000D03*
X101100000Y-102800000D03*
X107600000Y-102800000D03*
X125750000Y-98300000D03*
X132250000Y-98300000D03*
X125750000Y-102800000D03*
X132250000Y-102800000D03*
D11*
X95750000Y-68650000D03*
D12*
X98290000Y-68650000D03*
X100830000Y-68650000D03*
X103370000Y-68650000D03*
X105910000Y-68650000D03*
X116070000Y-68650000D03*
X118610000Y-68650000D03*
X121150000Y-68650000D03*
X123690000Y-68650000D03*
X126230000Y-68650000D03*
X126230000Y-55950000D03*
X123690000Y-55950000D03*
X121150000Y-55950000D03*
X118610000Y-55950000D03*
X116070000Y-55950000D03*
X105910000Y-55950000D03*
X103370000Y-55950000D03*
X100830000Y-55950000D03*
X98290000Y-55950000D03*
X95750000Y-55950000D03*
D13*
X149600000Y-55050000D03*
D10*
X159600000Y-55050000D03*
D14*
X162750000Y-110350000D03*
X95200000Y-103650000D03*
D15*
X104300000Y-112500000D03*
D16*
X104300000Y-109960000D03*
X106840000Y-112500000D03*
X106840000Y-109960000D03*
X109380000Y-112500000D03*
X109380000Y-109960000D03*
X111920000Y-112500000D03*
X111920000Y-109960000D03*
X114460000Y-112500000D03*
X114460000Y-109960000D03*
D15*
X162200000Y-99450000D03*
D16*
X164740000Y-99450000D03*
X162200000Y-101990000D03*
X164740000Y-101990000D03*
X162200000Y-104530000D03*
X164740000Y-104530000D03*
D17*
X136500000Y-45550000D03*
X136500000Y-51550000D03*
D10*
X139300000Y-48050000D03*
X133700000Y-44850000D03*
X139300000Y-44850000D03*
X133700000Y-51550000D03*
X139300000Y-51550000D03*
D14*
X95200000Y-117050000D03*
D10*
X108250000Y-50450000D03*
X101750000Y-50450000D03*
X108250000Y-45950000D03*
X101750000Y-45950000D03*
D14*
X95200000Y-110350000D03*
D10*
X98350000Y-50450000D03*
X91850000Y-50450000D03*
X98350000Y-45950000D03*
X91850000Y-45950000D03*
X118150000Y-50450000D03*
X111650000Y-50450000D03*
X118150000Y-45950000D03*
X111650000Y-45950000D03*
X128150000Y-50450000D03*
X121650000Y-50450000D03*
X128150000Y-45950000D03*
X121650000Y-45950000D03*
D18*
X161880000Y-75520000D03*
X165680000Y-75520000D03*
X161880000Y-66880000D03*
X165680000Y-66880000D03*
D19*
X155300000Y-88100000D03*
D20*
X155300000Y-90100000D03*
D21*
X137200000Y-63850000D03*
D22*
X140100000Y-63850000D03*
D23*
X96700000Y-62850000D03*
X94800000Y-62850000D03*
X95750000Y-60650000D03*
X108350000Y-65650000D03*
X110250000Y-65650000D03*
X109300000Y-67850000D03*
X113850000Y-59000000D03*
X111950000Y-59000000D03*
X112900000Y-56800000D03*
X125300000Y-60150000D03*
X127200000Y-60150000D03*
X126250000Y-62350000D03*
D24*
X161325000Y-45495000D03*
X161325000Y-46765000D03*
X161325000Y-48035000D03*
X161325000Y-49305000D03*
X155875000Y-49305000D03*
X155875000Y-48035000D03*
X155875000Y-46765000D03*
X155875000Y-45495000D03*
D25*
X100800000Y-58700000D03*
D26*
X101600000Y-58700000D03*
X102400000Y-58700000D03*
D25*
X103200000Y-58700000D03*
X103200000Y-60500000D03*
D26*
X102400000Y-60500000D03*
X101600000Y-60500000D03*
D25*
X100800000Y-60500000D03*
X118750000Y-63550000D03*
D26*
X119550000Y-63550000D03*
X120350000Y-63550000D03*
D25*
X121150000Y-63550000D03*
X121150000Y-65350000D03*
D26*
X120350000Y-65350000D03*
X119550000Y-65350000D03*
D25*
X118750000Y-65350000D03*
X111750000Y-63450000D03*
D26*
X110950000Y-63450000D03*
X110150000Y-63450000D03*
D25*
X109350000Y-63450000D03*
X109350000Y-61650000D03*
D26*
X110150000Y-61650000D03*
X110950000Y-61650000D03*
D25*
X111750000Y-61650000D03*
D27*
X144110000Y-58177500D03*
X144110000Y-56602500D03*
X149900000Y-71987500D03*
X149900000Y-70412500D03*
D28*
X100662500Y-123700000D03*
X102237500Y-123700000D03*
D29*
X154587500Y-53000000D03*
X153012500Y-53000000D03*
D28*
X156712500Y-68200000D03*
X158287500Y-68200000D03*
D29*
X97637500Y-123700000D03*
X96062500Y-123700000D03*
D30*
X153470000Y-59162500D03*
X153470000Y-60737500D03*
X158300000Y-59112500D03*
X158300000Y-60687500D03*
D28*
X156225000Y-70650000D03*
X157800000Y-70650000D03*
D27*
X155850000Y-66187500D03*
X155850000Y-64612500D03*
X158300000Y-66187500D03*
X158300000Y-64612500D03*
D30*
X153500000Y-64612500D03*
X153500000Y-66187500D03*
D27*
X100000000Y-120387500D03*
X100000000Y-118812500D03*
X102250000Y-120387500D03*
X102250000Y-118812500D03*
D28*
X161862500Y-116000000D03*
X163437500Y-116000000D03*
D31*
X133500000Y-70000000D03*
X133500000Y-71875000D03*
X144000000Y-70000000D03*
X144000000Y-71875000D03*
X163700000Y-54662500D03*
X163700000Y-56537500D03*
D32*
X155850000Y-61037500D03*
X155850000Y-59162500D03*
D31*
X157600000Y-84350000D03*
X157600000Y-86225000D03*
D33*
X144100000Y-78162000D03*
X144600000Y-78162000D03*
X145100000Y-78162000D03*
X145600000Y-78162000D03*
X146100000Y-78162000D03*
X146600000Y-78162000D03*
X147100000Y-78162000D03*
X147600000Y-78162000D03*
X148100000Y-78162000D03*
X148600000Y-78162000D03*
X149100000Y-78162000D03*
X149600000Y-78162000D03*
D34*
X151088000Y-79650000D03*
X151088000Y-80150000D03*
X151088000Y-80650000D03*
X151088000Y-81150000D03*
X151088000Y-81650000D03*
X151088000Y-82150000D03*
X151088000Y-82650000D03*
X151088000Y-83150000D03*
X151088000Y-83650000D03*
X151088000Y-84150000D03*
X151088000Y-84650000D03*
X151088000Y-85150000D03*
D33*
X149600000Y-86638000D03*
X149100000Y-86638000D03*
X148600000Y-86638000D03*
X148100000Y-86638000D03*
X147600000Y-86638000D03*
X147100000Y-86638000D03*
X146600000Y-86638000D03*
X146100000Y-86638000D03*
X145600000Y-86638000D03*
X145100000Y-86638000D03*
X144600000Y-86638000D03*
X144100000Y-86638000D03*
D34*
X142612000Y-85150000D03*
X142612000Y-84650000D03*
X142612000Y-84150000D03*
X142612000Y-83650000D03*
X142612000Y-83150000D03*
X142612000Y-82650000D03*
X142612000Y-82150000D03*
X142612000Y-81650000D03*
X142612000Y-81150000D03*
X142612000Y-80650000D03*
X142612000Y-80150000D03*
X142612000Y-79650000D03*
D32*
X157600000Y-82325000D03*
X157600000Y-80450000D03*
D35*
X161200000Y-85100000D03*
X161200000Y-81400000D03*
D27*
X155300000Y-84525000D03*
X155300000Y-82950000D03*
X147650000Y-60875000D03*
X147650000Y-59300000D03*
D30*
X134500000Y-57162500D03*
X134500000Y-58737500D03*
D29*
X143937500Y-44300000D03*
X142362500Y-44300000D03*
X143937500Y-47200000D03*
X142362500Y-47200000D03*
D36*
X148437500Y-47200000D03*
X146562500Y-47200000D03*
X148487500Y-44100000D03*
X146612500Y-44100000D03*
D37*
X153050000Y-46050000D03*
X153050000Y-48750000D03*
D29*
X143937500Y-50150000D03*
X142362500Y-50150000D03*
D36*
X148437500Y-50350000D03*
X146562500Y-50350000D03*
D38*
X154850000Y-103900000D03*
X146850000Y-103900000D03*
D39*
X147650000Y-93400000D03*
X148750000Y-93400000D03*
X149850000Y-93400000D03*
X150950000Y-93400000D03*
X152050000Y-93400000D03*
X153150000Y-93400000D03*
X154250000Y-93400000D03*
X155350000Y-93400000D03*
X156450000Y-93400000D03*
D40*
X157650000Y-103500000D03*
D41*
X157650000Y-93900000D03*
D42*
X143050000Y-93900000D03*
D40*
X142150000Y-103500000D03*
D43*
X154500000Y-77850000D03*
X157200000Y-77850000D03*
D27*
X130900000Y-53187500D03*
X130900000Y-51612500D03*
D28*
X155062500Y-62750000D03*
X156637500Y-62750000D03*
D44*
X99700000Y-90450000D03*
X99700000Y-87950000D03*
D45*
X116720000Y-91770000D03*
X115920000Y-91770000D03*
X115120000Y-91770000D03*
X114320000Y-91770000D03*
X113520000Y-91770000D03*
X112720000Y-91770000D03*
X111920000Y-91770000D03*
X111120000Y-91770000D03*
X110320000Y-91770000D03*
X109520000Y-91770000D03*
X108720000Y-91770000D03*
X107920000Y-91770000D03*
X107120000Y-91770000D03*
X106320000Y-91770000D03*
X105520000Y-91770000D03*
X104720000Y-91770000D03*
D46*
X102970000Y-90020000D03*
X102970000Y-89220000D03*
X102970000Y-88420000D03*
X102970000Y-87620000D03*
X102970000Y-86820000D03*
X102970000Y-86020000D03*
X102970000Y-85220000D03*
X102970000Y-84420000D03*
X102970000Y-83620000D03*
X102970000Y-82820000D03*
X102970000Y-82020000D03*
X102970000Y-81220000D03*
X102970000Y-80420000D03*
X102970000Y-79620000D03*
X102970000Y-78820000D03*
X102970000Y-78020000D03*
D45*
X104720000Y-76270000D03*
X105520000Y-76270000D03*
X106320000Y-76270000D03*
X107120000Y-76270000D03*
X107920000Y-76270000D03*
X108720000Y-76270000D03*
X109520000Y-76270000D03*
X110320000Y-76270000D03*
X111120000Y-76270000D03*
X111920000Y-76270000D03*
X112720000Y-76270000D03*
X113520000Y-76270000D03*
X114320000Y-76270000D03*
X115120000Y-76270000D03*
X115920000Y-76270000D03*
X116720000Y-76270000D03*
D46*
X118470000Y-78020000D03*
X118470000Y-78820000D03*
X118470000Y-79620000D03*
X118470000Y-80420000D03*
X118470000Y-81220000D03*
X118470000Y-82020000D03*
X118470000Y-82820000D03*
X118470000Y-83620000D03*
X118470000Y-84420000D03*
X118470000Y-85220000D03*
X118470000Y-86020000D03*
X118470000Y-86820000D03*
X118470000Y-87620000D03*
X118470000Y-88420000D03*
X118470000Y-89220000D03*
X118470000Y-90020000D03*
D37*
X142150000Y-56710000D03*
X142150000Y-59410000D03*
D30*
X147530000Y-74602500D03*
X147530000Y-76177500D03*
X149190000Y-74602500D03*
X149190000Y-76177500D03*
D28*
X142832500Y-88810000D03*
X144407500Y-88810000D03*
X142842500Y-90430000D03*
X144417500Y-90430000D03*
D31*
X120410000Y-92122500D03*
X120410000Y-93997500D03*
D47*
X138600000Y-55170000D03*
X135900000Y-55170000D03*
D48*
X134832500Y-83210000D03*
X136707500Y-83210000D03*
D31*
X153750000Y-73772500D03*
X153750000Y-75647500D03*
D36*
X166187500Y-71450000D03*
X164312500Y-71450000D03*
D48*
X151525000Y-43800000D03*
X153400000Y-43800000D03*
D49*
X161000000Y-90800000D03*
X161000000Y-88300000D03*
D36*
X166500000Y-78000000D03*
X164625000Y-78000000D03*
D50*
X163500000Y-61700000D03*
X163500000Y-59000000D03*
D32*
X137300000Y-101337500D03*
X137300000Y-99462500D03*
D36*
X166500000Y-80400000D03*
X164625000Y-80400000D03*
X165800000Y-88800000D03*
X163925000Y-88800000D03*
D28*
X157582500Y-90620000D03*
X159157500Y-90620000D03*
D51*
X163462500Y-92750000D03*
X163462500Y-91800000D03*
X163462500Y-90850000D03*
X165737500Y-90850000D03*
X165737500Y-92750000D03*
D28*
X116275000Y-95500000D03*
X117850000Y-95500000D03*
D36*
X166500000Y-83200000D03*
X164625000Y-83200000D03*
D29*
X159147500Y-89060000D03*
X157572500Y-89060000D03*
D27*
X138500000Y-97287500D03*
X138500000Y-95712500D03*
M02*
