G04 #@! TF.GenerationSoftware,KiCad,Pcbnew,8.0.6-8.0.6-0~ubuntu22.04.1*
G04 #@! TF.CreationDate,2024-11-29T16:11:17+03:00*
G04 #@! TF.ProjectId,Dreamstalker-PRO-v2,44726561-6d73-4746-916c-6b65722d5052,2.3*
G04 #@! TF.SameCoordinates,Original*
G04 #@! TF.FileFunction,AssemblyDrawing,Top*
%FSLAX46Y46*%
G04 Gerber Fmt 4.6, Leading zero omitted, Abs format (unit mm)*
G04 Created by KiCad (PCBNEW 8.0.6-8.0.6-0~ubuntu22.04.1) date 2024-11-29 16:11:17*
%MOMM*%
%LPD*%
G01*
G04 APERTURE LIST*
%ADD10C,0.150000*%
%ADD11C,0.060000*%
%ADD12C,0.080000*%
%ADD13C,0.050000*%
%ADD14C,0.100000*%
G04 APERTURE END LIST*
D10*
X93890476Y-98754819D02*
X93890476Y-97754819D01*
X93890476Y-97754819D02*
X94271428Y-97754819D01*
X94271428Y-97754819D02*
X94366666Y-97802438D01*
X94366666Y-97802438D02*
X94414285Y-97850057D01*
X94414285Y-97850057D02*
X94461904Y-97945295D01*
X94461904Y-97945295D02*
X94461904Y-98088152D01*
X94461904Y-98088152D02*
X94414285Y-98183390D01*
X94414285Y-98183390D02*
X94366666Y-98231009D01*
X94366666Y-98231009D02*
X94271428Y-98278628D01*
X94271428Y-98278628D02*
X93890476Y-98278628D01*
X95080952Y-97754819D02*
X95271428Y-97754819D01*
X95271428Y-97754819D02*
X95366666Y-97802438D01*
X95366666Y-97802438D02*
X95461904Y-97897676D01*
X95461904Y-97897676D02*
X95509523Y-98088152D01*
X95509523Y-98088152D02*
X95509523Y-98421485D01*
X95509523Y-98421485D02*
X95461904Y-98611961D01*
X95461904Y-98611961D02*
X95366666Y-98707200D01*
X95366666Y-98707200D02*
X95271428Y-98754819D01*
X95271428Y-98754819D02*
X95080952Y-98754819D01*
X95080952Y-98754819D02*
X94985714Y-98707200D01*
X94985714Y-98707200D02*
X94890476Y-98611961D01*
X94890476Y-98611961D02*
X94842857Y-98421485D01*
X94842857Y-98421485D02*
X94842857Y-98088152D01*
X94842857Y-98088152D02*
X94890476Y-97897676D01*
X94890476Y-97897676D02*
X94985714Y-97802438D01*
X94985714Y-97802438D02*
X95080952Y-97754819D01*
X95842857Y-97754819D02*
X96080952Y-98754819D01*
X96080952Y-98754819D02*
X96271428Y-98040533D01*
X96271428Y-98040533D02*
X96461904Y-98754819D01*
X96461904Y-98754819D02*
X96700000Y-97754819D01*
X97080952Y-98231009D02*
X97414285Y-98231009D01*
X97557142Y-98754819D02*
X97080952Y-98754819D01*
X97080952Y-98754819D02*
X97080952Y-97754819D01*
X97080952Y-97754819D02*
X97557142Y-97754819D01*
X98557142Y-98754819D02*
X98223809Y-98278628D01*
X97985714Y-98754819D02*
X97985714Y-97754819D01*
X97985714Y-97754819D02*
X98366666Y-97754819D01*
X98366666Y-97754819D02*
X98461904Y-97802438D01*
X98461904Y-97802438D02*
X98509523Y-97850057D01*
X98509523Y-97850057D02*
X98557142Y-97945295D01*
X98557142Y-97945295D02*
X98557142Y-98088152D01*
X98557142Y-98088152D02*
X98509523Y-98183390D01*
X98509523Y-98183390D02*
X98461904Y-98231009D01*
X98461904Y-98231009D02*
X98366666Y-98278628D01*
X98366666Y-98278628D02*
X97985714Y-98278628D01*
X103016667Y-100957200D02*
X103159524Y-101004819D01*
X103159524Y-101004819D02*
X103397619Y-101004819D01*
X103397619Y-101004819D02*
X103492857Y-100957200D01*
X103492857Y-100957200D02*
X103540476Y-100909580D01*
X103540476Y-100909580D02*
X103588095Y-100814342D01*
X103588095Y-100814342D02*
X103588095Y-100719104D01*
X103588095Y-100719104D02*
X103540476Y-100623866D01*
X103540476Y-100623866D02*
X103492857Y-100576247D01*
X103492857Y-100576247D02*
X103397619Y-100528628D01*
X103397619Y-100528628D02*
X103207143Y-100481009D01*
X103207143Y-100481009D02*
X103111905Y-100433390D01*
X103111905Y-100433390D02*
X103064286Y-100385771D01*
X103064286Y-100385771D02*
X103016667Y-100290533D01*
X103016667Y-100290533D02*
X103016667Y-100195295D01*
X103016667Y-100195295D02*
X103064286Y-100100057D01*
X103064286Y-100100057D02*
X103111905Y-100052438D01*
X103111905Y-100052438D02*
X103207143Y-100004819D01*
X103207143Y-100004819D02*
X103445238Y-100004819D01*
X103445238Y-100004819D02*
X103588095Y-100052438D01*
X103921429Y-100004819D02*
X104159524Y-101004819D01*
X104159524Y-101004819D02*
X104350000Y-100290533D01*
X104350000Y-100290533D02*
X104540476Y-101004819D01*
X104540476Y-101004819D02*
X104778572Y-100004819D01*
X105064286Y-100004819D02*
X105683333Y-100004819D01*
X105683333Y-100004819D02*
X105350000Y-100385771D01*
X105350000Y-100385771D02*
X105492857Y-100385771D01*
X105492857Y-100385771D02*
X105588095Y-100433390D01*
X105588095Y-100433390D02*
X105635714Y-100481009D01*
X105635714Y-100481009D02*
X105683333Y-100576247D01*
X105683333Y-100576247D02*
X105683333Y-100814342D01*
X105683333Y-100814342D02*
X105635714Y-100909580D01*
X105635714Y-100909580D02*
X105588095Y-100957200D01*
X105588095Y-100957200D02*
X105492857Y-101004819D01*
X105492857Y-101004819D02*
X105207143Y-101004819D01*
X105207143Y-101004819D02*
X105111905Y-100957200D01*
X105111905Y-100957200D02*
X105064286Y-100909580D01*
X127333333Y-105809580D02*
X127285714Y-105857200D01*
X127285714Y-105857200D02*
X127142857Y-105904819D01*
X127142857Y-105904819D02*
X127047619Y-105904819D01*
X127047619Y-105904819D02*
X126904762Y-105857200D01*
X126904762Y-105857200D02*
X126809524Y-105761961D01*
X126809524Y-105761961D02*
X126761905Y-105666723D01*
X126761905Y-105666723D02*
X126714286Y-105476247D01*
X126714286Y-105476247D02*
X126714286Y-105333390D01*
X126714286Y-105333390D02*
X126761905Y-105142914D01*
X126761905Y-105142914D02*
X126809524Y-105047676D01*
X126809524Y-105047676D02*
X126904762Y-104952438D01*
X126904762Y-104952438D02*
X127047619Y-104904819D01*
X127047619Y-104904819D02*
X127142857Y-104904819D01*
X127142857Y-104904819D02*
X127285714Y-104952438D01*
X127285714Y-104952438D02*
X127333333Y-105000057D01*
X127761905Y-105904819D02*
X127761905Y-104904819D01*
X127761905Y-105381009D02*
X128333333Y-105381009D01*
X128333333Y-105904819D02*
X128333333Y-104904819D01*
X128809524Y-105381009D02*
X129142857Y-105381009D01*
X129285714Y-105904819D02*
X128809524Y-105904819D01*
X128809524Y-105904819D02*
X128809524Y-104904819D01*
X128809524Y-104904819D02*
X129285714Y-104904819D01*
X130285714Y-105809580D02*
X130238095Y-105857200D01*
X130238095Y-105857200D02*
X130095238Y-105904819D01*
X130095238Y-105904819D02*
X130000000Y-105904819D01*
X130000000Y-105904819D02*
X129857143Y-105857200D01*
X129857143Y-105857200D02*
X129761905Y-105761961D01*
X129761905Y-105761961D02*
X129714286Y-105666723D01*
X129714286Y-105666723D02*
X129666667Y-105476247D01*
X129666667Y-105476247D02*
X129666667Y-105333390D01*
X129666667Y-105333390D02*
X129714286Y-105142914D01*
X129714286Y-105142914D02*
X129761905Y-105047676D01*
X129761905Y-105047676D02*
X129857143Y-104952438D01*
X129857143Y-104952438D02*
X130000000Y-104904819D01*
X130000000Y-104904819D02*
X130095238Y-104904819D01*
X130095238Y-104904819D02*
X130238095Y-104952438D01*
X130238095Y-104952438D02*
X130285714Y-105000057D01*
X130714286Y-105904819D02*
X130714286Y-104904819D01*
X131285714Y-105904819D02*
X130857143Y-105333390D01*
X131285714Y-104904819D02*
X130714286Y-105476247D01*
X127666667Y-100957200D02*
X127809524Y-101004819D01*
X127809524Y-101004819D02*
X128047619Y-101004819D01*
X128047619Y-101004819D02*
X128142857Y-100957200D01*
X128142857Y-100957200D02*
X128190476Y-100909580D01*
X128190476Y-100909580D02*
X128238095Y-100814342D01*
X128238095Y-100814342D02*
X128238095Y-100719104D01*
X128238095Y-100719104D02*
X128190476Y-100623866D01*
X128190476Y-100623866D02*
X128142857Y-100576247D01*
X128142857Y-100576247D02*
X128047619Y-100528628D01*
X128047619Y-100528628D02*
X127857143Y-100481009D01*
X127857143Y-100481009D02*
X127761905Y-100433390D01*
X127761905Y-100433390D02*
X127714286Y-100385771D01*
X127714286Y-100385771D02*
X127666667Y-100290533D01*
X127666667Y-100290533D02*
X127666667Y-100195295D01*
X127666667Y-100195295D02*
X127714286Y-100100057D01*
X127714286Y-100100057D02*
X127761905Y-100052438D01*
X127761905Y-100052438D02*
X127857143Y-100004819D01*
X127857143Y-100004819D02*
X128095238Y-100004819D01*
X128095238Y-100004819D02*
X128238095Y-100052438D01*
X128571429Y-100004819D02*
X128809524Y-101004819D01*
X128809524Y-101004819D02*
X129000000Y-100290533D01*
X129000000Y-100290533D02*
X129190476Y-101004819D01*
X129190476Y-101004819D02*
X129428572Y-100004819D01*
X130238095Y-100338152D02*
X130238095Y-101004819D01*
X130000000Y-99957200D02*
X129761905Y-100671485D01*
X129761905Y-100671485D02*
X130380952Y-100671485D01*
D11*
X97933333Y-88081927D02*
X97800000Y-87891451D01*
X97704762Y-88081927D02*
X97704762Y-87681927D01*
X97704762Y-87681927D02*
X97857143Y-87681927D01*
X97857143Y-87681927D02*
X97895238Y-87700975D01*
X97895238Y-87700975D02*
X97914285Y-87720022D01*
X97914285Y-87720022D02*
X97933333Y-87758118D01*
X97933333Y-87758118D02*
X97933333Y-87815260D01*
X97933333Y-87815260D02*
X97914285Y-87853356D01*
X97914285Y-87853356D02*
X97895238Y-87872403D01*
X97895238Y-87872403D02*
X97857143Y-87891451D01*
X97857143Y-87891451D02*
X97704762Y-87891451D01*
X98066666Y-87681927D02*
X98314285Y-87681927D01*
X98314285Y-87681927D02*
X98180952Y-87834308D01*
X98180952Y-87834308D02*
X98238095Y-87834308D01*
X98238095Y-87834308D02*
X98276190Y-87853356D01*
X98276190Y-87853356D02*
X98295238Y-87872403D01*
X98295238Y-87872403D02*
X98314285Y-87910499D01*
X98314285Y-87910499D02*
X98314285Y-88005737D01*
X98314285Y-88005737D02*
X98295238Y-88043832D01*
X98295238Y-88043832D02*
X98276190Y-88062880D01*
X98276190Y-88062880D02*
X98238095Y-88081927D01*
X98238095Y-88081927D02*
X98123809Y-88081927D01*
X98123809Y-88081927D02*
X98085714Y-88062880D01*
X98085714Y-88062880D02*
X98066666Y-88043832D01*
D12*
X133379530Y-60370833D02*
X133403340Y-60394642D01*
X133403340Y-60394642D02*
X133427149Y-60466071D01*
X133427149Y-60466071D02*
X133427149Y-60513690D01*
X133427149Y-60513690D02*
X133403340Y-60585118D01*
X133403340Y-60585118D02*
X133355720Y-60632737D01*
X133355720Y-60632737D02*
X133308101Y-60656547D01*
X133308101Y-60656547D02*
X133212863Y-60680356D01*
X133212863Y-60680356D02*
X133141435Y-60680356D01*
X133141435Y-60680356D02*
X133046197Y-60656547D01*
X133046197Y-60656547D02*
X132998578Y-60632737D01*
X132998578Y-60632737D02*
X132950959Y-60585118D01*
X132950959Y-60585118D02*
X132927149Y-60513690D01*
X132927149Y-60513690D02*
X132927149Y-60466071D01*
X132927149Y-60466071D02*
X132950959Y-60394642D01*
X132950959Y-60394642D02*
X132974768Y-60370833D01*
X133427149Y-60132737D02*
X133427149Y-60037499D01*
X133427149Y-60037499D02*
X133403340Y-59989880D01*
X133403340Y-59989880D02*
X133379530Y-59966071D01*
X133379530Y-59966071D02*
X133308101Y-59918452D01*
X133308101Y-59918452D02*
X133212863Y-59894642D01*
X133212863Y-59894642D02*
X133022387Y-59894642D01*
X133022387Y-59894642D02*
X132974768Y-59918452D01*
X132974768Y-59918452D02*
X132950959Y-59942261D01*
X132950959Y-59942261D02*
X132927149Y-59989880D01*
X132927149Y-59989880D02*
X132927149Y-60085118D01*
X132927149Y-60085118D02*
X132950959Y-60132737D01*
X132950959Y-60132737D02*
X132974768Y-60156547D01*
X132974768Y-60156547D02*
X133022387Y-60180356D01*
X133022387Y-60180356D02*
X133141435Y-60180356D01*
X133141435Y-60180356D02*
X133189054Y-60156547D01*
X133189054Y-60156547D02*
X133212863Y-60132737D01*
X133212863Y-60132737D02*
X133236673Y-60085118D01*
X133236673Y-60085118D02*
X133236673Y-59989880D01*
X133236673Y-59989880D02*
X133212863Y-59942261D01*
X133212863Y-59942261D02*
X133189054Y-59918452D01*
X133189054Y-59918452D02*
X133141435Y-59894642D01*
X94016666Y-91279530D02*
X93992857Y-91303340D01*
X93992857Y-91303340D02*
X93921428Y-91327149D01*
X93921428Y-91327149D02*
X93873809Y-91327149D01*
X93873809Y-91327149D02*
X93802381Y-91303340D01*
X93802381Y-91303340D02*
X93754762Y-91255720D01*
X93754762Y-91255720D02*
X93730952Y-91208101D01*
X93730952Y-91208101D02*
X93707143Y-91112863D01*
X93707143Y-91112863D02*
X93707143Y-91041435D01*
X93707143Y-91041435D02*
X93730952Y-90946197D01*
X93730952Y-90946197D02*
X93754762Y-90898578D01*
X93754762Y-90898578D02*
X93802381Y-90850959D01*
X93802381Y-90850959D02*
X93873809Y-90827149D01*
X93873809Y-90827149D02*
X93921428Y-90827149D01*
X93921428Y-90827149D02*
X93992857Y-90850959D01*
X93992857Y-90850959D02*
X94016666Y-90874768D01*
X94492857Y-91327149D02*
X94207143Y-91327149D01*
X94350000Y-91327149D02*
X94350000Y-90827149D01*
X94350000Y-90827149D02*
X94302381Y-90898578D01*
X94302381Y-90898578D02*
X94254762Y-90946197D01*
X94254762Y-90946197D02*
X94207143Y-90970006D01*
D10*
X149209048Y-52583866D02*
X149970953Y-52583866D01*
X149590000Y-52964819D02*
X149590000Y-52202914D01*
X109046666Y-110684819D02*
X109046666Y-111399104D01*
X109046666Y-111399104D02*
X108999047Y-111541961D01*
X108999047Y-111541961D02*
X108903809Y-111637200D01*
X108903809Y-111637200D02*
X108760952Y-111684819D01*
X108760952Y-111684819D02*
X108665714Y-111684819D01*
X109475238Y-110780057D02*
X109522857Y-110732438D01*
X109522857Y-110732438D02*
X109618095Y-110684819D01*
X109618095Y-110684819D02*
X109856190Y-110684819D01*
X109856190Y-110684819D02*
X109951428Y-110732438D01*
X109951428Y-110732438D02*
X109999047Y-110780057D01*
X109999047Y-110780057D02*
X110046666Y-110875295D01*
X110046666Y-110875295D02*
X110046666Y-110970533D01*
X110046666Y-110970533D02*
X109999047Y-111113390D01*
X109999047Y-111113390D02*
X109427619Y-111684819D01*
X109427619Y-111684819D02*
X110046666Y-111684819D01*
X162924819Y-102323333D02*
X163639104Y-102323333D01*
X163639104Y-102323333D02*
X163781961Y-102370952D01*
X163781961Y-102370952D02*
X163877200Y-102466190D01*
X163877200Y-102466190D02*
X163924819Y-102609047D01*
X163924819Y-102609047D02*
X163924819Y-102704285D01*
X163924819Y-101323333D02*
X163924819Y-101894761D01*
X163924819Y-101609047D02*
X162924819Y-101609047D01*
X162924819Y-101609047D02*
X163067676Y-101704285D01*
X163067676Y-101704285D02*
X163162914Y-101799523D01*
X163162914Y-101799523D02*
X163210533Y-101894761D01*
X135916666Y-48704819D02*
X135916666Y-49419104D01*
X135916666Y-49419104D02*
X135869047Y-49561961D01*
X135869047Y-49561961D02*
X135773809Y-49657200D01*
X135773809Y-49657200D02*
X135630952Y-49704819D01*
X135630952Y-49704819D02*
X135535714Y-49704819D01*
X136297619Y-48704819D02*
X136916666Y-48704819D01*
X136916666Y-48704819D02*
X136583333Y-49085771D01*
X136583333Y-49085771D02*
X136726190Y-49085771D01*
X136726190Y-49085771D02*
X136821428Y-49133390D01*
X136821428Y-49133390D02*
X136869047Y-49181009D01*
X136869047Y-49181009D02*
X136916666Y-49276247D01*
X136916666Y-49276247D02*
X136916666Y-49514342D01*
X136916666Y-49514342D02*
X136869047Y-49609580D01*
X136869047Y-49609580D02*
X136821428Y-49657200D01*
X136821428Y-49657200D02*
X136726190Y-49704819D01*
X136726190Y-49704819D02*
X136440476Y-49704819D01*
X136440476Y-49704819D02*
X136345238Y-49657200D01*
X136345238Y-49657200D02*
X136297619Y-49609580D01*
X102578571Y-43331009D02*
X102911904Y-43331009D01*
X103054761Y-43854819D02*
X102578571Y-43854819D01*
X102578571Y-43854819D02*
X102578571Y-42854819D01*
X102578571Y-42854819D02*
X103054761Y-42854819D01*
X103483333Y-43854819D02*
X103483333Y-42854819D01*
X103483333Y-42854819D02*
X104054761Y-43854819D01*
X104054761Y-43854819D02*
X104054761Y-42854819D01*
X104388095Y-42854819D02*
X104959523Y-42854819D01*
X104673809Y-43854819D02*
X104673809Y-42854819D01*
X105292857Y-43331009D02*
X105626190Y-43331009D01*
X105769047Y-43854819D02*
X105292857Y-43854819D01*
X105292857Y-43854819D02*
X105292857Y-42854819D01*
X105292857Y-42854819D02*
X105769047Y-42854819D01*
X106769047Y-43854819D02*
X106435714Y-43378628D01*
X106197619Y-43854819D02*
X106197619Y-42854819D01*
X106197619Y-42854819D02*
X106578571Y-42854819D01*
X106578571Y-42854819D02*
X106673809Y-42902438D01*
X106673809Y-42902438D02*
X106721428Y-42950057D01*
X106721428Y-42950057D02*
X106769047Y-43045295D01*
X106769047Y-43045295D02*
X106769047Y-43188152D01*
X106769047Y-43188152D02*
X106721428Y-43283390D01*
X106721428Y-43283390D02*
X106673809Y-43331009D01*
X106673809Y-43331009D02*
X106578571Y-43378628D01*
X106578571Y-43378628D02*
X106197619Y-43378628D01*
X103666667Y-48607200D02*
X103809524Y-48654819D01*
X103809524Y-48654819D02*
X104047619Y-48654819D01*
X104047619Y-48654819D02*
X104142857Y-48607200D01*
X104142857Y-48607200D02*
X104190476Y-48559580D01*
X104190476Y-48559580D02*
X104238095Y-48464342D01*
X104238095Y-48464342D02*
X104238095Y-48369104D01*
X104238095Y-48369104D02*
X104190476Y-48273866D01*
X104190476Y-48273866D02*
X104142857Y-48226247D01*
X104142857Y-48226247D02*
X104047619Y-48178628D01*
X104047619Y-48178628D02*
X103857143Y-48131009D01*
X103857143Y-48131009D02*
X103761905Y-48083390D01*
X103761905Y-48083390D02*
X103714286Y-48035771D01*
X103714286Y-48035771D02*
X103666667Y-47940533D01*
X103666667Y-47940533D02*
X103666667Y-47845295D01*
X103666667Y-47845295D02*
X103714286Y-47750057D01*
X103714286Y-47750057D02*
X103761905Y-47702438D01*
X103761905Y-47702438D02*
X103857143Y-47654819D01*
X103857143Y-47654819D02*
X104095238Y-47654819D01*
X104095238Y-47654819D02*
X104238095Y-47702438D01*
X104571429Y-47654819D02*
X104809524Y-48654819D01*
X104809524Y-48654819D02*
X105000000Y-47940533D01*
X105000000Y-47940533D02*
X105190476Y-48654819D01*
X105190476Y-48654819D02*
X105428572Y-47654819D01*
X105761905Y-47750057D02*
X105809524Y-47702438D01*
X105809524Y-47702438D02*
X105904762Y-47654819D01*
X105904762Y-47654819D02*
X106142857Y-47654819D01*
X106142857Y-47654819D02*
X106238095Y-47702438D01*
X106238095Y-47702438D02*
X106285714Y-47750057D01*
X106285714Y-47750057D02*
X106333333Y-47845295D01*
X106333333Y-47845295D02*
X106333333Y-47940533D01*
X106333333Y-47940533D02*
X106285714Y-48083390D01*
X106285714Y-48083390D02*
X105714286Y-48654819D01*
X105714286Y-48654819D02*
X106333333Y-48654819D01*
X92673809Y-43857200D02*
X92816666Y-43904819D01*
X92816666Y-43904819D02*
X93054761Y-43904819D01*
X93054761Y-43904819D02*
X93149999Y-43857200D01*
X93149999Y-43857200D02*
X93197618Y-43809580D01*
X93197618Y-43809580D02*
X93245237Y-43714342D01*
X93245237Y-43714342D02*
X93245237Y-43619104D01*
X93245237Y-43619104D02*
X93197618Y-43523866D01*
X93197618Y-43523866D02*
X93149999Y-43476247D01*
X93149999Y-43476247D02*
X93054761Y-43428628D01*
X93054761Y-43428628D02*
X92864285Y-43381009D01*
X92864285Y-43381009D02*
X92769047Y-43333390D01*
X92769047Y-43333390D02*
X92721428Y-43285771D01*
X92721428Y-43285771D02*
X92673809Y-43190533D01*
X92673809Y-43190533D02*
X92673809Y-43095295D01*
X92673809Y-43095295D02*
X92721428Y-43000057D01*
X92721428Y-43000057D02*
X92769047Y-42952438D01*
X92769047Y-42952438D02*
X92864285Y-42904819D01*
X92864285Y-42904819D02*
X93102380Y-42904819D01*
X93102380Y-42904819D02*
X93245237Y-42952438D01*
X93673809Y-43381009D02*
X94007142Y-43381009D01*
X94149999Y-43904819D02*
X93673809Y-43904819D01*
X93673809Y-43904819D02*
X93673809Y-42904819D01*
X93673809Y-42904819D02*
X94149999Y-42904819D01*
X95054761Y-43904819D02*
X94578571Y-43904819D01*
X94578571Y-43904819D02*
X94578571Y-42904819D01*
X95388095Y-43381009D02*
X95721428Y-43381009D01*
X95864285Y-43904819D02*
X95388095Y-43904819D01*
X95388095Y-43904819D02*
X95388095Y-42904819D01*
X95388095Y-42904819D02*
X95864285Y-42904819D01*
X96864285Y-43809580D02*
X96816666Y-43857200D01*
X96816666Y-43857200D02*
X96673809Y-43904819D01*
X96673809Y-43904819D02*
X96578571Y-43904819D01*
X96578571Y-43904819D02*
X96435714Y-43857200D01*
X96435714Y-43857200D02*
X96340476Y-43761961D01*
X96340476Y-43761961D02*
X96292857Y-43666723D01*
X96292857Y-43666723D02*
X96245238Y-43476247D01*
X96245238Y-43476247D02*
X96245238Y-43333390D01*
X96245238Y-43333390D02*
X96292857Y-43142914D01*
X96292857Y-43142914D02*
X96340476Y-43047676D01*
X96340476Y-43047676D02*
X96435714Y-42952438D01*
X96435714Y-42952438D02*
X96578571Y-42904819D01*
X96578571Y-42904819D02*
X96673809Y-42904819D01*
X96673809Y-42904819D02*
X96816666Y-42952438D01*
X96816666Y-42952438D02*
X96864285Y-43000057D01*
X97150000Y-42904819D02*
X97721428Y-42904819D01*
X97435714Y-43904819D02*
X97435714Y-42904819D01*
X93766667Y-48607200D02*
X93909524Y-48654819D01*
X93909524Y-48654819D02*
X94147619Y-48654819D01*
X94147619Y-48654819D02*
X94242857Y-48607200D01*
X94242857Y-48607200D02*
X94290476Y-48559580D01*
X94290476Y-48559580D02*
X94338095Y-48464342D01*
X94338095Y-48464342D02*
X94338095Y-48369104D01*
X94338095Y-48369104D02*
X94290476Y-48273866D01*
X94290476Y-48273866D02*
X94242857Y-48226247D01*
X94242857Y-48226247D02*
X94147619Y-48178628D01*
X94147619Y-48178628D02*
X93957143Y-48131009D01*
X93957143Y-48131009D02*
X93861905Y-48083390D01*
X93861905Y-48083390D02*
X93814286Y-48035771D01*
X93814286Y-48035771D02*
X93766667Y-47940533D01*
X93766667Y-47940533D02*
X93766667Y-47845295D01*
X93766667Y-47845295D02*
X93814286Y-47750057D01*
X93814286Y-47750057D02*
X93861905Y-47702438D01*
X93861905Y-47702438D02*
X93957143Y-47654819D01*
X93957143Y-47654819D02*
X94195238Y-47654819D01*
X94195238Y-47654819D02*
X94338095Y-47702438D01*
X94671429Y-47654819D02*
X94909524Y-48654819D01*
X94909524Y-48654819D02*
X95100000Y-47940533D01*
X95100000Y-47940533D02*
X95290476Y-48654819D01*
X95290476Y-48654819D02*
X95528572Y-47654819D01*
X96433333Y-48654819D02*
X95861905Y-48654819D01*
X96147619Y-48654819D02*
X96147619Y-47654819D01*
X96147619Y-47654819D02*
X96052381Y-47797676D01*
X96052381Y-47797676D02*
X95957143Y-47892914D01*
X95957143Y-47892914D02*
X95861905Y-47940533D01*
X114138095Y-43888152D02*
X113900000Y-43888152D01*
X113900000Y-43888152D02*
X113900000Y-42459580D01*
X113900000Y-42459580D02*
X114138095Y-42459580D01*
X114519048Y-43173866D02*
X115280953Y-43173866D01*
X114900000Y-43554819D02*
X114900000Y-42792914D01*
X115661905Y-43888152D02*
X115900000Y-43888152D01*
X115900000Y-43888152D02*
X115900000Y-42459580D01*
X115900000Y-42459580D02*
X115661905Y-42459580D01*
X113566667Y-48607200D02*
X113709524Y-48654819D01*
X113709524Y-48654819D02*
X113947619Y-48654819D01*
X113947619Y-48654819D02*
X114042857Y-48607200D01*
X114042857Y-48607200D02*
X114090476Y-48559580D01*
X114090476Y-48559580D02*
X114138095Y-48464342D01*
X114138095Y-48464342D02*
X114138095Y-48369104D01*
X114138095Y-48369104D02*
X114090476Y-48273866D01*
X114090476Y-48273866D02*
X114042857Y-48226247D01*
X114042857Y-48226247D02*
X113947619Y-48178628D01*
X113947619Y-48178628D02*
X113757143Y-48131009D01*
X113757143Y-48131009D02*
X113661905Y-48083390D01*
X113661905Y-48083390D02*
X113614286Y-48035771D01*
X113614286Y-48035771D02*
X113566667Y-47940533D01*
X113566667Y-47940533D02*
X113566667Y-47845295D01*
X113566667Y-47845295D02*
X113614286Y-47750057D01*
X113614286Y-47750057D02*
X113661905Y-47702438D01*
X113661905Y-47702438D02*
X113757143Y-47654819D01*
X113757143Y-47654819D02*
X113995238Y-47654819D01*
X113995238Y-47654819D02*
X114138095Y-47702438D01*
X114471429Y-47654819D02*
X114709524Y-48654819D01*
X114709524Y-48654819D02*
X114900000Y-47940533D01*
X114900000Y-47940533D02*
X115090476Y-48654819D01*
X115090476Y-48654819D02*
X115328572Y-47654819D01*
X116185714Y-47654819D02*
X115709524Y-47654819D01*
X115709524Y-47654819D02*
X115661905Y-48131009D01*
X115661905Y-48131009D02*
X115709524Y-48083390D01*
X115709524Y-48083390D02*
X115804762Y-48035771D01*
X115804762Y-48035771D02*
X116042857Y-48035771D01*
X116042857Y-48035771D02*
X116138095Y-48083390D01*
X116138095Y-48083390D02*
X116185714Y-48131009D01*
X116185714Y-48131009D02*
X116233333Y-48226247D01*
X116233333Y-48226247D02*
X116233333Y-48464342D01*
X116233333Y-48464342D02*
X116185714Y-48559580D01*
X116185714Y-48559580D02*
X116138095Y-48607200D01*
X116138095Y-48607200D02*
X116042857Y-48654819D01*
X116042857Y-48654819D02*
X115804762Y-48654819D01*
X115804762Y-48654819D02*
X115709524Y-48607200D01*
X115709524Y-48607200D02*
X115661905Y-48559580D01*
X124138095Y-43888152D02*
X123900000Y-43888152D01*
X123900000Y-43888152D02*
X123900000Y-42459580D01*
X123900000Y-42459580D02*
X124138095Y-42459580D01*
X124519048Y-43173866D02*
X125280953Y-43173866D01*
X125661905Y-43888152D02*
X125900000Y-43888152D01*
X125900000Y-43888152D02*
X125900000Y-42459580D01*
X125900000Y-42459580D02*
X125661905Y-42459580D01*
X123566667Y-48607200D02*
X123709524Y-48654819D01*
X123709524Y-48654819D02*
X123947619Y-48654819D01*
X123947619Y-48654819D02*
X124042857Y-48607200D01*
X124042857Y-48607200D02*
X124090476Y-48559580D01*
X124090476Y-48559580D02*
X124138095Y-48464342D01*
X124138095Y-48464342D02*
X124138095Y-48369104D01*
X124138095Y-48369104D02*
X124090476Y-48273866D01*
X124090476Y-48273866D02*
X124042857Y-48226247D01*
X124042857Y-48226247D02*
X123947619Y-48178628D01*
X123947619Y-48178628D02*
X123757143Y-48131009D01*
X123757143Y-48131009D02*
X123661905Y-48083390D01*
X123661905Y-48083390D02*
X123614286Y-48035771D01*
X123614286Y-48035771D02*
X123566667Y-47940533D01*
X123566667Y-47940533D02*
X123566667Y-47845295D01*
X123566667Y-47845295D02*
X123614286Y-47750057D01*
X123614286Y-47750057D02*
X123661905Y-47702438D01*
X123661905Y-47702438D02*
X123757143Y-47654819D01*
X123757143Y-47654819D02*
X123995238Y-47654819D01*
X123995238Y-47654819D02*
X124138095Y-47702438D01*
X124471429Y-47654819D02*
X124709524Y-48654819D01*
X124709524Y-48654819D02*
X124900000Y-47940533D01*
X124900000Y-47940533D02*
X125090476Y-48654819D01*
X125090476Y-48654819D02*
X125328572Y-47654819D01*
X126138095Y-47654819D02*
X125947619Y-47654819D01*
X125947619Y-47654819D02*
X125852381Y-47702438D01*
X125852381Y-47702438D02*
X125804762Y-47750057D01*
X125804762Y-47750057D02*
X125709524Y-47892914D01*
X125709524Y-47892914D02*
X125661905Y-48083390D01*
X125661905Y-48083390D02*
X125661905Y-48464342D01*
X125661905Y-48464342D02*
X125709524Y-48559580D01*
X125709524Y-48559580D02*
X125757143Y-48607200D01*
X125757143Y-48607200D02*
X125852381Y-48654819D01*
X125852381Y-48654819D02*
X126042857Y-48654819D01*
X126042857Y-48654819D02*
X126138095Y-48607200D01*
X126138095Y-48607200D02*
X126185714Y-48559580D01*
X126185714Y-48559580D02*
X126233333Y-48464342D01*
X126233333Y-48464342D02*
X126233333Y-48226247D01*
X126233333Y-48226247D02*
X126185714Y-48131009D01*
X126185714Y-48131009D02*
X126138095Y-48083390D01*
X126138095Y-48083390D02*
X126042857Y-48035771D01*
X126042857Y-48035771D02*
X125852381Y-48035771D01*
X125852381Y-48035771D02*
X125757143Y-48083390D01*
X125757143Y-48083390D02*
X125709524Y-48131009D01*
X125709524Y-48131009D02*
X125661905Y-48226247D01*
D11*
X141581927Y-54757142D02*
X141391451Y-54890475D01*
X141581927Y-54985713D02*
X141181927Y-54985713D01*
X141181927Y-54985713D02*
X141181927Y-54833332D01*
X141181927Y-54833332D02*
X141200975Y-54795237D01*
X141200975Y-54795237D02*
X141220022Y-54776190D01*
X141220022Y-54776190D02*
X141258118Y-54757142D01*
X141258118Y-54757142D02*
X141315260Y-54757142D01*
X141315260Y-54757142D02*
X141353356Y-54776190D01*
X141353356Y-54776190D02*
X141372403Y-54795237D01*
X141372403Y-54795237D02*
X141391451Y-54833332D01*
X141391451Y-54833332D02*
X141391451Y-54985713D01*
X141220022Y-54604761D02*
X141200975Y-54585713D01*
X141200975Y-54585713D02*
X141181927Y-54547618D01*
X141181927Y-54547618D02*
X141181927Y-54452380D01*
X141181927Y-54452380D02*
X141200975Y-54414285D01*
X141200975Y-54414285D02*
X141220022Y-54395237D01*
X141220022Y-54395237D02*
X141258118Y-54376190D01*
X141258118Y-54376190D02*
X141296213Y-54376190D01*
X141296213Y-54376190D02*
X141353356Y-54395237D01*
X141353356Y-54395237D02*
X141581927Y-54623809D01*
X141581927Y-54623809D02*
X141581927Y-54376190D01*
X141181927Y-54033333D02*
X141181927Y-54109523D01*
X141181927Y-54109523D02*
X141200975Y-54147619D01*
X141200975Y-54147619D02*
X141220022Y-54166666D01*
X141220022Y-54166666D02*
X141277165Y-54204761D01*
X141277165Y-54204761D02*
X141353356Y-54223809D01*
X141353356Y-54223809D02*
X141505737Y-54223809D01*
X141505737Y-54223809D02*
X141543832Y-54204761D01*
X141543832Y-54204761D02*
X141562880Y-54185714D01*
X141562880Y-54185714D02*
X141581927Y-54147619D01*
X141581927Y-54147619D02*
X141581927Y-54071428D01*
X141581927Y-54071428D02*
X141562880Y-54033333D01*
X141562880Y-54033333D02*
X141543832Y-54014285D01*
X141543832Y-54014285D02*
X141505737Y-53995238D01*
X141505737Y-53995238D02*
X141410499Y-53995238D01*
X141410499Y-53995238D02*
X141372403Y-54014285D01*
X141372403Y-54014285D02*
X141353356Y-54033333D01*
X141353356Y-54033333D02*
X141334308Y-54071428D01*
X141334308Y-54071428D02*
X141334308Y-54147619D01*
X141334308Y-54147619D02*
X141353356Y-54185714D01*
X141353356Y-54185714D02*
X141372403Y-54204761D01*
X141372403Y-54204761D02*
X141410499Y-54223809D01*
D10*
X169059819Y-75057142D02*
X169869342Y-75057142D01*
X169869342Y-75057142D02*
X169964580Y-75009523D01*
X169964580Y-75009523D02*
X170012200Y-74961904D01*
X170012200Y-74961904D02*
X170059819Y-74866666D01*
X170059819Y-74866666D02*
X170059819Y-74676190D01*
X170059819Y-74676190D02*
X170012200Y-74580952D01*
X170012200Y-74580952D02*
X169964580Y-74533333D01*
X169964580Y-74533333D02*
X169869342Y-74485714D01*
X169869342Y-74485714D02*
X169059819Y-74485714D01*
X170012200Y-74057142D02*
X170059819Y-73914285D01*
X170059819Y-73914285D02*
X170059819Y-73676190D01*
X170059819Y-73676190D02*
X170012200Y-73580952D01*
X170012200Y-73580952D02*
X169964580Y-73533333D01*
X169964580Y-73533333D02*
X169869342Y-73485714D01*
X169869342Y-73485714D02*
X169774104Y-73485714D01*
X169774104Y-73485714D02*
X169678866Y-73533333D01*
X169678866Y-73533333D02*
X169631247Y-73580952D01*
X169631247Y-73580952D02*
X169583628Y-73676190D01*
X169583628Y-73676190D02*
X169536009Y-73866666D01*
X169536009Y-73866666D02*
X169488390Y-73961904D01*
X169488390Y-73961904D02*
X169440771Y-74009523D01*
X169440771Y-74009523D02*
X169345533Y-74057142D01*
X169345533Y-74057142D02*
X169250295Y-74057142D01*
X169250295Y-74057142D02*
X169155057Y-74009523D01*
X169155057Y-74009523D02*
X169107438Y-73961904D01*
X169107438Y-73961904D02*
X169059819Y-73866666D01*
X169059819Y-73866666D02*
X169059819Y-73628571D01*
X169059819Y-73628571D02*
X169107438Y-73485714D01*
X169536009Y-72723809D02*
X169583628Y-72580952D01*
X169583628Y-72580952D02*
X169631247Y-72533333D01*
X169631247Y-72533333D02*
X169726485Y-72485714D01*
X169726485Y-72485714D02*
X169869342Y-72485714D01*
X169869342Y-72485714D02*
X169964580Y-72533333D01*
X169964580Y-72533333D02*
X170012200Y-72580952D01*
X170012200Y-72580952D02*
X170059819Y-72676190D01*
X170059819Y-72676190D02*
X170059819Y-73057142D01*
X170059819Y-73057142D02*
X169059819Y-73057142D01*
X169059819Y-73057142D02*
X169059819Y-72723809D01*
X169059819Y-72723809D02*
X169107438Y-72628571D01*
X169107438Y-72628571D02*
X169155057Y-72580952D01*
X169155057Y-72580952D02*
X169250295Y-72533333D01*
X169250295Y-72533333D02*
X169345533Y-72533333D01*
X169345533Y-72533333D02*
X169440771Y-72580952D01*
X169440771Y-72580952D02*
X169488390Y-72628571D01*
X169488390Y-72628571D02*
X169536009Y-72723809D01*
X169536009Y-72723809D02*
X169536009Y-73057142D01*
X170059819Y-71295237D02*
X169059819Y-71295237D01*
X169059819Y-71295237D02*
X169059819Y-70914285D01*
X169059819Y-70914285D02*
X169107438Y-70819047D01*
X169107438Y-70819047D02*
X169155057Y-70771428D01*
X169155057Y-70771428D02*
X169250295Y-70723809D01*
X169250295Y-70723809D02*
X169393152Y-70723809D01*
X169393152Y-70723809D02*
X169488390Y-70771428D01*
X169488390Y-70771428D02*
X169536009Y-70819047D01*
X169536009Y-70819047D02*
X169583628Y-70914285D01*
X169583628Y-70914285D02*
X169583628Y-71295237D01*
X170059819Y-70152380D02*
X170012200Y-70247618D01*
X170012200Y-70247618D02*
X169964580Y-70295237D01*
X169964580Y-70295237D02*
X169869342Y-70342856D01*
X169869342Y-70342856D02*
X169583628Y-70342856D01*
X169583628Y-70342856D02*
X169488390Y-70295237D01*
X169488390Y-70295237D02*
X169440771Y-70247618D01*
X169440771Y-70247618D02*
X169393152Y-70152380D01*
X169393152Y-70152380D02*
X169393152Y-70009523D01*
X169393152Y-70009523D02*
X169440771Y-69914285D01*
X169440771Y-69914285D02*
X169488390Y-69866666D01*
X169488390Y-69866666D02*
X169583628Y-69819047D01*
X169583628Y-69819047D02*
X169869342Y-69819047D01*
X169869342Y-69819047D02*
X169964580Y-69866666D01*
X169964580Y-69866666D02*
X170012200Y-69914285D01*
X170012200Y-69914285D02*
X170059819Y-70009523D01*
X170059819Y-70009523D02*
X170059819Y-70152380D01*
X169393152Y-69485713D02*
X170059819Y-69295237D01*
X170059819Y-69295237D02*
X169583628Y-69104761D01*
X169583628Y-69104761D02*
X170059819Y-68914285D01*
X170059819Y-68914285D02*
X169393152Y-68723809D01*
X170012200Y-67961904D02*
X170059819Y-68057142D01*
X170059819Y-68057142D02*
X170059819Y-68247618D01*
X170059819Y-68247618D02*
X170012200Y-68342856D01*
X170012200Y-68342856D02*
X169916961Y-68390475D01*
X169916961Y-68390475D02*
X169536009Y-68390475D01*
X169536009Y-68390475D02*
X169440771Y-68342856D01*
X169440771Y-68342856D02*
X169393152Y-68247618D01*
X169393152Y-68247618D02*
X169393152Y-68057142D01*
X169393152Y-68057142D02*
X169440771Y-67961904D01*
X169440771Y-67961904D02*
X169536009Y-67914285D01*
X169536009Y-67914285D02*
X169631247Y-67914285D01*
X169631247Y-67914285D02*
X169726485Y-68390475D01*
X170059819Y-67485713D02*
X169393152Y-67485713D01*
X169583628Y-67485713D02*
X169488390Y-67438094D01*
X169488390Y-67438094D02*
X169440771Y-67390475D01*
X169440771Y-67390475D02*
X169393152Y-67295237D01*
X169393152Y-67295237D02*
X169393152Y-67199999D01*
X164059819Y-71533333D02*
X164774104Y-71533333D01*
X164774104Y-71533333D02*
X164916961Y-71580952D01*
X164916961Y-71580952D02*
X165012200Y-71676190D01*
X165012200Y-71676190D02*
X165059819Y-71819047D01*
X165059819Y-71819047D02*
X165059819Y-71914285D01*
X164059819Y-70580952D02*
X164059819Y-71057142D01*
X164059819Y-71057142D02*
X164536009Y-71104761D01*
X164536009Y-71104761D02*
X164488390Y-71057142D01*
X164488390Y-71057142D02*
X164440771Y-70961904D01*
X164440771Y-70961904D02*
X164440771Y-70723809D01*
X164440771Y-70723809D02*
X164488390Y-70628571D01*
X164488390Y-70628571D02*
X164536009Y-70580952D01*
X164536009Y-70580952D02*
X164631247Y-70533333D01*
X164631247Y-70533333D02*
X164869342Y-70533333D01*
X164869342Y-70533333D02*
X164964580Y-70580952D01*
X164964580Y-70580952D02*
X165012200Y-70628571D01*
X165012200Y-70628571D02*
X165059819Y-70723809D01*
X165059819Y-70723809D02*
X165059819Y-70961904D01*
X165059819Y-70961904D02*
X165012200Y-71057142D01*
X165012200Y-71057142D02*
X164964580Y-71104761D01*
D11*
X156842857Y-68831927D02*
X156709524Y-68641451D01*
X156614286Y-68831927D02*
X156614286Y-68431927D01*
X156614286Y-68431927D02*
X156766667Y-68431927D01*
X156766667Y-68431927D02*
X156804762Y-68450975D01*
X156804762Y-68450975D02*
X156823809Y-68470022D01*
X156823809Y-68470022D02*
X156842857Y-68508118D01*
X156842857Y-68508118D02*
X156842857Y-68565260D01*
X156842857Y-68565260D02*
X156823809Y-68603356D01*
X156823809Y-68603356D02*
X156804762Y-68622403D01*
X156804762Y-68622403D02*
X156766667Y-68641451D01*
X156766667Y-68641451D02*
X156614286Y-68641451D01*
X157185714Y-68565260D02*
X157185714Y-68831927D01*
X157090476Y-68412880D02*
X156995238Y-68698594D01*
X156995238Y-68698594D02*
X157242857Y-68698594D01*
X157471428Y-68431927D02*
X157509523Y-68431927D01*
X157509523Y-68431927D02*
X157547619Y-68450975D01*
X157547619Y-68450975D02*
X157566666Y-68470022D01*
X157566666Y-68470022D02*
X157585714Y-68508118D01*
X157585714Y-68508118D02*
X157604761Y-68584308D01*
X157604761Y-68584308D02*
X157604761Y-68679546D01*
X157604761Y-68679546D02*
X157585714Y-68755737D01*
X157585714Y-68755737D02*
X157566666Y-68793832D01*
X157566666Y-68793832D02*
X157547619Y-68812880D01*
X157547619Y-68812880D02*
X157509523Y-68831927D01*
X157509523Y-68831927D02*
X157471428Y-68831927D01*
X157471428Y-68831927D02*
X157433333Y-68812880D01*
X157433333Y-68812880D02*
X157414285Y-68793832D01*
X157414285Y-68793832D02*
X157395238Y-68755737D01*
X157395238Y-68755737D02*
X157376190Y-68679546D01*
X157376190Y-68679546D02*
X157376190Y-68584308D01*
X157376190Y-68584308D02*
X157395238Y-68508118D01*
X157395238Y-68508118D02*
X157414285Y-68470022D01*
X157414285Y-68470022D02*
X157433333Y-68450975D01*
X157433333Y-68450975D02*
X157471428Y-68431927D01*
X165442857Y-78281927D02*
X165309524Y-78091451D01*
X165214286Y-78281927D02*
X165214286Y-77881927D01*
X165214286Y-77881927D02*
X165366667Y-77881927D01*
X165366667Y-77881927D02*
X165404762Y-77900975D01*
X165404762Y-77900975D02*
X165423809Y-77920022D01*
X165423809Y-77920022D02*
X165442857Y-77958118D01*
X165442857Y-77958118D02*
X165442857Y-78015260D01*
X165442857Y-78015260D02*
X165423809Y-78053356D01*
X165423809Y-78053356D02*
X165404762Y-78072403D01*
X165404762Y-78072403D02*
X165366667Y-78091451D01*
X165366667Y-78091451D02*
X165214286Y-78091451D01*
X165576190Y-77881927D02*
X165823809Y-77881927D01*
X165823809Y-77881927D02*
X165690476Y-78034308D01*
X165690476Y-78034308D02*
X165747619Y-78034308D01*
X165747619Y-78034308D02*
X165785714Y-78053356D01*
X165785714Y-78053356D02*
X165804762Y-78072403D01*
X165804762Y-78072403D02*
X165823809Y-78110499D01*
X165823809Y-78110499D02*
X165823809Y-78205737D01*
X165823809Y-78205737D02*
X165804762Y-78243832D01*
X165804762Y-78243832D02*
X165785714Y-78262880D01*
X165785714Y-78262880D02*
X165747619Y-78281927D01*
X165747619Y-78281927D02*
X165633333Y-78281927D01*
X165633333Y-78281927D02*
X165595238Y-78262880D01*
X165595238Y-78262880D02*
X165576190Y-78243832D01*
X166185714Y-77881927D02*
X165995238Y-77881927D01*
X165995238Y-77881927D02*
X165976190Y-78072403D01*
X165976190Y-78072403D02*
X165995238Y-78053356D01*
X165995238Y-78053356D02*
X166033333Y-78034308D01*
X166033333Y-78034308D02*
X166128571Y-78034308D01*
X166128571Y-78034308D02*
X166166666Y-78053356D01*
X166166666Y-78053356D02*
X166185714Y-78072403D01*
X166185714Y-78072403D02*
X166204761Y-78110499D01*
X166204761Y-78110499D02*
X166204761Y-78205737D01*
X166204761Y-78205737D02*
X166185714Y-78243832D01*
X166185714Y-78243832D02*
X166166666Y-78262880D01*
X166166666Y-78262880D02*
X166128571Y-78281927D01*
X166128571Y-78281927D02*
X166033333Y-78281927D01*
X166033333Y-78281927D02*
X165995238Y-78262880D01*
X165995238Y-78262880D02*
X165976190Y-78243832D01*
X165442857Y-80931927D02*
X165309524Y-80741451D01*
X165214286Y-80931927D02*
X165214286Y-80531927D01*
X165214286Y-80531927D02*
X165366667Y-80531927D01*
X165366667Y-80531927D02*
X165404762Y-80550975D01*
X165404762Y-80550975D02*
X165423809Y-80570022D01*
X165423809Y-80570022D02*
X165442857Y-80608118D01*
X165442857Y-80608118D02*
X165442857Y-80665260D01*
X165442857Y-80665260D02*
X165423809Y-80703356D01*
X165423809Y-80703356D02*
X165404762Y-80722403D01*
X165404762Y-80722403D02*
X165366667Y-80741451D01*
X165366667Y-80741451D02*
X165214286Y-80741451D01*
X165576190Y-80531927D02*
X165823809Y-80531927D01*
X165823809Y-80531927D02*
X165690476Y-80684308D01*
X165690476Y-80684308D02*
X165747619Y-80684308D01*
X165747619Y-80684308D02*
X165785714Y-80703356D01*
X165785714Y-80703356D02*
X165804762Y-80722403D01*
X165804762Y-80722403D02*
X165823809Y-80760499D01*
X165823809Y-80760499D02*
X165823809Y-80855737D01*
X165823809Y-80855737D02*
X165804762Y-80893832D01*
X165804762Y-80893832D02*
X165785714Y-80912880D01*
X165785714Y-80912880D02*
X165747619Y-80931927D01*
X165747619Y-80931927D02*
X165633333Y-80931927D01*
X165633333Y-80931927D02*
X165595238Y-80912880D01*
X165595238Y-80912880D02*
X165576190Y-80893832D01*
X165957142Y-80531927D02*
X166223809Y-80531927D01*
X166223809Y-80531927D02*
X166052380Y-80931927D01*
X98145833Y-86181927D02*
X98012500Y-85991451D01*
X97917262Y-86181927D02*
X97917262Y-85781927D01*
X97917262Y-85781927D02*
X98069643Y-85781927D01*
X98069643Y-85781927D02*
X98107738Y-85800975D01*
X98107738Y-85800975D02*
X98126785Y-85820022D01*
X98126785Y-85820022D02*
X98145833Y-85858118D01*
X98145833Y-85858118D02*
X98145833Y-85915260D01*
X98145833Y-85915260D02*
X98126785Y-85953356D01*
X98126785Y-85953356D02*
X98107738Y-85972403D01*
X98107738Y-85972403D02*
X98069643Y-85991451D01*
X98069643Y-85991451D02*
X97917262Y-85991451D01*
X98298214Y-85820022D02*
X98317262Y-85800975D01*
X98317262Y-85800975D02*
X98355357Y-85781927D01*
X98355357Y-85781927D02*
X98450595Y-85781927D01*
X98450595Y-85781927D02*
X98488690Y-85800975D01*
X98488690Y-85800975D02*
X98507738Y-85820022D01*
X98507738Y-85820022D02*
X98526785Y-85858118D01*
X98526785Y-85858118D02*
X98526785Y-85896213D01*
X98526785Y-85896213D02*
X98507738Y-85953356D01*
X98507738Y-85953356D02*
X98279166Y-86181927D01*
X98279166Y-86181927D02*
X98526785Y-86181927D01*
X142742857Y-45181927D02*
X142609524Y-44991451D01*
X142514286Y-45181927D02*
X142514286Y-44781927D01*
X142514286Y-44781927D02*
X142666667Y-44781927D01*
X142666667Y-44781927D02*
X142704762Y-44800975D01*
X142704762Y-44800975D02*
X142723809Y-44820022D01*
X142723809Y-44820022D02*
X142742857Y-44858118D01*
X142742857Y-44858118D02*
X142742857Y-44915260D01*
X142742857Y-44915260D02*
X142723809Y-44953356D01*
X142723809Y-44953356D02*
X142704762Y-44972403D01*
X142704762Y-44972403D02*
X142666667Y-44991451D01*
X142666667Y-44991451D02*
X142514286Y-44991451D01*
X142876190Y-44781927D02*
X143123809Y-44781927D01*
X143123809Y-44781927D02*
X142990476Y-44934308D01*
X142990476Y-44934308D02*
X143047619Y-44934308D01*
X143047619Y-44934308D02*
X143085714Y-44953356D01*
X143085714Y-44953356D02*
X143104762Y-44972403D01*
X143104762Y-44972403D02*
X143123809Y-45010499D01*
X143123809Y-45010499D02*
X143123809Y-45105737D01*
X143123809Y-45105737D02*
X143104762Y-45143832D01*
X143104762Y-45143832D02*
X143085714Y-45162880D01*
X143085714Y-45162880D02*
X143047619Y-45181927D01*
X143047619Y-45181927D02*
X142933333Y-45181927D01*
X142933333Y-45181927D02*
X142895238Y-45162880D01*
X142895238Y-45162880D02*
X142876190Y-45143832D01*
X143466666Y-44915260D02*
X143466666Y-45181927D01*
X143371428Y-44762880D02*
X143276190Y-45048594D01*
X143276190Y-45048594D02*
X143523809Y-45048594D01*
D12*
X158979530Y-86658928D02*
X159003340Y-86682737D01*
X159003340Y-86682737D02*
X159027149Y-86754166D01*
X159027149Y-86754166D02*
X159027149Y-86801785D01*
X159027149Y-86801785D02*
X159003340Y-86873213D01*
X159003340Y-86873213D02*
X158955720Y-86920832D01*
X158955720Y-86920832D02*
X158908101Y-86944642D01*
X158908101Y-86944642D02*
X158812863Y-86968451D01*
X158812863Y-86968451D02*
X158741435Y-86968451D01*
X158741435Y-86968451D02*
X158646197Y-86944642D01*
X158646197Y-86944642D02*
X158598578Y-86920832D01*
X158598578Y-86920832D02*
X158550959Y-86873213D01*
X158550959Y-86873213D02*
X158527149Y-86801785D01*
X158527149Y-86801785D02*
X158527149Y-86754166D01*
X158527149Y-86754166D02*
X158550959Y-86682737D01*
X158550959Y-86682737D02*
X158574768Y-86658928D01*
X159027149Y-86182737D02*
X159027149Y-86468451D01*
X159027149Y-86325594D02*
X158527149Y-86325594D01*
X158527149Y-86325594D02*
X158598578Y-86373213D01*
X158598578Y-86373213D02*
X158646197Y-86420832D01*
X158646197Y-86420832D02*
X158670006Y-86468451D01*
X159027149Y-85944642D02*
X159027149Y-85849404D01*
X159027149Y-85849404D02*
X159003340Y-85801785D01*
X159003340Y-85801785D02*
X158979530Y-85777976D01*
X158979530Y-85777976D02*
X158908101Y-85730357D01*
X158908101Y-85730357D02*
X158812863Y-85706547D01*
X158812863Y-85706547D02*
X158622387Y-85706547D01*
X158622387Y-85706547D02*
X158574768Y-85730357D01*
X158574768Y-85730357D02*
X158550959Y-85754166D01*
X158550959Y-85754166D02*
X158527149Y-85801785D01*
X158527149Y-85801785D02*
X158527149Y-85897023D01*
X158527149Y-85897023D02*
X158550959Y-85944642D01*
X158550959Y-85944642D02*
X158574768Y-85968452D01*
X158574768Y-85968452D02*
X158622387Y-85992261D01*
X158622387Y-85992261D02*
X158741435Y-85992261D01*
X158741435Y-85992261D02*
X158789054Y-85968452D01*
X158789054Y-85968452D02*
X158812863Y-85944642D01*
X158812863Y-85944642D02*
X158836673Y-85897023D01*
X158836673Y-85897023D02*
X158836673Y-85801785D01*
X158836673Y-85801785D02*
X158812863Y-85754166D01*
X158812863Y-85754166D02*
X158789054Y-85730357D01*
X158789054Y-85730357D02*
X158741435Y-85706547D01*
D11*
X165455357Y-85681927D02*
X165322024Y-85491451D01*
X165226786Y-85681927D02*
X165226786Y-85281927D01*
X165226786Y-85281927D02*
X165379167Y-85281927D01*
X165379167Y-85281927D02*
X165417262Y-85300975D01*
X165417262Y-85300975D02*
X165436309Y-85320022D01*
X165436309Y-85320022D02*
X165455357Y-85358118D01*
X165455357Y-85358118D02*
X165455357Y-85415260D01*
X165455357Y-85415260D02*
X165436309Y-85453356D01*
X165436309Y-85453356D02*
X165417262Y-85472403D01*
X165417262Y-85472403D02*
X165379167Y-85491451D01*
X165379167Y-85491451D02*
X165226786Y-85491451D01*
X165588690Y-85281927D02*
X165836309Y-85281927D01*
X165836309Y-85281927D02*
X165702976Y-85434308D01*
X165702976Y-85434308D02*
X165760119Y-85434308D01*
X165760119Y-85434308D02*
X165798214Y-85453356D01*
X165798214Y-85453356D02*
X165817262Y-85472403D01*
X165817262Y-85472403D02*
X165836309Y-85510499D01*
X165836309Y-85510499D02*
X165836309Y-85605737D01*
X165836309Y-85605737D02*
X165817262Y-85643832D01*
X165817262Y-85643832D02*
X165798214Y-85662880D01*
X165798214Y-85662880D02*
X165760119Y-85681927D01*
X165760119Y-85681927D02*
X165645833Y-85681927D01*
X165645833Y-85681927D02*
X165607738Y-85662880D01*
X165607738Y-85662880D02*
X165588690Y-85643832D01*
X166064880Y-85453356D02*
X166026785Y-85434308D01*
X166026785Y-85434308D02*
X166007738Y-85415260D01*
X166007738Y-85415260D02*
X165988690Y-85377165D01*
X165988690Y-85377165D02*
X165988690Y-85358118D01*
X165988690Y-85358118D02*
X166007738Y-85320022D01*
X166007738Y-85320022D02*
X166026785Y-85300975D01*
X166026785Y-85300975D02*
X166064880Y-85281927D01*
X166064880Y-85281927D02*
X166141071Y-85281927D01*
X166141071Y-85281927D02*
X166179166Y-85300975D01*
X166179166Y-85300975D02*
X166198214Y-85320022D01*
X166198214Y-85320022D02*
X166217261Y-85358118D01*
X166217261Y-85358118D02*
X166217261Y-85377165D01*
X166217261Y-85377165D02*
X166198214Y-85415260D01*
X166198214Y-85415260D02*
X166179166Y-85434308D01*
X166179166Y-85434308D02*
X166141071Y-85453356D01*
X166141071Y-85453356D02*
X166064880Y-85453356D01*
X166064880Y-85453356D02*
X166026785Y-85472403D01*
X166026785Y-85472403D02*
X166007738Y-85491451D01*
X166007738Y-85491451D02*
X165988690Y-85529546D01*
X165988690Y-85529546D02*
X165988690Y-85605737D01*
X165988690Y-85605737D02*
X166007738Y-85643832D01*
X166007738Y-85643832D02*
X166026785Y-85662880D01*
X166026785Y-85662880D02*
X166064880Y-85681927D01*
X166064880Y-85681927D02*
X166141071Y-85681927D01*
X166141071Y-85681927D02*
X166179166Y-85662880D01*
X166179166Y-85662880D02*
X166198214Y-85643832D01*
X166198214Y-85643832D02*
X166217261Y-85605737D01*
X166217261Y-85605737D02*
X166217261Y-85529546D01*
X166217261Y-85529546D02*
X166198214Y-85491451D01*
X166198214Y-85491451D02*
X166179166Y-85472403D01*
X166179166Y-85472403D02*
X166141071Y-85453356D01*
X165455357Y-83281927D02*
X165322024Y-83091451D01*
X165226786Y-83281927D02*
X165226786Y-82881927D01*
X165226786Y-82881927D02*
X165379167Y-82881927D01*
X165379167Y-82881927D02*
X165417262Y-82900975D01*
X165417262Y-82900975D02*
X165436309Y-82920022D01*
X165436309Y-82920022D02*
X165455357Y-82958118D01*
X165455357Y-82958118D02*
X165455357Y-83015260D01*
X165455357Y-83015260D02*
X165436309Y-83053356D01*
X165436309Y-83053356D02*
X165417262Y-83072403D01*
X165417262Y-83072403D02*
X165379167Y-83091451D01*
X165379167Y-83091451D02*
X165226786Y-83091451D01*
X165588690Y-82881927D02*
X165836309Y-82881927D01*
X165836309Y-82881927D02*
X165702976Y-83034308D01*
X165702976Y-83034308D02*
X165760119Y-83034308D01*
X165760119Y-83034308D02*
X165798214Y-83053356D01*
X165798214Y-83053356D02*
X165817262Y-83072403D01*
X165817262Y-83072403D02*
X165836309Y-83110499D01*
X165836309Y-83110499D02*
X165836309Y-83205737D01*
X165836309Y-83205737D02*
X165817262Y-83243832D01*
X165817262Y-83243832D02*
X165798214Y-83262880D01*
X165798214Y-83262880D02*
X165760119Y-83281927D01*
X165760119Y-83281927D02*
X165645833Y-83281927D01*
X165645833Y-83281927D02*
X165607738Y-83262880D01*
X165607738Y-83262880D02*
X165588690Y-83243832D01*
X166179166Y-82881927D02*
X166102976Y-82881927D01*
X166102976Y-82881927D02*
X166064880Y-82900975D01*
X166064880Y-82900975D02*
X166045833Y-82920022D01*
X166045833Y-82920022D02*
X166007738Y-82977165D01*
X166007738Y-82977165D02*
X165988690Y-83053356D01*
X165988690Y-83053356D02*
X165988690Y-83205737D01*
X165988690Y-83205737D02*
X166007738Y-83243832D01*
X166007738Y-83243832D02*
X166026785Y-83262880D01*
X166026785Y-83262880D02*
X166064880Y-83281927D01*
X166064880Y-83281927D02*
X166141071Y-83281927D01*
X166141071Y-83281927D02*
X166179166Y-83262880D01*
X166179166Y-83262880D02*
X166198214Y-83243832D01*
X166198214Y-83243832D02*
X166217261Y-83205737D01*
X166217261Y-83205737D02*
X166217261Y-83110499D01*
X166217261Y-83110499D02*
X166198214Y-83072403D01*
X166198214Y-83072403D02*
X166179166Y-83053356D01*
X166179166Y-83053356D02*
X166141071Y-83034308D01*
X166141071Y-83034308D02*
X166064880Y-83034308D01*
X166064880Y-83034308D02*
X166026785Y-83053356D01*
X166026785Y-83053356D02*
X166007738Y-83072403D01*
X166007738Y-83072403D02*
X165988690Y-83110499D01*
X164192857Y-93181927D02*
X164059524Y-92991451D01*
X163964286Y-93181927D02*
X163964286Y-92781927D01*
X163964286Y-92781927D02*
X164116667Y-92781927D01*
X164116667Y-92781927D02*
X164154762Y-92800975D01*
X164154762Y-92800975D02*
X164173809Y-92820022D01*
X164173809Y-92820022D02*
X164192857Y-92858118D01*
X164192857Y-92858118D02*
X164192857Y-92915260D01*
X164192857Y-92915260D02*
X164173809Y-92953356D01*
X164173809Y-92953356D02*
X164154762Y-92972403D01*
X164154762Y-92972403D02*
X164116667Y-92991451D01*
X164116667Y-92991451D02*
X163964286Y-92991451D01*
X164535714Y-92915260D02*
X164535714Y-93181927D01*
X164440476Y-92762880D02*
X164345238Y-93048594D01*
X164345238Y-93048594D02*
X164592857Y-93048594D01*
X164954761Y-93181927D02*
X164726190Y-93181927D01*
X164840476Y-93181927D02*
X164840476Y-92781927D01*
X164840476Y-92781927D02*
X164802380Y-92839070D01*
X164802380Y-92839070D02*
X164764285Y-92877165D01*
X164764285Y-92877165D02*
X164726190Y-92896213D01*
D13*
X159969523Y-90375914D02*
X159939047Y-90360676D01*
X159939047Y-90360676D02*
X159908571Y-90330200D01*
X159908571Y-90330200D02*
X159862857Y-90284485D01*
X159862857Y-90284485D02*
X159832380Y-90269247D01*
X159832380Y-90269247D02*
X159801904Y-90269247D01*
X159817142Y-90345438D02*
X159786666Y-90330200D01*
X159786666Y-90330200D02*
X159756190Y-90299723D01*
X159756190Y-90299723D02*
X159740952Y-90238771D01*
X159740952Y-90238771D02*
X159740952Y-90132104D01*
X159740952Y-90132104D02*
X159756190Y-90071152D01*
X159756190Y-90071152D02*
X159786666Y-90040676D01*
X159786666Y-90040676D02*
X159817142Y-90025438D01*
X159817142Y-90025438D02*
X159878095Y-90025438D01*
X159878095Y-90025438D02*
X159908571Y-90040676D01*
X159908571Y-90040676D02*
X159939047Y-90071152D01*
X159939047Y-90071152D02*
X159954285Y-90132104D01*
X159954285Y-90132104D02*
X159954285Y-90238771D01*
X159954285Y-90238771D02*
X159939047Y-90299723D01*
X159939047Y-90299723D02*
X159908571Y-90330200D01*
X159908571Y-90330200D02*
X159878095Y-90345438D01*
X159878095Y-90345438D02*
X159817142Y-90345438D01*
X160060952Y-90025438D02*
X160274285Y-90025438D01*
X160274285Y-90025438D02*
X160137142Y-90345438D01*
D12*
X164016071Y-95779530D02*
X163992262Y-95803340D01*
X163992262Y-95803340D02*
X163920833Y-95827149D01*
X163920833Y-95827149D02*
X163873214Y-95827149D01*
X163873214Y-95827149D02*
X163801786Y-95803340D01*
X163801786Y-95803340D02*
X163754167Y-95755720D01*
X163754167Y-95755720D02*
X163730357Y-95708101D01*
X163730357Y-95708101D02*
X163706548Y-95612863D01*
X163706548Y-95612863D02*
X163706548Y-95541435D01*
X163706548Y-95541435D02*
X163730357Y-95446197D01*
X163730357Y-95446197D02*
X163754167Y-95398578D01*
X163754167Y-95398578D02*
X163801786Y-95350959D01*
X163801786Y-95350959D02*
X163873214Y-95327149D01*
X163873214Y-95327149D02*
X163920833Y-95327149D01*
X163920833Y-95327149D02*
X163992262Y-95350959D01*
X163992262Y-95350959D02*
X164016071Y-95374768D01*
X164206548Y-95374768D02*
X164230357Y-95350959D01*
X164230357Y-95350959D02*
X164277976Y-95327149D01*
X164277976Y-95327149D02*
X164397024Y-95327149D01*
X164397024Y-95327149D02*
X164444643Y-95350959D01*
X164444643Y-95350959D02*
X164468452Y-95374768D01*
X164468452Y-95374768D02*
X164492262Y-95422387D01*
X164492262Y-95422387D02*
X164492262Y-95470006D01*
X164492262Y-95470006D02*
X164468452Y-95541435D01*
X164468452Y-95541435D02*
X164182738Y-95827149D01*
X164182738Y-95827149D02*
X164492262Y-95827149D01*
X164682738Y-95374768D02*
X164706547Y-95350959D01*
X164706547Y-95350959D02*
X164754166Y-95327149D01*
X164754166Y-95327149D02*
X164873214Y-95327149D01*
X164873214Y-95327149D02*
X164920833Y-95350959D01*
X164920833Y-95350959D02*
X164944642Y-95374768D01*
X164944642Y-95374768D02*
X164968452Y-95422387D01*
X164968452Y-95422387D02*
X164968452Y-95470006D01*
X164968452Y-95470006D02*
X164944642Y-95541435D01*
X164944642Y-95541435D02*
X164658928Y-95827149D01*
X164658928Y-95827149D02*
X164968452Y-95827149D01*
X164141071Y-88979530D02*
X164117262Y-89003340D01*
X164117262Y-89003340D02*
X164045833Y-89027149D01*
X164045833Y-89027149D02*
X163998214Y-89027149D01*
X163998214Y-89027149D02*
X163926786Y-89003340D01*
X163926786Y-89003340D02*
X163879167Y-88955720D01*
X163879167Y-88955720D02*
X163855357Y-88908101D01*
X163855357Y-88908101D02*
X163831548Y-88812863D01*
X163831548Y-88812863D02*
X163831548Y-88741435D01*
X163831548Y-88741435D02*
X163855357Y-88646197D01*
X163855357Y-88646197D02*
X163879167Y-88598578D01*
X163879167Y-88598578D02*
X163926786Y-88550959D01*
X163926786Y-88550959D02*
X163998214Y-88527149D01*
X163998214Y-88527149D02*
X164045833Y-88527149D01*
X164045833Y-88527149D02*
X164117262Y-88550959D01*
X164117262Y-88550959D02*
X164141071Y-88574768D01*
X164331548Y-88574768D02*
X164355357Y-88550959D01*
X164355357Y-88550959D02*
X164402976Y-88527149D01*
X164402976Y-88527149D02*
X164522024Y-88527149D01*
X164522024Y-88527149D02*
X164569643Y-88550959D01*
X164569643Y-88550959D02*
X164593452Y-88574768D01*
X164593452Y-88574768D02*
X164617262Y-88622387D01*
X164617262Y-88622387D02*
X164617262Y-88670006D01*
X164617262Y-88670006D02*
X164593452Y-88741435D01*
X164593452Y-88741435D02*
X164307738Y-89027149D01*
X164307738Y-89027149D02*
X164617262Y-89027149D01*
X164926785Y-88527149D02*
X164974404Y-88527149D01*
X164974404Y-88527149D02*
X165022023Y-88550959D01*
X165022023Y-88550959D02*
X165045833Y-88574768D01*
X165045833Y-88574768D02*
X165069642Y-88622387D01*
X165069642Y-88622387D02*
X165093452Y-88717625D01*
X165093452Y-88717625D02*
X165093452Y-88836673D01*
X165093452Y-88836673D02*
X165069642Y-88931911D01*
X165069642Y-88931911D02*
X165045833Y-88979530D01*
X165045833Y-88979530D02*
X165022023Y-89003340D01*
X165022023Y-89003340D02*
X164974404Y-89027149D01*
X164974404Y-89027149D02*
X164926785Y-89027149D01*
X164926785Y-89027149D02*
X164879166Y-89003340D01*
X164879166Y-89003340D02*
X164855357Y-88979530D01*
X164855357Y-88979530D02*
X164831547Y-88931911D01*
X164831547Y-88931911D02*
X164807738Y-88836673D01*
X164807738Y-88836673D02*
X164807738Y-88717625D01*
X164807738Y-88717625D02*
X164831547Y-88622387D01*
X164831547Y-88622387D02*
X164855357Y-88574768D01*
X164855357Y-88574768D02*
X164879166Y-88550959D01*
X164879166Y-88550959D02*
X164926785Y-88527149D01*
D11*
X154655357Y-70781927D02*
X154522024Y-70591451D01*
X154426786Y-70781927D02*
X154426786Y-70381927D01*
X154426786Y-70381927D02*
X154579167Y-70381927D01*
X154579167Y-70381927D02*
X154617262Y-70400975D01*
X154617262Y-70400975D02*
X154636309Y-70420022D01*
X154636309Y-70420022D02*
X154655357Y-70458118D01*
X154655357Y-70458118D02*
X154655357Y-70515260D01*
X154655357Y-70515260D02*
X154636309Y-70553356D01*
X154636309Y-70553356D02*
X154617262Y-70572403D01*
X154617262Y-70572403D02*
X154579167Y-70591451D01*
X154579167Y-70591451D02*
X154426786Y-70591451D01*
X154998214Y-70515260D02*
X154998214Y-70781927D01*
X154902976Y-70362880D02*
X154807738Y-70648594D01*
X154807738Y-70648594D02*
X155055357Y-70648594D01*
X155188690Y-70420022D02*
X155207738Y-70400975D01*
X155207738Y-70400975D02*
X155245833Y-70381927D01*
X155245833Y-70381927D02*
X155341071Y-70381927D01*
X155341071Y-70381927D02*
X155379166Y-70400975D01*
X155379166Y-70400975D02*
X155398214Y-70420022D01*
X155398214Y-70420022D02*
X155417261Y-70458118D01*
X155417261Y-70458118D02*
X155417261Y-70496213D01*
X155417261Y-70496213D02*
X155398214Y-70553356D01*
X155398214Y-70553356D02*
X155169642Y-70781927D01*
X155169642Y-70781927D02*
X155417261Y-70781927D01*
X161155357Y-77981927D02*
X161022024Y-77791451D01*
X160926786Y-77981927D02*
X160926786Y-77581927D01*
X160926786Y-77581927D02*
X161079167Y-77581927D01*
X161079167Y-77581927D02*
X161117262Y-77600975D01*
X161117262Y-77600975D02*
X161136309Y-77620022D01*
X161136309Y-77620022D02*
X161155357Y-77658118D01*
X161155357Y-77658118D02*
X161155357Y-77715260D01*
X161155357Y-77715260D02*
X161136309Y-77753356D01*
X161136309Y-77753356D02*
X161117262Y-77772403D01*
X161117262Y-77772403D02*
X161079167Y-77791451D01*
X161079167Y-77791451D02*
X160926786Y-77791451D01*
X161288690Y-77581927D02*
X161536309Y-77581927D01*
X161536309Y-77581927D02*
X161402976Y-77734308D01*
X161402976Y-77734308D02*
X161460119Y-77734308D01*
X161460119Y-77734308D02*
X161498214Y-77753356D01*
X161498214Y-77753356D02*
X161517262Y-77772403D01*
X161517262Y-77772403D02*
X161536309Y-77810499D01*
X161536309Y-77810499D02*
X161536309Y-77905737D01*
X161536309Y-77905737D02*
X161517262Y-77943832D01*
X161517262Y-77943832D02*
X161498214Y-77962880D01*
X161498214Y-77962880D02*
X161460119Y-77981927D01*
X161460119Y-77981927D02*
X161345833Y-77981927D01*
X161345833Y-77981927D02*
X161307738Y-77962880D01*
X161307738Y-77962880D02*
X161288690Y-77943832D01*
X161726785Y-77981927D02*
X161802976Y-77981927D01*
X161802976Y-77981927D02*
X161841071Y-77962880D01*
X161841071Y-77962880D02*
X161860119Y-77943832D01*
X161860119Y-77943832D02*
X161898214Y-77886689D01*
X161898214Y-77886689D02*
X161917261Y-77810499D01*
X161917261Y-77810499D02*
X161917261Y-77658118D01*
X161917261Y-77658118D02*
X161898214Y-77620022D01*
X161898214Y-77620022D02*
X161879166Y-77600975D01*
X161879166Y-77600975D02*
X161841071Y-77581927D01*
X161841071Y-77581927D02*
X161764880Y-77581927D01*
X161764880Y-77581927D02*
X161726785Y-77600975D01*
X161726785Y-77600975D02*
X161707738Y-77620022D01*
X161707738Y-77620022D02*
X161688690Y-77658118D01*
X161688690Y-77658118D02*
X161688690Y-77753356D01*
X161688690Y-77753356D02*
X161707738Y-77791451D01*
X161707738Y-77791451D02*
X161726785Y-77810499D01*
X161726785Y-77810499D02*
X161764880Y-77829546D01*
X161764880Y-77829546D02*
X161841071Y-77829546D01*
X161841071Y-77829546D02*
X161879166Y-77810499D01*
X161879166Y-77810499D02*
X161898214Y-77791451D01*
X161898214Y-77791451D02*
X161917261Y-77753356D01*
D14*
X101350000Y-97550000D02*
X104350000Y-97550000D01*
X101350000Y-103550000D02*
X101350000Y-97550000D01*
X104350000Y-97550000D02*
X107350000Y-97550000D01*
X107350000Y-97550000D02*
X107350000Y-103550000D01*
X107350000Y-103550000D02*
X101350000Y-103550000D01*
X106365564Y-100550000D02*
G75*
G02*
X102334436Y-100550000I-2015564J0D01*
G01*
X102334436Y-100550000D02*
G75*
G02*
X106365564Y-100550000I2015564J0D01*
G01*
X126000000Y-97550000D02*
X129000000Y-97550000D01*
X126000000Y-103550000D02*
X126000000Y-97550000D01*
X129000000Y-97550000D02*
X132000000Y-97550000D01*
X132000000Y-97550000D02*
X132000000Y-103550000D01*
X132000000Y-103550000D02*
X126000000Y-103550000D01*
X131015564Y-100550000D02*
G75*
G02*
X126984436Y-100550000I-2015564J0D01*
G01*
X126984436Y-100550000D02*
G75*
G02*
X131015564Y-100550000I2015564J0D01*
G01*
X97200000Y-87500000D02*
X98800000Y-87500000D01*
X97200000Y-88300000D02*
X97200000Y-87500000D01*
X98800000Y-87500000D02*
X98800000Y-88300000D01*
X98800000Y-88300000D02*
X97200000Y-88300000D01*
X132600000Y-59287500D02*
X133800000Y-59287500D01*
X132600000Y-61287500D02*
X132600000Y-59287500D01*
X133800000Y-59287500D02*
X133800000Y-61287500D01*
X133800000Y-61287500D02*
X132600000Y-61287500D01*
X93100000Y-90500000D02*
X95100000Y-90500000D01*
X93100000Y-91700000D02*
X93100000Y-90500000D01*
X95100000Y-90500000D02*
X95100000Y-91700000D01*
X95100000Y-91700000D02*
X93100000Y-91700000D01*
X155600000Y-55050000D02*
G75*
G02*
X153600000Y-55050000I-1000000J0D01*
G01*
X153600000Y-55050000D02*
G75*
G02*
X155600000Y-55050000I1000000J0D01*
G01*
X166100000Y-55050000D02*
G75*
G02*
X143100000Y-55050000I-11500000J0D01*
G01*
X143100000Y-55050000D02*
G75*
G02*
X166100000Y-55050000I11500000J0D01*
G01*
X93450000Y-76400000D02*
X93450000Y-83150000D01*
X93450000Y-83150000D02*
X97550000Y-83150000D01*
X93850000Y-73300000D02*
X93850000Y-75800000D01*
X93850000Y-75800000D02*
X97150000Y-75800000D01*
X94200000Y-76100000D02*
X96800000Y-76100000D01*
X94200000Y-76400000D02*
X94200000Y-76100000D01*
X94500000Y-83150000D02*
X94500000Y-83500000D01*
X94500000Y-83500000D02*
X96500000Y-83500000D01*
X95300000Y-75800000D02*
X95700000Y-75800000D01*
X95300000Y-76100000D02*
X95300000Y-75800000D01*
X95700000Y-75800000D02*
X95700000Y-76100000D01*
X96500000Y-83500000D02*
X96500000Y-83150000D01*
X96800000Y-76100000D02*
X96800000Y-76350000D01*
X97150000Y-73300000D02*
X93850000Y-73300000D01*
X97150000Y-75800000D02*
X97150000Y-73300000D01*
X97550000Y-76400000D02*
X93450000Y-76400000D01*
X97550000Y-83150000D02*
X97550000Y-76400000D01*
X103030000Y-108690000D02*
X115730000Y-108690000D01*
X103030000Y-112500000D02*
X103030000Y-108690000D01*
X104300000Y-113770000D02*
X103030000Y-112500000D01*
X115730000Y-108690000D02*
X115730000Y-113770000D01*
X115730000Y-113770000D02*
X104300000Y-113770000D01*
X160930000Y-99450000D02*
X162200000Y-98180000D01*
X160930000Y-105800000D02*
X160930000Y-99450000D01*
X162200000Y-98180000D02*
X166010000Y-98180000D01*
X166010000Y-98180000D02*
X166010000Y-105800000D01*
X166010000Y-105800000D02*
X160930000Y-105800000D01*
X133500000Y-43150000D02*
X133500000Y-54650000D01*
X133500000Y-43150000D02*
X134000000Y-43150000D01*
X133500000Y-54650000D02*
X139500000Y-54650000D01*
X134000000Y-40650000D02*
X134000000Y-43150000D01*
X134000000Y-40650000D02*
X139000000Y-40650000D01*
X134000000Y-43150000D02*
X139000000Y-43150000D01*
X139000000Y-40650000D02*
X139000000Y-43150000D01*
X139000000Y-43150000D02*
X139500000Y-43150000D01*
X139500000Y-43150000D02*
X139500000Y-54650000D01*
X102000000Y-45200000D02*
X108000000Y-45200000D01*
X102000000Y-51200000D02*
X102000000Y-45200000D01*
X105000000Y-51200000D02*
X102000000Y-51200000D01*
X108000000Y-45200000D02*
X108000000Y-51200000D01*
X108000000Y-51200000D02*
X105000000Y-51200000D01*
X107015564Y-48200000D02*
G75*
G02*
X102984436Y-48200000I-2015564J0D01*
G01*
X102984436Y-48200000D02*
G75*
G02*
X107015564Y-48200000I2015564J0D01*
G01*
X92100000Y-45200000D02*
X98100000Y-45200000D01*
X92100000Y-51200000D02*
X92100000Y-45200000D01*
X95100000Y-51200000D02*
X92100000Y-51200000D01*
X98100000Y-45200000D02*
X98100000Y-51200000D01*
X98100000Y-51200000D02*
X95100000Y-51200000D01*
X97115564Y-48200000D02*
G75*
G02*
X93084436Y-48200000I-2015564J0D01*
G01*
X93084436Y-48200000D02*
G75*
G02*
X97115564Y-48200000I2015564J0D01*
G01*
X111900000Y-45200000D02*
X117900000Y-45200000D01*
X111900000Y-51200000D02*
X111900000Y-45200000D01*
X114900000Y-51200000D02*
X111900000Y-51200000D01*
X117900000Y-45200000D02*
X117900000Y-51200000D01*
X117900000Y-51200000D02*
X114900000Y-51200000D01*
X116915564Y-48200000D02*
G75*
G02*
X112884436Y-48200000I-2015564J0D01*
G01*
X112884436Y-48200000D02*
G75*
G02*
X116915564Y-48200000I2015564J0D01*
G01*
X121900000Y-45200000D02*
X127900000Y-45200000D01*
X121900000Y-51200000D02*
X121900000Y-45200000D01*
X124900000Y-51200000D02*
X121900000Y-51200000D01*
X127900000Y-45200000D02*
X127900000Y-51200000D01*
X127900000Y-51200000D02*
X124900000Y-51200000D01*
X126915564Y-48200000D02*
G75*
G02*
X122884436Y-48200000I-2015564J0D01*
G01*
X122884436Y-48200000D02*
G75*
G02*
X126915564Y-48200000I2015564J0D01*
G01*
X141000000Y-53700000D02*
X141800000Y-53700000D01*
X141000000Y-55300000D02*
X141000000Y-53700000D01*
X141800000Y-53700000D02*
X141800000Y-55300000D01*
X141800000Y-55300000D02*
X141000000Y-55300000D01*
X161480000Y-75670000D02*
X168280000Y-75670000D01*
X168280000Y-66730000D01*
X161480000Y-66730000D01*
X161480000Y-75670000D01*
X156300000Y-68250000D02*
X157900000Y-68250000D01*
X156300000Y-69050000D02*
X156300000Y-68250000D01*
X157900000Y-68250000D02*
X157900000Y-69050000D01*
X157900000Y-69050000D02*
X156300000Y-69050000D01*
X164900000Y-77700000D02*
X166500000Y-77700000D01*
X164900000Y-78500000D02*
X164900000Y-77700000D01*
X166500000Y-77700000D02*
X166500000Y-78500000D01*
X166500000Y-78500000D02*
X164900000Y-78500000D01*
X164900000Y-80350000D02*
X166500000Y-80350000D01*
X164900000Y-81150000D02*
X164900000Y-80350000D01*
X166500000Y-80350000D02*
X166500000Y-81150000D01*
X166500000Y-81150000D02*
X164900000Y-81150000D01*
X152500000Y-86150000D02*
X152500000Y-92050000D01*
X152500000Y-92050000D02*
X157000000Y-92050000D01*
X157000000Y-86150000D02*
X152500000Y-86150000D01*
X157000000Y-92050000D02*
X157000000Y-86150000D01*
X157410000Y-85740000D02*
X156160000Y-85740000D01*
X157410000Y-86990000D02*
X157410000Y-85740000D01*
X97412500Y-85600000D02*
X99012500Y-85600000D01*
X97412500Y-86400000D02*
X97412500Y-85600000D01*
X99012500Y-85600000D02*
X99012500Y-86400000D01*
X99012500Y-86400000D02*
X97412500Y-86400000D01*
X143530000Y-65400000D02*
G75*
G02*
X133830000Y-65400000I-4850000J0D01*
G01*
X133830000Y-65400000D02*
G75*
G02*
X143530000Y-65400000I4850000J0D01*
G01*
X142200000Y-44600000D02*
X143800000Y-44600000D01*
X142200000Y-45400000D02*
X142200000Y-44600000D01*
X143800000Y-44600000D02*
X143800000Y-45400000D01*
X143800000Y-45400000D02*
X142200000Y-45400000D01*
X158200000Y-85337500D02*
X159400000Y-85337500D01*
X158200000Y-87337500D02*
X158200000Y-85337500D01*
X159400000Y-85337500D02*
X159400000Y-87337500D01*
X159400000Y-87337500D02*
X158200000Y-87337500D01*
X164912500Y-85100000D02*
X166512500Y-85100000D01*
X164912500Y-85900000D02*
X164912500Y-85100000D01*
X166512500Y-85100000D02*
X166512500Y-85900000D01*
X166512500Y-85900000D02*
X164912500Y-85900000D01*
X142200000Y-46600000D02*
X143800000Y-46600000D01*
X142200000Y-47400000D02*
X142200000Y-46600000D01*
X143800000Y-46600000D02*
X143800000Y-47400000D01*
X143800000Y-47400000D02*
X142200000Y-47400000D01*
X164912500Y-82700000D02*
X166512500Y-82700000D01*
X164912500Y-83500000D02*
X164912500Y-82700000D01*
X166512500Y-82700000D02*
X166512500Y-83500000D01*
X166512500Y-83500000D02*
X164912500Y-83500000D01*
X163650000Y-92600000D02*
X165250000Y-92600000D01*
X163650000Y-93400000D02*
X163650000Y-92600000D01*
X165250000Y-92600000D02*
X165250000Y-93400000D01*
X165250000Y-93400000D02*
X163650000Y-93400000D01*
X159350000Y-88750000D02*
X160650000Y-88750000D01*
X159350000Y-91650000D02*
X159350000Y-88750000D01*
X160325000Y-91650000D02*
X159350000Y-91650000D01*
X160650000Y-88750000D02*
X160650000Y-91325000D01*
X160650000Y-91325000D02*
X160325000Y-91650000D01*
X163337500Y-95000000D02*
X165337500Y-95000000D01*
X163337500Y-96200000D02*
X163337500Y-95000000D01*
X165337500Y-95000000D02*
X165337500Y-96200000D01*
X165337500Y-96200000D02*
X163337500Y-96200000D01*
X163462500Y-88200000D02*
X165462500Y-88200000D01*
X163462500Y-89400000D02*
X163462500Y-88200000D01*
X165462500Y-88200000D02*
X165462500Y-89400000D01*
X165462500Y-89400000D02*
X163462500Y-89400000D01*
X154112500Y-70200000D02*
X155712500Y-70200000D01*
X154112500Y-71000000D02*
X154112500Y-70200000D01*
X155712500Y-70200000D02*
X155712500Y-71000000D01*
X155712500Y-71000000D02*
X154112500Y-71000000D01*
X160612500Y-77400000D02*
X162212500Y-77400000D01*
X160612500Y-78200000D02*
X160612500Y-77400000D01*
X162212500Y-77400000D02*
X162212500Y-78200000D01*
X162212500Y-78200000D02*
X160612500Y-78200000D01*
M02*
