%TF.GenerationSoftware,KiCad,Pcbnew,9.0.6-9.0.6~ubuntu24.04.1*%
%TF.CreationDate,2026-01-10T11:13:37+03:00*%
%TF.ProjectId,Dreamstalker-PRO-v2,44726561-6d73-4746-916c-6b65722d5052,2.4*%
%TF.SameCoordinates,Original*%
%TF.FileFunction,Plated,1,2,PTH,Mixed*%
%TF.FilePolarity,Positive*%
%FSLAX46Y46*%
G04 Gerber Fmt 4.6, Leading zero omitted, Abs format (unit mm)*
G04 Created by KiCad (PCBNEW 9.0.6-9.0.6~ubuntu24.04.1) date 2026-01-10 11:13:37*
%MOMM*%
%LPD*%
G01*
G04 APERTURE LIST*
%TA.AperFunction,ViaDrill*%
%ADD10C,0.381000*%
%TD*%
%TA.AperFunction,ViaDrill*%
%ADD11C,0.508000*%
%TD*%
G04 aperture for slot hole*
%TA.AperFunction,ComponentDrill*%
%ADD12C,0.600000*%
%TD*%
%TA.AperFunction,ComponentDrill*%
%ADD13C,0.750000*%
%TD*%
%TA.AperFunction,ComponentDrill*%
%ADD14C,1.000000*%
%TD*%
%TA.AperFunction,ComponentDrill*%
%ADD15C,1.100000*%
%TD*%
%TA.AperFunction,ComponentDrill*%
%ADD16C,2.560000*%
%TD*%
G04 APERTURE END LIST*
D10*
X92050000Y-113300000D03*
X92500000Y-103600000D03*
X92650000Y-107011210D03*
X93450000Y-55850000D03*
X93550000Y-121550000D03*
X93600000Y-94850000D03*
X93950000Y-72450000D03*
X94450000Y-60650000D03*
X95700000Y-54000000D03*
X96500000Y-99650000D03*
X96900000Y-70850000D03*
X97350000Y-65250000D03*
X97650000Y-119700000D03*
X98100000Y-103600000D03*
X98450000Y-122000000D03*
X99000000Y-96000000D03*
X99050000Y-107950000D03*
X99250000Y-78200000D03*
X99400000Y-59650000D03*
X100050000Y-43900000D03*
X100150000Y-82650000D03*
X101350002Y-78000000D03*
X101700000Y-75350000D03*
X102350000Y-61788790D03*
X102350000Y-122000000D03*
X102450000Y-94550000D03*
X103700000Y-73250000D03*
X104650000Y-80600000D03*
X104900000Y-96400000D03*
X104950000Y-84800000D03*
X105000000Y-81900000D03*
X105100000Y-50700000D03*
X105350000Y-61200000D03*
X105400000Y-98400000D03*
X106050000Y-82750000D03*
X106200000Y-73100000D03*
X106200000Y-88700000D03*
X106320000Y-93300000D03*
X106800000Y-78900000D03*
X106850000Y-65200000D03*
X107057296Y-86457296D03*
X107200000Y-82100000D03*
X107350000Y-95250000D03*
X107800000Y-93300000D03*
X107900000Y-62550000D03*
X107950000Y-90050000D03*
X108400000Y-88100000D03*
X108500000Y-82100000D03*
X108500000Y-106500000D03*
X108548704Y-79801296D03*
X108850000Y-73250000D03*
X109100000Y-84500000D03*
X109552902Y-90047098D03*
X109950000Y-43900000D03*
X110100000Y-99000000D03*
X110370000Y-93580000D03*
X110750000Y-87240000D03*
X111050000Y-79850000D03*
X111530000Y-84020000D03*
X111650000Y-78650000D03*
X112200000Y-106350000D03*
X112200000Y-115800000D03*
X112270000Y-95480000D03*
X112350000Y-55200000D03*
X112600000Y-98690000D03*
X112700000Y-83200000D03*
X112750000Y-101900000D03*
X113150000Y-61150000D03*
X113200000Y-88188790D03*
X113532105Y-74767895D03*
X113638790Y-65700000D03*
X113830000Y-98390000D03*
X114120000Y-82030000D03*
X114240000Y-73100000D03*
X114350000Y-89950000D03*
X114610000Y-93450000D03*
X114750000Y-95800000D03*
X115550000Y-107500000D03*
X115600000Y-103400000D03*
X115940000Y-73480000D03*
X115950000Y-90300000D03*
X116250000Y-98430000D03*
X116400000Y-93300000D03*
X116460000Y-63020000D03*
X116700000Y-84900000D03*
X117100000Y-73810000D03*
X117530000Y-71980000D03*
X118450000Y-103200000D03*
X118450000Y-105850000D03*
X118750000Y-62100000D03*
X118930000Y-93680000D03*
X119020000Y-98410000D03*
X119095000Y-75735000D03*
X119900000Y-43900000D03*
X120200000Y-53800000D03*
X120700000Y-83450000D03*
X120707201Y-81350000D03*
X121070000Y-73790000D03*
X121600000Y-102700000D03*
X122370000Y-72640000D03*
X122550000Y-98600000D03*
X123430000Y-85900000D03*
X123740000Y-89650000D03*
X123750000Y-60150000D03*
X124100000Y-79900000D03*
X125000000Y-53800000D03*
X125000000Y-72780000D03*
X125000000Y-105000000D03*
X126200000Y-95850000D03*
X126420000Y-88590000D03*
X126430000Y-85880000D03*
X126520000Y-93560000D03*
X126580000Y-58030000D03*
X127500000Y-66600000D03*
X127700000Y-72200000D03*
X128100000Y-58900000D03*
X128500000Y-43100000D03*
X129100000Y-97900000D03*
X129200000Y-107200000D03*
X129250000Y-56900000D03*
X129340000Y-58840000D03*
X129560000Y-87120000D03*
X130050000Y-48000000D03*
X130100000Y-89100000D03*
X130140000Y-76680000D03*
X131350000Y-85270000D03*
X131750000Y-73250000D03*
X132300000Y-63750000D03*
X132300000Y-90980000D03*
X132500000Y-68500000D03*
X133000000Y-95800000D03*
X133030000Y-93550000D03*
X133100000Y-104900000D03*
X134110000Y-85140000D03*
X134350000Y-97900000D03*
X134500000Y-47500000D03*
X134850000Y-88750000D03*
X135650000Y-70800000D03*
X135650000Y-101300000D03*
X135900000Y-73650000D03*
X135990000Y-57410000D03*
X136770000Y-90680000D03*
X137000000Y-59400000D03*
X138100000Y-61800000D03*
X138480000Y-83540000D03*
X138500000Y-94150000D03*
X138590000Y-89120000D03*
X138850000Y-67950000D03*
X139150000Y-101150000D03*
X139700000Y-87860000D03*
X140600000Y-98250000D03*
X140890000Y-81660000D03*
X141060000Y-88880000D03*
X141250000Y-92230000D03*
X141900000Y-49137500D03*
X141900000Y-51400000D03*
X142500000Y-76600000D03*
X142870000Y-55020000D03*
X143300000Y-95600000D03*
X144950000Y-59600000D03*
X145000000Y-45011200D03*
X145050000Y-74150000D03*
X145100000Y-85300000D03*
X145100000Y-95750000D03*
X145300000Y-48750000D03*
X145300000Y-92180000D03*
X145320000Y-51310000D03*
X146100000Y-83680000D03*
X146200000Y-81200000D03*
X147200000Y-95750000D03*
X147200000Y-113900000D03*
X147298757Y-79540973D03*
X147800000Y-71700000D03*
X148100000Y-94850000D03*
X148350000Y-83700000D03*
X148450000Y-80000000D03*
X149080000Y-88910000D03*
X149700000Y-60400000D03*
X149700000Y-62400000D03*
X149900000Y-50450000D03*
X150666988Y-91311199D03*
X151000000Y-103500000D03*
X151000000Y-119000000D03*
X151220000Y-86850000D03*
X151300000Y-67100000D03*
X151400000Y-45400000D03*
X151500000Y-76600000D03*
X151600000Y-71987500D03*
X151605000Y-73695000D03*
X152000000Y-99350000D03*
X152010000Y-96350000D03*
X152020000Y-88610000D03*
X152050000Y-55000000D03*
X152100000Y-65050000D03*
X152250000Y-50400000D03*
X152300000Y-63100000D03*
X152620000Y-89910000D03*
X152711200Y-95050000D03*
X153980000Y-79790000D03*
X154750000Y-69150000D03*
X155400000Y-74500000D03*
X156000000Y-113450000D03*
X156150000Y-54300000D03*
X156200000Y-101050000D03*
X156350000Y-51100000D03*
X156380000Y-84990000D03*
X157100000Y-65400000D03*
X157600000Y-48650000D03*
X157850000Y-45100000D03*
X158280000Y-91900000D03*
X158400000Y-113750000D03*
X158500000Y-76500000D03*
X158700000Y-47600000D03*
X158950000Y-83350000D03*
X159200000Y-52750000D03*
X159600000Y-48500000D03*
X159712893Y-46319093D03*
X159900000Y-67150000D03*
X159950000Y-79650000D03*
X160310000Y-86910000D03*
X160900000Y-113020000D03*
X161400000Y-50750000D03*
X162400000Y-88850000D03*
X163050000Y-45700000D03*
X163100000Y-49000000D03*
X163300000Y-78550000D03*
X163700000Y-53200000D03*
X163800000Y-84400000D03*
X164640000Y-113020000D03*
X165000000Y-81800000D03*
X165400000Y-62800000D03*
X166300000Y-44100000D03*
X166300000Y-47800000D03*
X166450000Y-81915801D03*
X166457124Y-84440801D03*
X167050000Y-68900000D03*
X167050000Y-73750000D03*
X167400000Y-77000000D03*
X167400000Y-79200000D03*
D11*
X91350000Y-85890000D03*
X93000000Y-84400000D03*
X93233000Y-58917000D03*
X93233000Y-61750000D03*
X97400000Y-91700000D03*
X98520000Y-112180000D03*
X99700000Y-62900000D03*
X100600000Y-113100000D03*
X103440000Y-115770000D03*
X104500000Y-104700000D03*
X105300000Y-59400000D03*
X106550000Y-66750000D03*
X106850000Y-106000000D03*
X108500000Y-56700000D03*
X109600000Y-60100000D03*
X110300000Y-73900000D03*
X116900000Y-65600000D03*
X121000000Y-89000000D03*
X123400000Y-62400000D03*
X123400000Y-65600000D03*
X126300000Y-77738200D03*
X127300000Y-81350000D03*
X127720000Y-83800000D03*
X127850000Y-64600000D03*
X129100000Y-104300000D03*
X130040000Y-81510000D03*
X133000000Y-56000000D03*
X133000000Y-88850000D03*
X133340000Y-79910000D03*
X134500000Y-49000000D03*
X134830000Y-81260000D03*
X137910000Y-86210000D03*
X138480000Y-79080000D03*
X139250000Y-99462500D03*
X140120000Y-84700000D03*
X140190000Y-77620000D03*
X140390000Y-75100000D03*
X143950000Y-101100000D03*
X144760000Y-104170000D03*
X145500000Y-54000000D03*
X145900000Y-68650000D03*
X147100000Y-98800000D03*
X147350000Y-65300000D03*
X149850000Y-99700000D03*
X149950000Y-64300000D03*
X150890000Y-106350000D03*
X151400000Y-58950000D03*
X154350000Y-81400000D03*
X154400000Y-97950000D03*
X156061300Y-73011800D03*
X157150000Y-75600000D03*
X159500000Y-95900000D03*
X159770000Y-70150000D03*
X159770000Y-72338200D03*
X160000000Y-74100000D03*
X160800000Y-94000000D03*
X161000000Y-60200000D03*
X162300000Y-90200000D03*
X164200000Y-86575000D03*
X166950000Y-96800000D03*
D12*
%TO.C,J5*%
X162180000Y-66880000D02*
X161580000Y-66880000D01*
X162180000Y-75520000D02*
X161580000Y-75520000D01*
X165980000Y-66880000D02*
X165380000Y-66880000D01*
X165980000Y-75520000D02*
X165380000Y-75520000D01*
D13*
%TO.C,MK1*%
X137200000Y-63850000D03*
X140100000Y-63850000D03*
%TO.C,J6*%
X155300000Y-88100000D03*
X155300000Y-90100000D03*
D14*
%TO.C,DS1*%
X95750000Y-55950000D03*
X95750000Y-68650000D03*
X98290000Y-55950000D03*
X98290000Y-68650000D03*
X100830000Y-55950000D03*
X100830000Y-68650000D03*
X103370000Y-55950000D03*
X103370000Y-68650000D03*
%TO.C,J2*%
X104300000Y-109960000D03*
X104300000Y-112500000D03*
%TO.C,DS1*%
X105910000Y-55950000D03*
X105910000Y-68650000D03*
%TO.C,J2*%
X106840000Y-109960000D03*
X106840000Y-112500000D03*
X109380000Y-109960000D03*
X109380000Y-112500000D03*
X111920000Y-109960000D03*
X111920000Y-112500000D03*
X114460000Y-109960000D03*
X114460000Y-112500000D03*
%TO.C,DS1*%
X116070000Y-55950000D03*
X116070000Y-68650000D03*
X118610000Y-55950000D03*
X118610000Y-68650000D03*
X121150000Y-55950000D03*
X121150000Y-68650000D03*
X123690000Y-55950000D03*
X123690000Y-68650000D03*
X126230000Y-55950000D03*
X126230000Y-68650000D03*
%TO.C,LS1*%
X149600000Y-55050000D03*
X159600000Y-55050000D03*
%TO.C,J1*%
X162200000Y-99450000D03*
X162200000Y-101990000D03*
X162200000Y-104530000D03*
X164740000Y-99450000D03*
X164740000Y-101990000D03*
X164740000Y-104530000D03*
D15*
%TO.C,SW1*%
X91850000Y-45950000D03*
X91850000Y-50450000D03*
X98350000Y-45950000D03*
X98350000Y-50450000D03*
%TO.C,SW3*%
X101100000Y-98300000D03*
X101100000Y-102800000D03*
%TO.C,SW2*%
X101750000Y-45950000D03*
X101750000Y-50450000D03*
%TO.C,SW3*%
X107600000Y-98300000D03*
X107600000Y-102800000D03*
%TO.C,SW2*%
X108250000Y-45950000D03*
X108250000Y-50450000D03*
%TO.C,SW5*%
X111650000Y-45950000D03*
X111650000Y-50450000D03*
X118150000Y-45950000D03*
X118150000Y-50450000D03*
%TO.C,SW6*%
X121650000Y-45950000D03*
X121650000Y-50450000D03*
%TO.C,SW4*%
X125750000Y-98300000D03*
X125750000Y-102800000D03*
%TO.C,SW6*%
X128150000Y-45950000D03*
X128150000Y-50450000D03*
%TO.C,SW4*%
X132250000Y-98300000D03*
X132250000Y-102800000D03*
%TO.C,J3*%
X133700000Y-44850000D03*
X133700000Y-51550000D03*
X139300000Y-44850000D03*
X139300000Y-48050000D03*
X139300000Y-51550000D03*
D16*
%TO.C,D3*%
X95200000Y-103650000D03*
%TO.C,D1*%
X95200000Y-110350000D03*
%TO.C,Q6*%
X95200000Y-117050000D03*
%TO.C,D2*%
X162750000Y-110350000D03*
M02*
