%TF.GenerationSoftware,KiCad,Pcbnew,9.0.6-9.0.6~ubuntu24.04.1*%
%TF.CreationDate,2025-11-22T19:38:15+03:00*%
%TF.ProjectId,Dreamstalker-PRO-v2,44726561-6d73-4746-916c-6b65722d5052,2.4*%
%TF.SameCoordinates,Original*%
%TF.FileFunction,Drillmap*%
%TF.FilePolarity,Positive*%
%FSLAX45Y45*%
G04 Gerber Fmt 4.5, Leading zero omitted, Abs format (unit mm)*
G04 Created by KiCad (PCBNEW 9.0.6-9.0.6~ubuntu24.04.1) date 2025-11-22 19:38:15*
%MOMM*%
%LPD*%
G01*
G04 APERTURE LIST*
%ADD10C,0.150000*%
%ADD11C,0.200000*%
%ADD12C,0.100000*%
%ADD13C,0.130000*%
G04 APERTURE END LIST*
D10*
X12200000Y-10900000D02*
X10400000Y-12700000D01*
X8950000Y-4200000D02*
X16850000Y-4200000D01*
X16850000Y-4200000D02*
X16850000Y-12700000D01*
X16850000Y-12700000D02*
X15500000Y-12700000D01*
X12200000Y-10900000D02*
X13700000Y-10900000D01*
X8950000Y-12700000D02*
X10400000Y-12700000D01*
X8950000Y-4200000D02*
X8950000Y-12700000D01*
X13700000Y-10900000D02*
X15500000Y-12700000D01*
D11*
D12*
X14635000Y-10340000D02*
X14735000Y-10440000D01*
X14735000Y-10340000D02*
X14635000Y-10440000D01*
X15435000Y-10340000D02*
X15535000Y-10440000D01*
X15535000Y-10340000D02*
X15435000Y-10440000D01*
D13*
X13715000Y-4555000D02*
G75*
G02*
X13585000Y-4555000I-65000J0D01*
G01*
X13585000Y-4555000D02*
G75*
G02*
X13715000Y-4555000I65000J0D01*
G01*
X13715000Y-5155000D02*
G75*
G02*
X13585000Y-5155000I-65000J0D01*
G01*
X13585000Y-5155000D02*
G75*
G02*
X13715000Y-5155000I65000J0D01*
G01*
D11*
X9203277Y-13018984D02*
X9203277Y-12818984D01*
X9203277Y-12818984D02*
X9250896Y-12818984D01*
X9250896Y-12818984D02*
X9279467Y-12828508D01*
X9279467Y-12828508D02*
X9298515Y-12847555D01*
X9298515Y-12847555D02*
X9308039Y-12866603D01*
X9308039Y-12866603D02*
X9317563Y-12904698D01*
X9317563Y-12904698D02*
X9317563Y-12933269D01*
X9317563Y-12933269D02*
X9308039Y-12971365D01*
X9308039Y-12971365D02*
X9298515Y-12990412D01*
X9298515Y-12990412D02*
X9279467Y-13009460D01*
X9279467Y-13009460D02*
X9250896Y-13018984D01*
X9250896Y-13018984D02*
X9203277Y-13018984D01*
X9403277Y-13018984D02*
X9403277Y-12885650D01*
X9403277Y-12923746D02*
X9412801Y-12904698D01*
X9412801Y-12904698D02*
X9422324Y-12895174D01*
X9422324Y-12895174D02*
X9441372Y-12885650D01*
X9441372Y-12885650D02*
X9460420Y-12885650D01*
X9527086Y-13018984D02*
X9527086Y-12885650D01*
X9527086Y-12818984D02*
X9517563Y-12828508D01*
X9517563Y-12828508D02*
X9527086Y-12838031D01*
X9527086Y-12838031D02*
X9536610Y-12828508D01*
X9536610Y-12828508D02*
X9527086Y-12818984D01*
X9527086Y-12818984D02*
X9527086Y-12838031D01*
X9650896Y-13018984D02*
X9631848Y-13009460D01*
X9631848Y-13009460D02*
X9622324Y-12990412D01*
X9622324Y-12990412D02*
X9622324Y-12818984D01*
X9755658Y-13018984D02*
X9736610Y-13009460D01*
X9736610Y-13009460D02*
X9727086Y-12990412D01*
X9727086Y-12990412D02*
X9727086Y-12818984D01*
X9984229Y-13018984D02*
X9984229Y-12818984D01*
X9984229Y-12818984D02*
X10050896Y-12961841D01*
X10050896Y-12961841D02*
X10117563Y-12818984D01*
X10117563Y-12818984D02*
X10117563Y-13018984D01*
X10298515Y-13018984D02*
X10298515Y-12914222D01*
X10298515Y-12914222D02*
X10288991Y-12895174D01*
X10288991Y-12895174D02*
X10269944Y-12885650D01*
X10269944Y-12885650D02*
X10231848Y-12885650D01*
X10231848Y-12885650D02*
X10212801Y-12895174D01*
X10298515Y-13009460D02*
X10279467Y-13018984D01*
X10279467Y-13018984D02*
X10231848Y-13018984D01*
X10231848Y-13018984D02*
X10212801Y-13009460D01*
X10212801Y-13009460D02*
X10203277Y-12990412D01*
X10203277Y-12990412D02*
X10203277Y-12971365D01*
X10203277Y-12971365D02*
X10212801Y-12952317D01*
X10212801Y-12952317D02*
X10231848Y-12942793D01*
X10231848Y-12942793D02*
X10279467Y-12942793D01*
X10279467Y-12942793D02*
X10298515Y-12933269D01*
X10393753Y-12885650D02*
X10393753Y-13085650D01*
X10393753Y-12895174D02*
X10412801Y-12885650D01*
X10412801Y-12885650D02*
X10450896Y-12885650D01*
X10450896Y-12885650D02*
X10469944Y-12895174D01*
X10469944Y-12895174D02*
X10479467Y-12904698D01*
X10479467Y-12904698D02*
X10488991Y-12923746D01*
X10488991Y-12923746D02*
X10488991Y-12980888D01*
X10488991Y-12980888D02*
X10479467Y-12999936D01*
X10479467Y-12999936D02*
X10469944Y-13009460D01*
X10469944Y-13009460D02*
X10450896Y-13018984D01*
X10450896Y-13018984D02*
X10412801Y-13018984D01*
X10412801Y-13018984D02*
X10393753Y-13009460D01*
X10574705Y-12999936D02*
X10584229Y-13009460D01*
X10584229Y-13009460D02*
X10574705Y-13018984D01*
X10574705Y-13018984D02*
X10565182Y-13009460D01*
X10565182Y-13009460D02*
X10574705Y-12999936D01*
X10574705Y-12999936D02*
X10574705Y-13018984D01*
X10574705Y-12895174D02*
X10584229Y-12904698D01*
X10584229Y-12904698D02*
X10574705Y-12914222D01*
X10574705Y-12914222D02*
X10565182Y-12904698D01*
X10565182Y-12904698D02*
X10574705Y-12895174D01*
X10574705Y-12895174D02*
X10574705Y-12914222D01*
D12*
X8842500Y-13297500D02*
X8942500Y-13397500D01*
X8942500Y-13297500D02*
X8842500Y-13397500D01*
D11*
X9308039Y-13438984D02*
X9193753Y-13438984D01*
X9250896Y-13438984D02*
X9250896Y-13238984D01*
X9250896Y-13238984D02*
X9231848Y-13267555D01*
X9231848Y-13267555D02*
X9212801Y-13286603D01*
X9212801Y-13286603D02*
X9193753Y-13296127D01*
X9393753Y-13419936D02*
X9403277Y-13429460D01*
X9403277Y-13429460D02*
X9393753Y-13438984D01*
X9393753Y-13438984D02*
X9384229Y-13429460D01*
X9384229Y-13429460D02*
X9393753Y-13419936D01*
X9393753Y-13419936D02*
X9393753Y-13438984D01*
X9527086Y-13238984D02*
X9546134Y-13238984D01*
X9546134Y-13238984D02*
X9565182Y-13248508D01*
X9565182Y-13248508D02*
X9574705Y-13258031D01*
X9574705Y-13258031D02*
X9584229Y-13277079D01*
X9584229Y-13277079D02*
X9593753Y-13315174D01*
X9593753Y-13315174D02*
X9593753Y-13362793D01*
X9593753Y-13362793D02*
X9584229Y-13400888D01*
X9584229Y-13400888D02*
X9574705Y-13419936D01*
X9574705Y-13419936D02*
X9565182Y-13429460D01*
X9565182Y-13429460D02*
X9546134Y-13438984D01*
X9546134Y-13438984D02*
X9527086Y-13438984D01*
X9527086Y-13438984D02*
X9508039Y-13429460D01*
X9508039Y-13429460D02*
X9498515Y-13419936D01*
X9498515Y-13419936D02*
X9488991Y-13400888D01*
X9488991Y-13400888D02*
X9479467Y-13362793D01*
X9479467Y-13362793D02*
X9479467Y-13315174D01*
X9479467Y-13315174D02*
X9488991Y-13277079D01*
X9488991Y-13277079D02*
X9498515Y-13258031D01*
X9498515Y-13258031D02*
X9508039Y-13248508D01*
X9508039Y-13248508D02*
X9527086Y-13238984D01*
X9717563Y-13238984D02*
X9736610Y-13238984D01*
X9736610Y-13238984D02*
X9755658Y-13248508D01*
X9755658Y-13248508D02*
X9765182Y-13258031D01*
X9765182Y-13258031D02*
X9774705Y-13277079D01*
X9774705Y-13277079D02*
X9784229Y-13315174D01*
X9784229Y-13315174D02*
X9784229Y-13362793D01*
X9784229Y-13362793D02*
X9774705Y-13400888D01*
X9774705Y-13400888D02*
X9765182Y-13419936D01*
X9765182Y-13419936D02*
X9755658Y-13429460D01*
X9755658Y-13429460D02*
X9736610Y-13438984D01*
X9736610Y-13438984D02*
X9717563Y-13438984D01*
X9717563Y-13438984D02*
X9698515Y-13429460D01*
X9698515Y-13429460D02*
X9688991Y-13419936D01*
X9688991Y-13419936D02*
X9679467Y-13400888D01*
X9679467Y-13400888D02*
X9669944Y-13362793D01*
X9669944Y-13362793D02*
X9669944Y-13315174D01*
X9669944Y-13315174D02*
X9679467Y-13277079D01*
X9679467Y-13277079D02*
X9688991Y-13258031D01*
X9688991Y-13258031D02*
X9698515Y-13248508D01*
X9698515Y-13248508D02*
X9717563Y-13238984D01*
X9908039Y-13238984D02*
X9927086Y-13238984D01*
X9927086Y-13238984D02*
X9946134Y-13248508D01*
X9946134Y-13248508D02*
X9955658Y-13258031D01*
X9955658Y-13258031D02*
X9965182Y-13277079D01*
X9965182Y-13277079D02*
X9974705Y-13315174D01*
X9974705Y-13315174D02*
X9974705Y-13362793D01*
X9974705Y-13362793D02*
X9965182Y-13400888D01*
X9965182Y-13400888D02*
X9955658Y-13419936D01*
X9955658Y-13419936D02*
X9946134Y-13429460D01*
X9946134Y-13429460D02*
X9927086Y-13438984D01*
X9927086Y-13438984D02*
X9908039Y-13438984D01*
X9908039Y-13438984D02*
X9888991Y-13429460D01*
X9888991Y-13429460D02*
X9879467Y-13419936D01*
X9879467Y-13419936D02*
X9869944Y-13400888D01*
X9869944Y-13400888D02*
X9860420Y-13362793D01*
X9860420Y-13362793D02*
X9860420Y-13315174D01*
X9860420Y-13315174D02*
X9869944Y-13277079D01*
X9869944Y-13277079D02*
X9879467Y-13258031D01*
X9879467Y-13258031D02*
X9888991Y-13248508D01*
X9888991Y-13248508D02*
X9908039Y-13238984D01*
X10060420Y-13438984D02*
X10060420Y-13305650D01*
X10060420Y-13324698D02*
X10069944Y-13315174D01*
X10069944Y-13315174D02*
X10088991Y-13305650D01*
X10088991Y-13305650D02*
X10117563Y-13305650D01*
X10117563Y-13305650D02*
X10136610Y-13315174D01*
X10136610Y-13315174D02*
X10146134Y-13334222D01*
X10146134Y-13334222D02*
X10146134Y-13438984D01*
X10146134Y-13334222D02*
X10155658Y-13315174D01*
X10155658Y-13315174D02*
X10174705Y-13305650D01*
X10174705Y-13305650D02*
X10203277Y-13305650D01*
X10203277Y-13305650D02*
X10222325Y-13315174D01*
X10222325Y-13315174D02*
X10231848Y-13334222D01*
X10231848Y-13334222D02*
X10231848Y-13438984D01*
X10327086Y-13438984D02*
X10327086Y-13305650D01*
X10327086Y-13324698D02*
X10336610Y-13315174D01*
X10336610Y-13315174D02*
X10355658Y-13305650D01*
X10355658Y-13305650D02*
X10384229Y-13305650D01*
X10384229Y-13305650D02*
X10403277Y-13315174D01*
X10403277Y-13315174D02*
X10412801Y-13334222D01*
X10412801Y-13334222D02*
X10412801Y-13438984D01*
X10412801Y-13334222D02*
X10422325Y-13315174D01*
X10422325Y-13315174D02*
X10441372Y-13305650D01*
X10441372Y-13305650D02*
X10469944Y-13305650D01*
X10469944Y-13305650D02*
X10488991Y-13315174D01*
X10488991Y-13315174D02*
X10498515Y-13334222D01*
X10498515Y-13334222D02*
X10498515Y-13438984D01*
X10888991Y-13229460D02*
X10717563Y-13486603D01*
X11146134Y-13238984D02*
X11165182Y-13238984D01*
X11165182Y-13238984D02*
X11184229Y-13248508D01*
X11184229Y-13248508D02*
X11193753Y-13258031D01*
X11193753Y-13258031D02*
X11203277Y-13277079D01*
X11203277Y-13277079D02*
X11212801Y-13315174D01*
X11212801Y-13315174D02*
X11212801Y-13362793D01*
X11212801Y-13362793D02*
X11203277Y-13400888D01*
X11203277Y-13400888D02*
X11193753Y-13419936D01*
X11193753Y-13419936D02*
X11184229Y-13429460D01*
X11184229Y-13429460D02*
X11165182Y-13438984D01*
X11165182Y-13438984D02*
X11146134Y-13438984D01*
X11146134Y-13438984D02*
X11127087Y-13429460D01*
X11127087Y-13429460D02*
X11117563Y-13419936D01*
X11117563Y-13419936D02*
X11108039Y-13400888D01*
X11108039Y-13400888D02*
X11098515Y-13362793D01*
X11098515Y-13362793D02*
X11098515Y-13315174D01*
X11098515Y-13315174D02*
X11108039Y-13277079D01*
X11108039Y-13277079D02*
X11117563Y-13258031D01*
X11117563Y-13258031D02*
X11127087Y-13248508D01*
X11127087Y-13248508D02*
X11146134Y-13238984D01*
X11298515Y-13419936D02*
X11308039Y-13429460D01*
X11308039Y-13429460D02*
X11298515Y-13438984D01*
X11298515Y-13438984D02*
X11288991Y-13429460D01*
X11288991Y-13429460D02*
X11298515Y-13419936D01*
X11298515Y-13419936D02*
X11298515Y-13438984D01*
X11431848Y-13238984D02*
X11450896Y-13238984D01*
X11450896Y-13238984D02*
X11469944Y-13248508D01*
X11469944Y-13248508D02*
X11479467Y-13258031D01*
X11479467Y-13258031D02*
X11488991Y-13277079D01*
X11488991Y-13277079D02*
X11498515Y-13315174D01*
X11498515Y-13315174D02*
X11498515Y-13362793D01*
X11498515Y-13362793D02*
X11488991Y-13400888D01*
X11488991Y-13400888D02*
X11479467Y-13419936D01*
X11479467Y-13419936D02*
X11469944Y-13429460D01*
X11469944Y-13429460D02*
X11450896Y-13438984D01*
X11450896Y-13438984D02*
X11431848Y-13438984D01*
X11431848Y-13438984D02*
X11412801Y-13429460D01*
X11412801Y-13429460D02*
X11403277Y-13419936D01*
X11403277Y-13419936D02*
X11393753Y-13400888D01*
X11393753Y-13400888D02*
X11384229Y-13362793D01*
X11384229Y-13362793D02*
X11384229Y-13315174D01*
X11384229Y-13315174D02*
X11393753Y-13277079D01*
X11393753Y-13277079D02*
X11403277Y-13258031D01*
X11403277Y-13258031D02*
X11412801Y-13248508D01*
X11412801Y-13248508D02*
X11431848Y-13238984D01*
X11565182Y-13238984D02*
X11688991Y-13238984D01*
X11688991Y-13238984D02*
X11622325Y-13315174D01*
X11622325Y-13315174D02*
X11650896Y-13315174D01*
X11650896Y-13315174D02*
X11669944Y-13324698D01*
X11669944Y-13324698D02*
X11679467Y-13334222D01*
X11679467Y-13334222D02*
X11688991Y-13353269D01*
X11688991Y-13353269D02*
X11688991Y-13400888D01*
X11688991Y-13400888D02*
X11679467Y-13419936D01*
X11679467Y-13419936D02*
X11669944Y-13429460D01*
X11669944Y-13429460D02*
X11650896Y-13438984D01*
X11650896Y-13438984D02*
X11593753Y-13438984D01*
X11593753Y-13438984D02*
X11574706Y-13429460D01*
X11574706Y-13429460D02*
X11565182Y-13419936D01*
X11784229Y-13438984D02*
X11822325Y-13438984D01*
X11822325Y-13438984D02*
X11841372Y-13429460D01*
X11841372Y-13429460D02*
X11850896Y-13419936D01*
X11850896Y-13419936D02*
X11869944Y-13391365D01*
X11869944Y-13391365D02*
X11879467Y-13353269D01*
X11879467Y-13353269D02*
X11879467Y-13277079D01*
X11879467Y-13277079D02*
X11869944Y-13258031D01*
X11869944Y-13258031D02*
X11860420Y-13248508D01*
X11860420Y-13248508D02*
X11841372Y-13238984D01*
X11841372Y-13238984D02*
X11803277Y-13238984D01*
X11803277Y-13238984D02*
X11784229Y-13248508D01*
X11784229Y-13248508D02*
X11774706Y-13258031D01*
X11774706Y-13258031D02*
X11765182Y-13277079D01*
X11765182Y-13277079D02*
X11765182Y-13324698D01*
X11765182Y-13324698D02*
X11774706Y-13343746D01*
X11774706Y-13343746D02*
X11784229Y-13353269D01*
X11784229Y-13353269D02*
X11803277Y-13362793D01*
X11803277Y-13362793D02*
X11841372Y-13362793D01*
X11841372Y-13362793D02*
X11860420Y-13353269D01*
X11860420Y-13353269D02*
X11869944Y-13343746D01*
X11869944Y-13343746D02*
X11879467Y-13324698D01*
X12050896Y-13305650D02*
X12050896Y-13438984D01*
X12003277Y-13229460D02*
X11955658Y-13372317D01*
X11955658Y-13372317D02*
X12079467Y-13372317D01*
X12146134Y-13238984D02*
X12146134Y-13277079D01*
X12222325Y-13238984D02*
X12222325Y-13277079D01*
X12517563Y-13515174D02*
X12508039Y-13505650D01*
X12508039Y-13505650D02*
X12488991Y-13477079D01*
X12488991Y-13477079D02*
X12479468Y-13458031D01*
X12479468Y-13458031D02*
X12469944Y-13429460D01*
X12469944Y-13429460D02*
X12460420Y-13381841D01*
X12460420Y-13381841D02*
X12460420Y-13343746D01*
X12460420Y-13343746D02*
X12469944Y-13296127D01*
X12469944Y-13296127D02*
X12479468Y-13267555D01*
X12479468Y-13267555D02*
X12488991Y-13248508D01*
X12488991Y-13248508D02*
X12508039Y-13219936D01*
X12508039Y-13219936D02*
X12517563Y-13210412D01*
X12584229Y-13258031D02*
X12593753Y-13248508D01*
X12593753Y-13248508D02*
X12612801Y-13238984D01*
X12612801Y-13238984D02*
X12660420Y-13238984D01*
X12660420Y-13238984D02*
X12679468Y-13248508D01*
X12679468Y-13248508D02*
X12688991Y-13258031D01*
X12688991Y-13258031D02*
X12698515Y-13277079D01*
X12698515Y-13277079D02*
X12698515Y-13296127D01*
X12698515Y-13296127D02*
X12688991Y-13324698D01*
X12688991Y-13324698D02*
X12574706Y-13438984D01*
X12574706Y-13438984D02*
X12698515Y-13438984D01*
X12936610Y-13438984D02*
X12936610Y-13238984D01*
X13022325Y-13438984D02*
X13022325Y-13334222D01*
X13022325Y-13334222D02*
X13012801Y-13315174D01*
X13012801Y-13315174D02*
X12993753Y-13305650D01*
X12993753Y-13305650D02*
X12965182Y-13305650D01*
X12965182Y-13305650D02*
X12946134Y-13315174D01*
X12946134Y-13315174D02*
X12936610Y-13324698D01*
X13146134Y-13438984D02*
X13127087Y-13429460D01*
X13127087Y-13429460D02*
X13117563Y-13419936D01*
X13117563Y-13419936D02*
X13108039Y-13400888D01*
X13108039Y-13400888D02*
X13108039Y-13343746D01*
X13108039Y-13343746D02*
X13117563Y-13324698D01*
X13117563Y-13324698D02*
X13127087Y-13315174D01*
X13127087Y-13315174D02*
X13146134Y-13305650D01*
X13146134Y-13305650D02*
X13174706Y-13305650D01*
X13174706Y-13305650D02*
X13193753Y-13315174D01*
X13193753Y-13315174D02*
X13203277Y-13324698D01*
X13203277Y-13324698D02*
X13212801Y-13343746D01*
X13212801Y-13343746D02*
X13212801Y-13400888D01*
X13212801Y-13400888D02*
X13203277Y-13419936D01*
X13203277Y-13419936D02*
X13193753Y-13429460D01*
X13193753Y-13429460D02*
X13174706Y-13438984D01*
X13174706Y-13438984D02*
X13146134Y-13438984D01*
X13327087Y-13438984D02*
X13308039Y-13429460D01*
X13308039Y-13429460D02*
X13298515Y-13410412D01*
X13298515Y-13410412D02*
X13298515Y-13238984D01*
X13479468Y-13429460D02*
X13460420Y-13438984D01*
X13460420Y-13438984D02*
X13422325Y-13438984D01*
X13422325Y-13438984D02*
X13403277Y-13429460D01*
X13403277Y-13429460D02*
X13393753Y-13410412D01*
X13393753Y-13410412D02*
X13393753Y-13334222D01*
X13393753Y-13334222D02*
X13403277Y-13315174D01*
X13403277Y-13315174D02*
X13422325Y-13305650D01*
X13422325Y-13305650D02*
X13460420Y-13305650D01*
X13460420Y-13305650D02*
X13479468Y-13315174D01*
X13479468Y-13315174D02*
X13488991Y-13334222D01*
X13488991Y-13334222D02*
X13488991Y-13353269D01*
X13488991Y-13353269D02*
X13393753Y-13372317D01*
X13565182Y-13429460D02*
X13584230Y-13438984D01*
X13584230Y-13438984D02*
X13622325Y-13438984D01*
X13622325Y-13438984D02*
X13641372Y-13429460D01*
X13641372Y-13429460D02*
X13650896Y-13410412D01*
X13650896Y-13410412D02*
X13650896Y-13400888D01*
X13650896Y-13400888D02*
X13641372Y-13381841D01*
X13641372Y-13381841D02*
X13622325Y-13372317D01*
X13622325Y-13372317D02*
X13593753Y-13372317D01*
X13593753Y-13372317D02*
X13574706Y-13362793D01*
X13574706Y-13362793D02*
X13565182Y-13343746D01*
X13565182Y-13343746D02*
X13565182Y-13334222D01*
X13565182Y-13334222D02*
X13574706Y-13315174D01*
X13574706Y-13315174D02*
X13593753Y-13305650D01*
X13593753Y-13305650D02*
X13622325Y-13305650D01*
X13622325Y-13305650D02*
X13641372Y-13315174D01*
X13717563Y-13515174D02*
X13727087Y-13505650D01*
X13727087Y-13505650D02*
X13746134Y-13477079D01*
X13746134Y-13477079D02*
X13755658Y-13458031D01*
X13755658Y-13458031D02*
X13765182Y-13429460D01*
X13765182Y-13429460D02*
X13774706Y-13381841D01*
X13774706Y-13381841D02*
X13774706Y-13343746D01*
X13774706Y-13343746D02*
X13765182Y-13296127D01*
X13765182Y-13296127D02*
X13755658Y-13267555D01*
X13755658Y-13267555D02*
X13746134Y-13248508D01*
X13746134Y-13248508D02*
X13727087Y-13219936D01*
X13727087Y-13219936D02*
X13717563Y-13210412D01*
X14079468Y-13515174D02*
X14069944Y-13505650D01*
X14069944Y-13505650D02*
X14050896Y-13477079D01*
X14050896Y-13477079D02*
X14041372Y-13458031D01*
X14041372Y-13458031D02*
X14031849Y-13429460D01*
X14031849Y-13429460D02*
X14022325Y-13381841D01*
X14022325Y-13381841D02*
X14022325Y-13343746D01*
X14022325Y-13343746D02*
X14031849Y-13296127D01*
X14031849Y-13296127D02*
X14041372Y-13267555D01*
X14041372Y-13267555D02*
X14050896Y-13248508D01*
X14050896Y-13248508D02*
X14069944Y-13219936D01*
X14069944Y-13219936D02*
X14079468Y-13210412D01*
X14155658Y-13305650D02*
X14155658Y-13438984D01*
X14155658Y-13324698D02*
X14165182Y-13315174D01*
X14165182Y-13315174D02*
X14184230Y-13305650D01*
X14184230Y-13305650D02*
X14212801Y-13305650D01*
X14212801Y-13305650D02*
X14231849Y-13315174D01*
X14231849Y-13315174D02*
X14241372Y-13334222D01*
X14241372Y-13334222D02*
X14241372Y-13438984D01*
X14365182Y-13438984D02*
X14346134Y-13429460D01*
X14346134Y-13429460D02*
X14336611Y-13419936D01*
X14336611Y-13419936D02*
X14327087Y-13400888D01*
X14327087Y-13400888D02*
X14327087Y-13343746D01*
X14327087Y-13343746D02*
X14336611Y-13324698D01*
X14336611Y-13324698D02*
X14346134Y-13315174D01*
X14346134Y-13315174D02*
X14365182Y-13305650D01*
X14365182Y-13305650D02*
X14393753Y-13305650D01*
X14393753Y-13305650D02*
X14412801Y-13315174D01*
X14412801Y-13315174D02*
X14422325Y-13324698D01*
X14422325Y-13324698D02*
X14431849Y-13343746D01*
X14431849Y-13343746D02*
X14431849Y-13400888D01*
X14431849Y-13400888D02*
X14422325Y-13419936D01*
X14422325Y-13419936D02*
X14412801Y-13429460D01*
X14412801Y-13429460D02*
X14393753Y-13438984D01*
X14393753Y-13438984D02*
X14365182Y-13438984D01*
X14488992Y-13305650D02*
X14565182Y-13305650D01*
X14517563Y-13238984D02*
X14517563Y-13410412D01*
X14517563Y-13410412D02*
X14527087Y-13429460D01*
X14527087Y-13429460D02*
X14546134Y-13438984D01*
X14546134Y-13438984D02*
X14565182Y-13438984D01*
X14784230Y-13305650D02*
X14784230Y-13505650D01*
X14784230Y-13315174D02*
X14803277Y-13305650D01*
X14803277Y-13305650D02*
X14841373Y-13305650D01*
X14841373Y-13305650D02*
X14860420Y-13315174D01*
X14860420Y-13315174D02*
X14869944Y-13324698D01*
X14869944Y-13324698D02*
X14879468Y-13343746D01*
X14879468Y-13343746D02*
X14879468Y-13400888D01*
X14879468Y-13400888D02*
X14869944Y-13419936D01*
X14869944Y-13419936D02*
X14860420Y-13429460D01*
X14860420Y-13429460D02*
X14841373Y-13438984D01*
X14841373Y-13438984D02*
X14803277Y-13438984D01*
X14803277Y-13438984D02*
X14784230Y-13429460D01*
X14993753Y-13438984D02*
X14974706Y-13429460D01*
X14974706Y-13429460D02*
X14965182Y-13410412D01*
X14965182Y-13410412D02*
X14965182Y-13238984D01*
X15155658Y-13438984D02*
X15155658Y-13334222D01*
X15155658Y-13334222D02*
X15146134Y-13315174D01*
X15146134Y-13315174D02*
X15127087Y-13305650D01*
X15127087Y-13305650D02*
X15088992Y-13305650D01*
X15088992Y-13305650D02*
X15069944Y-13315174D01*
X15155658Y-13429460D02*
X15136611Y-13438984D01*
X15136611Y-13438984D02*
X15088992Y-13438984D01*
X15088992Y-13438984D02*
X15069944Y-13429460D01*
X15069944Y-13429460D02*
X15060420Y-13410412D01*
X15060420Y-13410412D02*
X15060420Y-13391365D01*
X15060420Y-13391365D02*
X15069944Y-13372317D01*
X15069944Y-13372317D02*
X15088992Y-13362793D01*
X15088992Y-13362793D02*
X15136611Y-13362793D01*
X15136611Y-13362793D02*
X15155658Y-13353269D01*
X15222325Y-13305650D02*
X15298515Y-13305650D01*
X15250896Y-13238984D02*
X15250896Y-13410412D01*
X15250896Y-13410412D02*
X15260420Y-13429460D01*
X15260420Y-13429460D02*
X15279468Y-13438984D01*
X15279468Y-13438984D02*
X15298515Y-13438984D01*
X15441373Y-13429460D02*
X15422325Y-13438984D01*
X15422325Y-13438984D02*
X15384230Y-13438984D01*
X15384230Y-13438984D02*
X15365182Y-13429460D01*
X15365182Y-13429460D02*
X15355658Y-13410412D01*
X15355658Y-13410412D02*
X15355658Y-13334222D01*
X15355658Y-13334222D02*
X15365182Y-13315174D01*
X15365182Y-13315174D02*
X15384230Y-13305650D01*
X15384230Y-13305650D02*
X15422325Y-13305650D01*
X15422325Y-13305650D02*
X15441373Y-13315174D01*
X15441373Y-13315174D02*
X15450896Y-13334222D01*
X15450896Y-13334222D02*
X15450896Y-13353269D01*
X15450896Y-13353269D02*
X15355658Y-13372317D01*
X15622325Y-13438984D02*
X15622325Y-13238984D01*
X15622325Y-13429460D02*
X15603277Y-13438984D01*
X15603277Y-13438984D02*
X15565182Y-13438984D01*
X15565182Y-13438984D02*
X15546134Y-13429460D01*
X15546134Y-13429460D02*
X15536611Y-13419936D01*
X15536611Y-13419936D02*
X15527087Y-13400888D01*
X15527087Y-13400888D02*
X15527087Y-13343746D01*
X15527087Y-13343746D02*
X15536611Y-13324698D01*
X15536611Y-13324698D02*
X15546134Y-13315174D01*
X15546134Y-13315174D02*
X15565182Y-13305650D01*
X15565182Y-13305650D02*
X15603277Y-13305650D01*
X15603277Y-13305650D02*
X15622325Y-13315174D01*
X15698515Y-13515174D02*
X15708039Y-13505650D01*
X15708039Y-13505650D02*
X15727087Y-13477079D01*
X15727087Y-13477079D02*
X15736611Y-13458031D01*
X15736611Y-13458031D02*
X15746134Y-13429460D01*
X15746134Y-13429460D02*
X15755658Y-13381841D01*
X15755658Y-13381841D02*
X15755658Y-13343746D01*
X15755658Y-13343746D02*
X15746134Y-13296127D01*
X15746134Y-13296127D02*
X15736611Y-13267555D01*
X15736611Y-13267555D02*
X15727087Y-13248508D01*
X15727087Y-13248508D02*
X15708039Y-13219936D01*
X15708039Y-13219936D02*
X15698515Y-13210412D01*
D13*
X8942500Y-13611500D02*
G75*
G02*
X8812500Y-13611500I-65000J0D01*
G01*
X8812500Y-13611500D02*
G75*
G02*
X8942500Y-13611500I65000J0D01*
G01*
D11*
X9308039Y-13702984D02*
X9193753Y-13702984D01*
X9250896Y-13702984D02*
X9250896Y-13502984D01*
X9250896Y-13502984D02*
X9231848Y-13531555D01*
X9231848Y-13531555D02*
X9212801Y-13550603D01*
X9212801Y-13550603D02*
X9193753Y-13560127D01*
X9393753Y-13683936D02*
X9403277Y-13693460D01*
X9403277Y-13693460D02*
X9393753Y-13702984D01*
X9393753Y-13702984D02*
X9384229Y-13693460D01*
X9384229Y-13693460D02*
X9393753Y-13683936D01*
X9393753Y-13683936D02*
X9393753Y-13702984D01*
X9469944Y-13502984D02*
X9593753Y-13502984D01*
X9593753Y-13502984D02*
X9527086Y-13579174D01*
X9527086Y-13579174D02*
X9555658Y-13579174D01*
X9555658Y-13579174D02*
X9574705Y-13588698D01*
X9574705Y-13588698D02*
X9584229Y-13598222D01*
X9584229Y-13598222D02*
X9593753Y-13617269D01*
X9593753Y-13617269D02*
X9593753Y-13664888D01*
X9593753Y-13664888D02*
X9584229Y-13683936D01*
X9584229Y-13683936D02*
X9574705Y-13693460D01*
X9574705Y-13693460D02*
X9555658Y-13702984D01*
X9555658Y-13702984D02*
X9498515Y-13702984D01*
X9498515Y-13702984D02*
X9479467Y-13693460D01*
X9479467Y-13693460D02*
X9469944Y-13683936D01*
X9717563Y-13502984D02*
X9736610Y-13502984D01*
X9736610Y-13502984D02*
X9755658Y-13512508D01*
X9755658Y-13512508D02*
X9765182Y-13522031D01*
X9765182Y-13522031D02*
X9774705Y-13541079D01*
X9774705Y-13541079D02*
X9784229Y-13579174D01*
X9784229Y-13579174D02*
X9784229Y-13626793D01*
X9784229Y-13626793D02*
X9774705Y-13664888D01*
X9774705Y-13664888D02*
X9765182Y-13683936D01*
X9765182Y-13683936D02*
X9755658Y-13693460D01*
X9755658Y-13693460D02*
X9736610Y-13702984D01*
X9736610Y-13702984D02*
X9717563Y-13702984D01*
X9717563Y-13702984D02*
X9698515Y-13693460D01*
X9698515Y-13693460D02*
X9688991Y-13683936D01*
X9688991Y-13683936D02*
X9679467Y-13664888D01*
X9679467Y-13664888D02*
X9669944Y-13626793D01*
X9669944Y-13626793D02*
X9669944Y-13579174D01*
X9669944Y-13579174D02*
X9679467Y-13541079D01*
X9679467Y-13541079D02*
X9688991Y-13522031D01*
X9688991Y-13522031D02*
X9698515Y-13512508D01*
X9698515Y-13512508D02*
X9717563Y-13502984D01*
X9908039Y-13502984D02*
X9927086Y-13502984D01*
X9927086Y-13502984D02*
X9946134Y-13512508D01*
X9946134Y-13512508D02*
X9955658Y-13522031D01*
X9955658Y-13522031D02*
X9965182Y-13541079D01*
X9965182Y-13541079D02*
X9974705Y-13579174D01*
X9974705Y-13579174D02*
X9974705Y-13626793D01*
X9974705Y-13626793D02*
X9965182Y-13664888D01*
X9965182Y-13664888D02*
X9955658Y-13683936D01*
X9955658Y-13683936D02*
X9946134Y-13693460D01*
X9946134Y-13693460D02*
X9927086Y-13702984D01*
X9927086Y-13702984D02*
X9908039Y-13702984D01*
X9908039Y-13702984D02*
X9888991Y-13693460D01*
X9888991Y-13693460D02*
X9879467Y-13683936D01*
X9879467Y-13683936D02*
X9869944Y-13664888D01*
X9869944Y-13664888D02*
X9860420Y-13626793D01*
X9860420Y-13626793D02*
X9860420Y-13579174D01*
X9860420Y-13579174D02*
X9869944Y-13541079D01*
X9869944Y-13541079D02*
X9879467Y-13522031D01*
X9879467Y-13522031D02*
X9888991Y-13512508D01*
X9888991Y-13512508D02*
X9908039Y-13502984D01*
X10060420Y-13702984D02*
X10060420Y-13569650D01*
X10060420Y-13588698D02*
X10069944Y-13579174D01*
X10069944Y-13579174D02*
X10088991Y-13569650D01*
X10088991Y-13569650D02*
X10117563Y-13569650D01*
X10117563Y-13569650D02*
X10136610Y-13579174D01*
X10136610Y-13579174D02*
X10146134Y-13598222D01*
X10146134Y-13598222D02*
X10146134Y-13702984D01*
X10146134Y-13598222D02*
X10155658Y-13579174D01*
X10155658Y-13579174D02*
X10174705Y-13569650D01*
X10174705Y-13569650D02*
X10203277Y-13569650D01*
X10203277Y-13569650D02*
X10222325Y-13579174D01*
X10222325Y-13579174D02*
X10231848Y-13598222D01*
X10231848Y-13598222D02*
X10231848Y-13702984D01*
X10327086Y-13702984D02*
X10327086Y-13569650D01*
X10327086Y-13588698D02*
X10336610Y-13579174D01*
X10336610Y-13579174D02*
X10355658Y-13569650D01*
X10355658Y-13569650D02*
X10384229Y-13569650D01*
X10384229Y-13569650D02*
X10403277Y-13579174D01*
X10403277Y-13579174D02*
X10412801Y-13598222D01*
X10412801Y-13598222D02*
X10412801Y-13702984D01*
X10412801Y-13598222D02*
X10422325Y-13579174D01*
X10422325Y-13579174D02*
X10441372Y-13569650D01*
X10441372Y-13569650D02*
X10469944Y-13569650D01*
X10469944Y-13569650D02*
X10488991Y-13579174D01*
X10488991Y-13579174D02*
X10498515Y-13598222D01*
X10498515Y-13598222D02*
X10498515Y-13702984D01*
X10888991Y-13493460D02*
X10717563Y-13750603D01*
X11146134Y-13502984D02*
X11165182Y-13502984D01*
X11165182Y-13502984D02*
X11184229Y-13512508D01*
X11184229Y-13512508D02*
X11193753Y-13522031D01*
X11193753Y-13522031D02*
X11203277Y-13541079D01*
X11203277Y-13541079D02*
X11212801Y-13579174D01*
X11212801Y-13579174D02*
X11212801Y-13626793D01*
X11212801Y-13626793D02*
X11203277Y-13664888D01*
X11203277Y-13664888D02*
X11193753Y-13683936D01*
X11193753Y-13683936D02*
X11184229Y-13693460D01*
X11184229Y-13693460D02*
X11165182Y-13702984D01*
X11165182Y-13702984D02*
X11146134Y-13702984D01*
X11146134Y-13702984D02*
X11127087Y-13693460D01*
X11127087Y-13693460D02*
X11117563Y-13683936D01*
X11117563Y-13683936D02*
X11108039Y-13664888D01*
X11108039Y-13664888D02*
X11098515Y-13626793D01*
X11098515Y-13626793D02*
X11098515Y-13579174D01*
X11098515Y-13579174D02*
X11108039Y-13541079D01*
X11108039Y-13541079D02*
X11117563Y-13522031D01*
X11117563Y-13522031D02*
X11127087Y-13512508D01*
X11127087Y-13512508D02*
X11146134Y-13502984D01*
X11298515Y-13683936D02*
X11308039Y-13693460D01*
X11308039Y-13693460D02*
X11298515Y-13702984D01*
X11298515Y-13702984D02*
X11288991Y-13693460D01*
X11288991Y-13693460D02*
X11298515Y-13683936D01*
X11298515Y-13683936D02*
X11298515Y-13702984D01*
X11431848Y-13502984D02*
X11450896Y-13502984D01*
X11450896Y-13502984D02*
X11469944Y-13512508D01*
X11469944Y-13512508D02*
X11479467Y-13522031D01*
X11479467Y-13522031D02*
X11488991Y-13541079D01*
X11488991Y-13541079D02*
X11498515Y-13579174D01*
X11498515Y-13579174D02*
X11498515Y-13626793D01*
X11498515Y-13626793D02*
X11488991Y-13664888D01*
X11488991Y-13664888D02*
X11479467Y-13683936D01*
X11479467Y-13683936D02*
X11469944Y-13693460D01*
X11469944Y-13693460D02*
X11450896Y-13702984D01*
X11450896Y-13702984D02*
X11431848Y-13702984D01*
X11431848Y-13702984D02*
X11412801Y-13693460D01*
X11412801Y-13693460D02*
X11403277Y-13683936D01*
X11403277Y-13683936D02*
X11393753Y-13664888D01*
X11393753Y-13664888D02*
X11384229Y-13626793D01*
X11384229Y-13626793D02*
X11384229Y-13579174D01*
X11384229Y-13579174D02*
X11393753Y-13541079D01*
X11393753Y-13541079D02*
X11403277Y-13522031D01*
X11403277Y-13522031D02*
X11412801Y-13512508D01*
X11412801Y-13512508D02*
X11431848Y-13502984D01*
X11679467Y-13502984D02*
X11584229Y-13502984D01*
X11584229Y-13502984D02*
X11574706Y-13598222D01*
X11574706Y-13598222D02*
X11584229Y-13588698D01*
X11584229Y-13588698D02*
X11603277Y-13579174D01*
X11603277Y-13579174D02*
X11650896Y-13579174D01*
X11650896Y-13579174D02*
X11669944Y-13588698D01*
X11669944Y-13588698D02*
X11679467Y-13598222D01*
X11679467Y-13598222D02*
X11688991Y-13617269D01*
X11688991Y-13617269D02*
X11688991Y-13664888D01*
X11688991Y-13664888D02*
X11679467Y-13683936D01*
X11679467Y-13683936D02*
X11669944Y-13693460D01*
X11669944Y-13693460D02*
X11650896Y-13702984D01*
X11650896Y-13702984D02*
X11603277Y-13702984D01*
X11603277Y-13702984D02*
X11584229Y-13693460D01*
X11584229Y-13693460D02*
X11574706Y-13683936D01*
X11879467Y-13702984D02*
X11765182Y-13702984D01*
X11822325Y-13702984D02*
X11822325Y-13502984D01*
X11822325Y-13502984D02*
X11803277Y-13531555D01*
X11803277Y-13531555D02*
X11784229Y-13550603D01*
X11784229Y-13550603D02*
X11765182Y-13560127D01*
X11955658Y-13522031D02*
X11965182Y-13512508D01*
X11965182Y-13512508D02*
X11984229Y-13502984D01*
X11984229Y-13502984D02*
X12031848Y-13502984D01*
X12031848Y-13502984D02*
X12050896Y-13512508D01*
X12050896Y-13512508D02*
X12060420Y-13522031D01*
X12060420Y-13522031D02*
X12069944Y-13541079D01*
X12069944Y-13541079D02*
X12069944Y-13560127D01*
X12069944Y-13560127D02*
X12060420Y-13588698D01*
X12060420Y-13588698D02*
X11946134Y-13702984D01*
X11946134Y-13702984D02*
X12069944Y-13702984D01*
X12146134Y-13502984D02*
X12146134Y-13541079D01*
X12222325Y-13502984D02*
X12222325Y-13541079D01*
X12517563Y-13779174D02*
X12508039Y-13769650D01*
X12508039Y-13769650D02*
X12488991Y-13741079D01*
X12488991Y-13741079D02*
X12479468Y-13722031D01*
X12479468Y-13722031D02*
X12469944Y-13693460D01*
X12469944Y-13693460D02*
X12460420Y-13645841D01*
X12460420Y-13645841D02*
X12460420Y-13607746D01*
X12460420Y-13607746D02*
X12469944Y-13560127D01*
X12469944Y-13560127D02*
X12479468Y-13531555D01*
X12479468Y-13531555D02*
X12488991Y-13512508D01*
X12488991Y-13512508D02*
X12508039Y-13483936D01*
X12508039Y-13483936D02*
X12517563Y-13474412D01*
X12584229Y-13522031D02*
X12593753Y-13512508D01*
X12593753Y-13512508D02*
X12612801Y-13502984D01*
X12612801Y-13502984D02*
X12660420Y-13502984D01*
X12660420Y-13502984D02*
X12679468Y-13512508D01*
X12679468Y-13512508D02*
X12688991Y-13522031D01*
X12688991Y-13522031D02*
X12698515Y-13541079D01*
X12698515Y-13541079D02*
X12698515Y-13560127D01*
X12698515Y-13560127D02*
X12688991Y-13588698D01*
X12688991Y-13588698D02*
X12574706Y-13702984D01*
X12574706Y-13702984D02*
X12698515Y-13702984D01*
X12936610Y-13702984D02*
X12936610Y-13502984D01*
X13022325Y-13702984D02*
X13022325Y-13598222D01*
X13022325Y-13598222D02*
X13012801Y-13579174D01*
X13012801Y-13579174D02*
X12993753Y-13569650D01*
X12993753Y-13569650D02*
X12965182Y-13569650D01*
X12965182Y-13569650D02*
X12946134Y-13579174D01*
X12946134Y-13579174D02*
X12936610Y-13588698D01*
X13146134Y-13702984D02*
X13127087Y-13693460D01*
X13127087Y-13693460D02*
X13117563Y-13683936D01*
X13117563Y-13683936D02*
X13108039Y-13664888D01*
X13108039Y-13664888D02*
X13108039Y-13607746D01*
X13108039Y-13607746D02*
X13117563Y-13588698D01*
X13117563Y-13588698D02*
X13127087Y-13579174D01*
X13127087Y-13579174D02*
X13146134Y-13569650D01*
X13146134Y-13569650D02*
X13174706Y-13569650D01*
X13174706Y-13569650D02*
X13193753Y-13579174D01*
X13193753Y-13579174D02*
X13203277Y-13588698D01*
X13203277Y-13588698D02*
X13212801Y-13607746D01*
X13212801Y-13607746D02*
X13212801Y-13664888D01*
X13212801Y-13664888D02*
X13203277Y-13683936D01*
X13203277Y-13683936D02*
X13193753Y-13693460D01*
X13193753Y-13693460D02*
X13174706Y-13702984D01*
X13174706Y-13702984D02*
X13146134Y-13702984D01*
X13327087Y-13702984D02*
X13308039Y-13693460D01*
X13308039Y-13693460D02*
X13298515Y-13674412D01*
X13298515Y-13674412D02*
X13298515Y-13502984D01*
X13479468Y-13693460D02*
X13460420Y-13702984D01*
X13460420Y-13702984D02*
X13422325Y-13702984D01*
X13422325Y-13702984D02*
X13403277Y-13693460D01*
X13403277Y-13693460D02*
X13393753Y-13674412D01*
X13393753Y-13674412D02*
X13393753Y-13598222D01*
X13393753Y-13598222D02*
X13403277Y-13579174D01*
X13403277Y-13579174D02*
X13422325Y-13569650D01*
X13422325Y-13569650D02*
X13460420Y-13569650D01*
X13460420Y-13569650D02*
X13479468Y-13579174D01*
X13479468Y-13579174D02*
X13488991Y-13598222D01*
X13488991Y-13598222D02*
X13488991Y-13617269D01*
X13488991Y-13617269D02*
X13393753Y-13636317D01*
X13565182Y-13693460D02*
X13584230Y-13702984D01*
X13584230Y-13702984D02*
X13622325Y-13702984D01*
X13622325Y-13702984D02*
X13641372Y-13693460D01*
X13641372Y-13693460D02*
X13650896Y-13674412D01*
X13650896Y-13674412D02*
X13650896Y-13664888D01*
X13650896Y-13664888D02*
X13641372Y-13645841D01*
X13641372Y-13645841D02*
X13622325Y-13636317D01*
X13622325Y-13636317D02*
X13593753Y-13636317D01*
X13593753Y-13636317D02*
X13574706Y-13626793D01*
X13574706Y-13626793D02*
X13565182Y-13607746D01*
X13565182Y-13607746D02*
X13565182Y-13598222D01*
X13565182Y-13598222D02*
X13574706Y-13579174D01*
X13574706Y-13579174D02*
X13593753Y-13569650D01*
X13593753Y-13569650D02*
X13622325Y-13569650D01*
X13622325Y-13569650D02*
X13641372Y-13579174D01*
X13717563Y-13779174D02*
X13727087Y-13769650D01*
X13727087Y-13769650D02*
X13746134Y-13741079D01*
X13746134Y-13741079D02*
X13755658Y-13722031D01*
X13755658Y-13722031D02*
X13765182Y-13693460D01*
X13765182Y-13693460D02*
X13774706Y-13645841D01*
X13774706Y-13645841D02*
X13774706Y-13607746D01*
X13774706Y-13607746D02*
X13765182Y-13560127D01*
X13765182Y-13560127D02*
X13755658Y-13531555D01*
X13755658Y-13531555D02*
X13746134Y-13512508D01*
X13746134Y-13512508D02*
X13727087Y-13483936D01*
X13727087Y-13483936D02*
X13717563Y-13474412D01*
X14079468Y-13779174D02*
X14069944Y-13769650D01*
X14069944Y-13769650D02*
X14050896Y-13741079D01*
X14050896Y-13741079D02*
X14041372Y-13722031D01*
X14041372Y-13722031D02*
X14031849Y-13693460D01*
X14031849Y-13693460D02*
X14022325Y-13645841D01*
X14022325Y-13645841D02*
X14022325Y-13607746D01*
X14022325Y-13607746D02*
X14031849Y-13560127D01*
X14031849Y-13560127D02*
X14041372Y-13531555D01*
X14041372Y-13531555D02*
X14050896Y-13512508D01*
X14050896Y-13512508D02*
X14069944Y-13483936D01*
X14069944Y-13483936D02*
X14079468Y-13474412D01*
X14155658Y-13569650D02*
X14155658Y-13702984D01*
X14155658Y-13588698D02*
X14165182Y-13579174D01*
X14165182Y-13579174D02*
X14184230Y-13569650D01*
X14184230Y-13569650D02*
X14212801Y-13569650D01*
X14212801Y-13569650D02*
X14231849Y-13579174D01*
X14231849Y-13579174D02*
X14241372Y-13598222D01*
X14241372Y-13598222D02*
X14241372Y-13702984D01*
X14365182Y-13702984D02*
X14346134Y-13693460D01*
X14346134Y-13693460D02*
X14336611Y-13683936D01*
X14336611Y-13683936D02*
X14327087Y-13664888D01*
X14327087Y-13664888D02*
X14327087Y-13607746D01*
X14327087Y-13607746D02*
X14336611Y-13588698D01*
X14336611Y-13588698D02*
X14346134Y-13579174D01*
X14346134Y-13579174D02*
X14365182Y-13569650D01*
X14365182Y-13569650D02*
X14393753Y-13569650D01*
X14393753Y-13569650D02*
X14412801Y-13579174D01*
X14412801Y-13579174D02*
X14422325Y-13588698D01*
X14422325Y-13588698D02*
X14431849Y-13607746D01*
X14431849Y-13607746D02*
X14431849Y-13664888D01*
X14431849Y-13664888D02*
X14422325Y-13683936D01*
X14422325Y-13683936D02*
X14412801Y-13693460D01*
X14412801Y-13693460D02*
X14393753Y-13702984D01*
X14393753Y-13702984D02*
X14365182Y-13702984D01*
X14488992Y-13569650D02*
X14565182Y-13569650D01*
X14517563Y-13502984D02*
X14517563Y-13674412D01*
X14517563Y-13674412D02*
X14527087Y-13693460D01*
X14527087Y-13693460D02*
X14546134Y-13702984D01*
X14546134Y-13702984D02*
X14565182Y-13702984D01*
X14784230Y-13569650D02*
X14784230Y-13769650D01*
X14784230Y-13579174D02*
X14803277Y-13569650D01*
X14803277Y-13569650D02*
X14841373Y-13569650D01*
X14841373Y-13569650D02*
X14860420Y-13579174D01*
X14860420Y-13579174D02*
X14869944Y-13588698D01*
X14869944Y-13588698D02*
X14879468Y-13607746D01*
X14879468Y-13607746D02*
X14879468Y-13664888D01*
X14879468Y-13664888D02*
X14869944Y-13683936D01*
X14869944Y-13683936D02*
X14860420Y-13693460D01*
X14860420Y-13693460D02*
X14841373Y-13702984D01*
X14841373Y-13702984D02*
X14803277Y-13702984D01*
X14803277Y-13702984D02*
X14784230Y-13693460D01*
X14993753Y-13702984D02*
X14974706Y-13693460D01*
X14974706Y-13693460D02*
X14965182Y-13674412D01*
X14965182Y-13674412D02*
X14965182Y-13502984D01*
X15155658Y-13702984D02*
X15155658Y-13598222D01*
X15155658Y-13598222D02*
X15146134Y-13579174D01*
X15146134Y-13579174D02*
X15127087Y-13569650D01*
X15127087Y-13569650D02*
X15088992Y-13569650D01*
X15088992Y-13569650D02*
X15069944Y-13579174D01*
X15155658Y-13693460D02*
X15136611Y-13702984D01*
X15136611Y-13702984D02*
X15088992Y-13702984D01*
X15088992Y-13702984D02*
X15069944Y-13693460D01*
X15069944Y-13693460D02*
X15060420Y-13674412D01*
X15060420Y-13674412D02*
X15060420Y-13655365D01*
X15060420Y-13655365D02*
X15069944Y-13636317D01*
X15069944Y-13636317D02*
X15088992Y-13626793D01*
X15088992Y-13626793D02*
X15136611Y-13626793D01*
X15136611Y-13626793D02*
X15155658Y-13617269D01*
X15222325Y-13569650D02*
X15298515Y-13569650D01*
X15250896Y-13502984D02*
X15250896Y-13674412D01*
X15250896Y-13674412D02*
X15260420Y-13693460D01*
X15260420Y-13693460D02*
X15279468Y-13702984D01*
X15279468Y-13702984D02*
X15298515Y-13702984D01*
X15441373Y-13693460D02*
X15422325Y-13702984D01*
X15422325Y-13702984D02*
X15384230Y-13702984D01*
X15384230Y-13702984D02*
X15365182Y-13693460D01*
X15365182Y-13693460D02*
X15355658Y-13674412D01*
X15355658Y-13674412D02*
X15355658Y-13598222D01*
X15355658Y-13598222D02*
X15365182Y-13579174D01*
X15365182Y-13579174D02*
X15384230Y-13569650D01*
X15384230Y-13569650D02*
X15422325Y-13569650D01*
X15422325Y-13569650D02*
X15441373Y-13579174D01*
X15441373Y-13579174D02*
X15450896Y-13598222D01*
X15450896Y-13598222D02*
X15450896Y-13617269D01*
X15450896Y-13617269D02*
X15355658Y-13636317D01*
X15622325Y-13702984D02*
X15622325Y-13502984D01*
X15622325Y-13693460D02*
X15603277Y-13702984D01*
X15603277Y-13702984D02*
X15565182Y-13702984D01*
X15565182Y-13702984D02*
X15546134Y-13693460D01*
X15546134Y-13693460D02*
X15536611Y-13683936D01*
X15536611Y-13683936D02*
X15527087Y-13664888D01*
X15527087Y-13664888D02*
X15527087Y-13607746D01*
X15527087Y-13607746D02*
X15536611Y-13588698D01*
X15536611Y-13588698D02*
X15546134Y-13579174D01*
X15546134Y-13579174D02*
X15565182Y-13569650D01*
X15565182Y-13569650D02*
X15603277Y-13569650D01*
X15603277Y-13569650D02*
X15622325Y-13579174D01*
X15698515Y-13779174D02*
X15708039Y-13769650D01*
X15708039Y-13769650D02*
X15727087Y-13741079D01*
X15727087Y-13741079D02*
X15736611Y-13722031D01*
X15736611Y-13722031D02*
X15746134Y-13693460D01*
X15746134Y-13693460D02*
X15755658Y-13645841D01*
X15755658Y-13645841D02*
X15755658Y-13607746D01*
X15755658Y-13607746D02*
X15746134Y-13560127D01*
X15746134Y-13560127D02*
X15736611Y-13531555D01*
X15736611Y-13531555D02*
X15727087Y-13512508D01*
X15727087Y-13512508D02*
X15708039Y-13483936D01*
X15708039Y-13483936D02*
X15698515Y-13474412D01*
M02*
