%TF.GenerationSoftware,KiCad,Pcbnew,9.0.6-9.0.6~ubuntu24.04.1*%
%TF.CreationDate,2025-11-22T19:38:15+03:00*%
%TF.ProjectId,Dreamstalker-PRO-v2,44726561-6d73-4746-916c-6b65722d5052,2.4*%
%TF.SameCoordinates,Original*%
%TF.FileFunction,Drillmap*%
%TF.FilePolarity,Positive*%
%FSLAX45Y45*%
G04 Gerber Fmt 4.5, Leading zero omitted, Abs format (unit mm)*
G04 Created by KiCad (PCBNEW 9.0.6-9.0.6~ubuntu24.04.1) date 2025-11-22 19:38:15*
%MOMM*%
%LPD*%
G01*
G04 APERTURE LIST*
%ADD10C,0.150000*%
%ADD11C,0.200000*%
%ADD12C,0.100000*%
%ADD13C,0.110000*%
%ADD14C,0.256000*%
G04 APERTURE END LIST*
D10*
X12200000Y-10900000D02*
X10400000Y-12700000D01*
X8950000Y-4200000D02*
X16850000Y-4200000D01*
X16850000Y-4200000D02*
X16850000Y-12700000D01*
X16850000Y-12700000D02*
X15500000Y-12700000D01*
X12200000Y-10900000D02*
X13700000Y-10900000D01*
X8950000Y-12700000D02*
X10400000Y-12700000D01*
X8950000Y-4200000D02*
X8950000Y-12700000D01*
X13700000Y-10900000D02*
X15500000Y-12700000D01*
D11*
D12*
X9185950Y-11310950D02*
X9224050Y-11349050D01*
X9224050Y-11310950D02*
X9185950Y-11349050D01*
X9230950Y-10340950D02*
X9269050Y-10379050D01*
X9269050Y-10340950D02*
X9230950Y-10379050D01*
X9245950Y-10682071D02*
X9284050Y-10720171D01*
X9284050Y-10682071D02*
X9245950Y-10720171D01*
X9325950Y-5565950D02*
X9364050Y-5604050D01*
X9364050Y-5565950D02*
X9325950Y-5604050D01*
X9335950Y-12135950D02*
X9374050Y-12174050D01*
X9374050Y-12135950D02*
X9335950Y-12174050D01*
X9340950Y-9465950D02*
X9379050Y-9504050D01*
X9379050Y-9465950D02*
X9340950Y-9504050D01*
X9375950Y-7225950D02*
X9414050Y-7264050D01*
X9414050Y-7225950D02*
X9375950Y-7264050D01*
X9425950Y-6045950D02*
X9464050Y-6084050D01*
X9464050Y-6045950D02*
X9425950Y-6084050D01*
X9550950Y-5380950D02*
X9589050Y-5419050D01*
X9589050Y-5380950D02*
X9550950Y-5419050D01*
X9630950Y-9945950D02*
X9669050Y-9984050D01*
X9669050Y-9945950D02*
X9630950Y-9984050D01*
X9670950Y-7065950D02*
X9709050Y-7104050D01*
X9709050Y-7065950D02*
X9670950Y-7104050D01*
X9715950Y-6505950D02*
X9754050Y-6544050D01*
X9754050Y-6505950D02*
X9715950Y-6544050D01*
X9745950Y-11950950D02*
X9784050Y-11989050D01*
X9784050Y-11950950D02*
X9745950Y-11989050D01*
X9790950Y-10340950D02*
X9829050Y-10379050D01*
X9829050Y-10340950D02*
X9790950Y-10379050D01*
X9825950Y-12180950D02*
X9864050Y-12219050D01*
X9864050Y-12180950D02*
X9825950Y-12219050D01*
X9880950Y-9580950D02*
X9919050Y-9619050D01*
X9919050Y-9580950D02*
X9880950Y-9619050D01*
X9885950Y-10775950D02*
X9924050Y-10814050D01*
X9924050Y-10775950D02*
X9885950Y-10814050D01*
X9905950Y-7800950D02*
X9944050Y-7839050D01*
X9944050Y-7800950D02*
X9905950Y-7839050D01*
X9920950Y-5945950D02*
X9959050Y-5984050D01*
X9959050Y-5945950D02*
X9920950Y-5984050D01*
X9985950Y-4370950D02*
X10024050Y-4409050D01*
X10024050Y-4370950D02*
X9985950Y-4409050D01*
X9995950Y-8245950D02*
X10034050Y-8284050D01*
X10034050Y-8245950D02*
X9995950Y-8284050D01*
X10115950Y-7780950D02*
X10154050Y-7819050D01*
X10154050Y-7780950D02*
X10115950Y-7819050D01*
X10150950Y-7515950D02*
X10189050Y-7554050D01*
X10189050Y-7515950D02*
X10150950Y-7554050D01*
X10215950Y-6159829D02*
X10254050Y-6197929D01*
X10254050Y-6159829D02*
X10215950Y-6197929D01*
X10215950Y-12180950D02*
X10254050Y-12219050D01*
X10254050Y-12180950D02*
X10215950Y-12219050D01*
X10225950Y-9435950D02*
X10264050Y-9474050D01*
X10264050Y-9435950D02*
X10225950Y-9474050D01*
X10350950Y-7305950D02*
X10389050Y-7344050D01*
X10389050Y-7305950D02*
X10350950Y-7344050D01*
X10445950Y-8040950D02*
X10484050Y-8079050D01*
X10484050Y-8040950D02*
X10445950Y-8079050D01*
X10470950Y-9620950D02*
X10509050Y-9659050D01*
X10509050Y-9620950D02*
X10470950Y-9659050D01*
X10475950Y-8460950D02*
X10514050Y-8499050D01*
X10514050Y-8460950D02*
X10475950Y-8499050D01*
X10480950Y-8170950D02*
X10519050Y-8209050D01*
X10519050Y-8170950D02*
X10480950Y-8209050D01*
X10490950Y-5050950D02*
X10529050Y-5089050D01*
X10529050Y-5050950D02*
X10490950Y-5089050D01*
X10515950Y-6100950D02*
X10554050Y-6139050D01*
X10554050Y-6100950D02*
X10515950Y-6139050D01*
X10520950Y-9820950D02*
X10559050Y-9859050D01*
X10559050Y-9820950D02*
X10520950Y-9859050D01*
X10585950Y-8255950D02*
X10624050Y-8294050D01*
X10624050Y-8255950D02*
X10585950Y-8294050D01*
X10600950Y-7290950D02*
X10639050Y-7329050D01*
X10639050Y-7290950D02*
X10600950Y-7329050D01*
X10600950Y-8850950D02*
X10639050Y-8889050D01*
X10639050Y-8850950D02*
X10600950Y-8889050D01*
X10612950Y-9310950D02*
X10651050Y-9349050D01*
X10651050Y-9310950D02*
X10612950Y-9349050D01*
X10660950Y-7870950D02*
X10699050Y-7909050D01*
X10699050Y-7870950D02*
X10660950Y-7909050D01*
X10665950Y-6500950D02*
X10704050Y-6539050D01*
X10704050Y-6500950D02*
X10665950Y-6539050D01*
X10686680Y-8626680D02*
X10724780Y-8664780D01*
X10724780Y-8626680D02*
X10686680Y-8664780D01*
X10700950Y-8190950D02*
X10739050Y-8229050D01*
X10739050Y-8190950D02*
X10700950Y-8229050D01*
X10715950Y-9505950D02*
X10754050Y-9544050D01*
X10754050Y-9505950D02*
X10715950Y-9544050D01*
X10760950Y-9310950D02*
X10799050Y-9349050D01*
X10799050Y-9310950D02*
X10760950Y-9349050D01*
X10770950Y-6235950D02*
X10809050Y-6274050D01*
X10809050Y-6235950D02*
X10770950Y-6274050D01*
X10775950Y-8985950D02*
X10814050Y-9024050D01*
X10814050Y-8985950D02*
X10775950Y-9024050D01*
X10820950Y-8790950D02*
X10859050Y-8829050D01*
X10859050Y-8790950D02*
X10820950Y-8829050D01*
X10830950Y-8190950D02*
X10869050Y-8229050D01*
X10869050Y-8190950D02*
X10830950Y-8229050D01*
X10830950Y-10630950D02*
X10869050Y-10669050D01*
X10869050Y-10630950D02*
X10830950Y-10669050D01*
X10835820Y-7961080D02*
X10873920Y-7999180D01*
X10873920Y-7961080D02*
X10835820Y-7999180D01*
X10865950Y-7305950D02*
X10904050Y-7344050D01*
X10904050Y-7305950D02*
X10865950Y-7344050D01*
X10890950Y-8430950D02*
X10929050Y-8469050D01*
X10929050Y-8430950D02*
X10890950Y-8469050D01*
X10936240Y-8985660D02*
X10974340Y-9023760D01*
X10974340Y-8985660D02*
X10936240Y-9023760D01*
X10975950Y-4370950D02*
X11014050Y-4409050D01*
X11014050Y-4370950D02*
X10975950Y-4409050D01*
X10990950Y-9880950D02*
X11029050Y-9919050D01*
X11029050Y-9880950D02*
X10990950Y-9919050D01*
X11017950Y-9338950D02*
X11056050Y-9377050D01*
X11056050Y-9338950D02*
X11017950Y-9377050D01*
X11055950Y-8704950D02*
X11094050Y-8743050D01*
X11094050Y-8704950D02*
X11055950Y-8743050D01*
X11085950Y-7965950D02*
X11124050Y-8004050D01*
X11124050Y-7965950D02*
X11085950Y-8004050D01*
X11133950Y-8382950D02*
X11172050Y-8421050D01*
X11172050Y-8382950D02*
X11133950Y-8421050D01*
X11145950Y-7845950D02*
X11184050Y-7884050D01*
X11184050Y-7845950D02*
X11145950Y-7884050D01*
X11200950Y-10615950D02*
X11239050Y-10654050D01*
X11239050Y-10615950D02*
X11200950Y-10654050D01*
X11200950Y-11560950D02*
X11239050Y-11599050D01*
X11239050Y-11560950D02*
X11200950Y-11599050D01*
X11207950Y-9528950D02*
X11246050Y-9567050D01*
X11246050Y-9528950D02*
X11207950Y-9567050D01*
X11215950Y-5500950D02*
X11254050Y-5539050D01*
X11254050Y-5500950D02*
X11215950Y-5539050D01*
X11240950Y-9849950D02*
X11279050Y-9888050D01*
X11279050Y-9849950D02*
X11240950Y-9888050D01*
X11250950Y-8300950D02*
X11289050Y-8339050D01*
X11289050Y-8300950D02*
X11250950Y-8339050D01*
X11255950Y-10170950D02*
X11294050Y-10209050D01*
X11294050Y-10170950D02*
X11255950Y-10209050D01*
X11295950Y-6095950D02*
X11334050Y-6134050D01*
X11334050Y-6095950D02*
X11295950Y-6134050D01*
X11300950Y-8799829D02*
X11339050Y-8837929D01*
X11339050Y-8799829D02*
X11300950Y-8837929D01*
X11334160Y-7457739D02*
X11372260Y-7495839D01*
X11372260Y-7457739D02*
X11334160Y-7495839D01*
X11344829Y-6550950D02*
X11382929Y-6589050D01*
X11382929Y-6550950D02*
X11344829Y-6589050D01*
X11363950Y-9819950D02*
X11402050Y-9858050D01*
X11402050Y-9819950D02*
X11363950Y-9858050D01*
X11392950Y-8183950D02*
X11431050Y-8222050D01*
X11431050Y-8183950D02*
X11392950Y-8222050D01*
X11404950Y-7290950D02*
X11443050Y-7329050D01*
X11443050Y-7290950D02*
X11404950Y-7329050D01*
X11415950Y-8975950D02*
X11454050Y-9014050D01*
X11454050Y-8975950D02*
X11415950Y-9014050D01*
X11441950Y-9325950D02*
X11480050Y-9364050D01*
X11480050Y-9325950D02*
X11441950Y-9364050D01*
X11455950Y-9560950D02*
X11494050Y-9599050D01*
X11494050Y-9560950D02*
X11455950Y-9599050D01*
X11535950Y-10730950D02*
X11574050Y-10769050D01*
X11574050Y-10730950D02*
X11535950Y-10769050D01*
X11540950Y-10320950D02*
X11579050Y-10359050D01*
X11579050Y-10320950D02*
X11540950Y-10359050D01*
X11574950Y-7328950D02*
X11613050Y-7367050D01*
X11613050Y-7328950D02*
X11574950Y-7367050D01*
X11575950Y-9010950D02*
X11614050Y-9049050D01*
X11614050Y-9010950D02*
X11575950Y-9049050D01*
X11605950Y-9823950D02*
X11644050Y-9862050D01*
X11644050Y-9823950D02*
X11605950Y-9862050D01*
X11620950Y-9310950D02*
X11659050Y-9349050D01*
X11659050Y-9310950D02*
X11620950Y-9349050D01*
X11626950Y-6282950D02*
X11665050Y-6321050D01*
X11665050Y-6282950D02*
X11626950Y-6321050D01*
X11650950Y-8470950D02*
X11689050Y-8509050D01*
X11689050Y-8470950D02*
X11650950Y-8509050D01*
X11690950Y-7361950D02*
X11729050Y-7400050D01*
X11729050Y-7361950D02*
X11690950Y-7400050D01*
X11733950Y-7178950D02*
X11772050Y-7217050D01*
X11772050Y-7178950D02*
X11733950Y-7217050D01*
X11825950Y-10300950D02*
X11864050Y-10339050D01*
X11864050Y-10300950D02*
X11825950Y-10339050D01*
X11825950Y-10565950D02*
X11864050Y-10604050D01*
X11864050Y-10565950D02*
X11825950Y-10604050D01*
X11855950Y-6190950D02*
X11894050Y-6229050D01*
X11894050Y-6190950D02*
X11855950Y-6229050D01*
X11873950Y-9348950D02*
X11912050Y-9387050D01*
X11912050Y-9348950D02*
X11873950Y-9387050D01*
X11882950Y-9821950D02*
X11921050Y-9860050D01*
X11921050Y-9821950D02*
X11882950Y-9860050D01*
X11890450Y-7554450D02*
X11928550Y-7592550D01*
X11928550Y-7554450D02*
X11890450Y-7592550D01*
X11970950Y-4370950D02*
X12009050Y-4409050D01*
X12009050Y-4370950D02*
X11970950Y-4409050D01*
X12000950Y-5360950D02*
X12039050Y-5399050D01*
X12039050Y-5360950D02*
X12000950Y-5399050D01*
X12050950Y-8325950D02*
X12089050Y-8364050D01*
X12089050Y-8325950D02*
X12050950Y-8364050D01*
X12051670Y-8115950D02*
X12089770Y-8154050D01*
X12089770Y-8115950D02*
X12051670Y-8154050D01*
X12087950Y-7359950D02*
X12126050Y-7398050D01*
X12126050Y-7359950D02*
X12087950Y-7398050D01*
X12140950Y-10250950D02*
X12179050Y-10289050D01*
X12179050Y-10250950D02*
X12140950Y-10289050D01*
X12217950Y-7244950D02*
X12256050Y-7283050D01*
X12256050Y-7244950D02*
X12217950Y-7283050D01*
X12235950Y-9840950D02*
X12274050Y-9879050D01*
X12274050Y-9840950D02*
X12235950Y-9879050D01*
X12323950Y-8570950D02*
X12362050Y-8609050D01*
X12362050Y-8570950D02*
X12323950Y-8609050D01*
X12354950Y-8945950D02*
X12393050Y-8984050D01*
X12393050Y-8945950D02*
X12354950Y-8984050D01*
X12355950Y-5995950D02*
X12394050Y-6034050D01*
X12394050Y-5995950D02*
X12355950Y-6034050D01*
X12390950Y-7970950D02*
X12429050Y-8009050D01*
X12429050Y-7970950D02*
X12390950Y-8009050D01*
X12480950Y-5360950D02*
X12519050Y-5399050D01*
X12519050Y-5360950D02*
X12480950Y-5399050D01*
X12480950Y-7258950D02*
X12519050Y-7297050D01*
X12519050Y-7258950D02*
X12480950Y-7297050D01*
X12480950Y-10480950D02*
X12519050Y-10519050D01*
X12519050Y-10480950D02*
X12480950Y-10519050D01*
X12600950Y-9565950D02*
X12639050Y-9604050D01*
X12639050Y-9565950D02*
X12600950Y-9604050D01*
X12622950Y-8839950D02*
X12661050Y-8878050D01*
X12661050Y-8839950D02*
X12622950Y-8878050D01*
X12623950Y-8568950D02*
X12662050Y-8607050D01*
X12662050Y-8568950D02*
X12623950Y-8607050D01*
X12632950Y-9336950D02*
X12671050Y-9375050D01*
X12671050Y-9336950D02*
X12632950Y-9375050D01*
X12638950Y-5783950D02*
X12677050Y-5822050D01*
X12677050Y-5783950D02*
X12638950Y-5822050D01*
X12730950Y-6640950D02*
X12769050Y-6679050D01*
X12769050Y-6640950D02*
X12730950Y-6679050D01*
X12750950Y-7200950D02*
X12789050Y-7239050D01*
X12789050Y-7200950D02*
X12750950Y-7239050D01*
X12790950Y-5870950D02*
X12829050Y-5909050D01*
X12829050Y-5870950D02*
X12790950Y-5909050D01*
X12830950Y-4290950D02*
X12869050Y-4329050D01*
X12869050Y-4290950D02*
X12830950Y-4329050D01*
X12890950Y-9770950D02*
X12929050Y-9809050D01*
X12929050Y-9770950D02*
X12890950Y-9809050D01*
X12900950Y-10700950D02*
X12939050Y-10739050D01*
X12939050Y-10700950D02*
X12900950Y-10739050D01*
X12905950Y-5670950D02*
X12944050Y-5709050D01*
X12944050Y-5670950D02*
X12905950Y-5709050D01*
X12914950Y-5864950D02*
X12953050Y-5903050D01*
X12953050Y-5864950D02*
X12914950Y-5903050D01*
X12936950Y-8692950D02*
X12975050Y-8731050D01*
X12975050Y-8692950D02*
X12936950Y-8731050D01*
X12985950Y-4780950D02*
X13024050Y-4819050D01*
X13024050Y-4780950D02*
X12985950Y-4819050D01*
X12990950Y-8890950D02*
X13029050Y-8929050D01*
X13029050Y-8890950D02*
X12990950Y-8929050D01*
X12994950Y-7648950D02*
X13033050Y-7687050D01*
X13033050Y-7648950D02*
X12994950Y-7687050D01*
X13115950Y-8507950D02*
X13154050Y-8546050D01*
X13154050Y-8507950D02*
X13115950Y-8546050D01*
X13155950Y-7305950D02*
X13194050Y-7344050D01*
X13194050Y-7305950D02*
X13155950Y-7344050D01*
X13210950Y-6355950D02*
X13249050Y-6394050D01*
X13249050Y-6355950D02*
X13210950Y-6394050D01*
X13210950Y-9078950D02*
X13249050Y-9117050D01*
X13249050Y-9078950D02*
X13210950Y-9117050D01*
X13230950Y-6830950D02*
X13269050Y-6869050D01*
X13269050Y-6830950D02*
X13230950Y-6869050D01*
X13280950Y-9560950D02*
X13319050Y-9599050D01*
X13319050Y-9560950D02*
X13280950Y-9599050D01*
X13283950Y-9335950D02*
X13322050Y-9374050D01*
X13322050Y-9335950D02*
X13283950Y-9374050D01*
X13290950Y-10470950D02*
X13329050Y-10509050D01*
X13329050Y-10470950D02*
X13290950Y-10509050D01*
X13391950Y-8494950D02*
X13430050Y-8533050D01*
X13430050Y-8494950D02*
X13391950Y-8533050D01*
X13415950Y-9770950D02*
X13454050Y-9809050D01*
X13454050Y-9770950D02*
X13415950Y-9809050D01*
X13430950Y-4730950D02*
X13469050Y-4769050D01*
X13469050Y-4730950D02*
X13430950Y-4769050D01*
X13465950Y-8855950D02*
X13504050Y-8894050D01*
X13504050Y-8855950D02*
X13465950Y-8894050D01*
X13545950Y-7060950D02*
X13584050Y-7099050D01*
X13584050Y-7060950D02*
X13545950Y-7099050D01*
X13545950Y-10110950D02*
X13584050Y-10149050D01*
X13584050Y-10110950D02*
X13545950Y-10149050D01*
X13570950Y-7345950D02*
X13609050Y-7384050D01*
X13609050Y-7345950D02*
X13570950Y-7384050D01*
X13579950Y-5721950D02*
X13618050Y-5760050D01*
X13618050Y-5721950D02*
X13579950Y-5760050D01*
X13657950Y-9048950D02*
X13696050Y-9087050D01*
X13696050Y-9048950D02*
X13657950Y-9087050D01*
X13680950Y-5920950D02*
X13719050Y-5959050D01*
X13719050Y-5920950D02*
X13680950Y-5959050D01*
X13790950Y-6160950D02*
X13829050Y-6199050D01*
X13829050Y-6160950D02*
X13790950Y-6199050D01*
X13828950Y-8334950D02*
X13867050Y-8373050D01*
X13867050Y-8334950D02*
X13828950Y-8373050D01*
X13830950Y-9395950D02*
X13869050Y-9434050D01*
X13869050Y-9395950D02*
X13830950Y-9434050D01*
X13839950Y-8892950D02*
X13878050Y-8931050D01*
X13878050Y-8892950D02*
X13839950Y-8931050D01*
X13865950Y-6775950D02*
X13904050Y-6814050D01*
X13904050Y-6775950D02*
X13865950Y-6814050D01*
X13895950Y-10095950D02*
X13934050Y-10134050D01*
X13934050Y-10095950D02*
X13895950Y-10134050D01*
X13950950Y-8766950D02*
X13989050Y-8805050D01*
X13989050Y-8766950D02*
X13950950Y-8805050D01*
X14040950Y-9805950D02*
X14079050Y-9844050D01*
X14079050Y-9805950D02*
X14040950Y-9844050D01*
X14069950Y-8146950D02*
X14108050Y-8185050D01*
X14108050Y-8146950D02*
X14069950Y-8185050D01*
X14086950Y-8868950D02*
X14125050Y-8907050D01*
X14125050Y-8868950D02*
X14086950Y-8907050D01*
X14105950Y-9203950D02*
X14144050Y-9242050D01*
X14144050Y-9203950D02*
X14105950Y-9242050D01*
X14170950Y-4894700D02*
X14209050Y-4932800D01*
X14209050Y-4894700D02*
X14170950Y-4932800D01*
X14170950Y-5120950D02*
X14209050Y-5159050D01*
X14209050Y-5120950D02*
X14170950Y-5159050D01*
X14230950Y-7640950D02*
X14269050Y-7679050D01*
X14269050Y-7640950D02*
X14230950Y-7679050D01*
X14267950Y-5482950D02*
X14306050Y-5521050D01*
X14306050Y-5482950D02*
X14267950Y-5521050D01*
X14310950Y-9540950D02*
X14349050Y-9579050D01*
X14349050Y-9540950D02*
X14310950Y-9579050D01*
X14475950Y-5940950D02*
X14514050Y-5979050D01*
X14514050Y-5940950D02*
X14475950Y-5979050D01*
X14480950Y-4482070D02*
X14519050Y-4520170D01*
X14519050Y-4482070D02*
X14480950Y-4520170D01*
X14485950Y-7395950D02*
X14524050Y-7434050D01*
X14524050Y-7395950D02*
X14485950Y-7434050D01*
X14490950Y-8510950D02*
X14529050Y-8549050D01*
X14529050Y-8510950D02*
X14490950Y-8549050D01*
X14490950Y-9555950D02*
X14529050Y-9594050D01*
X14529050Y-9555950D02*
X14490950Y-9594050D01*
X14510950Y-4855950D02*
X14549050Y-4894050D01*
X14549050Y-4855950D02*
X14510950Y-4894050D01*
X14510950Y-9198950D02*
X14549050Y-9237050D01*
X14549050Y-9198950D02*
X14510950Y-9237050D01*
X14512950Y-5111950D02*
X14551050Y-5150050D01*
X14551050Y-5111950D02*
X14512950Y-5150050D01*
X14590950Y-8348950D02*
X14629050Y-8387050D01*
X14629050Y-8348950D02*
X14590950Y-8387050D01*
X14600950Y-8100950D02*
X14639050Y-8139050D01*
X14639050Y-8100950D02*
X14600950Y-8139050D01*
X14700950Y-9555950D02*
X14739050Y-9594050D01*
X14739050Y-9555950D02*
X14700950Y-9594050D01*
X14700950Y-11370950D02*
X14739050Y-11409050D01*
X14739050Y-11370950D02*
X14700950Y-11409050D01*
X14710826Y-7935047D02*
X14748926Y-7973147D01*
X14748926Y-7935047D02*
X14710826Y-7973147D01*
X14760950Y-7150950D02*
X14799050Y-7189050D01*
X14799050Y-7150950D02*
X14760950Y-7189050D01*
X14790950Y-9465950D02*
X14829050Y-9504050D01*
X14829050Y-9465950D02*
X14790950Y-9504050D01*
X14815950Y-8350950D02*
X14854050Y-8389050D01*
X14854050Y-8350950D02*
X14815950Y-8389050D01*
X14825950Y-7980950D02*
X14864050Y-8019050D01*
X14864050Y-7980950D02*
X14825950Y-8019050D01*
X14888950Y-8871950D02*
X14927050Y-8910050D01*
X14927050Y-8871950D02*
X14888950Y-8910050D01*
X14950950Y-6020950D02*
X14989050Y-6059050D01*
X14989050Y-6020950D02*
X14950950Y-6059050D01*
X14950950Y-6220950D02*
X14989050Y-6259050D01*
X14989050Y-6220950D02*
X14950950Y-6259050D01*
X14970950Y-5025950D02*
X15009050Y-5064050D01*
X15009050Y-5025950D02*
X14970950Y-5064050D01*
X15047649Y-9112070D02*
X15085749Y-9150170D01*
X15085749Y-9112070D02*
X15047649Y-9150170D01*
X15080950Y-10330950D02*
X15119050Y-10369050D01*
X15119050Y-10330950D02*
X15080950Y-10369050D01*
X15080950Y-11880950D02*
X15119050Y-11919050D01*
X15119050Y-11880950D02*
X15080950Y-11919050D01*
X15102950Y-8665950D02*
X15141050Y-8704050D01*
X15141050Y-8665950D02*
X15102950Y-8704050D01*
X15110950Y-6690950D02*
X15149050Y-6729050D01*
X15149050Y-6690950D02*
X15110950Y-6729050D01*
X15120950Y-4520950D02*
X15159050Y-4559050D01*
X15159050Y-4520950D02*
X15120950Y-4559050D01*
X15130950Y-7640950D02*
X15169050Y-7679050D01*
X15169050Y-7640950D02*
X15130950Y-7679050D01*
X15140950Y-7179700D02*
X15179050Y-7217800D01*
X15179050Y-7179700D02*
X15140950Y-7217800D01*
X15141450Y-7350450D02*
X15179550Y-7388550D01*
X15179550Y-7350450D02*
X15141450Y-7388550D01*
X15180950Y-9915950D02*
X15219050Y-9954050D01*
X15219050Y-9915950D02*
X15180950Y-9954050D01*
X15181950Y-9615950D02*
X15220050Y-9654050D01*
X15220050Y-9615950D02*
X15181950Y-9654050D01*
X15182950Y-8841950D02*
X15221050Y-8880050D01*
X15221050Y-8841950D02*
X15182950Y-8880050D01*
X15185950Y-5480950D02*
X15224050Y-5519050D01*
X15224050Y-5480950D02*
X15185950Y-5519050D01*
X15190950Y-6485950D02*
X15229050Y-6524050D01*
X15229050Y-6485950D02*
X15190950Y-6524050D01*
X15205950Y-5020950D02*
X15244050Y-5059050D01*
X15244050Y-5020950D02*
X15205950Y-5059050D01*
X15210950Y-6290950D02*
X15249050Y-6329050D01*
X15249050Y-6290950D02*
X15210950Y-6329050D01*
X15242950Y-8971950D02*
X15281050Y-9010050D01*
X15281050Y-8971950D02*
X15242950Y-9010050D01*
X15252070Y-9485950D02*
X15290170Y-9524050D01*
X15290170Y-9485950D02*
X15252070Y-9524050D01*
X15378950Y-7959950D02*
X15417050Y-7998050D01*
X15417050Y-7959950D02*
X15378950Y-7998050D01*
X15455950Y-6895950D02*
X15494050Y-6934050D01*
X15494050Y-6895950D02*
X15455950Y-6934050D01*
X15520950Y-7430950D02*
X15559050Y-7469050D01*
X15559050Y-7430950D02*
X15520950Y-7469050D01*
X15580950Y-11325950D02*
X15619050Y-11364050D01*
X15619050Y-11325950D02*
X15580950Y-11364050D01*
X15595950Y-5410950D02*
X15634050Y-5449050D01*
X15634050Y-5410950D02*
X15595950Y-5449050D01*
X15600950Y-10085950D02*
X15639050Y-10124050D01*
X15639050Y-10085950D02*
X15600950Y-10124050D01*
X15615950Y-5090950D02*
X15654050Y-5129050D01*
X15654050Y-5090950D02*
X15615950Y-5129050D01*
X15618950Y-8479950D02*
X15657050Y-8518050D01*
X15657050Y-8479950D02*
X15618950Y-8518050D01*
X15690950Y-6520950D02*
X15729050Y-6559050D01*
X15729050Y-6520950D02*
X15690950Y-6559050D01*
X15740950Y-4845950D02*
X15779050Y-4884050D01*
X15779050Y-4845950D02*
X15740950Y-4884050D01*
X15765950Y-4490950D02*
X15804050Y-4529050D01*
X15804050Y-4490950D02*
X15765950Y-4529050D01*
X15808950Y-9170950D02*
X15847050Y-9209050D01*
X15847050Y-9170950D02*
X15808950Y-9209050D01*
X15820950Y-11355950D02*
X15859050Y-11394050D01*
X15859050Y-11355950D02*
X15820950Y-11394050D01*
X15830950Y-7630950D02*
X15869050Y-7669050D01*
X15869050Y-7630950D02*
X15830950Y-7669050D01*
X15850950Y-4740950D02*
X15889050Y-4779050D01*
X15889050Y-4740950D02*
X15850950Y-4779050D01*
X15875950Y-8315950D02*
X15914050Y-8354050D01*
X15914050Y-8315950D02*
X15875950Y-8354050D01*
X15900950Y-5255950D02*
X15939050Y-5294050D01*
X15939050Y-5255950D02*
X15900950Y-5294050D01*
X15940950Y-4830950D02*
X15979050Y-4869050D01*
X15979050Y-4830950D02*
X15940950Y-4869050D01*
X15952239Y-4612859D02*
X15990339Y-4650959D01*
X15990339Y-4612859D02*
X15952239Y-4650959D01*
X15970950Y-6695950D02*
X16009050Y-6734050D01*
X16009050Y-6695950D02*
X15970950Y-6734050D01*
X15975950Y-7945950D02*
X16014050Y-7984050D01*
X16014050Y-7945950D02*
X15975950Y-7984050D01*
X16011950Y-8671950D02*
X16050050Y-8710050D01*
X16050050Y-8671950D02*
X16011950Y-8710050D01*
X16070950Y-11282950D02*
X16109050Y-11321050D01*
X16109050Y-11282950D02*
X16070950Y-11321050D01*
X16120950Y-5055950D02*
X16159050Y-5094050D01*
X16159050Y-5055950D02*
X16120950Y-5094050D01*
X16220950Y-8865950D02*
X16259050Y-8904050D01*
X16259050Y-8865950D02*
X16220950Y-8904050D01*
X16285950Y-4550950D02*
X16324050Y-4589050D01*
X16324050Y-4550950D02*
X16285950Y-4589050D01*
X16290950Y-4880950D02*
X16329050Y-4919050D01*
X16329050Y-4880950D02*
X16290950Y-4919050D01*
X16310950Y-7835950D02*
X16349050Y-7874050D01*
X16349050Y-7835950D02*
X16310950Y-7874050D01*
X16350950Y-5300950D02*
X16389050Y-5339050D01*
X16389050Y-5300950D02*
X16350950Y-5339050D01*
X16360950Y-8420950D02*
X16399050Y-8459050D01*
X16399050Y-8420950D02*
X16360950Y-8459050D01*
X16444950Y-11282950D02*
X16483050Y-11321050D01*
X16483050Y-11282950D02*
X16444950Y-11321050D01*
X16480950Y-8160950D02*
X16519050Y-8199050D01*
X16519050Y-8160950D02*
X16480950Y-8199050D01*
X16520950Y-6260950D02*
X16559050Y-6299050D01*
X16559050Y-6260950D02*
X16520950Y-6299050D01*
X16610950Y-4390950D02*
X16649050Y-4429050D01*
X16649050Y-4390950D02*
X16610950Y-4429050D01*
X16610950Y-4760950D02*
X16649050Y-4799050D01*
X16649050Y-4760950D02*
X16610950Y-4799050D01*
X16625950Y-8172530D02*
X16664050Y-8210630D01*
X16664050Y-8172530D02*
X16625950Y-8210630D01*
X16626662Y-8425030D02*
X16664762Y-8463130D01*
X16664762Y-8425030D02*
X16626662Y-8463130D01*
X16685950Y-6870950D02*
X16724050Y-6909050D01*
X16724050Y-6870950D02*
X16685950Y-6909050D01*
X16685950Y-7355950D02*
X16724050Y-7394050D01*
X16724050Y-7355950D02*
X16685950Y-7394050D01*
X16720950Y-7680950D02*
X16759050Y-7719050D01*
X16759050Y-7680950D02*
X16720950Y-7719050D01*
X16720950Y-7900950D02*
X16759050Y-7939050D01*
X16759050Y-7900950D02*
X16720950Y-7939050D01*
X9160400Y-8589000D02*
G75*
G02*
X9109600Y-8589000I-25400J0D01*
G01*
X9109600Y-8589000D02*
G75*
G02*
X9160400Y-8589000I25400J0D01*
G01*
X9325400Y-8440000D02*
G75*
G02*
X9274600Y-8440000I-25400J0D01*
G01*
X9274600Y-8440000D02*
G75*
G02*
X9325400Y-8440000I25400J0D01*
G01*
X9348700Y-5891700D02*
G75*
G02*
X9297900Y-5891700I-25400J0D01*
G01*
X9297900Y-5891700D02*
G75*
G02*
X9348700Y-5891700I25400J0D01*
G01*
X9348700Y-6175000D02*
G75*
G02*
X9297900Y-6175000I-25400J0D01*
G01*
X9297900Y-6175000D02*
G75*
G02*
X9348700Y-6175000I25400J0D01*
G01*
X9765400Y-9170000D02*
G75*
G02*
X9714600Y-9170000I-25400J0D01*
G01*
X9714600Y-9170000D02*
G75*
G02*
X9765400Y-9170000I25400J0D01*
G01*
X9877400Y-11218000D02*
G75*
G02*
X9826600Y-11218000I-25400J0D01*
G01*
X9826600Y-11218000D02*
G75*
G02*
X9877400Y-11218000I25400J0D01*
G01*
X9995400Y-6290000D02*
G75*
G02*
X9944600Y-6290000I-25400J0D01*
G01*
X9944600Y-6290000D02*
G75*
G02*
X9995400Y-6290000I25400J0D01*
G01*
X10085400Y-11310000D02*
G75*
G02*
X10034600Y-11310000I-25400J0D01*
G01*
X10034600Y-11310000D02*
G75*
G02*
X10085400Y-11310000I25400J0D01*
G01*
X10369400Y-11577000D02*
G75*
G02*
X10318600Y-11577000I-25400J0D01*
G01*
X10318600Y-11577000D02*
G75*
G02*
X10369400Y-11577000I25400J0D01*
G01*
X10475400Y-10470000D02*
G75*
G02*
X10424600Y-10470000I-25400J0D01*
G01*
X10424600Y-10470000D02*
G75*
G02*
X10475400Y-10470000I25400J0D01*
G01*
X10555400Y-5940000D02*
G75*
G02*
X10504600Y-5940000I-25400J0D01*
G01*
X10504600Y-5940000D02*
G75*
G02*
X10555400Y-5940000I25400J0D01*
G01*
X10680400Y-6675000D02*
G75*
G02*
X10629600Y-6675000I-25400J0D01*
G01*
X10629600Y-6675000D02*
G75*
G02*
X10680400Y-6675000I25400J0D01*
G01*
X10710400Y-10600000D02*
G75*
G02*
X10659600Y-10600000I-25400J0D01*
G01*
X10659600Y-10600000D02*
G75*
G02*
X10710400Y-10600000I25400J0D01*
G01*
X10875400Y-5670000D02*
G75*
G02*
X10824600Y-5670000I-25400J0D01*
G01*
X10824600Y-5670000D02*
G75*
G02*
X10875400Y-5670000I25400J0D01*
G01*
X10985400Y-6010000D02*
G75*
G02*
X10934600Y-6010000I-25400J0D01*
G01*
X10934600Y-6010000D02*
G75*
G02*
X10985400Y-6010000I25400J0D01*
G01*
X11055400Y-7390000D02*
G75*
G02*
X11004600Y-7390000I-25400J0D01*
G01*
X11004600Y-7390000D02*
G75*
G02*
X11055400Y-7390000I25400J0D01*
G01*
X11715400Y-6560000D02*
G75*
G02*
X11664600Y-6560000I-25400J0D01*
G01*
X11664600Y-6560000D02*
G75*
G02*
X11715400Y-6560000I25400J0D01*
G01*
X12125400Y-8900000D02*
G75*
G02*
X12074600Y-8900000I-25400J0D01*
G01*
X12074600Y-8900000D02*
G75*
G02*
X12125400Y-8900000I25400J0D01*
G01*
X12365400Y-6240000D02*
G75*
G02*
X12314600Y-6240000I-25400J0D01*
G01*
X12314600Y-6240000D02*
G75*
G02*
X12365400Y-6240000I25400J0D01*
G01*
X12365400Y-6560000D02*
G75*
G02*
X12314600Y-6560000I-25400J0D01*
G01*
X12314600Y-6560000D02*
G75*
G02*
X12365400Y-6560000I25400J0D01*
G01*
X12655400Y-7773820D02*
G75*
G02*
X12604600Y-7773820I-25400J0D01*
G01*
X12604600Y-7773820D02*
G75*
G02*
X12655400Y-7773820I25400J0D01*
G01*
X12755400Y-8135000D02*
G75*
G02*
X12704600Y-8135000I-25400J0D01*
G01*
X12704600Y-8135000D02*
G75*
G02*
X12755400Y-8135000I25400J0D01*
G01*
X12797400Y-8380000D02*
G75*
G02*
X12746600Y-8380000I-25400J0D01*
G01*
X12746600Y-8380000D02*
G75*
G02*
X12797400Y-8380000I25400J0D01*
G01*
X12810400Y-6460000D02*
G75*
G02*
X12759600Y-6460000I-25400J0D01*
G01*
X12759600Y-6460000D02*
G75*
G02*
X12810400Y-6460000I25400J0D01*
G01*
X12935400Y-10430000D02*
G75*
G02*
X12884600Y-10430000I-25400J0D01*
G01*
X12884600Y-10430000D02*
G75*
G02*
X12935400Y-10430000I25400J0D01*
G01*
X13029400Y-8151000D02*
G75*
G02*
X12978600Y-8151000I-25400J0D01*
G01*
X12978600Y-8151000D02*
G75*
G02*
X13029400Y-8151000I25400J0D01*
G01*
X13325400Y-5600000D02*
G75*
G02*
X13274600Y-5600000I-25400J0D01*
G01*
X13274600Y-5600000D02*
G75*
G02*
X13325400Y-5600000I25400J0D01*
G01*
X13325400Y-8885000D02*
G75*
G02*
X13274600Y-8885000I-25400J0D01*
G01*
X13274600Y-8885000D02*
G75*
G02*
X13325400Y-8885000I25400J0D01*
G01*
X13359400Y-7991000D02*
G75*
G02*
X13308600Y-7991000I-25400J0D01*
G01*
X13308600Y-7991000D02*
G75*
G02*
X13359400Y-7991000I25400J0D01*
G01*
X13475400Y-4900000D02*
G75*
G02*
X13424600Y-4900000I-25400J0D01*
G01*
X13424600Y-4900000D02*
G75*
G02*
X13475400Y-4900000I25400J0D01*
G01*
X13508400Y-8126000D02*
G75*
G02*
X13457600Y-8126000I-25400J0D01*
G01*
X13457600Y-8126000D02*
G75*
G02*
X13508400Y-8126000I25400J0D01*
G01*
X13816400Y-8621000D02*
G75*
G02*
X13765600Y-8621000I-25400J0D01*
G01*
X13765600Y-8621000D02*
G75*
G02*
X13816400Y-8621000I25400J0D01*
G01*
X13873400Y-7908000D02*
G75*
G02*
X13822600Y-7908000I-25400J0D01*
G01*
X13822600Y-7908000D02*
G75*
G02*
X13873400Y-7908000I25400J0D01*
G01*
X13950400Y-9946250D02*
G75*
G02*
X13899600Y-9946250I-25400J0D01*
G01*
X13899600Y-9946250D02*
G75*
G02*
X13950400Y-9946250I25400J0D01*
G01*
X14037400Y-8470000D02*
G75*
G02*
X13986600Y-8470000I-25400J0D01*
G01*
X13986600Y-8470000D02*
G75*
G02*
X14037400Y-8470000I25400J0D01*
G01*
X14044400Y-7762000D02*
G75*
G02*
X13993600Y-7762000I-25400J0D01*
G01*
X13993600Y-7762000D02*
G75*
G02*
X14044400Y-7762000I25400J0D01*
G01*
X14064400Y-7510000D02*
G75*
G02*
X14013600Y-7510000I-25400J0D01*
G01*
X14013600Y-7510000D02*
G75*
G02*
X14064400Y-7510000I25400J0D01*
G01*
X14420400Y-10110000D02*
G75*
G02*
X14369600Y-10110000I-25400J0D01*
G01*
X14369600Y-10110000D02*
G75*
G02*
X14420400Y-10110000I25400J0D01*
G01*
X14501400Y-10417000D02*
G75*
G02*
X14450600Y-10417000I-25400J0D01*
G01*
X14450600Y-10417000D02*
G75*
G02*
X14501400Y-10417000I25400J0D01*
G01*
X14575400Y-5400000D02*
G75*
G02*
X14524600Y-5400000I-25400J0D01*
G01*
X14524600Y-5400000D02*
G75*
G02*
X14575400Y-5400000I25400J0D01*
G01*
X14615400Y-6865000D02*
G75*
G02*
X14564600Y-6865000I-25400J0D01*
G01*
X14564600Y-6865000D02*
G75*
G02*
X14615400Y-6865000I25400J0D01*
G01*
X14735400Y-9880000D02*
G75*
G02*
X14684600Y-9880000I-25400J0D01*
G01*
X14684600Y-9880000D02*
G75*
G02*
X14735400Y-9880000I25400J0D01*
G01*
X14760400Y-6530000D02*
G75*
G02*
X14709600Y-6530000I-25400J0D01*
G01*
X14709600Y-6530000D02*
G75*
G02*
X14760400Y-6530000I25400J0D01*
G01*
X15010400Y-9970000D02*
G75*
G02*
X14959600Y-9970000I-25400J0D01*
G01*
X14959600Y-9970000D02*
G75*
G02*
X15010400Y-9970000I25400J0D01*
G01*
X15020400Y-6430000D02*
G75*
G02*
X14969600Y-6430000I-25400J0D01*
G01*
X14969600Y-6430000D02*
G75*
G02*
X15020400Y-6430000I25400J0D01*
G01*
X15114400Y-10635000D02*
G75*
G02*
X15063600Y-10635000I-25400J0D01*
G01*
X15063600Y-10635000D02*
G75*
G02*
X15114400Y-10635000I25400J0D01*
G01*
X15165400Y-5895000D02*
G75*
G02*
X15114600Y-5895000I-25400J0D01*
G01*
X15114600Y-5895000D02*
G75*
G02*
X15165400Y-5895000I25400J0D01*
G01*
X15460400Y-8140000D02*
G75*
G02*
X15409600Y-8140000I-25400J0D01*
G01*
X15409600Y-8140000D02*
G75*
G02*
X15460400Y-8140000I25400J0D01*
G01*
X15465400Y-9795000D02*
G75*
G02*
X15414600Y-9795000I-25400J0D01*
G01*
X15414600Y-9795000D02*
G75*
G02*
X15465400Y-9795000I25400J0D01*
G01*
X15631530Y-7301180D02*
G75*
G02*
X15580730Y-7301180I-25400J0D01*
G01*
X15580730Y-7301180D02*
G75*
G02*
X15631530Y-7301180I25400J0D01*
G01*
X15740400Y-7560000D02*
G75*
G02*
X15689600Y-7560000I-25400J0D01*
G01*
X15689600Y-7560000D02*
G75*
G02*
X15740400Y-7560000I25400J0D01*
G01*
X15975400Y-9590000D02*
G75*
G02*
X15924600Y-9590000I-25400J0D01*
G01*
X15924600Y-9590000D02*
G75*
G02*
X15975400Y-9590000I25400J0D01*
G01*
X16002400Y-7015000D02*
G75*
G02*
X15951600Y-7015000I-25400J0D01*
G01*
X15951600Y-7015000D02*
G75*
G02*
X16002400Y-7015000I25400J0D01*
G01*
X16002400Y-7233820D02*
G75*
G02*
X15951600Y-7233820I-25400J0D01*
G01*
X15951600Y-7233820D02*
G75*
G02*
X16002400Y-7233820I25400J0D01*
G01*
X16025400Y-7410000D02*
G75*
G02*
X15974600Y-7410000I-25400J0D01*
G01*
X15974600Y-7410000D02*
G75*
G02*
X16025400Y-7410000I25400J0D01*
G01*
X16105400Y-9400000D02*
G75*
G02*
X16054600Y-9400000I-25400J0D01*
G01*
X16054600Y-9400000D02*
G75*
G02*
X16105400Y-9400000I25400J0D01*
G01*
X16125400Y-6020000D02*
G75*
G02*
X16074600Y-6020000I-25400J0D01*
G01*
X16074600Y-6020000D02*
G75*
G02*
X16125400Y-6020000I25400J0D01*
G01*
X16255400Y-9020000D02*
G75*
G02*
X16204600Y-9020000I-25400J0D01*
G01*
X16204600Y-9020000D02*
G75*
G02*
X16255400Y-9020000I25400J0D01*
G01*
X16445400Y-8657500D02*
G75*
G02*
X16394600Y-8657500I-25400J0D01*
G01*
X16394600Y-8657500D02*
G75*
G02*
X16445400Y-8657500I25400J0D01*
G01*
X16720400Y-9680000D02*
G75*
G02*
X16669600Y-9680000I-25400J0D01*
G01*
X16669600Y-9680000D02*
G75*
G02*
X16720400Y-9680000I25400J0D01*
G01*
X16188000Y-6658000D02*
X16188000Y-6718000D01*
X16158000Y-6688000D02*
X16218000Y-6688000D01*
X16158000Y-6718000D02*
X16218000Y-6718000D01*
X16218000Y-6658000D02*
G75*
G02*
X16218000Y-6718000I0J-30000D01*
G01*
X16218000Y-6658000D02*
X16158000Y-6658000D01*
X16158000Y-6658000D02*
G75*
G03*
X16158000Y-6718000I0J-30000D01*
G01*
X16188000Y-7522000D02*
X16188000Y-7582000D01*
X16158000Y-7552000D02*
X16218000Y-7552000D01*
X16158000Y-7582000D02*
X16218000Y-7582000D01*
X16218000Y-7522000D02*
G75*
G02*
X16218000Y-7582000I0J-30000D01*
G01*
X16218000Y-7522000D02*
X16158000Y-7522000D01*
X16158000Y-7522000D02*
G75*
G03*
X16158000Y-7582000I0J-30000D01*
G01*
X16568000Y-6658000D02*
X16568000Y-6718000D01*
X16538000Y-6688000D02*
X16598000Y-6688000D01*
X16538000Y-6718000D02*
X16598000Y-6718000D01*
X16598000Y-6658000D02*
G75*
G02*
X16598000Y-6718000I0J-30000D01*
G01*
X16598000Y-6658000D02*
X16538000Y-6658000D01*
X16538000Y-6658000D02*
G75*
G03*
X16538000Y-6718000I0J-30000D01*
G01*
X16568000Y-7522000D02*
X16568000Y-7582000D01*
X16538000Y-7552000D02*
X16598000Y-7552000D01*
X16538000Y-7582000D02*
X16598000Y-7582000D01*
X16598000Y-7522000D02*
G75*
G02*
X16598000Y-7582000I0J-30000D01*
G01*
X16598000Y-7522000D02*
X16538000Y-7522000D01*
X16538000Y-7522000D02*
G75*
G03*
X16538000Y-7582000I0J-30000D01*
G01*
X13746517Y-6411517D02*
X13746517Y-6358483D01*
X13693483Y-6358483D01*
X13693483Y-6411517D01*
X13746517Y-6411517D01*
X14036517Y-6411517D02*
X14036517Y-6358483D01*
X13983483Y-6358483D01*
X13983483Y-6411517D01*
X14036517Y-6411517D01*
X15556517Y-8836517D02*
X15556517Y-8783483D01*
X15503483Y-8783483D01*
X15503483Y-8836517D01*
X15556517Y-8836517D01*
X15556517Y-9036517D02*
X15556517Y-8983483D01*
X15503483Y-8983483D01*
X15503483Y-9036517D01*
X15556517Y-9036517D01*
X9575000Y-5645000D02*
X9625000Y-5595000D01*
X9575000Y-5545000D01*
X9525000Y-5595000D01*
X9575000Y-5645000D01*
X9575000Y-6915000D02*
X9625000Y-6865000D01*
X9575000Y-6815000D01*
X9525000Y-6865000D01*
X9575000Y-6915000D01*
X9829000Y-5645000D02*
X9879000Y-5595000D01*
X9829000Y-5545000D01*
X9779000Y-5595000D01*
X9829000Y-5645000D01*
X9829000Y-6915000D02*
X9879000Y-6865000D01*
X9829000Y-6815000D01*
X9779000Y-6865000D01*
X9829000Y-6915000D01*
X10083000Y-5645000D02*
X10133000Y-5595000D01*
X10083000Y-5545000D01*
X10033000Y-5595000D01*
X10083000Y-5645000D01*
X10083000Y-6915000D02*
X10133000Y-6865000D01*
X10083000Y-6815000D01*
X10033000Y-6865000D01*
X10083000Y-6915000D01*
X10337000Y-5645000D02*
X10387000Y-5595000D01*
X10337000Y-5545000D01*
X10287000Y-5595000D01*
X10337000Y-5645000D01*
X10337000Y-6915000D02*
X10387000Y-6865000D01*
X10337000Y-6815000D01*
X10287000Y-6865000D01*
X10337000Y-6915000D01*
X10430000Y-11046000D02*
X10480000Y-10996000D01*
X10430000Y-10946000D01*
X10380000Y-10996000D01*
X10430000Y-11046000D01*
X10430000Y-11300000D02*
X10480000Y-11250000D01*
X10430000Y-11200000D01*
X10380000Y-11250000D01*
X10430000Y-11300000D01*
X10591000Y-5645000D02*
X10641000Y-5595000D01*
X10591000Y-5545000D01*
X10541000Y-5595000D01*
X10591000Y-5645000D01*
X10591000Y-6915000D02*
X10641000Y-6865000D01*
X10591000Y-6815000D01*
X10541000Y-6865000D01*
X10591000Y-6915000D01*
X10684000Y-11046000D02*
X10734000Y-10996000D01*
X10684000Y-10946000D01*
X10634000Y-10996000D01*
X10684000Y-11046000D01*
X10684000Y-11300000D02*
X10734000Y-11250000D01*
X10684000Y-11200000D01*
X10634000Y-11250000D01*
X10684000Y-11300000D01*
X10938000Y-11046000D02*
X10988000Y-10996000D01*
X10938000Y-10946000D01*
X10888000Y-10996000D01*
X10938000Y-11046000D01*
X10938000Y-11300000D02*
X10988000Y-11250000D01*
X10938000Y-11200000D01*
X10888000Y-11250000D01*
X10938000Y-11300000D01*
X11192000Y-11046000D02*
X11242000Y-10996000D01*
X11192000Y-10946000D01*
X11142000Y-10996000D01*
X11192000Y-11046000D01*
X11192000Y-11300000D02*
X11242000Y-11250000D01*
X11192000Y-11200000D01*
X11142000Y-11250000D01*
X11192000Y-11300000D01*
X11446000Y-11046000D02*
X11496000Y-10996000D01*
X11446000Y-10946000D01*
X11396000Y-10996000D01*
X11446000Y-11046000D01*
X11446000Y-11300000D02*
X11496000Y-11250000D01*
X11446000Y-11200000D01*
X11396000Y-11250000D01*
X11446000Y-11300000D01*
X11607000Y-5645000D02*
X11657000Y-5595000D01*
X11607000Y-5545000D01*
X11557000Y-5595000D01*
X11607000Y-5645000D01*
X11607000Y-6915000D02*
X11657000Y-6865000D01*
X11607000Y-6815000D01*
X11557000Y-6865000D01*
X11607000Y-6915000D01*
X11861000Y-5645000D02*
X11911000Y-5595000D01*
X11861000Y-5545000D01*
X11811000Y-5595000D01*
X11861000Y-5645000D01*
X11861000Y-6915000D02*
X11911000Y-6865000D01*
X11861000Y-6815000D01*
X11811000Y-6865000D01*
X11861000Y-6915000D01*
X12115000Y-5645000D02*
X12165000Y-5595000D01*
X12115000Y-5545000D01*
X12065000Y-5595000D01*
X12115000Y-5645000D01*
X12115000Y-6915000D02*
X12165000Y-6865000D01*
X12115000Y-6815000D01*
X12065000Y-6865000D01*
X12115000Y-6915000D01*
X12369000Y-5645000D02*
X12419000Y-5595000D01*
X12369000Y-5545000D01*
X12319000Y-5595000D01*
X12369000Y-5645000D01*
X12369000Y-6915000D02*
X12419000Y-6865000D01*
X12369000Y-6815000D01*
X12319000Y-6865000D01*
X12369000Y-6915000D01*
X12623000Y-5645000D02*
X12673000Y-5595000D01*
X12623000Y-5545000D01*
X12573000Y-5595000D01*
X12623000Y-5645000D01*
X12623000Y-6915000D02*
X12673000Y-6865000D01*
X12623000Y-6815000D01*
X12573000Y-6865000D01*
X12623000Y-6915000D01*
X14960000Y-5555000D02*
X15010000Y-5505000D01*
X14960000Y-5455000D01*
X14910000Y-5505000D01*
X14960000Y-5555000D01*
X15960000Y-5555000D02*
X16010000Y-5505000D01*
X15960000Y-5455000D01*
X15910000Y-5505000D01*
X15960000Y-5555000D01*
X16220000Y-9995000D02*
X16270000Y-9945000D01*
X16220000Y-9895000D01*
X16170000Y-9945000D01*
X16220000Y-9995000D01*
X16220000Y-10249000D02*
X16270000Y-10199000D01*
X16220000Y-10149000D01*
X16170000Y-10199000D01*
X16220000Y-10249000D01*
X16220000Y-10503000D02*
X16270000Y-10453000D01*
X16220000Y-10403000D01*
X16170000Y-10453000D01*
X16220000Y-10503000D01*
X16474000Y-9995000D02*
X16524000Y-9945000D01*
X16474000Y-9895000D01*
X16424000Y-9945000D01*
X16474000Y-9995000D01*
X16474000Y-10249000D02*
X16524000Y-10199000D01*
X16474000Y-10149000D01*
X16424000Y-10199000D01*
X16474000Y-10249000D01*
X16474000Y-10503000D02*
X16524000Y-10453000D01*
X16474000Y-10403000D01*
X16424000Y-10453000D01*
X16474000Y-10503000D01*
D13*
X9130000Y-4540000D02*
X9240000Y-4650000D01*
X9240000Y-4540000D02*
X9130000Y-4650000D01*
X9240000Y-4595000D02*
G75*
G02*
X9130000Y-4595000I-55000J0D01*
G01*
X9130000Y-4595000D02*
G75*
G02*
X9240000Y-4595000I55000J0D01*
G01*
X9130000Y-4990000D02*
X9240000Y-5100000D01*
X9240000Y-4990000D02*
X9130000Y-5100000D01*
X9240000Y-5045000D02*
G75*
G02*
X9130000Y-5045000I-55000J0D01*
G01*
X9130000Y-5045000D02*
G75*
G02*
X9240000Y-5045000I55000J0D01*
G01*
X9780000Y-4540000D02*
X9890000Y-4650000D01*
X9890000Y-4540000D02*
X9780000Y-4650000D01*
X9890000Y-4595000D02*
G75*
G02*
X9780000Y-4595000I-55000J0D01*
G01*
X9780000Y-4595000D02*
G75*
G02*
X9890000Y-4595000I55000J0D01*
G01*
X9780000Y-4990000D02*
X9890000Y-5100000D01*
X9890000Y-4990000D02*
X9780000Y-5100000D01*
X9890000Y-5045000D02*
G75*
G02*
X9780000Y-5045000I-55000J0D01*
G01*
X9780000Y-5045000D02*
G75*
G02*
X9890000Y-5045000I55000J0D01*
G01*
X10055000Y-9775000D02*
X10165000Y-9885000D01*
X10165000Y-9775000D02*
X10055000Y-9885000D01*
X10165000Y-9830000D02*
G75*
G02*
X10055000Y-9830000I-55000J0D01*
G01*
X10055000Y-9830000D02*
G75*
G02*
X10165000Y-9830000I55000J0D01*
G01*
X10055000Y-10225000D02*
X10165000Y-10335000D01*
X10165000Y-10225000D02*
X10055000Y-10335000D01*
X10165000Y-10280000D02*
G75*
G02*
X10055000Y-10280000I-55000J0D01*
G01*
X10055000Y-10280000D02*
G75*
G02*
X10165000Y-10280000I55000J0D01*
G01*
X10120000Y-4540000D02*
X10230000Y-4650000D01*
X10230000Y-4540000D02*
X10120000Y-4650000D01*
X10230000Y-4595000D02*
G75*
G02*
X10120000Y-4595000I-55000J0D01*
G01*
X10120000Y-4595000D02*
G75*
G02*
X10230000Y-4595000I55000J0D01*
G01*
X10120000Y-4990000D02*
X10230000Y-5100000D01*
X10230000Y-4990000D02*
X10120000Y-5100000D01*
X10230000Y-5045000D02*
G75*
G02*
X10120000Y-5045000I-55000J0D01*
G01*
X10120000Y-5045000D02*
G75*
G02*
X10230000Y-5045000I55000J0D01*
G01*
X10705000Y-9775000D02*
X10815000Y-9885000D01*
X10815000Y-9775000D02*
X10705000Y-9885000D01*
X10815000Y-9830000D02*
G75*
G02*
X10705000Y-9830000I-55000J0D01*
G01*
X10705000Y-9830000D02*
G75*
G02*
X10815000Y-9830000I55000J0D01*
G01*
X10705000Y-10225000D02*
X10815000Y-10335000D01*
X10815000Y-10225000D02*
X10705000Y-10335000D01*
X10815000Y-10280000D02*
G75*
G02*
X10705000Y-10280000I-55000J0D01*
G01*
X10705000Y-10280000D02*
G75*
G02*
X10815000Y-10280000I55000J0D01*
G01*
X10770000Y-4540000D02*
X10880000Y-4650000D01*
X10880000Y-4540000D02*
X10770000Y-4650000D01*
X10880000Y-4595000D02*
G75*
G02*
X10770000Y-4595000I-55000J0D01*
G01*
X10770000Y-4595000D02*
G75*
G02*
X10880000Y-4595000I55000J0D01*
G01*
X10770000Y-4990000D02*
X10880000Y-5100000D01*
X10880000Y-4990000D02*
X10770000Y-5100000D01*
X10880000Y-5045000D02*
G75*
G02*
X10770000Y-5045000I-55000J0D01*
G01*
X10770000Y-5045000D02*
G75*
G02*
X10880000Y-5045000I55000J0D01*
G01*
X11110000Y-4540000D02*
X11220000Y-4650000D01*
X11220000Y-4540000D02*
X11110000Y-4650000D01*
X11220000Y-4595000D02*
G75*
G02*
X11110000Y-4595000I-55000J0D01*
G01*
X11110000Y-4595000D02*
G75*
G02*
X11220000Y-4595000I55000J0D01*
G01*
X11110000Y-4990000D02*
X11220000Y-5100000D01*
X11220000Y-4990000D02*
X11110000Y-5100000D01*
X11220000Y-5045000D02*
G75*
G02*
X11110000Y-5045000I-55000J0D01*
G01*
X11110000Y-5045000D02*
G75*
G02*
X11220000Y-5045000I55000J0D01*
G01*
X11760000Y-4540000D02*
X11870000Y-4650000D01*
X11870000Y-4540000D02*
X11760000Y-4650000D01*
X11870000Y-4595000D02*
G75*
G02*
X11760000Y-4595000I-55000J0D01*
G01*
X11760000Y-4595000D02*
G75*
G02*
X11870000Y-4595000I55000J0D01*
G01*
X11760000Y-4990000D02*
X11870000Y-5100000D01*
X11870000Y-4990000D02*
X11760000Y-5100000D01*
X11870000Y-5045000D02*
G75*
G02*
X11760000Y-5045000I-55000J0D01*
G01*
X11760000Y-5045000D02*
G75*
G02*
X11870000Y-5045000I55000J0D01*
G01*
X12110000Y-4540000D02*
X12220000Y-4650000D01*
X12220000Y-4540000D02*
X12110000Y-4650000D01*
X12220000Y-4595000D02*
G75*
G02*
X12110000Y-4595000I-55000J0D01*
G01*
X12110000Y-4595000D02*
G75*
G02*
X12220000Y-4595000I55000J0D01*
G01*
X12110000Y-4990000D02*
X12220000Y-5100000D01*
X12220000Y-4990000D02*
X12110000Y-5100000D01*
X12220000Y-5045000D02*
G75*
G02*
X12110000Y-5045000I-55000J0D01*
G01*
X12110000Y-5045000D02*
G75*
G02*
X12220000Y-5045000I55000J0D01*
G01*
X12520000Y-9775000D02*
X12630000Y-9885000D01*
X12630000Y-9775000D02*
X12520000Y-9885000D01*
X12630000Y-9830000D02*
G75*
G02*
X12520000Y-9830000I-55000J0D01*
G01*
X12520000Y-9830000D02*
G75*
G02*
X12630000Y-9830000I55000J0D01*
G01*
X12520000Y-10225000D02*
X12630000Y-10335000D01*
X12630000Y-10225000D02*
X12520000Y-10335000D01*
X12630000Y-10280000D02*
G75*
G02*
X12520000Y-10280000I-55000J0D01*
G01*
X12520000Y-10280000D02*
G75*
G02*
X12630000Y-10280000I55000J0D01*
G01*
X12760000Y-4540000D02*
X12870000Y-4650000D01*
X12870000Y-4540000D02*
X12760000Y-4650000D01*
X12870000Y-4595000D02*
G75*
G02*
X12760000Y-4595000I-55000J0D01*
G01*
X12760000Y-4595000D02*
G75*
G02*
X12870000Y-4595000I55000J0D01*
G01*
X12760000Y-4990000D02*
X12870000Y-5100000D01*
X12870000Y-4990000D02*
X12760000Y-5100000D01*
X12870000Y-5045000D02*
G75*
G02*
X12760000Y-5045000I-55000J0D01*
G01*
X12760000Y-5045000D02*
G75*
G02*
X12870000Y-5045000I55000J0D01*
G01*
X13170000Y-9775000D02*
X13280000Y-9885000D01*
X13280000Y-9775000D02*
X13170000Y-9885000D01*
X13280000Y-9830000D02*
G75*
G02*
X13170000Y-9830000I-55000J0D01*
G01*
X13170000Y-9830000D02*
G75*
G02*
X13280000Y-9830000I55000J0D01*
G01*
X13170000Y-10225000D02*
X13280000Y-10335000D01*
X13280000Y-10225000D02*
X13170000Y-10335000D01*
X13280000Y-10280000D02*
G75*
G02*
X13170000Y-10280000I-55000J0D01*
G01*
X13170000Y-10280000D02*
G75*
G02*
X13280000Y-10280000I55000J0D01*
G01*
X13315000Y-4430000D02*
X13425000Y-4540000D01*
X13425000Y-4430000D02*
X13315000Y-4540000D01*
X13425000Y-4485000D02*
G75*
G02*
X13315000Y-4485000I-55000J0D01*
G01*
X13315000Y-4485000D02*
G75*
G02*
X13425000Y-4485000I55000J0D01*
G01*
X13315000Y-5100000D02*
X13425000Y-5210000D01*
X13425000Y-5100000D02*
X13315000Y-5210000D01*
X13425000Y-5155000D02*
G75*
G02*
X13315000Y-5155000I-55000J0D01*
G01*
X13315000Y-5155000D02*
G75*
G02*
X13425000Y-5155000I55000J0D01*
G01*
X13875000Y-4430000D02*
X13985000Y-4540000D01*
X13985000Y-4430000D02*
X13875000Y-4540000D01*
X13985000Y-4485000D02*
G75*
G02*
X13875000Y-4485000I-55000J0D01*
G01*
X13875000Y-4485000D02*
G75*
G02*
X13985000Y-4485000I55000J0D01*
G01*
X13875000Y-4750000D02*
X13985000Y-4860000D01*
X13985000Y-4750000D02*
X13875000Y-4860000D01*
X13985000Y-4805000D02*
G75*
G02*
X13875000Y-4805000I-55000J0D01*
G01*
X13875000Y-4805000D02*
G75*
G02*
X13985000Y-4805000I55000J0D01*
G01*
X13875000Y-5100000D02*
X13985000Y-5210000D01*
X13985000Y-5100000D02*
X13875000Y-5210000D01*
X13985000Y-5155000D02*
G75*
G02*
X13875000Y-5155000I-55000J0D01*
G01*
X13875000Y-5155000D02*
G75*
G02*
X13985000Y-5155000I55000J0D01*
G01*
D14*
X9392000Y-10237000D02*
X9648000Y-10493000D01*
X9648000Y-10237000D02*
X9392000Y-10493000D01*
X9520000Y-10237000D02*
X9520000Y-10493000D01*
X9392000Y-10365000D02*
X9648000Y-10365000D01*
X9392000Y-10907000D02*
X9648000Y-11163000D01*
X9648000Y-10907000D02*
X9392000Y-11163000D01*
X9520000Y-10907000D02*
X9520000Y-11163000D01*
X9392000Y-11035000D02*
X9648000Y-11035000D01*
X9392000Y-11577000D02*
X9648000Y-11833000D01*
X9648000Y-11577000D02*
X9392000Y-11833000D01*
X9520000Y-11577000D02*
X9520000Y-11833000D01*
X9392000Y-11705000D02*
X9648000Y-11705000D01*
X16147000Y-10907000D02*
X16403000Y-11163000D01*
X16403000Y-10907000D02*
X16147000Y-11163000D01*
X16275000Y-10907000D02*
X16275000Y-11163000D01*
X16147000Y-11035000D02*
X16403000Y-11035000D01*
D11*
X9203277Y-13018984D02*
X9203277Y-12818984D01*
X9203277Y-12818984D02*
X9250896Y-12818984D01*
X9250896Y-12818984D02*
X9279467Y-12828508D01*
X9279467Y-12828508D02*
X9298515Y-12847555D01*
X9298515Y-12847555D02*
X9308039Y-12866603D01*
X9308039Y-12866603D02*
X9317563Y-12904698D01*
X9317563Y-12904698D02*
X9317563Y-12933269D01*
X9317563Y-12933269D02*
X9308039Y-12971365D01*
X9308039Y-12971365D02*
X9298515Y-12990412D01*
X9298515Y-12990412D02*
X9279467Y-13009460D01*
X9279467Y-13009460D02*
X9250896Y-13018984D01*
X9250896Y-13018984D02*
X9203277Y-13018984D01*
X9403277Y-13018984D02*
X9403277Y-12885650D01*
X9403277Y-12923746D02*
X9412801Y-12904698D01*
X9412801Y-12904698D02*
X9422324Y-12895174D01*
X9422324Y-12895174D02*
X9441372Y-12885650D01*
X9441372Y-12885650D02*
X9460420Y-12885650D01*
X9527086Y-13018984D02*
X9527086Y-12885650D01*
X9527086Y-12818984D02*
X9517563Y-12828508D01*
X9517563Y-12828508D02*
X9527086Y-12838031D01*
X9527086Y-12838031D02*
X9536610Y-12828508D01*
X9536610Y-12828508D02*
X9527086Y-12818984D01*
X9527086Y-12818984D02*
X9527086Y-12838031D01*
X9650896Y-13018984D02*
X9631848Y-13009460D01*
X9631848Y-13009460D02*
X9622324Y-12990412D01*
X9622324Y-12990412D02*
X9622324Y-12818984D01*
X9755658Y-13018984D02*
X9736610Y-13009460D01*
X9736610Y-13009460D02*
X9727086Y-12990412D01*
X9727086Y-12990412D02*
X9727086Y-12818984D01*
X9984229Y-13018984D02*
X9984229Y-12818984D01*
X9984229Y-12818984D02*
X10050896Y-12961841D01*
X10050896Y-12961841D02*
X10117563Y-12818984D01*
X10117563Y-12818984D02*
X10117563Y-13018984D01*
X10298515Y-13018984D02*
X10298515Y-12914222D01*
X10298515Y-12914222D02*
X10288991Y-12895174D01*
X10288991Y-12895174D02*
X10269944Y-12885650D01*
X10269944Y-12885650D02*
X10231848Y-12885650D01*
X10231848Y-12885650D02*
X10212801Y-12895174D01*
X10298515Y-13009460D02*
X10279467Y-13018984D01*
X10279467Y-13018984D02*
X10231848Y-13018984D01*
X10231848Y-13018984D02*
X10212801Y-13009460D01*
X10212801Y-13009460D02*
X10203277Y-12990412D01*
X10203277Y-12990412D02*
X10203277Y-12971365D01*
X10203277Y-12971365D02*
X10212801Y-12952317D01*
X10212801Y-12952317D02*
X10231848Y-12942793D01*
X10231848Y-12942793D02*
X10279467Y-12942793D01*
X10279467Y-12942793D02*
X10298515Y-12933269D01*
X10393753Y-12885650D02*
X10393753Y-13085650D01*
X10393753Y-12895174D02*
X10412801Y-12885650D01*
X10412801Y-12885650D02*
X10450896Y-12885650D01*
X10450896Y-12885650D02*
X10469944Y-12895174D01*
X10469944Y-12895174D02*
X10479467Y-12904698D01*
X10479467Y-12904698D02*
X10488991Y-12923746D01*
X10488991Y-12923746D02*
X10488991Y-12980888D01*
X10488991Y-12980888D02*
X10479467Y-12999936D01*
X10479467Y-12999936D02*
X10469944Y-13009460D01*
X10469944Y-13009460D02*
X10450896Y-13018984D01*
X10450896Y-13018984D02*
X10412801Y-13018984D01*
X10412801Y-13018984D02*
X10393753Y-13009460D01*
X10574705Y-12999936D02*
X10584229Y-13009460D01*
X10584229Y-13009460D02*
X10574705Y-13018984D01*
X10574705Y-13018984D02*
X10565182Y-13009460D01*
X10565182Y-13009460D02*
X10574705Y-12999936D01*
X10574705Y-12999936D02*
X10574705Y-13018984D01*
X10574705Y-12895174D02*
X10584229Y-12904698D01*
X10584229Y-12904698D02*
X10574705Y-12914222D01*
X10574705Y-12914222D02*
X10565182Y-12904698D01*
X10565182Y-12904698D02*
X10574705Y-12895174D01*
X10574705Y-12895174D02*
X10574705Y-12914222D01*
D12*
X8904400Y-13328450D02*
X8942500Y-13366550D01*
X8942500Y-13328450D02*
X8904400Y-13366550D01*
D11*
X9241372Y-13238984D02*
X9260420Y-13238984D01*
X9260420Y-13238984D02*
X9279467Y-13248508D01*
X9279467Y-13248508D02*
X9288991Y-13258031D01*
X9288991Y-13258031D02*
X9298515Y-13277079D01*
X9298515Y-13277079D02*
X9308039Y-13315174D01*
X9308039Y-13315174D02*
X9308039Y-13362793D01*
X9308039Y-13362793D02*
X9298515Y-13400888D01*
X9298515Y-13400888D02*
X9288991Y-13419936D01*
X9288991Y-13419936D02*
X9279467Y-13429460D01*
X9279467Y-13429460D02*
X9260420Y-13438984D01*
X9260420Y-13438984D02*
X9241372Y-13438984D01*
X9241372Y-13438984D02*
X9222324Y-13429460D01*
X9222324Y-13429460D02*
X9212801Y-13419936D01*
X9212801Y-13419936D02*
X9203277Y-13400888D01*
X9203277Y-13400888D02*
X9193753Y-13362793D01*
X9193753Y-13362793D02*
X9193753Y-13315174D01*
X9193753Y-13315174D02*
X9203277Y-13277079D01*
X9203277Y-13277079D02*
X9212801Y-13258031D01*
X9212801Y-13258031D02*
X9222324Y-13248508D01*
X9222324Y-13248508D02*
X9241372Y-13238984D01*
X9393753Y-13419936D02*
X9403277Y-13429460D01*
X9403277Y-13429460D02*
X9393753Y-13438984D01*
X9393753Y-13438984D02*
X9384229Y-13429460D01*
X9384229Y-13429460D02*
X9393753Y-13419936D01*
X9393753Y-13419936D02*
X9393753Y-13438984D01*
X9469944Y-13238984D02*
X9593753Y-13238984D01*
X9593753Y-13238984D02*
X9527086Y-13315174D01*
X9527086Y-13315174D02*
X9555658Y-13315174D01*
X9555658Y-13315174D02*
X9574705Y-13324698D01*
X9574705Y-13324698D02*
X9584229Y-13334222D01*
X9584229Y-13334222D02*
X9593753Y-13353269D01*
X9593753Y-13353269D02*
X9593753Y-13400888D01*
X9593753Y-13400888D02*
X9584229Y-13419936D01*
X9584229Y-13419936D02*
X9574705Y-13429460D01*
X9574705Y-13429460D02*
X9555658Y-13438984D01*
X9555658Y-13438984D02*
X9498515Y-13438984D01*
X9498515Y-13438984D02*
X9479467Y-13429460D01*
X9479467Y-13429460D02*
X9469944Y-13419936D01*
X9708039Y-13324698D02*
X9688991Y-13315174D01*
X9688991Y-13315174D02*
X9679467Y-13305650D01*
X9679467Y-13305650D02*
X9669944Y-13286603D01*
X9669944Y-13286603D02*
X9669944Y-13277079D01*
X9669944Y-13277079D02*
X9679467Y-13258031D01*
X9679467Y-13258031D02*
X9688991Y-13248508D01*
X9688991Y-13248508D02*
X9708039Y-13238984D01*
X9708039Y-13238984D02*
X9746134Y-13238984D01*
X9746134Y-13238984D02*
X9765182Y-13248508D01*
X9765182Y-13248508D02*
X9774705Y-13258031D01*
X9774705Y-13258031D02*
X9784229Y-13277079D01*
X9784229Y-13277079D02*
X9784229Y-13286603D01*
X9784229Y-13286603D02*
X9774705Y-13305650D01*
X9774705Y-13305650D02*
X9765182Y-13315174D01*
X9765182Y-13315174D02*
X9746134Y-13324698D01*
X9746134Y-13324698D02*
X9708039Y-13324698D01*
X9708039Y-13324698D02*
X9688991Y-13334222D01*
X9688991Y-13334222D02*
X9679467Y-13343746D01*
X9679467Y-13343746D02*
X9669944Y-13362793D01*
X9669944Y-13362793D02*
X9669944Y-13400888D01*
X9669944Y-13400888D02*
X9679467Y-13419936D01*
X9679467Y-13419936D02*
X9688991Y-13429460D01*
X9688991Y-13429460D02*
X9708039Y-13438984D01*
X9708039Y-13438984D02*
X9746134Y-13438984D01*
X9746134Y-13438984D02*
X9765182Y-13429460D01*
X9765182Y-13429460D02*
X9774705Y-13419936D01*
X9774705Y-13419936D02*
X9784229Y-13400888D01*
X9784229Y-13400888D02*
X9784229Y-13362793D01*
X9784229Y-13362793D02*
X9774705Y-13343746D01*
X9774705Y-13343746D02*
X9765182Y-13334222D01*
X9765182Y-13334222D02*
X9746134Y-13324698D01*
X9974705Y-13438984D02*
X9860420Y-13438984D01*
X9917563Y-13438984D02*
X9917563Y-13238984D01*
X9917563Y-13238984D02*
X9898515Y-13267555D01*
X9898515Y-13267555D02*
X9879467Y-13286603D01*
X9879467Y-13286603D02*
X9860420Y-13296127D01*
X10060420Y-13438984D02*
X10060420Y-13305650D01*
X10060420Y-13324698D02*
X10069944Y-13315174D01*
X10069944Y-13315174D02*
X10088991Y-13305650D01*
X10088991Y-13305650D02*
X10117563Y-13305650D01*
X10117563Y-13305650D02*
X10136610Y-13315174D01*
X10136610Y-13315174D02*
X10146134Y-13334222D01*
X10146134Y-13334222D02*
X10146134Y-13438984D01*
X10146134Y-13334222D02*
X10155658Y-13315174D01*
X10155658Y-13315174D02*
X10174705Y-13305650D01*
X10174705Y-13305650D02*
X10203277Y-13305650D01*
X10203277Y-13305650D02*
X10222325Y-13315174D01*
X10222325Y-13315174D02*
X10231848Y-13334222D01*
X10231848Y-13334222D02*
X10231848Y-13438984D01*
X10327086Y-13438984D02*
X10327086Y-13305650D01*
X10327086Y-13324698D02*
X10336610Y-13315174D01*
X10336610Y-13315174D02*
X10355658Y-13305650D01*
X10355658Y-13305650D02*
X10384229Y-13305650D01*
X10384229Y-13305650D02*
X10403277Y-13315174D01*
X10403277Y-13315174D02*
X10412801Y-13334222D01*
X10412801Y-13334222D02*
X10412801Y-13438984D01*
X10412801Y-13334222D02*
X10422325Y-13315174D01*
X10422325Y-13315174D02*
X10441372Y-13305650D01*
X10441372Y-13305650D02*
X10469944Y-13305650D01*
X10469944Y-13305650D02*
X10488991Y-13315174D01*
X10488991Y-13315174D02*
X10498515Y-13334222D01*
X10498515Y-13334222D02*
X10498515Y-13438984D01*
X10888991Y-13229460D02*
X10717563Y-13486603D01*
X11146134Y-13238984D02*
X11165182Y-13238984D01*
X11165182Y-13238984D02*
X11184229Y-13248508D01*
X11184229Y-13248508D02*
X11193753Y-13258031D01*
X11193753Y-13258031D02*
X11203277Y-13277079D01*
X11203277Y-13277079D02*
X11212801Y-13315174D01*
X11212801Y-13315174D02*
X11212801Y-13362793D01*
X11212801Y-13362793D02*
X11203277Y-13400888D01*
X11203277Y-13400888D02*
X11193753Y-13419936D01*
X11193753Y-13419936D02*
X11184229Y-13429460D01*
X11184229Y-13429460D02*
X11165182Y-13438984D01*
X11165182Y-13438984D02*
X11146134Y-13438984D01*
X11146134Y-13438984D02*
X11127087Y-13429460D01*
X11127087Y-13429460D02*
X11117563Y-13419936D01*
X11117563Y-13419936D02*
X11108039Y-13400888D01*
X11108039Y-13400888D02*
X11098515Y-13362793D01*
X11098515Y-13362793D02*
X11098515Y-13315174D01*
X11098515Y-13315174D02*
X11108039Y-13277079D01*
X11108039Y-13277079D02*
X11117563Y-13258031D01*
X11117563Y-13258031D02*
X11127087Y-13248508D01*
X11127087Y-13248508D02*
X11146134Y-13238984D01*
X11298515Y-13419936D02*
X11308039Y-13429460D01*
X11308039Y-13429460D02*
X11298515Y-13438984D01*
X11298515Y-13438984D02*
X11288991Y-13429460D01*
X11288991Y-13429460D02*
X11298515Y-13419936D01*
X11298515Y-13419936D02*
X11298515Y-13438984D01*
X11431848Y-13238984D02*
X11450896Y-13238984D01*
X11450896Y-13238984D02*
X11469944Y-13248508D01*
X11469944Y-13248508D02*
X11479467Y-13258031D01*
X11479467Y-13258031D02*
X11488991Y-13277079D01*
X11488991Y-13277079D02*
X11498515Y-13315174D01*
X11498515Y-13315174D02*
X11498515Y-13362793D01*
X11498515Y-13362793D02*
X11488991Y-13400888D01*
X11488991Y-13400888D02*
X11479467Y-13419936D01*
X11479467Y-13419936D02*
X11469944Y-13429460D01*
X11469944Y-13429460D02*
X11450896Y-13438984D01*
X11450896Y-13438984D02*
X11431848Y-13438984D01*
X11431848Y-13438984D02*
X11412801Y-13429460D01*
X11412801Y-13429460D02*
X11403277Y-13419936D01*
X11403277Y-13419936D02*
X11393753Y-13400888D01*
X11393753Y-13400888D02*
X11384229Y-13362793D01*
X11384229Y-13362793D02*
X11384229Y-13315174D01*
X11384229Y-13315174D02*
X11393753Y-13277079D01*
X11393753Y-13277079D02*
X11403277Y-13258031D01*
X11403277Y-13258031D02*
X11412801Y-13248508D01*
X11412801Y-13248508D02*
X11431848Y-13238984D01*
X11688991Y-13438984D02*
X11574706Y-13438984D01*
X11631848Y-13438984D02*
X11631848Y-13238984D01*
X11631848Y-13238984D02*
X11612801Y-13267555D01*
X11612801Y-13267555D02*
X11593753Y-13286603D01*
X11593753Y-13286603D02*
X11574706Y-13296127D01*
X11869944Y-13238984D02*
X11774706Y-13238984D01*
X11774706Y-13238984D02*
X11765182Y-13334222D01*
X11765182Y-13334222D02*
X11774706Y-13324698D01*
X11774706Y-13324698D02*
X11793753Y-13315174D01*
X11793753Y-13315174D02*
X11841372Y-13315174D01*
X11841372Y-13315174D02*
X11860420Y-13324698D01*
X11860420Y-13324698D02*
X11869944Y-13334222D01*
X11869944Y-13334222D02*
X11879467Y-13353269D01*
X11879467Y-13353269D02*
X11879467Y-13400888D01*
X11879467Y-13400888D02*
X11869944Y-13419936D01*
X11869944Y-13419936D02*
X11860420Y-13429460D01*
X11860420Y-13429460D02*
X11841372Y-13438984D01*
X11841372Y-13438984D02*
X11793753Y-13438984D01*
X11793753Y-13438984D02*
X11774706Y-13429460D01*
X11774706Y-13429460D02*
X11765182Y-13419936D01*
X12003277Y-13238984D02*
X12022325Y-13238984D01*
X12022325Y-13238984D02*
X12041372Y-13248508D01*
X12041372Y-13248508D02*
X12050896Y-13258031D01*
X12050896Y-13258031D02*
X12060420Y-13277079D01*
X12060420Y-13277079D02*
X12069944Y-13315174D01*
X12069944Y-13315174D02*
X12069944Y-13362793D01*
X12069944Y-13362793D02*
X12060420Y-13400888D01*
X12060420Y-13400888D02*
X12050896Y-13419936D01*
X12050896Y-13419936D02*
X12041372Y-13429460D01*
X12041372Y-13429460D02*
X12022325Y-13438984D01*
X12022325Y-13438984D02*
X12003277Y-13438984D01*
X12003277Y-13438984D02*
X11984229Y-13429460D01*
X11984229Y-13429460D02*
X11974706Y-13419936D01*
X11974706Y-13419936D02*
X11965182Y-13400888D01*
X11965182Y-13400888D02*
X11955658Y-13362793D01*
X11955658Y-13362793D02*
X11955658Y-13315174D01*
X11955658Y-13315174D02*
X11965182Y-13277079D01*
X11965182Y-13277079D02*
X11974706Y-13258031D01*
X11974706Y-13258031D02*
X11984229Y-13248508D01*
X11984229Y-13248508D02*
X12003277Y-13238984D01*
X12146134Y-13238984D02*
X12146134Y-13277079D01*
X12222325Y-13238984D02*
X12222325Y-13277079D01*
X12517563Y-13515174D02*
X12508039Y-13505650D01*
X12508039Y-13505650D02*
X12488991Y-13477079D01*
X12488991Y-13477079D02*
X12479468Y-13458031D01*
X12479468Y-13458031D02*
X12469944Y-13429460D01*
X12469944Y-13429460D02*
X12460420Y-13381841D01*
X12460420Y-13381841D02*
X12460420Y-13343746D01*
X12460420Y-13343746D02*
X12469944Y-13296127D01*
X12469944Y-13296127D02*
X12479468Y-13267555D01*
X12479468Y-13267555D02*
X12488991Y-13248508D01*
X12488991Y-13248508D02*
X12508039Y-13219936D01*
X12508039Y-13219936D02*
X12517563Y-13210412D01*
X12584229Y-13258031D02*
X12593753Y-13248508D01*
X12593753Y-13248508D02*
X12612801Y-13238984D01*
X12612801Y-13238984D02*
X12660420Y-13238984D01*
X12660420Y-13238984D02*
X12679468Y-13248508D01*
X12679468Y-13248508D02*
X12688991Y-13258031D01*
X12688991Y-13258031D02*
X12698515Y-13277079D01*
X12698515Y-13277079D02*
X12698515Y-13296127D01*
X12698515Y-13296127D02*
X12688991Y-13324698D01*
X12688991Y-13324698D02*
X12574706Y-13438984D01*
X12574706Y-13438984D02*
X12698515Y-13438984D01*
X12765182Y-13238984D02*
X12888991Y-13238984D01*
X12888991Y-13238984D02*
X12822325Y-13315174D01*
X12822325Y-13315174D02*
X12850896Y-13315174D01*
X12850896Y-13315174D02*
X12869944Y-13324698D01*
X12869944Y-13324698D02*
X12879468Y-13334222D01*
X12879468Y-13334222D02*
X12888991Y-13353269D01*
X12888991Y-13353269D02*
X12888991Y-13400888D01*
X12888991Y-13400888D02*
X12879468Y-13419936D01*
X12879468Y-13419936D02*
X12869944Y-13429460D01*
X12869944Y-13429460D02*
X12850896Y-13438984D01*
X12850896Y-13438984D02*
X12793753Y-13438984D01*
X12793753Y-13438984D02*
X12774706Y-13429460D01*
X12774706Y-13429460D02*
X12765182Y-13419936D01*
X12984229Y-13438984D02*
X13022325Y-13438984D01*
X13022325Y-13438984D02*
X13041372Y-13429460D01*
X13041372Y-13429460D02*
X13050896Y-13419936D01*
X13050896Y-13419936D02*
X13069944Y-13391365D01*
X13069944Y-13391365D02*
X13079468Y-13353269D01*
X13079468Y-13353269D02*
X13079468Y-13277079D01*
X13079468Y-13277079D02*
X13069944Y-13258031D01*
X13069944Y-13258031D02*
X13060420Y-13248508D01*
X13060420Y-13248508D02*
X13041372Y-13238984D01*
X13041372Y-13238984D02*
X13003277Y-13238984D01*
X13003277Y-13238984D02*
X12984229Y-13248508D01*
X12984229Y-13248508D02*
X12974706Y-13258031D01*
X12974706Y-13258031D02*
X12965182Y-13277079D01*
X12965182Y-13277079D02*
X12965182Y-13324698D01*
X12965182Y-13324698D02*
X12974706Y-13343746D01*
X12974706Y-13343746D02*
X12984229Y-13353269D01*
X12984229Y-13353269D02*
X13003277Y-13362793D01*
X13003277Y-13362793D02*
X13041372Y-13362793D01*
X13041372Y-13362793D02*
X13060420Y-13353269D01*
X13060420Y-13353269D02*
X13069944Y-13343746D01*
X13069944Y-13343746D02*
X13079468Y-13324698D01*
X13317563Y-13438984D02*
X13317563Y-13238984D01*
X13403277Y-13438984D02*
X13403277Y-13334222D01*
X13403277Y-13334222D02*
X13393753Y-13315174D01*
X13393753Y-13315174D02*
X13374706Y-13305650D01*
X13374706Y-13305650D02*
X13346134Y-13305650D01*
X13346134Y-13305650D02*
X13327087Y-13315174D01*
X13327087Y-13315174D02*
X13317563Y-13324698D01*
X13527087Y-13438984D02*
X13508039Y-13429460D01*
X13508039Y-13429460D02*
X13498515Y-13419936D01*
X13498515Y-13419936D02*
X13488991Y-13400888D01*
X13488991Y-13400888D02*
X13488991Y-13343746D01*
X13488991Y-13343746D02*
X13498515Y-13324698D01*
X13498515Y-13324698D02*
X13508039Y-13315174D01*
X13508039Y-13315174D02*
X13527087Y-13305650D01*
X13527087Y-13305650D02*
X13555658Y-13305650D01*
X13555658Y-13305650D02*
X13574706Y-13315174D01*
X13574706Y-13315174D02*
X13584230Y-13324698D01*
X13584230Y-13324698D02*
X13593753Y-13343746D01*
X13593753Y-13343746D02*
X13593753Y-13400888D01*
X13593753Y-13400888D02*
X13584230Y-13419936D01*
X13584230Y-13419936D02*
X13574706Y-13429460D01*
X13574706Y-13429460D02*
X13555658Y-13438984D01*
X13555658Y-13438984D02*
X13527087Y-13438984D01*
X13708039Y-13438984D02*
X13688991Y-13429460D01*
X13688991Y-13429460D02*
X13679468Y-13410412D01*
X13679468Y-13410412D02*
X13679468Y-13238984D01*
X13860420Y-13429460D02*
X13841372Y-13438984D01*
X13841372Y-13438984D02*
X13803277Y-13438984D01*
X13803277Y-13438984D02*
X13784230Y-13429460D01*
X13784230Y-13429460D02*
X13774706Y-13410412D01*
X13774706Y-13410412D02*
X13774706Y-13334222D01*
X13774706Y-13334222D02*
X13784230Y-13315174D01*
X13784230Y-13315174D02*
X13803277Y-13305650D01*
X13803277Y-13305650D02*
X13841372Y-13305650D01*
X13841372Y-13305650D02*
X13860420Y-13315174D01*
X13860420Y-13315174D02*
X13869944Y-13334222D01*
X13869944Y-13334222D02*
X13869944Y-13353269D01*
X13869944Y-13353269D02*
X13774706Y-13372317D01*
X13946134Y-13429460D02*
X13965182Y-13438984D01*
X13965182Y-13438984D02*
X14003277Y-13438984D01*
X14003277Y-13438984D02*
X14022325Y-13429460D01*
X14022325Y-13429460D02*
X14031849Y-13410412D01*
X14031849Y-13410412D02*
X14031849Y-13400888D01*
X14031849Y-13400888D02*
X14022325Y-13381841D01*
X14022325Y-13381841D02*
X14003277Y-13372317D01*
X14003277Y-13372317D02*
X13974706Y-13372317D01*
X13974706Y-13372317D02*
X13955658Y-13362793D01*
X13955658Y-13362793D02*
X13946134Y-13343746D01*
X13946134Y-13343746D02*
X13946134Y-13334222D01*
X13946134Y-13334222D02*
X13955658Y-13315174D01*
X13955658Y-13315174D02*
X13974706Y-13305650D01*
X13974706Y-13305650D02*
X14003277Y-13305650D01*
X14003277Y-13305650D02*
X14022325Y-13315174D01*
X14098515Y-13515174D02*
X14108039Y-13505650D01*
X14108039Y-13505650D02*
X14127087Y-13477079D01*
X14127087Y-13477079D02*
X14136611Y-13458031D01*
X14136611Y-13458031D02*
X14146134Y-13429460D01*
X14146134Y-13429460D02*
X14155658Y-13381841D01*
X14155658Y-13381841D02*
X14155658Y-13343746D01*
X14155658Y-13343746D02*
X14146134Y-13296127D01*
X14146134Y-13296127D02*
X14136611Y-13267555D01*
X14136611Y-13267555D02*
X14127087Y-13248508D01*
X14127087Y-13248508D02*
X14108039Y-13219936D01*
X14108039Y-13219936D02*
X14098515Y-13210412D01*
D12*
X8942500Y-13611500D02*
G75*
G02*
X8891700Y-13611500I-25400J0D01*
G01*
X8891700Y-13611500D02*
G75*
G02*
X8942500Y-13611500I25400J0D01*
G01*
D11*
X9241372Y-13502984D02*
X9260420Y-13502984D01*
X9260420Y-13502984D02*
X9279467Y-13512508D01*
X9279467Y-13512508D02*
X9288991Y-13522031D01*
X9288991Y-13522031D02*
X9298515Y-13541079D01*
X9298515Y-13541079D02*
X9308039Y-13579174D01*
X9308039Y-13579174D02*
X9308039Y-13626793D01*
X9308039Y-13626793D02*
X9298515Y-13664888D01*
X9298515Y-13664888D02*
X9288991Y-13683936D01*
X9288991Y-13683936D02*
X9279467Y-13693460D01*
X9279467Y-13693460D02*
X9260420Y-13702984D01*
X9260420Y-13702984D02*
X9241372Y-13702984D01*
X9241372Y-13702984D02*
X9222324Y-13693460D01*
X9222324Y-13693460D02*
X9212801Y-13683936D01*
X9212801Y-13683936D02*
X9203277Y-13664888D01*
X9203277Y-13664888D02*
X9193753Y-13626793D01*
X9193753Y-13626793D02*
X9193753Y-13579174D01*
X9193753Y-13579174D02*
X9203277Y-13541079D01*
X9203277Y-13541079D02*
X9212801Y-13522031D01*
X9212801Y-13522031D02*
X9222324Y-13512508D01*
X9222324Y-13512508D02*
X9241372Y-13502984D01*
X9393753Y-13683936D02*
X9403277Y-13693460D01*
X9403277Y-13693460D02*
X9393753Y-13702984D01*
X9393753Y-13702984D02*
X9384229Y-13693460D01*
X9384229Y-13693460D02*
X9393753Y-13683936D01*
X9393753Y-13683936D02*
X9393753Y-13702984D01*
X9584229Y-13502984D02*
X9488991Y-13502984D01*
X9488991Y-13502984D02*
X9479467Y-13598222D01*
X9479467Y-13598222D02*
X9488991Y-13588698D01*
X9488991Y-13588698D02*
X9508039Y-13579174D01*
X9508039Y-13579174D02*
X9555658Y-13579174D01*
X9555658Y-13579174D02*
X9574705Y-13588698D01*
X9574705Y-13588698D02*
X9584229Y-13598222D01*
X9584229Y-13598222D02*
X9593753Y-13617269D01*
X9593753Y-13617269D02*
X9593753Y-13664888D01*
X9593753Y-13664888D02*
X9584229Y-13683936D01*
X9584229Y-13683936D02*
X9574705Y-13693460D01*
X9574705Y-13693460D02*
X9555658Y-13702984D01*
X9555658Y-13702984D02*
X9508039Y-13702984D01*
X9508039Y-13702984D02*
X9488991Y-13693460D01*
X9488991Y-13693460D02*
X9479467Y-13683936D01*
X9717563Y-13502984D02*
X9736610Y-13502984D01*
X9736610Y-13502984D02*
X9755658Y-13512508D01*
X9755658Y-13512508D02*
X9765182Y-13522031D01*
X9765182Y-13522031D02*
X9774705Y-13541079D01*
X9774705Y-13541079D02*
X9784229Y-13579174D01*
X9784229Y-13579174D02*
X9784229Y-13626793D01*
X9784229Y-13626793D02*
X9774705Y-13664888D01*
X9774705Y-13664888D02*
X9765182Y-13683936D01*
X9765182Y-13683936D02*
X9755658Y-13693460D01*
X9755658Y-13693460D02*
X9736610Y-13702984D01*
X9736610Y-13702984D02*
X9717563Y-13702984D01*
X9717563Y-13702984D02*
X9698515Y-13693460D01*
X9698515Y-13693460D02*
X9688991Y-13683936D01*
X9688991Y-13683936D02*
X9679467Y-13664888D01*
X9679467Y-13664888D02*
X9669944Y-13626793D01*
X9669944Y-13626793D02*
X9669944Y-13579174D01*
X9669944Y-13579174D02*
X9679467Y-13541079D01*
X9679467Y-13541079D02*
X9688991Y-13522031D01*
X9688991Y-13522031D02*
X9698515Y-13512508D01*
X9698515Y-13512508D02*
X9717563Y-13502984D01*
X9898515Y-13588698D02*
X9879467Y-13579174D01*
X9879467Y-13579174D02*
X9869944Y-13569650D01*
X9869944Y-13569650D02*
X9860420Y-13550603D01*
X9860420Y-13550603D02*
X9860420Y-13541079D01*
X9860420Y-13541079D02*
X9869944Y-13522031D01*
X9869944Y-13522031D02*
X9879467Y-13512508D01*
X9879467Y-13512508D02*
X9898515Y-13502984D01*
X9898515Y-13502984D02*
X9936610Y-13502984D01*
X9936610Y-13502984D02*
X9955658Y-13512508D01*
X9955658Y-13512508D02*
X9965182Y-13522031D01*
X9965182Y-13522031D02*
X9974705Y-13541079D01*
X9974705Y-13541079D02*
X9974705Y-13550603D01*
X9974705Y-13550603D02*
X9965182Y-13569650D01*
X9965182Y-13569650D02*
X9955658Y-13579174D01*
X9955658Y-13579174D02*
X9936610Y-13588698D01*
X9936610Y-13588698D02*
X9898515Y-13588698D01*
X9898515Y-13588698D02*
X9879467Y-13598222D01*
X9879467Y-13598222D02*
X9869944Y-13607746D01*
X9869944Y-13607746D02*
X9860420Y-13626793D01*
X9860420Y-13626793D02*
X9860420Y-13664888D01*
X9860420Y-13664888D02*
X9869944Y-13683936D01*
X9869944Y-13683936D02*
X9879467Y-13693460D01*
X9879467Y-13693460D02*
X9898515Y-13702984D01*
X9898515Y-13702984D02*
X9936610Y-13702984D01*
X9936610Y-13702984D02*
X9955658Y-13693460D01*
X9955658Y-13693460D02*
X9965182Y-13683936D01*
X9965182Y-13683936D02*
X9974705Y-13664888D01*
X9974705Y-13664888D02*
X9974705Y-13626793D01*
X9974705Y-13626793D02*
X9965182Y-13607746D01*
X9965182Y-13607746D02*
X9955658Y-13598222D01*
X9955658Y-13598222D02*
X9936610Y-13588698D01*
X10060420Y-13702984D02*
X10060420Y-13569650D01*
X10060420Y-13588698D02*
X10069944Y-13579174D01*
X10069944Y-13579174D02*
X10088991Y-13569650D01*
X10088991Y-13569650D02*
X10117563Y-13569650D01*
X10117563Y-13569650D02*
X10136610Y-13579174D01*
X10136610Y-13579174D02*
X10146134Y-13598222D01*
X10146134Y-13598222D02*
X10146134Y-13702984D01*
X10146134Y-13598222D02*
X10155658Y-13579174D01*
X10155658Y-13579174D02*
X10174705Y-13569650D01*
X10174705Y-13569650D02*
X10203277Y-13569650D01*
X10203277Y-13569650D02*
X10222325Y-13579174D01*
X10222325Y-13579174D02*
X10231848Y-13598222D01*
X10231848Y-13598222D02*
X10231848Y-13702984D01*
X10327086Y-13702984D02*
X10327086Y-13569650D01*
X10327086Y-13588698D02*
X10336610Y-13579174D01*
X10336610Y-13579174D02*
X10355658Y-13569650D01*
X10355658Y-13569650D02*
X10384229Y-13569650D01*
X10384229Y-13569650D02*
X10403277Y-13579174D01*
X10403277Y-13579174D02*
X10412801Y-13598222D01*
X10412801Y-13598222D02*
X10412801Y-13702984D01*
X10412801Y-13598222D02*
X10422325Y-13579174D01*
X10422325Y-13579174D02*
X10441372Y-13569650D01*
X10441372Y-13569650D02*
X10469944Y-13569650D01*
X10469944Y-13569650D02*
X10488991Y-13579174D01*
X10488991Y-13579174D02*
X10498515Y-13598222D01*
X10498515Y-13598222D02*
X10498515Y-13702984D01*
X10888991Y-13493460D02*
X10717563Y-13750603D01*
X11146134Y-13502984D02*
X11165182Y-13502984D01*
X11165182Y-13502984D02*
X11184229Y-13512508D01*
X11184229Y-13512508D02*
X11193753Y-13522031D01*
X11193753Y-13522031D02*
X11203277Y-13541079D01*
X11203277Y-13541079D02*
X11212801Y-13579174D01*
X11212801Y-13579174D02*
X11212801Y-13626793D01*
X11212801Y-13626793D02*
X11203277Y-13664888D01*
X11203277Y-13664888D02*
X11193753Y-13683936D01*
X11193753Y-13683936D02*
X11184229Y-13693460D01*
X11184229Y-13693460D02*
X11165182Y-13702984D01*
X11165182Y-13702984D02*
X11146134Y-13702984D01*
X11146134Y-13702984D02*
X11127087Y-13693460D01*
X11127087Y-13693460D02*
X11117563Y-13683936D01*
X11117563Y-13683936D02*
X11108039Y-13664888D01*
X11108039Y-13664888D02*
X11098515Y-13626793D01*
X11098515Y-13626793D02*
X11098515Y-13579174D01*
X11098515Y-13579174D02*
X11108039Y-13541079D01*
X11108039Y-13541079D02*
X11117563Y-13522031D01*
X11117563Y-13522031D02*
X11127087Y-13512508D01*
X11127087Y-13512508D02*
X11146134Y-13502984D01*
X11298515Y-13683936D02*
X11308039Y-13693460D01*
X11308039Y-13693460D02*
X11298515Y-13702984D01*
X11298515Y-13702984D02*
X11288991Y-13693460D01*
X11288991Y-13693460D02*
X11298515Y-13683936D01*
X11298515Y-13683936D02*
X11298515Y-13702984D01*
X11431848Y-13502984D02*
X11450896Y-13502984D01*
X11450896Y-13502984D02*
X11469944Y-13512508D01*
X11469944Y-13512508D02*
X11479467Y-13522031D01*
X11479467Y-13522031D02*
X11488991Y-13541079D01*
X11488991Y-13541079D02*
X11498515Y-13579174D01*
X11498515Y-13579174D02*
X11498515Y-13626793D01*
X11498515Y-13626793D02*
X11488991Y-13664888D01*
X11488991Y-13664888D02*
X11479467Y-13683936D01*
X11479467Y-13683936D02*
X11469944Y-13693460D01*
X11469944Y-13693460D02*
X11450896Y-13702984D01*
X11450896Y-13702984D02*
X11431848Y-13702984D01*
X11431848Y-13702984D02*
X11412801Y-13693460D01*
X11412801Y-13693460D02*
X11403277Y-13683936D01*
X11403277Y-13683936D02*
X11393753Y-13664888D01*
X11393753Y-13664888D02*
X11384229Y-13626793D01*
X11384229Y-13626793D02*
X11384229Y-13579174D01*
X11384229Y-13579174D02*
X11393753Y-13541079D01*
X11393753Y-13541079D02*
X11403277Y-13522031D01*
X11403277Y-13522031D02*
X11412801Y-13512508D01*
X11412801Y-13512508D02*
X11431848Y-13502984D01*
X11574706Y-13522031D02*
X11584229Y-13512508D01*
X11584229Y-13512508D02*
X11603277Y-13502984D01*
X11603277Y-13502984D02*
X11650896Y-13502984D01*
X11650896Y-13502984D02*
X11669944Y-13512508D01*
X11669944Y-13512508D02*
X11679467Y-13522031D01*
X11679467Y-13522031D02*
X11688991Y-13541079D01*
X11688991Y-13541079D02*
X11688991Y-13560127D01*
X11688991Y-13560127D02*
X11679467Y-13588698D01*
X11679467Y-13588698D02*
X11565182Y-13702984D01*
X11565182Y-13702984D02*
X11688991Y-13702984D01*
X11812801Y-13502984D02*
X11831848Y-13502984D01*
X11831848Y-13502984D02*
X11850896Y-13512508D01*
X11850896Y-13512508D02*
X11860420Y-13522031D01*
X11860420Y-13522031D02*
X11869944Y-13541079D01*
X11869944Y-13541079D02*
X11879467Y-13579174D01*
X11879467Y-13579174D02*
X11879467Y-13626793D01*
X11879467Y-13626793D02*
X11869944Y-13664888D01*
X11869944Y-13664888D02*
X11860420Y-13683936D01*
X11860420Y-13683936D02*
X11850896Y-13693460D01*
X11850896Y-13693460D02*
X11831848Y-13702984D01*
X11831848Y-13702984D02*
X11812801Y-13702984D01*
X11812801Y-13702984D02*
X11793753Y-13693460D01*
X11793753Y-13693460D02*
X11784229Y-13683936D01*
X11784229Y-13683936D02*
X11774706Y-13664888D01*
X11774706Y-13664888D02*
X11765182Y-13626793D01*
X11765182Y-13626793D02*
X11765182Y-13579174D01*
X11765182Y-13579174D02*
X11774706Y-13541079D01*
X11774706Y-13541079D02*
X11784229Y-13522031D01*
X11784229Y-13522031D02*
X11793753Y-13512508D01*
X11793753Y-13512508D02*
X11812801Y-13502984D01*
X12003277Y-13502984D02*
X12022325Y-13502984D01*
X12022325Y-13502984D02*
X12041372Y-13512508D01*
X12041372Y-13512508D02*
X12050896Y-13522031D01*
X12050896Y-13522031D02*
X12060420Y-13541079D01*
X12060420Y-13541079D02*
X12069944Y-13579174D01*
X12069944Y-13579174D02*
X12069944Y-13626793D01*
X12069944Y-13626793D02*
X12060420Y-13664888D01*
X12060420Y-13664888D02*
X12050896Y-13683936D01*
X12050896Y-13683936D02*
X12041372Y-13693460D01*
X12041372Y-13693460D02*
X12022325Y-13702984D01*
X12022325Y-13702984D02*
X12003277Y-13702984D01*
X12003277Y-13702984D02*
X11984229Y-13693460D01*
X11984229Y-13693460D02*
X11974706Y-13683936D01*
X11974706Y-13683936D02*
X11965182Y-13664888D01*
X11965182Y-13664888D02*
X11955658Y-13626793D01*
X11955658Y-13626793D02*
X11955658Y-13579174D01*
X11955658Y-13579174D02*
X11965182Y-13541079D01*
X11965182Y-13541079D02*
X11974706Y-13522031D01*
X11974706Y-13522031D02*
X11984229Y-13512508D01*
X11984229Y-13512508D02*
X12003277Y-13502984D01*
X12146134Y-13502984D02*
X12146134Y-13541079D01*
X12222325Y-13502984D02*
X12222325Y-13541079D01*
X12517563Y-13779174D02*
X12508039Y-13769650D01*
X12508039Y-13769650D02*
X12488991Y-13741079D01*
X12488991Y-13741079D02*
X12479468Y-13722031D01*
X12479468Y-13722031D02*
X12469944Y-13693460D01*
X12469944Y-13693460D02*
X12460420Y-13645841D01*
X12460420Y-13645841D02*
X12460420Y-13607746D01*
X12460420Y-13607746D02*
X12469944Y-13560127D01*
X12469944Y-13560127D02*
X12479468Y-13531555D01*
X12479468Y-13531555D02*
X12488991Y-13512508D01*
X12488991Y-13512508D02*
X12508039Y-13483936D01*
X12508039Y-13483936D02*
X12517563Y-13474412D01*
X12679468Y-13502984D02*
X12641372Y-13502984D01*
X12641372Y-13502984D02*
X12622325Y-13512508D01*
X12622325Y-13512508D02*
X12612801Y-13522031D01*
X12612801Y-13522031D02*
X12593753Y-13550603D01*
X12593753Y-13550603D02*
X12584229Y-13588698D01*
X12584229Y-13588698D02*
X12584229Y-13664888D01*
X12584229Y-13664888D02*
X12593753Y-13683936D01*
X12593753Y-13683936D02*
X12603277Y-13693460D01*
X12603277Y-13693460D02*
X12622325Y-13702984D01*
X12622325Y-13702984D02*
X12660420Y-13702984D01*
X12660420Y-13702984D02*
X12679468Y-13693460D01*
X12679468Y-13693460D02*
X12688991Y-13683936D01*
X12688991Y-13683936D02*
X12698515Y-13664888D01*
X12698515Y-13664888D02*
X12698515Y-13617269D01*
X12698515Y-13617269D02*
X12688991Y-13598222D01*
X12688991Y-13598222D02*
X12679468Y-13588698D01*
X12679468Y-13588698D02*
X12660420Y-13579174D01*
X12660420Y-13579174D02*
X12622325Y-13579174D01*
X12622325Y-13579174D02*
X12603277Y-13588698D01*
X12603277Y-13588698D02*
X12593753Y-13598222D01*
X12593753Y-13598222D02*
X12584229Y-13617269D01*
X12822325Y-13502984D02*
X12841372Y-13502984D01*
X12841372Y-13502984D02*
X12860420Y-13512508D01*
X12860420Y-13512508D02*
X12869944Y-13522031D01*
X12869944Y-13522031D02*
X12879468Y-13541079D01*
X12879468Y-13541079D02*
X12888991Y-13579174D01*
X12888991Y-13579174D02*
X12888991Y-13626793D01*
X12888991Y-13626793D02*
X12879468Y-13664888D01*
X12879468Y-13664888D02*
X12869944Y-13683936D01*
X12869944Y-13683936D02*
X12860420Y-13693460D01*
X12860420Y-13693460D02*
X12841372Y-13702984D01*
X12841372Y-13702984D02*
X12822325Y-13702984D01*
X12822325Y-13702984D02*
X12803277Y-13693460D01*
X12803277Y-13693460D02*
X12793753Y-13683936D01*
X12793753Y-13683936D02*
X12784229Y-13664888D01*
X12784229Y-13664888D02*
X12774706Y-13626793D01*
X12774706Y-13626793D02*
X12774706Y-13579174D01*
X12774706Y-13579174D02*
X12784229Y-13541079D01*
X12784229Y-13541079D02*
X12793753Y-13522031D01*
X12793753Y-13522031D02*
X12803277Y-13512508D01*
X12803277Y-13512508D02*
X12822325Y-13502984D01*
X13127087Y-13702984D02*
X13127087Y-13502984D01*
X13212801Y-13702984D02*
X13212801Y-13598222D01*
X13212801Y-13598222D02*
X13203277Y-13579174D01*
X13203277Y-13579174D02*
X13184230Y-13569650D01*
X13184230Y-13569650D02*
X13155658Y-13569650D01*
X13155658Y-13569650D02*
X13136610Y-13579174D01*
X13136610Y-13579174D02*
X13127087Y-13588698D01*
X13336610Y-13702984D02*
X13317563Y-13693460D01*
X13317563Y-13693460D02*
X13308039Y-13683936D01*
X13308039Y-13683936D02*
X13298515Y-13664888D01*
X13298515Y-13664888D02*
X13298515Y-13607746D01*
X13298515Y-13607746D02*
X13308039Y-13588698D01*
X13308039Y-13588698D02*
X13317563Y-13579174D01*
X13317563Y-13579174D02*
X13336610Y-13569650D01*
X13336610Y-13569650D02*
X13365182Y-13569650D01*
X13365182Y-13569650D02*
X13384230Y-13579174D01*
X13384230Y-13579174D02*
X13393753Y-13588698D01*
X13393753Y-13588698D02*
X13403277Y-13607746D01*
X13403277Y-13607746D02*
X13403277Y-13664888D01*
X13403277Y-13664888D02*
X13393753Y-13683936D01*
X13393753Y-13683936D02*
X13384230Y-13693460D01*
X13384230Y-13693460D02*
X13365182Y-13702984D01*
X13365182Y-13702984D02*
X13336610Y-13702984D01*
X13517563Y-13702984D02*
X13498515Y-13693460D01*
X13498515Y-13693460D02*
X13488991Y-13674412D01*
X13488991Y-13674412D02*
X13488991Y-13502984D01*
X13669944Y-13693460D02*
X13650896Y-13702984D01*
X13650896Y-13702984D02*
X13612801Y-13702984D01*
X13612801Y-13702984D02*
X13593753Y-13693460D01*
X13593753Y-13693460D02*
X13584230Y-13674412D01*
X13584230Y-13674412D02*
X13584230Y-13598222D01*
X13584230Y-13598222D02*
X13593753Y-13579174D01*
X13593753Y-13579174D02*
X13612801Y-13569650D01*
X13612801Y-13569650D02*
X13650896Y-13569650D01*
X13650896Y-13569650D02*
X13669944Y-13579174D01*
X13669944Y-13579174D02*
X13679468Y-13598222D01*
X13679468Y-13598222D02*
X13679468Y-13617269D01*
X13679468Y-13617269D02*
X13584230Y-13636317D01*
X13755658Y-13693460D02*
X13774706Y-13702984D01*
X13774706Y-13702984D02*
X13812801Y-13702984D01*
X13812801Y-13702984D02*
X13831849Y-13693460D01*
X13831849Y-13693460D02*
X13841372Y-13674412D01*
X13841372Y-13674412D02*
X13841372Y-13664888D01*
X13841372Y-13664888D02*
X13831849Y-13645841D01*
X13831849Y-13645841D02*
X13812801Y-13636317D01*
X13812801Y-13636317D02*
X13784230Y-13636317D01*
X13784230Y-13636317D02*
X13765182Y-13626793D01*
X13765182Y-13626793D02*
X13755658Y-13607746D01*
X13755658Y-13607746D02*
X13755658Y-13598222D01*
X13755658Y-13598222D02*
X13765182Y-13579174D01*
X13765182Y-13579174D02*
X13784230Y-13569650D01*
X13784230Y-13569650D02*
X13812801Y-13569650D01*
X13812801Y-13569650D02*
X13831849Y-13579174D01*
X13908039Y-13779174D02*
X13917563Y-13769650D01*
X13917563Y-13769650D02*
X13936611Y-13741079D01*
X13936611Y-13741079D02*
X13946134Y-13722031D01*
X13946134Y-13722031D02*
X13955658Y-13693460D01*
X13955658Y-13693460D02*
X13965182Y-13645841D01*
X13965182Y-13645841D02*
X13965182Y-13607746D01*
X13965182Y-13607746D02*
X13955658Y-13560127D01*
X13955658Y-13560127D02*
X13946134Y-13531555D01*
X13946134Y-13531555D02*
X13936611Y-13512508D01*
X13936611Y-13512508D02*
X13917563Y-13483936D01*
X13917563Y-13483936D02*
X13908039Y-13474412D01*
D12*
X8912500Y-13845500D02*
X8912500Y-13905500D01*
X8882500Y-13875500D02*
X8942500Y-13875500D01*
D11*
X9241372Y-13766984D02*
X9260420Y-13766984D01*
X9260420Y-13766984D02*
X9279467Y-13776508D01*
X9279467Y-13776508D02*
X9288991Y-13786031D01*
X9288991Y-13786031D02*
X9298515Y-13805079D01*
X9298515Y-13805079D02*
X9308039Y-13843174D01*
X9308039Y-13843174D02*
X9308039Y-13890793D01*
X9308039Y-13890793D02*
X9298515Y-13928888D01*
X9298515Y-13928888D02*
X9288991Y-13947936D01*
X9288991Y-13947936D02*
X9279467Y-13957460D01*
X9279467Y-13957460D02*
X9260420Y-13966984D01*
X9260420Y-13966984D02*
X9241372Y-13966984D01*
X9241372Y-13966984D02*
X9222324Y-13957460D01*
X9222324Y-13957460D02*
X9212801Y-13947936D01*
X9212801Y-13947936D02*
X9203277Y-13928888D01*
X9203277Y-13928888D02*
X9193753Y-13890793D01*
X9193753Y-13890793D02*
X9193753Y-13843174D01*
X9193753Y-13843174D02*
X9203277Y-13805079D01*
X9203277Y-13805079D02*
X9212801Y-13786031D01*
X9212801Y-13786031D02*
X9222324Y-13776508D01*
X9222324Y-13776508D02*
X9241372Y-13766984D01*
X9393753Y-13947936D02*
X9403277Y-13957460D01*
X9403277Y-13957460D02*
X9393753Y-13966984D01*
X9393753Y-13966984D02*
X9384229Y-13957460D01*
X9384229Y-13957460D02*
X9393753Y-13947936D01*
X9393753Y-13947936D02*
X9393753Y-13966984D01*
X9574705Y-13766984D02*
X9536610Y-13766984D01*
X9536610Y-13766984D02*
X9517563Y-13776508D01*
X9517563Y-13776508D02*
X9508039Y-13786031D01*
X9508039Y-13786031D02*
X9488991Y-13814603D01*
X9488991Y-13814603D02*
X9479467Y-13852698D01*
X9479467Y-13852698D02*
X9479467Y-13928888D01*
X9479467Y-13928888D02*
X9488991Y-13947936D01*
X9488991Y-13947936D02*
X9498515Y-13957460D01*
X9498515Y-13957460D02*
X9517563Y-13966984D01*
X9517563Y-13966984D02*
X9555658Y-13966984D01*
X9555658Y-13966984D02*
X9574705Y-13957460D01*
X9574705Y-13957460D02*
X9584229Y-13947936D01*
X9584229Y-13947936D02*
X9593753Y-13928888D01*
X9593753Y-13928888D02*
X9593753Y-13881269D01*
X9593753Y-13881269D02*
X9584229Y-13862222D01*
X9584229Y-13862222D02*
X9574705Y-13852698D01*
X9574705Y-13852698D02*
X9555658Y-13843174D01*
X9555658Y-13843174D02*
X9517563Y-13843174D01*
X9517563Y-13843174D02*
X9498515Y-13852698D01*
X9498515Y-13852698D02*
X9488991Y-13862222D01*
X9488991Y-13862222D02*
X9479467Y-13881269D01*
X9717563Y-13766984D02*
X9736610Y-13766984D01*
X9736610Y-13766984D02*
X9755658Y-13776508D01*
X9755658Y-13776508D02*
X9765182Y-13786031D01*
X9765182Y-13786031D02*
X9774705Y-13805079D01*
X9774705Y-13805079D02*
X9784229Y-13843174D01*
X9784229Y-13843174D02*
X9784229Y-13890793D01*
X9784229Y-13890793D02*
X9774705Y-13928888D01*
X9774705Y-13928888D02*
X9765182Y-13947936D01*
X9765182Y-13947936D02*
X9755658Y-13957460D01*
X9755658Y-13957460D02*
X9736610Y-13966984D01*
X9736610Y-13966984D02*
X9717563Y-13966984D01*
X9717563Y-13966984D02*
X9698515Y-13957460D01*
X9698515Y-13957460D02*
X9688991Y-13947936D01*
X9688991Y-13947936D02*
X9679467Y-13928888D01*
X9679467Y-13928888D02*
X9669944Y-13890793D01*
X9669944Y-13890793D02*
X9669944Y-13843174D01*
X9669944Y-13843174D02*
X9679467Y-13805079D01*
X9679467Y-13805079D02*
X9688991Y-13786031D01*
X9688991Y-13786031D02*
X9698515Y-13776508D01*
X9698515Y-13776508D02*
X9717563Y-13766984D01*
X9908039Y-13766984D02*
X9927086Y-13766984D01*
X9927086Y-13766984D02*
X9946134Y-13776508D01*
X9946134Y-13776508D02*
X9955658Y-13786031D01*
X9955658Y-13786031D02*
X9965182Y-13805079D01*
X9965182Y-13805079D02*
X9974705Y-13843174D01*
X9974705Y-13843174D02*
X9974705Y-13890793D01*
X9974705Y-13890793D02*
X9965182Y-13928888D01*
X9965182Y-13928888D02*
X9955658Y-13947936D01*
X9955658Y-13947936D02*
X9946134Y-13957460D01*
X9946134Y-13957460D02*
X9927086Y-13966984D01*
X9927086Y-13966984D02*
X9908039Y-13966984D01*
X9908039Y-13966984D02*
X9888991Y-13957460D01*
X9888991Y-13957460D02*
X9879467Y-13947936D01*
X9879467Y-13947936D02*
X9869944Y-13928888D01*
X9869944Y-13928888D02*
X9860420Y-13890793D01*
X9860420Y-13890793D02*
X9860420Y-13843174D01*
X9860420Y-13843174D02*
X9869944Y-13805079D01*
X9869944Y-13805079D02*
X9879467Y-13786031D01*
X9879467Y-13786031D02*
X9888991Y-13776508D01*
X9888991Y-13776508D02*
X9908039Y-13766984D01*
X10060420Y-13966984D02*
X10060420Y-13833650D01*
X10060420Y-13852698D02*
X10069944Y-13843174D01*
X10069944Y-13843174D02*
X10088991Y-13833650D01*
X10088991Y-13833650D02*
X10117563Y-13833650D01*
X10117563Y-13833650D02*
X10136610Y-13843174D01*
X10136610Y-13843174D02*
X10146134Y-13862222D01*
X10146134Y-13862222D02*
X10146134Y-13966984D01*
X10146134Y-13862222D02*
X10155658Y-13843174D01*
X10155658Y-13843174D02*
X10174705Y-13833650D01*
X10174705Y-13833650D02*
X10203277Y-13833650D01*
X10203277Y-13833650D02*
X10222325Y-13843174D01*
X10222325Y-13843174D02*
X10231848Y-13862222D01*
X10231848Y-13862222D02*
X10231848Y-13966984D01*
X10327086Y-13966984D02*
X10327086Y-13833650D01*
X10327086Y-13852698D02*
X10336610Y-13843174D01*
X10336610Y-13843174D02*
X10355658Y-13833650D01*
X10355658Y-13833650D02*
X10384229Y-13833650D01*
X10384229Y-13833650D02*
X10403277Y-13843174D01*
X10403277Y-13843174D02*
X10412801Y-13862222D01*
X10412801Y-13862222D02*
X10412801Y-13966984D01*
X10412801Y-13862222D02*
X10422325Y-13843174D01*
X10422325Y-13843174D02*
X10441372Y-13833650D01*
X10441372Y-13833650D02*
X10469944Y-13833650D01*
X10469944Y-13833650D02*
X10488991Y-13843174D01*
X10488991Y-13843174D02*
X10498515Y-13862222D01*
X10498515Y-13862222D02*
X10498515Y-13966984D01*
X10888991Y-13757460D02*
X10717563Y-14014603D01*
X11146134Y-13766984D02*
X11165182Y-13766984D01*
X11165182Y-13766984D02*
X11184229Y-13776508D01*
X11184229Y-13776508D02*
X11193753Y-13786031D01*
X11193753Y-13786031D02*
X11203277Y-13805079D01*
X11203277Y-13805079D02*
X11212801Y-13843174D01*
X11212801Y-13843174D02*
X11212801Y-13890793D01*
X11212801Y-13890793D02*
X11203277Y-13928888D01*
X11203277Y-13928888D02*
X11193753Y-13947936D01*
X11193753Y-13947936D02*
X11184229Y-13957460D01*
X11184229Y-13957460D02*
X11165182Y-13966984D01*
X11165182Y-13966984D02*
X11146134Y-13966984D01*
X11146134Y-13966984D02*
X11127087Y-13957460D01*
X11127087Y-13957460D02*
X11117563Y-13947936D01*
X11117563Y-13947936D02*
X11108039Y-13928888D01*
X11108039Y-13928888D02*
X11098515Y-13890793D01*
X11098515Y-13890793D02*
X11098515Y-13843174D01*
X11098515Y-13843174D02*
X11108039Y-13805079D01*
X11108039Y-13805079D02*
X11117563Y-13786031D01*
X11117563Y-13786031D02*
X11127087Y-13776508D01*
X11127087Y-13776508D02*
X11146134Y-13766984D01*
X11298515Y-13947936D02*
X11308039Y-13957460D01*
X11308039Y-13957460D02*
X11298515Y-13966984D01*
X11298515Y-13966984D02*
X11288991Y-13957460D01*
X11288991Y-13957460D02*
X11298515Y-13947936D01*
X11298515Y-13947936D02*
X11298515Y-13966984D01*
X11431848Y-13766984D02*
X11450896Y-13766984D01*
X11450896Y-13766984D02*
X11469944Y-13776508D01*
X11469944Y-13776508D02*
X11479467Y-13786031D01*
X11479467Y-13786031D02*
X11488991Y-13805079D01*
X11488991Y-13805079D02*
X11498515Y-13843174D01*
X11498515Y-13843174D02*
X11498515Y-13890793D01*
X11498515Y-13890793D02*
X11488991Y-13928888D01*
X11488991Y-13928888D02*
X11479467Y-13947936D01*
X11479467Y-13947936D02*
X11469944Y-13957460D01*
X11469944Y-13957460D02*
X11450896Y-13966984D01*
X11450896Y-13966984D02*
X11431848Y-13966984D01*
X11431848Y-13966984D02*
X11412801Y-13957460D01*
X11412801Y-13957460D02*
X11403277Y-13947936D01*
X11403277Y-13947936D02*
X11393753Y-13928888D01*
X11393753Y-13928888D02*
X11384229Y-13890793D01*
X11384229Y-13890793D02*
X11384229Y-13843174D01*
X11384229Y-13843174D02*
X11393753Y-13805079D01*
X11393753Y-13805079D02*
X11403277Y-13786031D01*
X11403277Y-13786031D02*
X11412801Y-13776508D01*
X11412801Y-13776508D02*
X11431848Y-13766984D01*
X11574706Y-13786031D02*
X11584229Y-13776508D01*
X11584229Y-13776508D02*
X11603277Y-13766984D01*
X11603277Y-13766984D02*
X11650896Y-13766984D01*
X11650896Y-13766984D02*
X11669944Y-13776508D01*
X11669944Y-13776508D02*
X11679467Y-13786031D01*
X11679467Y-13786031D02*
X11688991Y-13805079D01*
X11688991Y-13805079D02*
X11688991Y-13824127D01*
X11688991Y-13824127D02*
X11679467Y-13852698D01*
X11679467Y-13852698D02*
X11565182Y-13966984D01*
X11565182Y-13966984D02*
X11688991Y-13966984D01*
X11755658Y-13766984D02*
X11879467Y-13766984D01*
X11879467Y-13766984D02*
X11812801Y-13843174D01*
X11812801Y-13843174D02*
X11841372Y-13843174D01*
X11841372Y-13843174D02*
X11860420Y-13852698D01*
X11860420Y-13852698D02*
X11869944Y-13862222D01*
X11869944Y-13862222D02*
X11879467Y-13881269D01*
X11879467Y-13881269D02*
X11879467Y-13928888D01*
X11879467Y-13928888D02*
X11869944Y-13947936D01*
X11869944Y-13947936D02*
X11860420Y-13957460D01*
X11860420Y-13957460D02*
X11841372Y-13966984D01*
X11841372Y-13966984D02*
X11784229Y-13966984D01*
X11784229Y-13966984D02*
X11765182Y-13957460D01*
X11765182Y-13957460D02*
X11755658Y-13947936D01*
X12050896Y-13766984D02*
X12012801Y-13766984D01*
X12012801Y-13766984D02*
X11993753Y-13776508D01*
X11993753Y-13776508D02*
X11984229Y-13786031D01*
X11984229Y-13786031D02*
X11965182Y-13814603D01*
X11965182Y-13814603D02*
X11955658Y-13852698D01*
X11955658Y-13852698D02*
X11955658Y-13928888D01*
X11955658Y-13928888D02*
X11965182Y-13947936D01*
X11965182Y-13947936D02*
X11974706Y-13957460D01*
X11974706Y-13957460D02*
X11993753Y-13966984D01*
X11993753Y-13966984D02*
X12031848Y-13966984D01*
X12031848Y-13966984D02*
X12050896Y-13957460D01*
X12050896Y-13957460D02*
X12060420Y-13947936D01*
X12060420Y-13947936D02*
X12069944Y-13928888D01*
X12069944Y-13928888D02*
X12069944Y-13881269D01*
X12069944Y-13881269D02*
X12060420Y-13862222D01*
X12060420Y-13862222D02*
X12050896Y-13852698D01*
X12050896Y-13852698D02*
X12031848Y-13843174D01*
X12031848Y-13843174D02*
X11993753Y-13843174D01*
X11993753Y-13843174D02*
X11974706Y-13852698D01*
X11974706Y-13852698D02*
X11965182Y-13862222D01*
X11965182Y-13862222D02*
X11955658Y-13881269D01*
X12146134Y-13766984D02*
X12146134Y-13805079D01*
X12222325Y-13766984D02*
X12222325Y-13805079D01*
X12517563Y-14043174D02*
X12508039Y-14033650D01*
X12508039Y-14033650D02*
X12488991Y-14005079D01*
X12488991Y-14005079D02*
X12479468Y-13986031D01*
X12479468Y-13986031D02*
X12469944Y-13957460D01*
X12469944Y-13957460D02*
X12460420Y-13909841D01*
X12460420Y-13909841D02*
X12460420Y-13871746D01*
X12460420Y-13871746D02*
X12469944Y-13824127D01*
X12469944Y-13824127D02*
X12479468Y-13795555D01*
X12479468Y-13795555D02*
X12488991Y-13776508D01*
X12488991Y-13776508D02*
X12508039Y-13747936D01*
X12508039Y-13747936D02*
X12517563Y-13738412D01*
X12631848Y-13766984D02*
X12650896Y-13766984D01*
X12650896Y-13766984D02*
X12669944Y-13776508D01*
X12669944Y-13776508D02*
X12679468Y-13786031D01*
X12679468Y-13786031D02*
X12688991Y-13805079D01*
X12688991Y-13805079D02*
X12698515Y-13843174D01*
X12698515Y-13843174D02*
X12698515Y-13890793D01*
X12698515Y-13890793D02*
X12688991Y-13928888D01*
X12688991Y-13928888D02*
X12679468Y-13947936D01*
X12679468Y-13947936D02*
X12669944Y-13957460D01*
X12669944Y-13957460D02*
X12650896Y-13966984D01*
X12650896Y-13966984D02*
X12631848Y-13966984D01*
X12631848Y-13966984D02*
X12612801Y-13957460D01*
X12612801Y-13957460D02*
X12603277Y-13947936D01*
X12603277Y-13947936D02*
X12593753Y-13928888D01*
X12593753Y-13928888D02*
X12584229Y-13890793D01*
X12584229Y-13890793D02*
X12584229Y-13843174D01*
X12584229Y-13843174D02*
X12593753Y-13805079D01*
X12593753Y-13805079D02*
X12603277Y-13786031D01*
X12603277Y-13786031D02*
X12612801Y-13776508D01*
X12612801Y-13776508D02*
X12631848Y-13766984D01*
X12936610Y-13966984D02*
X12936610Y-13766984D01*
X13022325Y-13966984D02*
X13022325Y-13862222D01*
X13022325Y-13862222D02*
X13012801Y-13843174D01*
X13012801Y-13843174D02*
X12993753Y-13833650D01*
X12993753Y-13833650D02*
X12965182Y-13833650D01*
X12965182Y-13833650D02*
X12946134Y-13843174D01*
X12946134Y-13843174D02*
X12936610Y-13852698D01*
X13146134Y-13966984D02*
X13127087Y-13957460D01*
X13127087Y-13957460D02*
X13117563Y-13947936D01*
X13117563Y-13947936D02*
X13108039Y-13928888D01*
X13108039Y-13928888D02*
X13108039Y-13871746D01*
X13108039Y-13871746D02*
X13117563Y-13852698D01*
X13117563Y-13852698D02*
X13127087Y-13843174D01*
X13127087Y-13843174D02*
X13146134Y-13833650D01*
X13146134Y-13833650D02*
X13174706Y-13833650D01*
X13174706Y-13833650D02*
X13193753Y-13843174D01*
X13193753Y-13843174D02*
X13203277Y-13852698D01*
X13203277Y-13852698D02*
X13212801Y-13871746D01*
X13212801Y-13871746D02*
X13212801Y-13928888D01*
X13212801Y-13928888D02*
X13203277Y-13947936D01*
X13203277Y-13947936D02*
X13193753Y-13957460D01*
X13193753Y-13957460D02*
X13174706Y-13966984D01*
X13174706Y-13966984D02*
X13146134Y-13966984D01*
X13327087Y-13966984D02*
X13308039Y-13957460D01*
X13308039Y-13957460D02*
X13298515Y-13938412D01*
X13298515Y-13938412D02*
X13298515Y-13766984D01*
X13479468Y-13957460D02*
X13460420Y-13966984D01*
X13460420Y-13966984D02*
X13422325Y-13966984D01*
X13422325Y-13966984D02*
X13403277Y-13957460D01*
X13403277Y-13957460D02*
X13393753Y-13938412D01*
X13393753Y-13938412D02*
X13393753Y-13862222D01*
X13393753Y-13862222D02*
X13403277Y-13843174D01*
X13403277Y-13843174D02*
X13422325Y-13833650D01*
X13422325Y-13833650D02*
X13460420Y-13833650D01*
X13460420Y-13833650D02*
X13479468Y-13843174D01*
X13479468Y-13843174D02*
X13488991Y-13862222D01*
X13488991Y-13862222D02*
X13488991Y-13881269D01*
X13488991Y-13881269D02*
X13393753Y-13900317D01*
X13565182Y-13957460D02*
X13584230Y-13966984D01*
X13584230Y-13966984D02*
X13622325Y-13966984D01*
X13622325Y-13966984D02*
X13641372Y-13957460D01*
X13641372Y-13957460D02*
X13650896Y-13938412D01*
X13650896Y-13938412D02*
X13650896Y-13928888D01*
X13650896Y-13928888D02*
X13641372Y-13909841D01*
X13641372Y-13909841D02*
X13622325Y-13900317D01*
X13622325Y-13900317D02*
X13593753Y-13900317D01*
X13593753Y-13900317D02*
X13574706Y-13890793D01*
X13574706Y-13890793D02*
X13565182Y-13871746D01*
X13565182Y-13871746D02*
X13565182Y-13862222D01*
X13565182Y-13862222D02*
X13574706Y-13843174D01*
X13574706Y-13843174D02*
X13593753Y-13833650D01*
X13593753Y-13833650D02*
X13622325Y-13833650D01*
X13622325Y-13833650D02*
X13641372Y-13843174D01*
X13888992Y-13890793D02*
X14041373Y-13890793D01*
X13965182Y-13966984D02*
X13965182Y-13814603D01*
X14374706Y-13833650D02*
X14374706Y-13966984D01*
X14327087Y-13757460D02*
X14279468Y-13900317D01*
X14279468Y-13900317D02*
X14403277Y-13900317D01*
X14622325Y-13957460D02*
X14641373Y-13966984D01*
X14641373Y-13966984D02*
X14679468Y-13966984D01*
X14679468Y-13966984D02*
X14698515Y-13957460D01*
X14698515Y-13957460D02*
X14708039Y-13938412D01*
X14708039Y-13938412D02*
X14708039Y-13928888D01*
X14708039Y-13928888D02*
X14698515Y-13909841D01*
X14698515Y-13909841D02*
X14679468Y-13900317D01*
X14679468Y-13900317D02*
X14650896Y-13900317D01*
X14650896Y-13900317D02*
X14631849Y-13890793D01*
X14631849Y-13890793D02*
X14622325Y-13871746D01*
X14622325Y-13871746D02*
X14622325Y-13862222D01*
X14622325Y-13862222D02*
X14631849Y-13843174D01*
X14631849Y-13843174D02*
X14650896Y-13833650D01*
X14650896Y-13833650D02*
X14679468Y-13833650D01*
X14679468Y-13833650D02*
X14698515Y-13843174D01*
X14822325Y-13966984D02*
X14803277Y-13957460D01*
X14803277Y-13957460D02*
X14793754Y-13938412D01*
X14793754Y-13938412D02*
X14793754Y-13766984D01*
X14927087Y-13966984D02*
X14908039Y-13957460D01*
X14908039Y-13957460D02*
X14898515Y-13947936D01*
X14898515Y-13947936D02*
X14888992Y-13928888D01*
X14888992Y-13928888D02*
X14888992Y-13871746D01*
X14888992Y-13871746D02*
X14898515Y-13852698D01*
X14898515Y-13852698D02*
X14908039Y-13843174D01*
X14908039Y-13843174D02*
X14927087Y-13833650D01*
X14927087Y-13833650D02*
X14955658Y-13833650D01*
X14955658Y-13833650D02*
X14974706Y-13843174D01*
X14974706Y-13843174D02*
X14984230Y-13852698D01*
X14984230Y-13852698D02*
X14993754Y-13871746D01*
X14993754Y-13871746D02*
X14993754Y-13928888D01*
X14993754Y-13928888D02*
X14984230Y-13947936D01*
X14984230Y-13947936D02*
X14974706Y-13957460D01*
X14974706Y-13957460D02*
X14955658Y-13966984D01*
X14955658Y-13966984D02*
X14927087Y-13966984D01*
X15050896Y-13833650D02*
X15127087Y-13833650D01*
X15079468Y-13766984D02*
X15079468Y-13938412D01*
X15079468Y-13938412D02*
X15088992Y-13957460D01*
X15088992Y-13957460D02*
X15108039Y-13966984D01*
X15108039Y-13966984D02*
X15127087Y-13966984D01*
X15184230Y-13957460D02*
X15203277Y-13966984D01*
X15203277Y-13966984D02*
X15241373Y-13966984D01*
X15241373Y-13966984D02*
X15260420Y-13957460D01*
X15260420Y-13957460D02*
X15269944Y-13938412D01*
X15269944Y-13938412D02*
X15269944Y-13928888D01*
X15269944Y-13928888D02*
X15260420Y-13909841D01*
X15260420Y-13909841D02*
X15241373Y-13900317D01*
X15241373Y-13900317D02*
X15212801Y-13900317D01*
X15212801Y-13900317D02*
X15193754Y-13890793D01*
X15193754Y-13890793D02*
X15184230Y-13871746D01*
X15184230Y-13871746D02*
X15184230Y-13862222D01*
X15184230Y-13862222D02*
X15193754Y-13843174D01*
X15193754Y-13843174D02*
X15212801Y-13833650D01*
X15212801Y-13833650D02*
X15241373Y-13833650D01*
X15241373Y-13833650D02*
X15260420Y-13843174D01*
X15336611Y-14043174D02*
X15346135Y-14033650D01*
X15346135Y-14033650D02*
X15365182Y-14005079D01*
X15365182Y-14005079D02*
X15374706Y-13986031D01*
X15374706Y-13986031D02*
X15384230Y-13957460D01*
X15384230Y-13957460D02*
X15393754Y-13909841D01*
X15393754Y-13909841D02*
X15393754Y-13871746D01*
X15393754Y-13871746D02*
X15384230Y-13824127D01*
X15384230Y-13824127D02*
X15374706Y-13795555D01*
X15374706Y-13795555D02*
X15365182Y-13776508D01*
X15365182Y-13776508D02*
X15346135Y-13747936D01*
X15346135Y-13747936D02*
X15336611Y-13738412D01*
D12*
X8931517Y-14166017D02*
X8931517Y-14112983D01*
X8878483Y-14112983D01*
X8878483Y-14166017D01*
X8931517Y-14166017D01*
D11*
X9241372Y-14030984D02*
X9260420Y-14030984D01*
X9260420Y-14030984D02*
X9279467Y-14040508D01*
X9279467Y-14040508D02*
X9288991Y-14050031D01*
X9288991Y-14050031D02*
X9298515Y-14069079D01*
X9298515Y-14069079D02*
X9308039Y-14107174D01*
X9308039Y-14107174D02*
X9308039Y-14154793D01*
X9308039Y-14154793D02*
X9298515Y-14192888D01*
X9298515Y-14192888D02*
X9288991Y-14211936D01*
X9288991Y-14211936D02*
X9279467Y-14221460D01*
X9279467Y-14221460D02*
X9260420Y-14230984D01*
X9260420Y-14230984D02*
X9241372Y-14230984D01*
X9241372Y-14230984D02*
X9222324Y-14221460D01*
X9222324Y-14221460D02*
X9212801Y-14211936D01*
X9212801Y-14211936D02*
X9203277Y-14192888D01*
X9203277Y-14192888D02*
X9193753Y-14154793D01*
X9193753Y-14154793D02*
X9193753Y-14107174D01*
X9193753Y-14107174D02*
X9203277Y-14069079D01*
X9203277Y-14069079D02*
X9212801Y-14050031D01*
X9212801Y-14050031D02*
X9222324Y-14040508D01*
X9222324Y-14040508D02*
X9241372Y-14030984D01*
X9393753Y-14211936D02*
X9403277Y-14221460D01*
X9403277Y-14221460D02*
X9393753Y-14230984D01*
X9393753Y-14230984D02*
X9384229Y-14221460D01*
X9384229Y-14221460D02*
X9393753Y-14211936D01*
X9393753Y-14211936D02*
X9393753Y-14230984D01*
X9469944Y-14030984D02*
X9603277Y-14030984D01*
X9603277Y-14030984D02*
X9517563Y-14230984D01*
X9774705Y-14030984D02*
X9679467Y-14030984D01*
X9679467Y-14030984D02*
X9669944Y-14126222D01*
X9669944Y-14126222D02*
X9679467Y-14116698D01*
X9679467Y-14116698D02*
X9698515Y-14107174D01*
X9698515Y-14107174D02*
X9746134Y-14107174D01*
X9746134Y-14107174D02*
X9765182Y-14116698D01*
X9765182Y-14116698D02*
X9774705Y-14126222D01*
X9774705Y-14126222D02*
X9784229Y-14145269D01*
X9784229Y-14145269D02*
X9784229Y-14192888D01*
X9784229Y-14192888D02*
X9774705Y-14211936D01*
X9774705Y-14211936D02*
X9765182Y-14221460D01*
X9765182Y-14221460D02*
X9746134Y-14230984D01*
X9746134Y-14230984D02*
X9698515Y-14230984D01*
X9698515Y-14230984D02*
X9679467Y-14221460D01*
X9679467Y-14221460D02*
X9669944Y-14211936D01*
X9908039Y-14030984D02*
X9927086Y-14030984D01*
X9927086Y-14030984D02*
X9946134Y-14040508D01*
X9946134Y-14040508D02*
X9955658Y-14050031D01*
X9955658Y-14050031D02*
X9965182Y-14069079D01*
X9965182Y-14069079D02*
X9974705Y-14107174D01*
X9974705Y-14107174D02*
X9974705Y-14154793D01*
X9974705Y-14154793D02*
X9965182Y-14192888D01*
X9965182Y-14192888D02*
X9955658Y-14211936D01*
X9955658Y-14211936D02*
X9946134Y-14221460D01*
X9946134Y-14221460D02*
X9927086Y-14230984D01*
X9927086Y-14230984D02*
X9908039Y-14230984D01*
X9908039Y-14230984D02*
X9888991Y-14221460D01*
X9888991Y-14221460D02*
X9879467Y-14211936D01*
X9879467Y-14211936D02*
X9869944Y-14192888D01*
X9869944Y-14192888D02*
X9860420Y-14154793D01*
X9860420Y-14154793D02*
X9860420Y-14107174D01*
X9860420Y-14107174D02*
X9869944Y-14069079D01*
X9869944Y-14069079D02*
X9879467Y-14050031D01*
X9879467Y-14050031D02*
X9888991Y-14040508D01*
X9888991Y-14040508D02*
X9908039Y-14030984D01*
X10060420Y-14230984D02*
X10060420Y-14097650D01*
X10060420Y-14116698D02*
X10069944Y-14107174D01*
X10069944Y-14107174D02*
X10088991Y-14097650D01*
X10088991Y-14097650D02*
X10117563Y-14097650D01*
X10117563Y-14097650D02*
X10136610Y-14107174D01*
X10136610Y-14107174D02*
X10146134Y-14126222D01*
X10146134Y-14126222D02*
X10146134Y-14230984D01*
X10146134Y-14126222D02*
X10155658Y-14107174D01*
X10155658Y-14107174D02*
X10174705Y-14097650D01*
X10174705Y-14097650D02*
X10203277Y-14097650D01*
X10203277Y-14097650D02*
X10222325Y-14107174D01*
X10222325Y-14107174D02*
X10231848Y-14126222D01*
X10231848Y-14126222D02*
X10231848Y-14230984D01*
X10327086Y-14230984D02*
X10327086Y-14097650D01*
X10327086Y-14116698D02*
X10336610Y-14107174D01*
X10336610Y-14107174D02*
X10355658Y-14097650D01*
X10355658Y-14097650D02*
X10384229Y-14097650D01*
X10384229Y-14097650D02*
X10403277Y-14107174D01*
X10403277Y-14107174D02*
X10412801Y-14126222D01*
X10412801Y-14126222D02*
X10412801Y-14230984D01*
X10412801Y-14126222D02*
X10422325Y-14107174D01*
X10422325Y-14107174D02*
X10441372Y-14097650D01*
X10441372Y-14097650D02*
X10469944Y-14097650D01*
X10469944Y-14097650D02*
X10488991Y-14107174D01*
X10488991Y-14107174D02*
X10498515Y-14126222D01*
X10498515Y-14126222D02*
X10498515Y-14230984D01*
X10888991Y-14021460D02*
X10717563Y-14278603D01*
X11146134Y-14030984D02*
X11165182Y-14030984D01*
X11165182Y-14030984D02*
X11184229Y-14040508D01*
X11184229Y-14040508D02*
X11193753Y-14050031D01*
X11193753Y-14050031D02*
X11203277Y-14069079D01*
X11203277Y-14069079D02*
X11212801Y-14107174D01*
X11212801Y-14107174D02*
X11212801Y-14154793D01*
X11212801Y-14154793D02*
X11203277Y-14192888D01*
X11203277Y-14192888D02*
X11193753Y-14211936D01*
X11193753Y-14211936D02*
X11184229Y-14221460D01*
X11184229Y-14221460D02*
X11165182Y-14230984D01*
X11165182Y-14230984D02*
X11146134Y-14230984D01*
X11146134Y-14230984D02*
X11127087Y-14221460D01*
X11127087Y-14221460D02*
X11117563Y-14211936D01*
X11117563Y-14211936D02*
X11108039Y-14192888D01*
X11108039Y-14192888D02*
X11098515Y-14154793D01*
X11098515Y-14154793D02*
X11098515Y-14107174D01*
X11098515Y-14107174D02*
X11108039Y-14069079D01*
X11108039Y-14069079D02*
X11117563Y-14050031D01*
X11117563Y-14050031D02*
X11127087Y-14040508D01*
X11127087Y-14040508D02*
X11146134Y-14030984D01*
X11298515Y-14211936D02*
X11308039Y-14221460D01*
X11308039Y-14221460D02*
X11298515Y-14230984D01*
X11298515Y-14230984D02*
X11288991Y-14221460D01*
X11288991Y-14221460D02*
X11298515Y-14211936D01*
X11298515Y-14211936D02*
X11298515Y-14230984D01*
X11431848Y-14030984D02*
X11450896Y-14030984D01*
X11450896Y-14030984D02*
X11469944Y-14040508D01*
X11469944Y-14040508D02*
X11479467Y-14050031D01*
X11479467Y-14050031D02*
X11488991Y-14069079D01*
X11488991Y-14069079D02*
X11498515Y-14107174D01*
X11498515Y-14107174D02*
X11498515Y-14154793D01*
X11498515Y-14154793D02*
X11488991Y-14192888D01*
X11488991Y-14192888D02*
X11479467Y-14211936D01*
X11479467Y-14211936D02*
X11469944Y-14221460D01*
X11469944Y-14221460D02*
X11450896Y-14230984D01*
X11450896Y-14230984D02*
X11431848Y-14230984D01*
X11431848Y-14230984D02*
X11412801Y-14221460D01*
X11412801Y-14221460D02*
X11403277Y-14211936D01*
X11403277Y-14211936D02*
X11393753Y-14192888D01*
X11393753Y-14192888D02*
X11384229Y-14154793D01*
X11384229Y-14154793D02*
X11384229Y-14107174D01*
X11384229Y-14107174D02*
X11393753Y-14069079D01*
X11393753Y-14069079D02*
X11403277Y-14050031D01*
X11403277Y-14050031D02*
X11412801Y-14040508D01*
X11412801Y-14040508D02*
X11431848Y-14030984D01*
X11574706Y-14050031D02*
X11584229Y-14040508D01*
X11584229Y-14040508D02*
X11603277Y-14030984D01*
X11603277Y-14030984D02*
X11650896Y-14030984D01*
X11650896Y-14030984D02*
X11669944Y-14040508D01*
X11669944Y-14040508D02*
X11679467Y-14050031D01*
X11679467Y-14050031D02*
X11688991Y-14069079D01*
X11688991Y-14069079D02*
X11688991Y-14088127D01*
X11688991Y-14088127D02*
X11679467Y-14116698D01*
X11679467Y-14116698D02*
X11565182Y-14230984D01*
X11565182Y-14230984D02*
X11688991Y-14230984D01*
X11784229Y-14230984D02*
X11822325Y-14230984D01*
X11822325Y-14230984D02*
X11841372Y-14221460D01*
X11841372Y-14221460D02*
X11850896Y-14211936D01*
X11850896Y-14211936D02*
X11869944Y-14183365D01*
X11869944Y-14183365D02*
X11879467Y-14145269D01*
X11879467Y-14145269D02*
X11879467Y-14069079D01*
X11879467Y-14069079D02*
X11869944Y-14050031D01*
X11869944Y-14050031D02*
X11860420Y-14040508D01*
X11860420Y-14040508D02*
X11841372Y-14030984D01*
X11841372Y-14030984D02*
X11803277Y-14030984D01*
X11803277Y-14030984D02*
X11784229Y-14040508D01*
X11784229Y-14040508D02*
X11774706Y-14050031D01*
X11774706Y-14050031D02*
X11765182Y-14069079D01*
X11765182Y-14069079D02*
X11765182Y-14116698D01*
X11765182Y-14116698D02*
X11774706Y-14135746D01*
X11774706Y-14135746D02*
X11784229Y-14145269D01*
X11784229Y-14145269D02*
X11803277Y-14154793D01*
X11803277Y-14154793D02*
X11841372Y-14154793D01*
X11841372Y-14154793D02*
X11860420Y-14145269D01*
X11860420Y-14145269D02*
X11869944Y-14135746D01*
X11869944Y-14135746D02*
X11879467Y-14116698D01*
X12060420Y-14030984D02*
X11965182Y-14030984D01*
X11965182Y-14030984D02*
X11955658Y-14126222D01*
X11955658Y-14126222D02*
X11965182Y-14116698D01*
X11965182Y-14116698D02*
X11984229Y-14107174D01*
X11984229Y-14107174D02*
X12031848Y-14107174D01*
X12031848Y-14107174D02*
X12050896Y-14116698D01*
X12050896Y-14116698D02*
X12060420Y-14126222D01*
X12060420Y-14126222D02*
X12069944Y-14145269D01*
X12069944Y-14145269D02*
X12069944Y-14192888D01*
X12069944Y-14192888D02*
X12060420Y-14211936D01*
X12060420Y-14211936D02*
X12050896Y-14221460D01*
X12050896Y-14221460D02*
X12031848Y-14230984D01*
X12031848Y-14230984D02*
X11984229Y-14230984D01*
X11984229Y-14230984D02*
X11965182Y-14221460D01*
X11965182Y-14221460D02*
X11955658Y-14211936D01*
X12146134Y-14030984D02*
X12146134Y-14069079D01*
X12222325Y-14030984D02*
X12222325Y-14069079D01*
X12517563Y-14307174D02*
X12508039Y-14297650D01*
X12508039Y-14297650D02*
X12488991Y-14269079D01*
X12488991Y-14269079D02*
X12479468Y-14250031D01*
X12479468Y-14250031D02*
X12469944Y-14221460D01*
X12469944Y-14221460D02*
X12460420Y-14173841D01*
X12460420Y-14173841D02*
X12460420Y-14135746D01*
X12460420Y-14135746D02*
X12469944Y-14088127D01*
X12469944Y-14088127D02*
X12479468Y-14059555D01*
X12479468Y-14059555D02*
X12488991Y-14040508D01*
X12488991Y-14040508D02*
X12508039Y-14011936D01*
X12508039Y-14011936D02*
X12517563Y-14002412D01*
X12679468Y-14097650D02*
X12679468Y-14230984D01*
X12631848Y-14021460D02*
X12584229Y-14164317D01*
X12584229Y-14164317D02*
X12708039Y-14164317D01*
X12936610Y-14230984D02*
X12936610Y-14030984D01*
X13022325Y-14230984D02*
X13022325Y-14126222D01*
X13022325Y-14126222D02*
X13012801Y-14107174D01*
X13012801Y-14107174D02*
X12993753Y-14097650D01*
X12993753Y-14097650D02*
X12965182Y-14097650D01*
X12965182Y-14097650D02*
X12946134Y-14107174D01*
X12946134Y-14107174D02*
X12936610Y-14116698D01*
X13146134Y-14230984D02*
X13127087Y-14221460D01*
X13127087Y-14221460D02*
X13117563Y-14211936D01*
X13117563Y-14211936D02*
X13108039Y-14192888D01*
X13108039Y-14192888D02*
X13108039Y-14135746D01*
X13108039Y-14135746D02*
X13117563Y-14116698D01*
X13117563Y-14116698D02*
X13127087Y-14107174D01*
X13127087Y-14107174D02*
X13146134Y-14097650D01*
X13146134Y-14097650D02*
X13174706Y-14097650D01*
X13174706Y-14097650D02*
X13193753Y-14107174D01*
X13193753Y-14107174D02*
X13203277Y-14116698D01*
X13203277Y-14116698D02*
X13212801Y-14135746D01*
X13212801Y-14135746D02*
X13212801Y-14192888D01*
X13212801Y-14192888D02*
X13203277Y-14211936D01*
X13203277Y-14211936D02*
X13193753Y-14221460D01*
X13193753Y-14221460D02*
X13174706Y-14230984D01*
X13174706Y-14230984D02*
X13146134Y-14230984D01*
X13327087Y-14230984D02*
X13308039Y-14221460D01*
X13308039Y-14221460D02*
X13298515Y-14202412D01*
X13298515Y-14202412D02*
X13298515Y-14030984D01*
X13479468Y-14221460D02*
X13460420Y-14230984D01*
X13460420Y-14230984D02*
X13422325Y-14230984D01*
X13422325Y-14230984D02*
X13403277Y-14221460D01*
X13403277Y-14221460D02*
X13393753Y-14202412D01*
X13393753Y-14202412D02*
X13393753Y-14126222D01*
X13393753Y-14126222D02*
X13403277Y-14107174D01*
X13403277Y-14107174D02*
X13422325Y-14097650D01*
X13422325Y-14097650D02*
X13460420Y-14097650D01*
X13460420Y-14097650D02*
X13479468Y-14107174D01*
X13479468Y-14107174D02*
X13488991Y-14126222D01*
X13488991Y-14126222D02*
X13488991Y-14145269D01*
X13488991Y-14145269D02*
X13393753Y-14164317D01*
X13565182Y-14221460D02*
X13584230Y-14230984D01*
X13584230Y-14230984D02*
X13622325Y-14230984D01*
X13622325Y-14230984D02*
X13641372Y-14221460D01*
X13641372Y-14221460D02*
X13650896Y-14202412D01*
X13650896Y-14202412D02*
X13650896Y-14192888D01*
X13650896Y-14192888D02*
X13641372Y-14173841D01*
X13641372Y-14173841D02*
X13622325Y-14164317D01*
X13622325Y-14164317D02*
X13593753Y-14164317D01*
X13593753Y-14164317D02*
X13574706Y-14154793D01*
X13574706Y-14154793D02*
X13565182Y-14135746D01*
X13565182Y-14135746D02*
X13565182Y-14126222D01*
X13565182Y-14126222D02*
X13574706Y-14107174D01*
X13574706Y-14107174D02*
X13593753Y-14097650D01*
X13593753Y-14097650D02*
X13622325Y-14097650D01*
X13622325Y-14097650D02*
X13641372Y-14107174D01*
X13717563Y-14307174D02*
X13727087Y-14297650D01*
X13727087Y-14297650D02*
X13746134Y-14269079D01*
X13746134Y-14269079D02*
X13755658Y-14250031D01*
X13755658Y-14250031D02*
X13765182Y-14221460D01*
X13765182Y-14221460D02*
X13774706Y-14173841D01*
X13774706Y-14173841D02*
X13774706Y-14135746D01*
X13774706Y-14135746D02*
X13765182Y-14088127D01*
X13765182Y-14088127D02*
X13755658Y-14059555D01*
X13755658Y-14059555D02*
X13746134Y-14040508D01*
X13746134Y-14040508D02*
X13727087Y-14011936D01*
X13727087Y-14011936D02*
X13717563Y-14002412D01*
D12*
X8892500Y-14453500D02*
X8942500Y-14403500D01*
X8892500Y-14353500D01*
X8842500Y-14403500D01*
X8892500Y-14453500D01*
D11*
X9308039Y-14494984D02*
X9193753Y-14494984D01*
X9250896Y-14494984D02*
X9250896Y-14294984D01*
X9250896Y-14294984D02*
X9231848Y-14323555D01*
X9231848Y-14323555D02*
X9212801Y-14342603D01*
X9212801Y-14342603D02*
X9193753Y-14352127D01*
X9393753Y-14475936D02*
X9403277Y-14485460D01*
X9403277Y-14485460D02*
X9393753Y-14494984D01*
X9393753Y-14494984D02*
X9384229Y-14485460D01*
X9384229Y-14485460D02*
X9393753Y-14475936D01*
X9393753Y-14475936D02*
X9393753Y-14494984D01*
X9527086Y-14294984D02*
X9546134Y-14294984D01*
X9546134Y-14294984D02*
X9565182Y-14304508D01*
X9565182Y-14304508D02*
X9574705Y-14314031D01*
X9574705Y-14314031D02*
X9584229Y-14333079D01*
X9584229Y-14333079D02*
X9593753Y-14371174D01*
X9593753Y-14371174D02*
X9593753Y-14418793D01*
X9593753Y-14418793D02*
X9584229Y-14456888D01*
X9584229Y-14456888D02*
X9574705Y-14475936D01*
X9574705Y-14475936D02*
X9565182Y-14485460D01*
X9565182Y-14485460D02*
X9546134Y-14494984D01*
X9546134Y-14494984D02*
X9527086Y-14494984D01*
X9527086Y-14494984D02*
X9508039Y-14485460D01*
X9508039Y-14485460D02*
X9498515Y-14475936D01*
X9498515Y-14475936D02*
X9488991Y-14456888D01*
X9488991Y-14456888D02*
X9479467Y-14418793D01*
X9479467Y-14418793D02*
X9479467Y-14371174D01*
X9479467Y-14371174D02*
X9488991Y-14333079D01*
X9488991Y-14333079D02*
X9498515Y-14314031D01*
X9498515Y-14314031D02*
X9508039Y-14304508D01*
X9508039Y-14304508D02*
X9527086Y-14294984D01*
X9717563Y-14294984D02*
X9736610Y-14294984D01*
X9736610Y-14294984D02*
X9755658Y-14304508D01*
X9755658Y-14304508D02*
X9765182Y-14314031D01*
X9765182Y-14314031D02*
X9774705Y-14333079D01*
X9774705Y-14333079D02*
X9784229Y-14371174D01*
X9784229Y-14371174D02*
X9784229Y-14418793D01*
X9784229Y-14418793D02*
X9774705Y-14456888D01*
X9774705Y-14456888D02*
X9765182Y-14475936D01*
X9765182Y-14475936D02*
X9755658Y-14485460D01*
X9755658Y-14485460D02*
X9736610Y-14494984D01*
X9736610Y-14494984D02*
X9717563Y-14494984D01*
X9717563Y-14494984D02*
X9698515Y-14485460D01*
X9698515Y-14485460D02*
X9688991Y-14475936D01*
X9688991Y-14475936D02*
X9679467Y-14456888D01*
X9679467Y-14456888D02*
X9669944Y-14418793D01*
X9669944Y-14418793D02*
X9669944Y-14371174D01*
X9669944Y-14371174D02*
X9679467Y-14333079D01*
X9679467Y-14333079D02*
X9688991Y-14314031D01*
X9688991Y-14314031D02*
X9698515Y-14304508D01*
X9698515Y-14304508D02*
X9717563Y-14294984D01*
X9908039Y-14294984D02*
X9927086Y-14294984D01*
X9927086Y-14294984D02*
X9946134Y-14304508D01*
X9946134Y-14304508D02*
X9955658Y-14314031D01*
X9955658Y-14314031D02*
X9965182Y-14333079D01*
X9965182Y-14333079D02*
X9974705Y-14371174D01*
X9974705Y-14371174D02*
X9974705Y-14418793D01*
X9974705Y-14418793D02*
X9965182Y-14456888D01*
X9965182Y-14456888D02*
X9955658Y-14475936D01*
X9955658Y-14475936D02*
X9946134Y-14485460D01*
X9946134Y-14485460D02*
X9927086Y-14494984D01*
X9927086Y-14494984D02*
X9908039Y-14494984D01*
X9908039Y-14494984D02*
X9888991Y-14485460D01*
X9888991Y-14485460D02*
X9879467Y-14475936D01*
X9879467Y-14475936D02*
X9869944Y-14456888D01*
X9869944Y-14456888D02*
X9860420Y-14418793D01*
X9860420Y-14418793D02*
X9860420Y-14371174D01*
X9860420Y-14371174D02*
X9869944Y-14333079D01*
X9869944Y-14333079D02*
X9879467Y-14314031D01*
X9879467Y-14314031D02*
X9888991Y-14304508D01*
X9888991Y-14304508D02*
X9908039Y-14294984D01*
X10060420Y-14494984D02*
X10060420Y-14361650D01*
X10060420Y-14380698D02*
X10069944Y-14371174D01*
X10069944Y-14371174D02*
X10088991Y-14361650D01*
X10088991Y-14361650D02*
X10117563Y-14361650D01*
X10117563Y-14361650D02*
X10136610Y-14371174D01*
X10136610Y-14371174D02*
X10146134Y-14390222D01*
X10146134Y-14390222D02*
X10146134Y-14494984D01*
X10146134Y-14390222D02*
X10155658Y-14371174D01*
X10155658Y-14371174D02*
X10174705Y-14361650D01*
X10174705Y-14361650D02*
X10203277Y-14361650D01*
X10203277Y-14361650D02*
X10222325Y-14371174D01*
X10222325Y-14371174D02*
X10231848Y-14390222D01*
X10231848Y-14390222D02*
X10231848Y-14494984D01*
X10327086Y-14494984D02*
X10327086Y-14361650D01*
X10327086Y-14380698D02*
X10336610Y-14371174D01*
X10336610Y-14371174D02*
X10355658Y-14361650D01*
X10355658Y-14361650D02*
X10384229Y-14361650D01*
X10384229Y-14361650D02*
X10403277Y-14371174D01*
X10403277Y-14371174D02*
X10412801Y-14390222D01*
X10412801Y-14390222D02*
X10412801Y-14494984D01*
X10412801Y-14390222D02*
X10422325Y-14371174D01*
X10422325Y-14371174D02*
X10441372Y-14361650D01*
X10441372Y-14361650D02*
X10469944Y-14361650D01*
X10469944Y-14361650D02*
X10488991Y-14371174D01*
X10488991Y-14371174D02*
X10498515Y-14390222D01*
X10498515Y-14390222D02*
X10498515Y-14494984D01*
X10888991Y-14285460D02*
X10717563Y-14542603D01*
X11146134Y-14294984D02*
X11165182Y-14294984D01*
X11165182Y-14294984D02*
X11184229Y-14304508D01*
X11184229Y-14304508D02*
X11193753Y-14314031D01*
X11193753Y-14314031D02*
X11203277Y-14333079D01*
X11203277Y-14333079D02*
X11212801Y-14371174D01*
X11212801Y-14371174D02*
X11212801Y-14418793D01*
X11212801Y-14418793D02*
X11203277Y-14456888D01*
X11203277Y-14456888D02*
X11193753Y-14475936D01*
X11193753Y-14475936D02*
X11184229Y-14485460D01*
X11184229Y-14485460D02*
X11165182Y-14494984D01*
X11165182Y-14494984D02*
X11146134Y-14494984D01*
X11146134Y-14494984D02*
X11127087Y-14485460D01*
X11127087Y-14485460D02*
X11117563Y-14475936D01*
X11117563Y-14475936D02*
X11108039Y-14456888D01*
X11108039Y-14456888D02*
X11098515Y-14418793D01*
X11098515Y-14418793D02*
X11098515Y-14371174D01*
X11098515Y-14371174D02*
X11108039Y-14333079D01*
X11108039Y-14333079D02*
X11117563Y-14314031D01*
X11117563Y-14314031D02*
X11127087Y-14304508D01*
X11127087Y-14304508D02*
X11146134Y-14294984D01*
X11298515Y-14475936D02*
X11308039Y-14485460D01*
X11308039Y-14485460D02*
X11298515Y-14494984D01*
X11298515Y-14494984D02*
X11288991Y-14485460D01*
X11288991Y-14485460D02*
X11298515Y-14475936D01*
X11298515Y-14475936D02*
X11298515Y-14494984D01*
X11431848Y-14294984D02*
X11450896Y-14294984D01*
X11450896Y-14294984D02*
X11469944Y-14304508D01*
X11469944Y-14304508D02*
X11479467Y-14314031D01*
X11479467Y-14314031D02*
X11488991Y-14333079D01*
X11488991Y-14333079D02*
X11498515Y-14371174D01*
X11498515Y-14371174D02*
X11498515Y-14418793D01*
X11498515Y-14418793D02*
X11488991Y-14456888D01*
X11488991Y-14456888D02*
X11479467Y-14475936D01*
X11479467Y-14475936D02*
X11469944Y-14485460D01*
X11469944Y-14485460D02*
X11450896Y-14494984D01*
X11450896Y-14494984D02*
X11431848Y-14494984D01*
X11431848Y-14494984D02*
X11412801Y-14485460D01*
X11412801Y-14485460D02*
X11403277Y-14475936D01*
X11403277Y-14475936D02*
X11393753Y-14456888D01*
X11393753Y-14456888D02*
X11384229Y-14418793D01*
X11384229Y-14418793D02*
X11384229Y-14371174D01*
X11384229Y-14371174D02*
X11393753Y-14333079D01*
X11393753Y-14333079D02*
X11403277Y-14314031D01*
X11403277Y-14314031D02*
X11412801Y-14304508D01*
X11412801Y-14304508D02*
X11431848Y-14294984D01*
X11565182Y-14294984D02*
X11688991Y-14294984D01*
X11688991Y-14294984D02*
X11622325Y-14371174D01*
X11622325Y-14371174D02*
X11650896Y-14371174D01*
X11650896Y-14371174D02*
X11669944Y-14380698D01*
X11669944Y-14380698D02*
X11679467Y-14390222D01*
X11679467Y-14390222D02*
X11688991Y-14409269D01*
X11688991Y-14409269D02*
X11688991Y-14456888D01*
X11688991Y-14456888D02*
X11679467Y-14475936D01*
X11679467Y-14475936D02*
X11669944Y-14485460D01*
X11669944Y-14485460D02*
X11650896Y-14494984D01*
X11650896Y-14494984D02*
X11593753Y-14494984D01*
X11593753Y-14494984D02*
X11574706Y-14485460D01*
X11574706Y-14485460D02*
X11565182Y-14475936D01*
X11784229Y-14494984D02*
X11822325Y-14494984D01*
X11822325Y-14494984D02*
X11841372Y-14485460D01*
X11841372Y-14485460D02*
X11850896Y-14475936D01*
X11850896Y-14475936D02*
X11869944Y-14447365D01*
X11869944Y-14447365D02*
X11879467Y-14409269D01*
X11879467Y-14409269D02*
X11879467Y-14333079D01*
X11879467Y-14333079D02*
X11869944Y-14314031D01*
X11869944Y-14314031D02*
X11860420Y-14304508D01*
X11860420Y-14304508D02*
X11841372Y-14294984D01*
X11841372Y-14294984D02*
X11803277Y-14294984D01*
X11803277Y-14294984D02*
X11784229Y-14304508D01*
X11784229Y-14304508D02*
X11774706Y-14314031D01*
X11774706Y-14314031D02*
X11765182Y-14333079D01*
X11765182Y-14333079D02*
X11765182Y-14380698D01*
X11765182Y-14380698D02*
X11774706Y-14399746D01*
X11774706Y-14399746D02*
X11784229Y-14409269D01*
X11784229Y-14409269D02*
X11803277Y-14418793D01*
X11803277Y-14418793D02*
X11841372Y-14418793D01*
X11841372Y-14418793D02*
X11860420Y-14409269D01*
X11860420Y-14409269D02*
X11869944Y-14399746D01*
X11869944Y-14399746D02*
X11879467Y-14380698D01*
X12050896Y-14361650D02*
X12050896Y-14494984D01*
X12003277Y-14285460D02*
X11955658Y-14428317D01*
X11955658Y-14428317D02*
X12079467Y-14428317D01*
X12146134Y-14294984D02*
X12146134Y-14333079D01*
X12222325Y-14294984D02*
X12222325Y-14333079D01*
X12517563Y-14571174D02*
X12508039Y-14561650D01*
X12508039Y-14561650D02*
X12488991Y-14533079D01*
X12488991Y-14533079D02*
X12479468Y-14514031D01*
X12479468Y-14514031D02*
X12469944Y-14485460D01*
X12469944Y-14485460D02*
X12460420Y-14437841D01*
X12460420Y-14437841D02*
X12460420Y-14399746D01*
X12460420Y-14399746D02*
X12469944Y-14352127D01*
X12469944Y-14352127D02*
X12479468Y-14323555D01*
X12479468Y-14323555D02*
X12488991Y-14304508D01*
X12488991Y-14304508D02*
X12508039Y-14275936D01*
X12508039Y-14275936D02*
X12517563Y-14266412D01*
X12574706Y-14294984D02*
X12698515Y-14294984D01*
X12698515Y-14294984D02*
X12631848Y-14371174D01*
X12631848Y-14371174D02*
X12660420Y-14371174D01*
X12660420Y-14371174D02*
X12679468Y-14380698D01*
X12679468Y-14380698D02*
X12688991Y-14390222D01*
X12688991Y-14390222D02*
X12698515Y-14409269D01*
X12698515Y-14409269D02*
X12698515Y-14456888D01*
X12698515Y-14456888D02*
X12688991Y-14475936D01*
X12688991Y-14475936D02*
X12679468Y-14485460D01*
X12679468Y-14485460D02*
X12660420Y-14494984D01*
X12660420Y-14494984D02*
X12603277Y-14494984D01*
X12603277Y-14494984D02*
X12584229Y-14485460D01*
X12584229Y-14485460D02*
X12574706Y-14475936D01*
X12812801Y-14380698D02*
X12793753Y-14371174D01*
X12793753Y-14371174D02*
X12784229Y-14361650D01*
X12784229Y-14361650D02*
X12774706Y-14342603D01*
X12774706Y-14342603D02*
X12774706Y-14333079D01*
X12774706Y-14333079D02*
X12784229Y-14314031D01*
X12784229Y-14314031D02*
X12793753Y-14304508D01*
X12793753Y-14304508D02*
X12812801Y-14294984D01*
X12812801Y-14294984D02*
X12850896Y-14294984D01*
X12850896Y-14294984D02*
X12869944Y-14304508D01*
X12869944Y-14304508D02*
X12879468Y-14314031D01*
X12879468Y-14314031D02*
X12888991Y-14333079D01*
X12888991Y-14333079D02*
X12888991Y-14342603D01*
X12888991Y-14342603D02*
X12879468Y-14361650D01*
X12879468Y-14361650D02*
X12869944Y-14371174D01*
X12869944Y-14371174D02*
X12850896Y-14380698D01*
X12850896Y-14380698D02*
X12812801Y-14380698D01*
X12812801Y-14380698D02*
X12793753Y-14390222D01*
X12793753Y-14390222D02*
X12784229Y-14399746D01*
X12784229Y-14399746D02*
X12774706Y-14418793D01*
X12774706Y-14418793D02*
X12774706Y-14456888D01*
X12774706Y-14456888D02*
X12784229Y-14475936D01*
X12784229Y-14475936D02*
X12793753Y-14485460D01*
X12793753Y-14485460D02*
X12812801Y-14494984D01*
X12812801Y-14494984D02*
X12850896Y-14494984D01*
X12850896Y-14494984D02*
X12869944Y-14485460D01*
X12869944Y-14485460D02*
X12879468Y-14475936D01*
X12879468Y-14475936D02*
X12888991Y-14456888D01*
X12888991Y-14456888D02*
X12888991Y-14418793D01*
X12888991Y-14418793D02*
X12879468Y-14399746D01*
X12879468Y-14399746D02*
X12869944Y-14390222D01*
X12869944Y-14390222D02*
X12850896Y-14380698D01*
X13127087Y-14494984D02*
X13127087Y-14294984D01*
X13212801Y-14494984D02*
X13212801Y-14390222D01*
X13212801Y-14390222D02*
X13203277Y-14371174D01*
X13203277Y-14371174D02*
X13184230Y-14361650D01*
X13184230Y-14361650D02*
X13155658Y-14361650D01*
X13155658Y-14361650D02*
X13136610Y-14371174D01*
X13136610Y-14371174D02*
X13127087Y-14380698D01*
X13336610Y-14494984D02*
X13317563Y-14485460D01*
X13317563Y-14485460D02*
X13308039Y-14475936D01*
X13308039Y-14475936D02*
X13298515Y-14456888D01*
X13298515Y-14456888D02*
X13298515Y-14399746D01*
X13298515Y-14399746D02*
X13308039Y-14380698D01*
X13308039Y-14380698D02*
X13317563Y-14371174D01*
X13317563Y-14371174D02*
X13336610Y-14361650D01*
X13336610Y-14361650D02*
X13365182Y-14361650D01*
X13365182Y-14361650D02*
X13384230Y-14371174D01*
X13384230Y-14371174D02*
X13393753Y-14380698D01*
X13393753Y-14380698D02*
X13403277Y-14399746D01*
X13403277Y-14399746D02*
X13403277Y-14456888D01*
X13403277Y-14456888D02*
X13393753Y-14475936D01*
X13393753Y-14475936D02*
X13384230Y-14485460D01*
X13384230Y-14485460D02*
X13365182Y-14494984D01*
X13365182Y-14494984D02*
X13336610Y-14494984D01*
X13517563Y-14494984D02*
X13498515Y-14485460D01*
X13498515Y-14485460D02*
X13488991Y-14466412D01*
X13488991Y-14466412D02*
X13488991Y-14294984D01*
X13669944Y-14485460D02*
X13650896Y-14494984D01*
X13650896Y-14494984D02*
X13612801Y-14494984D01*
X13612801Y-14494984D02*
X13593753Y-14485460D01*
X13593753Y-14485460D02*
X13584230Y-14466412D01*
X13584230Y-14466412D02*
X13584230Y-14390222D01*
X13584230Y-14390222D02*
X13593753Y-14371174D01*
X13593753Y-14371174D02*
X13612801Y-14361650D01*
X13612801Y-14361650D02*
X13650896Y-14361650D01*
X13650896Y-14361650D02*
X13669944Y-14371174D01*
X13669944Y-14371174D02*
X13679468Y-14390222D01*
X13679468Y-14390222D02*
X13679468Y-14409269D01*
X13679468Y-14409269D02*
X13584230Y-14428317D01*
X13755658Y-14485460D02*
X13774706Y-14494984D01*
X13774706Y-14494984D02*
X13812801Y-14494984D01*
X13812801Y-14494984D02*
X13831849Y-14485460D01*
X13831849Y-14485460D02*
X13841372Y-14466412D01*
X13841372Y-14466412D02*
X13841372Y-14456888D01*
X13841372Y-14456888D02*
X13831849Y-14437841D01*
X13831849Y-14437841D02*
X13812801Y-14428317D01*
X13812801Y-14428317D02*
X13784230Y-14428317D01*
X13784230Y-14428317D02*
X13765182Y-14418793D01*
X13765182Y-14418793D02*
X13755658Y-14399746D01*
X13755658Y-14399746D02*
X13755658Y-14390222D01*
X13755658Y-14390222D02*
X13765182Y-14371174D01*
X13765182Y-14371174D02*
X13784230Y-14361650D01*
X13784230Y-14361650D02*
X13812801Y-14361650D01*
X13812801Y-14361650D02*
X13831849Y-14371174D01*
X13908039Y-14571174D02*
X13917563Y-14561650D01*
X13917563Y-14561650D02*
X13936611Y-14533079D01*
X13936611Y-14533079D02*
X13946134Y-14514031D01*
X13946134Y-14514031D02*
X13955658Y-14485460D01*
X13955658Y-14485460D02*
X13965182Y-14437841D01*
X13965182Y-14437841D02*
X13965182Y-14399746D01*
X13965182Y-14399746D02*
X13955658Y-14352127D01*
X13955658Y-14352127D02*
X13946134Y-14323555D01*
X13946134Y-14323555D02*
X13936611Y-14304508D01*
X13936611Y-14304508D02*
X13917563Y-14275936D01*
X13917563Y-14275936D02*
X13908039Y-14266412D01*
D13*
X8832500Y-14612500D02*
X8942500Y-14722500D01*
X8942500Y-14612500D02*
X8832500Y-14722500D01*
X8942500Y-14667500D02*
G75*
G02*
X8832500Y-14667500I-55000J0D01*
G01*
X8832500Y-14667500D02*
G75*
G02*
X8942500Y-14667500I55000J0D01*
G01*
D11*
X9308039Y-14758984D02*
X9193753Y-14758984D01*
X9250896Y-14758984D02*
X9250896Y-14558984D01*
X9250896Y-14558984D02*
X9231848Y-14587555D01*
X9231848Y-14587555D02*
X9212801Y-14606603D01*
X9212801Y-14606603D02*
X9193753Y-14616127D01*
X9393753Y-14739936D02*
X9403277Y-14749460D01*
X9403277Y-14749460D02*
X9393753Y-14758984D01*
X9393753Y-14758984D02*
X9384229Y-14749460D01*
X9384229Y-14749460D02*
X9393753Y-14739936D01*
X9393753Y-14739936D02*
X9393753Y-14758984D01*
X9593753Y-14758984D02*
X9479467Y-14758984D01*
X9536610Y-14758984D02*
X9536610Y-14558984D01*
X9536610Y-14558984D02*
X9517563Y-14587555D01*
X9517563Y-14587555D02*
X9498515Y-14606603D01*
X9498515Y-14606603D02*
X9479467Y-14616127D01*
X9717563Y-14558984D02*
X9736610Y-14558984D01*
X9736610Y-14558984D02*
X9755658Y-14568508D01*
X9755658Y-14568508D02*
X9765182Y-14578031D01*
X9765182Y-14578031D02*
X9774705Y-14597079D01*
X9774705Y-14597079D02*
X9784229Y-14635174D01*
X9784229Y-14635174D02*
X9784229Y-14682793D01*
X9784229Y-14682793D02*
X9774705Y-14720888D01*
X9774705Y-14720888D02*
X9765182Y-14739936D01*
X9765182Y-14739936D02*
X9755658Y-14749460D01*
X9755658Y-14749460D02*
X9736610Y-14758984D01*
X9736610Y-14758984D02*
X9717563Y-14758984D01*
X9717563Y-14758984D02*
X9698515Y-14749460D01*
X9698515Y-14749460D02*
X9688991Y-14739936D01*
X9688991Y-14739936D02*
X9679467Y-14720888D01*
X9679467Y-14720888D02*
X9669944Y-14682793D01*
X9669944Y-14682793D02*
X9669944Y-14635174D01*
X9669944Y-14635174D02*
X9679467Y-14597079D01*
X9679467Y-14597079D02*
X9688991Y-14578031D01*
X9688991Y-14578031D02*
X9698515Y-14568508D01*
X9698515Y-14568508D02*
X9717563Y-14558984D01*
X9908039Y-14558984D02*
X9927086Y-14558984D01*
X9927086Y-14558984D02*
X9946134Y-14568508D01*
X9946134Y-14568508D02*
X9955658Y-14578031D01*
X9955658Y-14578031D02*
X9965182Y-14597079D01*
X9965182Y-14597079D02*
X9974705Y-14635174D01*
X9974705Y-14635174D02*
X9974705Y-14682793D01*
X9974705Y-14682793D02*
X9965182Y-14720888D01*
X9965182Y-14720888D02*
X9955658Y-14739936D01*
X9955658Y-14739936D02*
X9946134Y-14749460D01*
X9946134Y-14749460D02*
X9927086Y-14758984D01*
X9927086Y-14758984D02*
X9908039Y-14758984D01*
X9908039Y-14758984D02*
X9888991Y-14749460D01*
X9888991Y-14749460D02*
X9879467Y-14739936D01*
X9879467Y-14739936D02*
X9869944Y-14720888D01*
X9869944Y-14720888D02*
X9860420Y-14682793D01*
X9860420Y-14682793D02*
X9860420Y-14635174D01*
X9860420Y-14635174D02*
X9869944Y-14597079D01*
X9869944Y-14597079D02*
X9879467Y-14578031D01*
X9879467Y-14578031D02*
X9888991Y-14568508D01*
X9888991Y-14568508D02*
X9908039Y-14558984D01*
X10060420Y-14758984D02*
X10060420Y-14625650D01*
X10060420Y-14644698D02*
X10069944Y-14635174D01*
X10069944Y-14635174D02*
X10088991Y-14625650D01*
X10088991Y-14625650D02*
X10117563Y-14625650D01*
X10117563Y-14625650D02*
X10136610Y-14635174D01*
X10136610Y-14635174D02*
X10146134Y-14654222D01*
X10146134Y-14654222D02*
X10146134Y-14758984D01*
X10146134Y-14654222D02*
X10155658Y-14635174D01*
X10155658Y-14635174D02*
X10174705Y-14625650D01*
X10174705Y-14625650D02*
X10203277Y-14625650D01*
X10203277Y-14625650D02*
X10222325Y-14635174D01*
X10222325Y-14635174D02*
X10231848Y-14654222D01*
X10231848Y-14654222D02*
X10231848Y-14758984D01*
X10327086Y-14758984D02*
X10327086Y-14625650D01*
X10327086Y-14644698D02*
X10336610Y-14635174D01*
X10336610Y-14635174D02*
X10355658Y-14625650D01*
X10355658Y-14625650D02*
X10384229Y-14625650D01*
X10384229Y-14625650D02*
X10403277Y-14635174D01*
X10403277Y-14635174D02*
X10412801Y-14654222D01*
X10412801Y-14654222D02*
X10412801Y-14758984D01*
X10412801Y-14654222D02*
X10422325Y-14635174D01*
X10422325Y-14635174D02*
X10441372Y-14625650D01*
X10441372Y-14625650D02*
X10469944Y-14625650D01*
X10469944Y-14625650D02*
X10488991Y-14635174D01*
X10488991Y-14635174D02*
X10498515Y-14654222D01*
X10498515Y-14654222D02*
X10498515Y-14758984D01*
X10888991Y-14549460D02*
X10717563Y-14806603D01*
X11146134Y-14558984D02*
X11165182Y-14558984D01*
X11165182Y-14558984D02*
X11184229Y-14568508D01*
X11184229Y-14568508D02*
X11193753Y-14578031D01*
X11193753Y-14578031D02*
X11203277Y-14597079D01*
X11203277Y-14597079D02*
X11212801Y-14635174D01*
X11212801Y-14635174D02*
X11212801Y-14682793D01*
X11212801Y-14682793D02*
X11203277Y-14720888D01*
X11203277Y-14720888D02*
X11193753Y-14739936D01*
X11193753Y-14739936D02*
X11184229Y-14749460D01*
X11184229Y-14749460D02*
X11165182Y-14758984D01*
X11165182Y-14758984D02*
X11146134Y-14758984D01*
X11146134Y-14758984D02*
X11127087Y-14749460D01*
X11127087Y-14749460D02*
X11117563Y-14739936D01*
X11117563Y-14739936D02*
X11108039Y-14720888D01*
X11108039Y-14720888D02*
X11098515Y-14682793D01*
X11098515Y-14682793D02*
X11098515Y-14635174D01*
X11098515Y-14635174D02*
X11108039Y-14597079D01*
X11108039Y-14597079D02*
X11117563Y-14578031D01*
X11117563Y-14578031D02*
X11127087Y-14568508D01*
X11127087Y-14568508D02*
X11146134Y-14558984D01*
X11298515Y-14739936D02*
X11308039Y-14749460D01*
X11308039Y-14749460D02*
X11298515Y-14758984D01*
X11298515Y-14758984D02*
X11288991Y-14749460D01*
X11288991Y-14749460D02*
X11298515Y-14739936D01*
X11298515Y-14739936D02*
X11298515Y-14758984D01*
X11431848Y-14558984D02*
X11450896Y-14558984D01*
X11450896Y-14558984D02*
X11469944Y-14568508D01*
X11469944Y-14568508D02*
X11479467Y-14578031D01*
X11479467Y-14578031D02*
X11488991Y-14597079D01*
X11488991Y-14597079D02*
X11498515Y-14635174D01*
X11498515Y-14635174D02*
X11498515Y-14682793D01*
X11498515Y-14682793D02*
X11488991Y-14720888D01*
X11488991Y-14720888D02*
X11479467Y-14739936D01*
X11479467Y-14739936D02*
X11469944Y-14749460D01*
X11469944Y-14749460D02*
X11450896Y-14758984D01*
X11450896Y-14758984D02*
X11431848Y-14758984D01*
X11431848Y-14758984D02*
X11412801Y-14749460D01*
X11412801Y-14749460D02*
X11403277Y-14739936D01*
X11403277Y-14739936D02*
X11393753Y-14720888D01*
X11393753Y-14720888D02*
X11384229Y-14682793D01*
X11384229Y-14682793D02*
X11384229Y-14635174D01*
X11384229Y-14635174D02*
X11393753Y-14597079D01*
X11393753Y-14597079D02*
X11403277Y-14578031D01*
X11403277Y-14578031D02*
X11412801Y-14568508D01*
X11412801Y-14568508D02*
X11431848Y-14558984D01*
X11669944Y-14625650D02*
X11669944Y-14758984D01*
X11622325Y-14549460D02*
X11574706Y-14692317D01*
X11574706Y-14692317D02*
X11698515Y-14692317D01*
X11755658Y-14558984D02*
X11879467Y-14558984D01*
X11879467Y-14558984D02*
X11812801Y-14635174D01*
X11812801Y-14635174D02*
X11841372Y-14635174D01*
X11841372Y-14635174D02*
X11860420Y-14644698D01*
X11860420Y-14644698D02*
X11869944Y-14654222D01*
X11869944Y-14654222D02*
X11879467Y-14673269D01*
X11879467Y-14673269D02*
X11879467Y-14720888D01*
X11879467Y-14720888D02*
X11869944Y-14739936D01*
X11869944Y-14739936D02*
X11860420Y-14749460D01*
X11860420Y-14749460D02*
X11841372Y-14758984D01*
X11841372Y-14758984D02*
X11784229Y-14758984D01*
X11784229Y-14758984D02*
X11765182Y-14749460D01*
X11765182Y-14749460D02*
X11755658Y-14739936D01*
X11946134Y-14558984D02*
X12069944Y-14558984D01*
X12069944Y-14558984D02*
X12003277Y-14635174D01*
X12003277Y-14635174D02*
X12031848Y-14635174D01*
X12031848Y-14635174D02*
X12050896Y-14644698D01*
X12050896Y-14644698D02*
X12060420Y-14654222D01*
X12060420Y-14654222D02*
X12069944Y-14673269D01*
X12069944Y-14673269D02*
X12069944Y-14720888D01*
X12069944Y-14720888D02*
X12060420Y-14739936D01*
X12060420Y-14739936D02*
X12050896Y-14749460D01*
X12050896Y-14749460D02*
X12031848Y-14758984D01*
X12031848Y-14758984D02*
X11974706Y-14758984D01*
X11974706Y-14758984D02*
X11955658Y-14749460D01*
X11955658Y-14749460D02*
X11946134Y-14739936D01*
X12146134Y-14558984D02*
X12146134Y-14597079D01*
X12222325Y-14558984D02*
X12222325Y-14597079D01*
X12517563Y-14835174D02*
X12508039Y-14825650D01*
X12508039Y-14825650D02*
X12488991Y-14797079D01*
X12488991Y-14797079D02*
X12479468Y-14778031D01*
X12479468Y-14778031D02*
X12469944Y-14749460D01*
X12469944Y-14749460D02*
X12460420Y-14701841D01*
X12460420Y-14701841D02*
X12460420Y-14663746D01*
X12460420Y-14663746D02*
X12469944Y-14616127D01*
X12469944Y-14616127D02*
X12479468Y-14587555D01*
X12479468Y-14587555D02*
X12488991Y-14568508D01*
X12488991Y-14568508D02*
X12508039Y-14539936D01*
X12508039Y-14539936D02*
X12517563Y-14530412D01*
X12584229Y-14578031D02*
X12593753Y-14568508D01*
X12593753Y-14568508D02*
X12612801Y-14558984D01*
X12612801Y-14558984D02*
X12660420Y-14558984D01*
X12660420Y-14558984D02*
X12679468Y-14568508D01*
X12679468Y-14568508D02*
X12688991Y-14578031D01*
X12688991Y-14578031D02*
X12698515Y-14597079D01*
X12698515Y-14597079D02*
X12698515Y-14616127D01*
X12698515Y-14616127D02*
X12688991Y-14644698D01*
X12688991Y-14644698D02*
X12574706Y-14758984D01*
X12574706Y-14758984D02*
X12698515Y-14758984D01*
X12793753Y-14758984D02*
X12831848Y-14758984D01*
X12831848Y-14758984D02*
X12850896Y-14749460D01*
X12850896Y-14749460D02*
X12860420Y-14739936D01*
X12860420Y-14739936D02*
X12879468Y-14711365D01*
X12879468Y-14711365D02*
X12888991Y-14673269D01*
X12888991Y-14673269D02*
X12888991Y-14597079D01*
X12888991Y-14597079D02*
X12879468Y-14578031D01*
X12879468Y-14578031D02*
X12869944Y-14568508D01*
X12869944Y-14568508D02*
X12850896Y-14558984D01*
X12850896Y-14558984D02*
X12812801Y-14558984D01*
X12812801Y-14558984D02*
X12793753Y-14568508D01*
X12793753Y-14568508D02*
X12784229Y-14578031D01*
X12784229Y-14578031D02*
X12774706Y-14597079D01*
X12774706Y-14597079D02*
X12774706Y-14644698D01*
X12774706Y-14644698D02*
X12784229Y-14663746D01*
X12784229Y-14663746D02*
X12793753Y-14673269D01*
X12793753Y-14673269D02*
X12812801Y-14682793D01*
X12812801Y-14682793D02*
X12850896Y-14682793D01*
X12850896Y-14682793D02*
X12869944Y-14673269D01*
X12869944Y-14673269D02*
X12879468Y-14663746D01*
X12879468Y-14663746D02*
X12888991Y-14644698D01*
X13127087Y-14758984D02*
X13127087Y-14558984D01*
X13212801Y-14758984D02*
X13212801Y-14654222D01*
X13212801Y-14654222D02*
X13203277Y-14635174D01*
X13203277Y-14635174D02*
X13184230Y-14625650D01*
X13184230Y-14625650D02*
X13155658Y-14625650D01*
X13155658Y-14625650D02*
X13136610Y-14635174D01*
X13136610Y-14635174D02*
X13127087Y-14644698D01*
X13336610Y-14758984D02*
X13317563Y-14749460D01*
X13317563Y-14749460D02*
X13308039Y-14739936D01*
X13308039Y-14739936D02*
X13298515Y-14720888D01*
X13298515Y-14720888D02*
X13298515Y-14663746D01*
X13298515Y-14663746D02*
X13308039Y-14644698D01*
X13308039Y-14644698D02*
X13317563Y-14635174D01*
X13317563Y-14635174D02*
X13336610Y-14625650D01*
X13336610Y-14625650D02*
X13365182Y-14625650D01*
X13365182Y-14625650D02*
X13384230Y-14635174D01*
X13384230Y-14635174D02*
X13393753Y-14644698D01*
X13393753Y-14644698D02*
X13403277Y-14663746D01*
X13403277Y-14663746D02*
X13403277Y-14720888D01*
X13403277Y-14720888D02*
X13393753Y-14739936D01*
X13393753Y-14739936D02*
X13384230Y-14749460D01*
X13384230Y-14749460D02*
X13365182Y-14758984D01*
X13365182Y-14758984D02*
X13336610Y-14758984D01*
X13517563Y-14758984D02*
X13498515Y-14749460D01*
X13498515Y-14749460D02*
X13488991Y-14730412D01*
X13488991Y-14730412D02*
X13488991Y-14558984D01*
X13669944Y-14749460D02*
X13650896Y-14758984D01*
X13650896Y-14758984D02*
X13612801Y-14758984D01*
X13612801Y-14758984D02*
X13593753Y-14749460D01*
X13593753Y-14749460D02*
X13584230Y-14730412D01*
X13584230Y-14730412D02*
X13584230Y-14654222D01*
X13584230Y-14654222D02*
X13593753Y-14635174D01*
X13593753Y-14635174D02*
X13612801Y-14625650D01*
X13612801Y-14625650D02*
X13650896Y-14625650D01*
X13650896Y-14625650D02*
X13669944Y-14635174D01*
X13669944Y-14635174D02*
X13679468Y-14654222D01*
X13679468Y-14654222D02*
X13679468Y-14673269D01*
X13679468Y-14673269D02*
X13584230Y-14692317D01*
X13755658Y-14749460D02*
X13774706Y-14758984D01*
X13774706Y-14758984D02*
X13812801Y-14758984D01*
X13812801Y-14758984D02*
X13831849Y-14749460D01*
X13831849Y-14749460D02*
X13841372Y-14730412D01*
X13841372Y-14730412D02*
X13841372Y-14720888D01*
X13841372Y-14720888D02*
X13831849Y-14701841D01*
X13831849Y-14701841D02*
X13812801Y-14692317D01*
X13812801Y-14692317D02*
X13784230Y-14692317D01*
X13784230Y-14692317D02*
X13765182Y-14682793D01*
X13765182Y-14682793D02*
X13755658Y-14663746D01*
X13755658Y-14663746D02*
X13755658Y-14654222D01*
X13755658Y-14654222D02*
X13765182Y-14635174D01*
X13765182Y-14635174D02*
X13784230Y-14625650D01*
X13784230Y-14625650D02*
X13812801Y-14625650D01*
X13812801Y-14625650D02*
X13831849Y-14635174D01*
X13908039Y-14835174D02*
X13917563Y-14825650D01*
X13917563Y-14825650D02*
X13936611Y-14797079D01*
X13936611Y-14797079D02*
X13946134Y-14778031D01*
X13946134Y-14778031D02*
X13955658Y-14749460D01*
X13955658Y-14749460D02*
X13965182Y-14701841D01*
X13965182Y-14701841D02*
X13965182Y-14663746D01*
X13965182Y-14663746D02*
X13955658Y-14616127D01*
X13955658Y-14616127D02*
X13946134Y-14587555D01*
X13946134Y-14587555D02*
X13936611Y-14568508D01*
X13936611Y-14568508D02*
X13917563Y-14539936D01*
X13917563Y-14539936D02*
X13908039Y-14530412D01*
X8742500Y-14831500D02*
X8942500Y-15031500D01*
X8942500Y-14831500D02*
X8742500Y-15031500D01*
X8842500Y-14831500D02*
X8842500Y-15031500D01*
X8742500Y-14931500D02*
X8942500Y-14931500D01*
X9193753Y-14842031D02*
X9203277Y-14832508D01*
X9203277Y-14832508D02*
X9222324Y-14822984D01*
X9222324Y-14822984D02*
X9269944Y-14822984D01*
X9269944Y-14822984D02*
X9288991Y-14832508D01*
X9288991Y-14832508D02*
X9298515Y-14842031D01*
X9298515Y-14842031D02*
X9308039Y-14861079D01*
X9308039Y-14861079D02*
X9308039Y-14880127D01*
X9308039Y-14880127D02*
X9298515Y-14908698D01*
X9298515Y-14908698D02*
X9184229Y-15022984D01*
X9184229Y-15022984D02*
X9308039Y-15022984D01*
X9393753Y-15003936D02*
X9403277Y-15013460D01*
X9403277Y-15013460D02*
X9393753Y-15022984D01*
X9393753Y-15022984D02*
X9384229Y-15013460D01*
X9384229Y-15013460D02*
X9393753Y-15003936D01*
X9393753Y-15003936D02*
X9393753Y-15022984D01*
X9584229Y-14822984D02*
X9488991Y-14822984D01*
X9488991Y-14822984D02*
X9479467Y-14918222D01*
X9479467Y-14918222D02*
X9488991Y-14908698D01*
X9488991Y-14908698D02*
X9508039Y-14899174D01*
X9508039Y-14899174D02*
X9555658Y-14899174D01*
X9555658Y-14899174D02*
X9574705Y-14908698D01*
X9574705Y-14908698D02*
X9584229Y-14918222D01*
X9584229Y-14918222D02*
X9593753Y-14937269D01*
X9593753Y-14937269D02*
X9593753Y-14984888D01*
X9593753Y-14984888D02*
X9584229Y-15003936D01*
X9584229Y-15003936D02*
X9574705Y-15013460D01*
X9574705Y-15013460D02*
X9555658Y-15022984D01*
X9555658Y-15022984D02*
X9508039Y-15022984D01*
X9508039Y-15022984D02*
X9488991Y-15013460D01*
X9488991Y-15013460D02*
X9479467Y-15003936D01*
X9765182Y-14822984D02*
X9727086Y-14822984D01*
X9727086Y-14822984D02*
X9708039Y-14832508D01*
X9708039Y-14832508D02*
X9698515Y-14842031D01*
X9698515Y-14842031D02*
X9679467Y-14870603D01*
X9679467Y-14870603D02*
X9669944Y-14908698D01*
X9669944Y-14908698D02*
X9669944Y-14984888D01*
X9669944Y-14984888D02*
X9679467Y-15003936D01*
X9679467Y-15003936D02*
X9688991Y-15013460D01*
X9688991Y-15013460D02*
X9708039Y-15022984D01*
X9708039Y-15022984D02*
X9746134Y-15022984D01*
X9746134Y-15022984D02*
X9765182Y-15013460D01*
X9765182Y-15013460D02*
X9774705Y-15003936D01*
X9774705Y-15003936D02*
X9784229Y-14984888D01*
X9784229Y-14984888D02*
X9784229Y-14937269D01*
X9784229Y-14937269D02*
X9774705Y-14918222D01*
X9774705Y-14918222D02*
X9765182Y-14908698D01*
X9765182Y-14908698D02*
X9746134Y-14899174D01*
X9746134Y-14899174D02*
X9708039Y-14899174D01*
X9708039Y-14899174D02*
X9688991Y-14908698D01*
X9688991Y-14908698D02*
X9679467Y-14918222D01*
X9679467Y-14918222D02*
X9669944Y-14937269D01*
X9908039Y-14822984D02*
X9927086Y-14822984D01*
X9927086Y-14822984D02*
X9946134Y-14832508D01*
X9946134Y-14832508D02*
X9955658Y-14842031D01*
X9955658Y-14842031D02*
X9965182Y-14861079D01*
X9965182Y-14861079D02*
X9974705Y-14899174D01*
X9974705Y-14899174D02*
X9974705Y-14946793D01*
X9974705Y-14946793D02*
X9965182Y-14984888D01*
X9965182Y-14984888D02*
X9955658Y-15003936D01*
X9955658Y-15003936D02*
X9946134Y-15013460D01*
X9946134Y-15013460D02*
X9927086Y-15022984D01*
X9927086Y-15022984D02*
X9908039Y-15022984D01*
X9908039Y-15022984D02*
X9888991Y-15013460D01*
X9888991Y-15013460D02*
X9879467Y-15003936D01*
X9879467Y-15003936D02*
X9869944Y-14984888D01*
X9869944Y-14984888D02*
X9860420Y-14946793D01*
X9860420Y-14946793D02*
X9860420Y-14899174D01*
X9860420Y-14899174D02*
X9869944Y-14861079D01*
X9869944Y-14861079D02*
X9879467Y-14842031D01*
X9879467Y-14842031D02*
X9888991Y-14832508D01*
X9888991Y-14832508D02*
X9908039Y-14822984D01*
X10060420Y-15022984D02*
X10060420Y-14889650D01*
X10060420Y-14908698D02*
X10069944Y-14899174D01*
X10069944Y-14899174D02*
X10088991Y-14889650D01*
X10088991Y-14889650D02*
X10117563Y-14889650D01*
X10117563Y-14889650D02*
X10136610Y-14899174D01*
X10136610Y-14899174D02*
X10146134Y-14918222D01*
X10146134Y-14918222D02*
X10146134Y-15022984D01*
X10146134Y-14918222D02*
X10155658Y-14899174D01*
X10155658Y-14899174D02*
X10174705Y-14889650D01*
X10174705Y-14889650D02*
X10203277Y-14889650D01*
X10203277Y-14889650D02*
X10222325Y-14899174D01*
X10222325Y-14899174D02*
X10231848Y-14918222D01*
X10231848Y-14918222D02*
X10231848Y-15022984D01*
X10327086Y-15022984D02*
X10327086Y-14889650D01*
X10327086Y-14908698D02*
X10336610Y-14899174D01*
X10336610Y-14899174D02*
X10355658Y-14889650D01*
X10355658Y-14889650D02*
X10384229Y-14889650D01*
X10384229Y-14889650D02*
X10403277Y-14899174D01*
X10403277Y-14899174D02*
X10412801Y-14918222D01*
X10412801Y-14918222D02*
X10412801Y-15022984D01*
X10412801Y-14918222D02*
X10422325Y-14899174D01*
X10422325Y-14899174D02*
X10441372Y-14889650D01*
X10441372Y-14889650D02*
X10469944Y-14889650D01*
X10469944Y-14889650D02*
X10488991Y-14899174D01*
X10488991Y-14899174D02*
X10498515Y-14918222D01*
X10498515Y-14918222D02*
X10498515Y-15022984D01*
X10888991Y-14813460D02*
X10717563Y-15070603D01*
X11146134Y-14822984D02*
X11165182Y-14822984D01*
X11165182Y-14822984D02*
X11184229Y-14832508D01*
X11184229Y-14832508D02*
X11193753Y-14842031D01*
X11193753Y-14842031D02*
X11203277Y-14861079D01*
X11203277Y-14861079D02*
X11212801Y-14899174D01*
X11212801Y-14899174D02*
X11212801Y-14946793D01*
X11212801Y-14946793D02*
X11203277Y-14984888D01*
X11203277Y-14984888D02*
X11193753Y-15003936D01*
X11193753Y-15003936D02*
X11184229Y-15013460D01*
X11184229Y-15013460D02*
X11165182Y-15022984D01*
X11165182Y-15022984D02*
X11146134Y-15022984D01*
X11146134Y-15022984D02*
X11127087Y-15013460D01*
X11127087Y-15013460D02*
X11117563Y-15003936D01*
X11117563Y-15003936D02*
X11108039Y-14984888D01*
X11108039Y-14984888D02*
X11098515Y-14946793D01*
X11098515Y-14946793D02*
X11098515Y-14899174D01*
X11098515Y-14899174D02*
X11108039Y-14861079D01*
X11108039Y-14861079D02*
X11117563Y-14842031D01*
X11117563Y-14842031D02*
X11127087Y-14832508D01*
X11127087Y-14832508D02*
X11146134Y-14822984D01*
X11298515Y-15003936D02*
X11308039Y-15013460D01*
X11308039Y-15013460D02*
X11298515Y-15022984D01*
X11298515Y-15022984D02*
X11288991Y-15013460D01*
X11288991Y-15013460D02*
X11298515Y-15003936D01*
X11298515Y-15003936D02*
X11298515Y-15022984D01*
X11498515Y-15022984D02*
X11384229Y-15022984D01*
X11441372Y-15022984D02*
X11441372Y-14822984D01*
X11441372Y-14822984D02*
X11422325Y-14851555D01*
X11422325Y-14851555D02*
X11403277Y-14870603D01*
X11403277Y-14870603D02*
X11384229Y-14880127D01*
X11622325Y-14822984D02*
X11641372Y-14822984D01*
X11641372Y-14822984D02*
X11660420Y-14832508D01*
X11660420Y-14832508D02*
X11669944Y-14842031D01*
X11669944Y-14842031D02*
X11679467Y-14861079D01*
X11679467Y-14861079D02*
X11688991Y-14899174D01*
X11688991Y-14899174D02*
X11688991Y-14946793D01*
X11688991Y-14946793D02*
X11679467Y-14984888D01*
X11679467Y-14984888D02*
X11669944Y-15003936D01*
X11669944Y-15003936D02*
X11660420Y-15013460D01*
X11660420Y-15013460D02*
X11641372Y-15022984D01*
X11641372Y-15022984D02*
X11622325Y-15022984D01*
X11622325Y-15022984D02*
X11603277Y-15013460D01*
X11603277Y-15013460D02*
X11593753Y-15003936D01*
X11593753Y-15003936D02*
X11584229Y-14984888D01*
X11584229Y-14984888D02*
X11574706Y-14946793D01*
X11574706Y-14946793D02*
X11574706Y-14899174D01*
X11574706Y-14899174D02*
X11584229Y-14861079D01*
X11584229Y-14861079D02*
X11593753Y-14842031D01*
X11593753Y-14842031D02*
X11603277Y-14832508D01*
X11603277Y-14832508D02*
X11622325Y-14822984D01*
X11812801Y-14822984D02*
X11831848Y-14822984D01*
X11831848Y-14822984D02*
X11850896Y-14832508D01*
X11850896Y-14832508D02*
X11860420Y-14842031D01*
X11860420Y-14842031D02*
X11869944Y-14861079D01*
X11869944Y-14861079D02*
X11879467Y-14899174D01*
X11879467Y-14899174D02*
X11879467Y-14946793D01*
X11879467Y-14946793D02*
X11869944Y-14984888D01*
X11869944Y-14984888D02*
X11860420Y-15003936D01*
X11860420Y-15003936D02*
X11850896Y-15013460D01*
X11850896Y-15013460D02*
X11831848Y-15022984D01*
X11831848Y-15022984D02*
X11812801Y-15022984D01*
X11812801Y-15022984D02*
X11793753Y-15013460D01*
X11793753Y-15013460D02*
X11784229Y-15003936D01*
X11784229Y-15003936D02*
X11774706Y-14984888D01*
X11774706Y-14984888D02*
X11765182Y-14946793D01*
X11765182Y-14946793D02*
X11765182Y-14899174D01*
X11765182Y-14899174D02*
X11774706Y-14861079D01*
X11774706Y-14861079D02*
X11784229Y-14842031D01*
X11784229Y-14842031D02*
X11793753Y-14832508D01*
X11793753Y-14832508D02*
X11812801Y-14822984D01*
X11993753Y-14908698D02*
X11974706Y-14899174D01*
X11974706Y-14899174D02*
X11965182Y-14889650D01*
X11965182Y-14889650D02*
X11955658Y-14870603D01*
X11955658Y-14870603D02*
X11955658Y-14861079D01*
X11955658Y-14861079D02*
X11965182Y-14842031D01*
X11965182Y-14842031D02*
X11974706Y-14832508D01*
X11974706Y-14832508D02*
X11993753Y-14822984D01*
X11993753Y-14822984D02*
X12031848Y-14822984D01*
X12031848Y-14822984D02*
X12050896Y-14832508D01*
X12050896Y-14832508D02*
X12060420Y-14842031D01*
X12060420Y-14842031D02*
X12069944Y-14861079D01*
X12069944Y-14861079D02*
X12069944Y-14870603D01*
X12069944Y-14870603D02*
X12060420Y-14889650D01*
X12060420Y-14889650D02*
X12050896Y-14899174D01*
X12050896Y-14899174D02*
X12031848Y-14908698D01*
X12031848Y-14908698D02*
X11993753Y-14908698D01*
X11993753Y-14908698D02*
X11974706Y-14918222D01*
X11974706Y-14918222D02*
X11965182Y-14927746D01*
X11965182Y-14927746D02*
X11955658Y-14946793D01*
X11955658Y-14946793D02*
X11955658Y-14984888D01*
X11955658Y-14984888D02*
X11965182Y-15003936D01*
X11965182Y-15003936D02*
X11974706Y-15013460D01*
X11974706Y-15013460D02*
X11993753Y-15022984D01*
X11993753Y-15022984D02*
X12031848Y-15022984D01*
X12031848Y-15022984D02*
X12050896Y-15013460D01*
X12050896Y-15013460D02*
X12060420Y-15003936D01*
X12060420Y-15003936D02*
X12069944Y-14984888D01*
X12069944Y-14984888D02*
X12069944Y-14946793D01*
X12069944Y-14946793D02*
X12060420Y-14927746D01*
X12060420Y-14927746D02*
X12050896Y-14918222D01*
X12050896Y-14918222D02*
X12031848Y-14908698D01*
X12146134Y-14822984D02*
X12146134Y-14861079D01*
X12222325Y-14822984D02*
X12222325Y-14861079D01*
X12517563Y-15099174D02*
X12508039Y-15089650D01*
X12508039Y-15089650D02*
X12488991Y-15061079D01*
X12488991Y-15061079D02*
X12479468Y-15042031D01*
X12479468Y-15042031D02*
X12469944Y-15013460D01*
X12469944Y-15013460D02*
X12460420Y-14965841D01*
X12460420Y-14965841D02*
X12460420Y-14927746D01*
X12460420Y-14927746D02*
X12469944Y-14880127D01*
X12469944Y-14880127D02*
X12479468Y-14851555D01*
X12479468Y-14851555D02*
X12488991Y-14832508D01*
X12488991Y-14832508D02*
X12508039Y-14803936D01*
X12508039Y-14803936D02*
X12517563Y-14794412D01*
X12679468Y-14889650D02*
X12679468Y-15022984D01*
X12631848Y-14813460D02*
X12584229Y-14956317D01*
X12584229Y-14956317D02*
X12708039Y-14956317D01*
X12936610Y-15022984D02*
X12936610Y-14822984D01*
X13022325Y-15022984D02*
X13022325Y-14918222D01*
X13022325Y-14918222D02*
X13012801Y-14899174D01*
X13012801Y-14899174D02*
X12993753Y-14889650D01*
X12993753Y-14889650D02*
X12965182Y-14889650D01*
X12965182Y-14889650D02*
X12946134Y-14899174D01*
X12946134Y-14899174D02*
X12936610Y-14908698D01*
X13146134Y-15022984D02*
X13127087Y-15013460D01*
X13127087Y-15013460D02*
X13117563Y-15003936D01*
X13117563Y-15003936D02*
X13108039Y-14984888D01*
X13108039Y-14984888D02*
X13108039Y-14927746D01*
X13108039Y-14927746D02*
X13117563Y-14908698D01*
X13117563Y-14908698D02*
X13127087Y-14899174D01*
X13127087Y-14899174D02*
X13146134Y-14889650D01*
X13146134Y-14889650D02*
X13174706Y-14889650D01*
X13174706Y-14889650D02*
X13193753Y-14899174D01*
X13193753Y-14899174D02*
X13203277Y-14908698D01*
X13203277Y-14908698D02*
X13212801Y-14927746D01*
X13212801Y-14927746D02*
X13212801Y-14984888D01*
X13212801Y-14984888D02*
X13203277Y-15003936D01*
X13203277Y-15003936D02*
X13193753Y-15013460D01*
X13193753Y-15013460D02*
X13174706Y-15022984D01*
X13174706Y-15022984D02*
X13146134Y-15022984D01*
X13327087Y-15022984D02*
X13308039Y-15013460D01*
X13308039Y-15013460D02*
X13298515Y-14994412D01*
X13298515Y-14994412D02*
X13298515Y-14822984D01*
X13479468Y-15013460D02*
X13460420Y-15022984D01*
X13460420Y-15022984D02*
X13422325Y-15022984D01*
X13422325Y-15022984D02*
X13403277Y-15013460D01*
X13403277Y-15013460D02*
X13393753Y-14994412D01*
X13393753Y-14994412D02*
X13393753Y-14918222D01*
X13393753Y-14918222D02*
X13403277Y-14899174D01*
X13403277Y-14899174D02*
X13422325Y-14889650D01*
X13422325Y-14889650D02*
X13460420Y-14889650D01*
X13460420Y-14889650D02*
X13479468Y-14899174D01*
X13479468Y-14899174D02*
X13488991Y-14918222D01*
X13488991Y-14918222D02*
X13488991Y-14937269D01*
X13488991Y-14937269D02*
X13393753Y-14956317D01*
X13565182Y-15013460D02*
X13584230Y-15022984D01*
X13584230Y-15022984D02*
X13622325Y-15022984D01*
X13622325Y-15022984D02*
X13641372Y-15013460D01*
X13641372Y-15013460D02*
X13650896Y-14994412D01*
X13650896Y-14994412D02*
X13650896Y-14984888D01*
X13650896Y-14984888D02*
X13641372Y-14965841D01*
X13641372Y-14965841D02*
X13622325Y-14956317D01*
X13622325Y-14956317D02*
X13593753Y-14956317D01*
X13593753Y-14956317D02*
X13574706Y-14946793D01*
X13574706Y-14946793D02*
X13565182Y-14927746D01*
X13565182Y-14927746D02*
X13565182Y-14918222D01*
X13565182Y-14918222D02*
X13574706Y-14899174D01*
X13574706Y-14899174D02*
X13593753Y-14889650D01*
X13593753Y-14889650D02*
X13622325Y-14889650D01*
X13622325Y-14889650D02*
X13641372Y-14899174D01*
X13717563Y-15099174D02*
X13727087Y-15089650D01*
X13727087Y-15089650D02*
X13746134Y-15061079D01*
X13746134Y-15061079D02*
X13755658Y-15042031D01*
X13755658Y-15042031D02*
X13765182Y-15013460D01*
X13765182Y-15013460D02*
X13774706Y-14965841D01*
X13774706Y-14965841D02*
X13774706Y-14927746D01*
X13774706Y-14927746D02*
X13765182Y-14880127D01*
X13765182Y-14880127D02*
X13755658Y-14851555D01*
X13755658Y-14851555D02*
X13746134Y-14832508D01*
X13746134Y-14832508D02*
X13727087Y-14803936D01*
X13727087Y-14803936D02*
X13717563Y-14794412D01*
M02*
