M48
; DRILL file {KiCad 9.0.6-9.0.6~ubuntu24.04.1} date 2025-11-22T19:38:03+0300
; FORMAT={-:-/ absolute / metric / decimal}
; #@! TF.CreationDate,2025-11-22T19:38:03+03:00
; #@! TF.GenerationSoftware,Kicad,Pcbnew,9.0.6-9.0.6~ubuntu24.04.1
; #@! TF.FileFunction,Plated,1,2,PTH
FMAT,2
METRIC
; #@! TA.AperFunction,Plated,PTH,ViaDrill
T1C0.381
; #@! TA.AperFunction,Plated,PTH,ViaDrill
T2C0.508
; #@! TA.AperFunction,Plated,PTH,ComponentDrill
T3C0.600
; #@! TA.AperFunction,Plated,PTH,ComponentDrill
T4C0.750
; #@! TA.AperFunction,Plated,PTH,ComponentDrill
T5C1.000
; #@! TA.AperFunction,Plated,PTH,ComponentDrill
T6C1.100
; #@! TA.AperFunction,Plated,PTH,ComponentDrill
T7C2.560
%
G90
G05
T1
X92.05Y-113.3
X92.5Y-103.6
X92.65Y-107.011
X93.45Y-55.85
X93.55Y-121.55
X93.6Y-94.85
X93.95Y-72.45
X94.45Y-60.65
X95.7Y-54.0
X96.5Y-99.65
X96.9Y-70.85
X97.35Y-65.25
X97.65Y-119.7
X98.1Y-103.6
X98.45Y-122.0
X99.0Y-96.0
X99.05Y-107.95
X99.25Y-78.2
X99.4Y-59.65
X100.05Y-43.9
X100.15Y-82.65
X101.35Y-78.0
X101.7Y-75.35
X102.35Y-61.789
X102.35Y-122.0
X102.45Y-94.55
X103.7Y-73.25
X104.65Y-80.6
X104.9Y-96.4
X104.95Y-84.8
X105.0Y-81.9
X105.1Y-50.7
X105.35Y-61.2
X105.4Y-98.4
X106.05Y-82.75
X106.2Y-73.1
X106.2Y-88.7
X106.32Y-93.3
X106.8Y-78.9
X106.85Y-65.2
X107.057Y-86.457
X107.2Y-82.1
X107.35Y-95.25
X107.8Y-93.3
X107.9Y-62.55
X107.95Y-90.05
X108.4Y-88.1
X108.5Y-82.1
X108.5Y-106.5
X108.549Y-79.801
X108.85Y-73.25
X109.1Y-84.5
X109.553Y-90.047
X109.95Y-43.9
X110.1Y-99.0
X110.37Y-93.58
X110.75Y-87.24
X111.05Y-79.85
X111.53Y-84.02
X111.65Y-78.65
X112.2Y-106.35
X112.2Y-115.8
X112.27Y-95.48
X112.35Y-55.2
X112.6Y-98.69
X112.7Y-83.2
X112.75Y-101.9
X113.15Y-61.15
X113.2Y-88.189
X113.532Y-74.768
X113.639Y-65.7
X113.83Y-98.39
X114.12Y-82.03
X114.24Y-73.1
X114.35Y-89.95
X114.61Y-93.45
X114.75Y-95.8
X115.55Y-107.5
X115.6Y-103.4
X115.94Y-73.48
X115.95Y-90.3
X116.25Y-98.43
X116.4Y-93.3
X116.46Y-63.02
X116.7Y-84.9
X117.1Y-73.81
X117.53Y-71.98
X118.45Y-103.2
X118.45Y-105.85
X118.75Y-62.1
X118.93Y-93.68
X119.02Y-98.41
X119.095Y-75.735
X119.9Y-43.9
X120.2Y-53.8
X120.7Y-83.45
X120.707Y-81.35
X121.07Y-73.79
X121.6Y-102.7
X122.37Y-72.64
X122.55Y-98.6
X123.43Y-85.9
X123.74Y-89.65
X123.75Y-60.15
X124.1Y-79.9
X125.0Y-53.8
X125.0Y-72.78
X125.0Y-105.0
X126.2Y-95.85
X126.42Y-88.59
X126.43Y-85.88
X126.52Y-93.56
X126.58Y-58.03
X127.5Y-66.6
X127.7Y-72.2
X128.1Y-58.9
X128.5Y-43.1
X129.1Y-97.9
X129.2Y-107.2
X129.25Y-56.9
X129.34Y-58.84
X129.56Y-87.12
X130.05Y-48.0
X130.1Y-89.1
X130.14Y-76.68
X131.35Y-85.27
X131.75Y-73.25
X132.3Y-63.75
X132.3Y-90.98
X132.5Y-68.5
X133.0Y-95.8
X133.03Y-93.55
X133.1Y-104.9
X134.11Y-85.14
X134.35Y-97.9
X134.5Y-47.5
X134.85Y-88.75
X135.65Y-70.8
X135.65Y-101.3
X135.9Y-73.65
X135.99Y-57.41
X136.77Y-90.68
X137.0Y-59.4
X138.1Y-61.8
X138.48Y-83.54
X138.5Y-94.15
X138.59Y-89.12
X138.85Y-67.95
X139.15Y-101.15
X139.7Y-87.86
X140.6Y-98.25
X140.89Y-81.66
X141.06Y-88.88
X141.25Y-92.23
X141.9Y-49.137
X141.9Y-51.4
X142.5Y-76.6
X142.87Y-55.02
X143.3Y-95.6
X144.95Y-59.6
X145.0Y-45.011
X145.05Y-74.15
X145.1Y-85.3
X145.1Y-95.75
X145.3Y-48.75
X145.3Y-92.18
X145.32Y-51.31
X146.1Y-83.68
X146.2Y-81.2
X147.2Y-95.75
X147.2Y-113.9
X147.299Y-79.541
X147.8Y-71.7
X148.1Y-94.85
X148.35Y-83.7
X148.45Y-80.0
X149.08Y-88.91
X149.7Y-60.4
X149.7Y-62.4
X149.9Y-50.45
X150.667Y-91.311
X151.0Y-103.5
X151.0Y-119.0
X151.22Y-86.85
X151.3Y-67.1
X151.4Y-45.4
X151.5Y-76.6
X151.6Y-71.987
X151.605Y-73.695
X152.0Y-99.35
X152.01Y-96.35
X152.02Y-88.61
X152.05Y-55.0
X152.1Y-65.05
X152.25Y-50.4
X152.3Y-63.1
X152.62Y-89.91
X152.711Y-95.05
X153.98Y-79.79
X154.75Y-69.15
X155.4Y-74.5
X156.0Y-113.45
X156.15Y-54.3
X156.2Y-101.05
X156.35Y-51.1
X156.38Y-84.99
X157.1Y-65.4
X157.6Y-48.65
X157.85Y-45.1
X158.28Y-91.9
X158.4Y-113.75
X158.5Y-76.5
X158.7Y-47.6
X158.95Y-83.35
X159.2Y-52.75
X159.6Y-48.5
X159.713Y-46.319
X159.9Y-67.15
X159.95Y-79.65
X160.31Y-86.91
X160.9Y-113.02
X161.4Y-50.75
X162.4Y-88.85
X163.05Y-45.7
X163.1Y-49.0
X163.3Y-78.55
X163.7Y-53.2
X163.8Y-84.4
X164.64Y-113.02
X165.0Y-81.8
X165.4Y-62.8
X166.3Y-44.1
X166.3Y-47.8
X166.45Y-81.916
X166.457Y-84.441
X167.05Y-68.9
X167.05Y-73.75
X167.4Y-77.0
X167.4Y-79.2
T2
X91.35Y-85.89
X93.0Y-84.4
X93.233Y-58.917
X93.233Y-61.75
X97.4Y-91.7
X98.52Y-112.18
X99.7Y-62.9
X100.6Y-113.1
X103.44Y-115.77
X104.5Y-104.7
X105.3Y-59.4
X106.55Y-66.75
X106.85Y-106.0
X108.5Y-56.7
X109.6Y-60.1
X110.3Y-73.9
X116.9Y-65.6
X121.0Y-89.0
X123.4Y-62.4
X123.4Y-65.6
X126.3Y-77.738
X127.3Y-81.35
X127.72Y-83.8
X127.85Y-64.6
X129.1Y-104.3
X130.04Y-81.51
X133.0Y-56.0
X133.0Y-88.85
X133.34Y-79.91
X134.5Y-49.0
X134.83Y-81.26
X137.91Y-86.21
X138.48Y-79.08
X139.25Y-99.462
X140.12Y-84.7
X140.19Y-77.62
X140.39Y-75.1
X143.95Y-101.1
X144.76Y-104.17
X145.5Y-54.0
X145.9Y-68.65
X147.1Y-98.8
X147.35Y-65.3
X149.85Y-99.7
X149.95Y-64.3
X150.89Y-106.35
X151.4Y-58.95
X154.35Y-81.4
X154.4Y-97.95
X156.061Y-73.012
X157.15Y-75.6
X159.5Y-95.9
X159.77Y-70.15
X159.77Y-72.338
X160.0Y-74.1
X160.8Y-94.0
X161.0Y-60.2
X162.3Y-90.2
X164.2Y-86.575
X166.95Y-96.8
T4
X137.2Y-63.85
X140.1Y-63.85
X155.3Y-88.1
X155.3Y-90.1
T5
X95.75Y-55.95
X95.75Y-68.65
X98.29Y-55.95
X98.29Y-68.65
X100.83Y-55.95
X100.83Y-68.65
X103.37Y-55.95
X103.37Y-68.65
X104.3Y-109.96
X104.3Y-112.5
X105.91Y-55.95
X105.91Y-68.65
X106.84Y-109.96
X106.84Y-112.5
X109.38Y-109.96
X109.38Y-112.5
X111.92Y-109.96
X111.92Y-112.5
X114.46Y-109.96
X114.46Y-112.5
X116.07Y-55.95
X116.07Y-68.65
X118.61Y-55.95
X118.61Y-68.65
X121.15Y-55.95
X121.15Y-68.65
X123.69Y-55.95
X123.69Y-68.65
X126.23Y-55.95
X126.23Y-68.65
X149.6Y-55.05
X159.6Y-55.05
X162.2Y-99.45
X162.2Y-101.99
X162.2Y-104.53
X164.74Y-99.45
X164.74Y-101.99
X164.74Y-104.53
T6
X91.85Y-45.95
X91.85Y-50.45
X98.35Y-45.95
X98.35Y-50.45
X101.1Y-98.3
X101.1Y-102.8
X101.75Y-45.95
X101.75Y-50.45
X107.6Y-98.3
X107.6Y-102.8
X108.25Y-45.95
X108.25Y-50.45
X111.65Y-45.95
X111.65Y-50.45
X118.15Y-45.95
X118.15Y-50.45
X121.65Y-45.95
X121.65Y-50.45
X125.75Y-98.3
X125.75Y-102.8
X128.15Y-45.95
X128.15Y-50.45
X132.25Y-98.3
X132.25Y-102.8
X133.7Y-44.85
X133.7Y-51.55
X139.3Y-44.85
X139.3Y-48.05
X139.3Y-51.55
T7
X95.2Y-103.65
X95.2Y-110.35
X95.2Y-117.05
X162.75Y-110.35
T3
G00X161.58Y-66.88
M15
G01X162.18Y-66.88
M16
G05
G00X161.58Y-75.52
M15
G01X162.18Y-75.52
M16
G05
G00X165.38Y-66.88
M15
G01X165.98Y-66.88
M16
G05
G00X165.38Y-75.52
M15
G01X165.98Y-75.52
M16
G05
M30
