G04 #@! TF.GenerationSoftware,KiCad,Pcbnew,9.0.6-9.0.6~ubuntu24.04.1*
G04 #@! TF.CreationDate,2026-01-10T11:13:35+03:00*
G04 #@! TF.ProjectId,Dreamstalker-PRO-v2,44726561-6d73-4746-916c-6b65722d5052,2.4*
G04 #@! TF.SameCoordinates,Original*
G04 #@! TF.FileFunction,Legend,Top*
G04 #@! TF.FilePolarity,Positive*
%FSLAX46Y46*%
G04 Gerber Fmt 4.6, Leading zero omitted, Abs format (unit mm)*
G04 Created by KiCad (PCBNEW 9.0.6-9.0.6~ubuntu24.04.1) date 2026-01-10 11:13:35*
%MOMM*%
%LPD*%
G01*
G04 APERTURE LIST*
%ADD10C,0.250000*%
%ADD11C,0.150000*%
%ADD12C,0.254000*%
%ADD13C,0.180000*%
%ADD14C,0.120000*%
%ADD15C,0.200000*%
%ADD16C,0.100000*%
%ADD17R,1.500000X1.500000*%
%ADD18C,1.500000*%
G04 APERTURE END LIST*
D10*
X140724473Y-108708857D02*
X140671139Y-108646952D01*
X140671139Y-108646952D02*
X140564473Y-108585047D01*
X140564473Y-108585047D02*
X140457806Y-108585047D01*
X140457806Y-108585047D02*
X140351139Y-108646952D01*
X140351139Y-108646952D02*
X140297806Y-108708857D01*
X140297806Y-108708857D02*
X140244473Y-108832666D01*
X140244473Y-108832666D02*
X140244473Y-108956476D01*
X140244473Y-108956476D02*
X140297806Y-109080285D01*
X140297806Y-109080285D02*
X140351139Y-109142190D01*
X140351139Y-109142190D02*
X140457806Y-109204095D01*
X140457806Y-109204095D02*
X140564473Y-109204095D01*
X140564473Y-109204095D02*
X140671139Y-109142190D01*
X140671139Y-109142190D02*
X140724473Y-109080285D01*
X140724473Y-108585047D02*
X140724473Y-109080285D01*
X140724473Y-109080285D02*
X140777806Y-109142190D01*
X140777806Y-109142190D02*
X140831139Y-109142190D01*
X140831139Y-109142190D02*
X140937806Y-109080285D01*
X140937806Y-109080285D02*
X140991139Y-108956476D01*
X140991139Y-108956476D02*
X140991139Y-108646952D01*
X140991139Y-108646952D02*
X140884473Y-108461238D01*
X140884473Y-108461238D02*
X140724473Y-108337428D01*
X140724473Y-108337428D02*
X140511139Y-108275523D01*
X140511139Y-108275523D02*
X140297806Y-108337428D01*
X140297806Y-108337428D02*
X140137806Y-108461238D01*
X140137806Y-108461238D02*
X140031139Y-108646952D01*
X140031139Y-108646952D02*
X139977806Y-108894571D01*
X139977806Y-108894571D02*
X140031139Y-109142190D01*
X140031139Y-109142190D02*
X140137806Y-109327904D01*
X140137806Y-109327904D02*
X140297806Y-109451714D01*
X140297806Y-109451714D02*
X140511139Y-109513619D01*
X140511139Y-109513619D02*
X140724473Y-109451714D01*
X140724473Y-109451714D02*
X140884473Y-109327904D01*
X141417806Y-108151714D02*
X141471139Y-108089809D01*
X141471139Y-108089809D02*
X141577806Y-108027904D01*
X141577806Y-108027904D02*
X141844473Y-108027904D01*
X141844473Y-108027904D02*
X141951139Y-108089809D01*
X141951139Y-108089809D02*
X142004473Y-108151714D01*
X142004473Y-108151714D02*
X142057806Y-108275523D01*
X142057806Y-108275523D02*
X142057806Y-108399333D01*
X142057806Y-108399333D02*
X142004473Y-108585047D01*
X142004473Y-108585047D02*
X141364473Y-109327904D01*
X141364473Y-109327904D02*
X142057806Y-109327904D01*
X142751140Y-108027904D02*
X142857806Y-108027904D01*
X142857806Y-108027904D02*
X142964473Y-108089809D01*
X142964473Y-108089809D02*
X143017806Y-108151714D01*
X143017806Y-108151714D02*
X143071140Y-108275523D01*
X143071140Y-108275523D02*
X143124473Y-108523142D01*
X143124473Y-108523142D02*
X143124473Y-108832666D01*
X143124473Y-108832666D02*
X143071140Y-109080285D01*
X143071140Y-109080285D02*
X143017806Y-109204095D01*
X143017806Y-109204095D02*
X142964473Y-109266000D01*
X142964473Y-109266000D02*
X142857806Y-109327904D01*
X142857806Y-109327904D02*
X142751140Y-109327904D01*
X142751140Y-109327904D02*
X142644473Y-109266000D01*
X142644473Y-109266000D02*
X142591140Y-109204095D01*
X142591140Y-109204095D02*
X142537806Y-109080285D01*
X142537806Y-109080285D02*
X142484473Y-108832666D01*
X142484473Y-108832666D02*
X142484473Y-108523142D01*
X142484473Y-108523142D02*
X142537806Y-108275523D01*
X142537806Y-108275523D02*
X142591140Y-108151714D01*
X142591140Y-108151714D02*
X142644473Y-108089809D01*
X142644473Y-108089809D02*
X142751140Y-108027904D01*
X143551140Y-108151714D02*
X143604473Y-108089809D01*
X143604473Y-108089809D02*
X143711140Y-108027904D01*
X143711140Y-108027904D02*
X143977807Y-108027904D01*
X143977807Y-108027904D02*
X144084473Y-108089809D01*
X144084473Y-108089809D02*
X144137807Y-108151714D01*
X144137807Y-108151714D02*
X144191140Y-108275523D01*
X144191140Y-108275523D02*
X144191140Y-108399333D01*
X144191140Y-108399333D02*
X144137807Y-108585047D01*
X144137807Y-108585047D02*
X143497807Y-109327904D01*
X143497807Y-109327904D02*
X144191140Y-109327904D01*
X145204474Y-108027904D02*
X144671140Y-108027904D01*
X144671140Y-108027904D02*
X144617807Y-108646952D01*
X144617807Y-108646952D02*
X144671140Y-108585047D01*
X144671140Y-108585047D02*
X144777807Y-108523142D01*
X144777807Y-108523142D02*
X145044474Y-108523142D01*
X145044474Y-108523142D02*
X145151140Y-108585047D01*
X145151140Y-108585047D02*
X145204474Y-108646952D01*
X145204474Y-108646952D02*
X145257807Y-108770761D01*
X145257807Y-108770761D02*
X145257807Y-109080285D01*
X145257807Y-109080285D02*
X145204474Y-109204095D01*
X145204474Y-109204095D02*
X145151140Y-109266000D01*
X145151140Y-109266000D02*
X145044474Y-109327904D01*
X145044474Y-109327904D02*
X144777807Y-109327904D01*
X144777807Y-109327904D02*
X144671140Y-109266000D01*
X144671140Y-109266000D02*
X144617807Y-109204095D01*
X146804474Y-108027904D02*
X147017807Y-108027904D01*
X147017807Y-108027904D02*
X147124474Y-108089809D01*
X147124474Y-108089809D02*
X147231140Y-108213619D01*
X147231140Y-108213619D02*
X147284474Y-108461238D01*
X147284474Y-108461238D02*
X147284474Y-108894571D01*
X147284474Y-108894571D02*
X147231140Y-109142190D01*
X147231140Y-109142190D02*
X147124474Y-109266000D01*
X147124474Y-109266000D02*
X147017807Y-109327904D01*
X147017807Y-109327904D02*
X146804474Y-109327904D01*
X146804474Y-109327904D02*
X146697807Y-109266000D01*
X146697807Y-109266000D02*
X146591140Y-109142190D01*
X146591140Y-109142190D02*
X146537807Y-108894571D01*
X146537807Y-108894571D02*
X146537807Y-108461238D01*
X146537807Y-108461238D02*
X146591140Y-108213619D01*
X146591140Y-108213619D02*
X146697807Y-108089809D01*
X146697807Y-108089809D02*
X146804474Y-108027904D01*
X148404473Y-109327904D02*
X148031140Y-108708857D01*
X147764473Y-109327904D02*
X147764473Y-108027904D01*
X147764473Y-108027904D02*
X148191140Y-108027904D01*
X148191140Y-108027904D02*
X148297807Y-108089809D01*
X148297807Y-108089809D02*
X148351140Y-108151714D01*
X148351140Y-108151714D02*
X148404473Y-108275523D01*
X148404473Y-108275523D02*
X148404473Y-108461238D01*
X148404473Y-108461238D02*
X148351140Y-108585047D01*
X148351140Y-108585047D02*
X148297807Y-108646952D01*
X148297807Y-108646952D02*
X148191140Y-108708857D01*
X148191140Y-108708857D02*
X147764473Y-108708857D01*
X148884473Y-109327904D02*
X148884473Y-108027904D01*
X148884473Y-108027904D02*
X149311140Y-108027904D01*
X149311140Y-108027904D02*
X149417807Y-108089809D01*
X149417807Y-108089809D02*
X149471140Y-108151714D01*
X149471140Y-108151714D02*
X149524473Y-108275523D01*
X149524473Y-108275523D02*
X149524473Y-108461238D01*
X149524473Y-108461238D02*
X149471140Y-108585047D01*
X149471140Y-108585047D02*
X149417807Y-108646952D01*
X149417807Y-108646952D02*
X149311140Y-108708857D01*
X149311140Y-108708857D02*
X148884473Y-108708857D01*
X149951140Y-108956476D02*
X150484473Y-108956476D01*
X149844473Y-109327904D02*
X150217807Y-108027904D01*
X150217807Y-108027904D02*
X150591140Y-109327904D01*
X151497807Y-109327904D02*
X150964473Y-109327904D01*
X150964473Y-109327904D02*
X150964473Y-108027904D01*
X151711140Y-108027904D02*
X152351140Y-108027904D01*
X152031140Y-109327904D02*
X152031140Y-108027904D01*
X152724473Y-108646952D02*
X153097807Y-108646952D01*
X153257807Y-109327904D02*
X152724473Y-109327904D01*
X152724473Y-109327904D02*
X152724473Y-108027904D01*
X152724473Y-108027904D02*
X153257807Y-108027904D01*
X154377806Y-109204095D02*
X154324473Y-109266000D01*
X154324473Y-109266000D02*
X154164473Y-109327904D01*
X154164473Y-109327904D02*
X154057806Y-109327904D01*
X154057806Y-109327904D02*
X153897806Y-109266000D01*
X153897806Y-109266000D02*
X153791140Y-109142190D01*
X153791140Y-109142190D02*
X153737806Y-109018380D01*
X153737806Y-109018380D02*
X153684473Y-108770761D01*
X153684473Y-108770761D02*
X153684473Y-108585047D01*
X153684473Y-108585047D02*
X153737806Y-108337428D01*
X153737806Y-108337428D02*
X153791140Y-108213619D01*
X153791140Y-108213619D02*
X153897806Y-108089809D01*
X153897806Y-108089809D02*
X154057806Y-108027904D01*
X154057806Y-108027904D02*
X154164473Y-108027904D01*
X154164473Y-108027904D02*
X154324473Y-108089809D01*
X154324473Y-108089809D02*
X154377806Y-108151714D01*
X154857806Y-109327904D02*
X154857806Y-108027904D01*
X154857806Y-108646952D02*
X155497806Y-108646952D01*
X155497806Y-109327904D02*
X155497806Y-108027904D01*
X150271139Y-111127904D02*
X149897806Y-110508857D01*
X149631139Y-111127904D02*
X149631139Y-109827904D01*
X149631139Y-109827904D02*
X150057806Y-109827904D01*
X150057806Y-109827904D02*
X150164473Y-109889809D01*
X150164473Y-109889809D02*
X150217806Y-109951714D01*
X150217806Y-109951714D02*
X150271139Y-110075523D01*
X150271139Y-110075523D02*
X150271139Y-110261238D01*
X150271139Y-110261238D02*
X150217806Y-110385047D01*
X150217806Y-110385047D02*
X150164473Y-110446952D01*
X150164473Y-110446952D02*
X150057806Y-110508857D01*
X150057806Y-110508857D02*
X149631139Y-110508857D01*
X151177806Y-111066000D02*
X151071139Y-111127904D01*
X151071139Y-111127904D02*
X150857806Y-111127904D01*
X150857806Y-111127904D02*
X150751139Y-111066000D01*
X150751139Y-111066000D02*
X150697806Y-110942190D01*
X150697806Y-110942190D02*
X150697806Y-110446952D01*
X150697806Y-110446952D02*
X150751139Y-110323142D01*
X150751139Y-110323142D02*
X150857806Y-110261238D01*
X150857806Y-110261238D02*
X151071139Y-110261238D01*
X151071139Y-110261238D02*
X151177806Y-110323142D01*
X151177806Y-110323142D02*
X151231139Y-110446952D01*
X151231139Y-110446952D02*
X151231139Y-110570761D01*
X151231139Y-110570761D02*
X150697806Y-110694571D01*
X151604473Y-110261238D02*
X151871139Y-111127904D01*
X151871139Y-111127904D02*
X152137806Y-110261238D01*
X153364472Y-109951714D02*
X153417805Y-109889809D01*
X153417805Y-109889809D02*
X153524472Y-109827904D01*
X153524472Y-109827904D02*
X153791139Y-109827904D01*
X153791139Y-109827904D02*
X153897805Y-109889809D01*
X153897805Y-109889809D02*
X153951139Y-109951714D01*
X153951139Y-109951714D02*
X154004472Y-110075523D01*
X154004472Y-110075523D02*
X154004472Y-110199333D01*
X154004472Y-110199333D02*
X153951139Y-110385047D01*
X153951139Y-110385047D02*
X153311139Y-111127904D01*
X153311139Y-111127904D02*
X154004472Y-111127904D01*
X154484472Y-111004095D02*
X154537806Y-111066000D01*
X154537806Y-111066000D02*
X154484472Y-111127904D01*
X154484472Y-111127904D02*
X154431139Y-111066000D01*
X154431139Y-111066000D02*
X154484472Y-111004095D01*
X154484472Y-111004095D02*
X154484472Y-111127904D01*
X155497805Y-110261238D02*
X155497805Y-111127904D01*
X155231139Y-109766000D02*
X154964472Y-110694571D01*
X154964472Y-110694571D02*
X155657805Y-110694571D01*
D11*
X109166667Y-101057200D02*
X109309524Y-101104819D01*
X109309524Y-101104819D02*
X109547619Y-101104819D01*
X109547619Y-101104819D02*
X109642857Y-101057200D01*
X109642857Y-101057200D02*
X109690476Y-101009580D01*
X109690476Y-101009580D02*
X109738095Y-100914342D01*
X109738095Y-100914342D02*
X109738095Y-100819104D01*
X109738095Y-100819104D02*
X109690476Y-100723866D01*
X109690476Y-100723866D02*
X109642857Y-100676247D01*
X109642857Y-100676247D02*
X109547619Y-100628628D01*
X109547619Y-100628628D02*
X109357143Y-100581009D01*
X109357143Y-100581009D02*
X109261905Y-100533390D01*
X109261905Y-100533390D02*
X109214286Y-100485771D01*
X109214286Y-100485771D02*
X109166667Y-100390533D01*
X109166667Y-100390533D02*
X109166667Y-100295295D01*
X109166667Y-100295295D02*
X109214286Y-100200057D01*
X109214286Y-100200057D02*
X109261905Y-100152438D01*
X109261905Y-100152438D02*
X109357143Y-100104819D01*
X109357143Y-100104819D02*
X109595238Y-100104819D01*
X109595238Y-100104819D02*
X109738095Y-100152438D01*
X110071429Y-100104819D02*
X110309524Y-101104819D01*
X110309524Y-101104819D02*
X110500000Y-100390533D01*
X110500000Y-100390533D02*
X110690476Y-101104819D01*
X110690476Y-101104819D02*
X110928572Y-100104819D01*
X111214286Y-100104819D02*
X111833333Y-100104819D01*
X111833333Y-100104819D02*
X111500000Y-100485771D01*
X111500000Y-100485771D02*
X111642857Y-100485771D01*
X111642857Y-100485771D02*
X111738095Y-100533390D01*
X111738095Y-100533390D02*
X111785714Y-100581009D01*
X111785714Y-100581009D02*
X111833333Y-100676247D01*
X111833333Y-100676247D02*
X111833333Y-100914342D01*
X111833333Y-100914342D02*
X111785714Y-101009580D01*
X111785714Y-101009580D02*
X111738095Y-101057200D01*
X111738095Y-101057200D02*
X111642857Y-101104819D01*
X111642857Y-101104819D02*
X111357143Y-101104819D01*
X111357143Y-101104819D02*
X111261905Y-101057200D01*
X111261905Y-101057200D02*
X111214286Y-101009580D01*
X93890476Y-98754819D02*
X93890476Y-97754819D01*
X93890476Y-97754819D02*
X94271428Y-97754819D01*
X94271428Y-97754819D02*
X94366666Y-97802438D01*
X94366666Y-97802438D02*
X94414285Y-97850057D01*
X94414285Y-97850057D02*
X94461904Y-97945295D01*
X94461904Y-97945295D02*
X94461904Y-98088152D01*
X94461904Y-98088152D02*
X94414285Y-98183390D01*
X94414285Y-98183390D02*
X94366666Y-98231009D01*
X94366666Y-98231009D02*
X94271428Y-98278628D01*
X94271428Y-98278628D02*
X93890476Y-98278628D01*
X95080952Y-97754819D02*
X95271428Y-97754819D01*
X95271428Y-97754819D02*
X95366666Y-97802438D01*
X95366666Y-97802438D02*
X95461904Y-97897676D01*
X95461904Y-97897676D02*
X95509523Y-98088152D01*
X95509523Y-98088152D02*
X95509523Y-98421485D01*
X95509523Y-98421485D02*
X95461904Y-98611961D01*
X95461904Y-98611961D02*
X95366666Y-98707200D01*
X95366666Y-98707200D02*
X95271428Y-98754819D01*
X95271428Y-98754819D02*
X95080952Y-98754819D01*
X95080952Y-98754819D02*
X94985714Y-98707200D01*
X94985714Y-98707200D02*
X94890476Y-98611961D01*
X94890476Y-98611961D02*
X94842857Y-98421485D01*
X94842857Y-98421485D02*
X94842857Y-98088152D01*
X94842857Y-98088152D02*
X94890476Y-97897676D01*
X94890476Y-97897676D02*
X94985714Y-97802438D01*
X94985714Y-97802438D02*
X95080952Y-97754819D01*
X95842857Y-97754819D02*
X96080952Y-98754819D01*
X96080952Y-98754819D02*
X96271428Y-98040533D01*
X96271428Y-98040533D02*
X96461904Y-98754819D01*
X96461904Y-98754819D02*
X96700000Y-97754819D01*
X97080952Y-98231009D02*
X97414285Y-98231009D01*
X97557142Y-98754819D02*
X97080952Y-98754819D01*
X97080952Y-98754819D02*
X97080952Y-97754819D01*
X97080952Y-97754819D02*
X97557142Y-97754819D01*
X98557142Y-98754819D02*
X98223809Y-98278628D01*
X97985714Y-98754819D02*
X97985714Y-97754819D01*
X97985714Y-97754819D02*
X98366666Y-97754819D01*
X98366666Y-97754819D02*
X98461904Y-97802438D01*
X98461904Y-97802438D02*
X98509523Y-97850057D01*
X98509523Y-97850057D02*
X98557142Y-97945295D01*
X98557142Y-97945295D02*
X98557142Y-98088152D01*
X98557142Y-98088152D02*
X98509523Y-98183390D01*
X98509523Y-98183390D02*
X98461904Y-98231009D01*
X98461904Y-98231009D02*
X98366666Y-98278628D01*
X98366666Y-98278628D02*
X97985714Y-98278628D01*
X121366667Y-100957200D02*
X121509524Y-101004819D01*
X121509524Y-101004819D02*
X121747619Y-101004819D01*
X121747619Y-101004819D02*
X121842857Y-100957200D01*
X121842857Y-100957200D02*
X121890476Y-100909580D01*
X121890476Y-100909580D02*
X121938095Y-100814342D01*
X121938095Y-100814342D02*
X121938095Y-100719104D01*
X121938095Y-100719104D02*
X121890476Y-100623866D01*
X121890476Y-100623866D02*
X121842857Y-100576247D01*
X121842857Y-100576247D02*
X121747619Y-100528628D01*
X121747619Y-100528628D02*
X121557143Y-100481009D01*
X121557143Y-100481009D02*
X121461905Y-100433390D01*
X121461905Y-100433390D02*
X121414286Y-100385771D01*
X121414286Y-100385771D02*
X121366667Y-100290533D01*
X121366667Y-100290533D02*
X121366667Y-100195295D01*
X121366667Y-100195295D02*
X121414286Y-100100057D01*
X121414286Y-100100057D02*
X121461905Y-100052438D01*
X121461905Y-100052438D02*
X121557143Y-100004819D01*
X121557143Y-100004819D02*
X121795238Y-100004819D01*
X121795238Y-100004819D02*
X121938095Y-100052438D01*
X122271429Y-100004819D02*
X122509524Y-101004819D01*
X122509524Y-101004819D02*
X122700000Y-100290533D01*
X122700000Y-100290533D02*
X122890476Y-101004819D01*
X122890476Y-101004819D02*
X123128572Y-100004819D01*
X123938095Y-100338152D02*
X123938095Y-101004819D01*
X123700000Y-99957200D02*
X123461905Y-100671485D01*
X123461905Y-100671485D02*
X124080952Y-100671485D01*
X127333333Y-105809580D02*
X127285714Y-105857200D01*
X127285714Y-105857200D02*
X127142857Y-105904819D01*
X127142857Y-105904819D02*
X127047619Y-105904819D01*
X127047619Y-105904819D02*
X126904762Y-105857200D01*
X126904762Y-105857200D02*
X126809524Y-105761961D01*
X126809524Y-105761961D02*
X126761905Y-105666723D01*
X126761905Y-105666723D02*
X126714286Y-105476247D01*
X126714286Y-105476247D02*
X126714286Y-105333390D01*
X126714286Y-105333390D02*
X126761905Y-105142914D01*
X126761905Y-105142914D02*
X126809524Y-105047676D01*
X126809524Y-105047676D02*
X126904762Y-104952438D01*
X126904762Y-104952438D02*
X127047619Y-104904819D01*
X127047619Y-104904819D02*
X127142857Y-104904819D01*
X127142857Y-104904819D02*
X127285714Y-104952438D01*
X127285714Y-104952438D02*
X127333333Y-105000057D01*
X127761905Y-105904819D02*
X127761905Y-104904819D01*
X127761905Y-105381009D02*
X128333333Y-105381009D01*
X128333333Y-105904819D02*
X128333333Y-104904819D01*
X128809524Y-105381009D02*
X129142857Y-105381009D01*
X129285714Y-105904819D02*
X128809524Y-105904819D01*
X128809524Y-105904819D02*
X128809524Y-104904819D01*
X128809524Y-104904819D02*
X129285714Y-104904819D01*
X130285714Y-105809580D02*
X130238095Y-105857200D01*
X130238095Y-105857200D02*
X130095238Y-105904819D01*
X130095238Y-105904819D02*
X130000000Y-105904819D01*
X130000000Y-105904819D02*
X129857143Y-105857200D01*
X129857143Y-105857200D02*
X129761905Y-105761961D01*
X129761905Y-105761961D02*
X129714286Y-105666723D01*
X129714286Y-105666723D02*
X129666667Y-105476247D01*
X129666667Y-105476247D02*
X129666667Y-105333390D01*
X129666667Y-105333390D02*
X129714286Y-105142914D01*
X129714286Y-105142914D02*
X129761905Y-105047676D01*
X129761905Y-105047676D02*
X129857143Y-104952438D01*
X129857143Y-104952438D02*
X130000000Y-104904819D01*
X130000000Y-104904819D02*
X130095238Y-104904819D01*
X130095238Y-104904819D02*
X130238095Y-104952438D01*
X130238095Y-104952438D02*
X130285714Y-105000057D01*
X130714286Y-105904819D02*
X130714286Y-104904819D01*
X131285714Y-105904819D02*
X130857143Y-105333390D01*
X131285714Y-104904819D02*
X130714286Y-105476247D01*
D12*
X91379047Y-89595270D02*
X91258095Y-89534794D01*
X91258095Y-89534794D02*
X91137142Y-89413842D01*
X91137142Y-89413842D02*
X90955714Y-89232413D01*
X90955714Y-89232413D02*
X90834761Y-89171937D01*
X90834761Y-89171937D02*
X90713809Y-89171937D01*
X90774285Y-89474318D02*
X90653333Y-89413842D01*
X90653333Y-89413842D02*
X90532380Y-89292889D01*
X90532380Y-89292889D02*
X90471904Y-89050984D01*
X90471904Y-89050984D02*
X90471904Y-88627651D01*
X90471904Y-88627651D02*
X90532380Y-88385746D01*
X90532380Y-88385746D02*
X90653333Y-88264794D01*
X90653333Y-88264794D02*
X90774285Y-88204318D01*
X90774285Y-88204318D02*
X91016190Y-88204318D01*
X91016190Y-88204318D02*
X91137142Y-88264794D01*
X91137142Y-88264794D02*
X91258095Y-88385746D01*
X91258095Y-88385746D02*
X91318571Y-88627651D01*
X91318571Y-88627651D02*
X91318571Y-89050984D01*
X91318571Y-89050984D02*
X91258095Y-89292889D01*
X91258095Y-89292889D02*
X91137142Y-89413842D01*
X91137142Y-89413842D02*
X91016190Y-89474318D01*
X91016190Y-89474318D02*
X90774285Y-89474318D01*
X92528095Y-89474318D02*
X91802380Y-89474318D01*
X92165237Y-89474318D02*
X92165237Y-88204318D01*
X92165237Y-88204318D02*
X92044285Y-88385746D01*
X92044285Y-88385746D02*
X91923333Y-88506699D01*
X91923333Y-88506699D02*
X91802380Y-88567175D01*
D11*
X98433333Y-89854819D02*
X98100000Y-89378628D01*
X97861905Y-89854819D02*
X97861905Y-88854819D01*
X97861905Y-88854819D02*
X98242857Y-88854819D01*
X98242857Y-88854819D02*
X98338095Y-88902438D01*
X98338095Y-88902438D02*
X98385714Y-88950057D01*
X98385714Y-88950057D02*
X98433333Y-89045295D01*
X98433333Y-89045295D02*
X98433333Y-89188152D01*
X98433333Y-89188152D02*
X98385714Y-89283390D01*
X98385714Y-89283390D02*
X98338095Y-89331009D01*
X98338095Y-89331009D02*
X98242857Y-89378628D01*
X98242857Y-89378628D02*
X97861905Y-89378628D01*
X98766667Y-88854819D02*
X99385714Y-88854819D01*
X99385714Y-88854819D02*
X99052381Y-89235771D01*
X99052381Y-89235771D02*
X99195238Y-89235771D01*
X99195238Y-89235771D02*
X99290476Y-89283390D01*
X99290476Y-89283390D02*
X99338095Y-89331009D01*
X99338095Y-89331009D02*
X99385714Y-89426247D01*
X99385714Y-89426247D02*
X99385714Y-89664342D01*
X99385714Y-89664342D02*
X99338095Y-89759580D01*
X99338095Y-89759580D02*
X99290476Y-89807200D01*
X99290476Y-89807200D02*
X99195238Y-89854819D01*
X99195238Y-89854819D02*
X98909524Y-89854819D01*
X98909524Y-89854819D02*
X98814286Y-89807200D01*
X98814286Y-89807200D02*
X98766667Y-89759580D01*
X133489580Y-57754166D02*
X133537200Y-57801785D01*
X133537200Y-57801785D02*
X133584819Y-57944642D01*
X133584819Y-57944642D02*
X133584819Y-58039880D01*
X133584819Y-58039880D02*
X133537200Y-58182737D01*
X133537200Y-58182737D02*
X133441961Y-58277975D01*
X133441961Y-58277975D02*
X133346723Y-58325594D01*
X133346723Y-58325594D02*
X133156247Y-58373213D01*
X133156247Y-58373213D02*
X133013390Y-58373213D01*
X133013390Y-58373213D02*
X132822914Y-58325594D01*
X132822914Y-58325594D02*
X132727676Y-58277975D01*
X132727676Y-58277975D02*
X132632438Y-58182737D01*
X132632438Y-58182737D02*
X132584819Y-58039880D01*
X132584819Y-58039880D02*
X132584819Y-57944642D01*
X132584819Y-57944642D02*
X132632438Y-57801785D01*
X132632438Y-57801785D02*
X132680057Y-57754166D01*
X133584819Y-57277975D02*
X133584819Y-57087499D01*
X133584819Y-57087499D02*
X133537200Y-56992261D01*
X133537200Y-56992261D02*
X133489580Y-56944642D01*
X133489580Y-56944642D02*
X133346723Y-56849404D01*
X133346723Y-56849404D02*
X133156247Y-56801785D01*
X133156247Y-56801785D02*
X132775295Y-56801785D01*
X132775295Y-56801785D02*
X132680057Y-56849404D01*
X132680057Y-56849404D02*
X132632438Y-56897023D01*
X132632438Y-56897023D02*
X132584819Y-56992261D01*
X132584819Y-56992261D02*
X132584819Y-57182737D01*
X132584819Y-57182737D02*
X132632438Y-57277975D01*
X132632438Y-57277975D02*
X132680057Y-57325594D01*
X132680057Y-57325594D02*
X132775295Y-57373213D01*
X132775295Y-57373213D02*
X133013390Y-57373213D01*
X133013390Y-57373213D02*
X133108628Y-57325594D01*
X133108628Y-57325594D02*
X133156247Y-57277975D01*
X133156247Y-57277975D02*
X133203866Y-57182737D01*
X133203866Y-57182737D02*
X133203866Y-56992261D01*
X133203866Y-56992261D02*
X133156247Y-56897023D01*
X133156247Y-56897023D02*
X133108628Y-56849404D01*
X133108628Y-56849404D02*
X133013390Y-56801785D01*
X93833333Y-93159580D02*
X93785714Y-93207200D01*
X93785714Y-93207200D02*
X93642857Y-93254819D01*
X93642857Y-93254819D02*
X93547619Y-93254819D01*
X93547619Y-93254819D02*
X93404762Y-93207200D01*
X93404762Y-93207200D02*
X93309524Y-93111961D01*
X93309524Y-93111961D02*
X93261905Y-93016723D01*
X93261905Y-93016723D02*
X93214286Y-92826247D01*
X93214286Y-92826247D02*
X93214286Y-92683390D01*
X93214286Y-92683390D02*
X93261905Y-92492914D01*
X93261905Y-92492914D02*
X93309524Y-92397676D01*
X93309524Y-92397676D02*
X93404762Y-92302438D01*
X93404762Y-92302438D02*
X93547619Y-92254819D01*
X93547619Y-92254819D02*
X93642857Y-92254819D01*
X93642857Y-92254819D02*
X93785714Y-92302438D01*
X93785714Y-92302438D02*
X93833333Y-92350057D01*
X94785714Y-93254819D02*
X94214286Y-93254819D01*
X94500000Y-93254819D02*
X94500000Y-92254819D01*
X94500000Y-92254819D02*
X94404762Y-92397676D01*
X94404762Y-92397676D02*
X94309524Y-92492914D01*
X94309524Y-92492914D02*
X94214286Y-92540533D01*
D12*
X93107856Y-71824318D02*
X93107856Y-70554318D01*
X93107856Y-70554318D02*
X93410237Y-70554318D01*
X93410237Y-70554318D02*
X93591666Y-70614794D01*
X93591666Y-70614794D02*
X93712618Y-70735746D01*
X93712618Y-70735746D02*
X93773095Y-70856699D01*
X93773095Y-70856699D02*
X93833571Y-71098603D01*
X93833571Y-71098603D02*
X93833571Y-71280032D01*
X93833571Y-71280032D02*
X93773095Y-71521937D01*
X93773095Y-71521937D02*
X93712618Y-71642889D01*
X93712618Y-71642889D02*
X93591666Y-71763842D01*
X93591666Y-71763842D02*
X93410237Y-71824318D01*
X93410237Y-71824318D02*
X93107856Y-71824318D01*
X94317380Y-71763842D02*
X94498809Y-71824318D01*
X94498809Y-71824318D02*
X94801190Y-71824318D01*
X94801190Y-71824318D02*
X94922142Y-71763842D01*
X94922142Y-71763842D02*
X94982618Y-71703365D01*
X94982618Y-71703365D02*
X95043095Y-71582413D01*
X95043095Y-71582413D02*
X95043095Y-71461461D01*
X95043095Y-71461461D02*
X94982618Y-71340508D01*
X94982618Y-71340508D02*
X94922142Y-71280032D01*
X94922142Y-71280032D02*
X94801190Y-71219556D01*
X94801190Y-71219556D02*
X94559285Y-71159080D01*
X94559285Y-71159080D02*
X94438333Y-71098603D01*
X94438333Y-71098603D02*
X94377856Y-71038127D01*
X94377856Y-71038127D02*
X94317380Y-70917175D01*
X94317380Y-70917175D02*
X94317380Y-70796222D01*
X94317380Y-70796222D02*
X94377856Y-70675270D01*
X94377856Y-70675270D02*
X94438333Y-70614794D01*
X94438333Y-70614794D02*
X94559285Y-70554318D01*
X94559285Y-70554318D02*
X94861666Y-70554318D01*
X94861666Y-70554318D02*
X95043095Y-70614794D01*
X96252619Y-71824318D02*
X95526904Y-71824318D01*
X95889761Y-71824318D02*
X95889761Y-70554318D01*
X95889761Y-70554318D02*
X95768809Y-70735746D01*
X95768809Y-70735746D02*
X95647857Y-70856699D01*
X95647857Y-70856699D02*
X95526904Y-70917175D01*
D11*
X164757142Y-46754819D02*
X164280952Y-46754819D01*
X164280952Y-46754819D02*
X164280952Y-45754819D01*
X165042857Y-46707200D02*
X165185714Y-46754819D01*
X165185714Y-46754819D02*
X165423809Y-46754819D01*
X165423809Y-46754819D02*
X165519047Y-46707200D01*
X165519047Y-46707200D02*
X165566666Y-46659580D01*
X165566666Y-46659580D02*
X165614285Y-46564342D01*
X165614285Y-46564342D02*
X165614285Y-46469104D01*
X165614285Y-46469104D02*
X165566666Y-46373866D01*
X165566666Y-46373866D02*
X165519047Y-46326247D01*
X165519047Y-46326247D02*
X165423809Y-46278628D01*
X165423809Y-46278628D02*
X165233333Y-46231009D01*
X165233333Y-46231009D02*
X165138095Y-46183390D01*
X165138095Y-46183390D02*
X165090476Y-46135771D01*
X165090476Y-46135771D02*
X165042857Y-46040533D01*
X165042857Y-46040533D02*
X165042857Y-45945295D01*
X165042857Y-45945295D02*
X165090476Y-45850057D01*
X165090476Y-45850057D02*
X165138095Y-45802438D01*
X165138095Y-45802438D02*
X165233333Y-45754819D01*
X165233333Y-45754819D02*
X165471428Y-45754819D01*
X165471428Y-45754819D02*
X165614285Y-45802438D01*
X166566666Y-46754819D02*
X165995238Y-46754819D01*
X166280952Y-46754819D02*
X166280952Y-45754819D01*
X166280952Y-45754819D02*
X166185714Y-45897676D01*
X166185714Y-45897676D02*
X166090476Y-45992914D01*
X166090476Y-45992914D02*
X165995238Y-46040533D01*
X149209048Y-52583866D02*
X149970953Y-52583866D01*
X149590000Y-52964819D02*
X149590000Y-52202914D01*
X90790476Y-79454819D02*
X90790476Y-78454819D01*
X90790476Y-78454819D02*
X91123809Y-79169104D01*
X91123809Y-79169104D02*
X91457142Y-78454819D01*
X91457142Y-78454819D02*
X91457142Y-79454819D01*
X92457142Y-79454819D02*
X91885714Y-79454819D01*
X92171428Y-79454819D02*
X92171428Y-78454819D01*
X92171428Y-78454819D02*
X92076190Y-78597676D01*
X92076190Y-78597676D02*
X91980952Y-78692914D01*
X91980952Y-78692914D02*
X91885714Y-78740533D01*
D12*
X163962618Y-108574318D02*
X163962618Y-107304318D01*
X163962618Y-107304318D02*
X164264999Y-107304318D01*
X164264999Y-107304318D02*
X164446428Y-107364794D01*
X164446428Y-107364794D02*
X164567380Y-107485746D01*
X164567380Y-107485746D02*
X164627857Y-107606699D01*
X164627857Y-107606699D02*
X164688333Y-107848603D01*
X164688333Y-107848603D02*
X164688333Y-108030032D01*
X164688333Y-108030032D02*
X164627857Y-108271937D01*
X164627857Y-108271937D02*
X164567380Y-108392889D01*
X164567380Y-108392889D02*
X164446428Y-108513842D01*
X164446428Y-108513842D02*
X164264999Y-108574318D01*
X164264999Y-108574318D02*
X163962618Y-108574318D01*
X165172142Y-107425270D02*
X165232618Y-107364794D01*
X165232618Y-107364794D02*
X165353571Y-107304318D01*
X165353571Y-107304318D02*
X165655952Y-107304318D01*
X165655952Y-107304318D02*
X165776904Y-107364794D01*
X165776904Y-107364794D02*
X165837380Y-107425270D01*
X165837380Y-107425270D02*
X165897857Y-107546222D01*
X165897857Y-107546222D02*
X165897857Y-107667175D01*
X165897857Y-107667175D02*
X165837380Y-107848603D01*
X165837380Y-107848603D02*
X165111666Y-108574318D01*
X165111666Y-108574318D02*
X165897857Y-108574318D01*
D13*
X159746740Y-109828571D02*
X159746740Y-110971428D01*
X158746740Y-110399999D02*
X159746740Y-110399999D01*
D12*
X97462618Y-105874318D02*
X97462618Y-104604318D01*
X97462618Y-104604318D02*
X97764999Y-104604318D01*
X97764999Y-104604318D02*
X97946428Y-104664794D01*
X97946428Y-104664794D02*
X98067380Y-104785746D01*
X98067380Y-104785746D02*
X98127857Y-104906699D01*
X98127857Y-104906699D02*
X98188333Y-105148603D01*
X98188333Y-105148603D02*
X98188333Y-105330032D01*
X98188333Y-105330032D02*
X98127857Y-105571937D01*
X98127857Y-105571937D02*
X98067380Y-105692889D01*
X98067380Y-105692889D02*
X97946428Y-105813842D01*
X97946428Y-105813842D02*
X97764999Y-105874318D01*
X97764999Y-105874318D02*
X97462618Y-105874318D01*
X98611666Y-104604318D02*
X99397857Y-104604318D01*
X99397857Y-104604318D02*
X98974523Y-105088127D01*
X98974523Y-105088127D02*
X99155952Y-105088127D01*
X99155952Y-105088127D02*
X99276904Y-105148603D01*
X99276904Y-105148603D02*
X99337380Y-105209080D01*
X99337380Y-105209080D02*
X99397857Y-105330032D01*
X99397857Y-105330032D02*
X99397857Y-105632413D01*
X99397857Y-105632413D02*
X99337380Y-105753365D01*
X99337380Y-105753365D02*
X99276904Y-105813842D01*
X99276904Y-105813842D02*
X99155952Y-105874318D01*
X99155952Y-105874318D02*
X98793095Y-105874318D01*
X98793095Y-105874318D02*
X98672142Y-105813842D01*
X98672142Y-105813842D02*
X98611666Y-105753365D01*
D13*
X93321428Y-105496740D02*
X92178571Y-105496740D01*
X92750000Y-104496740D02*
X92750000Y-105496740D01*
D11*
X117166666Y-110904819D02*
X117166666Y-111619104D01*
X117166666Y-111619104D02*
X117119047Y-111761961D01*
X117119047Y-111761961D02*
X117023809Y-111857200D01*
X117023809Y-111857200D02*
X116880952Y-111904819D01*
X116880952Y-111904819D02*
X116785714Y-111904819D01*
X117595238Y-111000057D02*
X117642857Y-110952438D01*
X117642857Y-110952438D02*
X117738095Y-110904819D01*
X117738095Y-110904819D02*
X117976190Y-110904819D01*
X117976190Y-110904819D02*
X118071428Y-110952438D01*
X118071428Y-110952438D02*
X118119047Y-111000057D01*
X118119047Y-111000057D02*
X118166666Y-111095295D01*
X118166666Y-111095295D02*
X118166666Y-111190533D01*
X118166666Y-111190533D02*
X118119047Y-111333390D01*
X118119047Y-111333390D02*
X117547619Y-111904819D01*
X117547619Y-111904819D02*
X118166666Y-111904819D01*
X159466666Y-103854819D02*
X159466666Y-104569104D01*
X159466666Y-104569104D02*
X159419047Y-104711961D01*
X159419047Y-104711961D02*
X159323809Y-104807200D01*
X159323809Y-104807200D02*
X159180952Y-104854819D01*
X159180952Y-104854819D02*
X159085714Y-104854819D01*
X160466666Y-104854819D02*
X159895238Y-104854819D01*
X160180952Y-104854819D02*
X160180952Y-103854819D01*
X160180952Y-103854819D02*
X160085714Y-103997676D01*
X160085714Y-103997676D02*
X159990476Y-104092914D01*
X159990476Y-104092914D02*
X159895238Y-104140533D01*
X131216666Y-47204819D02*
X131216666Y-47919104D01*
X131216666Y-47919104D02*
X131169047Y-48061961D01*
X131169047Y-48061961D02*
X131073809Y-48157200D01*
X131073809Y-48157200D02*
X130930952Y-48204819D01*
X130930952Y-48204819D02*
X130835714Y-48204819D01*
X131597619Y-47204819D02*
X132216666Y-47204819D01*
X132216666Y-47204819D02*
X131883333Y-47585771D01*
X131883333Y-47585771D02*
X132026190Y-47585771D01*
X132026190Y-47585771D02*
X132121428Y-47633390D01*
X132121428Y-47633390D02*
X132169047Y-47681009D01*
X132169047Y-47681009D02*
X132216666Y-47776247D01*
X132216666Y-47776247D02*
X132216666Y-48014342D01*
X132216666Y-48014342D02*
X132169047Y-48109580D01*
X132169047Y-48109580D02*
X132121428Y-48157200D01*
X132121428Y-48157200D02*
X132026190Y-48204819D01*
X132026190Y-48204819D02*
X131740476Y-48204819D01*
X131740476Y-48204819D02*
X131645238Y-48157200D01*
X131645238Y-48157200D02*
X131597619Y-48109580D01*
D12*
X95029047Y-121445270D02*
X94908095Y-121384794D01*
X94908095Y-121384794D02*
X94787142Y-121263842D01*
X94787142Y-121263842D02*
X94605714Y-121082413D01*
X94605714Y-121082413D02*
X94484761Y-121021937D01*
X94484761Y-121021937D02*
X94363809Y-121021937D01*
X94424285Y-121324318D02*
X94303333Y-121263842D01*
X94303333Y-121263842D02*
X94182380Y-121142889D01*
X94182380Y-121142889D02*
X94121904Y-120900984D01*
X94121904Y-120900984D02*
X94121904Y-120477651D01*
X94121904Y-120477651D02*
X94182380Y-120235746D01*
X94182380Y-120235746D02*
X94303333Y-120114794D01*
X94303333Y-120114794D02*
X94424285Y-120054318D01*
X94424285Y-120054318D02*
X94666190Y-120054318D01*
X94666190Y-120054318D02*
X94787142Y-120114794D01*
X94787142Y-120114794D02*
X94908095Y-120235746D01*
X94908095Y-120235746D02*
X94968571Y-120477651D01*
X94968571Y-120477651D02*
X94968571Y-120900984D01*
X94968571Y-120900984D02*
X94908095Y-121142889D01*
X94908095Y-121142889D02*
X94787142Y-121263842D01*
X94787142Y-121263842D02*
X94666190Y-121324318D01*
X94666190Y-121324318D02*
X94424285Y-121324318D01*
X96057142Y-120054318D02*
X95815237Y-120054318D01*
X95815237Y-120054318D02*
X95694285Y-120114794D01*
X95694285Y-120114794D02*
X95633809Y-120175270D01*
X95633809Y-120175270D02*
X95512856Y-120356699D01*
X95512856Y-120356699D02*
X95452380Y-120598603D01*
X95452380Y-120598603D02*
X95452380Y-121082413D01*
X95452380Y-121082413D02*
X95512856Y-121203365D01*
X95512856Y-121203365D02*
X95573333Y-121263842D01*
X95573333Y-121263842D02*
X95694285Y-121324318D01*
X95694285Y-121324318D02*
X95936190Y-121324318D01*
X95936190Y-121324318D02*
X96057142Y-121263842D01*
X96057142Y-121263842D02*
X96117618Y-121203365D01*
X96117618Y-121203365D02*
X96178095Y-121082413D01*
X96178095Y-121082413D02*
X96178095Y-120780032D01*
X96178095Y-120780032D02*
X96117618Y-120659080D01*
X96117618Y-120659080D02*
X96057142Y-120598603D01*
X96057142Y-120598603D02*
X95936190Y-120538127D01*
X95936190Y-120538127D02*
X95694285Y-120538127D01*
X95694285Y-120538127D02*
X95573333Y-120598603D01*
X95573333Y-120598603D02*
X95512856Y-120659080D01*
X95512856Y-120659080D02*
X95452380Y-120780032D01*
D13*
X92378571Y-115053259D02*
X93521428Y-115053259D01*
X92949999Y-116053259D02*
X92949999Y-115053259D01*
D11*
X103566667Y-53057200D02*
X103709524Y-53104819D01*
X103709524Y-53104819D02*
X103947619Y-53104819D01*
X103947619Y-53104819D02*
X104042857Y-53057200D01*
X104042857Y-53057200D02*
X104090476Y-53009580D01*
X104090476Y-53009580D02*
X104138095Y-52914342D01*
X104138095Y-52914342D02*
X104138095Y-52819104D01*
X104138095Y-52819104D02*
X104090476Y-52723866D01*
X104090476Y-52723866D02*
X104042857Y-52676247D01*
X104042857Y-52676247D02*
X103947619Y-52628628D01*
X103947619Y-52628628D02*
X103757143Y-52581009D01*
X103757143Y-52581009D02*
X103661905Y-52533390D01*
X103661905Y-52533390D02*
X103614286Y-52485771D01*
X103614286Y-52485771D02*
X103566667Y-52390533D01*
X103566667Y-52390533D02*
X103566667Y-52295295D01*
X103566667Y-52295295D02*
X103614286Y-52200057D01*
X103614286Y-52200057D02*
X103661905Y-52152438D01*
X103661905Y-52152438D02*
X103757143Y-52104819D01*
X103757143Y-52104819D02*
X103995238Y-52104819D01*
X103995238Y-52104819D02*
X104138095Y-52152438D01*
X104471429Y-52104819D02*
X104709524Y-53104819D01*
X104709524Y-53104819D02*
X104900000Y-52390533D01*
X104900000Y-52390533D02*
X105090476Y-53104819D01*
X105090476Y-53104819D02*
X105328572Y-52104819D01*
X105661905Y-52200057D02*
X105709524Y-52152438D01*
X105709524Y-52152438D02*
X105804762Y-52104819D01*
X105804762Y-52104819D02*
X106042857Y-52104819D01*
X106042857Y-52104819D02*
X106138095Y-52152438D01*
X106138095Y-52152438D02*
X106185714Y-52200057D01*
X106185714Y-52200057D02*
X106233333Y-52295295D01*
X106233333Y-52295295D02*
X106233333Y-52390533D01*
X106233333Y-52390533D02*
X106185714Y-52533390D01*
X106185714Y-52533390D02*
X105614286Y-53104819D01*
X105614286Y-53104819D02*
X106233333Y-53104819D01*
X102578571Y-43331009D02*
X102911904Y-43331009D01*
X103054761Y-43854819D02*
X102578571Y-43854819D01*
X102578571Y-43854819D02*
X102578571Y-42854819D01*
X102578571Y-42854819D02*
X103054761Y-42854819D01*
X103483333Y-43854819D02*
X103483333Y-42854819D01*
X103483333Y-42854819D02*
X104054761Y-43854819D01*
X104054761Y-43854819D02*
X104054761Y-42854819D01*
X104388095Y-42854819D02*
X104959523Y-42854819D01*
X104673809Y-43854819D02*
X104673809Y-42854819D01*
X105292857Y-43331009D02*
X105626190Y-43331009D01*
X105769047Y-43854819D02*
X105292857Y-43854819D01*
X105292857Y-43854819D02*
X105292857Y-42854819D01*
X105292857Y-42854819D02*
X105769047Y-42854819D01*
X106769047Y-43854819D02*
X106435714Y-43378628D01*
X106197619Y-43854819D02*
X106197619Y-42854819D01*
X106197619Y-42854819D02*
X106578571Y-42854819D01*
X106578571Y-42854819D02*
X106673809Y-42902438D01*
X106673809Y-42902438D02*
X106721428Y-42950057D01*
X106721428Y-42950057D02*
X106769047Y-43045295D01*
X106769047Y-43045295D02*
X106769047Y-43188152D01*
X106769047Y-43188152D02*
X106721428Y-43283390D01*
X106721428Y-43283390D02*
X106673809Y-43331009D01*
X106673809Y-43331009D02*
X106578571Y-43378628D01*
X106578571Y-43378628D02*
X106197619Y-43378628D01*
D12*
X94062618Y-108274318D02*
X94062618Y-107004318D01*
X94062618Y-107004318D02*
X94364999Y-107004318D01*
X94364999Y-107004318D02*
X94546428Y-107064794D01*
X94546428Y-107064794D02*
X94667380Y-107185746D01*
X94667380Y-107185746D02*
X94727857Y-107306699D01*
X94727857Y-107306699D02*
X94788333Y-107548603D01*
X94788333Y-107548603D02*
X94788333Y-107730032D01*
X94788333Y-107730032D02*
X94727857Y-107971937D01*
X94727857Y-107971937D02*
X94667380Y-108092889D01*
X94667380Y-108092889D02*
X94546428Y-108213842D01*
X94546428Y-108213842D02*
X94364999Y-108274318D01*
X94364999Y-108274318D02*
X94062618Y-108274318D01*
X95997857Y-108274318D02*
X95272142Y-108274318D01*
X95634999Y-108274318D02*
X95634999Y-107004318D01*
X95634999Y-107004318D02*
X95514047Y-107185746D01*
X95514047Y-107185746D02*
X95393095Y-107306699D01*
X95393095Y-107306699D02*
X95272142Y-107367175D01*
D13*
X98303259Y-110921428D02*
X98303259Y-109778571D01*
X99303259Y-110350000D02*
X98303259Y-110350000D01*
D11*
X94116667Y-53107200D02*
X94259524Y-53154819D01*
X94259524Y-53154819D02*
X94497619Y-53154819D01*
X94497619Y-53154819D02*
X94592857Y-53107200D01*
X94592857Y-53107200D02*
X94640476Y-53059580D01*
X94640476Y-53059580D02*
X94688095Y-52964342D01*
X94688095Y-52964342D02*
X94688095Y-52869104D01*
X94688095Y-52869104D02*
X94640476Y-52773866D01*
X94640476Y-52773866D02*
X94592857Y-52726247D01*
X94592857Y-52726247D02*
X94497619Y-52678628D01*
X94497619Y-52678628D02*
X94307143Y-52631009D01*
X94307143Y-52631009D02*
X94211905Y-52583390D01*
X94211905Y-52583390D02*
X94164286Y-52535771D01*
X94164286Y-52535771D02*
X94116667Y-52440533D01*
X94116667Y-52440533D02*
X94116667Y-52345295D01*
X94116667Y-52345295D02*
X94164286Y-52250057D01*
X94164286Y-52250057D02*
X94211905Y-52202438D01*
X94211905Y-52202438D02*
X94307143Y-52154819D01*
X94307143Y-52154819D02*
X94545238Y-52154819D01*
X94545238Y-52154819D02*
X94688095Y-52202438D01*
X95021429Y-52154819D02*
X95259524Y-53154819D01*
X95259524Y-53154819D02*
X95450000Y-52440533D01*
X95450000Y-52440533D02*
X95640476Y-53154819D01*
X95640476Y-53154819D02*
X95878572Y-52154819D01*
X96783333Y-53154819D02*
X96211905Y-53154819D01*
X96497619Y-53154819D02*
X96497619Y-52154819D01*
X96497619Y-52154819D02*
X96402381Y-52297676D01*
X96402381Y-52297676D02*
X96307143Y-52392914D01*
X96307143Y-52392914D02*
X96211905Y-52440533D01*
X92673809Y-43857200D02*
X92816666Y-43904819D01*
X92816666Y-43904819D02*
X93054761Y-43904819D01*
X93054761Y-43904819D02*
X93149999Y-43857200D01*
X93149999Y-43857200D02*
X93197618Y-43809580D01*
X93197618Y-43809580D02*
X93245237Y-43714342D01*
X93245237Y-43714342D02*
X93245237Y-43619104D01*
X93245237Y-43619104D02*
X93197618Y-43523866D01*
X93197618Y-43523866D02*
X93149999Y-43476247D01*
X93149999Y-43476247D02*
X93054761Y-43428628D01*
X93054761Y-43428628D02*
X92864285Y-43381009D01*
X92864285Y-43381009D02*
X92769047Y-43333390D01*
X92769047Y-43333390D02*
X92721428Y-43285771D01*
X92721428Y-43285771D02*
X92673809Y-43190533D01*
X92673809Y-43190533D02*
X92673809Y-43095295D01*
X92673809Y-43095295D02*
X92721428Y-43000057D01*
X92721428Y-43000057D02*
X92769047Y-42952438D01*
X92769047Y-42952438D02*
X92864285Y-42904819D01*
X92864285Y-42904819D02*
X93102380Y-42904819D01*
X93102380Y-42904819D02*
X93245237Y-42952438D01*
X93673809Y-43381009D02*
X94007142Y-43381009D01*
X94149999Y-43904819D02*
X93673809Y-43904819D01*
X93673809Y-43904819D02*
X93673809Y-42904819D01*
X93673809Y-42904819D02*
X94149999Y-42904819D01*
X95054761Y-43904819D02*
X94578571Y-43904819D01*
X94578571Y-43904819D02*
X94578571Y-42904819D01*
X95388095Y-43381009D02*
X95721428Y-43381009D01*
X95864285Y-43904819D02*
X95388095Y-43904819D01*
X95388095Y-43904819D02*
X95388095Y-42904819D01*
X95388095Y-42904819D02*
X95864285Y-42904819D01*
X96864285Y-43809580D02*
X96816666Y-43857200D01*
X96816666Y-43857200D02*
X96673809Y-43904819D01*
X96673809Y-43904819D02*
X96578571Y-43904819D01*
X96578571Y-43904819D02*
X96435714Y-43857200D01*
X96435714Y-43857200D02*
X96340476Y-43761961D01*
X96340476Y-43761961D02*
X96292857Y-43666723D01*
X96292857Y-43666723D02*
X96245238Y-43476247D01*
X96245238Y-43476247D02*
X96245238Y-43333390D01*
X96245238Y-43333390D02*
X96292857Y-43142914D01*
X96292857Y-43142914D02*
X96340476Y-43047676D01*
X96340476Y-43047676D02*
X96435714Y-42952438D01*
X96435714Y-42952438D02*
X96578571Y-42904819D01*
X96578571Y-42904819D02*
X96673809Y-42904819D01*
X96673809Y-42904819D02*
X96816666Y-42952438D01*
X96816666Y-42952438D02*
X96864285Y-43000057D01*
X97150000Y-42904819D02*
X97721428Y-42904819D01*
X97435714Y-43904819D02*
X97435714Y-42904819D01*
X113466667Y-53057200D02*
X113609524Y-53104819D01*
X113609524Y-53104819D02*
X113847619Y-53104819D01*
X113847619Y-53104819D02*
X113942857Y-53057200D01*
X113942857Y-53057200D02*
X113990476Y-53009580D01*
X113990476Y-53009580D02*
X114038095Y-52914342D01*
X114038095Y-52914342D02*
X114038095Y-52819104D01*
X114038095Y-52819104D02*
X113990476Y-52723866D01*
X113990476Y-52723866D02*
X113942857Y-52676247D01*
X113942857Y-52676247D02*
X113847619Y-52628628D01*
X113847619Y-52628628D02*
X113657143Y-52581009D01*
X113657143Y-52581009D02*
X113561905Y-52533390D01*
X113561905Y-52533390D02*
X113514286Y-52485771D01*
X113514286Y-52485771D02*
X113466667Y-52390533D01*
X113466667Y-52390533D02*
X113466667Y-52295295D01*
X113466667Y-52295295D02*
X113514286Y-52200057D01*
X113514286Y-52200057D02*
X113561905Y-52152438D01*
X113561905Y-52152438D02*
X113657143Y-52104819D01*
X113657143Y-52104819D02*
X113895238Y-52104819D01*
X113895238Y-52104819D02*
X114038095Y-52152438D01*
X114371429Y-52104819D02*
X114609524Y-53104819D01*
X114609524Y-53104819D02*
X114800000Y-52390533D01*
X114800000Y-52390533D02*
X114990476Y-53104819D01*
X114990476Y-53104819D02*
X115228572Y-52104819D01*
X116085714Y-52104819D02*
X115609524Y-52104819D01*
X115609524Y-52104819D02*
X115561905Y-52581009D01*
X115561905Y-52581009D02*
X115609524Y-52533390D01*
X115609524Y-52533390D02*
X115704762Y-52485771D01*
X115704762Y-52485771D02*
X115942857Y-52485771D01*
X115942857Y-52485771D02*
X116038095Y-52533390D01*
X116038095Y-52533390D02*
X116085714Y-52581009D01*
X116085714Y-52581009D02*
X116133333Y-52676247D01*
X116133333Y-52676247D02*
X116133333Y-52914342D01*
X116133333Y-52914342D02*
X116085714Y-53009580D01*
X116085714Y-53009580D02*
X116038095Y-53057200D01*
X116038095Y-53057200D02*
X115942857Y-53104819D01*
X115942857Y-53104819D02*
X115704762Y-53104819D01*
X115704762Y-53104819D02*
X115609524Y-53057200D01*
X115609524Y-53057200D02*
X115561905Y-53009580D01*
X114138095Y-43888152D02*
X113900000Y-43888152D01*
X113900000Y-43888152D02*
X113900000Y-42459580D01*
X113900000Y-42459580D02*
X114138095Y-42459580D01*
X114519048Y-43173866D02*
X115280953Y-43173866D01*
X114900000Y-43554819D02*
X114900000Y-42792914D01*
X115661905Y-43888152D02*
X115900000Y-43888152D01*
X115900000Y-43888152D02*
X115900000Y-42459580D01*
X115900000Y-42459580D02*
X115661905Y-42459580D01*
X123616667Y-53057200D02*
X123759524Y-53104819D01*
X123759524Y-53104819D02*
X123997619Y-53104819D01*
X123997619Y-53104819D02*
X124092857Y-53057200D01*
X124092857Y-53057200D02*
X124140476Y-53009580D01*
X124140476Y-53009580D02*
X124188095Y-52914342D01*
X124188095Y-52914342D02*
X124188095Y-52819104D01*
X124188095Y-52819104D02*
X124140476Y-52723866D01*
X124140476Y-52723866D02*
X124092857Y-52676247D01*
X124092857Y-52676247D02*
X123997619Y-52628628D01*
X123997619Y-52628628D02*
X123807143Y-52581009D01*
X123807143Y-52581009D02*
X123711905Y-52533390D01*
X123711905Y-52533390D02*
X123664286Y-52485771D01*
X123664286Y-52485771D02*
X123616667Y-52390533D01*
X123616667Y-52390533D02*
X123616667Y-52295295D01*
X123616667Y-52295295D02*
X123664286Y-52200057D01*
X123664286Y-52200057D02*
X123711905Y-52152438D01*
X123711905Y-52152438D02*
X123807143Y-52104819D01*
X123807143Y-52104819D02*
X124045238Y-52104819D01*
X124045238Y-52104819D02*
X124188095Y-52152438D01*
X124521429Y-52104819D02*
X124759524Y-53104819D01*
X124759524Y-53104819D02*
X124950000Y-52390533D01*
X124950000Y-52390533D02*
X125140476Y-53104819D01*
X125140476Y-53104819D02*
X125378572Y-52104819D01*
X126188095Y-52104819D02*
X125997619Y-52104819D01*
X125997619Y-52104819D02*
X125902381Y-52152438D01*
X125902381Y-52152438D02*
X125854762Y-52200057D01*
X125854762Y-52200057D02*
X125759524Y-52342914D01*
X125759524Y-52342914D02*
X125711905Y-52533390D01*
X125711905Y-52533390D02*
X125711905Y-52914342D01*
X125711905Y-52914342D02*
X125759524Y-53009580D01*
X125759524Y-53009580D02*
X125807143Y-53057200D01*
X125807143Y-53057200D02*
X125902381Y-53104819D01*
X125902381Y-53104819D02*
X126092857Y-53104819D01*
X126092857Y-53104819D02*
X126188095Y-53057200D01*
X126188095Y-53057200D02*
X126235714Y-53009580D01*
X126235714Y-53009580D02*
X126283333Y-52914342D01*
X126283333Y-52914342D02*
X126283333Y-52676247D01*
X126283333Y-52676247D02*
X126235714Y-52581009D01*
X126235714Y-52581009D02*
X126188095Y-52533390D01*
X126188095Y-52533390D02*
X126092857Y-52485771D01*
X126092857Y-52485771D02*
X125902381Y-52485771D01*
X125902381Y-52485771D02*
X125807143Y-52533390D01*
X125807143Y-52533390D02*
X125759524Y-52581009D01*
X125759524Y-52581009D02*
X125711905Y-52676247D01*
X124138095Y-43888152D02*
X123900000Y-43888152D01*
X123900000Y-43888152D02*
X123900000Y-42459580D01*
X123900000Y-42459580D02*
X124138095Y-42459580D01*
X124519048Y-43173866D02*
X125280953Y-43173866D01*
X125661905Y-43888152D02*
X125900000Y-43888152D01*
X125900000Y-43888152D02*
X125900000Y-42459580D01*
X125900000Y-42459580D02*
X125661905Y-42459580D01*
X142054819Y-58242857D02*
X141578628Y-58576190D01*
X142054819Y-58814285D02*
X141054819Y-58814285D01*
X141054819Y-58814285D02*
X141054819Y-58433333D01*
X141054819Y-58433333D02*
X141102438Y-58338095D01*
X141102438Y-58338095D02*
X141150057Y-58290476D01*
X141150057Y-58290476D02*
X141245295Y-58242857D01*
X141245295Y-58242857D02*
X141388152Y-58242857D01*
X141388152Y-58242857D02*
X141483390Y-58290476D01*
X141483390Y-58290476D02*
X141531009Y-58338095D01*
X141531009Y-58338095D02*
X141578628Y-58433333D01*
X141578628Y-58433333D02*
X141578628Y-58814285D01*
X141150057Y-57861904D02*
X141102438Y-57814285D01*
X141102438Y-57814285D02*
X141054819Y-57719047D01*
X141054819Y-57719047D02*
X141054819Y-57480952D01*
X141054819Y-57480952D02*
X141102438Y-57385714D01*
X141102438Y-57385714D02*
X141150057Y-57338095D01*
X141150057Y-57338095D02*
X141245295Y-57290476D01*
X141245295Y-57290476D02*
X141340533Y-57290476D01*
X141340533Y-57290476D02*
X141483390Y-57338095D01*
X141483390Y-57338095D02*
X142054819Y-57909523D01*
X142054819Y-57909523D02*
X142054819Y-57290476D01*
X141054819Y-56433333D02*
X141054819Y-56623809D01*
X141054819Y-56623809D02*
X141102438Y-56719047D01*
X141102438Y-56719047D02*
X141150057Y-56766666D01*
X141150057Y-56766666D02*
X141292914Y-56861904D01*
X141292914Y-56861904D02*
X141483390Y-56909523D01*
X141483390Y-56909523D02*
X141864342Y-56909523D01*
X141864342Y-56909523D02*
X141959580Y-56861904D01*
X141959580Y-56861904D02*
X142007200Y-56814285D01*
X142007200Y-56814285D02*
X142054819Y-56719047D01*
X142054819Y-56719047D02*
X142054819Y-56528571D01*
X142054819Y-56528571D02*
X142007200Y-56433333D01*
X142007200Y-56433333D02*
X141959580Y-56385714D01*
X141959580Y-56385714D02*
X141864342Y-56338095D01*
X141864342Y-56338095D02*
X141626247Y-56338095D01*
X141626247Y-56338095D02*
X141531009Y-56385714D01*
X141531009Y-56385714D02*
X141483390Y-56433333D01*
X141483390Y-56433333D02*
X141435771Y-56528571D01*
X141435771Y-56528571D02*
X141435771Y-56719047D01*
X141435771Y-56719047D02*
X141483390Y-56814285D01*
X141483390Y-56814285D02*
X141531009Y-56861904D01*
X141531009Y-56861904D02*
X141626247Y-56909523D01*
X164846666Y-64404819D02*
X164846666Y-65119104D01*
X164846666Y-65119104D02*
X164799047Y-65261961D01*
X164799047Y-65261961D02*
X164703809Y-65357200D01*
X164703809Y-65357200D02*
X164560952Y-65404819D01*
X164560952Y-65404819D02*
X164465714Y-65404819D01*
X165799047Y-64404819D02*
X165322857Y-64404819D01*
X165322857Y-64404819D02*
X165275238Y-64881009D01*
X165275238Y-64881009D02*
X165322857Y-64833390D01*
X165322857Y-64833390D02*
X165418095Y-64785771D01*
X165418095Y-64785771D02*
X165656190Y-64785771D01*
X165656190Y-64785771D02*
X165751428Y-64833390D01*
X165751428Y-64833390D02*
X165799047Y-64881009D01*
X165799047Y-64881009D02*
X165846666Y-64976247D01*
X165846666Y-64976247D02*
X165846666Y-65214342D01*
X165846666Y-65214342D02*
X165799047Y-65309580D01*
X165799047Y-65309580D02*
X165751428Y-65357200D01*
X165751428Y-65357200D02*
X165656190Y-65404819D01*
X165656190Y-65404819D02*
X165418095Y-65404819D01*
X165418095Y-65404819D02*
X165322857Y-65357200D01*
X165322857Y-65357200D02*
X165275238Y-65309580D01*
X153444642Y-68554819D02*
X153111309Y-68078628D01*
X152873214Y-68554819D02*
X152873214Y-67554819D01*
X152873214Y-67554819D02*
X153254166Y-67554819D01*
X153254166Y-67554819D02*
X153349404Y-67602438D01*
X153349404Y-67602438D02*
X153397023Y-67650057D01*
X153397023Y-67650057D02*
X153444642Y-67745295D01*
X153444642Y-67745295D02*
X153444642Y-67888152D01*
X153444642Y-67888152D02*
X153397023Y-67983390D01*
X153397023Y-67983390D02*
X153349404Y-68031009D01*
X153349404Y-68031009D02*
X153254166Y-68078628D01*
X153254166Y-68078628D02*
X152873214Y-68078628D01*
X154301785Y-67888152D02*
X154301785Y-68554819D01*
X154063690Y-67507200D02*
X153825595Y-68221485D01*
X153825595Y-68221485D02*
X154444642Y-68221485D01*
X155016071Y-67554819D02*
X155111309Y-67554819D01*
X155111309Y-67554819D02*
X155206547Y-67602438D01*
X155206547Y-67602438D02*
X155254166Y-67650057D01*
X155254166Y-67650057D02*
X155301785Y-67745295D01*
X155301785Y-67745295D02*
X155349404Y-67935771D01*
X155349404Y-67935771D02*
X155349404Y-68173866D01*
X155349404Y-68173866D02*
X155301785Y-68364342D01*
X155301785Y-68364342D02*
X155254166Y-68459580D01*
X155254166Y-68459580D02*
X155206547Y-68507200D01*
X155206547Y-68507200D02*
X155111309Y-68554819D01*
X155111309Y-68554819D02*
X155016071Y-68554819D01*
X155016071Y-68554819D02*
X154920833Y-68507200D01*
X154920833Y-68507200D02*
X154873214Y-68459580D01*
X154873214Y-68459580D02*
X154825595Y-68364342D01*
X154825595Y-68364342D02*
X154777976Y-68173866D01*
X154777976Y-68173866D02*
X154777976Y-67935771D01*
X154777976Y-67935771D02*
X154825595Y-67745295D01*
X154825595Y-67745295D02*
X154873214Y-67650057D01*
X154873214Y-67650057D02*
X154920833Y-67602438D01*
X154920833Y-67602438D02*
X155016071Y-67554819D01*
X168392319Y-78242857D02*
X167916128Y-78576190D01*
X168392319Y-78814285D02*
X167392319Y-78814285D01*
X167392319Y-78814285D02*
X167392319Y-78433333D01*
X167392319Y-78433333D02*
X167439938Y-78338095D01*
X167439938Y-78338095D02*
X167487557Y-78290476D01*
X167487557Y-78290476D02*
X167582795Y-78242857D01*
X167582795Y-78242857D02*
X167725652Y-78242857D01*
X167725652Y-78242857D02*
X167820890Y-78290476D01*
X167820890Y-78290476D02*
X167868509Y-78338095D01*
X167868509Y-78338095D02*
X167916128Y-78433333D01*
X167916128Y-78433333D02*
X167916128Y-78814285D01*
X167392319Y-77909523D02*
X167392319Y-77290476D01*
X167392319Y-77290476D02*
X167773271Y-77623809D01*
X167773271Y-77623809D02*
X167773271Y-77480952D01*
X167773271Y-77480952D02*
X167820890Y-77385714D01*
X167820890Y-77385714D02*
X167868509Y-77338095D01*
X167868509Y-77338095D02*
X167963747Y-77290476D01*
X167963747Y-77290476D02*
X168201842Y-77290476D01*
X168201842Y-77290476D02*
X168297080Y-77338095D01*
X168297080Y-77338095D02*
X168344700Y-77385714D01*
X168344700Y-77385714D02*
X168392319Y-77480952D01*
X168392319Y-77480952D02*
X168392319Y-77766666D01*
X168392319Y-77766666D02*
X168344700Y-77861904D01*
X168344700Y-77861904D02*
X168297080Y-77909523D01*
X167392319Y-76385714D02*
X167392319Y-76861904D01*
X167392319Y-76861904D02*
X167868509Y-76909523D01*
X167868509Y-76909523D02*
X167820890Y-76861904D01*
X167820890Y-76861904D02*
X167773271Y-76766666D01*
X167773271Y-76766666D02*
X167773271Y-76528571D01*
X167773271Y-76528571D02*
X167820890Y-76433333D01*
X167820890Y-76433333D02*
X167868509Y-76385714D01*
X167868509Y-76385714D02*
X167963747Y-76338095D01*
X167963747Y-76338095D02*
X168201842Y-76338095D01*
X168201842Y-76338095D02*
X168297080Y-76385714D01*
X168297080Y-76385714D02*
X168344700Y-76433333D01*
X168344700Y-76433333D02*
X168392319Y-76528571D01*
X168392319Y-76528571D02*
X168392319Y-76766666D01*
X168392319Y-76766666D02*
X168344700Y-76861904D01*
X168344700Y-76861904D02*
X168297080Y-76909523D01*
X168292319Y-81942857D02*
X167816128Y-82276190D01*
X168292319Y-82514285D02*
X167292319Y-82514285D01*
X167292319Y-82514285D02*
X167292319Y-82133333D01*
X167292319Y-82133333D02*
X167339938Y-82038095D01*
X167339938Y-82038095D02*
X167387557Y-81990476D01*
X167387557Y-81990476D02*
X167482795Y-81942857D01*
X167482795Y-81942857D02*
X167625652Y-81942857D01*
X167625652Y-81942857D02*
X167720890Y-81990476D01*
X167720890Y-81990476D02*
X167768509Y-82038095D01*
X167768509Y-82038095D02*
X167816128Y-82133333D01*
X167816128Y-82133333D02*
X167816128Y-82514285D01*
X167292319Y-81609523D02*
X167292319Y-80990476D01*
X167292319Y-80990476D02*
X167673271Y-81323809D01*
X167673271Y-81323809D02*
X167673271Y-81180952D01*
X167673271Y-81180952D02*
X167720890Y-81085714D01*
X167720890Y-81085714D02*
X167768509Y-81038095D01*
X167768509Y-81038095D02*
X167863747Y-80990476D01*
X167863747Y-80990476D02*
X168101842Y-80990476D01*
X168101842Y-80990476D02*
X168197080Y-81038095D01*
X168197080Y-81038095D02*
X168244700Y-81085714D01*
X168244700Y-81085714D02*
X168292319Y-81180952D01*
X168292319Y-81180952D02*
X168292319Y-81466666D01*
X168292319Y-81466666D02*
X168244700Y-81561904D01*
X168244700Y-81561904D02*
X168197080Y-81609523D01*
X167292319Y-80657142D02*
X167292319Y-79990476D01*
X167292319Y-79990476D02*
X168292319Y-80419047D01*
D12*
X158032380Y-81504318D02*
X158032380Y-82532413D01*
X158032380Y-82532413D02*
X158092857Y-82653365D01*
X158092857Y-82653365D02*
X158153333Y-82713842D01*
X158153333Y-82713842D02*
X158274285Y-82774318D01*
X158274285Y-82774318D02*
X158516190Y-82774318D01*
X158516190Y-82774318D02*
X158637142Y-82713842D01*
X158637142Y-82713842D02*
X158697619Y-82653365D01*
X158697619Y-82653365D02*
X158758095Y-82532413D01*
X158758095Y-82532413D02*
X158758095Y-81504318D01*
X159907142Y-81927651D02*
X159907142Y-82774318D01*
X159604761Y-81443842D02*
X159302380Y-82350984D01*
X159302380Y-82350984D02*
X160088571Y-82350984D01*
D11*
X155616666Y-92804819D02*
X155616666Y-93519104D01*
X155616666Y-93519104D02*
X155569047Y-93661961D01*
X155569047Y-93661961D02*
X155473809Y-93757200D01*
X155473809Y-93757200D02*
X155330952Y-93804819D01*
X155330952Y-93804819D02*
X155235714Y-93804819D01*
X156521428Y-92804819D02*
X156330952Y-92804819D01*
X156330952Y-92804819D02*
X156235714Y-92852438D01*
X156235714Y-92852438D02*
X156188095Y-92900057D01*
X156188095Y-92900057D02*
X156092857Y-93042914D01*
X156092857Y-93042914D02*
X156045238Y-93233390D01*
X156045238Y-93233390D02*
X156045238Y-93614342D01*
X156045238Y-93614342D02*
X156092857Y-93709580D01*
X156092857Y-93709580D02*
X156140476Y-93757200D01*
X156140476Y-93757200D02*
X156235714Y-93804819D01*
X156235714Y-93804819D02*
X156426190Y-93804819D01*
X156426190Y-93804819D02*
X156521428Y-93757200D01*
X156521428Y-93757200D02*
X156569047Y-93709580D01*
X156569047Y-93709580D02*
X156616666Y-93614342D01*
X156616666Y-93614342D02*
X156616666Y-93376247D01*
X156616666Y-93376247D02*
X156569047Y-93281009D01*
X156569047Y-93281009D02*
X156521428Y-93233390D01*
X156521428Y-93233390D02*
X156426190Y-93185771D01*
X156426190Y-93185771D02*
X156235714Y-93185771D01*
X156235714Y-93185771D02*
X156140476Y-93233390D01*
X156140476Y-93233390D02*
X156092857Y-93281009D01*
X156092857Y-93281009D02*
X156045238Y-93376247D01*
X98045833Y-85024819D02*
X97712500Y-84548628D01*
X97474405Y-85024819D02*
X97474405Y-84024819D01*
X97474405Y-84024819D02*
X97855357Y-84024819D01*
X97855357Y-84024819D02*
X97950595Y-84072438D01*
X97950595Y-84072438D02*
X97998214Y-84120057D01*
X97998214Y-84120057D02*
X98045833Y-84215295D01*
X98045833Y-84215295D02*
X98045833Y-84358152D01*
X98045833Y-84358152D02*
X97998214Y-84453390D01*
X97998214Y-84453390D02*
X97950595Y-84501009D01*
X97950595Y-84501009D02*
X97855357Y-84548628D01*
X97855357Y-84548628D02*
X97474405Y-84548628D01*
X98426786Y-84120057D02*
X98474405Y-84072438D01*
X98474405Y-84072438D02*
X98569643Y-84024819D01*
X98569643Y-84024819D02*
X98807738Y-84024819D01*
X98807738Y-84024819D02*
X98902976Y-84072438D01*
X98902976Y-84072438D02*
X98950595Y-84120057D01*
X98950595Y-84120057D02*
X98998214Y-84215295D01*
X98998214Y-84215295D02*
X98998214Y-84310533D01*
X98998214Y-84310533D02*
X98950595Y-84453390D01*
X98950595Y-84453390D02*
X98379167Y-85024819D01*
X98379167Y-85024819D02*
X98998214Y-85024819D01*
X137740476Y-71754819D02*
X137740476Y-70754819D01*
X137740476Y-70754819D02*
X138073809Y-71469104D01*
X138073809Y-71469104D02*
X138407142Y-70754819D01*
X138407142Y-70754819D02*
X138407142Y-71754819D01*
X138883333Y-71754819D02*
X138883333Y-70754819D01*
X139454761Y-71754819D02*
X139026190Y-71183390D01*
X139454761Y-70754819D02*
X138883333Y-71326247D01*
X140407142Y-71754819D02*
X139835714Y-71754819D01*
X140121428Y-71754819D02*
X140121428Y-70754819D01*
X140121428Y-70754819D02*
X140026190Y-70897676D01*
X140026190Y-70897676D02*
X139930952Y-70992914D01*
X139930952Y-70992914D02*
X139835714Y-71040533D01*
X142357142Y-43954819D02*
X142023809Y-43478628D01*
X141785714Y-43954819D02*
X141785714Y-42954819D01*
X141785714Y-42954819D02*
X142166666Y-42954819D01*
X142166666Y-42954819D02*
X142261904Y-43002438D01*
X142261904Y-43002438D02*
X142309523Y-43050057D01*
X142309523Y-43050057D02*
X142357142Y-43145295D01*
X142357142Y-43145295D02*
X142357142Y-43288152D01*
X142357142Y-43288152D02*
X142309523Y-43383390D01*
X142309523Y-43383390D02*
X142261904Y-43431009D01*
X142261904Y-43431009D02*
X142166666Y-43478628D01*
X142166666Y-43478628D02*
X141785714Y-43478628D01*
X142690476Y-42954819D02*
X143309523Y-42954819D01*
X143309523Y-42954819D02*
X142976190Y-43335771D01*
X142976190Y-43335771D02*
X143119047Y-43335771D01*
X143119047Y-43335771D02*
X143214285Y-43383390D01*
X143214285Y-43383390D02*
X143261904Y-43431009D01*
X143261904Y-43431009D02*
X143309523Y-43526247D01*
X143309523Y-43526247D02*
X143309523Y-43764342D01*
X143309523Y-43764342D02*
X143261904Y-43859580D01*
X143261904Y-43859580D02*
X143214285Y-43907200D01*
X143214285Y-43907200D02*
X143119047Y-43954819D01*
X143119047Y-43954819D02*
X142833333Y-43954819D01*
X142833333Y-43954819D02*
X142738095Y-43907200D01*
X142738095Y-43907200D02*
X142690476Y-43859580D01*
X144166666Y-43288152D02*
X144166666Y-43954819D01*
X143928571Y-42907200D02*
X143690476Y-43621485D01*
X143690476Y-43621485D02*
X144309523Y-43621485D01*
X156357142Y-84359580D02*
X156309523Y-84407200D01*
X156309523Y-84407200D02*
X156166666Y-84454819D01*
X156166666Y-84454819D02*
X156071428Y-84454819D01*
X156071428Y-84454819D02*
X155928571Y-84407200D01*
X155928571Y-84407200D02*
X155833333Y-84311961D01*
X155833333Y-84311961D02*
X155785714Y-84216723D01*
X155785714Y-84216723D02*
X155738095Y-84026247D01*
X155738095Y-84026247D02*
X155738095Y-83883390D01*
X155738095Y-83883390D02*
X155785714Y-83692914D01*
X155785714Y-83692914D02*
X155833333Y-83597676D01*
X155833333Y-83597676D02*
X155928571Y-83502438D01*
X155928571Y-83502438D02*
X156071428Y-83454819D01*
X156071428Y-83454819D02*
X156166666Y-83454819D01*
X156166666Y-83454819D02*
X156309523Y-83502438D01*
X156309523Y-83502438D02*
X156357142Y-83550057D01*
X157309523Y-84454819D02*
X156738095Y-84454819D01*
X157023809Y-84454819D02*
X157023809Y-83454819D01*
X157023809Y-83454819D02*
X156928571Y-83597676D01*
X156928571Y-83597676D02*
X156833333Y-83692914D01*
X156833333Y-83692914D02*
X156738095Y-83740533D01*
X157785714Y-84454819D02*
X157976190Y-84454819D01*
X157976190Y-84454819D02*
X158071428Y-84407200D01*
X158071428Y-84407200D02*
X158119047Y-84359580D01*
X158119047Y-84359580D02*
X158214285Y-84216723D01*
X158214285Y-84216723D02*
X158261904Y-84026247D01*
X158261904Y-84026247D02*
X158261904Y-83645295D01*
X158261904Y-83645295D02*
X158214285Y-83550057D01*
X158214285Y-83550057D02*
X158166666Y-83502438D01*
X158166666Y-83502438D02*
X158071428Y-83454819D01*
X158071428Y-83454819D02*
X157880952Y-83454819D01*
X157880952Y-83454819D02*
X157785714Y-83502438D01*
X157785714Y-83502438D02*
X157738095Y-83550057D01*
X157738095Y-83550057D02*
X157690476Y-83645295D01*
X157690476Y-83645295D02*
X157690476Y-83883390D01*
X157690476Y-83883390D02*
X157738095Y-83978628D01*
X157738095Y-83978628D02*
X157785714Y-84026247D01*
X157785714Y-84026247D02*
X157880952Y-84073866D01*
X157880952Y-84073866D02*
X158071428Y-84073866D01*
X158071428Y-84073866D02*
X158166666Y-84026247D01*
X158166666Y-84026247D02*
X158214285Y-83978628D01*
X158214285Y-83978628D02*
X158261904Y-83883390D01*
X165907142Y-87354819D02*
X165573809Y-86878628D01*
X165335714Y-87354819D02*
X165335714Y-86354819D01*
X165335714Y-86354819D02*
X165716666Y-86354819D01*
X165716666Y-86354819D02*
X165811904Y-86402438D01*
X165811904Y-86402438D02*
X165859523Y-86450057D01*
X165859523Y-86450057D02*
X165907142Y-86545295D01*
X165907142Y-86545295D02*
X165907142Y-86688152D01*
X165907142Y-86688152D02*
X165859523Y-86783390D01*
X165859523Y-86783390D02*
X165811904Y-86831009D01*
X165811904Y-86831009D02*
X165716666Y-86878628D01*
X165716666Y-86878628D02*
X165335714Y-86878628D01*
X166240476Y-86354819D02*
X166859523Y-86354819D01*
X166859523Y-86354819D02*
X166526190Y-86735771D01*
X166526190Y-86735771D02*
X166669047Y-86735771D01*
X166669047Y-86735771D02*
X166764285Y-86783390D01*
X166764285Y-86783390D02*
X166811904Y-86831009D01*
X166811904Y-86831009D02*
X166859523Y-86926247D01*
X166859523Y-86926247D02*
X166859523Y-87164342D01*
X166859523Y-87164342D02*
X166811904Y-87259580D01*
X166811904Y-87259580D02*
X166764285Y-87307200D01*
X166764285Y-87307200D02*
X166669047Y-87354819D01*
X166669047Y-87354819D02*
X166383333Y-87354819D01*
X166383333Y-87354819D02*
X166288095Y-87307200D01*
X166288095Y-87307200D02*
X166240476Y-87259580D01*
X167430952Y-86783390D02*
X167335714Y-86735771D01*
X167335714Y-86735771D02*
X167288095Y-86688152D01*
X167288095Y-86688152D02*
X167240476Y-86592914D01*
X167240476Y-86592914D02*
X167240476Y-86545295D01*
X167240476Y-86545295D02*
X167288095Y-86450057D01*
X167288095Y-86450057D02*
X167335714Y-86402438D01*
X167335714Y-86402438D02*
X167430952Y-86354819D01*
X167430952Y-86354819D02*
X167621428Y-86354819D01*
X167621428Y-86354819D02*
X167716666Y-86402438D01*
X167716666Y-86402438D02*
X167764285Y-86450057D01*
X167764285Y-86450057D02*
X167811904Y-86545295D01*
X167811904Y-86545295D02*
X167811904Y-86592914D01*
X167811904Y-86592914D02*
X167764285Y-86688152D01*
X167764285Y-86688152D02*
X167716666Y-86735771D01*
X167716666Y-86735771D02*
X167621428Y-86783390D01*
X167621428Y-86783390D02*
X167430952Y-86783390D01*
X167430952Y-86783390D02*
X167335714Y-86831009D01*
X167335714Y-86831009D02*
X167288095Y-86878628D01*
X167288095Y-86878628D02*
X167240476Y-86973866D01*
X167240476Y-86973866D02*
X167240476Y-87164342D01*
X167240476Y-87164342D02*
X167288095Y-87259580D01*
X167288095Y-87259580D02*
X167335714Y-87307200D01*
X167335714Y-87307200D02*
X167430952Y-87354819D01*
X167430952Y-87354819D02*
X167621428Y-87354819D01*
X167621428Y-87354819D02*
X167716666Y-87307200D01*
X167716666Y-87307200D02*
X167764285Y-87259580D01*
X167764285Y-87259580D02*
X167811904Y-87164342D01*
X167811904Y-87164342D02*
X167811904Y-86973866D01*
X167811904Y-86973866D02*
X167764285Y-86878628D01*
X167764285Y-86878628D02*
X167716666Y-86831009D01*
X167716666Y-86831009D02*
X167621428Y-86783390D01*
X142357142Y-48884819D02*
X142023809Y-48408628D01*
X141785714Y-48884819D02*
X141785714Y-47884819D01*
X141785714Y-47884819D02*
X142166666Y-47884819D01*
X142166666Y-47884819D02*
X142261904Y-47932438D01*
X142261904Y-47932438D02*
X142309523Y-47980057D01*
X142309523Y-47980057D02*
X142357142Y-48075295D01*
X142357142Y-48075295D02*
X142357142Y-48218152D01*
X142357142Y-48218152D02*
X142309523Y-48313390D01*
X142309523Y-48313390D02*
X142261904Y-48361009D01*
X142261904Y-48361009D02*
X142166666Y-48408628D01*
X142166666Y-48408628D02*
X141785714Y-48408628D01*
X142690476Y-47884819D02*
X143309523Y-47884819D01*
X143309523Y-47884819D02*
X142976190Y-48265771D01*
X142976190Y-48265771D02*
X143119047Y-48265771D01*
X143119047Y-48265771D02*
X143214285Y-48313390D01*
X143214285Y-48313390D02*
X143261904Y-48361009D01*
X143261904Y-48361009D02*
X143309523Y-48456247D01*
X143309523Y-48456247D02*
X143309523Y-48694342D01*
X143309523Y-48694342D02*
X143261904Y-48789580D01*
X143261904Y-48789580D02*
X143214285Y-48837200D01*
X143214285Y-48837200D02*
X143119047Y-48884819D01*
X143119047Y-48884819D02*
X142833333Y-48884819D01*
X142833333Y-48884819D02*
X142738095Y-48837200D01*
X142738095Y-48837200D02*
X142690476Y-48789580D01*
X143642857Y-47884819D02*
X144261904Y-47884819D01*
X144261904Y-47884819D02*
X143928571Y-48265771D01*
X143928571Y-48265771D02*
X144071428Y-48265771D01*
X144071428Y-48265771D02*
X144166666Y-48313390D01*
X144166666Y-48313390D02*
X144214285Y-48361009D01*
X144214285Y-48361009D02*
X144261904Y-48456247D01*
X144261904Y-48456247D02*
X144261904Y-48694342D01*
X144261904Y-48694342D02*
X144214285Y-48789580D01*
X144214285Y-48789580D02*
X144166666Y-48837200D01*
X144166666Y-48837200D02*
X144071428Y-48884819D01*
X144071428Y-48884819D02*
X143785714Y-48884819D01*
X143785714Y-48884819D02*
X143690476Y-48837200D01*
X143690476Y-48837200D02*
X143642857Y-48789580D01*
X168304819Y-84842857D02*
X167828628Y-85176190D01*
X168304819Y-85414285D02*
X167304819Y-85414285D01*
X167304819Y-85414285D02*
X167304819Y-85033333D01*
X167304819Y-85033333D02*
X167352438Y-84938095D01*
X167352438Y-84938095D02*
X167400057Y-84890476D01*
X167400057Y-84890476D02*
X167495295Y-84842857D01*
X167495295Y-84842857D02*
X167638152Y-84842857D01*
X167638152Y-84842857D02*
X167733390Y-84890476D01*
X167733390Y-84890476D02*
X167781009Y-84938095D01*
X167781009Y-84938095D02*
X167828628Y-85033333D01*
X167828628Y-85033333D02*
X167828628Y-85414285D01*
X167304819Y-84509523D02*
X167304819Y-83890476D01*
X167304819Y-83890476D02*
X167685771Y-84223809D01*
X167685771Y-84223809D02*
X167685771Y-84080952D01*
X167685771Y-84080952D02*
X167733390Y-83985714D01*
X167733390Y-83985714D02*
X167781009Y-83938095D01*
X167781009Y-83938095D02*
X167876247Y-83890476D01*
X167876247Y-83890476D02*
X168114342Y-83890476D01*
X168114342Y-83890476D02*
X168209580Y-83938095D01*
X168209580Y-83938095D02*
X168257200Y-83985714D01*
X168257200Y-83985714D02*
X168304819Y-84080952D01*
X168304819Y-84080952D02*
X168304819Y-84366666D01*
X168304819Y-84366666D02*
X168257200Y-84461904D01*
X168257200Y-84461904D02*
X168209580Y-84509523D01*
X167304819Y-83033333D02*
X167304819Y-83223809D01*
X167304819Y-83223809D02*
X167352438Y-83319047D01*
X167352438Y-83319047D02*
X167400057Y-83366666D01*
X167400057Y-83366666D02*
X167542914Y-83461904D01*
X167542914Y-83461904D02*
X167733390Y-83509523D01*
X167733390Y-83509523D02*
X168114342Y-83509523D01*
X168114342Y-83509523D02*
X168209580Y-83461904D01*
X168209580Y-83461904D02*
X168257200Y-83414285D01*
X168257200Y-83414285D02*
X168304819Y-83319047D01*
X168304819Y-83319047D02*
X168304819Y-83128571D01*
X168304819Y-83128571D02*
X168257200Y-83033333D01*
X168257200Y-83033333D02*
X168209580Y-82985714D01*
X168209580Y-82985714D02*
X168114342Y-82938095D01*
X168114342Y-82938095D02*
X167876247Y-82938095D01*
X167876247Y-82938095D02*
X167781009Y-82985714D01*
X167781009Y-82985714D02*
X167733390Y-83033333D01*
X167733390Y-83033333D02*
X167685771Y-83128571D01*
X167685771Y-83128571D02*
X167685771Y-83319047D01*
X167685771Y-83319047D02*
X167733390Y-83414285D01*
X167733390Y-83414285D02*
X167781009Y-83461904D01*
X167781009Y-83461904D02*
X167876247Y-83509523D01*
X164007142Y-92004819D02*
X163673809Y-91528628D01*
X163435714Y-92004819D02*
X163435714Y-91004819D01*
X163435714Y-91004819D02*
X163816666Y-91004819D01*
X163816666Y-91004819D02*
X163911904Y-91052438D01*
X163911904Y-91052438D02*
X163959523Y-91100057D01*
X163959523Y-91100057D02*
X164007142Y-91195295D01*
X164007142Y-91195295D02*
X164007142Y-91338152D01*
X164007142Y-91338152D02*
X163959523Y-91433390D01*
X163959523Y-91433390D02*
X163911904Y-91481009D01*
X163911904Y-91481009D02*
X163816666Y-91528628D01*
X163816666Y-91528628D02*
X163435714Y-91528628D01*
X164864285Y-91338152D02*
X164864285Y-92004819D01*
X164626190Y-90957200D02*
X164388095Y-91671485D01*
X164388095Y-91671485D02*
X165007142Y-91671485D01*
X165911904Y-92004819D02*
X165340476Y-92004819D01*
X165626190Y-92004819D02*
X165626190Y-91004819D01*
X165626190Y-91004819D02*
X165530952Y-91147676D01*
X165530952Y-91147676D02*
X165435714Y-91242914D01*
X165435714Y-91242914D02*
X165340476Y-91290533D01*
X159554761Y-93350057D02*
X159459523Y-93302438D01*
X159459523Y-93302438D02*
X159364285Y-93207200D01*
X159364285Y-93207200D02*
X159221428Y-93064342D01*
X159221428Y-93064342D02*
X159126190Y-93016723D01*
X159126190Y-93016723D02*
X159030952Y-93016723D01*
X159078571Y-93254819D02*
X158983333Y-93207200D01*
X158983333Y-93207200D02*
X158888095Y-93111961D01*
X158888095Y-93111961D02*
X158840476Y-92921485D01*
X158840476Y-92921485D02*
X158840476Y-92588152D01*
X158840476Y-92588152D02*
X158888095Y-92397676D01*
X158888095Y-92397676D02*
X158983333Y-92302438D01*
X158983333Y-92302438D02*
X159078571Y-92254819D01*
X159078571Y-92254819D02*
X159269047Y-92254819D01*
X159269047Y-92254819D02*
X159364285Y-92302438D01*
X159364285Y-92302438D02*
X159459523Y-92397676D01*
X159459523Y-92397676D02*
X159507142Y-92588152D01*
X159507142Y-92588152D02*
X159507142Y-92921485D01*
X159507142Y-92921485D02*
X159459523Y-93111961D01*
X159459523Y-93111961D02*
X159364285Y-93207200D01*
X159364285Y-93207200D02*
X159269047Y-93254819D01*
X159269047Y-93254819D02*
X159078571Y-93254819D01*
X159840476Y-92254819D02*
X160507142Y-92254819D01*
X160507142Y-92254819D02*
X160078571Y-93254819D01*
X149807142Y-115509580D02*
X149759523Y-115557200D01*
X149759523Y-115557200D02*
X149616666Y-115604819D01*
X149616666Y-115604819D02*
X149521428Y-115604819D01*
X149521428Y-115604819D02*
X149378571Y-115557200D01*
X149378571Y-115557200D02*
X149283333Y-115461961D01*
X149283333Y-115461961D02*
X149235714Y-115366723D01*
X149235714Y-115366723D02*
X149188095Y-115176247D01*
X149188095Y-115176247D02*
X149188095Y-115033390D01*
X149188095Y-115033390D02*
X149235714Y-114842914D01*
X149235714Y-114842914D02*
X149283333Y-114747676D01*
X149283333Y-114747676D02*
X149378571Y-114652438D01*
X149378571Y-114652438D02*
X149521428Y-114604819D01*
X149521428Y-114604819D02*
X149616666Y-114604819D01*
X149616666Y-114604819D02*
X149759523Y-114652438D01*
X149759523Y-114652438D02*
X149807142Y-114700057D01*
X150188095Y-114700057D02*
X150235714Y-114652438D01*
X150235714Y-114652438D02*
X150330952Y-114604819D01*
X150330952Y-114604819D02*
X150569047Y-114604819D01*
X150569047Y-114604819D02*
X150664285Y-114652438D01*
X150664285Y-114652438D02*
X150711904Y-114700057D01*
X150711904Y-114700057D02*
X150759523Y-114795295D01*
X150759523Y-114795295D02*
X150759523Y-114890533D01*
X150759523Y-114890533D02*
X150711904Y-115033390D01*
X150711904Y-115033390D02*
X150140476Y-115604819D01*
X150140476Y-115604819D02*
X150759523Y-115604819D01*
X151664285Y-114604819D02*
X151188095Y-114604819D01*
X151188095Y-114604819D02*
X151140476Y-115081009D01*
X151140476Y-115081009D02*
X151188095Y-115033390D01*
X151188095Y-115033390D02*
X151283333Y-114985771D01*
X151283333Y-114985771D02*
X151521428Y-114985771D01*
X151521428Y-114985771D02*
X151616666Y-115033390D01*
X151616666Y-115033390D02*
X151664285Y-115081009D01*
X151664285Y-115081009D02*
X151711904Y-115176247D01*
X151711904Y-115176247D02*
X151711904Y-115414342D01*
X151711904Y-115414342D02*
X151664285Y-115509580D01*
X151664285Y-115509580D02*
X151616666Y-115557200D01*
X151616666Y-115557200D02*
X151521428Y-115604819D01*
X151521428Y-115604819D02*
X151283333Y-115604819D01*
X151283333Y-115604819D02*
X151188095Y-115557200D01*
X151188095Y-115557200D02*
X151140476Y-115509580D01*
X164257142Y-97559580D02*
X164209523Y-97607200D01*
X164209523Y-97607200D02*
X164066666Y-97654819D01*
X164066666Y-97654819D02*
X163971428Y-97654819D01*
X163971428Y-97654819D02*
X163828571Y-97607200D01*
X163828571Y-97607200D02*
X163733333Y-97511961D01*
X163733333Y-97511961D02*
X163685714Y-97416723D01*
X163685714Y-97416723D02*
X163638095Y-97226247D01*
X163638095Y-97226247D02*
X163638095Y-97083390D01*
X163638095Y-97083390D02*
X163685714Y-96892914D01*
X163685714Y-96892914D02*
X163733333Y-96797676D01*
X163733333Y-96797676D02*
X163828571Y-96702438D01*
X163828571Y-96702438D02*
X163971428Y-96654819D01*
X163971428Y-96654819D02*
X164066666Y-96654819D01*
X164066666Y-96654819D02*
X164209523Y-96702438D01*
X164209523Y-96702438D02*
X164257142Y-96750057D01*
X164638095Y-96750057D02*
X164685714Y-96702438D01*
X164685714Y-96702438D02*
X164780952Y-96654819D01*
X164780952Y-96654819D02*
X165019047Y-96654819D01*
X165019047Y-96654819D02*
X165114285Y-96702438D01*
X165114285Y-96702438D02*
X165161904Y-96750057D01*
X165161904Y-96750057D02*
X165209523Y-96845295D01*
X165209523Y-96845295D02*
X165209523Y-96940533D01*
X165209523Y-96940533D02*
X165161904Y-97083390D01*
X165161904Y-97083390D02*
X164590476Y-97654819D01*
X164590476Y-97654819D02*
X165209523Y-97654819D01*
X165590476Y-96750057D02*
X165638095Y-96702438D01*
X165638095Y-96702438D02*
X165733333Y-96654819D01*
X165733333Y-96654819D02*
X165971428Y-96654819D01*
X165971428Y-96654819D02*
X166066666Y-96702438D01*
X166066666Y-96702438D02*
X166114285Y-96750057D01*
X166114285Y-96750057D02*
X166161904Y-96845295D01*
X166161904Y-96845295D02*
X166161904Y-96940533D01*
X166161904Y-96940533D02*
X166114285Y-97083390D01*
X166114285Y-97083390D02*
X165542857Y-97654819D01*
X165542857Y-97654819D02*
X166161904Y-97654819D01*
X161607142Y-87559580D02*
X161559523Y-87607200D01*
X161559523Y-87607200D02*
X161416666Y-87654819D01*
X161416666Y-87654819D02*
X161321428Y-87654819D01*
X161321428Y-87654819D02*
X161178571Y-87607200D01*
X161178571Y-87607200D02*
X161083333Y-87511961D01*
X161083333Y-87511961D02*
X161035714Y-87416723D01*
X161035714Y-87416723D02*
X160988095Y-87226247D01*
X160988095Y-87226247D02*
X160988095Y-87083390D01*
X160988095Y-87083390D02*
X161035714Y-86892914D01*
X161035714Y-86892914D02*
X161083333Y-86797676D01*
X161083333Y-86797676D02*
X161178571Y-86702438D01*
X161178571Y-86702438D02*
X161321428Y-86654819D01*
X161321428Y-86654819D02*
X161416666Y-86654819D01*
X161416666Y-86654819D02*
X161559523Y-86702438D01*
X161559523Y-86702438D02*
X161607142Y-86750057D01*
X161988095Y-86750057D02*
X162035714Y-86702438D01*
X162035714Y-86702438D02*
X162130952Y-86654819D01*
X162130952Y-86654819D02*
X162369047Y-86654819D01*
X162369047Y-86654819D02*
X162464285Y-86702438D01*
X162464285Y-86702438D02*
X162511904Y-86750057D01*
X162511904Y-86750057D02*
X162559523Y-86845295D01*
X162559523Y-86845295D02*
X162559523Y-86940533D01*
X162559523Y-86940533D02*
X162511904Y-87083390D01*
X162511904Y-87083390D02*
X161940476Y-87654819D01*
X161940476Y-87654819D02*
X162559523Y-87654819D01*
X163178571Y-86654819D02*
X163273809Y-86654819D01*
X163273809Y-86654819D02*
X163369047Y-86702438D01*
X163369047Y-86702438D02*
X163416666Y-86750057D01*
X163416666Y-86750057D02*
X163464285Y-86845295D01*
X163464285Y-86845295D02*
X163511904Y-87035771D01*
X163511904Y-87035771D02*
X163511904Y-87273866D01*
X163511904Y-87273866D02*
X163464285Y-87464342D01*
X163464285Y-87464342D02*
X163416666Y-87559580D01*
X163416666Y-87559580D02*
X163369047Y-87607200D01*
X163369047Y-87607200D02*
X163273809Y-87654819D01*
X163273809Y-87654819D02*
X163178571Y-87654819D01*
X163178571Y-87654819D02*
X163083333Y-87607200D01*
X163083333Y-87607200D02*
X163035714Y-87559580D01*
X163035714Y-87559580D02*
X162988095Y-87464342D01*
X162988095Y-87464342D02*
X162940476Y-87273866D01*
X162940476Y-87273866D02*
X162940476Y-87035771D01*
X162940476Y-87035771D02*
X162988095Y-86845295D01*
X162988095Y-86845295D02*
X163035714Y-86750057D01*
X163035714Y-86750057D02*
X163083333Y-86702438D01*
X163083333Y-86702438D02*
X163178571Y-86654819D01*
X151369642Y-71054819D02*
X151036309Y-70578628D01*
X150798214Y-71054819D02*
X150798214Y-70054819D01*
X150798214Y-70054819D02*
X151179166Y-70054819D01*
X151179166Y-70054819D02*
X151274404Y-70102438D01*
X151274404Y-70102438D02*
X151322023Y-70150057D01*
X151322023Y-70150057D02*
X151369642Y-70245295D01*
X151369642Y-70245295D02*
X151369642Y-70388152D01*
X151369642Y-70388152D02*
X151322023Y-70483390D01*
X151322023Y-70483390D02*
X151274404Y-70531009D01*
X151274404Y-70531009D02*
X151179166Y-70578628D01*
X151179166Y-70578628D02*
X150798214Y-70578628D01*
X152226785Y-70388152D02*
X152226785Y-71054819D01*
X151988690Y-70007200D02*
X151750595Y-70721485D01*
X151750595Y-70721485D02*
X152369642Y-70721485D01*
X152702976Y-70150057D02*
X152750595Y-70102438D01*
X152750595Y-70102438D02*
X152845833Y-70054819D01*
X152845833Y-70054819D02*
X153083928Y-70054819D01*
X153083928Y-70054819D02*
X153179166Y-70102438D01*
X153179166Y-70102438D02*
X153226785Y-70150057D01*
X153226785Y-70150057D02*
X153274404Y-70245295D01*
X153274404Y-70245295D02*
X153274404Y-70340533D01*
X153274404Y-70340533D02*
X153226785Y-70483390D01*
X153226785Y-70483390D02*
X152655357Y-71054819D01*
X152655357Y-71054819D02*
X153274404Y-71054819D01*
X157907142Y-79154819D02*
X157573809Y-78678628D01*
X157335714Y-79154819D02*
X157335714Y-78154819D01*
X157335714Y-78154819D02*
X157716666Y-78154819D01*
X157716666Y-78154819D02*
X157811904Y-78202438D01*
X157811904Y-78202438D02*
X157859523Y-78250057D01*
X157859523Y-78250057D02*
X157907142Y-78345295D01*
X157907142Y-78345295D02*
X157907142Y-78488152D01*
X157907142Y-78488152D02*
X157859523Y-78583390D01*
X157859523Y-78583390D02*
X157811904Y-78631009D01*
X157811904Y-78631009D02*
X157716666Y-78678628D01*
X157716666Y-78678628D02*
X157335714Y-78678628D01*
X158240476Y-78154819D02*
X158859523Y-78154819D01*
X158859523Y-78154819D02*
X158526190Y-78535771D01*
X158526190Y-78535771D02*
X158669047Y-78535771D01*
X158669047Y-78535771D02*
X158764285Y-78583390D01*
X158764285Y-78583390D02*
X158811904Y-78631009D01*
X158811904Y-78631009D02*
X158859523Y-78726247D01*
X158859523Y-78726247D02*
X158859523Y-78964342D01*
X158859523Y-78964342D02*
X158811904Y-79059580D01*
X158811904Y-79059580D02*
X158764285Y-79107200D01*
X158764285Y-79107200D02*
X158669047Y-79154819D01*
X158669047Y-79154819D02*
X158383333Y-79154819D01*
X158383333Y-79154819D02*
X158288095Y-79107200D01*
X158288095Y-79107200D02*
X158240476Y-79059580D01*
X159335714Y-79154819D02*
X159526190Y-79154819D01*
X159526190Y-79154819D02*
X159621428Y-79107200D01*
X159621428Y-79107200D02*
X159669047Y-79059580D01*
X159669047Y-79059580D02*
X159764285Y-78916723D01*
X159764285Y-78916723D02*
X159811904Y-78726247D01*
X159811904Y-78726247D02*
X159811904Y-78345295D01*
X159811904Y-78345295D02*
X159764285Y-78250057D01*
X159764285Y-78250057D02*
X159716666Y-78202438D01*
X159716666Y-78202438D02*
X159621428Y-78154819D01*
X159621428Y-78154819D02*
X159430952Y-78154819D01*
X159430952Y-78154819D02*
X159335714Y-78202438D01*
X159335714Y-78202438D02*
X159288095Y-78250057D01*
X159288095Y-78250057D02*
X159240476Y-78345295D01*
X159240476Y-78345295D02*
X159240476Y-78583390D01*
X159240476Y-78583390D02*
X159288095Y-78678628D01*
X159288095Y-78678628D02*
X159335714Y-78726247D01*
X159335714Y-78726247D02*
X159430952Y-78773866D01*
X159430952Y-78773866D02*
X159621428Y-78773866D01*
X159621428Y-78773866D02*
X159716666Y-78726247D01*
X159716666Y-78726247D02*
X159764285Y-78678628D01*
X159764285Y-78678628D02*
X159811904Y-78583390D01*
D14*
X100850000Y-99800000D02*
X100850000Y-101300000D01*
X102100000Y-103800000D02*
X106600000Y-103800000D01*
X106600000Y-97300000D02*
X102100000Y-97300000D01*
X107850000Y-101300000D02*
X107850000Y-99800000D01*
X125500000Y-99800000D02*
X125500000Y-101300000D01*
X126750000Y-103800000D02*
X131250000Y-103800000D01*
X131250000Y-97300000D02*
X126750000Y-97300000D01*
X132500000Y-101300000D02*
X132500000Y-99800000D01*
D15*
X92650000Y-88550000D02*
X92650000Y-87250000D01*
X92690000Y-86800000D02*
X95610000Y-86800000D01*
X92690000Y-86900000D02*
X92690000Y-86800000D01*
X95610000Y-86800000D02*
X95610000Y-86900000D01*
X95610000Y-86900000D02*
X92690000Y-86900000D01*
D14*
X98162779Y-87390000D02*
X97837221Y-87390000D01*
X98162779Y-88410000D02*
X97837221Y-88410000D01*
X132490000Y-60028922D02*
X132490000Y-60546078D01*
X133910000Y-60028922D02*
X133910000Y-60546078D01*
X93841422Y-90390000D02*
X94358578Y-90390000D01*
X93841422Y-91810000D02*
X94358578Y-91810000D01*
D16*
X90790000Y-54300000D02*
X131190000Y-54300000D01*
X90790000Y-70300000D02*
X90790000Y-54300000D01*
X131190000Y-54300000D02*
X131190000Y-70300000D01*
X131190000Y-70300000D02*
X90790000Y-70300000D01*
D14*
X166200000Y-55050000D02*
G75*
G02*
X143000000Y-55050000I-11600000J0D01*
G01*
X143000000Y-55050000D02*
G75*
G02*
X166200000Y-55050000I11600000J0D01*
G01*
X93400000Y-81550000D02*
X93400000Y-80450000D01*
X93800000Y-73250000D02*
X97200000Y-73250000D01*
X93800000Y-74650000D02*
X93800000Y-73250000D01*
X94450000Y-83550000D02*
X96550000Y-83550000D01*
X94700000Y-75850000D02*
X96300000Y-75850000D01*
X94700000Y-76350000D02*
X96300000Y-76350000D01*
X97200000Y-73250000D02*
X97200000Y-74650000D01*
X97600000Y-81550000D02*
X97600000Y-80450000D01*
X102970000Y-108630000D02*
X115790000Y-108630000D01*
X102970000Y-111230000D02*
X102970000Y-108630000D01*
X102970000Y-113830000D02*
X102970000Y-112500000D01*
X104300000Y-113830000D02*
X102970000Y-113830000D01*
X105570000Y-111230000D02*
X102970000Y-111230000D01*
X105570000Y-113830000D02*
X105570000Y-111230000D01*
X105570000Y-113830000D02*
X115790000Y-113830000D01*
X115790000Y-113830000D02*
X115790000Y-108630000D01*
X160870000Y-98120000D02*
X162200000Y-98120000D01*
X160870000Y-99450000D02*
X160870000Y-98120000D01*
X160870000Y-100720000D02*
X160870000Y-105860000D01*
X160870000Y-100720000D02*
X163470000Y-100720000D01*
X160870000Y-105860000D02*
X166070000Y-105860000D01*
X163470000Y-98120000D02*
X166070000Y-98120000D01*
X163470000Y-100720000D02*
X163470000Y-98120000D01*
X166070000Y-98120000D02*
X166070000Y-105860000D01*
X133400000Y-43050000D02*
X133400000Y-43750000D01*
X133400000Y-45950000D02*
X133400000Y-50450000D01*
X133400000Y-52650000D02*
X133400000Y-54750000D01*
X133400000Y-54750000D02*
X139600000Y-54750000D01*
X133900000Y-40550000D02*
X133900000Y-43050000D01*
X133900000Y-40550000D02*
X139100000Y-40550000D01*
X133900000Y-43050000D02*
X133400000Y-43050000D01*
X133900000Y-43050000D02*
X139100000Y-43050000D01*
X139100000Y-40550000D02*
X139100000Y-43050000D01*
X139100000Y-43050000D02*
X139600000Y-43050000D01*
X139600000Y-43050000D02*
X139600000Y-43750000D01*
X139600000Y-45950000D02*
X139600000Y-46950000D01*
X139600000Y-49150000D02*
X139600000Y-50450000D01*
X139600000Y-54750000D02*
X139600000Y-52650000D01*
X101500000Y-47450000D02*
X101500000Y-48950000D01*
X102750000Y-51450000D02*
X107250000Y-51450000D01*
X107250000Y-44950000D02*
X102750000Y-44950000D01*
X108500000Y-48950000D02*
X108500000Y-47450000D01*
X91600000Y-47450000D02*
X91600000Y-48950000D01*
X92850000Y-51450000D02*
X97350000Y-51450000D01*
X97350000Y-44950000D02*
X92850000Y-44950000D01*
X98600000Y-48950000D02*
X98600000Y-47450000D01*
X111400000Y-47450000D02*
X111400000Y-48950000D01*
X112650000Y-51450000D02*
X117150000Y-51450000D01*
X117150000Y-44950000D02*
X112650000Y-44950000D01*
X118400000Y-48950000D02*
X118400000Y-47450000D01*
X121400000Y-47450000D02*
X121400000Y-48950000D01*
X122650000Y-51450000D02*
X127150000Y-51450000D01*
X127150000Y-44950000D02*
X122650000Y-44950000D01*
X128400000Y-48950000D02*
X128400000Y-47450000D01*
X140890000Y-54662779D02*
X140890000Y-54337221D01*
X141910000Y-54662779D02*
X141910000Y-54337221D01*
X164630000Y-66530000D02*
X162930000Y-66530000D01*
X164630000Y-75870000D02*
X162930000Y-75870000D01*
X157262779Y-68140000D02*
X156937221Y-68140000D01*
X157262779Y-69160000D02*
X156937221Y-69160000D01*
X165537221Y-77590000D02*
X165862779Y-77590000D01*
X165537221Y-78610000D02*
X165862779Y-78610000D01*
X165862779Y-80240000D02*
X165537221Y-80240000D01*
X165862779Y-81260000D02*
X165537221Y-81260000D01*
D15*
X160500000Y-81050000D02*
X163500000Y-81050000D01*
X160500000Y-83350000D02*
X160500000Y-81050000D01*
X160500000Y-85100000D02*
X160500000Y-83700000D01*
X163500000Y-81050000D02*
X163500000Y-83350000D01*
X163500000Y-83350000D02*
X160500000Y-83350000D01*
D14*
X152390000Y-86040000D02*
X152390000Y-92160000D01*
X152390000Y-92160000D02*
X157110000Y-92160000D01*
X153000000Y-86650000D02*
X153000000Y-91550000D01*
X153000000Y-89000000D02*
X153500000Y-89000000D01*
X153000000Y-89100000D02*
X153500000Y-89100000D01*
X153000000Y-91550000D02*
X156500000Y-91550000D01*
X153500000Y-89000000D02*
X153500000Y-89200000D01*
X153500000Y-89200000D02*
X153000000Y-89200000D01*
X154500000Y-86040000D02*
X154500000Y-86650000D01*
X154500000Y-92160000D02*
X154500000Y-91550000D01*
X155800000Y-86040000D02*
X155800000Y-86650000D01*
X155800000Y-92160000D02*
X155800000Y-91550000D01*
X156500000Y-86650000D02*
X153000000Y-86650000D01*
X156500000Y-88600000D02*
X156500000Y-86650000D01*
X156500000Y-89600000D02*
X157110000Y-89600000D01*
X156500000Y-91550000D02*
X156500000Y-89600000D01*
X157110000Y-86040000D02*
X152390000Y-86040000D01*
X157110000Y-87800000D02*
X157310000Y-87800000D01*
X157110000Y-88600000D02*
X156500000Y-88600000D01*
X157110000Y-92160000D02*
X157110000Y-86040000D01*
X157210000Y-87800000D02*
X157210000Y-87500000D01*
X157310000Y-87500000D02*
X157110000Y-87500000D01*
X157310000Y-87800000D02*
X157310000Y-87500000D01*
X157410000Y-85740000D02*
X156160000Y-85740000D01*
X157410000Y-86990000D02*
X157410000Y-85740000D01*
X98049721Y-85490000D02*
X98375279Y-85490000D01*
X98049721Y-86510000D02*
X98375279Y-86510000D01*
X141500000Y-62650000D02*
X141500000Y-63250000D01*
X141500000Y-62950000D02*
X141200000Y-62950000D01*
X141500000Y-62950000D02*
X141800000Y-62950000D01*
X143580000Y-65400000D02*
G75*
G02*
X133780000Y-65400000I-4900000J0D01*
G01*
X133780000Y-65400000D02*
G75*
G02*
X143580000Y-65400000I4900000J0D01*
G01*
X143162779Y-44490000D02*
X142837221Y-44490000D01*
X143162779Y-45510000D02*
X142837221Y-45510000D01*
X158090000Y-86596078D02*
X158090000Y-86078922D01*
X159510000Y-86596078D02*
X159510000Y-86078922D01*
X165875279Y-84990000D02*
X165549721Y-84990000D01*
X165875279Y-86010000D02*
X165549721Y-86010000D01*
X143162779Y-46490000D02*
X142837221Y-46490000D01*
X143162779Y-47510000D02*
X142837221Y-47510000D01*
X165875279Y-82590000D02*
X165549721Y-82590000D01*
X165875279Y-83610000D02*
X165549721Y-83610000D01*
X164612779Y-92490000D02*
X164287221Y-92490000D01*
X164612779Y-93510000D02*
X164287221Y-93510000D01*
X160000000Y-88640000D02*
X159350000Y-88640000D01*
X160000000Y-88640000D02*
X160650000Y-88640000D01*
X160000000Y-91760000D02*
X159350000Y-91760000D01*
X160000000Y-91760000D02*
X160650000Y-91760000D01*
X161402500Y-92040000D02*
X160922500Y-92040000D01*
X161162500Y-91710000D01*
X161402500Y-92040000D01*
G36*
X161402500Y-92040000D02*
G01*
X160922500Y-92040000D01*
X161162500Y-91710000D01*
X161402500Y-92040000D01*
G37*
X150821078Y-112740000D02*
X150303922Y-112740000D01*
X150821078Y-114160000D02*
X150303922Y-114160000D01*
X164078922Y-94890000D02*
X164596078Y-94890000D01*
X164078922Y-96310000D02*
X164596078Y-96310000D01*
X164203922Y-88090000D02*
X164721078Y-88090000D01*
X164203922Y-89510000D02*
X164721078Y-89510000D01*
X155075279Y-70090000D02*
X154749721Y-70090000D01*
X155075279Y-71110000D02*
X154749721Y-71110000D01*
X161249721Y-77290000D02*
X161575279Y-77290000D01*
X161249721Y-78310000D02*
X161575279Y-78310000D01*
D17*
X95750000Y-68650000D03*
D18*
X98290000Y-68650000D03*
X100830000Y-68650000D03*
X103370000Y-68650000D03*
X105910000Y-68650000D03*
X116070000Y-68650000D03*
X118610000Y-68650000D03*
X121150000Y-68650000D03*
X123690000Y-68650000D03*
X126230000Y-68650000D03*
X126230000Y-55950000D03*
X123690000Y-55950000D03*
X121150000Y-55950000D03*
X118610000Y-55950000D03*
X116070000Y-55950000D03*
X105910000Y-55950000D03*
X103370000Y-55950000D03*
X100830000Y-55950000D03*
X98290000Y-55950000D03*
X95750000Y-55950000D03*
M02*
