M48
; DRILL file {KiCad 8.0.6-8.0.6-0~ubuntu22.04.1} date 2024-11-29T16:11:12+0300
; FORMAT={-:-/ absolute / inch / decimal}
; #@! TF.CreationDate,2024-11-29T16:11:12+03:00
; #@! TF.GenerationSoftware,Kicad,Pcbnew,8.0.6-8.0.6-0~ubuntu22.04.1
; #@! TF.FileFunction,Plated,1,2,PTH
FMAT,2
INCH
; #@! TA.AperFunction,Plated,PTH,ViaDrill
T1C0.0150
; #@! TA.AperFunction,Plated,PTH,ViaDrill
T2C0.0200
; #@! TA.AperFunction,Plated,PTH,ComponentDrill
T3C0.0236
; #@! TA.AperFunction,Plated,PTH,ComponentDrill
T4C0.0295
; #@! TA.AperFunction,Plated,PTH,ComponentDrill
T5C0.0394
; #@! TA.AperFunction,Plated,PTH,ComponentDrill
T6C0.0433
; #@! TA.AperFunction,Plated,PTH,ComponentDrill
T7C0.1008
%
G90
G05
T1
X3.624Y-4.4606
X3.6417Y-4.0787
X3.6476Y-4.213
X3.6791Y-2.1988
X3.6831Y-4.7854
X3.685Y-3.7343
X3.6988Y-2.8524
X3.7185Y-2.3878
X3.7677Y-2.126
X3.7992Y-3.9232
X3.815Y-2.7894
X3.8327Y-2.5689
X3.8445Y-4.7126
X3.8622Y-4.0787
X3.876Y-4.8031
X3.8976Y-3.7795
X3.8996Y-4.25
X3.9075Y-3.0787
X3.9134Y-2.3484
X3.939Y-1.7283
X3.9429Y-3.2539
X3.9902Y-3.0709
X4.0039Y-2.9665
X4.0295Y-2.4326
X4.0295Y-4.8031
X4.0335Y-3.7224
X4.0827Y-2.8839
X4.1201Y-3.1732
X4.1299Y-3.7953
X4.1319Y-3.3386
X4.1339Y-3.2244
X4.1378Y-1.9961
X4.1476Y-2.4094
X4.1496Y-3.874
X4.1752Y-3.2579
X4.1811Y-2.878
X4.1811Y-3.4921
X4.1811Y-3.6732
X4.2047Y-3.1063
X4.2067Y-2.5669
X4.2149Y-3.4038
X4.2205Y-3.2323
X4.2264Y-3.75
X4.2441Y-3.6732
X4.248Y-2.4626
X4.25Y-3.5453
X4.2677Y-3.4685
X4.2717Y-3.2323
X4.2717Y-4.1929
X4.2736Y-3.1418
X4.2854Y-2.8839
X4.2953Y-3.3268
X4.3131Y-3.5452
X4.3287Y-1.7283
X4.3346Y-3.8976
X4.3602Y-3.4346
X4.372Y-3.1437
X4.3819Y-3.2638
X4.3909Y-3.3079
X4.3957Y-3.0965
X4.4075Y-3.689
X4.4173Y-4.187
X4.4173Y-4.5591
X4.4232Y-2.1732
X4.4331Y-3.7717
X4.4331Y-3.8681
X4.437Y-3.2756
X4.439Y-4.0118
X4.4547Y-2.4075
X4.4567Y-3.472
X4.4698Y-2.9436
X4.474Y-2.5866
X4.4976Y-2.878
X4.4979Y-3.8681
X4.502Y-3.5413
X4.5122Y-3.6791
X4.5177Y-3.7717
X4.5188Y-3.2014
X4.5492Y-4.2323
X4.5512Y-4.0709
X4.5646Y-2.8929
X4.565Y-3.5551
X4.5787Y-3.8701
X4.5827Y-3.6732
X4.585Y-2.4811
X4.5945Y-3.3425
X4.6102Y-2.9059
X4.6272Y-2.8339
X4.6634Y-4.063
X4.6634Y-4.1673
X4.6752Y-2.4449
X4.6811Y-3.6339
X4.6909Y-3.8661
X4.7Y-2.9728
X4.7205Y-1.7283
X4.7323Y-2.1181
X4.752Y-3.2854
X4.7523Y-3.2028
X4.7713Y-2.9035
X4.7874Y-4.0433
X4.8012Y-2.8583
X4.8248Y-3.8819
X4.872Y-2.3681
X4.874Y-3.3602
X4.8799Y-3.502
X4.8858Y-3.1457
X4.9193Y-2.8563
X4.9213Y-2.1181
X4.9213Y-4.1339
X4.9646Y-3.4961
X4.9685Y-3.7736
X4.9835Y-2.2846
X5.0197Y-2.622
X5.0276Y-2.8425
X5.0433Y-2.3189
X5.0591Y-1.6969
X5.0827Y-3.626
X5.0827Y-3.8543
X5.0866Y-4.2205
X5.0886Y-2.2402
X5.0921Y-2.3165
X5.1102Y-2.8504
X5.1201Y-1.8898
X5.122Y-3.5079
X5.1299Y-3.0256
X5.187Y-2.8839
X5.2087Y-2.5098
X5.2165Y-2.6969
X5.2343Y-3.5846
X5.2362Y-3.685
X5.2362Y-3.7717
X5.2402Y-4.1299
X5.2894Y-3.8543
X5.2953Y-1.8701
X5.3091Y-3.4941
X5.3406Y-2.7874
X5.3406Y-3.9882
X5.3504Y-2.8996
X5.3539Y-2.2602
X5.3937Y-2.3386
X5.3937Y-3.5866
X5.4366Y-3.4902
X5.437Y-2.4331
X5.452Y-3.289
X5.4528Y-3.7067
X5.4665Y-2.6752
X5.4783Y-3.9823
X5.5354Y-3.8681
X5.5469Y-3.215
X5.5512Y-3.4902
X5.5669Y-3.6476
X5.5866Y-1.9345
X5.5866Y-2.0236
X5.6102Y-3.0157
X5.6248Y-2.1661
X5.6417Y-3.7638
X5.7067Y-2.3465
X5.7087Y-1.7721
X5.7106Y-2.9193
X5.7126Y-3.3583
X5.7126Y-3.7697
X5.7205Y-1.9193
X5.7213Y-2.0201
X5.7303Y-3.6043
X5.752Y-3.2945
X5.7559Y-3.1969
X5.7953Y-3.7697
X5.7953Y-4.4843
X5.7992Y-3.1315
X5.8189Y-2.8228
X5.8307Y-3.7343
X5.8406Y-3.2953
X5.8445Y-3.1496
X5.8681Y-3.498
X5.8937Y-2.378
X5.8937Y-2.4567
X5.9016Y-1.9862
X5.9318Y-3.5949
X5.9449Y-4.0748
X5.9449Y-4.685
X5.9567Y-2.6417
X5.9606Y-1.7874
X5.9606Y-3.4252
X5.9646Y-3.0157
X5.9685Y-2.8342
X5.9687Y-2.9014
X5.9843Y-3.9114
X5.9846Y-3.7933
X5.9862Y-2.1654
X5.9882Y-2.561
X5.9941Y-1.9843
X5.9961Y-2.4843
X5.9961Y-3.5157
X6.0123Y-3.7421
X6.0622Y-3.1413
X6.0925Y-2.7224
X6.1181Y-2.9331
X6.1368Y-1.748
X6.1476Y-2.1378
X6.1496Y-3.9783
X6.1555Y-2.0118
X6.185Y-2.5748
X6.2047Y-1.9154
X6.2146Y-1.7894
X6.2402Y-3.0118
X6.248Y-1.874
X6.25Y-1.7028
X6.2539Y-3.4862
X6.2539Y-3.6043
X6.2579Y-3.2815
X6.2677Y-2.0768
X6.2835Y-1.9094
X6.2879Y-1.8236
X6.2953Y-2.6437
X6.2972Y-3.1358
X6.311Y-3.4213
X6.3346Y-4.4496
X6.3543Y-1.998
X6.3602Y-1.7343
X6.3937Y-3.498
X6.4193Y-1.7953
X6.4213Y-1.9291
X6.4291Y-3.0925
X6.4449Y-2.0945
X6.4488Y-3.3228
X6.4819Y-4.4496
X6.4961Y-3.2205
X6.5118Y-2.4724
X6.5531Y-3.225
X6.5534Y-3.3244
X6.5768Y-2.7126
X6.5768Y-2.9035
X6.5906Y-3.0315
X6.5906Y-3.1181
T2
X3.5965Y-3.3815
X3.6614Y-3.3228
X3.6706Y-2.3196
X3.6706Y-2.4311
X3.8346Y-3.6102
X3.8787Y-4.4165
X3.9252Y-2.4764
X3.9606Y-4.4528
X4.0724Y-4.5579
X4.1142Y-4.122
X4.1457Y-2.3386
X4.1949Y-2.628
X4.2067Y-4.1732
X4.2717Y-2.2323
X4.315Y-2.3661
X4.3425Y-2.9094
X4.6024Y-2.5827
X4.7638Y-3.5039
X4.8583Y-2.4567
X4.8583Y-2.5827
X4.9724Y-3.0606
X5.0118Y-3.2028
X5.0157Y-3.3169
X5.0335Y-2.5433
X5.065Y-3.4016
X5.0827Y-4.1063
X5.1673Y-3.2441
X5.2362Y-2.2047
X5.2362Y-3.498
X5.2776Y-3.1575
X5.2953Y-1.9291
X5.3244Y-3.2071
X5.4626Y-3.3937
X5.4646Y-3.1311
X5.4823Y-3.9158
X5.5118Y-3.0512
X5.5165Y-3.3346
X5.6673Y-3.9803
X5.6992Y-4.1012
X5.7283Y-2.126
X5.7441Y-2.7028
X5.7913Y-3.8898
X5.8012Y-2.5709
X5.8996Y-3.9252
X5.9035Y-2.5315
X5.9406Y-4.187
X5.9606Y-2.3209
X6.0768Y-3.2047
X6.0787Y-3.8563
X6.1441Y-2.8745
X6.187Y-2.9764
X6.2795Y-3.7756
X6.2902Y-2.7618
X6.2902Y-2.848
X6.2992Y-2.9173
X6.3307Y-3.7008
X6.3386Y-2.3701
X6.3898Y-3.5512
X6.4646Y-3.4085
X6.5728Y-3.811
T4
X5.4016Y-2.5138
X5.5157Y-2.5138
X6.1142Y-3.4685
X6.1142Y-3.5472
T5
X3.7697Y-2.2028
X3.7697Y-2.7028
X3.8697Y-2.2028
X3.8697Y-2.7028
X3.9697Y-2.2028
X3.9697Y-2.7028
X4.0697Y-2.2028
X4.0697Y-2.7028
X4.1063Y-4.3291
X4.1063Y-4.4291
X4.1697Y-2.2028
X4.1697Y-2.7028
X4.2063Y-4.3291
X4.2063Y-4.4291
X4.3063Y-4.3291
X4.3063Y-4.4291
X4.4063Y-4.3291
X4.4063Y-4.4291
X4.5063Y-4.3291
X4.5063Y-4.4291
X4.5697Y-2.2028
X4.5697Y-2.7028
X4.6697Y-2.2028
X4.6697Y-2.7028
X4.7697Y-2.2028
X4.7697Y-2.7028
X4.8697Y-2.2028
X4.8697Y-2.7028
X4.9697Y-2.2028
X4.9697Y-2.7028
X5.8898Y-2.1673
X6.2835Y-2.1673
X6.3858Y-3.9154
X6.3858Y-4.0154
X6.3858Y-4.1154
X6.4858Y-3.9154
X6.4858Y-4.0154
X6.4858Y-4.1154
T6
X3.6161Y-1.8091
X3.6161Y-1.9862
X3.872Y-1.8091
X3.872Y-1.9862
X3.9803Y-3.8701
X3.9803Y-4.0472
X4.0059Y-1.8091
X4.0059Y-1.9862
X4.2362Y-3.8701
X4.2362Y-4.0472
X4.2618Y-1.8091
X4.2618Y-1.9862
X4.3957Y-1.8091
X4.3957Y-1.9862
X4.6516Y-1.8091
X4.6516Y-1.9862
X4.7894Y-1.8091
X4.7894Y-1.9862
X4.9508Y-3.8701
X4.9508Y-4.0472
X5.0453Y-1.8091
X5.0453Y-1.9862
X5.2067Y-3.8701
X5.2067Y-4.0472
X5.2638Y-1.7657
X5.2638Y-2.0295
X5.4843Y-1.7657
X5.4843Y-1.8917
X5.4843Y-2.0295
T7
X3.748Y-4.0807
X3.748Y-4.3445
X3.748Y-4.6083
X6.4075Y-4.3445
T3
G00X6.3614Y-2.6331
M15
G01X6.385Y-2.6331
M16
G05
G00X6.3614Y-2.9732
M15
G01X6.385Y-2.9732
M16
G05
G00X6.511Y-2.6331
M15
G01X6.5346Y-2.6331
M16
G05
G00X6.511Y-2.9732
M15
G01X6.5346Y-2.9732
M16
G05
M30
